<?xml version="1.0" encoding="utf-8"?>
<!-- Generator: Adobe Illustrator 19.2.0, SVG Export Plug-In . SVG Version: 6.00 Build 0)  -->
<svg version="1.1" id="Layer_1" xmlns="http://www.w3.org/2000/svg" xmlns:xlink="http://www.w3.org/1999/xlink" x="0px" y="0px"
	 viewBox="0 0 400 400" style="enable-background:new 0 0 400 400;" xml:space="preserve">
<style type="text/css">
	.st0{fill:#231F20;}
	.st1{fill:#FFFFFF;}
</style>
<g>
	<g>
		<g>
			<path class="st0" d="M71.1,168.6c11.1,0.6,22.3,0.3,33.2,0.2c11.3-0.1,22.5-0.1,33.8-0.1c22.3,0,44.7,0.1,67.1,0.2
				c0.5,0,0.5-0.7,0-0.7c-22.3-0.3-44.7-0.4-67.1-0.5c-11.1,0-22.2,0-33.2-0.1c-11.3,0-22.6-0.3-33.8,0.4
				C70.8,168.1,70.8,168.5,71.1,168.6L71.1,168.6z"/>
		</g>
	</g>
	<g>
		<g>
			<path class="st0" d="M73.4,189c22.2,0.9,44.3,0.5,66.5,0.2c22.2-0.2,44.3-0.6,66.5-1.3c0.5,0,0.5-0.8,0-0.8
				c-22.2,0.5-44.3,0.9-66.5,1.2c-22.2,0.2-44.3-0.3-66.5,0.5C73.3,188.8,73.3,189,73.4,189L73.4,189z"/>
		</g>
	</g>
	<g>
		<g>
			<path class="st0" d="M206.8,169.1c-0.5,2.3-0.1,5.1-0.1,7.4c0.1,3.3,0.3,6.6,0.5,9.9c0,0.6,1,0.6,1,0c-0.2-3.3-0.5-6.6-0.5-9.9
				c-0.1-2.5,0.4-5.1-0.5-7.4C207.1,169,206.9,169,206.8,169.1L206.8,169.1z"/>
		</g>
	</g>
	<g>
		<g>
			<path class="st0" d="M71.1,168.1c-1.9-0.3-0.9,5.5-0.9,6.8c0,3.9-0.5,8.2,0.2,12.1c0.1,0.5,0.9,0.4,0.9-0.1
				c0-3.4-0.1-6.7-0.1-10.1c0-1.2,0.1-2.5,0-3.7s-0.7-3.8,0.1-4.8C71.2,168.3,71.2,168.1,71.1,168.1L71.1,168.1z"/>
		</g>
	</g>
	<g>
		<g>
			<path class="st0" d="M137.8,168.6c-0.1,1.9,0.2,7.1,0.2,8.7c0,3.6-0.1,7.8,0.1,11.4c1.7,0,1.6,0.3,2.5,0.2c0.2-3.6,0-8.1,0-11.5
				c0-1.6,0.3-6.8,0.1-8.7C139.8,168.2,139,168.2,137.8,168.6z"/>
		</g>
	</g>
	<g>
		<g>
			<path class="st0" d="M244.1,168c-6.9-3.1-14.7-3.4-19.2,3.7c-0.2,0.4,0.3,0.7,0.5,0.5c2.5-2.9,5.1-5.3,9.2-5.7
				c3.2-0.3,6.4,0.6,9.4,1.7C244.1,168.2,244.2,168,244.1,168L244.1,168z"/>
		</g>
	</g>
	<g>
		<g>
			<path class="st0" d="M230.8,167c-5.4,2.4-8.7,7.6-8.7,13.5c0,6.1,3.8,12.2,10,13.3c0.4,0.1,0.5-0.4,0.2-0.5
				C220.1,189.3,220.6,172.9,230.8,167C230.9,167,230.8,166.9,230.8,167L230.8,167z"/>
		</g>
	</g>
	<g>
		<g>
			<path class="st0" d="M228.9,192.4c4.5,2.1,10.1,2.8,14.7,0.5c3.7-1.8,6.8-5.6,7.2-9.7c0.1-0.5-0.6-0.5-0.8-0.1
				c-1.2,3.8-3.1,7.2-6.9,9.1C238.6,194.5,233.7,193.2,228.9,192.4C228.9,192.3,228.9,192.4,228.9,192.4L228.9,192.4z"/>
		</g>
	</g>
	<g>
		<g>
			<path class="st0" d="M235.3,166c4.5,0.5,8.5,1.4,11.8,4.7c4.6,4.7,3.6,11.1,1.4,16.7c-0.1,0.4,0.4,0.5,0.5,0.3
				c2.8-5.1,3.3-12.4-0.8-16.9c-3.5-3.8-8-4.9-13-4.9C235.3,165.9,235.3,166,235.3,166L235.3,166z"/>
		</g>
	</g>
	<g>
		<g>
			<path class="st0" d="M243.3,162.5c-7.4-2.7-17.5-1.6-22.2,5.3c-4.9,7.2-5.8,16.9,0.3,23.9c0.3,0.4,0.9-0.1,0.6-0.5
				c-5.2-7.1-5.3-15.6-0.5-22.9c4.6-7.1,14.2-7.6,21.7-5.7C243.3,162.5,243.4,162.5,243.3,162.5L243.3,162.5z"/>
		</g>
	</g>
	<g>
		<g>
			<path class="st0" d="M238.6,196.9c0.7,0.4,0.7,1.2,1.4,1.6c0.7,0.4,1.8-0.1,2.5-0.2c2.7-0.5,4.9-1.3,6.9-3.1
				c4.2-3.9,7.1-9.6,7.1-15.5c0-10.9-9.6-17.5-19.5-18.4c-0.3,0-0.4,0.5-0.1,0.5c8.9,1.5,18,6.8,18.7,16.8c0.4,5.5-2,10.8-5.7,14.9
				c-2,2.3-4,3.5-7,4.2c-0.9,0.3-2.2,0.7-3.1,0.3C239.4,197.5,239.2,197,238.6,196.9C238.6,196.8,238.6,196.9,238.6,196.9
				L238.6,196.9z"/>
		</g>
	</g>
	<g>
		<g>
			<path class="st0" d="M211.5,197.3c0.6-2.1,3.2-3.1,4.9-4c2.7-1.4,5.1-1.6,8.1-1.2c3.8,0.5,7.4,1.5,10.8,3.2
				c6.4,3.5,10.7,10.9,13,17.7c0.2,0.5,0.9,0.3,0.8-0.2c-0.9-4.1-3.4-8.2-5.9-11.4c-2.7-3.5-5.8-6.2-9.9-7.9
				c-3.8-1.6-9.1-2.9-13.3-2.3c-2.3,0.4-4.2,1.6-6.1,2.8c-1.4,0.9-2.4,1.6-2.7,3.3C211.4,197.3,211.5,197.3,211.5,197.3L211.5,197.3
				z"/>
		</g>
	</g>
	<g>
		<g>
			<path class="st0" d="M246.5,212.3c1.8,0.5,3.5,1.6,4.9,2.9c1.5,1.5,1.8,3.5,2.8,5.2c0.2,0.3,0.6,0.1,0.5-0.3
				c-1.1-3.9-3.8-7.8-8.2-8.2C246.4,212,246.4,212.2,246.5,212.3L246.5,212.3z"/>
		</g>
	</g>
	<g>
		<g>
			<path class="st0" d="M253.8,219.3c0.9,0.6,1.9,1.1,2.7,1.9c0.8,0.8,1.3,1.7,1.9,2.7c0.5,0.5,0.9,1,1.5,1.6c0.9,0.9,1.6,1.9,2.3,3
				c0.2,0.4,0.8,0.1,0.7-0.3c-0.8-2.4-3-3.7-4.4-5.7C257.5,221,255.9,219.3,253.8,219.3C253.7,219.1,253.7,219.3,253.8,219.3
				L253.8,219.3z"/>
		</g>
	</g>
	<g>
		<g>
			<path class="st0" d="M261.2,226.5c2.3,0.8,3.4,1.9,4.9,3.7c0.5,0.5,0.9,1.1,1.7,1.3c1.2,0.3,2.7-0.3,3.8-0.3
				c2.1,0,3.8,0.6,5.8,1.3c0.3,0.1,0.5-0.3,0.2-0.5c-1.3-0.8-2.7-1.2-4.3-1.5c-1.5-0.2-5,0.5-6.2-0.3c-1.2-0.8-1.7-2.3-3-3.1
				C263.2,226.5,262.3,226.2,261.2,226.5C261.2,226.4,261.2,226.5,261.2,226.5L261.2,226.5z"/>
		</g>
	</g>
	<g>
		<g>
			<path class="st0" d="M277.8,232.2c2.1-1.9,4.2-3.8,6.6-5.4c1.8-1.3,4.3-2.2,6-3.7c1.5-1.3,2.3-3.3,3.8-4.6c2.4-2.1,5.2-2.7,8.3-3
				c0.4,0,0.5-0.6,0.1-0.7c-4.4-0.6-8.8,1.9-11.3,5.4c-1.9,2.7-4.4,3.7-7.1,5.5c-2.6,1.7-4.8,3.8-6.7,6.2
				C277.5,232.2,277.7,232.4,277.8,232.2L277.8,232.2z"/>
		</g>
	</g>
	<g>
		<g>
			<path class="st0" d="M296.5,191.8c-0.8,1.2-1.9,2-1.8,3.6c0.1,1.6,1,3.7,1.8,5.1c0.2,0.4,0.8,0.1,0.7-0.3
				c-0.4-1.6-1.7-3.4-1.7-5.1c0-1.3,1.2-2,1.2-3.2C296.8,191.7,296.6,191.7,296.5,191.8L296.5,191.8z"/>
		</g>
	</g>
	<g>
		<g>
			<path class="st0" d="M296.3,199.3c-3.7,4.5-0.8,12.7,2.1,16.9c0.4,0.5,1.2,0,0.8-0.5c-1.6-2.2-2.4-4.7-3-7.2
				c-0.9-3.3-0.4-5.8,0.5-9C296.8,199.3,296.4,199,296.3,199.3L296.3,199.3z"/>
		</g>
	</g>
	<g>
		<g>
			<path class="st0" d="M288.1,163.8c-3.6,3.5-1.6,10-0.2,14.1c1.6,5.1,4.6,10.5,8.2,14.6c0.3,0.4,0.8-0.1,0.6-0.5
				c-2.3-4.5-5.5-8.2-7.3-12.9c-1.7-4.8-3.1-10.3-1.1-15.1C288.3,163.8,288.2,163.7,288.1,163.8L288.1,163.8z"/>
		</g>
	</g>
	<g>
		<g>
			<path class="st0" d="M269.8,162.8c2.5,5.8,12.6,6.2,17.3,3.1c0.4-0.3,0.1-0.8-0.4-0.6c-5.5,2.5-12.6,1.8-16.9-2.7
				C269.9,162.6,269.8,162.7,269.8,162.8L269.8,162.8z"/>
		</g>
	</g>
	<g>
		<g>
			<path class="st0" d="M238.1,154.4c-0.3,2.6,1.8,5.2,3.6,7c2.4,2.4,5.6,3.8,8.9,4.3c4,0.7,8.2,0.5,12.3,0c2.6-0.3,5.4-0.6,7-2.9
				c0.3-0.4-0.3-0.6-0.5-0.5c-2.5,2.1-5,2.4-8.2,2.7c-3.1,0.3-6.3,0.5-9.5,0c-2.9-0.4-5.8-1.4-8.2-3.1c-2-1.6-4.8-4.7-5.1-7.3
				C238.3,154.2,238.1,154.2,238.1,154.4L238.1,154.4z"/>
		</g>
	</g>
	<g>
		<g>
			<path class="st0" d="M212.2,195.6c-1.8,2.1-0.7,4.7,0.8,6.6c2.6,3.1,4.9,6.1,8.2,8.6c0.4,0.3,0.7-0.3,0.5-0.5
				c-2.1-1.7-4-3.6-5.8-5.7C213.7,202,210.4,199.3,212.2,195.6C212.3,195.7,212.2,195.6,212.2,195.6L212.2,195.6z"/>
		</g>
	</g>
	<g>
		<g>
			<path class="st0" d="M212,196.1c5-4.4,11.4,3.2,14,6.9c1.5,2.1,3.6,5.5,0.2,6.9c-1.5,0.6-3.8,0.8-5.2-0.1
				c-0.3-0.2-0.5,0.2-0.3,0.4c1.4,1.6,4.6,1.1,6.2,0.3c2.3-1.1,2.3-3.6,1.2-5.6C225.6,200.5,217.4,190.1,212,196.1
				C211.8,196.1,211.9,196.2,212,196.1L212,196.1z"/>
		</g>
	</g>
	<g>
		<g>
			<path class="st0" d="M219.1,208.9c2,3.1,3.1,6.7,4.5,10.1c0.9,2.3,1.6,5.7,4.1,6.8c0.3,0.2,0.6-0.3,0.4-0.5
				c-4.5-4.4-4-12.4-8.9-16.5C219.2,208.7,219.1,208.8,219.1,208.9L219.1,208.9z"/>
		</g>
	</g>
	<g>
		<g>
			<path class="st0" d="M227.8,224.7c-0.3,0.9-0.2,2,0.2,2.9c0.4,0.9,1.3,1.3,1.9,1.8c0.3,0.2,0.6,0,0.5-0.4c-0.3-0.8-1.1-1-1.6-1.6
				c-0.5-0.7-0.5-1.9-0.7-2.7C228.1,224.5,227.8,224.5,227.8,224.7L227.8,224.7z"/>
		</g>
	</g>
	<g>
		<g>
			<path class="st0" d="M230,227.8c-0.8,1.6,0.9,4.5,2.7,4.6c0.3,0,0.5-0.5,0.3-0.6c-0.6-0.5-1.3-0.8-1.8-1.6
				c-0.5-0.7-0.5-1.6-0.9-2.4C230.2,227.8,230.1,227.8,230,227.8L230,227.8z"/>
		</g>
	</g>
	<g>
		<g>
			<path class="st0" d="M232.6,231c-0.2,1.4,0.3,2.8,0.7,4.1c0.5,1.2,1.6,1.9,2.7,2.2c0.4,0.1,0.7-0.5,0.3-0.7
				c-1.2-0.5-2-1.1-2.6-2.4C233.3,233.1,233,232.1,232.6,231C232.8,230.9,232.7,230.9,232.6,231L232.6,231z"/>
		</g>
	</g>
	<g>
		<g>
			<path class="st0" d="M235.8,235.6c0.2,1.8,1.2,3.6,2.5,4.9c0.7,0.7,1.6,1.2,2.4,1.7c1.2,0.7,2.1,1.7,3.2,2.7
				c0.3,0.3,0.9-0.1,0.6-0.5c-1.1-1.5-2.6-2.4-4-3.4c-2-1.3-3.2-3.3-4.4-5.4C236,235.4,235.8,235.4,235.8,235.6L235.8,235.6z"/>
		</g>
	</g>
	<g>
		<g>
			<path class="st0" d="M243,244c2.1,4.9,6.5,7.7,9.3,12.1c3.5,5.3,6.6,11.4,8.2,17.4c0.1,0.2,0.4,0.1,0.3-0.1
				c-1.2-6-4.1-11.8-7.3-17c-1.5-2.4-3.3-4.2-5.2-6.2c-1.9-2-3.2-4.2-4.9-6.4C243.3,243.5,243,243.7,243,244L243,244z"/>
		</g>
	</g>
	<g>
		<g>
			<path class="st0" d="M238,154.4c2.2,1.4,4.7,0.4,7.1-0.3c1.9-0.5,4.5-1.1,5.6-2.8c0.1-0.2-0.1-0.5-0.4-0.4
				c-3.1,1.9-8.5,4.3-12.3,3.3C237.9,154.1,237.8,154.3,238,154.4L238,154.4z"/>
		</g>
	</g>
	<g>
		<g>
			<path class="st0" d="M238.4,154.5c-1-1.2,5.8-2.8,6.6-3c1.6-0.4,3.8-1.1,5.3-0.1c0.3,0.2,0.6-0.2,0.5-0.5c-1.4-2-6.5,0-8.2,0.5
				c-0.5,0.2-6.2,1.8-4.3,3.2C238.3,154.7,238.4,154.6,238.4,154.5L238.4,154.5z"/>
		</g>
	</g>
	<g>
		<g>
			<path class="st0" d="M248.6,150.4c1.6-0.5,2.9-1,4.7-1.2c1.1-0.1,2.7,0,3.6-0.6c0.2-0.2,0.1-0.5-0.1-0.5
				c-1.4-0.1-3.2,0.4-4.6,0.6C250.9,148.8,249.4,149.2,248.6,150.4C248.5,150.4,248.6,150.4,248.6,150.4L248.6,150.4z"/>
		</g>
	</g>
	<g>
		<g>
			<path class="st0" d="M255.2,148.7c1.6,0.1,2.3-0.7,3.7-1.5c2.1-1.1,4.3-1.1,6.7-1.3c0.5,0,0.5-0.6,0-0.7c-1.9-0.2-3.9,0-5.7,0.7
				c-1.6,0.6-2.9,2.1-4.7,2.5C255.1,148.5,255.1,148.7,255.2,148.7L255.2,148.7z"/>
		</g>
	</g>
	<g>
		<g>
			<path class="st0" d="M264.4,146.2c2.8-0.5,5.7-1.5,8.6-1.4c3.1,0.1,6,1.2,9.1,1.9c2.7,0.7,5.6,1.3,8.4,1.6
				c2.7,0.4,5.3,0.5,7.8,1.5c0.5,0.2,0.7-0.6,0.2-0.8c-2.8-1.1-5.9-1.2-8.8-1.6c-3.1-0.5-6.2-1.2-9.3-2.1c-2.6-0.7-5.2-1.6-7.9-1.5
				c-2.8,0.1-5.6,1.2-8.2,2.1C264.2,146.1,264.3,146.2,264.4,146.2L264.4,146.2z"/>
		</g>
	</g>
	<g>
		<g>
			<path class="st0" d="M297.4,149.3c1.7,1,3.7,1.9,5.5,2.9c1.9,1.1,3,3.7,4.9,5.1c0.3,0.2,0.5-0.1,0.4-0.4c-0.9-1-1.8-2-2.5-3.3
				c-0.5-0.9-0.9-1.6-1.9-2.2C301.7,150.3,299.9,149.4,297.4,149.3C297.4,149.2,297.4,149.3,297.4,149.3L297.4,149.3z"/>
		</g>
	</g>
	<g>
		<g>
			<path class="st0" d="M306.5,156.2c0.5,1.3,2,1.6,2.8,2.7c1,1.5,1.6,3.3,2.3,4.9c1.6,3.4,3.3,6.9,5.3,10.1
				c3.8,6.3,8.9,12.3,10.8,19.5c0.1,0.3,0.5,0.2,0.5-0.1c-0.3-3.5-2.2-6.4-3.8-9.3c-1.9-3.6-4.3-6.8-6.4-10.2
				c-2.2-3.5-3.9-7.1-5.7-10.9c-0.6-1.5-1.2-3.1-2.2-4.4C309,157.1,308,157,306.5,156.2C306.5,156.1,306.4,156.2,306.5,156.2
				L306.5,156.2z"/>
		</g>
	</g>
	<g>
		<g>
			<path class="st0" d="M255.9,126.7c-2.2,1.5-2,4.9-1.6,7.1c0.5,2.6,2.1,4.7,4.3,6.1c6.3,4.2,15.4,4.1,22.3,1.9
				c0.2-0.1,0.1-0.4-0.1-0.4c-5.8,1.3-12,1.4-17.7-0.5c-2.7-0.8-5.4-2.2-7-4.7C254.7,134.2,253.9,128.9,255.9,126.7
				C256,126.7,256,126.6,255.9,126.7L255.9,126.7z"/>
		</g>
	</g>
	<g>
		<g>
			<path class="st0" d="M278.9,142.3c0.7,0,1.5-0.2,2.1-0.4c0.5-0.1,1.2-0.3,1.3-0.9c0-0.2-0.1-0.2-0.3-0.3c-0.3,0-0.4,0.1-0.6,0.3
				c-0.3,0.2-0.6,0.4-0.9,0.5c-0.5,0.2-1.2,0.3-1.6,0.6C278.8,142.2,278.8,142.4,278.9,142.3L278.9,142.3z"/>
		</g>
	</g>
	<g>
		<g>
			<path class="st0" d="M281.2,141.5c0.3,1.6,0.9,2.9,2.2,4c1.1,1,2.8,2.2,4.4,2.2c0.4,0,0.5-0.5,0.2-0.6c-0.7-0.5-1.6-0.6-2.3-1.1
				c-0.7-0.5-1.5-0.9-2.1-1.6c-0.6-0.6-0.9-1.4-1.4-2.1c-0.2-0.5-0.4-0.7-0.8-0.9C281.3,141.4,281.2,141.4,281.2,141.5L281.2,141.5z
				"/>
		</g>
	</g>
	<g>
		<g>
			<path class="st0" d="M257.6,125.1c-0.4,0.1-0.5,0.1-0.8,0.3c-0.3,0.2-0.5,0.5-0.6,0.8c-0.3,0.5-0.3,1.2,0,1.7
				c0.2,0.3,0.5,0.1,0.5-0.2c-0.1-0.5-0.1-0.9,0-1.4c0.1-0.3,0.3-0.5,0.5-0.6C257.3,125.6,257.5,125.4,257.6,125.1
				C257.7,125.2,257.7,125.1,257.6,125.1L257.6,125.1z"/>
		</g>
	</g>
	<g>
		<g>
			<path class="st0" d="M256.2,127.7c1.2,1.5,3.2,1.4,4.9,1.3c2.8,0,5.6-0.4,8.2-1.4c0.3-0.1,0.2-0.5-0.1-0.4
				c-3.6,1.1-9.4,2.2-13,0.3C256.2,127.5,256.2,127.6,256.2,127.7L256.2,127.7z"/>
		</g>
	</g>
	<g>
		<g>
			<path class="st0" d="M256.3,126.4c2-1.5,4.9-0.5,7.1,0.1c2.1,0.5,4.2,0.9,6.3,1.3c0.3,0,0.5-0.4,0.1-0.5c-3.2-1-6.8-1.8-10.1-2.3
				C258.3,124.8,257,124.9,256.3,126.4C256.2,126.4,256.2,126.5,256.3,126.4L256.3,126.4z"/>
		</g>
	</g>
	<g>
		<g>
			<path class="st0" d="M269.1,127.9c1.5-0.3,2.8-0.8,4.3-0.9c1.7-0.2,3.5,0.2,5.2,0.1c3.1-0.2,5.9-0.6,8.9,0.6
				c0.3,0.1,0.5-0.4,0.3-0.5c-2.8-1.5-6-0.8-9.1-0.7C275.1,126.6,272.3,125.8,269.1,127.9C268.9,127.7,269,127.9,269.1,127.9
				L269.1,127.9z"/>
		</g>
	</g>
	<g>
		<g>
			<path class="st0" d="M286.9,127.6c2,0.4,3.8,1.4,5.6,2.1c1.6,0.6,3.3,0.9,4.9,1.5c3.7,1.3,7.1,3.6,10.5,5.4
				c1.5,0.8,2.8,1.7,4.3,2.5c1.7,0.8,3.6,1.4,5.2,2.2c3.3,1.7,5.9,4.2,8.2,7.1c0.3,0.4,0.8-0.1,0.5-0.5c-4.5-6.1-11.5-8.3-17.9-12
				c-3.3-1.9-6.7-4.1-10.3-5.4c-2.3-0.8-4.6-1.3-6.8-2.3c-1.5-0.6-2.7-1.1-4.4-1C286.8,127.3,286.7,127.6,286.9,127.6L286.9,127.6z"
				/>
		</g>
	</g>
	<g>
		<g>
			<path class="st0" d="M329.2,150.8c3.6,3.3,4.9,8.5,6.8,12.9c0.8,1.9,1.6,3.8,2,5.9c0.5,2.2,0.5,4.6,1,6.8
				c2.1,9.8,9.2,17.7,9,28.1c0,0.4,0.5,0.4,0.5,0c1-10.7-7.1-19.6-8.8-29.9c-0.4-2.4-0.5-4.8-1.2-7.1c-0.6-2.1-1.6-4.1-2.5-6.2
				c-1.6-3.5-2.9-9.1-6.8-10.7C329.3,150.6,329.2,150.7,329.2,150.8L329.2,150.8z"/>
		</g>
	</g>
	<g>
		<g>
			<path class="st0" d="M348,204.3c0.3,3.1,1.2,6,1.4,9.2c0.2,2.8,0,5.6-0.5,8.3c-1.2,6.1-3.2,12.1-5.1,18c-2.1,6.6-4.2,13.2-5.9,20
				c-1.2,4.8-2.5,10.1-1.6,14.9c0.1,0.5,0.9,0.4,0.8-0.1c-0.7-5.4,0.7-11,2.1-16.1c1.7-6.9,4-13.6,6.1-20.3
				c1.8-5.7,3.8-11.4,4.8-17.3c1-5.8-0.2-11.2-1.6-16.8C348.4,204,348,204.1,348,204.3L348,204.3z"/>
		</g>
	</g>
	<g>
		<g>
			<path class="st0" d="M75.9,168.3c-1.4-0.2-3.1-0.3-4.5-0.1c-0.9,0.1-0.9,0.5-1.2,1.4c-0.1,0.2,0.3,0.4,0.4,0.2
				c0.3-0.5,0.2-0.7,1-1c0.5-0.1,1.1,0,1.6-0.1C74.1,168.6,75.1,168.6,75.9,168.3C75.9,168.4,75.9,168.3,75.9,168.3L75.9,168.3z"/>
		</g>
	</g>
	<g>
		<g>
			<path class="st0" d="M70.6,184.9c-0.5,1-0.5,3.5,0.5,4.1c0.9,0.5,3,0.3,4.1,0.3c1.5,0,2.9-0.1,4.5-0.3c0.3,0,0.2-0.4-0.1-0.4
				c-2.1-0.1-4.2-0.1-6.4-0.2c-0.5,0-1.5,0.1-1.8-0.3c-0.2-0.3-0.3-1.5-0.3-1.6C71.1,185.9,71.1,185.3,70.6,184.9
				C70.7,184.9,70.6,184.9,70.6,184.9L70.6,184.9z"/>
		</g>
	</g>
	<g>
		<g>
			<path class="st0" d="M203.1,168.7c0.8,0.1,1.6,0.2,2.5,0.3c0.6,0.1,0.9,0.2,1,0.9c0,0.4,0.1,0.6,0.2,0.9c0.1,0.3,0.4,0.2,0.5,0
				c0.4-0.7,0.3-2.2-0.6-2.6c-1-0.4-2.6,0.1-3.5,0.3C203,168.6,203,168.7,203.1,168.7L203.1,168.7z"/>
		</g>
	</g>
	<g>
		<g>
			<path class="st0" d="M204.5,187.7c0.5,0.3,1.5,0.3,2.1,0.3c0.5,0,1.2-0.2,1.5-0.6c0.3-0.5,0.2-1,0.1-1.5c0-0.5,0-0.9-0.4-1.2
				c-0.2-0.1-0.4,0-0.4,0.2c-0.1,0.3-0.1,0.5-0.1,0.9c0,0.2,0.1,0.8,0,1c-0.2,0.3-1,0.3-1.2,0.3c-0.5,0-1,0-1.5,0.3
				C204.4,187.5,204.3,187.6,204.5,187.7L204.5,187.7z"/>
		</g>
	</g>
	<g>
		<g>
			<g>
				<path class="st0" d="M60.5,152.4c23.5,0.7,47.2-0.1,70.8-0.2c24-0.1,48-0.2,72-0.2c13.3,0,26.5,0.1,39.7,0c0.6,0,0.6-0.9,0-0.9
					c-47.5-0.6-95.1-0.2-142.7,0.2c-13.3,0.1-26.6-0.1-39.7,0.6C60.3,151.9,60.3,152.4,60.5,152.4L60.5,152.4z"/>
			</g>
		</g>
		<g>
			<g>
				<path class="st0" d="M57.9,154.1c-1,8-0.6,16.3-0.6,24.4c0,8.2,0.2,16.5,0.4,24.7c0,0.7,1.2,0.7,1.2,0
					c-0.2-8.2-0.5-16.5-0.5-24.7c-0.1-8.1,0.6-16.3,0.3-24.4C58.5,153.7,57.9,153.7,57.9,154.1L57.9,154.1z"/>
			</g>
		</g>
		<g>
			<g>
				<path class="st0" d="M57.6,199.8c0,1.9-0.7,5.4,1.6,6c2.1,0.5,4.9,0.1,7,0.1c2.8,0,5.7,0.1,8.5,0.1c11.4,0.1,22.7,0.1,34.1,0
					c22.8-0.1,45.6-0.2,68.4-0.5c12.5-0.2,25-0.3,37.5-0.5c0.6,0,0.6-1,0-1c-42.4,0.7-84.9,1.1-127.3,0.9c-6,0-12.1-0.1-18.1-0.1
					c-2.7,0-5.5,0-8.2-0.1s-2.4-2.8-2.6-4.9C58.3,199.4,57.6,199.3,57.6,199.8L57.6,199.8z"/>
			</g>
		</g>
		<g>
			<g>
				<path class="st0" d="M272.5,202.3c-5.1-0.5-10.4,0.2-15.6,0.3c-4.1,0.1-9.1-0.4-13.2,0.5c0.1,0.3,0.2,0.5,0.3,0.8
					c4.3,0.7,9.2,0.1,13.5-0.1c5-0.1,10.3,0.1,15.2-0.6C273.2,203.1,273,202.4,272.5,202.3z"/>
			</g>
		</g>
		<g>
			<g>
				<path class="st0" d="M273.2,165.8c-0.2,6.4,0.4,13,0.4,19.4c0,3.2,0,6.4,0,9.6c0,1.8-0.2,4,0.4,5.8c0.2,0.5,1,0.5,1-0.1
					c0-5.3-0.2-10.6-0.2-15.9c0-3.5,0-7.1-0.1-10.5c-0.1-2.7,0.1-5.7-0.5-8.2C273.8,165.3,273.2,165.5,273.2,165.8L273.2,165.8z"/>
			</g>
		</g>
		<g>
			<g>
				<path class="st0" d="M69.3,152c-1.6-0.2-3.3-0.3-4.9-0.3c-1.5,0-3.1-0.3-4.6,0.1c-2.4,0.6-2.2,2.7-2,4.9c0,0.4,0.5,0.5,0.6,0.1
					c0.2-0.7,0.1-1.4,0.2-2.1c0.5-2.1,2.2-2.2,4-2.2c2.3,0,4.5-0.1,6.8-0.3C69.5,152.3,69.5,152,69.3,152L69.3,152z"/>
			</g>
		</g>
		<g>
			<g>
				<path class="st0" d="M268.8,203.3c1.5,0.3,3.8,0.4,5.1-0.5c1.1-0.7,1.3-3.1,0.8-4.3c-0.1-0.4-0.6-0.4-0.7,0
					c-0.4,1.3,0.4,3.2-1.4,3.6c-1.3,0.3-2.6,0.3-3.8,0.5C268.3,202.6,268.4,203.2,268.8,203.3L268.8,203.3z"/>
			</g>
		</g>
	</g>
	<g>
		<g>
			<path class="st0" d="M256.4,127.1c-0.5,0.1-0.5,0.7-0.2,1.1c0.5,0.5,1.4,0.6,2.1,0.5c0.3,0,0.4-0.5,0.1-0.5
				c-0.3-0.1-2-0.6-1.8-0.9C256.6,127.3,256.6,127.1,256.4,127.1L256.4,127.1z"/>
		</g>
	</g>
	<g>
		<g>
			<path class="st0" d="M255.2,127.6c0.4-0.5,0.8-0.7,1.2-1.2c0.1-0.1,0-0.2-0.1-0.1C255.8,126.6,255.4,127,255.2,127.6
				C255,127.5,255.1,127.6,255.2,127.6L255.2,127.6z"/>
		</g>
	</g>
	<g>
		<g>
			<path class="st0" d="M266.2,128.5c0.7-0.2,1.5-0.3,2.3-0.5c0.6-0.1,1.4-0.2,1.9-0.5c0.1-0.1,0.1-0.2-0.1-0.3
				c-1.4-0.1-2.9,0.5-4.2,1C266,128.3,266.1,128.5,266.2,128.5L266.2,128.5z"/>
		</g>
	</g>
	<g>
		<g>
			<path class="st0" d="M295,148.9c1,0.3,1.9,0.5,2.9,0.9c0.8,0.4,1.6,0.9,2.6,1c0.3,0,0.4-0.3,0.2-0.5c-0.7-0.6-1.8-0.9-2.7-1.2
				C297,148.9,296,148.7,295,148.9C294.9,148.7,294.9,148.8,295,148.9L295,148.9z"/>
		</g>
	</g>
	<g>
		<g>
			<path class="st0" d="M293.8,148.8c1.3,0.5,2.6,0.5,3.8,1c1.5,0.5,2.8,1.4,4.4,1.5c0.3,0,0.4-0.4,0.2-0.5
				c-2.3-1.7-5.5-2.2-8.3-2.2C293.7,148.5,293.7,148.7,293.8,148.8L293.8,148.8z"/>
		</g>
	</g>
	<g>
		<g>
			<path class="st0" d="M304.7,153.3c0.3,0.6,0.6,1.2,1,1.7c0.5,0.6,0.9,1.2,1.4,1.8c0.4,0.5,0.8,0.7,1.3,1.2
				c0.4,0.4,0.5,0.6,1.2,0.7c0.3,0,0.4-0.4,0.1-0.5c-0.5-0.3-0.7-0.9-1.2-1.3c-0.5-0.4-0.7-0.6-1.1-1.1c-0.4-0.5-0.8-0.7-1.3-1.2
				C305.6,154.3,305.2,153.8,304.7,153.3C304.8,153.2,304.7,153.3,304.7,153.3L304.7,153.3z"/>
		</g>
	</g>
	<g>
		<g>
			<path class="st0" d="M325.4,147.1c0.2,1.8,2,2.3,3.3,3.1c0.2,0.1,0.5-0.1,0.4-0.3c-0.3-0.6-0.8-0.9-1.5-1.2
				C326.7,148.3,326,147.8,325.4,147.1C325.5,147,325.4,147,325.4,147.1L325.4,147.1z"/>
		</g>
	</g>
	<g>
		<g>
			<path class="st0" d="M327.6,149c0.1,0.3,0.3,0.5,0.5,0.7c0.5,0.4,0.7,0.8,1,1.3c0.5,0.5,1.1,1.3,1.9,1.3c0.3,0,0.4-0.3,0.2-0.5
				c-0.3-0.3-0.5-0.5-0.8-0.6c-0.5-0.3-0.7-0.6-1-1.1c-0.5-0.5-1-0.9-1.6-1.2C327.6,148.9,327.5,148.9,327.6,149L327.6,149z"/>
		</g>
	</g>
	<g>
		<g>
			<path class="st0" d="M74.5,193.5L74.5,193.5h-0.3H74h-0.1h-0.2l0,0l0,0l0,0l-0.1-0.2l0,0l-0.1-0.2l0,0l-0.1-0.2l0,0l-0.1-0.2l0,0
				l0,0l0,0h-0.1l0,0l0,0l0,0v0.2v0.1v0.2v0.1v0.1v0.1v0.1l0,0l0,0l0,0h-0.1H73h-0.2h-0.1h-0.2l0,0l0,0l0,0l0,0v-0.1v-0.1v-0.1v-0.2
				V193v-0.2v-0.1v-0.2v-0.1v-0.2v-0.1V192v-0.1v-0.2v-0.1v-0.2v-0.1v-0.2v-0.1V191v-0.1l0,0l0,0l0,0l0,0l0,0h0.1h0.2h0.4h0.2h0.1
				h0.2h0h0.1h0.1h0.1H74h0.1h0.1h0.1l0,0h0.1l0,0l0,0l0,0v0.1l0,0v0.1l0,0v0.1v0.1v0.1v0.1v0.1v0.1v0.1v0.1v0.1v0.1v0.1v0.1v0.1
				l0,0l0,0l0,0l-0.1,0.1l0,0h-0.1l0,0l0,0l0,0l0,0l0,0l0.1,0.2l0,0l0.1,0.2l0,0l0.1,0.2l0,0l0.1,0.1L74.5,193.5L74.5,193.5
				L74.5,193.5z M73.5,192.3L73.5,192.3L73.5,192.3L73.5,192.3L73.5,192.3L73.5,192.3l0.1-0.2V192v-0.1v-0.1v-0.1v-0.1l0,0l0,0l0,0
				h-0.1h-0.1h-0.2h-0.1H73l0,0l0,0l0,0l0,0v0.1v0.1v0.1v0.1v0.2l0,0l0,0l0,0l0,0h0.2h0.1L73.5,192.3z"/>
		</g>
		<g>
			<path class="st0" d="M76.6,193.2L76.6,193.2v0.2l0,0l0,0l0,0h-0.5h-0.1h-0.2h-0.1h-0.2h-0.1h-0.1h-0.2h-0.1h-0.3h-0.1l0,0l0,0
				l0,0l0,0v-0.1v-0.1v-0.1V193v-0.2v-0.1v-0.2v-0.1v-0.2v-0.1V192v-0.3v-0.2v-0.1v-0.2v-0.1v-0.1V191v-0.1v-0.2l0,0l0,0l0,0l0,0
				l0,0H75h0.2h0.1h0.2h0.1h0.2h0.1h0.5h0.1h0.1h0.1l0,0l0,0l0,0l0,0v0.1v0.1v0.1v0.1v0.1v0.1l0,0l0,0l0,0l0,0l0,0h-0.1h-0.3h-0.1
				h-0.2h-0.1h-0.2h-0.2h-0.1l0,0l0,0l0,0l0,0l0,0v0.1v0.1v0.1l0,0l0,0l0,0l0,0h0.1h0.1h0.3h0.4h0.1l0,0l0,0l0,0l0,0v0.1v0.1v0.1
				v0.1v0.1l0,0l0,0l0,0l0,0h0.1h-0.2h-0.1h-0.3h-0.2h-0.1h-0.1h-0.1l0,0l0,0l0,0v0.1v0.1v0.1v0.1l0,0l0,0l0,0l0,0h0.2h0.1h0.2H76
				h0.1h0.2h0.1h0.1h0.1l0,0l0,0l0,0L76.6,193.2z"/>
		</g>
		<g>
			<path class="st0" d="M78.8,191.6L78.8,191.6L78.8,191.6L78.8,191.6L78.8,191.6L78.8,191.6L78.8,191.6L78.8,191.6l-0.2,0.1h-0.1
				h-0.2H78h-0.2h-0.1l0,0l0,0l0,0v0.3l0,0l0,0l0,0l0,0h0.1h0.1H78h0.2h0.3h0.1h0.1h0.1l0,0l0,0l0,0l0,0l0,0v0.1v0.1v0.1v0.1v0.1
				v0.1l0,0l0,0l0,0l0,0h-0.1h-0.1h-0.1h-0.2h-0.1h-0.4h-0.1l0,0l0,0l0,0l0,0v0.2v0.1v0.2v0.1v0.1v0.1v0.1l0,0l0,0l0,0l0,0h-0.1
				h-0.1h-0.1h-0.1h-0.1h-0.1l0,0l0,0l0,0l0,0v-0.2V193v-0.2v-0.1v-0.2v-0.1v-0.2v-0.1V192v-0.1v-0.2v-0.3v-0.2V191v-0.2l0,0l0,0
				l0,0l0,0h0.1h0.1h0.1h0.2h0.1h0.2H78h0.2h0.1h0.2h0.1h0.2h0.1h0.1H79h0.1l0,0l0,0l0,0l0,0l0,0v0.1v0.1L78.8,191.6L78.8,191.6z"/>
		</g>
		<g>
			<path class="st0" d="M81,193.4L81,193.4L81,193.4L81,193.4L81,193.4L81,193.4L81,193.4L81,193.4L81,193.4l-0.4,0.1h-0.3h-0.3
				h-0.2h-0.3h-0.2h-0.1l0,0l0,0l0,0l0,0l0,0v-0.1v-0.1v-0.1V193v-0.1v-0.2v-0.1v-0.4v-0.1v-0.4v-0.1v-0.2v-0.3v-0.1v-0.1l0,0l0,0
				l0,0l0,0l0,0l0,0h0.1h0.2h0.1h0.2l0,0l0,0l0,0v0.3v0.2v0.1v0.2v0.1v0.2v0.1v0.2v0.1v0.5l0,0l0,0l0,0l0,0l0,0H80h0.1h0.1h0.5h0.1
				h0.1H81h0l0,0l0,0l0,0l0,0v0.2v0.1L81,193.4z"/>
		</g>
		<g>
			<path class="st0" d="M83.2,193.2L83.2,193.2v0.2l0,0l0,0l0,0h-0.5h-0.1h-0.2h-0.1h-0.2h-0.1H82h-0.2h-0.1h-0.3h-0.1l0,0l0,0l0,0
				l0,0v-0.1v-0.1v-0.1V193v-0.2v-0.1v-0.2v-0.1v-0.2v-0.1V192v-0.3v-0.2v-0.1v-0.2v-0.1v-0.1V191v-0.1v-0.2l0,0l0,0l0,0l0,0l0,0
				h0.2h0.2h0.1H82h0.1h0.2h0.1h0.5h0.1H83h0.1l0,0l0,0l0,0l0,0v0.1v0.1v0.1v0.1v0.1v0.1l0,0l0,0l0,0l0,0l0,0H83h-0.3h-0.1h-0.2
				h-0.1h-0.2H82h-0.1l0,0l0,0l0,0l0,0l0,0v0.1v0.1v0.1l0,0l0,0l0,0l0,0H82h0.1h0.3h0.4h0.1l0,0l0,0l0,0l0,0v0.1v0.1v0.1v0.1v0.1
				l0,0l0,0l0,0l0,0h-0.1h-0.2h-0.1h-0.3H82h-0.1h-0.1h-0.1l0,0l0,0l0,0v0.1v0.1v0.1v0.1l0,0l0,0l0,0l0,0h0.2H82h0.2h0.2h0.5H83h0.1
				h0.1h0.1l0,0l0,0l0,0L83.2,193.2z"/>
		</g>
		<g>
			<path class="st0" d="M85.8,193.5L85.8,193.5L85.8,193.5h-0.2h-0.1h-0.2h-0.1h-0.2l0,0l0,0l0,0l-0.1-0.1l0,0l-0.1-0.1l0,0
				l-0.3-0.4l0,0l-0.1,0.2l0,0l-0.1,0.2l0,0l-0.1,0.1l0,0l-0.1,0.2l0,0h-0.1h-0.4h-0.1h-0.2l0,0l0,0l0,0l0,0l0.4-0.5l0,0l0.1-0.2
				l0,0l0.1-0.2l0,0l0.1-0.2l0,0l0,0l0,0l-0.1-0.2l0,0l-0.1-0.2l0,0l-0.1-0.2l0,0l-0.1-0.2l-0.1-0.2l0,0l-0.1-0.2l0,0l0,0l0,0l0,0
				h0.1h0.1h0.5h0.1l0,0l0,0v0.1l0,0l0,0l0.1,0.2l0,0l0.1,0.2l0,0l0.1,0.2l0,0l0,0l0.1-0.1l0,0l0.1-0.2l0,0l0.1-0.1l0,0v-0.1l0,0
				l0,0l0,0H85h0.1h0.1h0.1h0.2h0.2l0,0l0,0l0,0v0.1l0,0l-0.1,0.2l-0.1,0.2l0,0l-0.1,0.2l0,0l-0.1,0.2l0,0l-0.1,0.2l0,0l0,0l0.1,0.1
				l0,0l0.2,0.2l0.1,0.2l0,0l0.1,0.2l0,0L85.8,193.5L85.8,193.5L85.8,193.5L85.8,193.5L85.8,193.5z"/>
		</g>
		<g>
			<path class="st0" d="M86.8,193L86.8,193v0.2v0.1v0.2l0,0l0,0l0,0l0,0h-0.2h-0.2h-0.2l0,0l0,0l0,0v-0.1v-0.1v-0.1v-0.1v-0.2v-0.1
				v-0.2v-0.1v-0.2v-0.1v-0.2v-0.3v-0.2v-0.1v-0.2v-0.3v-0.2l0,0l0,0l0,0l0,0h0.1h0.1h0h0.2h0.2l0,0l0,0l0,0v0.1v0.1v0.3v0.2v0.1
				v0.2v0.1v0.2v0.1v0.2v0.3L86.8,193z"/>
		</g>
		<g>
			<path class="st0" d="M89.7,192.3L89.7,192.3L89.7,192.3v0.2v0.1v0.1v0.1v0.1v0.1v0.1l0,0l-0.1,0.2l0,0l0,0l0,0l-0.1,0.1l0,0l0,0
				l0,0h-0.1l0,0h-0.1l0,0h-0.1h-0.1h-0.1H89h-0.1h-0.1h-0.1h-0.1h-0.2h-0.1h-0.1l0,0h-0.1l-0.2-0.1h-0.1h-0.1h-0.1h-0.1h-0.1l0,0
				l0,0l0,0l0,0l-0.1-0.1l0,0l0,0l0,0V193l-0.1-0.2v-0.1v-0.1v-0.1v-0.1v-0.1v-0.1v-0.1v-0.1V192v-0.1v-0.1v-0.1v-0.1v-0.1v-0.1
				v-0.1v-0.1v-0.1l0,0v-0.1V191l0,0l0,0l0,0h0.1l0,0l0,0l0.1-0.1l0,0l0,0l0,0h0.1l0,0h0.1h0.1h0.1H88h0.2h0.1h0.1h0.1h0.1h0.1h0.1
				h0.1h0.1H89h0.1h0.1l0,0l0.1,0.1l0,0l0,0l0.1,0.1l0,0l0,0l0,0v0.1l0,0l0,0l0,0v0.1l0,0v0.1l0,0v0.1v0.1v0.1v0.1L89.7,192.3z
				 M89.1,192.4L89.1,192.4L89.1,192.4v-0.2v-0.1l0,0V192l0,0v-0.1l0,0l-0.1-0.1l0,0l-0.1-0.1l0,0h-0.1h-0.1h-0.1h-0.1h-0.1h-0.1
				h-0.1h-0.1h-0.1l0,0H88l0,0v0.1l0,0l0,0v0.1v0.1l0,0l0,0l0,0l0,0v0.1v0.1v0.1v0.1l0,0v0.1l0,0l0,0l0,0l0,0l0,0l0,0l0,0l0,0
				l0.1,0.1l0,0h0.1h0.1h0.1h0.1h0.1h0.1h0.1h0.1h0.1l0,0H89l0,0L89.1,192.4L89.1,192.4L89.1,192.4L89.1,192.4L89.1,192.4v-0.2v-0.1
				V192.4L89.1,192.4z M89,190.5L89,190.5l-0.2,0.2l0,0l-0.1,0.2l0,0l0,0l0,0l0,0h-0.2h-0.3l0,0l0,0l0,0l0,0l0.1-0.2l0,0l0.1-0.2
				l0,0l0,0l0,0l0,0h0.1h0.1h0.1H89L89,190.5L89,190.5L89,190.5L89,190.5L89,190.5z"/>
		</g>
		<g>
			<path class="st0" d="M92.3,191.8L92.3,191.8v0.5v0.2v0.1v0.5v0.1l0,0v0.1v0.2v0.2l0,0l0,0l0,0l0,0l0,0l0,0h-0.2H92h-0.1h-0.1l0,0
				l0,0l0,0l0,0l-0.1-0.1l0,0l-0.1-0.2l0,0l-0.1-0.2l0,0l-0.1-0.2l0,0l-0.1-0.2l0,0l-0.1-0.2l0,0l0,0l0,0v0.2v0.1v0.2v0.1v0.2v0.1
				v0.2v0.1v0.1v0.1l0,0l0,0l0,0l0,0l0,0h-0.1H91h-0.1h-0.1h-0.1h-0.1l0,0l0,0l0,0l0,0l0,0v-0.1v-0.1v-0.1v-0.2v-0.1v-0.4v-0.1v-0.2
				v-0.1v-0.2v-0.2v-0.1v-0.2v-0.1v-0.2v-0.1v-0.1v-0.1v-0.1l0,0l0,0l0,0l0,0h0.1h0.1h0.3l0,0l0,0l0,0l0.1,0.2l0,0l0.1,0.2l0,0
				l0.1,0.2l0,0l0.1,0.2l0,0l0.1,0.2l0,0l0.1,0.2l0,0l0,0l0,0l0,0v-0.1v-0.1V192v-0.1v-0.2v0v-0.2v-0.1v-0.1v-0.1l0,0l0,0l0,0l0,0
				l0,0h0.1h0.2h0H92h0.1h0.1l0,0l0,0l0,0l0,0l0,0v0.1v0.1v0.1L92.3,191.8z"/>
		</g>
	</g>
	<g>
		<g>
			<path class="st0" d="M193.8,192L193.8,192L193.8,192L193.8,192L193.8,192L193.8,192l-0.2,0.1h-0.1h-0.2h-0.2l0,0l0,0l0,0
				l-0.1-0.3l0,0l0,0l0,0h-0.2h-0.2h-0.3h-0.2h-0.1H192h-0.2l0,0l0,0l0,0l-0.1,0.2v0.1l0,0h-0.1h-0.1h-0.2h-0.1h-0.2l0,0l0,0l0,0
				l0,0l0,0V192v-0.1v-0.1l0.1-0.2l0,0l0.1-0.2v-0.1l0.1-0.2v-0.1l0.1-0.2l0,0l0.1-0.3l0.1-0.2v-0.1l0.1-0.2v-0.1l0.1-0.2v-0.1
				l0.1-0.1l0,0l0,0h0.1h0.2h0.3h0.2h0.1l0,0l0,0v0.1v0.1l0.1,0.2l0,0l0.1,0.2l0,0l0.1,0.2l0,0l0.1,0.2l0,0l0.1,0.2l0,0l0.1,0.2l0,0
				l0.1,0.2l0.1,0.2l0,0l0.1,0.2L193.8,192z M192.8,191.1L192.8,191.1l-0.1-0.3v-0.1l-0.1-0.2l0,0l0,0l0,0l0,0l0,0l-0.1,0.2v0.1
				l-0.1,0.2v0.1l0,0l0,0l0,0h0.2H192.8L192.8,191.1L192.8,191.1L192.8,191.1z"/>
		</g>
		<g>
			<path class="st0" d="M196,191.8L196,191.8L196,191.8L196,191.8l-0.2,0.1l0,0h-0.1l0,0h-0.1h-0.1h-0.1h-0.1h-0.1h-0.1h-0.1H195
				h-0.2h-0.1h-0.1h-0.1h-0.1h-0.1h-0.2h-0.1l0,0H194l0,0l0,0l0,0l-0.1-0.1l0,0l0,0v-0.1l0,0l0,0l0,0v-0.1l-0.1-0.1v-0.1v-0.1v-0.1
				v-0.1v-0.1V191v-0.1v-0.1v-0.1v-0.1v-0.1v-0.1v-0.1l0,0v-0.1l0,0v-0.1v-0.1V190l0,0l0,0l0,0l0,0l0,0l0,0l0,0l0.1-0.1l0,0l0,0h0.1
				h0.1h0.1h0.1h0.1h0.1h0.1h0.1h0.1h0.1h0.1l0,0h0.1h0.1l0,0h0.1l0,0l0.1,0.1l0.1,0.1l0,0l0,0l0,0l0,0l0,0l0,0l0,0l0,0l0,0l0,0l0,0
				l-0.1,0.1l0,0l0,0l0,0l0,0l0,0l0,0l0,0h-0.1l0,0h-0.1l0,0H195h-0.1h-0.1h-0.1h-0.1h-0.1h-0.1h-0.1l0,0h-0.1l0,0l0,0l0,0l0,0l0,0
				l0,0v0.1v0.1v0.1v0.1v0.1v0.1v0.1v0.1v0.1v0.1v0.1v0.1l0.1,0.1l0,0l0.1,0.1l0,0h0.1h0.1h0.1h0.1h0.1h0.1l0,0l0,0h0.1h0.1h0.1h0.1
				l0,0h0.1l0,0l0,0l0,0l0,0l0,0l0,0l0,0l0,0l0.1,0.1l0,0l0.1,0.1L196,191.8L196,191.8L196,191.8L196,191.8z"/>
		</g>
		<g>
			<path class="st0" d="M198.3,191.8L198.3,191.8L198.3,191.8L198.3,191.8l-0.2,0.1l0,0H198l0,0h-0.1h-0.1h-0.1h-0.1h-0.1h-0.1h-0.1
				h-0.1h-0.2H197h-0.1h-0.1h-0.1h-0.1h-0.2h-0.1l0,0h-0.1l0,0l0,0l0,0l-0.1-0.1l0,0l0,0v-0.1l0,0l0,0l0,0v-0.1l-0.1-0.1v-0.1v-0.1
				v-0.1v-0.1v-0.1V191v-0.1v-0.1v-0.1v-0.1v-0.1v-0.1v-0.1l0,0v-0.1l0,0v-0.1v-0.1V190l0,0l0,0l0,0l0,0l0,0l0,0l0,0l0.1-0.1l0,0
				l0,0h0.1h0.1h0.1h0.1h0.1h0.1h0.1h0.1h0.1h0.1h0.1l0,0h0.1h0.1l0,0h0.1l0,0l0.1,0.1l0.1,0.1l0,0l0,0l0,0l0,0l0,0l0,0l0,0l0,0l0,0
				l0,0l0,0l-0.1,0.1l0,0l0,0l0,0l0,0l0,0l0,0l0,0h-0.1l0,0h-0.1l0,0h-0.1h-0.1h-0.1h0.2h-0.1h-0.1H197h-0.1l0,0h-0.1l0,0l0,0l0,0
				l0,0l0,0l0,0v0.1v0.1v0.1v0.1v0.1v0.1v0.1v0.1v0.1v0.1v0.1v0.1l0.1,0.1l0,0l0.1,0.1l0,0h0.1h0.1h0.1h0.1h0.1h0.1l0,0l0,0h0.1h0.1
				h0.1h0.1l0,0h0.1l0,0l0,0l0,0l0,0l0,0l0,0l0,0l0,0l0.1,0.1l0,0l0.1,0.1L198.3,191.8L198.3,191.8L198.3,191.8L198.3,191.8z"/>
		</g>
		<g>
			<path class="st0" d="M199.2,191.7L199.2,191.7v0.2v0.1v0.2l0,0l0,0l0,0l0,0H199h-0.2h-0.2l0,0l0,0l0,0V192v-0.1v-0.1v-0.1v-0.2
				v-0.1v-0.2v-0.1V191v-0.1v-0.2v-0.3v-0.2v-0.1V190v-0.3v-0.2l0,0l0,0l0,0l0,0h0.1h0.1h0.1h0.2h0.2l0,0l0,0l0,0v0.1v0.1v0.3v0.2
				v0.1v0.2v0.1v0.2v0.1v0.2v0.3L199.2,191.7z"/>
		</g>
		<g>
			<path class="st0" d="M202.1,190.9L202.1,190.9L202.1,190.9v0.2v0.1v0.1v0.1v0.1v0.1v0.1l0,0l-0.1,0.2l0,0l0,0l0,0l-0.1,0.1l0,0
				l0,0l0,0h-0.1l0,0h-0.1l0,0h-0.1h-0.1h-0.1h-0.1h-0.1h-0.1h-0.1H201h-0.2h-0.1h-0.1l0,0h-0.1l-0.2-0.1h-0.1h-0.1h-0.1H200h-0.1
				l0,0l0,0l0,0l0,0l-0.1-0.1l0,0l0,0l0,0v-0.1l-0.1-0.2v-0.1v-0.1v-0.1v-0.1V191v-0.1v-0.1v-0.1v-0.1v-0.1v-0.1v-0.1v-0.1v-0.1
				v-0.1V190v-0.1v-0.1l0,0v-0.1v-0.1l0,0l0,0l0,0h0.1l0,0l0,0l0.1-0.1l0,0l0,0l0,0h0.1l0,0h0.1h0.1h0.1h0.1h0.2h0.1h0.1h0.1h0.1
				h0.1h0.1h0.1h0.1h0.1h0.1h0.1l0,0l0.1,0.1l0,0l0,0l0.1,0.1l0,0l0,0l0,0v0.1l0,0l0,0l0,0v0.1l0,0v0.1l0,0v0.1v0.1v0.1v0.1
				L202.1,190.9z M201.5,191L201.5,191L201.5,191v-0.2v-0.1l0,0v-0.1l0,0v-0.1l0,0l-0.1-0.1l0,0l-0.1-0.1l0,0h-0.1h-0.1H201h-0.1
				h-0.1h-0.1h-0.1h-0.1h-0.1l0,0h-0.1l0,0v0.1l0,0l0,0v0.1v0.1l0,0l0,0l0,0l0,0v0.1v0.1v0.1v0.1l0,0v0.1l0,0l0,0l0,0l0,0l0,0l0,0
				l0,0l0,0l0.1,0.1l0,0h0.1h0.1h0.1h0.1h0.1h0.1h0.1h0.1h0.1l0,0h0.1l0,0L201.5,191L201.5,191L201.5,191L201.5,191L201.5,191v-0.2
				v-0.1V191L201.5,191z M201.4,189L201.4,189l-0.2,0.2l0,0l-0.1,0.2l0,0l0,0l0,0l0,0h-0.2h-0.3l0,0l0,0l0,0l0,0l0.1-0.2l0,0
				l0.1-0.2l0,0l0,0l0,0l0,0h0.1h0.1h0.1H201.4L201.4,189L201.4,189L201.4,189L201.4,189L201.4,189z"/>
		</g>
		<g>
			<path class="st0" d="M204.7,190.3L204.7,190.3v0.5v0.2v0.1v0.5v0.1l0,0v0.1v0.2v0.2l0,0l0,0l0,0l0,0l0,0l0,0h-0.2h-0.1h-0.1h-0.1
				l0,0l0,0l0,0l0,0l-0.1-0.1l0,0l-0.1-0.2l0,0l-0.1-0.2l0,0l-0.1-0.2l0,0l-0.1-0.2l0,0l-0.1-0.2l0,0l0,0l0,0v0.2v0.1v0.2v0.1v0.2
				v0.1v0.2v0.1v0.1v0.1l0,0l0,0l0,0l0,0l0,0h-0.1h-0.2h-0.6h-0.1h-0.1h-0.1l0,0l0,0l0,0l0,0l0,0v-0.1v-0.1v-0.1v-0.2v-0.1v-0.4
				v-0.1v-0.2v-0.1v-0.2v-0.2v-0.1v-0.2v-0.1v-0.2v-0.1V190v-0.1v-0.1l0,0l0,0l0,0l0,0h0.1h0.1h0.3l0,0l0,0l0,0l0.1,0.2l0,0l0.1,0.2
				l0,0l0.1,0.2l0,0l0.1,0.2l0,0l0.1,0.2l0,0l0.1,0.2l0,0l0,0l0,0l0,0v-0.1v-0.1v-0.2v-0.1v-0.2v-0.1V190v-0.1v-0.1v0.1l0,0l0,0l0,0
				l0,0l0,0h0.1h0.2h0.1h0.1h0.1h0.1l0,0l0,0l0,0l0,0l0,0v0.1v0.1v0.1L204.7,190.3z"/>
		</g>
	</g>
	<g>
		<g>
			<path class="st0" d="M51.2,147.4c14-0.3,28.1-1.2,42.1-1.4c14.3-0.2,28.6-0.1,43,0.1c28.8,0.4,57.8,1.2,86.6,0.8
				c15.9-0.2,31.9-0.6,47.7-2c0.6-0.1,0.6-1,0-0.9c-28.4,1.7-56.7,2.1-85.1,1.7c-28.8-0.4-57.8-1.2-86.6-1c-15.8,0.1-32,0-47.7,1.8
				C50.6,146.6,50.5,147.4,51.2,147.4L51.2,147.4z"/>
		</g>
	</g>
	<g>
		<g>
			<path class="st0" d="M50.8,146.9c-0.6,2.9-0.4,6.2-0.5,9.2c-0.1,4.4-0.1,8.8-0.2,13.2c-0.4,13.6-0.5,27.2-0.4,40.8
				c0,0.6,1,0.6,1,0c0.2-13.6,0-27,0.5-40.5c0.3-7.5,0.4-15.1,0.4-22.6C51.6,146.5,50.9,146.4,50.8,146.9L50.8,146.9z"/>
		</g>
	</g>
	<g>
		<g>
			<path class="st0" d="M50.1,211.4c11,1.1,22.3,0.9,33.3,1s22.2,0.2,33.2,0.1c22.1-0.1,44.1-0.4,66.1-0.6
				c12.5-0.1,25.3,0.3,37.8-0.4c0.7,0,0.7-1,0-1.1c-11.2-0.5-22.4-0.1-33.6,0.1c-11.2,0.1-22.3,0.3-33.4,0.4c-22,0.3-44,0.5-66,0.2
				c-12.5-0.1-25.1-0.9-37.5-0.5C49.5,210.6,49.6,211.4,50.1,211.4L50.1,211.4z"/>
		</g>
	</g>
	<g>
		<g>
			<path class="st0" d="M278.9,208.6c-5.7,0-11.4,0.4-17.1,0.6c-2.7,0.1-5.6,0.3-8.3,0.4c-1.7,0.1-3.9-0.1-5.7,0.4
				c0.1,0.3,0.2,0.6,0.2,0.9c1.6,0.3,3.5-0.1,5-0.1c2.9-0.1,5.9-0.2,8.8-0.3c5.7-0.2,11.4-0.3,17.1-0.6
				C279.7,209.8,279.7,208.6,278.9,208.6z"/>
		</g>
	</g>
	<g>
		<g>
			<path class="st0" d="M278.3,167.2c-0.8,1.7-0.5,4.4-0.5,6.2c0,4.2,0.1,8.5,0.2,12.7c0.2,7.6-0.2,15.4,0.4,23c0,0.5,1,0.8,1.1,0.2
				c0.5-2.9,0.2-6,0.1-8.9c-0.1-4.6-0.2-9.1-0.3-13.6c-0.1-4.3-0.2-8.6-0.3-12.9c-0.1-2.2,0.1-4.5-0.4-6.7
				C278.7,167,278.4,167,278.3,167.2L278.3,167.2z"/>
		</g>
	</g>
	<g>
		<g>
			<g>
				<path class="st0" d="M72.3,175.5c-0.1,0.8-0.1,1.6-0.1,2.5c0,0.9-0.2,1.9,0,2.8c0,0.1,0.2,0.1,0.2,0c0.1-0.9,0-1.9,0.1-2.8
					C72.3,177.2,72.4,176.4,72.3,175.5C72.3,175.5,72.3,175.5,72.3,175.5L72.3,175.5z"/>
			</g>
		</g>
		<g>
			<g>
				<path class="st0" d="M73.2,175.5c-0.1,0.8-0.1,1.6-0.1,2.5c0,0.9-0.2,1.9,0,2.8c0,0.1,0.2,0.1,0.2,0c0.1-0.9,0-1.9,0.1-2.8
					C73.3,177.2,73.4,176.4,73.2,175.5C73.2,175.5,73.2,175.5,73.2,175.5L73.2,175.5z"/>
			</g>
		</g>
		<g>
			<g>
				<path class="st0" d="M74,175.5c-0.1,0.8-0.1,1.6-0.1,2.5c0,0.9-0.2,1.9,0,2.8c0,0.1,0.2,0.1,0.2,0c0.1-0.9,0-1.9,0.1-2.8
					C74.1,177.2,74.2,176.4,74,175.5C74.1,175.5,74,175.5,74,175.5L74,175.5z"/>
			</g>
		</g>
		<g>
			<g>
				<path class="st0" d="M74.9,175.5c-0.1,0.8-0.1,1.6-0.1,2.5c0,0.9-0.2,1.9,0,2.8c0,0.1,0.2,0.1,0.2,0c0.1-0.9,0-1.9,0.1-2.8
					C75,177.2,75.1,176.4,74.9,175.5C74.9,175.5,74.9,175.5,74.9,175.5L74.9,175.5z"/>
			</g>
		</g>
		<g>
			<g>
				<path class="st0" d="M75.7,175.5c-0.1,0.8-0.1,1.6-0.1,2.5c0,0.9-0.2,1.9,0,2.8c0,0.1,0.2,0.1,0.2,0c0.1-0.9,0-1.9,0.1-2.8
					C75.8,177.2,75.9,176.4,75.7,175.5C75.8,175.5,75.7,175.5,75.7,175.5L75.7,175.5z"/>
			</g>
		</g>
		<g>
			<g>
				<path class="st0" d="M76.6,175.5c-0.1,0.8-0.1,1.6-0.1,2.5c0,0.9-0.2,1.9,0,2.8c0,0.1,0.2,0.1,0.2,0c0.1-0.9,0-1.9,0.1-2.8
					C76.7,177.2,76.8,176.4,76.6,175.5C76.6,175.5,76.6,175.5,76.6,175.5L76.6,175.5z"/>
			</g>
		</g>
		<g>
			<g>
				<path class="st0" d="M77.5,175.5c-0.1,0.8-0.1,1.6-0.1,2.5c0,0.9-0.2,1.9,0,2.8c0,0.1,0.2,0.1,0.2,0c0.1-0.9,0-1.9,0.1-2.8
					C77.6,177.2,77.7,176.4,77.5,175.5C77.6,175.5,77.5,175.5,77.5,175.5L77.5,175.5z"/>
			</g>
		</g>
		<g>
			<g>
				<path class="st0" d="M78.4,175.5c-0.1,0.8-0.1,1.6-0.1,2.5c0,0.9-0.2,1.9,0,2.8c0,0.1,0.2,0.1,0.2,0c0.1-0.9,0-1.9,0.1-2.8
					C78.5,177.2,78.6,176.4,78.4,175.5C78.5,175.5,78.4,175.5,78.4,175.5L78.4,175.5z"/>
			</g>
		</g>
		<g>
			<g>
				<path class="st0" d="M79.2,175.5c-0.1,0.8-0.1,1.6-0.1,2.5c0,0.9-0.2,1.9,0,2.8c0,0.1,0.2,0.1,0.2,0c0.1-0.9,0-1.9,0.1-2.8
					C79.4,177.2,79.5,176.4,79.2,175.5C79.3,175.5,79.3,175.5,79.2,175.5L79.2,175.5z"/>
			</g>
		</g>
		<g>
			<g>
				<path class="st0" d="M80.1,175.5c-0.1,0.8-0.1,1.6-0.1,2.5c0,0.9-0.2,1.9,0,2.8c0,0.1,0.2,0.1,0.2,0c0.1-0.9,0-1.9,0.1-2.8
					C80.2,177.2,80.3,176.4,80.1,175.5C80.2,175.5,80.1,175.5,80.1,175.5L80.1,175.5z"/>
			</g>
		</g>
		<g>
			<g>
				<path class="st0" d="M81,175.5c-0.1,0.8-0.1,1.6-0.1,2.5c0,0.9-0.2,1.9,0,2.8c0,0.1,0.2,0.1,0.2,0c0.1-0.9,0-1.9,0.1-2.8
					C81.1,177.2,81.2,176.4,81,175.5C81,175.5,81,175.5,81,175.5L81,175.5z"/>
			</g>
		</g>
		<g>
			<g>
				<path class="st0" d="M81.9,175.5c-0.1,0.8-0.1,1.6-0.1,2.5c0,0.9-0.2,1.9,0,2.8c0,0.1,0.2,0.1,0.2,0c0.1-0.9,0-1.9,0.1-2.8
					C82,177.2,82.1,176.4,81.9,175.5C82,175.5,81.9,175.5,81.9,175.5L81.9,175.5z"/>
			</g>
		</g>
		<g>
			<g>
				<path class="st0" d="M82.8,175.5c-0.1,0.8-0.1,1.6-0.1,2.5c0,0.9-0.2,1.9,0,2.8c0,0.1,0.2,0.1,0.2,0c0.1-0.9,0-1.9,0.1-2.8
					C82.9,177.2,83,176.4,82.8,175.5C82.8,175.5,82.8,175.5,82.8,175.5L82.8,175.5z"/>
			</g>
		</g>
		<g>
			<g>
				<path class="st0" d="M83.6,175.5c-0.1,0.8-0.1,1.6-0.1,2.5c0,0.9-0.2,1.9,0,2.8c0,0.1,0.2,0.1,0.2,0c0.1-0.9,0-1.9,0.1-2.8
					C83.7,177.2,83.8,176.4,83.6,175.5C83.7,175.5,83.6,175.5,83.6,175.5L83.6,175.5z"/>
			</g>
		</g>
		<g>
			<g>
				<path class="st0" d="M84.5,175.5c-0.1,0.8-0.1,1.6-0.1,2.5c0,0.9-0.2,1.9,0,2.8c0,0.1,0.2,0.1,0.2,0c0.1-0.9,0-1.9,0.1-2.8
					C84.6,177.2,84.7,176.4,84.5,175.5C84.5,175.5,84.5,175.5,84.5,175.5L84.5,175.5z"/>
			</g>
		</g>
		<g>
			<g>
				<path class="st0" d="M85.3,175.5c-0.1,0.8-0.1,1.6-0.1,2.5c0,0.9-0.2,1.9,0,2.8c0,0.1,0.2,0.1,0.2,0c0.1-0.9,0-1.9,0.1-2.8
					C85.5,177.2,85.5,176.4,85.3,175.5C85.4,175.5,85.3,175.5,85.3,175.5L85.3,175.5z"/>
			</g>
		</g>
		<g>
			<g>
				<path class="st0" d="M86.3,175.5c-0.1,0.8-0.1,1.6-0.1,2.5c0,0.9-0.2,1.9,0,2.8c0,0.1,0.2,0.1,0.2,0c0.1-0.9,0-1.9,0.1-2.8
					C86.4,177.2,86.4,176.4,86.3,175.5C86.4,175.5,86.3,175.5,86.3,175.5L86.3,175.5z"/>
			</g>
		</g>
		<g>
			<g>
				<path class="st0" d="M87.2,175.5c-0.1,0.8-0.1,1.6-0.1,2.5c0,0.9-0.2,1.9,0,2.8c0,0.1,0.2,0.1,0.2,0c0.1-0.9,0-1.9,0.1-2.8
					C87.3,177.2,87.4,176.4,87.2,175.5C87.2,175.5,87.2,175.5,87.2,175.5L87.2,175.5z"/>
			</g>
		</g>
		<g>
			<g>
				<path class="st0" d="M88,175.5c-0.1,0.8-0.1,1.6-0.1,2.5c0,0.9-0.2,1.9,0,2.8c0,0.1,0.2,0.1,0.2,0c0.1-0.9,0-1.9,0.1-2.8
					C88.1,177.2,88.2,176.4,88,175.5C88.1,175.5,88,175.5,88,175.5L88,175.5z"/>
			</g>
		</g>
		<g>
			<g>
				<path class="st0" d="M88.9,175.5c-0.1,0.8-0.1,1.6-0.1,2.5c0,0.9-0.2,1.9,0,2.8c0,0.1,0.2,0.1,0.2,0c0.1-0.9,0-1.9,0.1-2.8
					C89,177.2,89.1,176.4,88.9,175.5C88.9,175.5,88.9,175.5,88.9,175.5L88.9,175.5z"/>
			</g>
		</g>
		<g>
			<g>
				<path class="st0" d="M89.7,175.5c-0.1,0.8-0.1,1.6-0.1,2.5c0,0.9-0.2,1.9,0,2.8c0,0.1,0.2,0.1,0.2,0c0.1-0.9,0-1.9,0.1-2.8
					C89.8,177.2,89.9,176.4,89.7,175.5C89.8,175.5,89.7,175.5,89.7,175.5L89.7,175.5z"/>
			</g>
		</g>
		<g>
			<g>
				<path class="st0" d="M90.7,175.5c-0.1,0.8-0.1,1.6-0.1,2.5c0,0.9-0.2,1.9,0,2.8c0,0.1,0.2,0.1,0.2,0c0.1-0.9,0-1.9,0.1-2.8
					C90.8,177.2,90.8,176.4,90.7,175.5C90.7,175.5,90.7,175.5,90.7,175.5L90.7,175.5z"/>
			</g>
		</g>
		<g>
			<g>
				<path class="st0" d="M91.5,175.5c-0.1,0.8-0.1,1.6-0.1,2.5c0,0.9-0.2,1.9,0,2.8c0,0.1,0.2,0.1,0.2,0c0.1-0.9,0-1.9,0.1-2.8
					C91.7,177.2,91.7,176.4,91.5,175.5C91.6,175.5,91.5,175.5,91.5,175.5L91.5,175.5z"/>
			</g>
		</g>
		<g>
			<g>
				<path class="st0" d="M92.4,175.5c-0.1,0.8-0.1,1.6-0.1,2.5c0,0.9-0.2,1.9,0,2.8c0,0.1,0.2,0.1,0.2,0c0.1-0.9,0-1.9,0.1-2.8
					C92.5,177.2,92.6,176.4,92.4,175.5C92.5,175.5,92.4,175.5,92.4,175.5L92.4,175.5z"/>
			</g>
		</g>
		<g>
			<g>
				<path class="st0" d="M93.3,175.5c-0.1,0.8-0.1,1.6-0.1,2.5c0,0.9-0.2,1.9,0,2.8c0,0.1,0.2,0.1,0.2,0c0.1-0.9,0-1.9,0.1-2.8
					C93.4,177.2,93.5,176.4,93.3,175.5C93.3,175.5,93.3,175.5,93.3,175.5L93.3,175.5z"/>
			</g>
		</g>
		<g>
			<g>
				<path class="st0" d="M94.1,175.5c-0.1,0.8-0.1,1.6-0.1,2.5c0,0.9-0.2,1.9,0,2.8c0,0.1,0.2,0.1,0.2,0c0.1-0.9,0-1.9,0.1-2.8
					C94.2,177.2,94.3,176.4,94.1,175.5C94.2,175.5,94.1,175.5,94.1,175.5L94.1,175.5z"/>
			</g>
		</g>
		<g>
			<g>
				<path class="st0" d="M95.1,175.5c-0.1,0.8-0.1,1.6-0.1,2.5c0,0.9-0.2,1.9,0,2.8c0,0.1,0.2,0.1,0.2,0c0.1-0.9,0-1.9,0.1-2.8
					C95.1,177.2,95.2,176.4,95.1,175.5C95.1,175.5,95.1,175.5,95.1,175.5L95.1,175.5z"/>
			</g>
		</g>
		<g>
			<g>
				<path class="st0" d="M95.9,175.5c-0.1,0.8-0.1,1.6-0.1,2.5c0,0.9-0.2,1.9,0,2.8c0,0.1,0.2,0.1,0.2,0c0.1-0.9,0-1.9,0.1-2.8
					C96,177.2,96.1,176.4,95.9,175.5C96,175.5,95.9,175.5,95.9,175.5L95.9,175.5z"/>
			</g>
		</g>
		<g>
			<g>
				<path class="st0" d="M96.8,175.5c-0.1,0.8-0.1,1.6-0.1,2.5c0,0.9-0.2,1.9,0,2.8c0,0.1,0.2,0.1,0.2,0c0.1-0.9,0-1.9,0.1-2.8
					C96.9,177.2,97,176.4,96.8,175.5C96.8,175.5,96.8,175.5,96.8,175.5L96.8,175.5z"/>
			</g>
		</g>
		<g>
			<g>
				<path class="st0" d="M97.6,175.5c-0.1,0.8-0.1,1.6-0.1,2.5c0,0.9-0.2,1.9,0,2.8c0,0.1,0.2,0.1,0.2,0c0.1-0.9,0-1.9,0.1-2.8
					C97.7,177.2,97.8,176.4,97.6,175.5C97.7,175.5,97.6,175.5,97.6,175.5L97.6,175.5z"/>
			</g>
		</g>
		<g>
			<g>
				<path class="st0" d="M98.5,175.5c-0.1,0.8-0.1,1.6-0.1,2.5c0,0.9-0.2,1.9,0,2.8c0,0.1,0.2,0.1,0.2,0c0.1-0.9,0-1.9,0.1-2.8
					C98.6,177.2,98.7,176.4,98.5,175.5C98.6,175.5,98.5,175.5,98.5,175.5L98.5,175.5z"/>
			</g>
		</g>
		<g>
			<g>
				<path class="st0" d="M99.4,175.5c-0.1,0.8-0.1,1.6-0.1,2.5c0,0.9-0.2,1.9,0,2.8c0,0.1,0.2,0.1,0.2,0c0.1-0.9,0-1.9,0.1-2.8
					C99.5,177.2,99.6,176.4,99.4,175.5C99.5,175.5,99.5,175.5,99.4,175.5L99.4,175.5z"/>
			</g>
		</g>
		<g>
			<g>
				<path class="st0" d="M100.3,175.5c-0.1,0.8-0.1,1.6-0.1,2.5c0,0.9-0.2,1.9,0,2.8c0,0.1,0.2,0.1,0.2,0c0.1-0.9,0-1.9,0.1-2.8
					C100.4,177.2,100.5,176.4,100.3,175.5C100.4,175.5,100.3,175.5,100.3,175.5L100.3,175.5z"/>
			</g>
		</g>
		<g>
			<g>
				<path class="st0" d="M101.2,175.5c-0.1,0.8-0.1,1.6-0.1,2.5c0,0.9-0.2,1.9,0,2.8c0,0.1,0.2,0.1,0.2,0c0.1-0.9,0-1.9,0.1-2.8
					C101.3,177.2,101.4,176.4,101.2,175.5C101.2,175.5,101.2,175.5,101.2,175.5L101.2,175.5z"/>
			</g>
		</g>
		<g>
			<g>
				<path class="st0" d="M102,175.5c-0.1,0.8-0.1,1.6-0.1,2.5c0,0.9-0.2,1.9,0,2.8c0,0.1,0.2,0.1,0.2,0c0.1-0.9,0-1.9,0.1-2.8
					C102.1,177.2,102.2,176.4,102,175.5C102.1,175.5,102,175.5,102,175.5L102,175.5z"/>
			</g>
		</g>
		<g>
			<g>
				<path class="st0" d="M102.9,175.5c-0.1,0.8-0.1,1.6-0.1,2.5c0,0.9-0.2,1.9,0,2.8c0,0.1,0.2,0.1,0.2,0c0.1-0.9,0-1.9,0.1-2.8
					C103,177.2,103.1,176.4,102.9,175.5C102.9,175.5,102.9,175.5,102.9,175.5L102.9,175.5z"/>
			</g>
		</g>
		<g>
			<g>
				<path class="st0" d="M103.8,175.5c-0.1,0.8-0.1,1.6-0.1,2.5c0,0.9-0.2,1.9,0,2.8c0,0.1,0.2,0.1,0.2,0c0.1-0.9,0-1.9,0.1-2.8
					C103.8,177.2,103.9,176.4,103.8,175.5C103.8,175.5,103.8,175.5,103.8,175.5L103.8,175.5z"/>
			</g>
		</g>
		<g>
			<g>
				<path class="st0" d="M104.7,175.5c-0.1,0.8-0.1,1.6-0.1,2.5c0,0.9-0.2,1.9,0,2.8c0,0.1,0.2,0.1,0.2,0c0.1-0.9,0-1.9,0.1-2.8
					C104.8,177.2,104.9,176.4,104.7,175.5C104.7,175.5,104.7,175.5,104.7,175.5L104.7,175.5z"/>
			</g>
		</g>
		<g>
			<g>
				<path class="st0" d="M105.5,175.5c-0.1,0.8-0.1,1.6-0.1,2.5c0,0.9-0.2,1.9,0,2.8c0,0.1,0.2,0.1,0.2,0c0.1-0.9,0-1.9,0.1-2.8
					C105.7,177.2,105.7,176.4,105.5,175.5C105.6,175.5,105.5,175.5,105.5,175.5L105.5,175.5z"/>
			</g>
		</g>
		<g>
			<g>
				<path class="st0" d="M106.4,175.5c-0.1,0.8-0.1,1.6-0.1,2.5c0,0.9-0.2,1.9,0,2.8c0,0.1,0.2,0.1,0.2,0c0.1-0.9,0-1.9,0.1-2.8
					C106.5,177.2,106.6,176.4,106.4,175.5C106.5,175.5,106.4,175.5,106.4,175.5L106.4,175.5z"/>
			</g>
		</g>
		<g>
			<g>
				<path class="st0" d="M107.3,175.5c-0.1,0.8-0.1,1.6-0.1,2.5c0,0.9-0.2,1.9,0,2.8c0,0.1,0.2,0.1,0.2,0c0.1-0.9,0-1.9,0.1-2.8
					C107.4,177.2,107.5,176.4,107.3,175.5C107.3,175.5,107.3,175.5,107.3,175.5L107.3,175.5z"/>
			</g>
		</g>
		<g>
			<g>
				<path class="st0" d="M108.2,175.5c-0.1,0.8-0.1,1.6-0.1,2.5c0,0.9-0.2,1.9,0,2.8c0,0.1,0.2,0.1,0.2,0c0.1-0.9,0-1.9,0.1-2.8
					C108.2,177.2,108.3,176.4,108.2,175.5C108.2,175.5,108.2,175.5,108.2,175.5L108.2,175.5z"/>
			</g>
		</g>
		<g>
			<g>
				<path class="st0" d="M109.1,175.5c-0.1,0.8-0.1,1.6-0.1,2.5c0,0.9-0.2,1.9,0,2.8c0,0.1,0.2,0.1,0.2,0c0.1-0.9,0-1.9,0.1-2.8
					C109.2,177.2,109.2,176.4,109.1,175.5C109.1,175.5,109.1,175.5,109.1,175.5L109.1,175.5z"/>
			</g>
		</g>
		<g>
			<g>
				<path class="st0" d="M109.9,175.5c-0.1,0.8-0.1,1.6-0.1,2.5c0,0.9-0.2,1.9,0,2.8c0,0.1,0.2,0.1,0.2,0c0.1-0.9,0-1.9,0.1-2.8
					C110,177.2,110.1,176.4,109.9,175.5C110,175.5,109.9,175.5,109.9,175.5L109.9,175.5z"/>
			</g>
		</g>
		<g>
			<g>
				<path class="st0" d="M110.8,175.5c-0.1,0.8-0.1,1.6-0.1,2.5c0,0.9-0.2,1.9,0,2.8c0,0.1,0.2,0.1,0.2,0c0.1-0.9,0-1.9,0.1-2.8
					C110.9,177.2,111,176.4,110.8,175.5C110.8,175.5,110.8,175.5,110.8,175.5L110.8,175.5z"/>
			</g>
		</g>
		<g>
			<g>
				<path class="st0" d="M111.6,175.5c-0.1,0.8-0.1,1.6-0.1,2.5c0,0.9-0.2,1.9,0,2.8c0,0.1,0.2,0.1,0.2,0c0.1-0.9,0-1.9,0.1-2.8
					C111.8,177.2,111.8,176.4,111.6,175.5C111.7,175.5,111.6,175.5,111.6,175.5L111.6,175.5z"/>
			</g>
		</g>
		<g>
			<g>
				<path class="st0" d="M112.5,175.5c-0.1,0.8-0.1,1.6-0.1,2.5c0,0.9-0.2,1.9,0,2.8c0,0.1,0.2,0.1,0.2,0c0.1-0.9,0-1.9,0.1-2.8
					C112.6,177.2,112.7,176.4,112.5,175.5C112.6,175.5,112.5,175.5,112.5,175.5L112.5,175.5z"/>
			</g>
		</g>
		<g>
			<g>
				<path class="st0" d="M113.5,175.5c-0.1,0.8-0.1,1.6-0.1,2.5c0,0.9-0.2,1.9,0,2.8c0,0.1,0.2,0.1,0.2,0c0.1-0.9,0-1.9,0.1-2.8
					C113.6,177.2,113.6,176.4,113.5,175.5C113.5,175.5,113.5,175.5,113.5,175.5L113.5,175.5z"/>
			</g>
		</g>
		<g>
			<g>
				<path class="st0" d="M114.3,175.5c-0.1,0.8-0.1,1.6-0.1,2.5c0,0.9-0.2,1.9,0,2.8c0,0.1,0.2,0.1,0.2,0c0.1-0.9,0-1.9,0.1-2.8
					C114.4,177.2,114.5,176.4,114.3,175.5C114.4,175.5,114.3,175.5,114.3,175.5L114.3,175.5z"/>
			</g>
		</g>
		<g>
			<g>
				<path class="st0" d="M115.2,175.5c-0.1,0.8-0.1,1.6-0.1,2.5c0,0.9-0.2,1.9,0,2.8c0,0.1,0.2,0.1,0.2,0c0.1-0.9,0-1.9,0.1-2.8
					C115.3,177.2,115.4,176.4,115.2,175.5C115.2,175.5,115.2,175.5,115.2,175.5L115.2,175.5z"/>
			</g>
		</g>
		<g>
			<g>
				<path class="st0" d="M116,175.5c-0.1,0.8-0.1,1.6-0.1,2.5c0,0.9-0.2,1.9,0,2.8c0,0.1,0.2,0.1,0.2,0c0.1-0.9,0-1.9,0.1-2.8
					C116.1,177.2,116.2,176.4,116,175.5C116.1,175.5,116,175.5,116,175.5L116,175.5z"/>
			</g>
		</g>
		<g>
			<g>
				<path class="st0" d="M116.9,175.5c-0.1,0.8-0.1,1.6-0.1,2.5c0,0.9-0.2,1.9,0,2.8c0,0.1,0.2,0.1,0.2,0c0.1-0.9,0-1.9,0.1-2.8
					C117,177.2,117.1,176.4,116.9,175.5C116.9,175.5,116.9,175.5,116.9,175.5L116.9,175.5z"/>
			</g>
		</g>
		<g>
			<g>
				<path class="st0" d="M117.8,175.5c-0.1,0.8-0.1,1.6-0.1,2.5c0,0.9-0.2,1.9,0,2.8c0,0.1,0.2,0.1,0.2,0c0.1-0.9,0-1.9,0.1-2.8
					C117.9,177.2,117.9,176.4,117.8,175.5C117.9,175.5,117.8,175.5,117.8,175.5L117.8,175.5z"/>
			</g>
		</g>
		<g>
			<g>
				<path class="st0" d="M118.7,175.5c-0.1,0.8-0.1,1.6-0.1,2.5c0,0.9-0.2,1.9,0,2.8c0,0.1,0.2,0.1,0.2,0c0.1-0.9,0-1.9,0.1-2.8
					C118.8,177.2,118.9,176.4,118.7,175.5C118.8,175.5,118.7,175.5,118.7,175.5L118.7,175.5z"/>
			</g>
		</g>
		<g>
			<g>
				<path class="st0" d="M119.6,175.5c-0.1,0.8-0.1,1.6-0.1,2.5c0,0.9-0.2,1.9,0,2.8c0,0.1,0.2,0.1,0.2,0c0.1-0.9,0-1.9,0.1-2.8
					C119.7,177.2,119.8,176.4,119.6,175.5C119.6,175.5,119.6,175.5,119.6,175.5L119.6,175.5z"/>
			</g>
		</g>
		<g>
			<g>
				<path class="st0" d="M120.4,175.5c-0.1,0.8-0.1,1.6-0.1,2.5c0,0.9-0.2,1.9,0,2.8c0,0.1,0.2,0.1,0.2,0c0.1-0.9,0-1.9,0.1-2.8
					C120.5,177.2,120.6,176.4,120.4,175.5C120.5,175.5,120.4,175.5,120.4,175.5L120.4,175.5z"/>
			</g>
		</g>
		<g>
			<g>
				<path class="st0" d="M121.3,175.5c-0.1,0.8-0.1,1.6-0.1,2.5c0,0.9-0.2,1.9,0,2.8c0,0.1,0.2,0.1,0.2,0c0.1-0.9,0-1.9,0.1-2.8
					C121.4,177.2,121.5,176.4,121.3,175.5C121.3,175.5,121.3,175.5,121.3,175.5L121.3,175.5z"/>
			</g>
		</g>
		<g>
			<g>
				<path class="st0" d="M122.2,175.5c-0.1,0.8-0.1,1.6-0.1,2.5c0,0.9-0.2,1.9,0,2.8c0,0.1,0.2,0.1,0.2,0c0.1-0.9,0-1.9,0.1-2.8
					C122.3,177.2,122.3,176.4,122.2,175.5C122.3,175.5,122.2,175.5,122.2,175.5L122.2,175.5z"/>
			</g>
		</g>
		<g>
			<g>
				<path class="st0" d="M123.1,175.5c-0.1,0.8-0.1,1.6-0.1,2.5c0,0.9-0.2,1.9,0,2.8c0,0.1,0.2,0.1,0.2,0c0.1-0.9,0-1.9,0.1-2.8
					C123.2,177.2,123.3,176.4,123.1,175.5C123.1,175.5,123.1,175.5,123.1,175.5L123.1,175.5z"/>
			</g>
		</g>
		<g>
			<g>
				<path class="st0" d="M123.9,175.5c-0.1,0.8-0.1,1.6-0.1,2.5c0,0.9-0.2,1.9,0,2.8c0,0.1,0.2,0.1,0.2,0c0.1-0.9,0-1.9,0.1-2.8
					C124,177.2,124.1,176.4,123.9,175.5C124,175.5,123.9,175.5,123.9,175.5L123.9,175.5z"/>
			</g>
		</g>
		<g>
			<g>
				<path class="st0" d="M124.8,175.5c-0.1,0.8-0.1,1.6-0.1,2.5c0,0.9-0.2,1.9,0,2.8c0,0.1,0.2,0.1,0.2,0c0.1-0.9,0-1.9,0.1-2.8
					C124.9,177.2,125,176.4,124.8,175.5C124.9,175.5,124.8,175.5,124.8,175.5L124.8,175.5z"/>
			</g>
		</g>
		<g>
			<g>
				<path class="st0" d="M125.6,175.5c-0.1,0.8-0.1,1.6-0.1,2.5c0,0.9-0.2,1.9,0,2.8c0,0.1,0.2,0.1,0.2,0c0.1-0.9,0-1.9,0.1-2.8
					C125.8,177.2,125.9,176.4,125.6,175.5C125.7,175.5,125.7,175.5,125.6,175.5L125.6,175.5z"/>
			</g>
		</g>
		<g>
			<g>
				<path class="st0" d="M126.6,175.5c-0.1,0.8-0.1,1.6-0.1,2.5c0,0.9-0.2,1.9,0,2.8c0,0.1,0.2,0.1,0.2,0c0.1-0.9,0-1.9,0.1-2.8
					C126.6,177.2,126.7,176.4,126.6,175.5C126.6,175.5,126.6,175.5,126.6,175.5L126.6,175.5z"/>
			</g>
		</g>
		<g>
			<g>
				<path class="st0" d="M127.5,175.5c-0.1,0.8-0.1,1.6-0.1,2.5c0,0.9-0.2,1.9,0,2.8c0,0.1,0.2,0.1,0.2,0c0.1-0.9,0-1.9,0.1-2.8
					C127.6,177.2,127.7,176.4,127.5,175.5C127.5,175.5,127.5,175.5,127.5,175.5L127.5,175.5z"/>
			</g>
		</g>
		<g>
			<g>
				<path class="st0" d="M128.3,175.5c-0.1,0.8-0.1,1.6-0.1,2.5c0,0.9-0.2,1.9,0,2.8c0,0.1,0.2,0.1,0.2,0c0.1-0.9,0-1.9,0.1-2.8
					C128.4,177.2,128.5,176.4,128.3,175.5C128.4,175.5,128.3,175.5,128.3,175.5L128.3,175.5z"/>
			</g>
		</g>
		<g>
			<g>
				<path class="st0" d="M129.2,175.5c-0.1,0.8-0.1,1.6-0.1,2.5c0,0.9-0.2,1.9,0,2.8c0,0.1,0.2,0.1,0.2,0c0.1-0.9,0-1.9,0.1-2.8
					C129.3,177.2,129.4,176.4,129.2,175.5C129.2,175.5,129.2,175.5,129.2,175.5L129.2,175.5z"/>
			</g>
		</g>
		<g>
			<g>
				<path class="st0" d="M130,175.5c-0.1,0.8-0.1,1.6-0.1,2.5c0,0.9-0.2,1.9,0,2.8c0,0.1,0.2,0.1,0.2,0c0.1-0.9,0-1.9,0.1-2.8
					C130.1,177.2,130.2,176.4,130,175.5C130.1,175.5,130,175.5,130,175.5L130,175.5z"/>
			</g>
		</g>
		<g>
			<g>
				<path class="st0" d="M131,175.5c-0.1,0.8-0.1,1.6-0.1,2.5c0,0.9-0.2,1.9,0,2.8c0,0.1,0.2,0.1,0.2,0c0.1-0.9,0-1.9,0.1-2.8
					C131,177.2,131.1,176.4,131,175.5C131,175.5,131,175.5,131,175.5L131,175.5z"/>
			</g>
		</g>
		<g>
			<g>
				<path class="st0" d="M131.8,175.5c-0.1,0.8-0.1,1.6-0.1,2.5c0,0.9-0.2,1.9,0,2.8c0,0.1,0.2,0.1,0.2,0c0.1-0.9,0-1.9,0.1-2.8
					C132,177.2,132,176.4,131.8,175.5C131.9,175.5,131.8,175.5,131.8,175.5L131.8,175.5z"/>
			</g>
		</g>
		<g>
			<g>
				<path class="st0" d="M132.7,175.5c-0.1,0.8-0.1,1.6-0.1,2.5c0,0.9-0.2,1.9,0,2.8c0,0.1,0.2,0.1,0.2,0c0.1-0.9,0-1.9,0.1-2.8
					C132.8,177.2,132.9,176.4,132.7,175.5C132.8,175.5,132.7,175.5,132.7,175.5L132.7,175.5z"/>
			</g>
		</g>
		<g>
			<g>
				<path class="st0" d="M133.6,175.5c-0.1,0.8-0.1,1.6-0.1,2.5c0,0.9-0.2,1.9,0,2.8c0,0.1,0.2,0.1,0.2,0c0.1-0.9,0-1.9,0.1-2.8
					C133.7,177.2,133.8,176.4,133.6,175.5C133.6,175.5,133.6,175.5,133.6,175.5L133.6,175.5z"/>
			</g>
		</g>
		<g>
			<g>
				<path class="st0" d="M134.4,175.5c-0.1,0.8-0.1,1.6-0.1,2.5c0,0.9-0.2,1.9,0,2.8c0,0.1,0.2,0.1,0.2,0c0.1-0.9,0-1.9,0.1-2.8
					C134.5,177.2,134.6,176.4,134.4,175.5C134.5,175.5,134.4,175.5,134.4,175.5L134.4,175.5z"/>
			</g>
		</g>
		<g>
			<g>
				<path class="st0" d="M135.3,175.5c-0.1,0.8-0.1,1.6-0.1,2.5c0,0.9-0.2,1.9,0,2.8c0,0.1,0.2,0.1,0.2,0c0.1-0.9,0-1.9,0.1-2.8
					C135.4,177.2,135.5,176.4,135.3,175.5C135.3,175.5,135.3,175.5,135.3,175.5L135.3,175.5z"/>
			</g>
		</g>
		<g>
			<g>
				<path class="st0" d="M136.2,175.5c-0.1,0.8-0.1,1.6-0.1,2.5c0,0.9-0.2,1.9,0,2.8c0,0.1,0.2,0.1,0.2,0c0.1-0.9,0-1.9,0.1-2.8
					C136.3,177.2,136.4,176.4,136.2,175.5C136.3,175.5,136.2,175.5,136.2,175.5L136.2,175.5z"/>
			</g>
		</g>
		<g>
			<g>
				<path class="st0" d="M137.1,175.5c-0.1,0.8-0.1,1.6-0.1,2.5c0,0.9-0.2,1.9,0,2.8c0,0.1,0.2,0.1,0.2,0c0.1-0.9,0-1.9,0.1-2.8
					C137.2,177.2,137.3,176.4,137.1,175.5C137.1,175.5,137.1,175.5,137.1,175.5L137.1,175.5z"/>
			</g>
		</g>
		<g>
			<g>
				<path class="st0" d="M137.9,175.5c-0.1,0.8-0.1,1.6-0.1,2.5c0,0.9-0.2,1.9,0,2.8c0,0.1,0.2,0.1,0.2,0c0.1-0.9,0-1.9,0.1-2.8
					C138.1,177.2,138.1,176.4,137.9,175.5C138,175.5,137.9,175.5,137.9,175.5L137.9,175.5z"/>
			</g>
		</g>
		<g>
			<g>
				<path class="st0" d="M138.8,175.5c-0.1,0.8-0.1,1.6-0.1,2.5c0,0.9-0.2,1.9,0,2.8c0,0.1,0.2,0.1,0.2,0c0.1-0.9,0-1.9,0.1-2.8
					C138.9,177.2,139,176.4,138.8,175.5C138.9,175.5,138.8,175.5,138.8,175.5L138.8,175.5z"/>
			</g>
		</g>
		<g>
			<g>
				<path class="st0" d="M139.7,175.5c-0.1,0.8-0.1,1.6-0.1,2.5c0,0.9-0.2,1.9,0,2.8c0,0.1,0.2,0.1,0.2,0c0.1-0.9,0-1.9,0.1-2.8
					C139.8,177.2,139.9,176.4,139.7,175.5C139.7,175.5,139.7,175.5,139.7,175.5L139.7,175.5z"/>
			</g>
		</g>
		<g>
			<g>
				<path class="st0" d="M140.6,175.5c-0.1,0.8-0.1,1.6-0.1,2.5c0,0.9-0.2,1.9,0,2.8c0,0.1,0.2,0.1,0.2,0c0.1-0.9,0-1.9,0.1-2.8
					C140.7,177.2,140.8,176.4,140.6,175.5C140.7,175.5,140.6,175.5,140.6,175.5L140.6,175.5z"/>
			</g>
		</g>
		<g>
			<g>
				<path class="st0" d="M141.5,175.5c-0.1,0.8-0.1,1.6-0.1,2.5c0,0.9-0.2,1.9,0,2.8c0,0.1,0.2,0.1,0.2,0c0.1-0.9,0-1.9,0.1-2.8
					C141.6,177.2,141.7,176.4,141.5,175.5C141.5,175.5,141.5,175.5,141.5,175.5L141.5,175.5z"/>
			</g>
		</g>
		<g>
			<g>
				<path class="st0" d="M142.3,175.5c-0.1,0.8-0.1,1.6-0.1,2.5c0,0.9-0.2,1.9,0,2.8c0,0.1,0.2,0.1,0.2,0c0.1-0.9,0-1.9,0.1-2.8
					C142.4,177.2,142.5,176.4,142.3,175.5C142.4,175.5,142.3,175.5,142.3,175.5L142.3,175.5z"/>
			</g>
		</g>
		<g>
			<g>
				<path class="st0" d="M143.2,175.5c-0.1,0.8-0.1,1.6-0.1,2.5c0,0.9-0.2,1.9,0,2.8c0,0.1,0.2,0.1,0.2,0c0.1-0.9,0-1.9,0.1-2.8
					C143.3,177.2,143.4,176.4,143.2,175.5C143.2,175.5,143.2,175.5,143.2,175.5L143.2,175.5z"/>
			</g>
		</g>
		<g>
			<g>
				<path class="st0" d="M144,175.5c-0.1,0.8-0.1,1.6-0.1,2.5c0,0.9-0.2,1.9,0,2.8c0,0.1,0.2,0.1,0.2,0c0.1-0.9,0-1.9,0.1-2.8
					C144.1,177.2,144.2,176.4,144,175.5C144.1,175.5,144,175.5,144,175.5L144,175.5z"/>
			</g>
		</g>
		<g>
			<g>
				<path class="st0" d="M145,175.5c-0.1,0.8-0.1,1.6-0.1,2.5c0,0.9-0.2,1.9,0,2.8c0,0.1,0.2,0.1,0.2,0c0.1-0.9,0-1.9,0.1-2.8
					C145.1,177.2,145.1,176.4,145,175.5C145.1,175.5,145,175.5,145,175.5L145,175.5z"/>
			</g>
		</g>
		<g>
			<g>
				<path class="st0" d="M145.8,175.5c-0.1,0.8-0.1,1.6-0.1,2.5c0,0.9-0.2,1.9,0,2.8c0,0.1,0.2,0.1,0.2,0c0.1-0.9,0-1.9,0.1-2.8
					C146,177.2,146.1,176.4,145.8,175.5C145.9,175.5,145.9,175.5,145.8,175.5L145.8,175.5z"/>
			</g>
		</g>
		<g>
			<g>
				<path class="st0" d="M146.7,175.5c-0.1,0.8-0.1,1.6-0.1,2.5c0,0.9-0.2,1.9,0,2.8c0,0.1,0.2,0.1,0.2,0c0.1-0.9,0-1.9,0.1-2.8
					C146.8,177.2,146.9,176.4,146.7,175.5C146.8,175.5,146.7,175.5,146.7,175.5L146.7,175.5z"/>
			</g>
		</g>
		<g>
			<g>
				<path class="st0" d="M147.6,175.5c-0.1,0.8-0.1,1.6-0.1,2.5c0,0.9-0.2,1.9,0,2.8c0,0.1,0.2,0.1,0.2,0c0.1-0.9,0-1.9,0.1-2.8
					C147.7,177.2,147.8,176.4,147.6,175.5C147.6,175.5,147.6,175.5,147.6,175.5L147.6,175.5z"/>
			</g>
		</g>
		<g>
			<g>
				<path class="st0" d="M148.4,175.5c-0.1,0.8-0.1,1.6-0.1,2.5c0,0.9-0.2,1.9,0,2.8c0,0.1,0.2,0.1,0.2,0c0.1-0.9,0-1.9,0.1-2.8
					C148.5,177.2,148.6,176.4,148.4,175.5C148.5,175.5,148.4,175.5,148.4,175.5L148.4,175.5z"/>
			</g>
		</g>
		<g>
			<g>
				<path class="st0" d="M149.4,175.5c-0.1,0.8-0.1,1.6-0.1,2.5c0,0.9-0.2,1.9,0,2.8c0,0.1,0.2,0.1,0.2,0c0.1-0.9,0-1.9,0.1-2.8
					C149.5,177.2,149.5,176.4,149.4,175.5C149.4,175.5,149.4,175.5,149.4,175.5L149.4,175.5z"/>
			</g>
		</g>
		<g>
			<g>
				<path class="st0" d="M150.2,175.5c-0.1,0.8-0.1,1.6-0.1,2.5c0,0.9-0.2,1.9,0,2.8c0,0.1,0.2,0.1,0.2,0c0.1-0.9,0-1.9,0.1-2.8
					C150.3,177.2,150.4,176.4,150.2,175.5C150.3,175.5,150.2,175.5,150.2,175.5L150.2,175.5z"/>
			</g>
		</g>
		<g>
			<g>
				<path class="st0" d="M151.1,175.5c-0.1,0.8-0.1,1.6-0.1,2.5c0,0.9-0.2,1.9,0,2.8c0,0.1,0.2,0.1,0.2,0c0.1-0.9,0-1.9,0.1-2.8
					C151.2,177.2,151.3,176.4,151.1,175.5C151.1,175.5,151.1,175.5,151.1,175.5L151.1,175.5z"/>
			</g>
		</g>
		<g>
			<g>
				<path class="st0" d="M151.9,175.5c-0.1,0.8-0.1,1.6-0.1,2.5c0,0.9-0.2,1.9,0,2.8c0,0.1,0.2,0.1,0.2,0c0.1-0.9,0-1.9,0.1-2.8
					C152.1,177.2,152.2,176.4,151.9,175.5C152,175.5,152,175.5,151.9,175.5L151.9,175.5z"/>
			</g>
		</g>
		<g>
			<g>
				<path class="st0" d="M152.8,175.5c-0.1,0.8-0.1,1.6-0.1,2.5c0,0.9-0.2,1.9,0,2.8c0,0.1,0.2,0.1,0.2,0c0.1-0.9,0-1.9,0.1-2.8
					C152.9,177.2,153,176.4,152.8,175.5C152.9,175.5,152.8,175.5,152.8,175.5L152.8,175.5z"/>
			</g>
		</g>
		<g>
			<g>
				<path class="st0" d="M153.8,175.5c-0.1,0.8-0.1,1.6-0.1,2.5c0,0.9-0.2,1.9,0,2.8c0,0.1,0.2,0.1,0.2,0c0.1-0.9,0-1.9,0.1-2.8
					C153.8,177.2,153.9,176.4,153.8,175.5C153.8,175.5,153.8,175.5,153.8,175.5L153.8,175.5z"/>
			</g>
		</g>
		<g>
			<g>
				<path class="st0" d="M154.6,175.5c-0.1,0.8-0.1,1.6-0.1,2.5c0,0.9-0.2,1.9,0,2.8c0,0.1,0.2,0.1,0.2,0c0.1-0.9,0-1.9,0.1-2.8
					C154.7,177.2,154.8,176.4,154.6,175.5C154.7,175.5,154.6,175.5,154.6,175.5L154.6,175.5z"/>
			</g>
		</g>
		<g>
			<g>
				<path class="st0" d="M155.5,175.5c-0.1,0.8-0.1,1.6-0.1,2.5c0,0.9-0.2,1.9,0,2.8c0,0.1,0.2,0.1,0.2,0c0.1-0.9,0-1.9,0.1-2.8
					C155.6,177.2,155.7,176.4,155.5,175.5C155.5,175.5,155.5,175.5,155.5,175.5L155.5,175.5z"/>
			</g>
		</g>
		<g>
			<g>
				<path class="st0" d="M156.3,175.5c-0.1,0.8-0.1,1.6-0.1,2.5c0,0.9-0.2,1.9,0,2.8c0,0.1,0.2,0.1,0.2,0c0.1-0.9,0-1.9,0.1-2.8
					C156.4,177.2,156.5,176.4,156.3,175.5C156.4,175.5,156.3,175.5,156.3,175.5L156.3,175.5z"/>
			</g>
		</g>
		<g>
			<g>
				<path class="st0" d="M157.2,175.5c-0.1,0.8-0.1,1.6-0.1,2.5c0,0.9-0.2,1.9,0,2.8c0,0.1,0.2,0.1,0.2,0c0.1-0.9,0-1.9,0.1-2.8
					C157.3,177.2,157.4,176.4,157.2,175.5C157.2,175.5,157.2,175.5,157.2,175.5L157.2,175.5z"/>
			</g>
		</g>
		<g>
			<g>
				<path class="st0" d="M158.1,175.5c-0.1,0.8-0.1,1.6-0.1,2.5c0,0.9-0.2,1.9,0,2.8c0,0.1,0.2,0.1,0.2,0c0.1-0.9,0-1.9,0.1-2.8
					C158.2,177.2,158.2,176.4,158.1,175.5C158.2,175.5,158.1,175.5,158.1,175.5L158.1,175.5z"/>
			</g>
		</g>
		<g>
			<g>
				<path class="st0" d="M159,175.5c-0.1,0.8-0.1,1.6-0.1,2.5c0,0.9-0.2,1.9,0,2.8c0,0.1,0.2,0.1,0.2,0c0.1-0.9,0-1.9,0.1-2.8
					C159.1,177.2,159.2,176.4,159,175.5C159.1,175.5,159,175.5,159,175.5L159,175.5z"/>
			</g>
		</g>
		<g>
			<g>
				<path class="st0" d="M159.9,175.5c-0.1,0.8-0.1,1.6-0.1,2.5c0,0.9-0.2,1.9,0,2.8c0,0.1,0.2,0.1,0.2,0c0.1-0.9,0-1.9,0.1-2.8
					C160,177.2,160.1,176.4,159.9,175.5C159.9,175.5,159.9,175.5,159.9,175.5L159.9,175.5z"/>
			</g>
		</g>
		<g>
			<g>
				<path class="st0" d="M160.7,175.5c-0.1,0.8-0.1,1.6-0.1,2.5c0,0.9-0.2,1.9,0,2.8c0,0.1,0.2,0.1,0.2,0c0.1-0.9,0-1.9,0.1-2.8
					C160.8,177.2,160.9,176.4,160.7,175.5C160.8,175.5,160.7,175.5,160.7,175.5L160.7,175.5z"/>
			</g>
		</g>
		<g>
			<g>
				<path class="st0" d="M161.6,175.5c-0.1,0.8-0.1,1.6-0.1,2.5c0,0.9-0.2,1.9,0,2.8c0,0.1,0.2,0.1,0.2,0c0.1-0.9,0-1.9,0.1-2.8
					C161.7,177.2,161.8,176.4,161.6,175.5C161.6,175.5,161.6,175.5,161.6,175.5L161.6,175.5z"/>
			</g>
		</g>
		<g>
			<g>
				<path class="st0" d="M162.5,175.5c-0.1,0.8-0.1,1.6-0.1,2.5c0,0.9-0.2,1.9,0,2.8c0,0.1,0.2,0.1,0.2,0c0.1-0.9,0-1.9,0.1-2.8
					C162.5,177.2,162.6,176.4,162.5,175.5C162.5,175.5,162.5,175.5,162.5,175.5L162.5,175.5z"/>
			</g>
		</g>
		<g>
			<g>
				<path class="st0" d="M163.4,175.5c-0.1,0.8-0.1,1.6-0.1,2.5c0,0.9-0.2,1.9,0,2.8c0,0.1,0.2,0.1,0.2,0c0.1-0.9,0-1.9,0.1-2.8
					C163.5,177.2,163.6,176.4,163.4,175.5C163.4,175.5,163.4,175.5,163.4,175.5L163.4,175.5z"/>
			</g>
		</g>
		<g>
			<g>
				<path class="st0" d="M164.2,175.5c-0.1,0.8-0.1,1.6-0.1,2.5c0,0.9-0.2,1.9,0,2.8c0,0.1,0.2,0.1,0.2,0c0.1-0.9,0-1.9,0.1-2.8
					C164.4,177.2,164.4,176.4,164.2,175.5C164.3,175.5,164.2,175.5,164.2,175.5L164.2,175.5z"/>
			</g>
		</g>
		<g>
			<g>
				<path class="st0" d="M165.1,175.5c-0.1,0.8-0.1,1.6-0.1,2.5c0,0.9-0.2,1.9,0,2.8c0,0.1,0.2,0.1,0.2,0c0.1-0.9,0-1.9,0.1-2.8
					C165.2,177.2,165.3,176.4,165.1,175.5C165.2,175.5,165.1,175.5,165.1,175.5L165.1,175.5z"/>
			</g>
		</g>
		<g>
			<g>
				<path class="st0" d="M166,175.5c-0.1,0.8-0.1,1.6-0.1,2.5c0,0.9-0.2,1.9,0,2.8c0,0.1,0.2,0.1,0.2,0c0.1-0.9,0-1.9,0.1-2.8
					C166.1,177.2,166.2,176.4,166,175.5C166,175.5,166,175.5,166,175.5L166,175.5z"/>
			</g>
		</g>
		<g>
			<g>
				<path class="st0" d="M166.9,175.5c-0.1,0.8-0.1,1.6-0.1,2.5c0,0.9-0.2,1.9,0,2.8c0,0.1,0.2,0.1,0.2,0c0.1-0.9,0-1.9,0.1-2.8
					C166.9,177.2,167,176.4,166.9,175.5C166.9,175.5,166.9,175.5,166.9,175.5L166.9,175.5z"/>
			</g>
		</g>
		<g>
			<g>
				<path class="st0" d="M167.8,175.5c-0.1,0.8-0.1,1.6-0.1,2.5c0,0.9-0.2,1.9,0,2.8c0,0.1,0.2,0.1,0.2,0c0.1-0.9,0-1.9,0.1-2.8
					C167.9,177.2,168,176.4,167.8,175.5C167.8,175.5,167.8,175.5,167.8,175.5L167.8,175.5z"/>
			</g>
		</g>
		<g>
			<g>
				<path class="st0" d="M168.6,175.5c-0.1,0.8-0.1,1.6-0.1,2.5c0,0.9-0.2,1.9,0,2.8c0,0.1,0.2,0.1,0.2,0c0.1-0.9,0-1.9,0.1-2.8
					C168.7,177.2,168.8,176.4,168.6,175.5C168.7,175.5,168.6,175.5,168.6,175.5L168.6,175.5z"/>
			</g>
		</g>
		<g>
			<g>
				<path class="st0" d="M169.5,175.5c-0.1,0.8-0.1,1.6-0.1,2.5c0,0.9-0.2,1.9,0,2.8c0,0.1,0.2,0.1,0.2,0c0.1-0.9,0-1.9,0.1-2.8
					C169.6,177.2,169.7,176.4,169.5,175.5C169.5,175.5,169.5,175.5,169.5,175.5L169.5,175.5z"/>
			</g>
		</g>
		<g>
			<g>
				<path class="st0" d="M170.3,175.5c-0.1,0.8-0.1,1.6-0.1,2.5c0,0.9-0.2,1.9,0,2.8c0,0.1,0.2,0.1,0.2,0c0.1-0.9,0-1.9,0.1-2.8
					C170.4,177.2,170.5,176.4,170.3,175.5C170.4,175.5,170.3,175.5,170.3,175.5L170.3,175.5z"/>
			</g>
		</g>
		<g>
			<g>
				<path class="st0" d="M171.2,175.5c-0.1,0.8-0.1,1.6-0.1,2.5c0,0.9-0.2,1.9,0,2.8c0,0.1,0.2,0.1,0.2,0c0.1-0.9,0-1.9,0.1-2.8
					C171.3,177.2,171.4,176.4,171.2,175.5C171.3,175.5,171.2,175.5,171.2,175.5L171.2,175.5z"/>
			</g>
		</g>
		<g>
			<g>
				<path class="st0" d="M172.1,175.5c-0.1,0.8-0.1,1.6-0.1,2.5c0,0.9-0.2,1.9,0,2.8c0,0.1,0.2,0.1,0.2,0c0.1-0.9,0-1.9,0.1-2.8
					C172.3,177.2,172.3,176.4,172.1,175.5C172.2,175.5,172.2,175.5,172.1,175.5L172.1,175.5z"/>
			</g>
		</g>
		<g>
			<g>
				<path class="st0" d="M173,175.5c-0.1,0.8-0.1,1.6-0.1,2.5c0,0.9-0.2,1.9,0,2.8c0,0.1,0.2,0.1,0.2,0c0.1-0.9,0-1.9,0.1-2.8
					C173.1,177.2,173.2,176.4,173,175.5C173.1,175.5,173,175.5,173,175.5L173,175.5z"/>
			</g>
		</g>
		<g>
			<g>
				<path class="st0" d="M173.9,175.5c-0.1,0.8-0.1,1.6-0.1,2.5c0,0.9-0.2,1.9,0,2.8c0,0.1,0.2,0.1,0.2,0c0.1-0.9,0-1.9,0.1-2.8
					C174,177.2,174.1,176.4,173.9,175.5C173.9,175.5,173.9,175.5,173.9,175.5L173.9,175.5z"/>
			</g>
		</g>
		<g>
			<g>
				<path class="st0" d="M174.7,175.5c-0.1,0.8-0.1,1.6-0.1,2.5c0,0.9-0.2,1.9,0,2.8c0,0.1,0.2,0.1,0.2,0c0.1-0.9,0-1.9,0.1-2.8
					C174.8,177.2,174.9,176.4,174.7,175.5C174.8,175.5,174.7,175.5,174.7,175.5L174.7,175.5z"/>
			</g>
		</g>
		<g>
			<g>
				<path class="st0" d="M175.6,175.5c-0.1,0.8-0.1,1.6-0.1,2.5c0,0.9-0.2,1.9,0,2.8c0,0.1,0.2,0.1,0.2,0c0.1-0.9,0-1.9,0.1-2.8
					C175.7,177.2,175.8,176.4,175.6,175.5C175.6,175.5,175.6,175.5,175.6,175.5L175.6,175.5z"/>
			</g>
		</g>
		<g>
			<g>
				<path class="st0" d="M176.5,175.5c-0.1,0.8-0.1,1.6-0.1,2.5c0,0.9-0.2,1.9,0,2.8c0,0.1,0.2,0.1,0.2,0c0.1-0.9,0-1.9,0.1-2.8
					C176.6,177.2,176.7,176.4,176.5,175.5C176.6,175.5,176.5,175.5,176.5,175.5L176.5,175.5z"/>
			</g>
		</g>
		<g>
			<g>
				<path class="st0" d="M177.4,175.5c-0.1,0.8-0.1,1.6-0.1,2.5c0,0.9-0.2,1.9,0,2.8c0,0.1,0.2,0.1,0.2,0c0.1-0.9,0-1.9,0.1-2.8
					C177.5,177.2,177.6,176.4,177.4,175.5C177.4,175.5,177.4,175.5,177.4,175.5L177.4,175.5z"/>
			</g>
		</g>
		<g>
			<g>
				<path class="st0" d="M178.2,175.5c-0.1,0.8-0.1,1.6-0.1,2.5c0,0.9-0.2,1.9,0,2.8c0,0.1,0.2,0.1,0.2,0c0.1-0.9,0-1.9,0.1-2.8
					C178.4,177.2,178.4,176.4,178.2,175.5C178.3,175.5,178.2,175.5,178.2,175.5L178.2,175.5z"/>
			</g>
		</g>
		<g>
			<g>
				<path class="st0" d="M179.1,175.5c-0.1,0.8-0.1,1.6-0.1,2.5c0,0.9-0.2,1.9,0,2.8c0,0.1,0.2,0.1,0.2,0c0.1-0.9,0-1.9,0.1-2.8
					C179.2,177.2,179.3,176.4,179.1,175.5C179.2,175.5,179.1,175.5,179.1,175.5L179.1,175.5z"/>
			</g>
		</g>
		<g>
			<g>
				<path class="st0" d="M180,175.5c-0.1,0.8-0.1,1.6-0.1,2.5c0,0.9-0.2,1.9,0,2.8c0,0.1,0.2,0.1,0.2,0c0.1-0.9,0-1.9,0.1-2.8
					C180.1,177.2,180.2,176.4,180,175.5C180,175.5,180,175.5,180,175.5L180,175.5z"/>
			</g>
		</g>
		<g>
			<g>
				<path class="st0" d="M180.9,175.5c-0.1,0.8-0.1,1.6-0.1,2.5c0,0.9-0.2,1.9,0,2.8c0,0.1,0.2,0.1,0.2,0c0.1-0.9,0-1.9,0.1-2.8
					C181,177.2,181,176.4,180.9,175.5C181,175.5,180.9,175.5,180.9,175.5L180.9,175.5z"/>
			</g>
		</g>
		<g>
			<g>
				<path class="st0" d="M181.8,175.5c-0.1,0.8-0.1,1.6-0.1,2.5c0,0.9-0.2,1.9,0,2.8c0,0.1,0.2,0.1,0.2,0c0.1-0.9,0-1.9,0.1-2.8
					C181.9,177.2,182,176.4,181.8,175.5C181.8,175.5,181.8,175.5,181.8,175.5L181.8,175.5z"/>
			</g>
		</g>
		<g>
			<g>
				<path class="st0" d="M182.6,175.5c-0.1,0.8-0.1,1.6-0.1,2.5c0,0.9-0.2,1.9,0,2.8c0,0.1,0.2,0.1,0.2,0c0.1-0.9,0-1.9,0.1-2.8
					C182.7,177.2,182.8,176.4,182.6,175.5C182.7,175.5,182.6,175.5,182.6,175.5L182.6,175.5z"/>
			</g>
		</g>
		<g>
			<g>
				<path class="st0" d="M183.5,175.5c-0.1,0.8-0.1,1.6-0.1,2.5c0,0.9-0.2,1.9,0,2.8c0,0.1,0.2,0.1,0.2,0c0.1-0.9,0-1.9,0.1-2.8
					C183.6,177.2,183.7,176.4,183.5,175.5C183.5,175.5,183.5,175.5,183.5,175.5L183.5,175.5z"/>
			</g>
		</g>
		<g>
			<g>
				<path class="st0" d="M184.3,175.5c-0.1,0.8-0.1,1.6-0.1,2.5c0,0.9-0.2,1.9,0,2.8c0,0.1,0.2,0.1,0.2,0c0.1-0.9,0-1.9,0.1-2.8
					C184.5,177.2,184.5,176.4,184.3,175.5C184.4,175.5,184.3,175.5,184.3,175.5L184.3,175.5z"/>
			</g>
		</g>
		<g>
			<g>
				<path class="st0" d="M185.3,175.5c-0.1,0.8-0.1,1.6-0.1,2.5c0,0.9-0.2,1.9,0,2.8c0,0.1,0.2,0.1,0.2,0c0.1-0.9,0-1.9,0.1-2.8
					C185.4,177.2,185.4,176.4,185.3,175.5C185.4,175.5,185.3,175.5,185.3,175.5L185.3,175.5z"/>
			</g>
		</g>
		<g>
			<g>
				<path class="st0" d="M186.2,175.5c-0.1,0.8-0.1,1.6-0.1,2.5c0,0.9-0.2,1.9,0,2.8c0,0.1,0.2,0.1,0.2,0c0.1-0.9,0-1.9,0.1-2.8
					C186.3,177.2,186.4,176.4,186.2,175.5C186.2,175.5,186.2,175.5,186.2,175.5L186.2,175.5z"/>
			</g>
		</g>
		<g>
			<g>
				<path class="st0" d="M187,175.5c-0.1,0.8-0.1,1.6-0.1,2.5c0,0.9-0.2,1.9,0,2.8c0,0.1,0.2,0.1,0.2,0c0.1-0.9,0-1.9,0.1-2.8
					C187.1,177.2,187.2,176.4,187,175.5C187.1,175.5,187,175.5,187,175.5L187,175.5z"/>
			</g>
		</g>
		<g>
			<g>
				<path class="st0" d="M187.9,175.5c-0.1,0.8-0.1,1.6-0.1,2.5c0,0.9-0.2,1.9,0,2.8c0,0.1,0.2,0.1,0.2,0c0.1-0.9,0-1.9,0.1-2.8
					C188,177.2,188.1,176.4,187.9,175.5C187.9,175.5,187.9,175.5,187.9,175.5L187.9,175.5z"/>
			</g>
		</g>
		<g>
			<g>
				<path class="st0" d="M188.7,175.5c-0.1,0.8-0.1,1.6-0.1,2.5c0,0.9-0.2,1.9,0,2.8c0,0.1,0.2,0.1,0.2,0c0.1-0.9,0-1.9,0.1-2.8
					C188.8,177.2,188.9,176.4,188.7,175.5C188.8,175.5,188.7,175.5,188.7,175.5L188.7,175.5z"/>
			</g>
		</g>
		<g>
			<g>
				<path class="st0" d="M189.7,175.5c-0.1,0.8-0.1,1.6-0.1,2.5c0,0.9-0.2,1.9,0,2.8c0,0.1,0.2,0.1,0.2,0c0.1-0.9,0-1.9,0.1-2.8
					C189.7,177.2,189.8,176.4,189.7,175.5C189.7,175.5,189.7,175.5,189.7,175.5L189.7,175.5z"/>
			</g>
		</g>
		<g>
			<g>
				<path class="st0" d="M190.5,175.5c-0.1,0.8-0.1,1.6-0.1,2.5c0,0.9-0.2,1.9,0,2.8c0,0.1,0.2,0.1,0.2,0c0.1-0.9,0-1.9,0.1-2.8
					C190.6,177.2,190.7,176.4,190.5,175.5C190.6,175.5,190.5,175.5,190.5,175.5L190.5,175.5z"/>
			</g>
		</g>
		<g>
			<g>
				<path class="st0" d="M191.4,175.5c-0.1,0.8-0.1,1.6-0.1,2.5c0,0.9-0.2,1.9,0,2.8c0,0.1,0.2,0.1,0.2,0c0.1-0.9,0-1.9,0.1-2.8
					C191.5,177.2,191.6,176.4,191.4,175.5C191.5,175.5,191.4,175.5,191.4,175.5L191.4,175.5z"/>
			</g>
		</g>
		<g>
			<g>
				<path class="st0" d="M192.2,175.5c-0.1,0.8-0.1,1.6-0.1,2.5c0,0.9-0.2,1.9,0,2.8c0,0.1,0.2,0.1,0.2,0c0.1-0.9,0-1.9,0.1-2.8
					C192.4,177.2,192.5,176.4,192.2,175.5C192.3,175.5,192.3,175.5,192.2,175.5L192.2,175.5z"/>
			</g>
		</g>
		<g>
			<g>
				<path class="st0" d="M193.1,175.5c-0.1,0.8-0.1,1.6-0.1,2.5c0,0.9-0.2,1.9,0,2.8c0,0.1,0.2,0.1,0.2,0c0.1-0.9,0-1.9,0.1-2.8
					C193.2,177.2,193.3,176.4,193.1,175.5C193.2,175.5,193.1,175.5,193.1,175.5L193.1,175.5z"/>
			</g>
		</g>
		<g>
			<g>
				<path class="st0" d="M194.1,175.5c-0.1,0.8-0.1,1.6-0.1,2.5c0,0.9-0.2,1.9,0,2.8c0,0.1,0.2,0.1,0.2,0c0.1-0.9,0-1.9,0.1-2.8
					C194.1,177.2,194.2,176.4,194.1,175.5C194.1,175.5,194.1,175.5,194.1,175.5L194.1,175.5z"/>
			</g>
		</g>
		<g>
			<g>
				<path class="st0" d="M194.9,175.5c-0.1,0.8-0.1,1.6-0.1,2.5c0,0.9-0.2,1.9,0,2.8c0,0.1,0.2,0.1,0.2,0c0.1-0.9,0-1.9,0.1-2.8
					C195,177.2,195.1,176.4,194.9,175.5C195,175.5,194.9,175.5,194.9,175.5L194.9,175.5z"/>
			</g>
		</g>
		<g>
			<g>
				<path class="st0" d="M195.8,175.5c-0.1,0.8-0.1,1.6-0.1,2.5c0,0.9-0.2,1.9,0,2.8c0,0.1,0.2,0.1,0.2,0c0.1-0.9,0-1.9,0.1-2.8
					C195.9,177.2,196,176.4,195.8,175.5C195.8,175.5,195.8,175.5,195.8,175.5L195.8,175.5z"/>
			</g>
		</g>
		<g>
			<g>
				<path class="st0" d="M196.6,175.5c-0.1,0.8-0.1,1.6-0.1,2.5c0,0.9-0.2,1.9,0,2.8c0,0.1,0.2,0.1,0.2,0c0.1-0.9,0-1.9,0.1-2.8
					C196.7,177.2,196.8,176.4,196.6,175.5C196.7,175.5,196.6,175.5,196.6,175.5L196.6,175.5z"/>
			</g>
		</g>
		<g>
			<g>
				<path class="st0" d="M197.5,175.5c-0.1,0.8-0.1,1.6-0.1,2.5c0,0.9-0.2,1.9,0,2.8c0,0.1,0.2,0.1,0.2,0c0.1-0.9,0-1.9,0.1-2.8
					C197.6,177.2,197.7,176.4,197.5,175.5C197.5,175.5,197.5,175.5,197.5,175.5L197.5,175.5z"/>
			</g>
		</g>
		<g>
			<g>
				<path class="st0" d="M198.4,175.5c-0.1,0.8-0.1,1.6-0.1,2.5c0,0.9-0.2,1.9,0,2.8c0,0.1,0.2,0.1,0.2,0c0.1-0.9,0-1.9,0.1-2.8
					C198.5,177.2,198.6,176.4,198.4,175.5C198.4,175.5,198.4,175.5,198.4,175.5L198.4,175.5z"/>
			</g>
		</g>
		<g>
			<g>
				<path class="st0" d="M199.3,175.5c-0.1,0.8-0.1,1.6-0.1,2.5c0,0.9-0.2,1.9,0,2.8c0,0.1,0.2,0.1,0.2,0c0.1-0.9,0-1.9,0.1-2.8
					C199.4,177.2,199.5,176.4,199.3,175.5C199.4,175.5,199.3,175.5,199.3,175.5L199.3,175.5z"/>
			</g>
		</g>
		<g>
			<g>
				<path class="st0" d="M200.2,175.5c-0.1,0.8-0.1,1.6-0.1,2.5c0,0.9-0.2,1.9,0,2.8c0,0.1,0.2,0.1,0.2,0c0.1-0.9,0-1.9,0.1-2.8
					C200.3,177.2,200.4,176.4,200.2,175.5C200.2,175.5,200.2,175.5,200.2,175.5L200.2,175.5z"/>
			</g>
		</g>
		<g>
			<g>
				<path class="st0" d="M201,175.5c-0.1,0.8-0.1,1.6-0.1,2.5c0,0.9-0.2,1.9,0,2.8c0,0.1,0.2,0.1,0.2,0c0.1-0.9,0-1.9,0.1-2.8
					C201.1,177.2,201.2,176.4,201,175.5C201.1,175.5,201,175.5,201,175.5L201,175.5z"/>
			</g>
		</g>
		<g>
			<g>
				<path class="st0" d="M201.9,175.5c-0.1,0.8-0.1,1.6-0.1,2.5c0,0.9-0.2,1.9,0,2.8c0,0.1,0.2,0.1,0.2,0c0.1-0.9,0-1.9,0.1-2.8
					C202,177.2,202.1,176.4,201.9,175.5C201.9,175.5,201.9,175.5,201.9,175.5L201.9,175.5z"/>
			</g>
		</g>
		<g>
			<g>
				<path class="st0" d="M202.8,175.5c-0.1,0.8-0.1,1.6-0.1,2.5c0,0.9-0.2,1.9,0,2.8c0,0.1,0.2,0.1,0.2,0c0.1-0.9,0-1.9,0.1-2.8
					C202.8,177.2,202.9,176.4,202.8,175.5C202.8,175.5,202.8,175.5,202.8,175.5L202.8,175.5z"/>
			</g>
		</g>
		<g>
			<g>
				<path class="st0" d="M203.7,175.5c-0.1,0.8-0.1,1.6-0.1,2.5c0,0.9-0.2,1.9,0,2.8c0,0.1,0.2,0.1,0.2,0c0.1-0.9,0-1.9,0.1-2.8
					C203.8,177.2,203.9,176.4,203.7,175.5C203.7,175.5,203.7,175.5,203.7,175.5L203.7,175.5z"/>
			</g>
		</g>
		<g>
			<g>
				<path class="st0" d="M204.5,175.5c-0.1,0.8-0.1,1.6-0.1,2.5c0,0.9-0.2,1.9,0,2.8c0,0.1,0.2,0.1,0.2,0c0.1-0.9,0-1.9,0.1-2.8
					C204.7,177.2,204.7,176.4,204.5,175.5C204.6,175.5,204.5,175.5,204.5,175.5L204.5,175.5z"/>
			</g>
		</g>
		<g>
			<g>
				<path class="st0" d="M205.4,175.5c-0.1,0.8-0.1,1.6-0.1,2.5c0,0.9-0.2,1.9,0,2.8c0,0.1,0.2,0.1,0.2,0c0.1-0.9,0-1.9,0.1-2.8
					C205.5,177.2,205.6,176.4,205.4,175.5C205.5,175.5,205.4,175.5,205.4,175.5L205.4,175.5z"/>
			</g>
		</g>
		<g>
			<g>
				<path class="st0" d="M206.3,175.5c-0.1,0.8-0.1,1.6-0.1,2.5c0,0.9-0.2,1.9,0,2.8c0,0.1,0.2,0.1,0.2,0c0.1-0.9,0-1.9,0.1-2.8
					C206.4,177.2,206.5,176.4,206.3,175.5C206.3,175.5,206.3,175.5,206.3,175.5L206.3,175.5z"/>
			</g>
		</g>
	</g>
	<g>
		<g>
			<path class="st0" d="M70.7,170.2c45.4,0.7,90.8,0.5,136.3-0.2c0.1,0,0.1-0.2,0-0.2c-45.4,0.5-90.8,0.4-136.3,0.2
				C70.6,170.1,70.6,170.2,70.7,170.2L70.7,170.2z"/>
		</g>
	</g>
	<g>
		<rect x="139" y="168.6" class="st1" width="0.4" height="19.7"/>
	</g>
	<g>
		<g>
			<g>
				<path class="st0" d="M218.4,179.9c1,0,2,0.1,3,0c0.1,0,0.1-0.1,0-0.1C220.4,179.8,219.4,179.9,218.4,179.9
					C218.3,179.9,218.3,179.9,218.4,179.9L218.4,179.9z"/>
			</g>
		</g>
		<g>
			<g>
				<path class="st0" d="M218.4,181.1c1-0.1,2,0,3-0.2c0.1,0,0-0.1,0-0.1C220.4,180.8,219.4,180.9,218.4,181.1
					C218.3,181,218.3,181.1,218.4,181.1L218.4,181.1z"/>
			</g>
		</g>
		<g>
			<g>
				<path class="st0" d="M218.5,182.3c1-0.1,2-0.2,3-0.4c0.1,0,0-0.1,0-0.1C220.5,181.9,219.5,182,218.5,182.3
					C218.5,182.2,218.5,182.3,218.5,182.3L218.5,182.3z"/>
			</g>
		</g>
		<g>
			<g>
				<path class="st0" d="M218.7,183.5c1-0.2,2-0.3,3-0.5v-0.1C220.7,182.9,219.7,183.2,218.7,183.5
					C218.7,183.4,218.7,183.5,218.7,183.5L218.7,183.5z"/>
			</g>
		</g>
		<g>
			<g>
				<path class="st0" d="M219.1,184.7c1-0.3,2-0.5,2.9-0.8c0.1,0,0-0.1,0-0.1C220.9,184,220,184.3,219.1,184.7
					C219,184.6,219,184.7,219.1,184.7L219.1,184.7z"/>
			</g>
		</g>
		<g>
			<g>
				<path class="st0" d="M219.3,185.8c0.9-0.3,2-0.5,2.9-1c0.1,0,0-0.1,0-0.1C221.3,185,220.2,185.4,219.3,185.8
					C219.3,185.7,219.3,185.8,219.3,185.8L219.3,185.8z"/>
			</g>
		</g>
		<g>
			<g>
				<path class="st0" d="M219.8,186.9c0.9-0.4,1.9-0.7,2.8-1.2v-0.1C221.6,186,220.7,186.4,219.8,186.9
					C219.7,186.9,219.8,187,219.8,186.9L219.8,186.9z"/>
			</g>
		</g>
		<g>
			<g>
				<path class="st0" d="M220.3,188c0.9-0.5,1.8-0.8,2.7-1.4v-0.1C222.1,187,221.2,187.5,220.3,188C220.2,188,220.2,188.1,220.3,188
					L220.3,188z"/>
			</g>
		</g>
		<g>
			<g>
				<path class="st0" d="M220.9,189.1c0.9-0.5,1.8-0.9,2.7-1.6c0.1,0,0-0.1,0-0.1C222.5,187.9,221.7,188.5,220.9,189.1
					C220.8,189,220.9,189.1,220.9,189.1L220.9,189.1z"/>
			</g>
		</g>
		<g>
			<g>
				<path class="st0" d="M221.5,190.1c0.8-0.5,1.7-1,2.6-1.7c0,0,0-0.1-0.1-0.1C223.1,188.8,222.3,189.5,221.5,190.1
					C221.4,190.1,221.5,190.1,221.5,190.1L221.5,190.1z"/>
			</g>
		</g>
		<g>
			<g>
				<path class="st0" d="M222.3,191.1c0.8-0.6,1.6-1.2,2.4-1.8c0,0,0-0.1-0.1-0.1C223.7,189.6,223,190.4,222.3,191.1
					C222.2,191,222.3,191.1,222.3,191.1L222.3,191.1z"/>
			</g>
		</g>
		<g>
			<g>
				<path class="st0" d="M223.3,191.8c0.7-0.6,1.4-1.1,2-1.8c0,0,0-0.1-0.1-0.1C224.5,190.5,223.9,191,223.3,191.8
					C223.2,191.8,223.3,191.8,223.3,191.8L223.3,191.8z"/>
			</g>
		</g>
		<g>
			<g>
				<path class="st0" d="M224.7,192c0.7-0.7,0.6-0.5,1.3-1.3c0,0,0-0.1-0.1-0.1C225.2,191.3,225.4,191.2,224.7,192
					C224.6,192,224.6,192,224.7,192L224.7,192z"/>
			</g>
		</g>
		<g>
			<g>
				<path class="st0" d="M237.1,196.1c0-1,0.1-0.1,0-1.1c0-0.1-0.1-0.1-0.1,0C236.9,196,236.9,195.1,237.1,196.1
					C237,196.2,237.1,196.2,237.1,196.1L237.1,196.1z"/>
			</g>
		</g>
		<g>
			<g>
				<path class="st0" d="M238.3,196.8c-0.1-1,0-0.9-0.2-1.9c0-0.1-0.1,0-0.1,0C238,196,238,195.9,238.3,196.8
					C238.2,196.9,238.3,196.9,238.3,196.8L238.3,196.8z"/>
			</g>
		</g>
		<g>
			<g>
				<path class="st0" d="M239.6,197.8c-0.2-1-0.2-2-0.5-2.9c0-0.1-0.1,0-0.1,0C239,195.9,239.3,196.8,239.6,197.8
					C239.5,197.9,239.6,197.8,239.6,197.8L239.6,197.8z"/>
			</g>
		</g>
		<g>
			<g>
				<path class="st0" d="M240.8,197.5c-0.2-1-0.4-2-0.6-2.9H240C240.1,195.6,240.4,196.6,240.8,197.5
					C240.7,197.6,240.8,197.6,240.8,197.5L240.8,197.5z"/>
			</g>
		</g>
		<g>
			<g>
				<path class="st0" d="M241.9,197.3c-0.3-0.9-0.5-1.9-0.9-2.8c0-0.1-0.1,0-0.1,0C241.1,195.4,241.6,196.3,241.9,197.3
					C241.9,197.3,241.9,197.3,241.9,197.3L241.9,197.3z"/>
			</g>
		</g>
		<g>
			<g>
				<path class="st0" d="M243,196.9c-0.4-0.9-0.6-1.9-1.1-2.8h-0.1C242.2,195.1,242.7,196,243,196.9C243,197,243.1,197,243,196.9
					L243,196.9z"/>
			</g>
		</g>
		<g>
			<g>
				<path class="st0" d="M244.2,196.4c-0.4-0.9-0.7-1.9-1.3-2.7h-0.1C243.2,194.7,243.7,195.6,244.2,196.4
					C244.1,196.5,244.2,196.4,244.2,196.4L244.2,196.4z"/>
			</g>
		</g>
		<g>
			<g>
				<path class="st0" d="M245.3,195.9c-0.5-0.9-0.9-1.8-1.5-2.7h-0.1C244.1,194.2,244.8,195.1,245.3,195.9
					C245.2,196,245.3,196,245.3,195.9L245.3,195.9z"/>
			</g>
		</g>
		<g>
			<g>
				<path class="st0" d="M246.3,195.3c-0.5-0.8-1-1.7-1.6-2.6c0,0-0.1,0-0.1,0.1C245.2,193.7,245.7,194.5,246.3,195.3
					C246.3,195.4,246.4,195.3,246.3,195.3L246.3,195.3z"/>
			</g>
		</g>
		<g>
			<g>
				<path class="st0" d="M247.3,194.6c-0.5-0.8-1.1-1.7-1.7-2.5c0,0-0.1,0-0.1,0.1C246.1,193.1,246.7,193.9,247.3,194.6
					C247.3,194.7,247.4,194.7,247.3,194.6L247.3,194.6z"/>
			</g>
		</g>
		<g>
			<g>
				<path class="st0" d="M248.4,193.9c-0.6-0.7-1.2-1.6-1.9-2.3c0,0-0.1,0-0.1,0.1C246.9,192.5,247.6,193.2,248.4,193.9
					C248.4,194,248.4,194,248.4,193.9L248.4,193.9z"/>
			</g>
		</g>
		<g>
			<g>
				<path class="st0" d="M249.3,193.1c-0.6-0.7-1.4-1.6-2.1-2.2c0,0-0.1,0-0.1,0.1C247.7,191.8,248.4,192.4,249.3,193.1
					C249.3,193.2,249.3,193.1,249.3,193.1L249.3,193.1z"/>
			</g>
		</g>
		<g>
			<g>
				<path class="st0" d="M250.1,192.2c-0.7-0.6-1.5-1.5-2.2-2c0,0-0.1,0-0.1,0.1C248.4,191,249.3,191.7,250.1,192.2
					C250.1,192.3,250.2,192.3,250.1,192.2L250.1,192.2z"/>
			</g>
		</g>
		<g>
			<g>
				<path class="st0" d="M250.9,191.3c-0.7-0.6-1.6-1.4-2.4-1.9c0,0-0.1,0-0.1,0.1C249.2,190.2,250.1,190.7,250.9,191.3
					C250.9,191.4,250.9,191.4,250.9,191.3L250.9,191.3z"/>
			</g>
		</g>
		<g>
			<g>
				<path class="st0" d="M251.7,190.4c-0.8-0.5-1.6-1.3-2.5-1.7c0,0-0.1,0-0.1,0.1C249.8,189.4,250.7,189.9,251.7,190.4
					C251.7,190.5,251.7,190.4,251.7,190.4L251.7,190.4z"/>
			</g>
		</g>
		<g>
			<g>
				<path class="st0" d="M252.3,189.4c-0.8-0.5-1.6-1.1-2.6-1.6c-0.1,0-0.1,0,0,0.1C250.5,188.5,251.4,188.9,252.3,189.4
					C252.3,189.5,252.4,189.4,252.3,189.4L252.3,189.4z"/>
			</g>
		</g>
		<g>
			<g>
				<path class="st0" d="M252.9,188.4c-0.9-0.5-1.7-1-2.7-1.4c-0.1,0-0.1,0.1,0,0.1C251,187.5,252,187.9,252.9,188.4
					C252.9,188.5,252.9,188.4,252.9,188.4L252.9,188.4z"/>
			</g>
		</g>
		<g>
			<g>
				<path class="st0" d="M253.5,187.3c-0.9-0.5-1.8-0.9-2.8-1.2c-0.1,0-0.1,0.1,0,0.1C251.5,186.6,252.5,186.9,253.5,187.3
					C253.5,187.4,253.5,187.3,253.5,187.3L253.5,187.3z"/>
			</g>
		</g>
		<g>
			<g>
				<path class="st0" d="M253.9,186.1c-0.9-0.4-1.9-0.8-2.8-1c-0.1,0-0.1,0.1,0,0.1C251.9,185.6,252.9,185.9,253.9,186.1
					C253.9,186.3,253.9,186.2,253.9,186.1L253.9,186.1z"/>
			</g>
		</g>
		<g>
			<g>
				<path class="st0" d="M254.3,185c-0.9-0.3-1.9-0.6-2.9-0.8c-0.1,0-0.1,0.1,0,0.1C252.3,184.6,253.3,184.8,254.3,185
					C254.3,185.1,254.3,185,254.3,185L254.3,185z"/>
			</g>
		</g>
		<g>
			<g>
				<path class="st0" d="M254.6,183.8c-1-0.2-2-0.5-3-0.6c-0.1,0-0.1,0.1,0,0.1C252.6,183.6,253.6,183.7,254.6,183.8
					C254.6,183.9,254.7,183.8,254.6,183.8L254.6,183.8z"/>
			</g>
		</g>
		<g>
			<g>
				<path class="st0" d="M254.8,182.6c-1-0.2-2-0.4-3-0.5c-0.1,0-0.1,0.1,0,0.1C252.8,182.5,253.8,182.6,254.8,182.6
					C254.9,182.7,254.9,182.6,254.8,182.6L254.8,182.6z"/>
			</g>
		</g>
		<g>
			<g>
				<path class="st0" d="M255,181.4c-1-0.1-2-0.3-3-0.3c-0.1,0-0.1,0.1,0,0.1C252.8,181.5,253.9,181.5,255,181.4
					C255,181.5,255,181.4,255,181.4L255,181.4z"/>
			</g>
		</g>
		<g>
			<g>
				<path class="st0" d="M255,180.2c-1,0-2-0.1-3,0c-0.1,0-0.1,0.1,0,0.1C252.9,180.4,254,180.3,255,180.2
					C255,180.3,255,180.2,255,180.2L255,180.2z"/>
			</g>
		</g>
		<g>
			<g>
				<path class="st0" d="M255,179c-1,0-2,0-3,0.2c-0.1,0,0,0.1,0,0.1C252.9,179.3,253.9,179.2,255,179C255,179.1,255,179,255,179
					L255,179z"/>
			</g>
		</g>
		<g>
			<g>
				<path class="st0" d="M254.9,177.8c-1,0.1-2,0.1-3,0.4c-0.1,0,0,0.1,0,0.1C252.8,178.3,253.9,178,254.9,177.8
					C255,177.9,255,177.8,254.9,177.8L254.9,177.8z"/>
			</g>
		</g>
		<g>
			<g>
				<path class="st0" d="M254.7,176.6c-1,0.2-2,0.3-3,0.5c-0.1,0,0,0.1,0,0.1C252.8,177.2,253.8,176.9,254.7,176.6
					C254.8,176.7,254.8,176.6,254.7,176.6L254.7,176.6z"/>
			</g>
		</g>
		<g>
			<g>
				<path class="st0" d="M254.4,175.5c-1,0.3-2,0.4-2.9,0.7c-0.1,0,0,0.1,0,0.1C252.5,176.2,253.5,175.8,254.4,175.5
					C254.5,175.5,254.5,175.5,254.4,175.5L254.4,175.5z"/>
			</g>
		</g>
		<g>
			<g>
				<path class="st0" d="M254.1,174.4c-0.9,0.3-2,0.5-2.9,0.9c-0.1,0,0,0.1,0,0.1C252.2,175.1,253.2,174.7,254.1,174.4
					C254.2,174.4,254.1,174.3,254.1,174.4L254.1,174.4z"/>
			</g>
		</g>
		<g>
			<g>
				<path class="st0" d="M253.7,173.2c-0.9,0.4-1.9,0.6-2.8,1.1v0.1C251.8,174.1,252.8,173.6,253.7,173.2
					C253.8,173.3,253.8,173.2,253.7,173.2L253.7,173.2z"/>
			</g>
		</g>
		<g>
			<g>
				<path class="st0" d="M253.2,172.1c-0.9,0.5-1.9,0.8-2.7,1.3v0.1C251.5,173.2,252.3,172.6,253.2,172.1
					C253.3,172.2,253.2,172.1,253.2,172.1L253.2,172.1z"/>
			</g>
		</g>
		<g>
			<g>
				<path class="st0" d="M252.7,171.1c-0.9,0.5-1.8,0.9-2.7,1.5c-0.1,0,0,0.1,0,0.1C250.9,172.2,251.8,171.6,252.7,171.1
					C252.8,171.1,252.7,171,252.7,171.1L252.7,171.1z"/>
			</g>
		</g>
		<g>
			<g>
				<path class="st0" d="M252,170c-0.8,0.5-1.7,1-2.6,1.6c0,0,0,0.1,0.1,0.1C250.4,171.2,251.2,170.6,252,170
					C252.1,170.1,252,170,252,170L252,170z"/>
			</g>
		</g>
		<g>
			<g>
				<path class="st0" d="M251.3,169c-0.8,0.5-1.6,1.1-2.5,1.8c0,0,0,0.1,0.1,0.1C249.7,170.4,250.6,169.7,251.3,169
					C251.4,169,251.3,169,251.3,169L251.3,169z"/>
			</g>
		</g>
		<g>
			<g>
				<path class="st0" d="M250.6,168.1c-0.7,0.6-1.6,1.3-2.3,2c0,0,0,0.1,0.1,0.1C249.1,169.6,249.8,168.8,250.6,168.1
					C250.6,168.1,250.6,168,250.6,168.1L250.6,168.1z"/>
			</g>
		</g>
		<g>
			<g>
				<path class="st0" d="M249.7,167.2c-0.7,0.7-1.6,1.4-2.2,2.1c0,0,0,0.1,0.1,0.1C248.4,168.8,249.1,167.9,249.7,167.2
					C249.8,167.2,249.7,167.1,249.7,167.2L249.7,167.2z"/>
			</g>
		</g>
		<g>
			<g>
				<path class="st0" d="M248.8,166.4c-0.6,0.7-1.5,1.5-2,2.3c0,0,0,0.1,0.1,0.1C247.6,168,248.2,167.2,248.8,166.4
					C248.9,166.4,248.8,166.3,248.8,166.4L248.8,166.4z"/>
			</g>
		</g>
		<g>
			<g>
				<path class="st0" d="M247.9,165.7c-0.6,0.8-1.4,1.6-1.8,2.4c0,0,0,0.1,0.1,0.1C246.8,167.3,247.3,166.5,247.9,165.7
					C248,165.7,247.9,165.6,247.9,165.7L247.9,165.7z"/>
			</g>
		</g>
		<g>
			<g>
				<path class="st0" d="M246.9,164.9c-0.5,0.8-1.2,1.6-1.6,2.5c0,0,0,0.1,0.1,0.1C245.9,166.7,246.4,165.8,246.9,164.9
					C247,164.9,246.9,164.8,246.9,164.9L246.9,164.9z"/>
			</g>
		</g>
		<g>
			<g>
				<path class="st0" d="M245.8,164.3c-0.5,0.8-1.1,1.7-1.6,2.6c0,0.1,0,0.1,0.1,0C245,166.1,245.4,165.2,245.8,164.3
					C246,164.3,245.9,164.2,245.8,164.3L245.8,164.3z"/>
			</g>
		</g>
		<g>
			<g>
				<path class="st0" d="M244.8,163.7c-0.5,0.9-1,1.7-1.4,2.7c0,0.1,0.1,0.1,0.1,0C244.1,165.7,244.4,164.6,244.8,163.7
					C244.9,163.7,244.8,163.6,244.8,163.7L244.8,163.7z"/>
			</g>
		</g>
		<g>
			<g>
				<path class="st0" d="M243.7,163.2c-0.4,0.9-0.9,1.8-1.2,2.7c0,0.1,0.1,0.1,0.1,0C243,165.2,243.3,164.2,243.7,163.2
					C243.8,163.2,243.7,163.2,243.7,163.2L243.7,163.2z"/>
			</g>
		</g>
		<g>
			<g>
				<path class="st0" d="M242.5,162.8c-0.4,0.9-0.7,1.9-1,2.8c0,0.1,0.1,0.1,0.1,0C242,164.7,242.3,163.7,242.5,162.8
					C242.6,162.8,242.5,162.7,242.5,162.8L242.5,162.8z"/>
			</g>
		</g>
		<g>
			<g>
				<path class="st0" d="M241.3,162.5c-0.3,0.9-0.6,1.9-0.7,2.9c0,0.1,0.1,0.1,0.1,0C241,164.5,241.2,163.5,241.3,162.5
					C241.4,162.5,241.4,162.4,241.3,162.5L241.3,162.5z"/>
			</g>
		</g>
		<g>
			<g>
				<path class="st0" d="M240.1,162.2c-0.2,1-0.5,1.9-0.5,2.9c0,0.1,0.1,0.1,0.1,0C239.9,164.2,240,163.2,240.1,162.2
					C240.2,162.2,240.2,162.2,240.1,162.2L240.1,162.2z"/>
			</g>
		</g>
		<g>
			<g>
				<path class="st0" d="M238.9,162c-0.1,1-0.4,2-0.4,3c0,0.1,0.1,0.1,0.1,0C238.9,164,238.9,163,238.9,162
					C239,162,238.9,161.9,238.9,162L238.9,162z"/>
			</g>
		</g>
		<g>
			<g>
				<path class="st0" d="M237.7,161.9c-0.1,1-0.2,2-0.2,3c0,0.1,0.1,0.1,0.1,0C237.8,163.9,237.7,162.9,237.7,161.9
					C237.8,161.8,237.7,161.8,237.7,161.9L237.7,161.9z"/>
			</g>
		</g>
		<g>
			<g>
				<path class="st0" d="M236.5,161.9c0,1-0.1,2,0,3c0,0.1,0.1,0.1,0.1,0C236.7,163.9,236.6,162.8,236.5,161.9
					C236.6,161.8,236.5,161.8,236.5,161.9L236.5,161.9z"/>
			</g>
		</g>
		<g>
			<g>
				<path class="st0" d="M235.3,161.9c0.1,1,0.1,2,0.3,3c0,0.1,0.1,0,0.1,0C235.6,163.9,235.4,162.9,235.3,161.9
					C235.4,161.9,235.3,161.9,235.3,161.9L235.3,161.9z"/>
			</g>
		</g>
		<g>
			<g>
				<path class="st0" d="M234.1,162.1c0.1,1,0.2,2,0.5,3c0,0.1,0.1,0,0.1,0C234.5,164,234.3,163,234.1,162.1
					C234.2,162,234.1,162,234.1,162.1L234.1,162.1z"/>
			</g>
		</g>
		<g>
			<g>
				<path class="st0" d="M232.9,162.3c0.2,1,0.4,2,0.6,2.9h0.1C233.5,164.2,233.2,163.2,232.9,162.3
					C233,162.2,232.9,162.2,232.9,162.3L232.9,162.3z"/>
			</g>
		</g>
		<g>
			<g>
				<path class="st0" d="M231.7,162.5c0.3,0.9,0.5,1.9,0.8,2.9c0,0.1,0.1,0,0.1,0C232.4,164.5,232.1,163.5,231.7,162.5
					C231.8,162.5,231.7,162.5,231.7,162.5L231.7,162.5z"/>
			</g>
		</g>
		<g>
			<g>
				<path class="st0" d="M230.5,162.9c0.4,0.9,0.5,1.9,1,2.8c0,0.1,0.1,0,0.1,0C231.4,164.7,231,163.8,230.5,162.9
					C230.6,162.8,230.5,162.8,230.5,162.9L230.5,162.9z"/>
			</g>
		</g>
		<g>
			<g>
				<path class="st0" d="M229.4,163.4c0.4,0.9,0.7,1.9,1.2,2.7h0.1C230.4,165.1,229.9,164.2,229.4,163.4
					C229.5,163.3,229.4,163.3,229.4,163.4L229.4,163.4z"/>
			</g>
		</g>
		<g>
			<g>
				<path class="st0" d="M228.3,163.8c0.5,0.9,0.8,1.8,1.4,2.7h0.1C229.4,165.6,228.9,164.7,228.3,163.8
					C228.4,163.7,228.3,163.8,228.3,163.8L228.3,163.8z"/>
			</g>
		</g>
		<g>
			<g>
				<path class="st0" d="M227.2,164.5c0.5,0.8,1,1.7,1.6,2.6h0.1C228.5,166.1,227.8,165.3,227.2,164.5
					C227.3,164.4,227.2,164.4,227.2,164.5L227.2,164.5z"/>
			</g>
		</g>
		<g>
			<g>
				<path class="st0" d="M226.2,165.1c0.5,0.8,1.1,1.7,1.7,2.5c0,0,0.1,0,0.1-0.1C227.6,166.7,226.9,165.8,226.2,165.1
					C226.3,165,226.2,165,226.2,165.1L226.2,165.1z"/>
			</g>
		</g>
		<g>
			<g>
				<path class="st0" d="M225.3,165.8c0.6,0.8,1.2,1.6,1.9,2.4c0,0,0.1,0,0.1-0.1C226.7,167.3,225.9,166.6,225.3,165.8
					C225.3,165.7,225.2,165.7,225.3,165.8L225.3,165.8z"/>
			</g>
		</g>
		<g>
			<g>
				<path class="st0" d="M224.4,166.6c0.6,0.7,1.3,1.6,2,2.2c0,0,0.1,0,0.1-0.1C225.8,167.9,225.1,167.3,224.4,166.6
					C224.4,166.5,224.3,166.6,224.4,166.6L224.4,166.6z"/>
			</g>
		</g>
		<g>
			<g>
				<path class="st0" d="M223.4,167.5c0.7,0.7,1.4,1.5,2.2,2.1c0,0,0.1,0,0.1-0.1C225.1,168.7,224.3,168,223.4,167.5
					C223.4,167.3,223.4,167.4,223.4,167.5L223.4,167.5z"/>
			</g>
		</g>
		<g>
			<g>
				<path class="st0" d="M222.6,168.3c0.7,0.6,1.5,1.4,2.4,1.9c0,0,0.1,0,0.1-0.1C224.4,169.5,223.4,168.9,222.6,168.3
					C222.6,168.2,222.6,168.3,222.6,168.3L222.6,168.3z"/>
			</g>
		</g>
		<g>
			<g>
				<path class="st0" d="M221.9,169.3c0.8,0.5,1.6,1.3,2.5,1.7c0,0,0.1,0,0.1-0.1C223.6,170.3,222.7,169.8,221.9,169.3
					C221.9,169.2,221.9,169.2,221.9,169.3L221.9,169.3z"/>
			</g>
		</g>
		<g>
			<g>
				<path class="st0" d="M221.2,170.3c0.8,0.5,1.6,1.2,2.6,1.6c0,0,0.1,0,0.1-0.1C223,171.2,222.1,170.7,221.2,170.3
					C221.2,170.1,221.2,170.2,221.2,170.3L221.2,170.3z"/>
			</g>
		</g>
		<g>
			<g>
				<path class="st0" d="M220.6,171.3c0.9,0.5,1.7,1,2.7,1.5c0.1,0,0.1-0.1,0-0.1C222.4,172.1,221.5,171.7,220.6,171.3
					C220.6,171.2,220.5,171.3,220.6,171.3L220.6,171.3z"/>
			</g>
		</g>
		<g>
			<g>
				<path class="st0" d="M220.1,172.4c0.9,0.5,1.8,0.9,2.7,1.3c0.1,0,0.1-0.1,0-0.1C222,173.1,221,172.7,220.1,172.4
					C220.1,172.3,220,172.3,220.1,172.4L220.1,172.4z"/>
			</g>
		</g>
		<g>
			<g>
				<path class="st0" d="M219.6,173.5c0.9,0.4,1.8,0.8,2.8,1.1c0.1,0,0.1-0.1,0-0.1C221.5,174.1,220.5,173.7,219.6,173.5
					C219.5,173.4,219.5,173.4,219.6,173.5L219.6,173.5z"/>
			</g>
		</g>
		<g>
			<g>
				<path class="st0" d="M219.1,174.6c0.9,0.3,1.9,0.7,2.9,0.9c0.1,0,0.1-0.1,0-0.1C221.2,175.1,220.2,174.8,219.1,174.6
					C219.1,174.5,219.1,174.6,219.1,174.6L219.1,174.6z"/>
			</g>
		</g>
		<g>
			<g>
				<path class="st0" d="M218.9,175.8c1,0.3,2,0.5,2.9,0.6c0.1,0,0.1-0.1,0-0.1C220.9,176.1,219.9,175.9,218.9,175.8
					C218.8,175.7,218.8,175.8,218.9,175.8L218.9,175.8z"/>
			</g>
		</g>
		<g>
			<g>
				<path class="st0" d="M218.6,177c1,0.2,2,0.5,3,0.5c0.1,0,0.1-0.1,0-0.1C220.7,177.1,219.6,177,218.6,177
					C218.6,176.9,218.6,177,218.6,177L218.6,177z"/>
			</g>
		</g>
		<g>
			<g>
				<path class="st0" d="M218.5,178.2c1,0.1,2,0.3,3,0.3c0.1,0,0.1-0.1,0-0.1C220.5,178.2,219.5,178.2,218.5,178.2
					C218.4,178.1,218.4,178.2,218.5,178.2L218.5,178.2z"/>
			</g>
		</g>
	</g>
	<g>
		<g>
			<g>
				<path class="st0" d="M64.7,223.9c0-1.9-1.4-3.4-3.5-3.5c-1.9-0.1-3.5,1.6-3.5,3.5c0,1.9,1.6,3.7,3.5,3.5
					C63.2,227.3,64.7,225.9,64.7,223.9z"/>
			</g>
			<g>
				<path class="st0" d="M77.6,223.9c0-1.9-1.4-3.4-3.5-3.5c-1.9-0.1-3.5,1.6-3.5,3.5c0,1.9,1.6,3.7,3.5,3.5
					C76,227.3,77.6,225.9,77.6,223.9z"/>
			</g>
			<g>
				<path class="st0" d="M90.4,223.9c0-1.9-1.4-3.4-3.5-3.5c-1.9-0.1-3.5,1.6-3.5,3.5c0,1.9,1.6,3.7,3.5,3.5
					C88.7,227.3,90.4,225.9,90.4,223.9z"/>
			</g>
			<g>
				<path class="st0" d="M103.1,223.9c0-1.9-1.4-3.4-3.5-3.5c-1.9-0.1-3.5,1.6-3.5,3.5c0,1.9,1.6,3.7,3.5,3.5
					C101.6,227.3,103.1,225.9,103.1,223.9z"/>
			</g>
			<g>
				<path class="st0" d="M115.9,223.9c0-1.9-1.4-3.4-3.5-3.5c-1.9-0.1-3.5,1.6-3.5,3.5c0,1.9,1.6,3.7,3.5,3.5
					C114.4,227.3,115.9,225.9,115.9,223.9z"/>
			</g>
			<g>
				<path class="st0" d="M128.8,223.9c0-1.9-1.4-3.4-3.5-3.5c-1.9-0.1-3.5,1.6-3.5,3.5c0,1.9,1.6,3.7,3.5,3.5
					C127.1,227.3,128.8,225.9,128.8,223.9z"/>
			</g>
			<g>
				<path class="st0" d="M141.5,223.9c0-1.9-1.4-3.4-3.5-3.5c-1.9-0.1-3.5,1.6-3.5,3.5c0,1.9,1.6,3.7,3.5,3.5
					C139.9,227.3,141.5,225.9,141.5,223.9z"/>
			</g>
			<g>
				<path class="st0" d="M154.3,223.9c0-1.9-1.4-3.4-3.5-3.5c-1.9-0.1-3.5,1.6-3.5,3.5c0,1.9,1.6,3.7,3.5,3.5
					C152.7,227.3,154.3,225.9,154.3,223.9z"/>
			</g>
			<g>
				<path class="st0" d="M167.1,223.9c0-1.9-1.4-3.4-3.5-3.5c-1.9-0.1-3.5,1.6-3.5,3.5c0,1.9,1.6,3.7,3.5,3.5
					C165.5,227.3,167.1,225.9,167.1,223.9z"/>
			</g>
			<g>
				<path class="st0" d="M179.9,223.9c0-1.9-1.4-3.4-3.5-3.5c-1.9-0.1-3.5,1.6-3.5,3.5c0,1.9,1.6,3.7,3.5,3.5
					C178.3,227.3,179.9,225.9,179.9,223.9z"/>
			</g>
			<g>
				<path class="st0" d="M192.7,223.9c0-1.9-1.4-3.4-3.5-3.5c-1.9-0.1-3.5,1.6-3.5,3.5c0,1.9,1.6,3.7,3.5,3.5
					C191.1,227.3,192.7,225.9,192.7,223.9z"/>
			</g>
			<g>
				<path class="st0" d="M205.4,223.9c0-1.9-1.4-3.4-3.5-3.5c-1.9-0.1-3.5,1.6-3.5,3.5c0,1.9,1.6,3.7,3.5,3.5
					C203.9,227.3,205.4,225.9,205.4,223.9z"/>
			</g>
			<g>
				<path class="st0" d="M218.2,223.9c0-1.9-1.4-3.4-3.5-3.5c-1.9-0.1-3.5,1.6-3.5,3.5c0,1.9,1.6,3.7,3.5,3.5
					C216.7,227.3,218.2,225.9,218.2,223.9z"/>
			</g>
		</g>
		<g>
			<g>
				<path class="st0" d="M63.9,236.4c0-1.5-1-2.6-2.7-2.7c-1.5-0.1-2.7,1.2-2.7,2.7c0,1.5,1.2,2.7,2.7,2.7
					C62.7,239,63.9,237.9,63.9,236.4z"/>
			</g>
			<g>
				<path class="st0" d="M76.7,236.4c0-1.5-1-2.6-2.7-2.7c-1.5-0.1-2.7,1.2-2.7,2.7c0,1.5,1.2,2.7,2.7,2.7
					C75.5,239,76.7,237.9,76.7,236.4z"/>
			</g>
			<g>
				<path class="st0" d="M89.5,236.4c0-1.5-1-2.6-2.7-2.7c-1.5-0.1-2.7,1.2-2.7,2.7c0,1.5,1.2,2.7,2.7,2.7
					C88.3,239,89.5,237.9,89.5,236.4z"/>
			</g>
			<g>
				<path class="st0" d="M102.3,236.4c0-1.5-1-2.6-2.7-2.7c-1.5-0.1-2.7,1.2-2.7,2.7c0,1.5,1.2,2.7,2.7,2.7
					C101.1,239,102.3,237.9,102.3,236.4z"/>
			</g>
			<g>
				<path class="st0" d="M115.1,236.4c0-1.5-1-2.6-2.7-2.7c-1.5-0.1-2.7,1.2-2.7,2.7c0,1.5,1.2,2.7,2.7,2.7
					C113.9,239,115.1,237.9,115.1,236.4z"/>
			</g>
			<g>
				<path class="st0" d="M127.8,236.4c0-1.5-1-2.6-2.7-2.7c-1.5-0.1-2.7,1.2-2.7,2.7c0,1.5,1.2,2.7,2.7,2.7
					C126.6,239,127.8,237.9,127.8,236.4z"/>
			</g>
			<g>
				<path class="st0" d="M140.7,236.4c0-1.5-1-2.6-2.7-2.7c-1.5-0.1-2.7,1.2-2.7,2.7c0,1.5,1.2,2.7,2.7,2.7
					C139.5,239,140.7,237.9,140.7,236.4z"/>
			</g>
			<g>
				<path class="st0" d="M153.5,236.4c0-1.5-1-2.6-2.7-2.7c-1.5-0.1-2.7,1.2-2.7,2.7c0,1.5,1.2,2.7,2.7,2.7
					C152.3,239,153.5,237.9,153.5,236.4z"/>
			</g>
			<g>
				<path class="st0" d="M166.2,236.4c0-1.5-1-2.6-2.7-2.7c-1.5-0.1-2.7,1.2-2.7,2.7c0,1.5,1.2,2.7,2.7,2.7
					C165,239,166.2,237.9,166.2,236.4z"/>
			</g>
			<g>
				<path class="st0" d="M179,236.4c0-1.5-1-2.6-2.7-2.7c-1.5-0.1-2.7,1.2-2.7,2.7c0,1.5,1.2,2.7,2.7,2.7
					C177.8,239,179,237.9,179,236.4z"/>
			</g>
			<g>
				<path class="st0" d="M191.8,236.4c0-1.5-1-2.6-2.7-2.7c-1.5-0.1-2.7,1.2-2.7,2.7c0,1.5,1.2,2.7,2.7,2.7
					C190.6,239,191.8,237.9,191.8,236.4z"/>
			</g>
			<g>
				<path class="st0" d="M204.6,236.4c0-1.5-1-2.6-2.7-2.7c-1.5-0.1-2.7,1.2-2.7,2.7c0,1.5,1.2,2.7,2.7,2.7
					C203.4,239,204.6,237.9,204.6,236.4z"/>
			</g>
			<g>
				<path class="st0" d="M217.4,236.4c0-1.5-1-2.6-2.7-2.7c-1.5-0.1-2.7,1.2-2.7,2.7c0,1.5,1.2,2.7,2.7,2.7
					C216.2,239,217.4,237.9,217.4,236.4z"/>
			</g>
		</g>
		<g>
			<path class="st0" d="M63.3,248.5c0-1.1-0.8-1.9-2-2c-1.1-0.1-2,0.9-2,2s0.9,2.1,2,2C62.4,250.5,63.3,249.6,63.3,248.5z"/>
		</g>
		<g>
			<path class="st0" d="M76.1,248.5c0-1.1-0.8-1.9-2-2c-1.1-0.1-2,0.9-2,2s0.9,2.1,2,2C75.2,250.5,76.1,249.6,76.1,248.5z"/>
		</g>
		<g>
			<path class="st0" d="M88.9,248.5c0-1.1-0.8-1.9-2-2c-1.1-0.1-2,0.9-2,2s0.9,2.1,2,2S88.9,249.6,88.9,248.5z"/>
		</g>
		<g>
			<path class="st0" d="M101.6,248.5c0-1.1-0.8-1.9-2-2c-1.1-0.1-2,0.9-2,2s0.9,2.1,2,2C100.7,250.5,101.6,249.6,101.6,248.5z"/>
		</g>
		<g>
			<path class="st0" d="M114.5,248.5c0-1.1-0.8-1.9-2-2c-1.1-0.1-2,0.9-2,2s0.9,2.1,2,2C113.6,250.5,114.5,249.6,114.5,248.5z"/>
		</g>
		<g>
			<path class="st0" d="M127.3,248.5c0-1.1-0.8-1.9-2-2c-1.1-0.1-2,0.9-2,2s0.9,2.1,2,2C126.4,250.5,127.3,249.6,127.3,248.5z"/>
		</g>
		<g>
			<path class="st0" d="M140,248.5c0-1.1-0.8-1.9-2-2c-1.1-0.1-2,0.9-2,2s0.9,2.1,2,2S140,249.6,140,248.5z"/>
		</g>
		<g>
			<path class="st0" d="M152.8,248.5c0-1.1-0.8-1.9-2-2c-1.1-0.1-2,0.9-2,2s0.9,2.1,2,2S152.8,249.6,152.8,248.5z"/>
		</g>
		<g>
			<path class="st0" d="M165.7,248.5c0-1.1-0.8-1.9-2-2c-1.1-0.1-2,0.9-2,2s0.9,2.1,2,2S165.7,249.6,165.7,248.5z"/>
		</g>
		<g>
			<path class="st0" d="M178.4,248.5c0-1.1-0.8-1.9-2-2c-1.1-0.1-2,0.9-2,2s0.9,2.1,2,2S178.4,249.6,178.4,248.5z"/>
		</g>
		<g>
			<path class="st0" d="M191.2,248.5c0-1.1-0.8-1.9-2-2c-1.1-0.1-2,0.9-2,2s0.9,2.1,2,2S191.2,249.6,191.2,248.5z"/>
		</g>
		<g>
			<path class="st0" d="M203.9,248.5c0-1.1-0.8-1.9-2-2c-1.1-0.1-2,0.9-2,2s0.9,2.1,2,2S203.9,249.6,203.9,248.5z"/>
		</g>
		<g>
			<path class="st0" d="M216.8,248.5c0-1.1-0.8-1.9-2-2c-1.1-0.1-2,0.9-2,2s0.9,2.1,2,2S216.8,249.6,216.8,248.5z"/>
		</g>
		<g>
			<path class="st0" d="M62.8,259.1c0-0.8-0.6-1.5-1.6-1.6c-0.8-0.1-1.6,0.7-1.6,1.6s0.7,1.6,1.6,1.6
				C62.2,260.5,62.8,259.9,62.8,259.1z"/>
		</g>
		<g>
			<path class="st0" d="M75.6,259.1c0-0.8-0.6-1.5-1.6-1.6c-0.8-0.1-1.6,0.7-1.6,1.6s0.7,1.6,1.6,1.6
				C74.9,260.5,75.6,259.9,75.6,259.1z"/>
		</g>
		<g>
			<path class="st0" d="M88.5,259.1c0-0.8-0.6-1.5-1.6-1.6c-0.8-0.1-1.6,0.7-1.6,1.6s0.7,1.6,1.6,1.6
				C87.7,260.5,88.5,259.9,88.5,259.1z"/>
		</g>
		<g>
			<path class="st0" d="M101.2,259.1c0-0.8-0.6-1.5-1.6-1.6c-0.8-0.1-1.6,0.7-1.6,1.6s0.7,1.6,1.6,1.6
				C100.5,260.5,101.2,259.9,101.2,259.1z"/>
		</g>
		<g>
			<path class="st0" d="M114,259.1c0-0.8-0.6-1.5-1.6-1.6c-0.8-0.1-1.6,0.7-1.6,1.6s0.7,1.6,1.6,1.6
				C113.3,260.5,114,259.9,114,259.1z"/>
		</g>
		<g>
			<path class="st0" d="M126.7,259.1c0-0.8-0.6-1.5-1.6-1.6c-0.8-0.1-1.6,0.7-1.6,1.6s0.7,1.6,1.6,1.6
				C126.1,260.5,126.7,259.9,126.7,259.1z"/>
		</g>
		<g>
			<path class="st0" d="M139.6,259.1c0-0.8-0.6-1.5-1.6-1.6c-0.8-0.1-1.6,0.7-1.6,1.6s0.7,1.6,1.6,1.6
				C138.8,260.5,139.6,259.9,139.6,259.1z"/>
		</g>
		<g>
			<path class="st0" d="M152.4,259.1c0-0.8-0.6-1.5-1.6-1.6c-0.8-0.1-1.6,0.7-1.6,1.6s0.7,1.6,1.6,1.6
				C151.7,260.5,152.4,259.9,152.4,259.1z"/>
		</g>
		<g>
			<path class="st0" d="M165.1,259.1c0-0.8-0.6-1.5-1.6-1.6c-0.8-0.1-1.6,0.7-1.6,1.6s0.7,1.6,1.6,1.6
				C164.5,260.5,165.1,259.9,165.1,259.1z"/>
		</g>
		<g>
			<path class="st0" d="M177.9,259.1c0-0.8-0.6-1.5-1.6-1.6c-0.8-0.1-1.6,0.7-1.6,1.6s0.7,1.6,1.6,1.6
				C177.2,260.5,177.9,259.9,177.9,259.1z"/>
		</g>
		<g>
			<path class="st0" d="M190.8,259.1c0-0.8-0.6-1.5-1.6-1.6c-0.8-0.1-1.6,0.7-1.6,1.6s0.7,1.6,1.6,1.6
				C190,260.5,190.8,259.9,190.8,259.1z"/>
		</g>
		<g>
			<path class="st0" d="M203.5,259.1c0-0.8-0.6-1.5-1.6-1.6c-0.8-0.1-1.6,0.7-1.6,1.6s0.7,1.6,1.6,1.6
				C202.8,260.5,203.5,259.9,203.5,259.1z"/>
		</g>
		<g>
			<path class="st0" d="M216.3,259.1c0-0.8-0.6-1.5-1.6-1.6c-0.8-0.1-1.6,0.7-1.6,1.6s0.7,1.6,1.6,1.6
				C215.6,260.5,216.3,259.9,216.3,259.1z"/>
		</g>
		<g>
			<path class="st0" d="M62.5,268.4c0-0.6-0.5-1.1-1.2-1.2c-0.6,0-1.2,0.5-1.2,1.2s0.5,1.2,1.2,1.2C61.9,269.5,62.5,269,62.5,268.4z
				"/>
		</g>
		<g>
			<path class="st0" d="M75.2,268.4c0-0.6-0.5-1.1-1.2-1.2c-0.6,0-1.2,0.5-1.2,1.2s0.5,1.2,1.2,1.2C74.7,269.5,75.2,269,75.2,268.4z
				"/>
		</g>
		<g>
			<path class="st0" d="M88,268.4c0-0.6-0.5-1.1-1.2-1.2c-0.6,0-1.2,0.5-1.2,1.2s0.5,1.2,1.2,1.2C87.5,269.5,88,269,88,268.4z"/>
		</g>
		<g>
			<path class="st0" d="M100.8,268.4c0-0.6-0.5-1.1-1.2-1.2c-0.6,0-1.2,0.5-1.2,1.2s0.5,1.2,1.2,1.2
				C100.3,269.5,100.8,269,100.8,268.4z"/>
		</g>
		<g>
			<path class="st0" d="M113.6,268.4c0-0.6-0.5-1.1-1.2-1.2c-0.6,0-1.2,0.5-1.2,1.2s0.5,1.2,1.2,1.2
				C113.1,269.5,113.6,269,113.6,268.4z"/>
		</g>
		<g>
			<path class="st0" d="M126.4,268.4c0-0.6-0.5-1.1-1.2-1.2c-0.6,0-1.2,0.5-1.2,1.2s0.5,1.2,1.2,1.2
				C125.8,269.5,126.4,269,126.4,268.4z"/>
		</g>
		<g>
			<path class="st0" d="M139.2,268.4c0-0.6-0.5-1.1-1.2-1.2c-0.6,0-1.2,0.5-1.2,1.2s0.5,1.2,1.2,1.2
				C138.6,269.5,139.2,269,139.2,268.4z"/>
		</g>
		<g>
			<path class="st0" d="M151.9,268.4c0-0.6-0.5-1.1-1.2-1.2c-0.6,0-1.2,0.5-1.2,1.2s0.5,1.2,1.2,1.2
				C151.5,269.5,151.9,269,151.9,268.4z"/>
		</g>
		<g>
			<path class="st0" d="M164.7,268.4c0-0.6-0.5-1.1-1.2-1.2c-0.6,0-1.2,0.5-1.2,1.2s0.5,1.2,1.2,1.2
				C164.2,269.5,164.7,269,164.7,268.4z"/>
		</g>
		<g>
			<path class="st0" d="M177.6,268.4c0-0.6-0.5-1.1-1.2-1.2c-0.6,0-1.2,0.5-1.2,1.2s0.5,1.2,1.2,1.2
				C177,269.5,177.6,269,177.6,268.4z"/>
		</g>
		<g>
			<path class="st0" d="M190.3,268.4c0-0.6-0.5-1.1-1.2-1.2c-0.6,0-1.2,0.5-1.2,1.2s0.5,1.2,1.2,1.2
				C189.8,269.5,190.3,269,190.3,268.4z"/>
		</g>
		<g>
			<path class="st0" d="M203.1,268.4c0-0.6-0.5-1.1-1.2-1.2c-0.6,0-1.2,0.5-1.2,1.2s0.5,1.2,1.2,1.2
				C202.6,269.5,203.1,269,203.1,268.4z"/>
		</g>
		<g>
			<path class="st0" d="M215.8,268.4c0-0.6-0.5-1.1-1.2-1.2c-0.6,0-1.2,0.5-1.2,1.2s0.5,1.2,1.2,1.2
				C215.4,269.5,215.8,269,215.8,268.4z"/>
		</g>
	</g>
	<g>
		<g>
			<path class="st0" d="M50.2,208.8c-0.5,0.5-1,2.9,0.2,3c0.5,0,0.9-0.1,1.3-0.1c0.6,0,1.2-0.2,1.8-0.3c0.5-0.1,0.5-0.6,0-0.7
				c-0.8-0.1-1.7-0.2-2.5-0.2c-0.1,0-0.5,0.1-0.5,0.1c0.1,0.1,0.2,0.1,0.3,0.2c0-0.1,0-0.1,0-0.2c0-0.1,0-0.4,0-0.5
				C50.7,209.7,50.5,209.2,50.2,208.8C50.3,208.7,50.2,208.7,50.2,208.8L50.2,208.8z"/>
		</g>
	</g>
</g>
</svg>
