<?xml version="1.0" encoding="utf-8"?>
<!-- Generator: Adobe Illustrator 19.2.0, SVG Export Plug-In . SVG Version: 6.00 Build 0)  -->
<svg version="1.1" id="Layer_1" xmlns="http://www.w3.org/2000/svg" xmlns:xlink="http://www.w3.org/1999/xlink" x="0px" y="0px"
	 viewBox="0 0 400 400" style="enable-background:new 0 0 400 400;" xml:space="preserve">
<style type="text/css">
	.st0{fill:#231F20;}
	.st1{fill:#312528;}
</style>
<g>
	<g>
		<g>
			<path class="st0" d="M143.8,117.6c3.8-4.1,9.6-5.5,14.7-7c4.4-1.2,8.6-3.1,12.5-5.6c0.3-0.2,0-0.7-0.3-0.5
				c-5.4,3-10.8,4.5-16.6,6.3c-4,1.2-7.9,3.3-10.5,6.7C143.5,117.6,143.7,117.7,143.8,117.6L143.8,117.6z"/>
		</g>
		<g>
			<path class="st0" d="M153.9,104.1c9-1.6,17.9-3.9,26.6-6.8c0.6-0.2,0.2-1-0.4-0.9c-8.7,2.7-17.5,4.9-26.3,7.4
				C153.7,103.9,153.8,104.1,153.9,104.1L153.9,104.1z"/>
		</g>
		<g>
			<path class="st0" d="M152.5,126.5c-5.1,4.7-10.2,7.4-16.9,9.2c-0.2,0.1-0.2,0.4,0,0.4c6.4-0.3,13.3-4.1,17.1-9.2
				C152.9,126.6,152.6,126.3,152.5,126.5L152.5,126.5z"/>
		</g>
		<g>
			<path class="st0" d="M152.6,126.8c5.8-2,10.5-6.2,14.4-10.9c0.4-0.5-0.4-1-0.8-0.6c-3.8,4.8-8.3,8.5-13.7,11.3
				C152.4,126.6,152.5,126.8,152.6,126.8L152.6,126.8z"/>
		</g>
		<g>
			<path class="st0" d="M165.9,115.8c2.8-1,5.7-2,8.5-3c2.6-0.9,5.8-1.9,7.3-4.4c1.8-2.9,0.5-7.8-3.4-7.8c-0.4,0-0.6,0.6-0.2,0.7
				c2.6,0.7,4.1,3.1,3.2,5.8c-0.9,2.6-4.1,3.7-6.5,4.6C172.2,112.8,167.8,113.3,165.9,115.8C165.8,115.8,165.9,115.8,165.9,115.8
				L165.9,115.8z"/>
		</g>
		<g>
			<path class="st0" d="M181,108.5c4.3-1.4,12.6-4.4,12.1-10.2c0-0.3-0.5-0.3-0.6,0c-0.8,5.6-7.3,7.6-11.6,9.9
				C180.7,108.3,180.8,108.5,181,108.5L181,108.5z"/>
		</g>
		<g>
			<path class="st0" d="M137.2,151.1c2.6-4.5,7.9-9.7,5.3-15.3c-0.1-0.2-0.4-0.1-0.4,0.1c1.2,6-3.6,9.8-5.3,15.1
				C136.9,151.1,137.1,151.3,137.2,151.1L137.2,151.1z"/>
		</g>
		<g>
			<path class="st0" d="M161.1,162c2.4-3,0.4-8.7-3.8-8.5c-0.3,0-0.3,0.4-0.1,0.5c1.5,0.6,2.9,1.1,3.7,2.6c1,1.7,0.7,3.6-0.1,5.3
				C160.8,162.1,161,162.2,161.1,162L161.1,162z"/>
		</g>
		<g>
			<path class="st0" d="M157.8,154.4c3.5-1.9-0.1-6.6-2.8-7.1c-0.3,0-0.5,0.3-0.3,0.5c0.9,0.9,2.2,1.3,3.1,2.3c1,1.2,1.3,3.1,0,4.1
				C157.6,154.3,157.7,154.4,157.8,154.4L157.8,154.4z"/>
		</g>
		<g>
			<path class="st0" d="M157.6,149.5c1.6-1.2,3.4-3.1,2.7-5.2c-0.8-2.3-3.8-4-6-4.7c-0.5-0.2-0.8,0.6-0.3,0.8
				c1.7,0.8,3.6,1.6,4.9,3.1c1.9,2.2,0.1,4.2-1.4,6C157.4,149.5,157.6,149.6,157.6,149.5L157.6,149.5z"/>
		</g>
		<g>
			<path class="st0" d="M160,141.8c0.3-1,0.6-2,0.8-3c0.3-1.3,0.7-2.1,1.5-3.1c0.9-1.1,1.3-2.1,0.9-3.5c-0.1-0.4-0.8-0.2-0.7,0.2
				c0.3,2.2-1.4,2.9-2,4.7c-0.5,1.5-0.6,3.2-0.7,4.7C159.7,141.9,159.9,142,160,141.8L160,141.8z"/>
		</g>
		<g>
			<path class="st0" d="M163.2,132.7c0.9-1.1,2.1-1.9,3-3c0.9-1.1,1.3-2.6,1.9-3.9c1-2.2,2.6-3.7,3.9-5.7c0.5-0.9,0.6-0.5,0.5-1.5
				c0-0.4-0.6-0.3-0.7,0c-0.3,1.2-2,2.6-2.7,3.6c-0.8,1.2-1.5,2.4-2,3.7c-0.8,1.8-1.3,3.2-2.7,4.6c-0.7,0.7-1.2,1.2-1.6,2.1
				C162.7,132.7,163,132.9,163.2,132.7L163.2,132.7z"/>
		</g>
		<g>
			<path class="st0" d="M170.8,117.9c4.4,2.4,10.3-3.8,12.8-6.8c0.4-0.4-0.3-0.9-0.7-0.5c-2.4,2.6-8,8.7-12,7
				C170.8,117.6,170.7,117.8,170.8,117.9L170.8,117.9z"/>
		</g>
		<g>
			<path class="st0" d="M181.1,110.6c6.7,0.4,14.6,0,17.7-7c0.2-0.6-0.6-0.9-0.9-0.3c-2.9,6.6-10.6,6.9-16.8,7.2
				C181,110.4,181,110.6,181.1,110.6L181.1,110.6z"/>
		</g>
		<g>
			<path class="st0" d="M163.2,133.7c1.1,4.8,0.7,9.6,1.4,14.4c0.5,3.9,2,7.5,4.1,10.8c1.5,2.5,2.8,4.5,3.1,7.5
				c0.3,2.9,0.1,5.8,0,8.7c-0.1,5.1-0.6,10.2-1,15.4c0,0.4,0.5,0.4,0.6,0.1c0.8-5.3,1.1-10.7,1.4-16c0.2-4.2,0.9-9-1-13
				c-2.3-4.7-5.3-8.3-6-13.7c-0.7-4.9-0.3-9.7-2.1-14.4C163.5,133.4,163.2,133.5,163.2,133.7L163.2,133.7z"/>
		</g>
		<g>
			<path class="st0" d="M56.2,267c5.9-5.8,11.3-12,16.8-18.2c6.2-6.9,12.7-13.9,18-21.5c2.9-4.1,5.4-8.6,7.8-13
				c2.9-5.2,5.4-12,9.9-16c1.5-1.3,2.8-2,3.9-3.6c1.3-1.9,2.3-4,2.9-6.2c1.2-4.7,0.8-9.6,0.7-14.4c-0.1-7,1.7-13.6,1.8-20.5
				c0.1-3.5-0.8-6.8,0.2-10.3c0.7-2.4,1.4-4.2,0.9-6.7c-0.1-0.3-0.5-0.2-0.5,0.1c0.5,2.9-1,5.4-1.5,8.2c-0.4,2.1,0,4.2,0.1,6.3
				c0.4,6-1.2,11.8-1.6,17.7c-0.4,5.6,0.6,11.3-0.2,16.8c-0.4,2.8-1.3,5.5-2.8,7.9c-1.4,2.2-3.4,3.3-5.2,5.1
				c-3.4,3.4-5.5,8.3-7.8,12.5c-2.7,4.8-5.3,9.7-8.3,14.3c-4.8,7.3-10.9,13.8-16.6,20.3c-6.2,7-12.9,13.8-18.7,21.2
				C56,267,56.1,267.1,56.2,267L56.2,267z"/>
		</g>
		<g>
			<path class="st0" d="M118.5,259.8c4.7-4.5,7.7-10.2,10.7-15.9c3.9-7.3,8.8-13.3,14.4-19.3c2.5-2.7,5.1-5.3,7-8.5
				c2.3-3.8,4.8-6.8,7.9-9.9c2.6-2.7,5-5.1,8.2-7.1c2.3-1.5,4.2-3.1,4.9-6c0.1-0.5-0.8-0.8-0.9-0.2c-1.3,4.1-5.5,5.4-8.5,8
				c-2.6,2.3-4.9,4.9-7.3,7.3c-2.5,2.5-3.8,5.3-5.7,8.2c-2,3.1-4.7,5.8-7.2,8.5c-4.8,5.2-9.1,10.5-12.5,16.8
				C126.1,248,123.3,254.5,118.5,259.8C118.3,259.8,118.4,259.9,118.5,259.8L118.5,259.8z"/>
		</g>
		<g>
			<path class="st0" d="M201.3,92.5c-1.1-0.2-2.3-0.2-3.5-0.3c-0.6,0-1.6-0.3-2.2,0.1c-0.1,0-0.1,0.1-0.1,0.2c0,0,0,0,0,0.1
				s0.1,0.1,0.1,0.1s0,0,0.1,0s0.1-0.1,0.1-0.2c0,0.2,0.1,0.3,0.4,0.2c0.3,0,0.5,0,0.8,0c0.5,0,1,0,1.4,0c0.9,0,1.8,0.1,2.7,0.1
				C201.5,92.8,201.5,92.5,201.3,92.5L201.3,92.5z"/>
		</g>
		<g>
			<path class="st0" d="M195.7,92.5c-1.9,2.5-2.9,5.5-0.4,8.1c2,2,5.5,3.4,8.3,2.6c0.2-0.1,0.1-0.4-0.1-0.4
				c-2.5-0.4-4.8-0.5-6.9-2.2c-2.8-2.3-2.2-5.1-0.8-8C195.9,92.4,195.8,92.4,195.7,92.5L195.7,92.5z"/>
		</g>
		<g>
			<path class="st0" d="M202.1,103c2-0.2,4.6,1.9,6.4,2.5c1.5,0.5,3.1,0.7,4.6,0.5c0.4-0.1,0.4-0.6,0-0.7c-2.4-0.2-4.5-0.5-6.8-1.5
				c-1.6-0.7-2.5-1.4-4.3-1C202,102.9,202,103,202.1,103L202.1,103z"/>
		</g>
		<g>
			<path class="st0" d="M212.7,105.8c2.1,1.7,4.7,3.4,7.3,4.1c1.8,0.5,3.7,0.8,5.4,1.5s3.3,1.5,5,2.1c0.3,0.1,0.6-0.3,0.3-0.5
				c-2.4-1.4-5.2-2.7-7.9-3.4c-1.7-0.4-3.3-0.6-5-1.4s-3.3-1.8-5.1-2.5C212.7,105.5,212.6,105.7,212.7,105.8L212.7,105.8z"/>
		</g>
		<g>
			<path class="st0" d="M230.3,113.3c2.3,2.5,5.1,4.4,7.8,6.4c1.7,1.2,3.9,3.7,6.2,3.3c0.3-0.1,0.4-0.6,0-0.6
				c-2.5-0.2-5.4-3.2-7.4-4.6c-2.1-1.6-4.1-3.3-6.4-4.7C230.4,113,230.2,113.2,230.3,113.3L230.3,113.3z"/>
		</g>
		<g>
			<path class="st0" d="M202.1,92c-1.7,3.1-1.1,9.1,2.9,10.2c0.2,0.1,0.5-0.3,0.2-0.4c-3.3-2-3.7-6.3-2.9-9.7
				C202.4,91.9,202.2,91.9,202.1,92L202.1,92z"/>
		</g>
		<g>
			<path class="st0" d="M206.3,102.3c1.3,0.8,2.6,1.9,4.1,2.4c2.1,0.7,4.3,0.6,6.4,1.2c4.1,1.1,7.6,2.6,11.9,1.4
				c0.2-0.1,0.1-0.4-0.1-0.4c-2.5,0-4.7,0.1-7.1-0.4c-1.7-0.4-3.3-1.2-5.1-1.5c-1.6-0.3-3.2-0.3-4.8-0.6
				C209.7,104,208.2,102.9,206.3,102.3C206.3,102.2,206.2,102.3,206.3,102.3L206.3,102.3z"/>
		</g>
		<g>
			<path class="st0" d="M211.9,93.6c-2.5,0.2-7.6,0.9-9.2-1.7c-0.1-0.1-0.2,0-0.2,0.1c-0.2,1.3,1.6,1.8,2.6,2
				c2.3,0.5,4.6,0.1,6.8-0.2C212,93.7,212,93.6,211.9,93.6L211.9,93.6z"/>
		</g>
		<g>
			<path class="st0" d="M202.2,92.1c1.7-0.6,4.2,0.1,6,0.3c1.8,0.2,3.5,0.6,5.3,1.1c0.3,0.1,0.5-0.4,0.2-0.5c-2-0.8-4.1-1.1-6.2-1.3
				C205.8,91.5,203.8,91.2,202.2,92.1C202.1,92,202.2,92.1,202.2,92.1L202.2,92.1z"/>
		</g>
		<g>
			<path class="st0" d="M222.4,94.9c1.8-0.3,4.8,0.9,6.5,1.6c1.4,0.6,2.6,1.7,4.1,2.2c0.1-0.2,0.1-0.4,0.2-0.6
				c-0.8,0-1.5,0.1-2.3,0.1c-0.2,0-0.2,0.4,0,0.4c0.7,0.1,1.5,0.1,2.2,0.1c0.3,0,0.5-0.5,0.2-0.6c-2-0.6-3.7-2.1-5.7-2.7
				c-1.5-0.5-3.6-1.5-5.1-0.7C222.2,94.7,222.2,94.9,222.4,94.9L222.4,94.9z"/>
		</g>
		<g>
			<path class="st0" d="M222,94.7c-2.7,2.9-4,6.5-0.2,8.9c2.5,1.6,5.4,2.5,7.9,4.3c2.7,1.9,5.5,3.7,8.6,4.9c0.3,0.1,0.5-0.3,0.2-0.5
				c-4.1-2.1-7.8-5.1-11.9-7.2c-1.7-0.8-5.3-1.7-6-3.6c-0.9-2.1,0.6-4.9,1.6-6.7C222.2,94.7,222,94.6,222,94.7L222,94.7z"/>
		</g>
		<g>
			<path class="st0" d="M238.2,112.1c1,2.7,2.6,4.3,4.5,6.4c1.4,1.5,2.7,3.3,4.7,3.8c0.3,0.1,0.6-0.5,0.3-0.6
				c-3.8-2.3-6.9-5.9-9.2-9.7C238.3,111.8,238.1,111.9,238.2,112.1L238.2,112.1z"/>
		</g>
		<g>
			<path class="st0" d="M247.5,121.6c0.8,4.3,3.6,8.8,7.2,11.4c0.4,0.3,0.9-0.3,0.5-0.7c-1.7-1.5-3.1-3-4.4-4.9
				c-1.2-1.9-2-4-3.1-5.9C247.7,121.4,247.5,121.5,247.5,121.6L247.5,121.6z"/>
		</g>
		<g>
			<path class="st0" d="M254.8,133c-1.6,5,0.7,11.8,4.5,15.3c0.3,0.3,0.8-0.2,0.5-0.5c-1.6-2.3-3.1-4.5-4-7.3
				c-0.7-2.5-0.7-4.9-0.9-7.4C254.9,132.9,254.8,132.9,254.8,133L254.8,133z"/>
		</g>
		<g>
			<path class="st0" d="M232.4,98.2c1.1,0.9,2.3,1.2,3.7,1.6c2,0.6,3.3,1.3,4.9,2.5c1.7,1.2,3.3,2.9,5.1,4c0.2,0.2,0.5-0.1,0.4-0.4
				c-1.4-1.8-3-3-4.9-4.3c-1.2-0.8-2.3-1.7-3.8-2.2c-1.7-0.6-3.5-0.9-5.2-1.6C232.4,97.8,232.3,98,232.4,98.2L232.4,98.2z"/>
		</g>
		<g>
			<path class="st0" d="M245,104.9c1.8,2.3,4.2,4,6.6,5.7c2.9,2,5.1,4.3,7.5,6.7c0.2,0.2,0.6,0,0.5-0.3c-1.1-2.6-3.9-4.6-6.1-6.2
				C250.6,108.8,247.7,107,245,104.9C245,104.8,244.9,104.9,245,104.9L245,104.9z"/>
		</g>
		<g>
			<path class="st0" d="M259.2,117.2c1.1,1.5,2.4,2.3,3.9,3.5c2.2,1.7,3.7,4,5.6,6c1.4,1.5,3.2,2.6,4.7,4.1c2.2,2.3,3.3,5.7,4.2,8.7
				c0.1,0.3,0.6,0.2,0.6-0.1c-0.6-2.5-1.4-5-2.7-7.2c-1.2-2-2.8-3-4.6-4.5c-2.1-1.8-3.7-4.1-5.6-6.1c-1.8-1.8-4-2.9-5.9-4.5
				C259.3,117,259.1,117.1,259.2,117.2L259.2,117.2z"/>
		</g>
		<g>
			<path class="st0" d="M234.4,98.7c6.5,1.6,11.5,3.3,16.4,7.9c3.2,2.9,7.1,4.5,10.4,7.2c3.7,3,6.2,7.2,9.9,10.3
				c2,1.7,4.3,3.2,6.2,5c3,2.8,3.1,6.4,2.7,10.3c0,0.4,0.5,0.4,0.6,0.1c0.7-5.1,0.2-8.7-4-12.1c-2.6-2.1-5.2-4.1-7.6-6.4
				c-2.1-2.1-3.7-4.5-5.8-6.6c-2-2-4.5-3.3-6.9-4.7c-2.5-1.5-4.5-3.1-6.7-5C245.4,100.8,239.9,99.5,234.4,98.7
				C234.3,98.6,234.3,98.7,234.4,98.7L234.4,98.7z"/>
		</g>
		<g>
			<path class="st0" d="M198.2,104.6c0.7,1.7,2.7,2.4,4.2,3.2c2.4,1.2,5,2.1,7.7,2.5c0.4,0.1,0.6-0.6,0.2-0.7c-2-0.6-4-1.1-6-1.8
				c-1.9-0.7-4.6-1.5-5.9-3.2C198.3,104.3,198.1,104.4,198.2,104.6L198.2,104.6z"/>
		</g>
		<g>
			<path class="st0" d="M209.7,109.8c3.3,5.1,11.9,4.7,14.7,10.1c0.2,0.4,0.8,0.2,0.6-0.3c-0.9-2.3-3-3.4-5.2-4.4
				c-3.5-1.7-6.7-3.7-10-5.7C209.8,109.5,209.7,109.7,209.7,109.8L209.7,109.8z"/>
		</g>
		<g>
			<path class="st0" d="M223.9,118.6c0.2,2.6,3,3.8,4.8,5.3c1.4,1.2,1.8,3,3,4.3c1.4,1.5,3.3,2,4.7,3.4c0.2,0.2,0.8,0,0.6-0.3
				c-0.7-1.1-1.6-1.6-2.7-2.4c-1.9-1.2-2.6-2.9-3.8-4.6c-1.7-2.4-5-3-6.3-5.8C224.1,118.4,223.9,118.4,223.9,118.6L223.9,118.6z"/>
		</g>
		<g>
			<path class="st0" d="M236.3,131.6c-0.1,1.8,0.6,3.4,1.5,5c0.4,0.7,0.8,1.4,1.3,2.1s1.3,1.1,1.9,1.6c0.4,0.3,0.9-0.2,0.6-0.6
				c-0.4-0.4-0.8-0.7-1.2-1c-0.6-0.5-1.1-1.3-1.5-2c-1-1.6-1.9-3.2-2.3-5C236.5,131.5,236.3,131.4,236.3,131.6L236.3,131.6z"/>
		</g>
		<g>
			<path class="st0" d="M237.3,136.1c-0.9,2.9-0.2,5.8-1.1,8.8c-0.9,2.9-2,5.8-2.9,8.8c-0.6,2.1-1.5,4.3-1.5,6.5
				c0,0.7,0.1,1.4,0.2,2.1c-0.1,1.2-0.3,2.3-0.8,3.4c-0.1,1.1-0.2,0.9,0,1.9c0.1,0.4,0.6,0.3,0.6-0.1c-0.1-1.8,1-3.5,1.1-5.4
				c0.1-2.4,0-4.1,0.6-6.4c0.4-1.4,0.8-2.8,1.3-4.2c0.8-2.5,1.8-5,2.4-7.5c0.7-2.8-0.1-5.1,0.2-8C237.5,136.1,237.3,136,237.3,136.1
				L237.3,136.1z"/>
		</g>
		<g>
			<path class="st0" d="M241.8,144c0.1,3-2.6,4.2-3.2,6.8c-0.3,1.3,0.1,2.1,0.4,3.3c0.3,1.2,0.3,2.4,0.8,3.6c0.9,2,2.8,3.9,4.3,5.5
				c0.2,0.2,0.5,0,0.3-0.2c-2.3-2.8-4.5-5.2-4.5-9c0-1.5,0.2-3.8,0.8-5.1c0.2-0.5,0.7-1,0.9-1.5c0.5-1.1,0.6-2,0.5-3.3
				C242,143.8,241.8,143.9,241.8,144L241.8,144z"/>
		</g>
		<g>
			<path class="st0" d="M241.4,140.1c-0.2,1.5-0.2,3.2,1.3,3.9c0.9,0.4,2,0.5,3,0.7c1.8,0.3,3.1,1,4.7,2c0.3,0.2,0.6-0.2,0.3-0.4
				c-1.3-1-2.5-1.8-4-2.2c-0.9-0.2-1.8-0.2-2.6-0.4c-1.8-0.4-2.3-1.8-2.4-3.5C241.6,140,241.4,140,241.4,140.1L241.4,140.1z"/>
		</g>
		<g>
			<path class="st0" d="M259.2,156c0.1,2.2,0.6,4.2,0.2,6.5c-0.4,2.5-1.5,4.9-2.3,7.3c-1.3,3.9-2.8,7.6-2.9,11.7
				c-0.1,3.1,0.1,6.1,1.4,8.9c1.5,3.1,3.9,5.9,5.9,8.8c0.2,0.3,0.7,0,0.5-0.3c-1.7-3.1-4.2-5.6-5.6-8.8c-1.9-4.1-1.7-9.2-0.6-13.5
				c1.1-4,2.8-7.8,3.9-11.7c1-3.4,0.3-5.7-0.1-9C259.5,155.7,259.2,155.7,259.2,156L259.2,156z"/>
		</g>
		<g>
			<path class="st0" d="M280.6,141.3c-0.3,0.5-0.5,0.8-0.5,1.5c-0.1,0.8,0.2,1,0.4,1.8c0.4,1.5,0.5,2.7,0.5,4.4
				c0,3.4,1.1,6.2,2.2,9.3c1.5,4.2,1,8.3,2,12.5c0.9,3.9,2.9,7.6,3.9,11.5c0.1,0.5,0.9,0.2,0.8-0.3c-1-3.5-2.6-6.7-3.6-10.2
				s-0.4-7-1.3-10.5c-0.8-3.4-2.6-6.6-3.1-10.1c-0.2-1.6,0.1-3.2-0.1-4.7c-0.2-1.6-1.6-3.3-1-5C280.9,141.3,280.7,141.2,280.6,141.3
				L280.6,141.3z"/>
		</g>
		<g>
			<path class="st0" d="M255.9,206.2c5.8,9.5,13.3,17.7,19.7,26.7c3.2,4.6,5.8,9.6,9.4,13.9c3.7,4.5,4.7,10.6,6.3,16.1
				c0.2,0.7,1.3,0.3,1.1-0.4c-1.5-5.1-2.4-11.3-5.8-15.5c-3.6-4.5-6.5-9.5-9.8-14.3c-3.4-4.9-7.2-9.5-11-14.1
				c-3.3-4.1-6-8.9-9.8-12.6C255.9,205.9,255.8,206.1,255.9,206.2L255.9,206.2z"/>
		</g>
		<g>
			<path class="st0" d="M289.9,184.8c2.5,6.6,9.9,9.5,12.9,15.8c1.6,3.4,2.3,6.6,4.6,9.7c2.6,3.4,5.5,6.4,8,9.9
				c2.4,3.5,4,7.7,6.8,10.9c2.4,2.7,5.4,5,8.1,7.4c4.4,3.8,8.6,7.7,12.7,11.9c0.5,0.5,1.3-0.2,0.8-0.7c-3.8-3.9-7.7-7.6-11.8-11
				c-2.8-2.4-5.7-4.7-8.2-7.3c-3.1-3.2-4.8-7.5-7.3-11.2c-2.3-3.4-5.1-6.4-7.6-9.6c-2.8-3.5-3.6-7.3-5.6-11.1
				c-3.1-5.9-9.4-9.3-13.1-14.7C290,184.6,289.9,184.7,289.9,184.8L289.9,184.8z"/>
		</g>
		<g>
			<path class="st0" d="M173.9,170.1c0.4,0.7,0.7,1.2,1.4,1.6c1.2,0.7,1.9,1.5,2.5,2.7c1,2,1.7,4.2,2.9,6.1c0.3,0.5,0.9-0.1,0.7-0.5
				c-1.2-2.1-2-4.4-3.3-6.5C176.9,171.8,175.2,171.7,173.9,170.1C173.9,170,173.8,170.1,173.9,170.1L173.9,170.1z"/>
		</g>
		<g>
			<path class="st0" d="M178.4,169.5c1.4,4,1.1,8.3,2.8,12.2c1.4,3.3,3.6,7.5,6.3,9.9c5.5,4.8,14.7,4.9,21.5,4.5
				c6-0.3,12.1-6.1,14.7-11.2c1.8-3.5,2.1-7,2.8-10.8c0.7-3.9,3-7.4,2.8-11.4c0-0.2-0.4-0.2-0.4,0c0.1,3.6-1.9,6.7-2.7,10.2
				c-0.8,3.3-0.8,6.8-2.2,9.8c-2.7,6-9.6,12.3-16.4,12.4c-7.1,0.1-16.9-0.1-21.4-6.6c-2.1-2.9-4.1-6.1-5.2-9.5
				C180.1,175.9,179.8,172.6,178.4,169.5L178.4,169.5L178.4,169.5z"/>
		</g>
		<g>
			<path class="st0" d="M224.7,181.8c1.8-1.2,2.4-3.4,3.5-5.2c1.3-2,3.2-3.6,4.5-5.6c0.3-0.4-0.3-0.7-0.6-0.4
				c-1.5,1.6-3.2,3.3-4.4,5.2s-1.8,4-3.2,5.8C224.5,181.7,224.6,181.9,224.7,181.8L224.7,181.8z"/>
		</g>
		<g>
			<path class="st0" d="M182,137.1c2.2-3.1,2.6-7.1,5-10.1c3.3-4.1,7-7.1,12.4-7.6c5-0.4,11.6-1.1,15.7,2.5c3.5,3,5.6,7.7,7.6,11.8
				c0.1,0.2,0.4,0.1,0.3-0.1c-1.4-4.3-4-9.3-7.5-12.2c-3.9-3.2-9.4-2.9-14.2-2.7c-5.8,0.3-9,1.8-13.1,5.8c-1.4,1.4-2.7,2.8-3.6,4.6
				c-1.2,2.5-1.5,5.3-2.8,7.8C181.7,137.1,181.9,137.2,182,137.1L182,137.1z"/>
		</g>
		<g>
			<path class="st0" d="M182,137.5c5.1,4.7,4.4,12.5,9.1,17.6c3.6,3.9,8.8,5.8,14,5.5c5.5-0.3,9-2.1,11.5-7c3-5.9,5.7-12.6,6.4-19.2
				c0-0.1-0.2-0.2-0.2,0c-0.7,5.8-3.7,11.5-5.8,16.8c-1.3,3.1-2.5,6.2-5.8,7.6c-2.9,1.2-6.5,1.4-9.6,0.9c-6.3-1-11-5.1-13.2-11.1
				c-1.6-4.2-2.5-8.4-6-11.4C182.1,137,181.8,137.3,182,137.5L182,137.5z"/>
		</g>
		<g>
			<path class="st0" d="M180.6,136.3c1.6-4.8,1.8-10,3.7-14.8c1.4-3.6,3.8-5.2,7.3-6.4c2.9-1,5.8-1.6,8.8-2
				c6.8-0.8,13.3-0.5,18.2,4.9c3.8,4.1,4.7,10.4,6.1,15.6c0.1,0.2,0.3,0.1,0.3-0.1c-1.7-6.2-2.5-12.5-7.3-17.1
				c-4.4-4.2-10.5-4.4-16.2-3.9c-4.7,0.4-12.7,1.2-16,5c-4.1,4.8-3.6,13-5.1,18.8C180.4,136.3,180.6,136.4,180.6,136.3L180.6,136.3z
				"/>
		</g>
		<g>
			<path class="st0" d="M181.4,138.8c1.9,4.4,3.3,8.6,3.7,13.5c0.3,3.5,0.6,7.3,2.6,10.3c1.8,2.7,4.6,3.7,7.7,4.2
				c3.8,0.6,7.8,1.4,11.7,1.2c7.3-0.4,10.6-5.4,12.3-12.1c1.8-6.7,3.5-13.4,5.5-20.1c0.1-0.3-0.4-0.5-0.5-0.2
				c-2,5.6-3.4,11.5-4.9,17.2c-1.7,6.7-3.9,13.7-11.9,14.4c-3.7,0.3-7.4-0.4-11-0.9c-5.4-0.8-9.1-3.2-10.2-8.9
				c-1.3-6.7-0.6-13-4.7-18.8C181.6,138.6,181.4,138.7,181.4,138.8L181.4,138.8z"/>
		</g>
		<g>
			<path class="st0" d="M190.1,123.8c1,1.1,2.7,1.3,3.9,0.5c0.3-0.2,0-0.6-0.3-0.5C192.5,124.2,191.4,124.2,190.1,123.8
				C190.1,123.6,190,123.7,190.1,123.8L190.1,123.8z"/>
		</g>
		<g>
			<path class="st0" d="M194.6,121.9c0.3,0.6,0,1.3,0.4,1.9c0.3,0.4,0.8,0.5,1.3,0.7c1.8,0.5,3.8,0.4,5.4-0.5
				c0.3-0.2,0.1-0.7-0.2-0.6c-1.5,0.6-3,0.8-4.6,0.6c-0.9-0.1-1.4-0.4-1.7-1.2c-0.1-0.4-0.1-0.6-0.3-0.9
				C194.7,121.8,194.6,121.8,194.6,121.9L194.6,121.9z"/>
		</g>
		<g>
			<path class="st0" d="M202.1,123.3c1.4,1,3.1,1.1,4.8,0.9c1.4-0.1,1.9-0.7,1.7-2.1c0-0.1-0.2-0.1-0.2,0c-0.3,1.5-1.6,1.5-2.8,1.5
				c-1.1,0-2.3,0-3.3-0.4C202.1,123.2,202,123.3,202.1,123.3L202.1,123.3z"/>
		</g>
		<g>
			<path class="st0" d="M208.4,123.3c1.1,0.5,4.4,1.5,4.9-0.3c0.1-0.2-0.2-0.4-0.3-0.2c-0.9,1.3-3.2,0.6-4.5,0.3
				C208.3,123.1,208.3,123.3,208.4,123.3L208.4,123.3z"/>
		</g>
		<g>
			<path class="st0" d="M212.6,124.1c0.7,1.3,2.5,2.1,3.9,1.3c0.3-0.2,0-0.5-0.3-0.4c-1.3,0.4-2.6,0.2-3.4-1
				C212.7,123.8,212.5,123.9,212.6,124.1L212.6,124.1z"/>
		</g>
		<g>
			<path class="st0" d="M190.5,140.5c4.4-1.5,8-1.8,12.5-0.7c0.5,0.1,0.7-0.7,0.2-0.9c-4.1-1.2-9.2-0.8-12.9,1.3
				C190.2,140.3,190.3,140.5,190.5,140.5L190.5,140.5z"/>
		</g>
		<g>
			<path class="st0" d="M203.3,140.1c2.2-0.4,4-1.1,6.4-1c2.1,0.1,4.2,0.3,6.4,0.6c0.1,0,0.1-0.2,0-0.2c-3.4-0.7-10.5-3.6-13.1,0.1
				C202.7,139.8,202.9,140.1,203.3,140.1L203.3,140.1z"/>
		</g>
		<g>
			<path class="st0" d="M171,104.9c2.2,0.3,4.5,0.1,6.6-0.9c0.9-0.4,2.8-1.2,2.4-2.5c-0.1-0.2-0.4-0.1-0.3,0.1
				c0.2,1.4-3.2,2.3-4.1,2.6c-1.5,0.4-3,0.5-4.5,0.4C170.8,104.6,170.8,104.9,171,104.9L171,104.9z"/>
		</g>
		<g>
			<path class="st0" d="M170.8,104.8c1.2-0.7,2.5-1.3,3.8-1.8c1.4-0.6,3.3-1.8,4.9-1.5c0.2,0,0.3-0.3,0.2-0.4
				c-1.3-0.8-2.6,0.1-3.9,0.7c-1.7,0.8-3.5,1.7-5,2.8C170.6,104.7,170.7,104.8,170.8,104.8L170.8,104.8z"/>
		</g>
		<g>
			<path class="st0" d="M180.5,97.3c2.1-0.2,8.3,1,9.2-1.8c0.1-0.2-0.2-0.3-0.3-0.2c-1.5,2.4-6.6,1.3-9,1.7
				C180.4,97.1,180.4,97.3,180.5,97.3L180.5,97.3z"/>
		</g>
		<g>
			<path class="st0" d="M179.9,96.9c1.5-0.4,3.1-0.8,4.7-1.1c1-0.2,4.1-1.1,4.9-0.3c0.1,0.1,0.2,0,0.2-0.1c-0.4-1-2.2-0.6-3.1-0.5
				c-2.4,0.1-4.6,0.7-6.7,1.8C179.7,96.8,179.8,96.9,179.9,96.9L179.9,96.9z"/>
		</g>
		<g>
			<path class="st0" d="M188.7,95.1c0.6,0.5,1.3,0.9,2,1.3c0.7,0.5,1.7,1,1.9,2c0.1,0.4,0.5,0.3,0.6,0c0.2-0.9-0.9-1.6-1.6-2
				c-0.9-0.6-1.8-1.1-2.8-1.5C188.6,94.9,188.6,95,188.7,95.1L188.7,95.1z"/>
		</g>
		<g>
			<path class="st0" d="M152.9,104.1c-4.6,0.4-7.8,2.3-10.7,5.9c-3.2,4-6.9,7.9-9.3,12.4c-0.1,0.2,0.2,0.3,0.3,0.2
				c2.2-3.7,4.9-6.8,7.7-10C144.4,108.6,147.3,105,152.9,104.1C153,104.2,152.9,104.1,152.9,104.1L152.9,104.1z"/>
		</g>
		<g>
			<path class="st0" d="M119.5,135.4c3-5.1,8.9-8.2,13.2-12.2c0.2-0.2,0-0.4-0.2-0.3c-2.9,2.6-5.8,4.9-8.9,7.2
				C121.8,131.4,119.9,133,119.5,135.4C119.4,135.4,119.5,135.4,119.5,135.4L119.5,135.4z"/>
		</g>
		<g>
			<path class="st0" d="M124.2,133.9c3.5-3.8,7.9-6.3,12.1-9.4c3.4-2.5,6.1-5.7,9.2-8.6c0.1-0.1,0-0.3-0.2-0.2
				c-3.5,2.8-6.7,6.1-10.3,8.9C131.2,127.5,127.3,130.3,124.2,133.9C124.1,133.9,124.2,134,124.2,133.9L124.2,133.9z"/>
		</g>
		<g>
			<path class="st0" d="M221.9,94.8c0.8,1.8,0.6,1.7,2.5,2.5c2.3,0.9,5.1,1.3,7.6,1.1c0.1,0,0.1-0.2,0-0.2c-2.7-0.2-5.2-0.6-7.7-1.7
				c-0.7-0.3-1.2-0.6-1.7-1.2c-0.4-0.4-0.1-0.5-0.6-0.8C222,94.6,221.9,94.7,221.9,94.8L221.9,94.8z"/>
		</g>
		<g>
			<path class="st0" d="M213.4,93.3c2.2,1.3,5,1.8,7.5,1.8c0.2,0,0.2-0.3,0-0.3c-2.5-0.6-5-1.4-7.5-1.7
				C213.4,93.1,213.3,93.2,213.4,93.3L213.4,93.3z"/>
		</g>
		<g>
			<path class="st0" d="M137.1,153.8c-0.3,4.8,2.7,8.9,4.5,13.1c3,6.9,3.8,14.4,3.3,21.8c0,0.5,0.7,0.6,0.8,0.1
				c0.7-6.2,0.1-12.5-1.8-18.4C142,164.9,137.4,159.7,137.1,153.8L137.1,153.8L137.1,153.8z"/>
		</g>
		<g>
			<path class="st0" d="M232.1,169.1c1.7,6.9,3.4,14.7,7.4,20.7c3.8,5.9,10,10.7,15.3,15.2c0.2,0.2,0.5-0.1,0.3-0.3
				c-4-5.5-10.4-8.8-14.3-14.4c-4.3-6.1-5.7-14.3-8.4-21.2C232.2,169,232,169,232.1,169.1L232.1,169.1z"/>
		</g>
	</g>
	<g>
		<path class="st0" d="M119.5,137.7c0-0.6,0-1.1,0.2-1.6s0.2-1.1,0.4-1.5c0.4-0.9,1.5-1.3,1.7-2.2c0-0.2-0.2-0.3-0.3-0.3
			c-1,0.5-2,1.5-2.3,2.6c-0.3,1-1,2.4,0,3.2C119.3,137.9,119.5,137.8,119.5,137.7L119.5,137.7z"/>
	</g>
	<g>
		<path class="st0" d="M132,123.7c0.8-0.4,1.8-1.1,1.8-2.2c0-0.2-0.3-0.2-0.3,0c-0.1,0.4-0.4,0.7-0.7,1s-0.6,0.7-0.8,1
			C131.9,123.6,131.9,123.7,132,123.7L132,123.7z"/>
	</g>
	<g>
		<path class="st0" d="M147.3,106.1c4.1-1.2,8.3-2.4,12.5-3.3c0.3-0.1,0.2-0.5-0.1-0.5c-4.2,0.6-8.9,1.4-12.5,3.6
			C147.1,106.1,147.2,106.2,147.3,106.1L147.3,106.1z"/>
	</g>
	<g>
		<path class="st0" d="M199.8,92.8c0.4,0,0.8,0.1,1.2,0.1s0.7,0.1,1,0c0.2-0.1,0.2-0.4,0-0.5c-0.3-0.1-0.7,0-1,0
			c-0.4,0-0.8,0.1-1.2,0.1C199.7,92.6,199.7,92.8,199.8,92.8L199.8,92.8z"/>
	</g>
	<g>
		<path class="st0" d="M204,101.5c0.3,0.7,1.1,0.8,1.8,1c1.1,0.4,2.1,1,3.1,1.6c0.4,0.2,0.7-0.2,0.4-0.5c-0.7-0.6-1.5-1.1-2.4-1.5
			c-0.9-0.3-1.8-0.5-2.6-0.9C204,101.3,203.9,101.4,204,101.5L204,101.5z"/>
	</g>
	<g>
		<path class="st0" d="M192.8,99.1c0.3-0.2,0.4-0.6,0.6-0.8c0.1-0.1,0.2-0.2,0.4-0.3c0.2-0.1,0.4-0.1,0.5-0.1c0.4-0.1,0.3-0.6,0-0.8
			c-0.5-0.2-1.1,0.1-1.4,0.5c-0.3,0.4-0.5,0.9-0.4,1.4C192.6,99.1,192.7,99.2,192.8,99.1L192.8,99.1z"/>
	</g>
	<g>
		<path class="st0" d="M198,104.2c0.4-0.4,0.8-0.9,1.1-1.3c-0.2,0-0.3,0.1-0.5,0.1l-0.1-0.1l0,0l-0.1,0.2c-0.1,0.2-0.2,0.3-0.2,0.5
			c0,0.5,0.7,0.7,0.8,0.2c0.1-0.3,0.4-0.6,0.3-1c0-0.3-0.2-0.6-0.5-0.8c-0.2-0.1-0.5,0-0.6,0.2c-0.3,0.5-0.5,1-0.6,1.6
			C197.7,104.1,197.9,104.2,198,104.2L198,104.2z"/>
	</g>
	<g>
		<path class="st0" d="M280.4,138.4c-0.6,0.9-0.6,2.1-0.6,3.2c0,1.1,0.2,2.5,0.6,3.4c0.1,0.3,0.5,0.3,0.6,0c0.3-1.1-0.1-2-0.2-3
			c-0.1-1.2,0.3-2.4-0.3-3.5C280.6,138.3,280.5,138.3,280.4,138.4L280.4,138.4z"/>
	</g>
	<g>
		<path class="st0" d="M171.4,186c-0.8,1.4-0.7,3.1-0.8,4.7c-0.1,1.2,0,2.7-0.6,3.8c-0.3,0.5-0.7,1-1,1.5c-0.3,0.6,0.6,1.1,1,0.5
			c0.4-0.7,1.1-1.2,1.4-1.9c0.4-0.8,0.3-1.8,0.3-2.6C171.8,190.1,172.3,187.8,171.4,186C171.5,186,171.4,185.9,171.4,186L171.4,186z
			"/>
	</g>
	<g>
		<path class="st0" d="M231.3,165.8c-1.3,1.7,0.2,4.5,0.8,6.3c1.1,3.3,2.7,6.3,3.6,9.7c0.2,0.6,0.9,0.2,0.9-0.2
			c-0.1-2.5-1.2-4.9-2.2-7.2s-2.6-5.7-2.5-8.2C232,165.7,231.5,165.5,231.3,165.8L231.3,165.8z"/>
	</g>
	<g>
		<path class="st0" d="M252.8,203.1c0.6,1.3,1.7,2.4,2.6,3.6c0.9,1.2,1.9,2.8,3.1,3.7c0.4,0.3,1-0.2,0.8-0.6
			c-0.7-1.6-2.2-3.1-3.3-4.5c-0.7-0.9-1.6-2.6-3-2.5C252.9,202.8,252.8,202.9,252.8,203.1L252.8,203.1z"/>
	</g>
	<g>
		<path class="st0" d="M289.1,180.6c-0.3,1.7,0.4,4.2,1.1,5.8s2.1,3.1,3.4,4.2c0.5,0.4,1.1-0.3,0.8-0.8c-1-1.6-2.6-2.7-3.3-4.5
			c-0.6-1.6-0.7-3.4-1.8-4.7C289.2,180.4,289.1,180.5,289.1,180.6L289.1,180.6z"/>
	</g>
	<g>
		<path class="st0" d="M138.7,147.1c-0.7,1.8-2.1,3-2.6,4.9c-0.4,1.6-0.1,3.1,0.4,4.6c1.3,3.8,3.3,7.9,5.5,11.3
			c0.3,0.4,0.8,0,0.7-0.4c-0.9-3.4-2.9-6.5-4.2-9.8c-1.3-3.2-1-5.2,0.3-8.3c0.5-1.1,0.4-1.2,0.3-2.4
			C139.1,146.9,138.8,146.8,138.7,147.1L138.7,147.1z"/>
	</g>
	<g>
		<path class="st0" d="M182.4,135.9c-0.3,0.2-0.8,0.7-0.7,1.1c0,0.2,0.2,0.3,0.3,0.4c0.2,0.1,0.3,0.3,0.5,0.4c0.1,0.1,0.4,0,0.4-0.2
			c0-0.4-0.2-0.5-0.5-0.7c-0.1,0-0.2-0.1-0.2-0.1c0-0.1,0-0.1,0-0.2C182.3,136.4,182.3,136.2,182.4,135.9L182.4,135.9L182.4,135.9z"
			/>
	</g>
	<g>
		<path class="st0" d="M222.5,133c-0.1,0.2-0.1,0.3-0.1,0.5c0,0.5,0.2,0.9,0.1,1.4c-0.1,0.4-0.2,0.8-0.3,1.2
			c-0.2,1.1-0.2,2.1-0.6,3.2c-0.1,0.2,0.2,0.4,0.3,0.3c0.9-0.9,0.8-2.5,1.1-3.6c0.3-1,0.6-2.2-0.3-3
			C222.6,132.9,222.5,133,222.5,133L222.5,133z"/>
	</g>
	<g>
		<path class="st1" d="M200.2,304.7v-6.3c0-0.5-0.5-0.7-0.9-0.4l-3.7,3.7c-0.2,0.2-0.2,0.6,0.1,0.8l3.7,2.6
			C199.8,305.3,200.2,305.1,200.2,304.7z"/>
		<path class="st1" d="M213.4,278l-12.3,12.3c-0.3,0.3-0.9,0.1-0.9-0.4v-3.4c0-0.4-0.5-0.7-0.8-0.4l-7.2,5.1l0,0h-3.6
			c-0.3,0-0.5,0.2-0.5,0.5v7.8c0,0.3,0.2,0.5,0.5,0.5h1.5c0.5,0,0.7,0.5,0.4,0.9l-4.9,4.9c-0.2,0.2-0.2,0.5,0,0.7l1.2,1.2
			c0.2,0.2,0.5,0.2,0.7,0l27.8-27.8c0.2-0.2,0.2-0.5,0-0.7l-1.2-1.2C213.9,277.8,213.6,277.8,213.4,278z"/>
		<path class="st1" d="M204.8,292.6l-0.8,0.8c-0.1,0.1-0.2,0.3-0.1,0.5c0.1,0.5,0.2,1.1,0.2,1.7c0,1.5-0.5,2.8-1.2,4
			c-0.1,0.1-0.1,0.2-0.1,0.3v2.7h0.1c2-1.7,3.3-4.2,3.3-7c0-1-0.2-1.9-0.4-2.8C205.5,292.4,205.1,292.3,204.8,292.6z"/>
		<path class="st1" d="M208.7,288.7l-0.8,0.8c-0.2,0.2-0.2,0.4-0.1,0.6c0.9,1.7,1.3,3.5,1.3,5.5c0,3.3-1.3,6.3-3.5,8.5
			c-0.2,0.2-0.2,0.6,0,0.8l0.8,0.6c0.2,0.2,0.5,0.1,0.7-0.1c2.5-2.6,4-6,4-9.8c0-2.4-0.6-4.7-1.7-6.8
			C209.3,288.5,208.9,288.5,208.7,288.7z"/>
		<path class="st1" d="M212.3,285.1l-0.7,0.7c-0.2,0.2-0.2,0.4-0.1,0.6c1.7,2.6,2.6,5.8,2.6,9.1c0,4.5-1.7,8.5-4.5,11.6
			c-0.2,0.2-0.2,0.6,0.1,0.7l0.8,0.6c0.2,0.2,0.5,0.1,0.7-0.1c3.1-3.4,5-7.9,5-12.9c0-3.8-1.1-7.4-3.1-10.4
			C212.9,284.9,212.6,284.8,212.3,285.1z"/>
	</g>
</g>
</svg>
