<?xml version="1.0" encoding="utf-8"?>
<!-- Generator: Adobe Illustrator 19.2.0, SVG Export Plug-In . SVG Version: 6.00 Build 0)  -->
<svg version="1.1" id="Layer_1" xmlns="http://www.w3.org/2000/svg" xmlns:xlink="http://www.w3.org/1999/xlink" x="0px" y="0px"
	 viewBox="0 0 400 400" style="enable-background:new 0 0 400 400;" xml:space="preserve">
<style type="text/css">
	.st0{fill:#D8C800;}
	.st1{fill:#231F20;}
</style>
<g>
	<path class="st0" d="M242.1,255c-8,1-16.6,1.4-24,4.7c-7.3,3.3-11.5,10.9-19,13.7c-7.1,2.6-16.7,1.1-22.1-4.2
		c-2.9-2.8-4.2-6.6-6.2-10c-1.2-1.9-2.4-3.6-4-5c-0.4-0.2-0.7-0.4-1.1-0.5c-0.5-0.2-0.8-0.5-1.1-0.8c-0.7-0.5-1.4-0.8-2.2-1.2
		c-0.1,0-0.1-0.1-0.2-0.1c-1,0.5-1.9,1-2.9,1.5c-3.6,2.3-7.3,4.3-11.1,6.3c-2.6,1.4-5.2,2.9-7.9,4.3c-3.2,1.9-6.3,3.9-9.4,5.9
		c-12.1,7.9-23.9,16.3-36.1,23.9c0.2,0.2-6.6,5.1-6.3,5c1.4-0.5,36.2-9.2,39.3-10c6.1-1.6,12.1-4.1,18.1-6.3c3-1.2,6-2.3,9-3.4
		c1.3-0.5,2.6-1,4-1.3c1.7-0.4,3.4-0.1,5.1-0.6c2.5-0.8,4.1-2.8,6.9-3c3.1-0.3,6.1,0.8,9,1.5c5.9,1.5,11.7,1.9,17.8,1.2
		c5.8-0.7,11.9-1.8,17-4.9c2.3-1.4,4.2-3.2,6.5-4.6c2.4-1.6,5.1-2.5,8-3.1c6-1.3,12-1.3,17.8-3.4c5.9-2.3,11.1-5.7,15.4-10.4
		c1.2-1.3,1.3-2.9,0.6-4.2C258.3,252.9,249.7,254.1,242.1,255z"/>
	<g>
		<g>
			<path class="st1" d="M128,127.4c0.5-1.5,1.4-2.7,2.6-3.7c1.3-1,2.8-1.4,4.1-2.3c0.3-0.2,0.1-0.7-0.3-0.6
				c-2.8,0.8-6.6,3.3-6.7,6.6C127.7,127.6,127.9,127.6,128,127.4L128,127.4z"/>
		</g>
		<g>
			<path class="st1" d="M136.5,116.2c4.6-6.5,10.8-10.5,17.6-14.4c4.1-2.3,8-4,12.8-4.3c4.2-0.4,8.5,0.2,12.7,0.5
				c0.3,0,0.4-0.4,0.1-0.5c-4.4-0.7-9-1.4-13.5-0.9c-4.3,0.5-8.2,2.3-11.9,4.3C147.5,104.7,139.7,108.8,136.5,116.2
				C136.3,116.2,136.4,116.3,136.5,116.2L136.5,116.2z"/>
		</g>
		<g>
			<path class="st1" d="M169.5,96.8c15.5-2.5,31.4-1.4,46.8,1.6c6.9,1.4,13.3,4,19.8,6.6c5.2,2.2,11.4,5.8,17.3,5
				c0.2,0,0.1-0.3,0-0.3c-3.6,0.2-7.3-1.6-10.7-2.9c-3.3-1.3-6.7-2.7-10.1-4.1c-6.7-2.6-13.5-4.8-20.5-6.1
				c-14.1-2.5-28.5-2.9-42.5-0.1C169.4,96.7,169.5,96.8,169.5,96.8L169.5,96.8z"/>
		</g>
		<g>
			<path class="st1" d="M138.4,119.6c5.6-6.1,12.7-11.3,20.3-14.3c3.4-1.4,7-2.3,10.8-3c3.5-0.5,7.2,1.3,10.7,0.1
				c0.4-0.1,0.2-0.5-0.2-0.5c-3.8,0.8-7.9-0.5-11.8,0c-3.9,0.6-7.7,1.8-11.3,3.3C149.4,108.5,143.3,113.2,138.4,119.6L138.4,119.6
				L138.4,119.6z"/>
		</g>
		<g>
			<path class="st1" d="M179.5,97.7c0.3,0.6,0.1,1.3,0.2,1.9c0.1,0.9,0,1.8,0.2,2.6c0.1,0.2,0.4,0.2,0.4,0c0.1-0.9,0.2-1.8,0-2.7
				C180,98.8,180,98.2,179.5,97.7C179.6,97.5,179.4,97.5,179.5,97.7L179.5,97.7z"/>
		</g>
		<g>
			<path class="st1" d="M185.3,96.9c-0.1,0.8-0.1,1.6-0.1,2.4c0,0.7-0.1,1.5,0.2,2.2c0.1,0.2,0.4,0.2,0.4,0c0.3-0.7,0-1.6,0-2.3
				c-0.1-0.8-0.2-1.5-0.3-2.3C185.5,96.7,185.3,96.8,185.3,96.9L185.3,96.9z"/>
		</g>
		<g>
			<path class="st1" d="M185,96.7c2.6,1.8,6,1.4,8.8,2.9c3,1.4,6.5,1,9.7,2.3c3.3,1.3,6.6,1.9,9.9,3c3.8,1.3,7.2,3.3,11.2,4
				c0.3,0.1,0.5-0.5,0.1-0.5c-3.7-0.6-7-2.5-10.6-3.9c-3.4-1.4-7-2-10.3-3.3c-3-1.2-6.1-0.8-8.9-1.7c-1.4-0.5-2.3-1.3-3.7-1.5
				c-2.1-0.5-4.1-0.2-6-1.4C185,96.4,184.9,96.6,185,96.7L185,96.7z"/>
		</g>
		<g>
			<path class="st1" d="M222.2,108.3c5.5,1.7,11.5,2.6,17.3,3.5c6.2,0.9,12.4,2.4,18.6,3.4c0.3,0.1,0.5-0.4,0.1-0.5
				c-6.2-1.3-12.5-2.2-18.6-3.6c-5.6-1.4-11.6-2.6-17.3-3.1C222.1,108,222.1,108.3,222.2,108.3L222.2,108.3z"/>
		</g>
		<g>
			<path class="st1" d="M252.7,110.1c4-0.5,7.4-2.9,10.8-4.9c5.2-3.2,10.3-5.3,16.4-5.7c0.4,0,0.3-0.5,0-0.5
				c-4.6-0.6-9.2,1.1-13.3,3.3c-4.6,2.3-8.8,6.5-13.9,7.6C252.5,109.9,252.6,110.1,252.7,110.1L252.7,110.1z"/>
		</g>
		<g>
			<path class="st1" d="M117.7,141.1c0.6-0.4,1.1-1.2,1.2-1.9c0.2-1.2-0.2,0.3-0.1-1.4c0.2-1.9,0.9-2.9,1.9-4.3
				c1.7-2.4,3.3-3.8,6-5.2c0.9-0.5,1.4-0.8,1.8-1.8c0.1-0.4-0.5-0.5-0.5-0.2c-0.6,1.4-2.7,1.8-4,2.6c-1.1,0.8-2.1,1.8-2.9,2.9
				c-1,1.3-2.3,2.8-2.7,4.3c-0.5,1.5,0.8,3.6-0.7,4.8C117.5,141,117.6,141.2,117.7,141.1L117.7,141.1z"/>
		</g>
		<g>
			<path class="st1" d="M113.5,154.7c1.7-1.7,2.9-4.4,4.2-6.5c1.4-2.2,3.3-4.2,4.4-6.5c1.3-2.6,1.7-5.3,4-7.4
				c1.4-1.4,3.3-1.8,4.1-3.6c0.1-0.1-0.2-0.2-0.2-0.1c-0.9,2.2-4.2,3-5.7,5c-1.2,1.5-1.4,3.3-2.1,5.1c-1,2.7-3.3,5.1-5,7.3
				C115.8,150.1,114.7,152.4,113.5,154.7C113.3,154.7,113.4,154.8,113.5,154.7L113.5,154.7z"/>
		</g>
		<g>
			<path class="st1" d="M118.5,139.6c-5.2,6.3-10.6,13.4-11.9,21.7c-0.3,1.7-0.4,3.5-0.6,5.2c-0.4,3.1-1.5,5.4-2.3,8.3
				c-0.9,3.4,1,7.5,2.2,10.8c0.1,0.4,0.6,0.2,0.5-0.2c-1.1-4.5-2.8-8-1.1-12.6c1.4-3.9,1.4-8,2.1-12
				C108.9,152.9,114.5,146.6,118.5,139.6C118.6,139.7,118.6,139.6,118.5,139.6L118.5,139.6z"/>
		</g>
		<g>
			<path class="st1" d="M114.2,153.6c-2.1,2.8-3.4,5.9-4,9.4c-0.3,1.9-0.2,3.6-0.2,5.5c-0.1,1.8-0.6,3.5-0.5,5.3
				c0.2,8,2.9,15.6,6.6,22.5c7,12.9,16.9,23.9,29.2,32.1c0.5,0.3,0.9-0.5,0.5-0.7c-11.6-7.6-20.7-17.7-27.6-29.6
				c-1.9-3.3-3.9-6.6-5.2-10.1c-1.3-3.5-1.7-7.6-2.3-11.2c-0.5-3.4,0-7,0-10.5c0-4.4,1.4-8.7,3.9-12.4
				C114.5,153.6,114.3,153.5,114.2,153.6L114.2,153.6z"/>
		</g>
		<g>
			<path class="st1" d="M105.9,185.7c2.3,5,3.8,9.8,7.1,14.2c1.7,2.3,3.5,4.3,4.8,7c1.1,2.2,2.3,4.2,3.7,6.2
				c2.9,3.8,6.3,7.1,9.8,10.4c2,1.9,4.2,3.6,6.1,5.5c1.1,1.1,1.8,2.3,3.3,2.8c0.5,0.1,0.6-0.5,0.2-0.6c-1.7-0.5-3.7-3.3-5-4.4
				c-1.7-1.5-3.3-3.1-5.1-4.6c-3.8-3.6-7.6-7.4-10.4-11.8c-1.2-1.8-1.9-3.8-3-5.7c-1.1-1.9-2.6-3.4-3.9-5.2
				c-3.2-4.2-4.7-9.3-7.5-13.7C106.1,185.2,105.8,185.4,105.9,185.7L105.9,185.7z"/>
		</g>
		<g>
			<path class="st1" d="M167.7,246.4c15.8,3.7,34,3.8,48.9-3.3c0.5-0.3,0.1-0.9-0.5-0.7c-8.2,3.5-16.5,5.8-25.5,5.5
				c-7.7-0.2-15.3-0.9-23-1.7C167.7,246.3,167.7,246.3,167.7,246.4L167.7,246.4z"/>
		</g>
		<g>
			<path class="st1" d="M173.9,243.1c13.3,2.9,27.2,1.2,40.1-2.4c0.5-0.1,0.3-0.9-0.2-0.7c-13.1,4-26.3,4.1-39.8,2.8
				C173.7,242.7,173.7,243.1,173.9,243.1L173.9,243.1z"/>
		</g>
		<g>
			<path class="st1" d="M219.8,129c-0.5-0.4-1.2-0.7-1.7-1.2c-0.2-0.1-0.4,0-0.5,0.3c-0.2,3.4-0.1,6.8-0.7,10.2
				c-0.5,2.9-1.9,5.4-2.9,8.1c-1.8,4.9-2.3,10.5-3.3,15.5c-1.1,5.8-2.2,11.5-2.7,17.3c-0.5,6.1-0.4,12.1-2.3,18
				c-1.4,4.6-3.5,9.1-3.3,14s3.1,6.7,5.4,10.6c1.4,2.5,1.4,5.5,2.4,8.2c0.9,2.3,1.7,4.4,2.3,6.9c0.8,3.3,2.2,6.6,5.8,7.3
				c0.5,0.1,0.7-0.6,0.2-0.7c-3.8-1.2-4.5-4.6-5.3-8c-0.5-2.1-1.3-3.8-2.1-5.8c-0.9-2.2-0.9-4.6-1.7-6.8c-0.6-1.4-1.6-2.6-2.6-3.9
				c-4.2-5.2-4-10.5-2-16.6c1.4-4.5,2.9-8.8,3.3-13.6c0.5-5.6,0.5-11.1,1.4-16.7c0.8-5.7,2-11.3,3.1-16.9c0.9-4.8,2.3-8.9,3.8-13.6
				c0.7-2.2,1-4.5,1.3-6.8c0.2-1.6-0.5-6.9,1.8-5.8C219.8,129.2,219.9,129.1,219.8,129L219.8,129z"/>
		</g>
		<g>
			<path class="st1" d="M218.3,244c5.5,4.5,15.4-1.1,20.9-2.9c4.3-1.4,8.9-2.2,13.4-3.4c4.9-1.4,9.8-3,14.5-4.8c0.1,0,0-0.2,0-0.1
				c-8,2.9-15.9,4.8-24.1,6.8C235.2,241.5,226.3,246.6,218.3,244C218.3,243.8,218.2,244,218.3,244L218.3,244z"/>
		</g>
		<g>
			<path class="st1" d="M104.3,180.7c0.1,2.7,0.2,5.4,0.8,8c0.7,3,1.9,5.7,2.4,8.7c1,6,2.2,11.4,4.5,17c2.3,5.6,5.1,11,7.5,16.6
				c1.4,3.1,2.7,6.2,4.1,9.3c0.7,1.6,1.1,3,2.9,3.5c0.5,0.2,0.7-0.6,0.2-0.7c-2.5-0.9-3.8-6.2-4.8-8.4c-1.1-2.4-2.2-4.8-3.3-7.2
				c-2.3-5.2-4.7-10.5-6.8-15.8c-1.8-4.8-2.6-9.4-3.5-14.4c-0.5-2.6-1.5-4.9-2.4-7.3c-1.1-3-1.3-6.1-1.5-9.1
				C104.5,180.5,104.3,180.5,104.3,180.7L104.3,180.7z"/>
		</g>
		<g>
			<path class="st1" d="M160.5,251.4c5.6,2.3,8.8,7.8,11.8,12.8c2.8,4.6,4.3,7.5,9.6,9.5c9.3,3.5,21.9,1.4,28.4-6.7
				c0.3-0.4-0.2-0.9-0.5-0.5c-4.6,4-9.3,7.2-15.5,8c-5.9,0.6-14.4-0.7-17.9-6c-4.1-5.9-7.6-16-15.5-17.5
				C160.3,250.9,160.2,251.3,160.5,251.4L160.5,251.4z"/>
		</g>
		<g>
			<path class="st1" d="M209.8,267.6c3.2-6.3,9.4-8.2,15.9-9.5c6-1.2,12-1.9,18-2.8c7.7-1.2,18.7-2.2,21.2-11.1
				c0.1-0.3-0.4-0.5-0.5-0.3c-2.6,5.7-7.8,8.2-13.7,9.4c-5.8,1.2-11.7,1.8-17.5,2.7c-8,1.3-20.9,2.1-23.6,11.5
				C209.6,267.7,209.8,267.8,209.8,267.6L209.8,267.6z"/>
		</g>
		<g>
			<path class="st1" d="M263.2,247.7c6.7-4.4,10.2-12.4,14.1-19.1c2.5-4.3,5-8.9,8-12.9c2.6-3.7,5.9-6.3,7.7-10.5
				c3.5-8.1,4.2-15.6,1.4-24.1c-2.9-8.9-8.2-16.9-11.2-25.8c-0.2-0.6-1.2-0.4-1,0.3c2.5,7.9,7,15,9.9,22.7
				c3.6,9.4,3.8,18.5-0.7,27.6c-1.7,3.5-4.9,6.1-7.1,9.2c-2.5,3.5-4.6,7.3-6.8,11c-4.1,7-7.9,16.4-14.4,21.4
				C263.1,247.6,263.2,247.7,263.2,247.7L263.2,247.7z"/>
		</g>
		<g>
			<path class="st1" d="M280.4,100.1c1.7,2.5,1.2,4.7,1.4,7.6c0.2,1.9,0.7,3.7,1.2,5.5c1.1,4.6,1.2,9.4,0.8,14.1
				c-0.6,8.9-2.7,17.9-2.1,26.8c0,0.6,1.1,0.6,1,0c-0.4-10.2,1.9-20.1,2.1-30.3c0.1-4.8-0.8-9-1.7-13.6c-0.8-4.1,0.4-7-2.5-10.3
				C280.5,99.9,280.4,100,280.4,100.1L280.4,100.1z"/>
		</g>
		<g>
			<path class="st1" d="M240.2,112.3c4.5,1.4,9.4,2.4,13.6,4.5c2.9,1.4,5.3,4.2,8.6,4.7c0.5,0.1,0.6-0.5,0.2-0.6
				c-3.5-0.8-6.2-3.8-9.6-5.2c-4.1-1.6-8.5-2.6-12.7-3.6C240.1,111.9,240,112.2,240.2,112.3L240.2,112.3z"/>
		</g>
		<g>
			<path class="st1" d="M258.1,115.1c1.1,0.8,1.5,2.7,2.3,3.8c0.6,0.9,1.3,2.1,2.3,2.5c0.2,0.1,0.4-0.1,0.3-0.3
				c-0.2-0.6-0.6-1-1.1-1.4c-0.6-0.7-1.2-1.4-1.6-2.2c-0.6-1-0.9-2.1-2-2.6C258.1,114.9,258,115.1,258.1,115.1L258.1,115.1z"/>
		</g>
		<g>
			<path class="st1" d="M133.7,121.7c1.5,0.1,1.5-1.2,1.7-2.3c0.4-2.5,2.1-4.5,3.6-6.5c0.2-0.2-0.1-0.5-0.4-0.4
				c-1.1,1.1-2.1,2.3-2.8,3.7c-0.7,1.4-0.6,4.4-2.2,5.2C133.5,121.5,133.6,121.7,133.7,121.7L133.7,121.7z"/>
		</g>
		<g>
			<path class="st1" d="M130,131.2c1.1-2,2.4-3.5,4.4-4.6c1.2-0.7,2.3-1.4,3.3-2.5c0.6-0.7,1-1.3,1.1-2.3c0-0.3-0.3-0.6-0.3-0.8
				c0.1-1.6,0.5-2.2,1.7-3.2c0,0,0-0.1-0.1-0.1c-1.3,1-1.6,1.1-2.1,2.4c-0.1,0.2-0.1,2.5,0.2,0.8c-0.5,2.2-0.7,2.7-2.1,4
				C133.6,127.2,131.1,127.8,130,131.2L130,131.2L130,131.2z"/>
		</g>
		<g>
			<path class="st1" d="M179.7,97.7c1-0.4,2-0.5,3.1-0.6c0.8,0,1.5-0.1,2.3-0.3c0.2-0.1,0.1-0.4-0.1-0.3c-1,0.4-2,0.3-3.1,0.4
				C181,97,180.3,97.3,179.7,97.7C179.5,97.6,179.6,97.8,179.7,97.7L179.7,97.7z"/>
		</g>
		<g>
			<path class="st1" d="M180,102.3c0.9,0,1.8-0.2,2.8-0.4s2.1-0.3,3-0.6c0.1,0,0.1-0.2,0-0.2c-1.9,0.5-3.9,0.3-5.8,0.9
				C179.8,102.1,179.8,102.3,180,102.3L180,102.3z"/>
		</g>
		<g>
			<path class="st1" d="M185.5,101.6c6.6,0.8,12.7,2.6,19.1,4.7c5.3,1.7,11,3.5,16.7,3.1c0.2,0,0.2-0.2,0-0.3
				c-6.7-0.5-12.7-2-19.1-4.1c-5.4-1.7-10.9-3.6-16.7-3.6C185.5,101.4,185.5,101.5,185.5,101.6L185.5,101.6z"/>
		</g>
		<g>
			<path class="st1" d="M218.3,109.1c6.9,0.6,13.4,3.3,20.1,4.4c0.3,0,0.4-0.4,0.1-0.4c-4.1-0.8-8.2-1.6-12.2-2.8
				c-2.7-0.8-5.2-1.5-8-1.4C218.1,108.8,218.1,109.1,218.3,109.1L218.3,109.1z"/>
		</g>
		<g>
			<path class="st1" d="M258.1,115c-0.5,0.7-0.4,1.4-0.3,2.2c0.1,0.6,0,1.5,0.5,2.1c0.1,0.1,0.3-0.1,0.2-0.2
				c-0.4-0.5-0.2-1.7-0.3-2.3c0-0.6,0.1-1.1,0.2-1.7C258.4,114.9,258.2,114.9,258.1,115L258.1,115z"/>
		</g>
		<g>
			<path class="st1" d="M224.1,114c4.8-1,12.3,2,16.3-1.7c0.2-0.2-0.1-0.4-0.3-0.3c-2.6,2.3-8,1.5-11.1,1.4c-1.3-0.1-4-0.6-5.1,0.4
				C223.9,114,224,114.1,224.1,114L224.1,114z"/>
		</g>
		<g>
			<path class="st1" d="M220.4,129.3c0.2-3.1,1.6-6,2.7-8.7c0.2-0.5,1.1-2.1,1.3-2.9c0.1-0.4,0.3-2.6,0.3-2.5c0-0.5-0.5-0.7-0.4-1.3
				c0-0.2-0.2-0.2-0.3-0.1c-0.4,0.6,0,1.3,0,2c0,1.8-1.4,4.2-2,6c-0.6,2.3-2.5,5.2-2.1,7.6C220.1,129.6,220.4,129.5,220.4,129.3
				L220.4,129.3z"/>
		</g>
		<g>
			<path class="st1" d="M250.3,193.4c-3.8,6.6,0,14.2-1.3,21.3c-1.5,8.1-7,14.5-14.4,17.9c-0.5,0.2-0.1,0.9,0.4,0.7
				c6.2-2.3,11.1-6.9,13.6-13.1c1.4-3.5,1.9-7.2,1.5-11C249.7,203.8,247.8,198.6,250.3,193.4C250.4,193.4,250.3,193.3,250.3,193.4
				L250.3,193.4z"/>
		</g>
		<g>
			<path class="st1" d="M282.4,188.2c-9.4-0.1-16.6,5.1-20.3,13.6c-1.2,2.6-4.2,8.4-2.2,11.3c1.7,2.5,6.7,1.8,9.1,1.3
				c8.2-1.8,19-9,19.3-18.3c0.1-3.3-2.5-7-5.8-8c-3.2-1-6.8,0.7-9.6,2.1c-0.3,0.2,0,0.5,0.3,0.5c3.3-1.4,7.4-3.2,10.7-0.9
				c4.4,3.1,3.6,8.6,1.1,12.6c-3.5,5.7-10.3,10.1-16.9,11.3c-1.2,0.2-2.3,0.3-3.5,0.3c-1.7,0.4-2.8-0.4-3.1-2.2
				c-1.3-2.3-1-2.8-0.3-5.2c0.8-2.9,2-5.7,3.5-8.3c3.8-6.2,10.4-9.4,17.5-9.8C282.5,188.3,282.5,188.2,282.4,188.2L282.4,188.2z"/>
		</g>
		<g>
			<path class="st1" d="M275.8,178c1.1,2.5,3,4.3,5,6.1c2.8,2.6,4.6,5.2,6.2,8.7c0.2,0.4,0.6,0.1,0.5-0.3
				C285.7,186,278.9,183.7,275.8,178C275.9,177.9,275.8,177.9,275.8,178L275.8,178z"/>
		</g>
		<g>
			<path class="st1" d="M253.9,218.8c8.4-0.7,17.9-1.9,23.9-8.5c0.4-0.5-0.2-1-0.6-0.6C270.2,215.1,262.6,217.7,253.9,218.8
				C253.9,218.7,253.9,218.8,253.9,218.8L253.9,218.8z"/>
		</g>
		<g>
			<path class="st1" d="M244.5,172.6c-1.6,0.3-3.8,2.3-3.5,4.1c0.2,0.9,1,2.1,1.7,2.5c0.8,0.5,1.9,0,2.7-0.4
				c1.8-0.8,3.2-3.2,1.7-4.9c-0.5-0.6-1.5-1.4-2.4-1.5c-1-0.1-1.7,0.7-2.3,1.4c-0.3,0.3,0.1,0.7,0.4,0.5c0.4-0.3,0.7-0.5,1.2-0.7
				c0.8-0.3,1.4,0.2,2,0.6c1.4,1.2,0.5,2.8-0.8,3.6c-0.6,0.4-1.4,0.7-2.2,0.3c-0.5-0.3-1.1-1.1-1.2-1.6c-0.2-1.4,1.5-3.3,2.8-3.7
				C244.7,172.8,244.7,172.6,244.5,172.6L244.5,172.6z"/>
		</g>
		<g>
			<path class="st1" d="M273.2,169.5c-1.8-4.2-2.9-7.7-1.7-12.4c0.7-2.9,1.4-5.5,1.4-8.6c0-5.7-1.7-11.4-5.2-15.9
				c-0.3-0.3-0.7,0-0.5,0.3c3.7,6.3,5.6,13,4.4,20.3c-0.5,3.1-1.7,5.9-1.3,9c0.4,2.6,1.5,5,2.7,7.2
				C273.1,169.5,273.2,169.5,273.2,169.5L273.2,169.5z"/>
		</g>
		<g>
			<path class="st1" d="M276.3,105.5c-1.5,5.2-2.4,10.4-3.1,15.7c-0.5,4.5-1.1,9.5,1.3,13.6c0.2,0.3,0.7,0.1,0.6-0.3
				C272.3,125.5,274.3,114.5,276.3,105.5C276.4,105.5,276.3,105.5,276.3,105.5L276.3,105.5z"/>
		</g>
		<g>
			<path class="st1" d="M273.4,158c-1.5,0.6-1.6,3.3-1.4,4.6c0.2,1.3,1.8,2.7,3,1.7c1.2-1,0.9-3.6,0.6-4.9c-0.2-0.7-0.5-1.4-1.4-1.5
				c-1-0.2-1.4,0.4-2,1c-0.2,0.2,0.1,0.5,0.3,0.4c0.5-0.3,1.1-0.6,1.5-0.5c1,0.1,0.9,1.4,1,2.1c0.1,0.7,0.3,1.9-0.1,2.5
				c-1.2,2.2-2.4-0.5-2.4-1.4c0-1.2-0.4-3,0.9-3.6C273.5,158.1,273.5,157.9,273.4,158L273.4,158z"/>
		</g>
		<g>
			<path class="st1" d="M214.2,284c3.6-2.4,8.1-3.4,12.1-5.1c0.1,0,0-0.2-0.1-0.1C222.1,280.1,217.6,281.4,214.2,284
				C213.9,283.9,214,284.1,214.2,284L214.2,284z"/>
		</g>
		<g>
			<path class="st1" d="M226.3,278.9c3.4-0.2,5.4-3.2,8.7-3.8c0.2,0,0.2-0.4-0.1-0.4C231.5,275,229.5,278.2,226.3,278.9
				C226.2,278.7,226.3,278.9,226.3,278.9L226.3,278.9z"/>
		</g>
		<g>
			<path class="st1" d="M234.4,275c1.6-0.5,2.3,2.3,3.6,3.2c1.2,0.7,2.6,0.8,3.8,1.6c0.2,0.2,0.5-0.2,0.4-0.4
				c-1.2-1.6-3.3-1.2-4.6-2.4C236.6,276.2,236.1,274.3,234.4,275L234.4,275L234.4,275z"/>
		</g>
		<g>
			<path class="st1" d="M241.6,279.3c0.8,0.9,1.1,2.1,2.1,2.9c1,0.9,1.9,1.4,2.5,2.6c0.1,0.3,0.5,0.1,0.5-0.2
				c-0.3-1.2-0.9-2-1.9-2.7C243.5,281.3,242.7,280,241.6,279.3L241.6,279.3L241.6,279.3z"/>
		</g>
		<g>
			<path class="st1" d="M213.9,284.2c-0.2,0.5,0.3,0.7,0.6,0.8c0.5,0.1,1.1,0.1,1.6,0.2c0.8,0.1,1.4,0.5,2,1c0.1,0.1,0.3,0,0.2-0.2
				c-0.4-0.5-0.8-0.8-1.4-1c-0.4-0.1-0.7-0.1-1.1-0.1C215.5,284.8,213.7,285,213.9,284.2C214,284.2,214,284.1,213.9,284.2
				L213.9,284.2z"/>
		</g>
		<g>
			<path class="st1" d="M218.1,285.9c0.5,0.2,0.7,0.3,1.2,0.3c1,0,1.4,0,2.3,0.6c0.9,0.7,1.7,1.4,2.8,1.7c0.3,0.1,0.5-0.3,0.2-0.5
				c-1.3-0.5-2.1-1.4-3.2-2.2c-1-0.7-2.2,0.1-3.3-0.2C218.1,285.8,218,285.9,218.1,285.9L218.1,285.9z"/>
		</g>
		<g>
			<path class="st1" d="M224.4,288.4c1.2,0.5,2.6,1.4,3.8,0.6c0.2-0.2,0-0.5-0.2-0.4C226.8,289.2,225.7,288.5,224.4,288.4
				C224.4,288.2,224.4,288.4,224.4,288.4L224.4,288.4z"/>
		</g>
		<g>
			<path class="st1" d="M228.2,288.8c0.6,0.5,1.4,0.8,2.2,0.6c0.5-0.1,0.8-0.4,1.2-0.5c0.6-0.2,0.6,0.2,0.9,0.6
				c0.1,0.2,0.2,0.4,0.4,0.5c0.1,0.1,0.3,0,0.2-0.1c-0.2-0.4-0.3-0.7-0.5-1.1c0,0,0-0.2-0.1-0.3c-0.2-0.2-0.2-0.2-0.4-0.2
				c-0.5,0-0.9,0.3-1.3,0.4c-0.8,0.2-1.7,0.1-2.4-0.3C228.2,288.6,228.1,288.7,228.2,288.8L228.2,288.8z"/>
		</g>
		<g>
			<path class="st1" d="M233.2,290.4c1.7-0.3,2.8,2.2,4.4,1.6c0.2-0.1,0.2-0.4,0-0.4c-0.5-0.1-1-0.2-1.4-0.5
				c-0.4-0.2-0.8-0.5-1.2-0.7c-0.6-0.3-1.2-0.5-1.8-0.3C233,290.3,233,290.4,233.2,290.4L233.2,290.4z"/>
		</g>
		<g>
			<path class="st1" d="M237,292.1c0.9,0.2,1.5,0.6,2.3,1c0.8,0.4,1.6,0.3,2.4,0.7c0.1,0.1,0.3-0.1,0.2-0.2c-0.8-0.7-1.7-0.5-2.6-1
				c-0.7-0.4-1.4-0.6-2.3-0.7C237,292,237,292.1,237,292.1L237,292.1z"/>
		</g>
		<g>
			<path class="st1" d="M241.6,293.7c0.2-0.6,0.5-1.2,0.7-1.7c0.2-0.4,0.4-0.5,0.4-1v-0.1c0-0.1-0.1-0.2-0.1-0.2
				c-0.1-0.2-0.1-0.4,0-0.5c0-0.6,0.3-0.7,0.7-1c0.3-0.2,0.5-0.3,0.6-0.5c0.1-0.1,0-0.2-0.1-0.2c-0.5,0.3-1.9,0.8-1.9,1.7
				c0.1,0.5,0.1,0,0.2,0.5c0.2,0.6,0,0.6-0.1,1.1c-0.3,0.6-0.5,1.2-0.6,1.8C241.4,293.8,241.6,293.8,241.6,293.7L241.6,293.7z"/>
		</g>
		<g>
			<path class="st1" d="M243.6,288.7c0.4-0.1,1.3-0.1,1.5-0.4c0.2-0.2,0-0.2,0-0.5c0,0-0.1,0-0.1-0.1c-0.1-0.1-0.1-0.3,0.1-0.5
				c0.2-0.5,0.1-0.5,0.5-0.6c0.2-0.1,0.4-0.2,0.5-0.4c0.4-0.4,0-1.4,0.6-1.5c0.2,0,0.2-0.4-0.1-0.4c-0.4,0-0.7,0.2-0.8,0.6
				c0,0.1,0,0.2,0,0.3c0.1,0.5,0.2,0.2-0.1,0.7c-0.3,0.5-0.5,0.5-0.9,0.7c-0.3,0.2-0.5,0.5-0.3,0.9c0.1,0.2,0.4,0.2,0.3,0.4
				C244.8,288.5,243.7,288.6,243.6,288.7C243.5,288.6,243.5,288.7,243.6,288.7L243.6,288.7z"/>
		</g>
		<g>
			<path class="st1" d="M213.9,284.3c-0.2,0-0.3,0.2-0.3,0.4c0,0.2,0.2,0.5,0.3,0.6c0.1,0.3,0.2,0.5,0.4,0.8c0.1,0.1,0.3,0,0.2-0.1
				c-0.1-0.2-0.2-0.5-0.4-0.6C214.1,285.1,213.6,284.4,213.9,284.3C214,284.3,214,284.3,213.9,284.3L213.9,284.3z"/>
		</g>
		<g>
			<path class="st1" d="M214.3,285.9c1.5,0,2.6,0.4,4.1,0.8c1.1,0.4,2.3-0.4,3.3,0.4c0.1,0.1,0.2-0.1,0.1-0.2
				c-1-0.8-2.1-0.1-3.3-0.4c-0.6-0.2-1.3-0.5-1.9-0.6C215.9,285.8,215.1,285.8,214.3,285.9L214.3,285.9L214.3,285.9z"/>
		</g>
		<g>
			<path class="st1" d="M231.5,289c0.4,0.1,0.6,1.6,0.8,2c0.4,0.7,0.6,1.5,1.2,2.2c0.1,0.1,0.4,0,0.3-0.2c-0.3-1.1-1.3-1.9-1.5-3.1
				c-0.1-0.5-0.1-1-0.7-1.1C231.4,288.9,231.4,289,231.5,289L231.5,289z"/>
		</g>
		<g>
			<path class="st1" d="M233.5,293.2c1.8,0.1,3.4,0.1,5.2,0.7c1.1,0.4,2,1.1,3.2,0.7c0.2,0,0.1-0.3-0.1-0.3
				c-1.5,0.2-3.2-0.9-4.6-1.2c-1.2-0.3-2.4-0.5-3.6-0.4C233.3,293,233.3,293.2,233.5,293.2L233.5,293.2z"/>
		</g>
		<g>
			<path class="st1" d="M241.7,293.7c-0.1,0.4-0.2,0.8-0.1,1.2c0,0.2,0.3,0.2,0.3,0C241.9,294.5,241.8,294.1,241.7,293.7
				L241.7,293.7L241.7,293.7z"/>
		</g>
		<g>
			<path class="st1" d="M164.4,290.3c2.1-1,4.3-0.9,6.4-1.7c1.7-0.7,3.3-1.6,4.9-2.7c0.1,0,0-0.2-0.1-0.1c-2.1,1.1-4.1,2.3-6.4,3
				c-1.6,0.5-3.3,0.5-5,1.4C164.2,290.2,164.3,290.3,164.4,290.3L164.4,290.3z"/>
		</g>
		<g>
			<path class="st1" d="M175.5,286c1.2-0.5,2.4-0.8,3.7-1.2c0.1,0,0.1-0.1,0-0.1C177.9,284.7,176.6,285.3,175.5,286
				C175.4,285.9,175.5,286.1,175.5,286L175.5,286z"/>
		</g>
		<g>
			<path class="st1" d="M178.9,284.9c1-0.1,1.7-0.4,2.4-1.1c0.5-0.5,0.9-0.6,1.4-0.9c0.3-0.2,0.5-0.3,0.6-0.5
				c0.1-0.1-0.1-0.3-0.2-0.2c-0.5,0.5-1.3,0.6-1.8,1.1c-0.3,0.3-0.5,0.5-0.8,0.8C180,284.6,179.4,284.7,178.9,284.9
				C178.8,284.7,178.8,284.9,178.9,284.9L178.9,284.9z"/>
		</g>
		<g>
			<path class="st1" d="M183.5,282.5c0.2-0.7,1.4-0.8,2-1s1-0.5,1.4-0.7c0.2-0.1,0-0.3-0.1-0.3c-0.8,0.5-1.6,0.7-2.5,1
				C183.7,281.8,183.4,282,183.5,282.5C183.4,282.6,183.4,282.6,183.5,282.5L183.5,282.5z"/>
		</g>
		<g>
			<path class="st1" d="M164.2,290.1c0.1,0.3,0.3,0.4,0.4,0.6c0.4,0.8,0.2,1.1,0.3,1.8c0,0.7,0.4,1.3,0.6,2c0.1,0.3,0.2,0.5,0.4,0.8
				c0.5,0.6,0.3,0.7,0.6,1.6c0.2,0.4,0.2,0.5,0.5,0.7c0.1,0.1,0.3-0.1,0.1-0.2c-0.5-0.3-0.5-1.4-0.7-1.8c-0.4-0.7-0.7-1.4-1-2.1
				c-0.2-0.5-0.4-0.9-0.4-1.4c0-0.3,0.1-0.5,0-0.8C164.9,290.9,164.6,290.6,164.2,290.1C164.3,290,164.2,290.1,164.2,290.1
				L164.2,290.1z"/>
		</g>
		<g>
			<path class="st1" d="M166.8,297.7c3.6,0.8,7.2,1.7,10.8,2.9c2.9,1,6.1,2.6,9.1,2.4c0.2,0,0.2-0.3,0-0.3c-3.6,0-7.5-2.4-11-3.3
				C172.8,298.7,169.8,297.9,166.8,297.7C166.8,297.6,166.8,297.7,166.8,297.7L166.8,297.7z"/>
		</g>
		<g>
			<path class="st1" d="M164.4,290.2c0.8,0.7,1.5,1.5,2.3,2.3c0.3,0.3,0.5,0.5,0.8,0.7c0.3,0.2,0.7-0.1,0.9,0.1
				c0.2,0.1,0.4-0.2,0.2-0.4c-0.2-0.1-0.3-0.1-0.5-0.1c-0.7-0.2-1.1-0.5-1.6-0.9C165.8,291.3,165.1,290.7,164.4,290.2
				C164.4,290.1,164.3,290.1,164.4,290.2L164.4,290.2z"/>
		</g>
		<g>
			<path class="st1" d="M168.6,293c0.5,1.1,1.2,1.2,2.1,1.8c1.2,0.7,1.5,1.5,2.7,1.9c2.6,0.7,4.2,3.3,6.6,4.6
				c0.2,0.1,0.4-0.2,0.2-0.3c-1.9-1.1-3.2-3.2-5.1-4.2c-0.5-0.2-0.9-0.2-1.3-0.3c-0.7-0.3-1.1-1-1.7-1.4
				C170.9,294.3,169.5,294.1,168.6,293C168.6,292.9,168.6,293,168.6,293L168.6,293z"/>
		</g>
		<g>
			<path class="st1" d="M186.9,302.9c1.9,0,3.1-0.4,4.6-1.4c0.5-0.4,1.4-0.5,1.9-1c0.1-0.1,0.2-0.3,0.3-0.5c0.2-0.5,0.5-1.1,0.8-1.6
				c0.5-0.4,1-0.6,1.6-0.7c0.2-0.1,0.2-0.4-0.1-0.4c-0.7-0.1-1.4,0.2-1.9,0.8c-0.2,0.3-0.3,0.5-0.4,0.7c-0.1,0.2-0.2,0.5-0.2,0.7
				c-0.4,0.8-0.9,1.3-1.7,1.4C190.4,301.9,188.5,302.5,186.9,302.9C186.7,302.7,186.7,302.9,186.9,302.9L186.9,302.9z"/>
		</g>
		<g>
			<path class="st1" d="M175.5,294.1c5.6,0.1,11.1,0.3,16.7-0.2c2.8-0.2,6-0.3,7.7-2.9c0.1-0.2-0.2-0.4-0.3-0.2
				c-2.9,3.3-8.5,2.8-12.5,3C183.3,294.1,179.4,294.1,175.5,294.1C175.4,294,175.4,294.1,175.5,294.1L175.5,294.1z"/>
		</g>
		<g>
			<path class="st1" d="M186.6,281c0.6,0.5,1.3,1,1.9,1.6c0.3,0.3,0.5,0.5,0.8,0.7c0.7,0.4,1,0.7,1.4,1.4c0.4,0.4,0.7,0.7,1.2,0.9
				c0.1,0,0.2-0.1,0.1-0.2c-0.5-0.5-1.1-1-1.5-1.5c-0.2-0.3-0.4-0.5-0.6-0.6c-0.7-0.4-1.2-0.7-1.7-1.3
				C187.7,281.5,187.3,281.2,186.6,281C186.6,280.8,186.5,280.9,186.6,281L186.6,281z"/>
		</g>
		<g>
			<path class="st1" d="M192,285.5c0.4,0.1,0.7,0.2,1.1,0.4c0.5,0.3,0.6,0.7,0.9,1.2c0.4,0.5,0.7,1,1.3,1.3c0.2,0.1,0.4-0.1,0.2-0.3
				c-0.3-0.3-0.6-0.5-0.9-0.9c-0.3-0.4-0.5-0.8-0.8-1.2c-0.5-0.5-1.2-0.6-1.8-0.7C191.9,285.3,191.9,285.4,192,285.5L192,285.5z"/>
		</g>
		<g>
			<path class="st1" d="M195.3,288.3c0.5,0.3,0.8,0.6,1.4,1c0.5,0.5,1.2,0.3,1.9,0.5c0.1,0,0.1-0.1,0.1-0.1c-0.3-0.2-0.6-0.2-1-0.4
				c-0.5-0.2-0.7-0.5-1-0.7c-0.4-0.3-0.7-0.6-1.3-0.5C195.3,288.2,195.2,288.3,195.3,288.3L195.3,288.3z"/>
		</g>
		<g>
			<path class="st1" d="M198.7,290c0.5-0.1,0.8,0.4,1.2,0.4c0.5,0.1,0.8-0.2,1,0.5c0.2,0.5,0,1.3,0,1.7c0,0.6-0.1,1.3-0.1,1.9
				c0,0.2,0.3,0.2,0.3,0c0.2-0.8,0.2-1.6,0.3-2.4c0-0.5,0.1-1.3-0.2-1.8c-0.2-0.3-0.4-0.3-0.6-0.3c-0.5,0-0.8-0.1-1.2-0.2
				c-0.2-0.1-0.4-0.1-0.5,0C198.6,289.9,198.6,290,198.7,290L198.7,290z"/>
		</g>
		<g>
			<path class="st1" d="M195.9,297.8c1.3-0.2,2.9-0.2,3.9-1c0.7-0.5,1.5-1.4,1.1-2.3c-0.1-0.2-0.4-0.1-0.4,0.1
				c0.1,1.1-1.3,2.1-2.2,2.3C197.6,297.2,196.7,297.4,195.9,297.8C195.8,297.7,195.8,297.8,195.9,297.8L195.9,297.8z"/>
		</g>
		<g>
			<path class="st1" d="M181.6,295.2c4.2,0.5,8.6,0.8,12.9,0.5c2.4-0.2,4.7-0.4,6-2.6c0.1-0.2-0.2-0.5-0.4-0.3
				C196.3,297.3,186.7,295.9,181.6,295.2L181.6,295.2L181.6,295.2z"/>
		</g>
		<g>
			<path class="st1" d="M296.4,270c2.6-0.5,5.6-1.4,8.3-1.4c3,0,5.5,2.8,8,4.2c4.2,2.3,8.5,3.7,12.4,6.4c0.1,0.1,0.3-0.1,0.2-0.2
				c-4.2-4-10-5.1-14.8-8c-1.7-1.1-2.9-2.5-5-2.6C302.6,268.3,299.2,269.4,296.4,270C296.3,269.9,296.3,270,296.4,270L296.4,270z"/>
		</g>
		<g>
			<path class="st1" d="M296.1,270c0.3,2.7,2.8,5.2,4.3,7.3c1.3,1.7,2.8,3.3,4,5.1c1.2,1.9,2,4,3.3,5.8c0.1,0.1,0.4,0,0.3-0.1
				c-1.6-2.5-2.6-5.3-4.5-7.7c-2.3-3-6.4-6.4-7.2-10.3C296.2,269.9,296.1,269.9,296.1,270L296.1,270z"/>
		</g>
		<g>
			<path class="st1" d="M297.7,270.7c1,1,2.3,1.7,3.3,2.7c1,0.9,1.4,2.2,2.4,3c0.2,0.2,0.5-0.2,0.3-0.4c-1-0.9-1.4-2.2-2.6-3
				C300,272.3,298.8,271.6,297.7,270.7C297.8,270.6,297.7,270.7,297.7,270.7L297.7,270.7z"/>
		</g>
		<g>
			<path class="st1" d="M303.7,276.3c0.6-0.2,0.8,1.4,0.9,1.7c0.4,0.9,1,1.7,1.5,2.5c1.1,1.6,2.1,3.3,3.3,4.9
				c0.2,0.2,0.5-0.1,0.4-0.3c-1.4-2.5-3.7-4.7-4.8-7.2C304.7,277.2,304.9,275.6,303.7,276.3C303.6,276.2,303.7,276.3,303.7,276.3
				L303.7,276.3z"/>
		</g>
		<g>
			<path class="st1" d="M309.8,285.6c3.6-1.3,7.2-2.4,11-3.3c2-0.5,3.9-1,4.7-3.1c0.1-0.2-0.2-0.3-0.3-0.1c-1.8,3-5.8,2.9-8.9,3.8
				C314,283.5,311.9,284.4,309.8,285.6C309.7,285.5,309.7,285.6,309.8,285.6L309.8,285.6z"/>
		</g>
		<g>
			<path class="st1" d="M309.2,285.3c-0.3,0.2-0.7,0.3-1,0.5c-0.3,0.3-0.2,0.7-0.4,1c-0.2,0.4-0.5,0.9,0,1.3
				c0.1,0.1,0.3-0.1,0.2-0.2c-0.4-0.4,0.1-0.9,0.2-1.4c0.1-0.4-0.3-0.2,0.4-0.8C308.7,285.6,309,285.5,309.2,285.3
				C309.2,285.4,309.2,285.3,309.2,285.3L309.2,285.3z"/>
		</g>
		<g>
			<path class="st1" d="M307.7,288.2c6.3-0.5,11.9-1.6,17.9-3.6c0.2-0.1,0.1-0.5-0.1-0.4c-2.8,0.7-5.5,1.6-8.3,2.3
				c-3.1,0.8-6.3,1.1-9.5,1.4C307.6,288.1,307.6,288.2,307.7,288.2L307.7,288.2z"/>
		</g>
		<g>
			<path class="st1" d="M325.3,279.1c0.3,0.9,0,1.7,0,2.6c0.1,0.9,0.1,1.7,0,2.5c0,0.3,0.4,0.3,0.5,0.1c0.2-1-0.1-2-0.1-3
				C325.6,280.4,325.9,279.9,325.3,279.1C325.4,279,325.3,279.1,325.3,279.1L325.3,279.1z"/>
		</g>
		<g>
			<path class="st1" d="M291,293.9c1.5,0.4,2.9,0.8,4.3,1.5c1,0.5,1.9,1,3.1,1c0.1,0,0.1-0.2,0-0.2c-1.5-0.1-2.7-1-4.1-1.6
				c-1.1-0.5-2.2-0.7-3.3-0.9C291,293.7,290.9,293.9,291,293.9L291,293.9z"/>
		</g>
		<g>
			<path class="st1" d="M298.8,296.7c1.6-0.2,3.5,1.2,5.2,1.5c1.6,0.4,3.3,0.5,4.9,0.9c3.3,1,6,3.1,9.4,3.3c0.1,0,0.1-0.1,0-0.2
				c-4.2-0.5-7.9-3.3-12.1-4.1c-2.4-0.5-4.9-2.2-7.3-1.7C298.7,296.6,298.7,296.7,298.8,296.7L298.8,296.7z"/>
		</g>
		<g>
			<path class="st1" d="M290.9,293.8c0.4,0.6,0.1,1.4,0.5,1.9c0.3,0.5,0.9,0.6,1.4,0.8c0.5,0.2,1.1,0.4,1.4,0.8
				c0.4,0.5,0.2,1.1,0.4,1.6c0.1,0.5,0.4,0.7,0.7,1c0.2,0.1,0.3-0.1,0.1-0.3c-1.1-0.8-0.2-2.5-1.6-3.3c-0.5-0.3-1.1-0.3-1.5-0.5
				C291.4,295.5,291.4,294.5,290.9,293.8L290.9,293.8L290.9,293.8z"/>
		</g>
		<g>
			<path class="st1" d="M295.1,299.9c-0.1,1.2,0.5,2,1.7,2.3c1,0.2,2,0.1,3,0.5c1.2,0.5,2.3,1.1,3.3,1.7c0.1,0.1,0.2-0.1,0.1-0.1
				c-1.1-0.7-2.2-1.4-3.3-1.8C298.3,301.8,295.3,302.4,295.1,299.9C295.2,299.8,295.1,299.8,295.1,299.9L295.1,299.9z"/>
		</g>
		<g>
			<path class="st1" d="M302.9,304.2c0.7,0.4,1.6,1.1,2.4,1c0.3,0,0.5-0.2,0.8-0.3c1-0.4,1.8-0.6,2.7,0c0.1,0.1,0.3-0.1,0.2-0.2
				c-0.5-0.5-1.2-0.8-2-0.6c-0.5,0.1-0.7,0.4-1.2,0.5c-1.2,0.4-1.9-0.1-3-0.5C302.9,304,302.8,304.2,302.9,304.2L302.9,304.2z"/>
		</g>
		<g>
			<path class="st1" d="M309.2,304.6c0.5,0.2,0.9,0.3,1.4,0.1c0.5-0.1,0.9-0.5,1.4-0.5c0.5-0.1,1.2,0,1.7,0c1.8-0.1,2.9-1.4,4.6-1.7
				c0.2,0,0.1-0.3,0-0.3c-1.6,0.1-2.6,1.4-4.2,1.5c-0.5,0-1.1-0.2-1.6-0.1c-1.1,0.1-1.9,1.2-3.2,0.7
				C309.2,304.4,309.2,304.5,309.2,304.6L309.2,304.6z"/>
		</g>
		<g>
			<path class="st1" d="M290.9,293.8c0.1,0.8,0.6,1.1,1.3,1.5c0.8,0.6,1.3,1.4,2.1,2.1c0.7,0.5,1.4,0.7,1.9,1.5
				c0.2,0.4,0.4,0.7,0.5,1.1c0.5,0.8,0.7,1.4,1.5,1.9c0.2,0.1,0.4-0.2,0.3-0.3c-1.2-1.1-1.4-2.8-2.7-3.8c-0.4-0.3-0.7-0.4-1-0.5
				c-0.5-0.4-0.9-0.9-1.4-1.3C292.5,295.2,291.2,295,290.9,293.8L290.9,293.8L290.9,293.8z"/>
		</g>
		<g>
			<path class="st1" d="M298.6,301.6c1,0.1,1.9,0.3,2.9,0.1c0.7-0.1,1.4-0.4,2.2-0.4c1.5,0,2.9,0.9,4.3,1c0.1,0,0.1-0.2,0-0.2
				c-1.4-0.3-2.6-1.2-4.1-1.3c-0.6,0-1.1,0.1-1.7,0.2c-1.3,0.3-2.4,0.4-3.7,0.3C298.5,301.5,298.5,301.6,298.6,301.6L298.6,301.6z"
				/>
		</g>
		<g>
			<path class="st1" d="M307.5,302.4c1.5,0.3,3.1,0.6,4.6,0.5c1.8-0.2,3.7,0,5.5-0.5c0.1,0,0.1-0.2-0.1-0.2c-1.6,0.3-3.1,0-4.6,0.2
				c-1.9,0.2-3.5,0.1-5.4-0.1C307.5,302.2,307.4,302.4,307.5,302.4L307.5,302.4z"/>
		</g>
		<g>
			<path class="st1" d="M74.7,283.6c6.2-7.1,13.6-12.4,21.4-17.7c7.7-5.2,15.4-10.4,22.9-15.9c7.1-5.2,14.2-10.6,20.9-16.4
				c6.3-5.4,12.8-11.1,16.7-18.5c0.3-0.5-0.5-1.1-0.8-0.5c-4.2,8-11.3,14-18,19.8c-7.4,6.2-15.2,12-23,17.6
				c-7.4,5.2-14.8,10.4-22.2,15.7c-6.2,4.5-14.1,8.8-18,15.7C74.4,283.5,74.5,283.7,74.7,283.6L74.7,283.6z"/>
		</g>
		<g>
			<path class="st1" d="M86.8,299.6c7-2.2,13.2-8.2,19-12.5c7.7-5.6,15.6-10.8,23.9-15.8c7.8-4.7,15.5-9.2,23.1-14.2
				c4-2.6,8-5.3,12-7.8c4.1-2.5,8.5-4.4,12.5-7c0.5-0.3,0.2-1-0.4-0.8c-8.2,2.6-15.9,8.7-23,13.5c-7.7,5.2-15.6,9.8-23.6,14.6
				c-15.1,9-28.6,20.4-43.6,29.7C86.5,299.4,86.6,299.7,86.8,299.6L86.8,299.6z"/>
		</g>
		<g>
			<path class="st1" d="M155.5,215.9c2.4-1.5,6.9,2.4,8.6,3.9c2.7,2.3,5.1,5.1,7,8c3,4.5,4.2,8.9,5.2,14.2c0.1,0.5,1,0.5,1.1,0
				c1-6.1-3.8-13.5-7.3-17.9c-1.7-2.2-12.2-13.5-14.7-8.4C155.4,215.9,155.5,216,155.5,215.9L155.5,215.9z"/>
		</g>
		<g>
			<path class="st1" d="M176.1,242.5c4.7,0.6,10.6-1.1,13.7-4.7c0.3-0.4-0.1-0.9-0.5-0.6c-2,1.2-3.5,2.6-5.8,3.3
				c-2.4,0.8-5.1,0.8-7.5,1.7C176,242.2,176,242.4,176.1,242.5L176.1,242.5z"/>
		</g>
		<g>
			<path class="st1" d="M172.8,200.2c5.2-1.2,10-3.3,15.5-1.2c4.4,1.7,7.3,5.1,10.5,8.4c0.2,0.2,0.6-0.1,0.5-0.4
				c-5.8-9.3-16.9-12.6-26.5-7.1C172.5,200,172.6,200.2,172.8,200.2L172.8,200.2z"/>
		</g>
		<g>
			<path class="st1" d="M198.7,207.1c2.9,3.7,3,12,1.3,15.7c-1.4,3-3.2,5.7-4.1,8.9c-0.1,0.5,0.5,0.7,0.7,0.4
				c1.4-2.3,2.5-5.1,3.8-7.5c1-2,2.3-3.9,2.1-6.2C202.3,215.1,201.9,209.1,198.7,207.1C198.7,206.9,198.6,207.1,198.7,207.1
				L198.7,207.1z"/>
		</g>
		<g>
			<path class="st1" d="M87.7,271.1c3.3,2.3,6.8,4,9.4,7.1c2.7,3.3,4.2,6.4,5.2,10.6c0.2,0.6,1.1,0.5,1.1-0.2
				c-0.1-8.7-8.3-14.9-15.5-17.7C87.7,270.9,87.7,271.1,87.7,271.1L87.7,271.1z"/>
		</g>
		<g>
			<path class="st1" d="M81.3,276.7c6.7,3.9,11.1,10,14,17.1c0.2,0.5,0.9,0.5,0.9-0.1c-0.1-7-8.6-15.1-14.8-17.2
				C81.3,276.5,81.2,276.7,81.3,276.7L81.3,276.7z"/>
		</g>
		<g>
			<path class="st1" d="M158.9,212c6.1,1.1,11.6,6.7,15.2,11.6c4.1,5.4,6.2,11.6,5.8,18.4c-0.1,0.8,1.2,0.8,1.3,0
				c0.5-7.1-1.9-13.6-6.1-19.2c-3.8-4.9-9.5-10.8-16-11C158.8,211.7,158.7,212,158.9,212L158.9,212z"/>
		</g>
		<g>
			<path class="st1" d="M165.7,204.4c0.9-0.5,1.4-1.2,1.8-2.1c0.7-1.3,1.5-1.5,2.9-1.7c0.9-0.1,1.9-0.2,2.8-0.3c0.5,0,0.5-0.6,0-0.6
				c-1.5-0.1-3.9,0-5.2,0.8c-0.4,0.3-0.5,0.5-0.8,0.9c-0.5,1.1-0.7,2-1.6,2.9C165.5,204.4,165.6,204.5,165.7,204.4L165.7,204.4z"/>
		</g>
		<g>
			<path class="st1" d="M171.7,199.9c8,1.3,13.3,6.8,18.1,12.7c2.6,3.3,4.3,7.1,5.6,11.2c0.9,2.9,0.4,5.2,0.5,8.1
				c0,0.5,0.5,0.5,0.7,0.1c2.4-6.1-2-14.8-5.6-19.4C186.1,206.2,180.4,200.2,171.7,199.9C171.6,199.7,171.6,199.9,171.7,199.9
				L171.7,199.9z"/>
		</g>
		<g>
			<path class="st1" d="M188.7,238.6c1.4-1.3,3.5-1.4,5.1-2.4c1.3-0.8,2.3-2.4,2.8-3.9c0.1-0.5-0.6-0.8-0.8-0.4
				c-0.9,1.8-2.1,3.3-3.9,4.1c-1.4,0.6-2.5,1.2-3.3,2.4C188.4,238.6,188.6,238.7,188.7,238.6L188.7,238.6z"/>
		</g>
		<g>
			<path class="st1" d="M155.7,218c3.8,2.4,8,5.2,10.6,8.9c3.3,4.5,5.2,9.4,7.4,14.4c0.1,0.3,0.5,0.1,0.5-0.2c0-2.4-1.6-5.1-2.7-7.1
				c-1.5-3-3.2-5.9-5.2-8.5c-2.5-3.3-6.7-6.1-10.5-7.7C155.7,217.7,155.6,217.9,155.7,218L155.7,218z"/>
		</g>
		<g>
			<path class="st1" d="M152.5,222.7c3.2,3,7.1,4.8,10,8.2c3.2,3.9,5,8.4,7,12.9c0.1,0.3,0.5,0.1,0.5-0.2c-1.2-4.4-3.4-8.7-6.1-12.3
				c-3-4-7-6.2-11.1-8.9C152.5,222.5,152.4,222.7,152.5,222.7L152.5,222.7z"/>
		</g>
		<g>
			<path class="st1" d="M155.5,215.9c0.8-0.5,1.2-1.2,1.7-2c1.1-1.7,2.4-3.5,3.9-5c2.2-2.3,5.4-4.1,6.6-7.1c0.1-0.2-0.3-0.4-0.4-0.2
				c-1.4,3.3-5.5,5.1-7.8,7.7C157.9,211.3,156.2,213.3,155.5,215.9C155.4,215.9,155.5,215.9,155.5,215.9L155.5,215.9z"/>
		</g>
		<g>
			<path class="st1" d="M165.8,204.5c8.4-3.7,15.9,5.6,20.2,11.5c4.7,6.4,9.9,16.9,1.7,22.7c-0.3,0.2,0,0.7,0.3,0.5
				c9.5-5.5,3.1-17.7-1.8-24.1c-3-3.9-6.1-8.2-10.6-10.4c-3.2-1.5-7.2-3.4-10.2-0.5C165.3,204.4,165.6,204.6,165.8,204.5
				L165.8,204.5z"/>
		</g>
		<g>
			<path class="st1" d="M74.5,283.5c-2.1,8.3,5.2,13.9,12.2,16.3c0.4,0.1,0.5-0.5,0.2-0.5c-3.9-1.6-7.8-3.6-10.2-7.2
				c-1.8-2.7-1.4-5.4-2-8.5C74.6,283.4,74.5,283.4,74.5,283.5L74.5,283.5z"/>
		</g>
		<g>
			<path class="st1" d="M76.1,285.2c2.2,1.7,4.2,3.2,5.8,5.3c0.9,1.2,1.7,2.3,2.4,3.5c0.9,1.7,1.2,3.7,2.1,5.4
				c0.2,0.5,1,0.3,0.9-0.3C87,293,81.4,288,76.1,285.2C76.1,285,76,285.1,76.1,285.2L76.1,285.2z"/>
		</g>
		<g>
			<path class="st1" d="M163.8,209.8c0.2-0.1,0.1-0.4-0.1-0.4c-0.5,0-0.9,0.5-1.2,0.8c-0.3,0.5-0.5,1.1-0.5,1.6c0,0.2,0.3,0.2,0.4,0
				C162.4,211,163.1,210.2,163.8,209.8z"/>
			<path class="st1" d="M160.1,211.2c0,0.1,0.1,0.2,0.2,0.1c0.3-0.4,0.5-0.8,0.8-1.2s0.7-0.6,1.1-0.9c0,0,0-0.1,0.1-0.1
				c-0.1,0.3-0.1,0.5-0.1,0.7c0,0.1,0.1,0.1,0.2,0.1c0.5-0.4,0.6-0.9,1-1.3c0.2-0.2,0.4-0.4,0.6-0.5c0.3-0.1,0.5-0.1,0.6-0.4
				c0.1-0.1,0.1-0.3-0.1-0.4c-0.5-0.3-1.3,0.3-1.5,0.6c-0.3,0.3-0.5,0.6-0.7,1c0-0.2-0.1-0.3-0.3-0.3c-0.8,0.1-1.4,0.8-1.7,1.5
				c0-0.1-0.1-0.1-0.2-0.1c-0.4,0.1-0.7,0.4-1,0.6c-0.2,0.2-0.5,0.6-0.5,0.9c0,0.1,0.1,0.2,0.2,0.1c0.2-0.1,0.2-0.2,0.4-0.4
				c0.1-0.1,0.2-0.3,0.4-0.4c0.2-0.3,0.5-0.4,0.7-0.6C160.2,210.8,160.1,211,160.1,211.2z"/>
			<path class="st1" d="M161.6,210.4c-0.4,0-0.7,0.4-1,0.6c-0.3,0.3-0.5,0.5-0.5,0.9c0,0.1,0.2,0.2,0.2,0.1c0.2-0.4,0.5-0.5,0.8-0.8
				c0.3-0.2,0.6-0.3,0.7-0.6C161.8,210.5,161.7,210.4,161.6,210.4z"/>
			<path class="st1" d="M161.5,208.8c0.2-0.3,0.4-0.6,0.6-0.8c0.2-0.2,0.5-0.3,0.8-0.5c0,0.1-0.1,0.2-0.1,0.2
				c-0.1,0.1,0.1,0.2,0.2,0.1c0.3-0.3,0.5-0.6,0.8-0.9c0.4-0.3,0.8-0.4,1.2-0.5c-0.1,0.1-0.1,0.3-0.1,0.5c0,0.2,0.2,0.3,0.3,0.1
				c0.3-0.5,0.6-0.9,1.1-1.2c0.4-0.2,0.9-0.3,1.2-0.6c0.1-0.1,0-0.3-0.1-0.3c-0.5-0.2-1.2,0.3-1.5,0.5c-0.3,0.2-0.5,0.5-0.6,0.7
				c0-0.1-0.1-0.2-0.2-0.2c-0.9,0-1.4,0.6-1.8,1.3l-0.1-0.1c-0.8-0.1-1.4,0.8-1.6,1.5C161.3,208.8,161.4,208.9,161.5,208.8z"/>
			<path class="st1" d="M166.2,205.1c0.5-0.5,1.2-0.7,1.8-1c0.2-0.1,0.1-0.4-0.1-0.4c-0.7,0.2-1.4,0.6-1.9,1.2
				C165.9,205,166,205.1,166.2,205.1z"/>
			<path class="st1" d="M167.6,205.7c0.4-0.4,0.7-0.8,1.2-1.1c0.2-0.2,0.5-0.3,0.7-0.4c0.2-0.1,0.5-0.1,0.6-0.2
				c0.2-0.1,0.1-0.4-0.1-0.5c-1.2-0.3-2.3,1-2.7,1.9C167.4,205.7,167.5,205.9,167.6,205.7z"/>
			<path class="st1" d="M167.3,207c-0.1,0.1,0.1,0.2,0.2,0.1c0.3-0.5,0.6-0.9,1.2-1.2c0.5-0.3,0.9-0.4,1.4-0.5
				c0.2-0.1,0.2-0.4-0.1-0.4C168.8,205.1,167.8,206,167.3,207z"/>
			<path class="st1" d="M164.5,208.4c0,0.1,0.2,0.2,0.2,0.1c0.3-0.4,0.5-0.8,0.9-1.1s0.8-0.5,1.1-0.7c0.1-0.1,0.1-0.3-0.1-0.4
				C165.6,206,164.5,207.4,164.5,208.4z"/>
			<path class="st1" d="M166.7,208.3c0.2-0.1,0.1-0.5-0.2-0.4c-0.5,0.1-1.1,0.5-1.4,0.9c-0.3,0.4-0.7,1-0.6,1.4
				c0,0.1,0.1,0.2,0.2,0.1c0.2-0.2,0.2-0.4,0.4-0.5c0.1-0.2,0.3-0.5,0.5-0.6C165.9,208.8,166.3,208.7,166.7,208.3z"/>
			<path class="st1" d="M163.9,211.3c0-0.1-0.1-0.2-0.2-0.2c-0.4,0-0.7,0.5-0.8,0.8c-0.1,0.3-0.4,0.8,0,1h0.1
				c0.1-0.3,0.2-0.6,0.4-0.9c0.1-0.1,0.2-0.3,0.3-0.4C163.8,211.5,163.9,211.5,163.9,211.3z"/>
			<path class="st1" d="M167.3,210c0-0.1,0-0.2-0.2-0.3c-0.5-0.2-1.2,0.6-1.5,1c-0.4,0.5-0.7,1.1-0.7,1.8c0,0.2,0.3,0.3,0.3,0.1
				c0.3-0.5,0.5-1.1,0.9-1.5c0.2-0.2,0.5-0.5,0.7-0.6C167.1,210.3,167.2,210.3,167.3,210z"/>
			<path class="st1" d="M169.6,206.8c-0.5-0.1-1,0.5-1.3,0.7c-0.3,0.4-0.5,0.7-0.5,1.2c0,0.1,0.2,0.2,0.3,0c0.1-0.4,0.5-0.7,0.7-0.9
				c0.3-0.3,0.7-0.3,1-0.6C170,207,169.9,206.8,169.6,206.8z"/>
			<path class="st1" d="M170.8,205.8c-0.1,0.2,0.1,0.3,0.3,0.2c0.6-0.6,1.4-0.9,2.1-1.3c0.2-0.1,0.2-0.5-0.1-0.4
				C172.1,204.4,171.4,205,170.8,205.8z"/>
			<path class="st1" d="M171,207.5c-0.1,0.1-0.1,0.4,0.1,0.3c0.5-0.2,0.7-0.5,1.1-0.8c0.5-0.5,1-0.6,1.5-0.9
				c0.2-0.1,0.1-0.5-0.1-0.5c-0.5,0-1,0.3-1.4,0.6C171.8,206.6,171.5,207.2,171,207.5z"/>
			<path class="st1" d="M168.6,210.9c0.2-0.5,0.5-0.8,0.7-1.2c0.3-0.4,0.6-0.6,1-0.9c0.1-0.1,0-0.4-0.1-0.3
				c-1.1,0.1-1.9,1.3-1.8,2.3C168.4,211,168.6,211,168.6,210.9z"/>
			<path class="st1" d="M167.6,211.9c-1.2,0.4-1.4,2.2-1.3,3.2c0,0.2,0.3,0.2,0.3,0c0.2-1.1,0.5-2,1.3-2.7
				C168,212.2,167.7,211.8,167.6,211.9z"/>
			<path class="st1" d="M169.7,213c0.3-0.5,0.5-1,0.9-1.4c0.3-0.4,0.8-0.5,0.9-1c0-0.1,0-0.3-0.2-0.3c-1.2-0.3-1.9,1.8-2,2.6
				C169.5,213.1,169.6,213.1,169.7,213z"/>
			<path class="st1" d="M169.3,214.4c0.1-0.1-0.1-0.3-0.2-0.2c-0.8,0.5-1.1,1.8-0.8,2.7c0.1,0.1,0.2,0.1,0.2-0.1
				c-0.1-0.5,0-1,0.2-1.4C168.7,215,169.1,214.7,169.3,214.4z"/>
			<path class="st1" d="M174.1,207.1c-0.5-0.2-0.9,0.2-1.2,0.5c-0.4,0.4-0.6,0.9-0.9,1.4c-0.1,0.2,0.2,0.5,0.3,0.3
				c0.3-0.4,0.5-0.7,0.9-1.1c0.2-0.2,0.4-0.3,0.5-0.4c0.2-0.1,0.4-0.2,0.5-0.4C174.2,207.3,174.2,207.2,174.1,207.1z"/>
			<path class="st1" d="M173.3,211.1c0.4-0.3,0.5-0.7,0.8-1.1c0.3-0.5,0.7-0.6,1.2-1c0.2-0.2,0-0.5-0.3-0.4
				c-0.6,0.1-1.1,0.6-1.4,1.3c0-0.1-0.1-0.1-0.2-0.1c-1.2-0.2-2.3-0.2-3.5,0c-0.2,0-0.1,0.3,0,0.3c1.2,0,2.3,0.1,3.4,0.2
				c0,0,0,0,0.1,0c-0.2,0.3-0.3,0.5-0.4,0.8C173.1,211.1,173.3,211.2,173.3,211.1z"/>
			<path class="st1" d="M171.3,215.1c0.3-0.5,0.5-1,0.7-1.5c0.2-0.4,0.6-0.7,0.7-1.2c0-0.1,0-0.2-0.1-0.2c-1.2-0.3-1.4,2.1-1.5,2.8
				C171,215.2,171.2,215.3,171.3,215.1z"/>
			<path class="st1" d="M171,216.6c0.2-0.3-0.3-0.5-0.5-0.3c-0.6,0.8-0.8,2-0.2,2.9c0.1,0.1,0.2,0,0.2-0.1
				C170.4,218.2,170.5,217.3,171,216.6z"/>
			<path class="st1" d="M173.8,214c-0.5,0.3-0.6,1-0.6,1.5c-0.1,0.6-0.1,1.3,0.1,1.8c0,0.1,0.2,0.1,0.2,0c0.3-0.5,0.3-1.1,0.4-1.6
				c0.1-0.5,0.4-1,0.3-1.5C174.1,214,173.9,213.9,173.8,214z"/>
			<path class="st1" d="M172.9,218.6c-0.3,0.6-0.3,1.4-0.3,2c0,0.6,0.1,1.2,0.5,1.6c0.1,0.1,0.3,0,0.3-0.1c0-1.1-0.2-2.3,0.2-3.3
				C173.6,218.5,173.1,218.2,172.9,218.6z"/>
			<path class="st1" d="M175.8,220.5c0-0.2-0.3-0.3-0.4-0.1c-0.4,0.5-0.2,1-0.1,1.4c0.2,0.7,0.4,1.4,0.7,2.1
				c0.2,0.3,0.5,0.2,0.5-0.2c-0.1-0.5-0.3-1.2-0.5-1.7C175.9,221.6,175.9,221,175.8,220.5z"/>
			<path class="st1" d="M175.8,215.9c-0.3,0.5-0.4,1.1-0.5,1.6c0,0.5-0.1,1.1,0.3,1.4c0.1,0,0.1,0,0.2,0c0.3-0.4,0.1-0.8,0.2-1.2
				c0.1-0.5,0.3-1.1,0.5-1.5C176.6,215.9,176,215.5,175.8,215.9z"/>
			<path class="st1" d="M176.6,214.4c0.3-0.4,0.4-0.8,0.5-1.2c0.2-0.4,0.5-0.8,0.5-1.3c0-0.3-0.2-0.5-0.4-0.3
				c-0.5,0.2-0.6,0.8-0.8,1.2c-0.2,0.5-0.4,1-0.2,1.4C176.4,214.4,176.6,214.4,176.6,214.4z"/>
			<path class="st1" d="M174.9,212.7c0.3-0.5,0.5-0.9,0.7-1.4c0.3-0.4,0.8-0.6,0.9-1.1c0-0.2-0.1-0.4-0.3-0.4
				c-0.5,0-0.9,0.6-1.2,1.1c-0.3,0.5-0.5,1-0.5,1.6C174.6,212.7,174.9,212.8,174.9,212.7z"/>
			<path class="st1" d="M176.5,206.3c-0.3,0.3-0.6,0.8-0.5,1.2c0,0.1,0.1,0.1,0.1,0c0.2-0.1,0.3-0.3,0.4-0.4
				c0.1-0.2,0.3-0.4,0.4-0.5C177,206.4,176.7,206.1,176.5,206.3z"/>
			<path class="st1" d="M174.9,206.2c-0.1,0.1,0.1,0.2,0.2,0.1c0.3-0.3,0.6-0.5,0.7-1c0-0.1-0.1-0.1-0.2-0.1
				C175.2,205.4,175.1,205.9,174.9,206.2z"/>
			<path class="st1" d="M177.4,208.9c0.2-0.2,0.4-0.5,0.5-0.6c0.2-0.2,0.4-0.4,0.5-0.6c0.1-0.3-0.3-0.5-0.5-0.4
				c-0.5,0.3-0.7,1-0.8,1.5C177,209,177.2,209.1,177.4,208.9z"/>
			<path class="st1" d="M178.7,209.2c-0.1,0.3-0.4,0.6-0.3,0.9c0,0.1,0.2,0.2,0.3,0.1c0.1-0.1,0.2-0.2,0.3-0.3
				c0.1-0.2,0.2-0.3,0.3-0.5c0.2-0.3,0.5-0.5,0.5-0.8c0-0.2-0.2-0.3-0.3-0.3C179,208.5,178.8,208.9,178.7,209.2z"/>
			<path class="st1" d="M180.8,209.8c-0.3,0.1-0.4,0.4-0.5,0.6c-0.1,0.3-0.2,0.5-0.3,0.8c0,0.2,0.2,0.2,0.2,0.1
				c0.2-0.3,0.3-0.5,0.5-0.7c0.2-0.2,0.4-0.4,0.4-0.6C181,209.8,180.8,209.7,180.8,209.8z"/>
			<path class="st1" d="M178.7,216c0.1-0.5,0.5-1.1,0.6-1.4c0.2-0.5,0.5-0.9,0.6-1.4c0.1-0.3-0.3-0.5-0.5-0.4
				c-0.5,0.3-0.6,1-0.7,1.5C178.6,214.9,178.5,215.4,178.7,216C178.4,216.1,178.6,216.1,178.7,216z"/>
			<path class="st1" d="M181.4,212c0,0.2,0,0.5,0.2,0.5s0.4-0.1,0.5-0.3c0.1-0.2,0.3-0.5,0.4-0.6c0.1-0.4-0.3-0.5-0.5-0.5
				C181.6,211.4,181.4,211.7,181.4,212z"/>
			<path class="st1" d="M180.9,217.1c0.2-0.5,0.3-1.1,0.4-1.6c0.1-0.4,0.3-0.8,0.2-1.2c0-0.1-0.2-0.2-0.3-0.1
				c-0.4,0.2-0.4,0.6-0.4,1c-0.1,0.6-0.2,1.3-0.2,1.8C180.7,217.2,180.8,217.2,180.9,217.1z"/>
			<path class="st1" d="M178.5,220.5c0.3-0.9,0.2-1.8,0.4-2.7c0.1-0.5-0.7-0.7-0.8-0.1c-0.1,0.9-0.2,2,0.2,2.9
				C178.3,220.7,178.5,220.7,178.5,220.5z"/>
			<path class="st1" d="M178.2,222c-0.1,0.8,0,2.3,0.8,2.8c0.1,0,0.2,0,0.2-0.1c0.1-0.5-0.1-0.9-0.1-1.4c-0.1-0.5-0.1-1-0.2-1.4
				C178.9,221.6,178.3,221.8,178.2,222z"/>
			<path class="st1" d="M180.3,218.8c-0.2,0.5,0,1,0.1,1.4c0.1,0.5,0.1,1,0.4,1.4c0.1,0.1,0.2,0.1,0.3,0c0.2-0.5,0.2-1,0.1-1.4
				c0-0.5,0-1.1-0.2-1.5C180.8,218.5,180.4,218.6,180.3,218.8z"/>
			<path class="st1" d="M182.6,218.2c0,0.3,0.4,0.4,0.5,0.1c0.3-0.8,0.5-2.1,0-2.8c-0.1-0.2-0.5-0.2-0.5,0.1c-0.1,0.5,0,0.8,0,1.3
				S182.6,217.7,182.6,218.2z"/>
			<path class="st1" d="M183.6,222.4c0,0,0.1,0.1,0.2,0c0.4-0.3,0.3-0.8,0.3-1.3c-0.1-0.5-0.2-1.2-0.5-1.5c-0.2-0.2-0.5,0-0.5,0.2
				c0,0.5,0.3,0.9,0.3,1.4C183.3,221.7,183.2,222.1,183.6,222.4z"/>
			<path class="st1" d="M185.5,219.1c0.1,0.1,0.1,0.1,0.2,0c0.7-0.6,0.4-2.3-0.3-2.8c-0.2-0.2-0.5-0.1-0.5,0.2
				c0,0.5,0.2,0.9,0.3,1.4C185.2,218.3,185.2,218.8,185.5,219.1z"/>
			<path class="st1" d="M182.4,225.7c0.3-0.4-0.1-0.9-0.2-1.3c-0.2-0.5-0.5-1-0.8-1.4c-0.1-0.1-0.3,0-0.2,0.1
				c0.2,0.9,0.6,1.7,0.9,2.6C182.1,225.8,182.3,225.8,182.4,225.7z"/>
			<path class="st1" d="M179.7,226.3c-0.2-0.2-0.4-0.1-0.5,0.1c-0.2,0.5,0,1,0.2,1.4c0.2,0.5,0.4,1,0.7,1.4c0.3,0.3,0.7,0.1,0.6-0.3
				c-0.1-0.5-0.3-1-0.5-1.5C180.1,227.1,180,226.6,179.7,226.3z"/>
			<path class="st1" d="M176.8,225.2c-0.2-0.3-0.6-0.2-0.5,0.2c0,0.5,0.2,1,0.4,1.5c0.1,0.5,0.2,0.9,0.5,1.3c0.1,0.1,0.2,0,0.3-0.1
				c0.2-0.5,0-0.9-0.1-1.4C177.2,226.1,177,225.6,176.8,225.2z"/>
			<path class="st1" d="M184.2,225.5c0.2,0.5,0.3,1.1,0.7,1.3c0.1,0,0.2,0,0.2,0c0.4-0.4,0.2-1.1,0-1.6c-0.3-0.6-0.7-1.1-1.3-1.5
				c-0.1-0.1-0.3,0-0.3,0.2C183.8,224.3,183.9,224.9,184.2,225.5z"/>
			<path class="st1" d="M189.2,224.2c0.1,0.2,0.3,0.2,0.4,0c0.3-0.5,0.2-1.2,0-1.7c-0.1-0.3-0.2-0.5-0.4-0.7
				c-0.2-0.3-0.5-0.4-0.6-0.6c-0.1-0.1-0.3-0.1-0.3,0.1c0.1,0.5,0.5,0.8,0.5,1.4C189.2,223.1,189,223.7,189.2,224.2z"/>
			<path class="st1" d="M189.9,224.9c-0.2-0.1-0.3,0.1-0.2,0.2c0.5,0.5,0.6,1.1,0.8,1.6c0.2,0.3,0.6,0.1,0.6-0.2
				c0-0.4-0.2-0.7-0.4-1.1C190.5,225.3,190.2,225.1,189.9,224.9z"/>
			<path class="st1" d="M187,224.7C186.9,224.7,186.8,224.7,187,224.7c0.2,0.5,0.3,1.1,0.4,1.5c0.1,0.4,0.1,0.8,0.5,1.1
				c0.1,0.1,0.3,0,0.3-0.1c0.3-0.5,0-1-0.2-1.4C187.6,225.4,187.4,224.9,187,224.7z"/>
			<path class="st1" d="M186.4,223.6c0.2-0.5,0-1.3-0.1-1.8c-0.1-0.5-0.2-0.9-0.5-1.3c-0.1-0.1-0.2,0-0.2,0.1c0.3,1,0.3,1.9,0.4,2.9
				C186,223.8,186.4,223.8,186.4,223.6z"/>
			<path class="st1" d="M182.3,227.5c0.1,0.8,0.4,1.8,0.9,2.3c0.2,0.2,0.5,0,0.5-0.2c0-0.8-0.5-1.7-1.2-2.3
				C182.5,227.4,182.3,227.4,182.3,227.5z"/>
			<path class="st1" d="M186.4,230c0.2,0.1,0.4,0,0.4-0.2c0-0.5-0.3-0.9-0.6-1.3c-0.1-0.1-0.5-0.7-0.7-0.5c-0.1,0.3,0.2,0.7,0.3,1
				C185.9,229.4,186.1,229.7,186.4,230z"/>
			<path class="st1" d="M180.8,230.9c-0.1,0.9,0.9,1.4,1.3,2c0.1,0.3,0.5,0,0.4-0.3c-0.4-0.6-0.6-1.4-1.2-2
				C181.1,230.5,180.8,230.6,180.8,230.9z"/>
			<path class="st1" d="M184.2,231c-0.1,0-0.2,0-0.2,0.1c0,0.4,0.2,0.7,0.4,1c0.3,0.4,0.5,0.6,0.8,0.9c0.3,0.2,0.6-0.2,0.5-0.5
				c-0.2-0.4-0.5-0.5-0.7-0.8C184.7,231.4,184.5,231.2,184.2,231z"/>
			<path class="st1" d="M183.5,234.9c0.3,0.2,0.5,0.3,0.7,0.4c0.1,0,0.2-0.1,0.1-0.2c-0.4-0.5-0.6-0.9-1-1.3
				c-0.1-0.1-0.3-0.1-0.4-0.1c-0.2,0-0.2,0.1-0.3,0.3c0,0.1,0,0.3,0.1,0.4C182.9,234.4,183.2,234.7,183.5,234.9z"/>
			<path class="st1" d="M188.4,232.5c0.1,0.1,0.4,0,0.5-0.1s0.1-0.2,0.1-0.3c0-0.2-0.1-0.3-0.2-0.4c-0.2-0.1-0.5-0.3-0.6-0.4
				c-0.2-0.1-0.4-0.3-0.5-0.5c-0.1-0.1-0.2,0-0.2,0.1C187.3,231.7,187.9,232.3,188.4,232.5z"/>
			<path class="st1" d="M189.4,229.9c0.3,0.1,0.5,0,0.5-0.4s-0.4-0.8-0.6-1c-0.3-0.2-0.5-0.4-0.9-0.5c-0.1,0-0.2,0.1-0.2,0.2
				c0,0.4,0.3,0.5,0.5,0.8C189,229.4,189.1,229.7,189.4,229.9z"/>
			<path class="st1" d="M191.6,231.4c0.3,0,0.5-0.3,0.3-0.5c-0.2-0.4-0.9-0.5-1.4-0.5c-0.1,0-0.2,0.2-0.1,0.3
				C190.7,231,191.1,231.4,191.6,231.4z"/>
			<path class="st1" d="M181,235.7c0.2,0,0.3-0.3,0.3-0.5c-0.1-0.3-0.3-0.4-0.5-0.5c-0.2-0.1-0.5-0.3-0.6-0.3
				c-0.2,0-0.3,0.1-0.3,0.3c0.1,0.3,0.3,0.5,0.5,0.6C180.5,235.6,180.7,235.8,181,235.7z"/>
			<path class="st1" d="M182.8,236.9c-0.4-0.2-0.8-0.6-1.3-0.5c0,0,0,0,0,0.1c0,0.5,0.5,1.1,1,1.3
				C183.1,238.1,183.6,237.1,182.8,236.9z"/>
			<path class="st1" d="M185,236.1c0.2,0.4,0.6,0.5,1,0.5c0.4-0.1,0.3-0.5,0-0.6c-0.3-0.1-0.5-0.2-0.8-0.2
				C185,235.8,184.9,236,185,236.1z"/>
			<path class="st1" d="M191.9,231.3c-0.6,0.2-1.3,0.5-1.9,0.9c-0.1,0.1,0,0.2,0.1,0.2c0.6-0.2,1.4-0.5,1.9-0.9
				C192.1,231.4,192,231.3,191.9,231.3z"/>
			<path class="st1" d="M191.8,233.2C191.8,233.2,191.7,233.2,191.8,233.2c0-0.1,0-0.1,0.1-0.2s0-0.3-0.2-0.3
				c-0.2,0.1-0.4,0.2-0.5,0.2c-0.6-0.2-1.4-0.4-2-0.4c0.2-0.1,0.4-0.3,0.5-0.5c0.3-0.3,0.6-0.6,0.5-1.1c0-0.3-0.4-0.4-0.5-0.1
				c-0.2,0.4-0.3,0.6-0.5,0.9c-0.2,0.3-0.4,0.5-0.6,0.7c-0.5,0.1-1.2,0.3-1.7,0.7c-0.1,0.1,0,0.3,0.1,0.2c0.8-0.3,1.4-0.6,2.3-0.5
				c0.5,0,0.9,0.1,1.3,0.2h-0.1c-0.3,0.2-0.8,0.3-0.9,0.6v0.1c0.4,0.1,0.8-0.1,1.2-0.3h0.1c-0.4,0.5-0.7,0.9-1.2,1.3
				c-0.1,0-0.1,0.1-0.2,0.1c0.1-0.2,0-0.5-0.3-0.5c-0.2,0-0.4,0-0.5,0.1s-0.2,0.4-0.1,0.5c0.2,0.1,0.3,0.2,0.5,0.2
				c-0.4,0.2-0.7,0.4-1.1,0.5c-0.1,0,0,0.1,0,0.1c0.5-0.1,1.1-0.4,1.6-0.6c-0.1,0.2-0.2,0.4-0.3,0.5h-0.1c-0.8,0.4-1.5,0.8-2.3,1.1
				c0,0,0-0.1,0.1-0.1c0.1-0.1,0.3-0.2,0.4-0.3c0.1-0.1,0.1-0.2,0-0.2c0.5-0.5,0.7-0.9,1-1.4c0.2-0.3,0.3-0.5,0.5-0.8
				s0.5-0.5,0.5-0.8c0-0.2-0.1-0.2-0.2-0.2c-0.5,0.2-0.7,0.9-1,1.4c0,0,0,0,0,0.1l0,0c-0.2,0.1-0.3,0.2-0.4,0.2
				c0.2-0.2,0.1-0.5-0.2-0.6c-0.2,0-0.5-0.1-0.6-0.1c-0.3-0.1-0.5-0.2-0.7-0.3c-0.1,0-0.2,0.1-0.1,0.2c0.2,0.2,0.4,0.4,0.5,0.6
				c0.2,0.2,0.4,0.3,0.5,0.4c0.1,0,0.1,0.1,0.2,0.1c-0.1,0.1-0.3,0.2-0.4,0.2c-0.4,0.2-0.7,0.3-1.1,0.5c-0.1,0,0,0.2,0,0.2
				c0.6-0.1,1.4-0.4,2-0.7c-0.2,0.4-0.4,0.8-0.7,1.2h-0.1c-0.5,0.2-0.8,0.5-1.2,0.6c-0.5,0.2-0.8,0.3-1.3,0.5c-0.1,0,0,0.2,0,0.2
				c0.5,0,1.2-0.1,1.7-0.4c-0.3,0.3-0.5,0.5-0.8,0.8c-0.1,0.1-0.2,0.1-0.3,0.2c0-0.1,0-0.2,0-0.3l0,0c-0.1-0.1-0.2-0.2-0.3-0.2
				c-0.2,0-0.5,0.1-0.6,0.1c-0.1,0-0.2,0.2,0,0.3c0.2,0.1,0.4,0.2,0.5,0.2l0,0c-0.4,0.2-0.8,0.4-1.3,0.5c-0.1,0-0.1,0.2,0.1,0.2
				c0.8-0.1,1.7-0.5,2.3-1c-0.1,0.1-0.1,0.2-0.2,0.3c-0.2,0.2-0.4,0.4-0.5,0.5c-0.4,0.1-0.7,0.3-1.1,0.3c-0.1,0-0.1,0.2,0,0.2h0.1
				c-0.5,0.2-1,0.2-1.5,0.2c-0.1,0-0.1,0.1,0,0.2c0.3,0.1,0.5,0.1,0.8,0.1l0,0c-0.8,0.7-1.7,1.4-2.9,1.4c-0.1,0-0.1,0.1,0,0.1
				c1.2,0.2,2.3-0.4,2.9-1.3c0,0,0,0,0.1,0c0.6,0,1.4-0.1,1.8-0.5c0.2-0.1,0-0.4-0.2-0.3c-0.5,0.3-1,0.5-1.5,0.5c0-0.1,0-0.1,0-0.1
				c0.3,0,0.5-0.1,0.8-0.3c0.1-0.1,0-0.2,0-0.2c0.7,0,1.6-0.1,2.2-0.5c0.1-0.1,0-0.3-0.2-0.3c-0.3,0.1-0.5,0.2-0.7,0.3
				c0.1-0.1,0.2-0.2,0.2-0.3c0.1-0.2,0.3-0.3,0.4-0.5c0,0.1,0,0.1,0.1,0.1c0.5,0,1.1-0.1,1.6-0.4c-0.3,0.3-0.7,0.5-1.2,0.5
				c-0.1,0-0.1,0.2,0,0.2c1-0.1,1.6-0.6,2.2-1.4h0.1c0.5-0.3,1.2-0.5,1.5-1.1c0.1-0.1-0.1-0.2-0.1-0.2c0.4-0.2,0.7-0.4,1-0.6
				c0.2-0.2-0.1-0.5-0.3-0.4c-0.5,0.4-1.1,0.7-1.6,1c0.1-0.2,0.2-0.5,0.2-0.6c0.1-0.1,0.2-0.1,0.2-0.2c0.5-0.1,1.1-0.1,1.5-0.4
				c0.2-0.1,0.1-0.5-0.2-0.4c-0.4,0.1-0.7,0.3-1.2,0.5c0.3-0.3,0.5-0.5,0.7-0.9c0-0.1,0-0.1,0-0.1
				C191.4,233.2,191.5,233.2,191.8,233.2c0,0,0.1,0,0.2,0.1C191.9,233.4,192,233.2,191.8,233.2z M186.4,237.8L186.4,237.8
				c0-0.1,0.1-0.2,0.1-0.4c0,0,0,0,0-0.1c0.1-0.1,0.2-0.2,0.3-0.4c0,0,0,0,0.1,0c0.8-0.1,1.5-0.4,2.3-0.7c-0.1,0.3-0.3,0.5-0.5,0.7
				c-0.1-0.1-0.2-0.1-0.3,0C187.8,237.3,187.1,237.5,186.4,237.8z M190.6,235.7c-0.5,0.4-0.8,0.7-1.4,1c0.1-0.2,0.3-0.5,0.4-0.7
				C189.9,235.9,190.2,235.8,190.6,235.7z"/>
			<path class="st1" d="M183.1,239c0.3-0.4,0.5-0.8,0.6-1.2c0.3-0.5,0.6-1,0.8-1.5c0.1-0.1-0.1-0.3-0.2-0.1
				c-0.4,0.8-0.8,1.4-1.3,2.3c-0.5,0.9-1.5,1.3-2.5,1.5c-0.1,0-0.1,0.2,0,0.2C181.6,239.9,182.5,239.7,183.1,239z"/>
			<path class="st1" d="M181.3,238.7c0.7-0.1,1.4-0.3,2.1-0.7c0.1-0.1,0-0.2-0.1-0.2c-0.6,0.3-1.4,0.5-2.1,0.7
				C181.2,238.5,181.2,238.7,181.3,238.7z"/>
			<path class="st1" d="M181.9,239.3c0.2,0,0.3-0.4,0.1-0.4c-0.3-0.1-0.5-0.2-0.8-0.2c-0.2-0.1-0.4-0.2-0.6-0.1c0,0-0.1,0.1,0,0.1
				c0.1,0.3,0.4,0.4,0.5,0.5C181.3,239.2,181.6,239.3,181.9,239.3z"/>
			<path class="st1" d="M180.8,240.8c0.8-0.1,1.8-0.5,2-1.4c0-0.1-0.1-0.1-0.1-0.1c-0.3,0.2-0.5,0.5-0.8,0.7
				c-0.4,0.2-0.7,0.4-1.1,0.5C180.7,240.7,180.7,240.8,180.8,240.8z"/>
			<path class="st1" d="M191.5,228.9c0-0.1-0.1-0.3-0.3-0.2c-0.5,0.4-0.9,0.8-1.4,1.2c-0.5,0.5-1.2,0.8-1.7,1.1
				c-0.1,0.1,0,0.3,0.1,0.2C189.5,231,191.3,230.3,191.5,228.9z"/>
			<path class="st1" d="M187.3,232.2c0.1-0.2-0.2-0.4-0.4-0.3c-0.2,0.2-0.3,0.3-0.5,0.5c-0.3,0.3-0.5,0.5-0.8,0.6
				c-0.5,0.4-1.2,0.7-1.8,0.8c-0.1,0,0,0.1,0,0.1c0.7,0.1,1.4-0.3,2-0.5C186.4,233.2,187.2,232.7,187.3,232.2z"/>
			<path class="st1" d="M180.7,236.4c0.5,0,0.9-0.2,1.3-0.5c0.3-0.2,0.6-0.5,0.6-0.9c0-0.2-0.2-0.3-0.3-0.2
				c-0.3,0.2-0.5,0.5-0.7,0.6s-0.6,0.4-1,0.5C180.3,236.1,180.4,236.5,180.7,236.4z"/>
			<path class="st1" d="M185.6,234.1c-0.4,0.5-0.8,0.9-1.4,1.3c-0.5,0.3-1.2,0.5-1.7,0.9c-0.2,0.1-0.1,0.4,0.1,0.4
				c1.5-0.1,2.4-1.1,3.3-2.3C185.9,234.1,185.7,234,185.6,234.1z"/>
			<path class="st1" d="M180,234.1c1.3,0,3.1-0.5,3.9-1.6c0.2-0.3-0.2-0.5-0.5-0.4c-0.5,0.4-0.7,0.9-1.4,1.2
				c-0.6,0.4-1.4,0.5-2.1,0.6C179.9,234,179.9,234.1,180,234.1z"/>
			<path class="st1" d="M188.3,229.2c0-0.2-0.2-0.3-0.3-0.1c-0.5,0.5-0.7,0.9-1.4,1.3c-0.5,0.3-1.1,0.5-1.6,0.9
				c-0.1,0.1,0,0.2,0.1,0.2C186.4,231.4,188.1,230.5,188.3,229.2z"/>
			<path class="st1" d="M191.5,227.6c0.2-0.1,0-0.4-0.2-0.4c-0.3,0.1-0.5,0.3-0.8,0.4c-0.3,0.2-0.5,0.3-0.8,0.5
				c-0.1,0.1,0,0.3,0.1,0.2c0.3-0.1,0.6-0.2,0.9-0.3C191,228,191.2,227.9,191.5,227.6z"/>
			<path class="st1" d="M189.8,226.3c0.1-0.1,0-0.2-0.1-0.2c-0.5,0.1-0.9,0.6-1.4,1c-0.6,0.5-1.2,1-1.9,1.3c-0.1,0.1-0.1,0.2,0,0.3
				c0.6,0,1.2-0.2,1.7-0.5C188.9,227.5,189.2,226.7,189.8,226.3z"/>
			<path class="st1" d="M182.2,229.5c0.1-0.2,0-0.4-0.3-0.3c-1.1,0.5-2.3,0.7-3.3,1.4c-0.1,0.1-0.1,0.3,0.1,0.3
				c0.7-0.1,1.4-0.3,2-0.5C181.3,230.3,181.8,230,182.2,229.5z"/>
			<path class="st1" d="M180.5,231.8c-0.2,0.1-0.4,0.1-0.5,0.3c-0.2,0.1-0.3,0.3-0.5,0.4c-0.2,0.1-0.1,0.3,0.1,0.3
				c0.5-0.1,0.8-0.2,1.1-0.5C180.9,231.9,180.8,231.7,180.5,231.8z"/>
			<path class="st1" d="M182.6,231.3c0.6-0.2,1.3-0.5,1.9-0.7c0.5-0.2,0.9-0.5,1-0.9c0.1-0.2-0.2-0.3-0.3-0.3
				c-0.5,0.2-0.8,0.5-1.2,0.7c-0.5,0.3-1.1,0.5-1.6,0.7C182.1,231.1,182.3,231.4,182.6,231.3z"/>
			<path class="st1" d="M187.1,226.5c0.1-0.1-0.1-0.3-0.2-0.2c-1.1,0.6-2.2,1.3-3.3,1.7c-0.3,0.1-0.1,0.5,0.2,0.4
				C184.9,228.2,186.5,227.6,187.1,226.5z"/>
			<path class="st1" d="M183.6,225.5c-1.1,0.5-2.3,1.1-3.3,1.6c-0.2,0.1-0.1,0.5,0.1,0.5c1.2-0.1,2.5-0.9,3.3-1.7
				C184,225.7,183.9,225.4,183.6,225.5z"/>
			<path class="st1" d="M179.4,228.3c0-0.1,0-0.2-0.1-0.2c-0.3-0.1-0.5,0.1-0.8,0.2c-0.3,0.1-0.5,0.2-0.8,0.5
				c-0.2,0.2,0,0.4,0.2,0.4c0.3,0,0.6-0.1,0.9-0.2C178.9,228.7,179.3,228.5,179.4,228.3z"/>
			<path class="st1" d="M188.2,222.7c-0.4,0.5-0.8,0.7-1.3,1c-0.5,0.3-1.1,0.5-1.5,0.8c-0.3,0.2-0.1,0.5,0.2,0.5
				c1.2-0.2,2.4-1,2.9-2.1C188.4,222.7,188.3,222.5,188.2,222.7z"/>
			<path class="st1" d="M179.1,226c0.6-0.4,1.3-0.7,1.9-1c0.4-0.2,0-0.7-0.4-0.5c-0.6,0.4-1.4,0.5-2.1,0.8c-0.5,0.2-1,0.4-1.4,0.8
				c-0.1,0.1,0,0.3,0.2,0.4C178,226.6,178.6,226.3,179.1,226z"/>
			<path class="st1" d="M182.3,224c0.6,0.1,1.4-0.5,1.9-0.7c0.5-0.4,1.2-0.6,1.5-1.3c0.1-0.1,0-0.3-0.2-0.3
				c-0.6,0.1-1.2,0.6-1.7,0.9c-0.5,0.3-1.3,0.5-1.6,1C182,223.8,182.1,224,182.3,224z"/>
			<path class="st1" d="M188.2,220.1c-0.4,0.2-0.6,0.4-1,0.5c-0.2,0.1-0.5,0.4-0.3,0.5c0.2,0.2,0.5,0,0.7-0.1
				c0.3-0.1,0.6-0.2,0.9-0.4C188.9,220.4,188.5,219.8,188.2,220.1z"/>
			<path class="st1" d="M184.1,220.7c0.5,0,1.3-0.4,1.7-0.6c0.5-0.3,1.3-0.5,1.6-1.1c0.1-0.2-0.1-0.5-0.3-0.5c-0.5,0.2-1,0.7-1.5,1
				c-0.5,0.3-1.2,0.5-1.5,0.9C183.9,220.5,184,220.7,184.1,220.7z"/>
			<path class="st1" d="M179.4,223.2c0.5,0.2,1.2-0.2,1.6-0.5c0.5-0.3,1.3-0.5,1.5-1c0.1-0.2-0.1-0.3-0.2-0.3
				c-0.3,0-0.5,0.2-0.7,0.3c-0.4,0.2-0.6,0.3-1,0.5c-0.5,0.2-1.1,0.4-1.4,0.8C179.3,223.1,179.3,223.2,179.4,223.2z"/>
			<path class="st1" d="M177.9,224c0.1-0.1,0-0.3-0.1-0.3c-0.5,0-0.9,0.2-1.3,0.4c-0.5,0.2-0.9,0.3-1.3,0.5
				c-0.1,0.1-0.1,0.3,0.1,0.3c0.5,0,0.9-0.1,1.4-0.3C177,224.5,177.5,224.3,177.9,224z"/>
			<path class="st1" d="M179.8,220.6c0.1-0.1,0-0.2-0.1-0.2c-0.5,0-1.1,0.3-1.5,0.5c-0.6,0.3-1.3,0.5-1.8,0.8
				c-0.2,0.1-0.1,0.4,0.2,0.4C177.6,221.9,179.1,221.5,179.8,220.6z"/>
			<path class="st1" d="M181.7,219.8c0.6-0.1,1.2-0.4,1.7-0.6c0.5-0.3,1.1-0.5,1.4-0.9c0.1-0.1,0-0.3-0.2-0.3c-0.5,0-1,0.4-1.4,0.6
				c-0.5,0.3-1.2,0.5-1.6,0.9C181.4,219.6,181.5,219.8,181.7,219.8z"/>
			<path class="st1" d="M182.2,217c-0.5,0.2-1,0.5-1.5,0.7c-0.5,0.3-1.2,0.5-1.7,0.7c-0.1,0.1-0.1,0.3,0.1,0.3
				c0.6-0.1,1.3-0.3,1.8-0.5c0.5-0.2,1.2-0.5,1.5-0.9C182.6,217.3,182.5,216.9,182.2,217z"/>
			<path class="st1" d="M175.9,220.1c0.5-0.1,1.2-0.2,1.4-0.7c0.1-0.2,0-0.3-0.2-0.3c-0.5,0-1.2,0.2-1.6,0.4
				c-0.6,0.2-1.2,0.3-1.7,0.5c-0.2,0.1-0.1,0.4,0.1,0.4C174.4,220.3,175.2,220.2,175.9,220.1z"/>
			<path class="st1" d="M175.2,222.4c0-0.1,0-0.2-0.1-0.3s-0.3-0.2-0.4-0.1c-0.4,0.1-0.8,0.3-1.1,0.5c-0.1,0.1-0.1,0.2,0,0.3
				c0.4,0.2,0.9,0,1.3-0.1C175.2,222.7,175.2,222.6,175.2,222.4z"/>
			<path class="st1" d="M174.7,217.7c0.2-0.1,0.1-0.4-0.1-0.4c-0.5-0.1-1.2,0.2-1.7,0.3c-0.6,0.1-1.3,0.2-1.9,0.4
				c-0.2,0.1-0.2,0.4,0.1,0.4c0.6,0.1,1.3,0,1.9-0.1C173.5,218.1,174.2,218.1,174.7,217.7z"/>
			<path class="st1" d="M176.7,217.4c1.1-0.1,2.6-0.6,3.3-1.4c0.1-0.1,0-0.3-0.1-0.2c-0.6,0.2-1.2,0.5-1.7,0.7
				c-0.5,0.2-1.1,0.4-1.6,0.6C176.4,217.3,176.5,217.5,176.7,217.4z"/>
			<path class="st1" d="M184.1,213.9c0.1-0.2,0-0.3-0.2-0.3c-0.5,0.1-0.9,0.4-1.3,0.6c-0.4,0.2-0.9,0.4-1.1,0.8
				c-0.1,0.1,0,0.3,0.1,0.3c0.5,0.1,1-0.3,1.4-0.5C183.4,214.7,183.8,214.4,184.1,213.9z"/>
			<path class="st1" d="M179.7,214.3c1.2-0.3,2.2-0.9,3.3-1.4c0.3-0.1,0.1-0.5-0.2-0.5c-1.1,0.5-2.3,0.8-3.2,1.6
				C179.5,214.2,179.6,214.3,179.7,214.3z"/>
			<path class="st1" d="M178,214.3c-0.6,0-1.3,0.4-1.9,0.5c-0.6,0.3-1.2,0.5-1.8,0.7c-0.2,0.1,0,0.3,0.1,0.3c0.6-0.1,1.3-0.4,2-0.5
				c0.5-0.2,1.2-0.3,1.7-0.6C178.3,214.5,178.2,214.3,178,214.3z"/>
			<path class="st1" d="M172.8,215.9c0.2,0,0.2-0.4,0-0.4c-0.7-0.2-1.4-0.1-2.2-0.1c-0.6,0-1.3,0.1-1.8,0.3c-0.1,0.1-0.1,0.2,0,0.3
				c0.6,0.2,1.4,0.1,2,0C171.5,216,172.2,216,172.8,215.9z"/>
			<path class="st1" d="M170.7,213.8c0.2,0,0.2-0.3,0-0.3c-1-0.6-2.3-0.5-3.4-0.2c-0.2,0-0.2,0.4,0.1,0.4
				C168.5,213.7,169.6,214.1,170.7,213.8z"/>
			<path class="st1" d="M176.1,212.8c-1.3-0.3-2.7,0.2-3.8,0.8c-0.2,0.1-0.1,0.4,0.2,0.4c1.2-0.3,2.5-0.4,3.7-0.8
				C176.2,213.1,176.3,212.9,176.1,212.8z"/>
			<path class="st1" d="M177.8,213c0.6-0.2,1.2-0.5,1.7-0.7c0.6-0.3,1.3-0.5,1.9-0.8c0.2-0.1,0.1-0.4-0.1-0.4
				c-1.2,0.1-2.8,0.8-3.6,1.6C177.5,212.9,177.6,213.1,177.8,213z"/>
			<path class="st1" d="M176.2,211.6c0.5,0,1.2-0.2,1.7-0.4s1.2-0.3,1.7-0.5c0.2-0.1,0.1-0.5-0.1-0.5c-0.6,0-1.4,0.2-1.9,0.4
				c-0.5,0.2-1.2,0.4-1.5,0.7C176.1,211.4,176.1,211.6,176.2,211.6z"/>
			<path class="st1" d="M170.8,212c0.5,0.2,1.1,0.1,1.6,0c0.5-0.1,1.1,0,1.6-0.2c0.3-0.1,0.2-0.4,0-0.5c-0.5-0.2-1.3-0.2-1.8-0.2
				c-0.5,0-1.1,0.1-1.4,0.5C170.6,211.7,170.7,211.9,170.8,212z"/>
			<path class="st1" d="M166.7,211.4c0.9,0,1.8,0.1,2.7,0.3c0.3,0.1,0.4-0.3,0.1-0.4c-0.9-0.3-1.8-0.4-2.8-0.3
				C166.6,211.1,166.5,211.4,166.7,211.4z"/>
			<path class="st1" d="M175,210c1-0.3,2.1-0.3,3.1-0.5c0.3,0,0.2-0.4-0.1-0.5c-1-0.1-2.2,0.2-3.1,0.5
				C174.6,209.8,174.7,210,175,210z"/>
			<path class="st1" d="M173.9,208.1c-0.1,0-0.1,0.2,0,0.2c0.8-0.1,1.6,0,2.5,0.1c0.3,0,0.4-0.5,0.1-0.5
				C175.6,207.7,174.7,207.9,173.9,208.1z"/>
			<path class="st1" d="M169,207.9c-0.1,0-0.1,0.2,0,0.2c0.5,0,1,0,1.4,0.1c0.4,0.1,0.7,0.2,1.2,0.2c0.2,0,0.2-0.3,0-0.3
				c-0.4-0.3-0.8-0.3-1.3-0.3S169.5,207.9,169,207.9z"/>
			<path class="st1" d="M167.5,207.3c-0.5-0.1-0.9-0.2-1.4-0.2c-0.2,0-0.2,0.3,0,0.3c0.4,0.2,0.8,0.3,1.3,0.5c0.1,0,0.2,0,0.3-0.1
				l0,0c0.1-0.1,0.1-0.2,0.1-0.2s0,0,0-0.1C167.7,207.4,167.6,207.4,167.5,207.3z"/>
			<path class="st1" d="M165.8,209.4c0.4,0.1,0.7,0,1,0c0.4,0,0.7,0.2,1,0.1c0.1-0.1,0.2-0.2,0.1-0.3c-0.3-0.3-0.7-0.3-1-0.3
				c-0.4,0-0.8,0-1.2,0.2C165.8,209.2,165.8,209.4,165.8,209.4z"/>
			<path class="st1" d="M163.3,210.5c-0.1,0-0.1,0.1,0,0.2c0.2,0.2,0.5,0.2,0.7,0.3c0.3,0.1,0.5,0.2,0.8,0.3
				c0.4,0.1,0.5-0.5,0.2-0.5c-0.3-0.1-0.6-0.2-0.9-0.2C163.9,210.4,163.5,210.4,163.3,210.5z"/>
			<path class="st1" d="M165.8,212.8c-0.7-0.3-1.5-0.2-2.3-0.2c-0.1,0-0.1,0.1,0,0.1c0.7,0.2,1.4,0.5,2.2,0.5
				C166.1,213.4,166.1,212.9,165.8,212.8z"/>
			<path class="st1" d="M165.2,205.6c0-0.2,0.1-0.4,0.3-0.5c0.1-0.1,0.3-0.1,0.4-0.2c0.2-0.1,0-0.4-0.2-0.3s-0.5,0.1-0.5,0.3
				c-0.2,0.2-0.2,0.4-0.1,0.6C164.9,205.8,165.2,205.8,165.2,205.6z"/>
			<path class="st1" d="M168.5,204c0.2-0.2,0.4-0.4,0.4-0.6c0-0.1-0.1-0.1-0.1-0.1c-0.2,0.2-0.3,0.4-0.5,0.6
				C168.3,204,168.4,204.1,168.5,204z"/>
			<path class="st1" d="M171,204.1c0.2-0.2,0.3-0.3,0.5-0.5c0.1-0.1,0-0.2-0.1-0.1C171.2,203.7,171.1,203.8,171,204.1
				C170.7,204.1,170.9,204.1,171,204.1z"/>
			<path class="st1" d="M170.7,205.1c0.3,0.1,0.5-0.3,0.2-0.5c-0.3-0.3-0.9-0.4-1.3-0.3c-0.1,0-0.1,0.1,0,0.2
				c0.2,0.2,0.4,0.2,0.5,0.3C170.4,205,170.5,205.1,170.7,205.1z"/>
			<path class="st1" d="M168.6,206.3c-0.1,0-0.1,0.2,0,0.2c0.5,0,0.9,0,1.4,0c0.5,0.1,0.8,0.3,1.2,0.4c0.2,0,0.5-0.2,0.2-0.4
				C170.7,205.9,169.5,206.1,168.6,206.3z"/>
			<path class="st1" d="M167.4,206c-0.4-0.2-0.7-0.4-1.1-0.4c-0.1,0-0.1,0.1,0,0.1c0.3,0.1,0.5,0.3,0.6,0.5
				C167.2,206.9,167.8,206.2,167.4,206z"/>
			<path class="st1" d="M174,204.8c-0.3,0-0.6,0-0.9,0.1c-0.2,0-0.2,0.4,0.1,0.4s0.5,0,0.8,0.1c0.3,0.1,0.5,0.2,0.7,0.1
				c0.3,0,0.4-0.3,0.1-0.5C174.6,204.8,174.2,204.8,174,204.8z"/>
			<path class="st1" d="M169.6,203.4c0.2,0,0.5,0,0.6,0.1c0.2,0.1,0.4,0.1,0.5,0.2c0.3,0,0.3-0.3,0.1-0.5c-0.4-0.3-0.9-0.2-1.3-0.1
				C169.5,203.2,169.5,203.4,169.6,203.4z"/>
			<path class="st1" d="M166.8,203.9c0.4-0.1,0.7-0.1,1-0.2c0.3,0,0.2-0.4-0.1-0.4c-0.5,0-0.7,0.2-1.1,0.4
				C166.7,203.8,166.7,203.9,166.8,203.9z"/>
			<path class="st1" d="M175.7,199.8c-0.2,0.2,0,0.5,0.3,0.5c0.4-0.1,0.7-0.3,1.2-0.5c0.4-0.2,0.7-0.3,1.1-0.5v-0.1
				C177.3,198.8,176.1,199.2,175.7,199.8z"/>
			<path class="st1" d="M180.8,198.5c-1-0.3-2.2,0.6-2.9,1.3c-0.1,0.1,0,0.3,0.2,0.2c0.5-0.3,0.9-0.5,1.4-0.6
				c0.5-0.1,0.9-0.2,1.4-0.4C181,198.9,181,198.6,180.8,198.5z"/>
			<path class="st1" d="M179.7,198.5c0.4-0.2,0.7-0.4,1.1-0.5c0.4-0.1,0.7-0.2,1-0.4c0.3-0.1,0.1-0.5-0.1-0.5
				c-0.8,0.1-1.6,0.6-2.2,1.1C179.3,198.5,179.5,198.6,179.7,198.5z"/>
			<path class="st1" d="M184.5,197.6c-0.2,0-0.3-0.1-0.4-0.1c-0.5,0-1.1,0.3-1.6,0.5c-0.1,0.1,0,0.3,0.1,0.2c0.6-0.3,1.4-0.3,2-0.4
				c0.1,0,0.2-0.2,0.1-0.3C184.6,197.6,184.6,197.6,184.5,197.6z"/>
			<path class="st1" d="M184.5,198.6c0.1,0.2,0.4,0.2,0.5,0v-0.1c0-0.1,0-0.2-0.1-0.3s-0.2-0.3-0.4-0.3c-0.1-0.1-0.2,0.1-0.1,0.2
				C184.5,198.4,184.4,198.5,184.5,198.6z"/>
			<path class="st1" d="M186.3,197.9c-0.4,0.1-0.8,0.2-1.2,0.3c-0.2,0.1-0.1,0.4,0.1,0.3c0.4-0.1,0.8-0.2,1.2-0.2s0.7,0.2,1.1,0.3
				c0.2,0.1,0.3-0.1,0.3-0.3C187.3,198.2,186.8,198.1,186.3,197.9z"/>
			<path class="st1" d="M183.9,198.5c-1.1,0-2,0.5-2.8,1.1c-0.1,0.1,0,0.3,0.1,0.2c0.9-0.4,1.8-0.6,2.7-0.7
				C184.2,198.9,184.2,198.5,183.9,198.5z"/>
			<path class="st1" d="M177,198.8c0.4-0.2,0.6-0.3,1-0.5c0.3-0.1,0.6-0.2,0.9-0.4c0.1-0.1,0.1-0.3-0.1-0.3
				c-0.3-0.1-0.6,0.1-0.9,0.3C177.5,198.2,177.2,198.5,177,198.8C176.8,198.7,176.9,198.8,177,198.8z"/>
			<path class="st1" d="M175.2,199c0.4-0.1,0.7-0.2,1.1-0.2c0.2,0,0.5-0.1,0.5-0.4c-0.1-0.3-0.6-0.2-0.8-0.1
				c-0.4,0.1-0.6,0.3-0.9,0.5C175.1,198.9,175.2,199.1,175.2,199z"/>
			<path class="st1" d="M174.2,199.5c0.5-0.1,1-0.1,1.4-0.1c0.2,0,0.3-0.4,0.1-0.4c-0.5-0.1-1.1,0-1.5,0.2
				C173.9,199.4,174,199.6,174.2,199.5z"/>
			<path class="st1" d="M178,200.5c-0.2-0.3-0.5-0.5-0.8-0.5c-0.1,0-0.2,0.1-0.1,0.2c0.3,0.2,0.4,0.4,0.5,0.5
				c0.1,0.1,0.1,0.1,0.2,0.1c0,0.1,0,0.2,0.2,0.2c0.4-0.1,0.7-0.2,1.1-0.2c0.3-0.1,0.6-0.1,0.9-0.3c0.1-0.1,0.1-0.3-0.1-0.4
				c-0.3-0.1-0.6,0.1-0.9,0.2c-0.4,0.1-0.7,0.3-1,0.5C178,200.7,178.1,200.6,178,200.5z"/>
			<path class="st1" d="M180.8,200.1c-0.2-0.2-0.3-0.4-0.5-0.6c-0.1-0.1-0.3,0-0.2,0.1c0.1,0.3,0.2,0.5,0.4,0.7
				C180.6,200.5,180.9,200.3,180.8,200.1z"/>
			<path class="st1" d="M179.6,201.7c0.5-0.3,1-0.5,1.5-0.7c0.5-0.2,0.9-0.3,1.4-0.5c0.3-0.1,0.1-0.5-0.1-0.5
				c-1.1-0.1-2.1,0.7-2.9,1.4C179.3,201.6,179.5,201.8,179.6,201.7z"/>
			<path class="st1" d="M183.6,200.4c0.1-0.4-0.2-0.7-0.5-0.9c-0.1-0.1-0.2,0-0.1,0.1c0.1,0.3,0.1,0.6,0.3,0.9
				C183.3,200.5,183.5,200.5,183.6,200.4z"/>
			<path class="st1" d="M182,201.6c-0.1,0.1,0,0.2,0.1,0.2c0.5-0.1,1-0.4,1.4-0.5c0.5-0.2,1.1-0.2,1.5-0.3c0.3-0.1,0.3-0.5,0-0.5
				C184.2,200.1,182.6,201,182,201.6z"/>
			<path class="st1" d="M181.2,201.3c-0.1,0-0.2,0-0.2,0.1c-0.1,0.3,0.1,0.5,0.1,0.7c0.1,0.3,0.2,0.5,0.3,0.7c0.1,0.1,0.2,0.1,0.3,0
				c0.1-0.3,0.1-0.6,0-0.9C181.6,201.7,181.5,201.4,181.2,201.3z"/>
			<path class="st1" d="M181.7,203.3c0.5-0.1,0.9-0.1,1.3-0.2c0.4-0.1,0.2-0.7-0.2-0.5C182.4,202.7,182.1,203,181.7,203.3
				C181.7,203.2,181.7,203.3,181.7,203.3z"/>
			<path class="st1" d="M183.7,203.2c0.3-0.3,0.4-0.8,0.3-1.2c0-0.1-0.2-0.6-0.4-0.5c-0.2,0.2-0.2,0.5-0.2,0.7
				c-0.1,0.3-0.1,0.5,0,0.9C183.6,203.2,183.6,203.2,183.7,203.2z"/>
			<path class="st1" d="M184.5,202.2c-0.1,0.1,0,0.2,0.1,0.2c0.5-0.3,1-0.5,1.5-0.6c0.5-0.1,1,0,1.4-0.2c0.1,0,0.2-0.2,0-0.3
				C186.5,200.6,185.1,201.3,184.5,202.2z"/>
			<path class="st1" d="M184.1,199.8c0.5-0.2,0.8-0.4,1.3-0.5c0.5-0.1,0.9,0,1.4-0.1c0.2,0,0.3-0.3,0.1-0.4
				c-0.9-0.5-2.2,0.1-2.8,0.6C183.8,199.7,183.9,199.9,184.1,199.8z"/>
			<path class="st1" d="M186.2,200.7c0-0.4-0.2-0.7-0.5-1c-0.1,0-0.1,0-0.1,0.1c0.2,0.3,0,0.5,0,0.9
				C185.5,201.1,186.2,201.1,186.2,200.7z"/>
			<path class="st1" d="M188.2,199.5c-0.5,0.1-1.1,0.2-1.6,0.5c-0.2,0.1-0.1,0.4,0.1,0.4c0.9-0.1,1.9-0.5,2.8-0.2
				c0.1,0.1,0.2-0.2,0.1-0.2C189.1,199.7,188.6,199.5,188.2,199.5z"/>
			<path class="st1" d="M188.9,201.3c0.5-0.1,1-0.3,1.4-0.2c0.4,0.1,0.7,0.3,1.1,0.5c0.1,0,0.2-0.1,0.1-0.2
				c-0.3-0.3-0.7-0.5-1.2-0.5C189.8,200.7,189.2,201,188.9,201.3C188.8,201.2,188.8,201.3,188.9,201.3z"/>
			<path class="st1" d="M188.3,201.8c0-0.3,0.1-0.5,0-0.8c-0.1-0.2-0.3-0.4-0.5-0.5c-0.1-0.1-0.2,0-0.2,0.1c0.2,0.4,0.1,0.6,0,1
				C187.6,202.1,188.3,202.3,188.3,201.8z"/>
			<path class="st1" d="M187.5,199.1c-0.1-0.1-0.2-0.3-0.3-0.3h-0.1c-0.1,0.1,0,0.2,0,0.4C187.1,199.6,187.7,199.5,187.5,199.1z"/>
			<path class="st1" d="M186.6,203.2c0.5-0.2,1.1-0.3,1.6-0.4c0.5-0.1,1-0.2,1.5-0.3c0.1,0,0.1-0.1,0-0.1c-0.5-0.3-1-0.4-1.6-0.3
				c-0.6,0.1-1.1,0.4-1.6,0.7C186.4,203.1,186.5,203.2,186.6,203.2z"/>
			<path class="st1" d="M185.1,203.2c-0.7,0-1.5,0.4-2.1,0.8c-0.1,0.1,0,0.2,0.1,0.2c0.6-0.3,1.3-0.5,2-0.6
				C185.4,203.6,185.4,203.2,185.1,203.2z"/>
			<path class="st1" d="M183.9,205.1c0.1-0.2,0.1-0.5,0.1-0.7c0-0.2-0.4-0.2-0.4,0c-0.1,0.3,0,0.5,0.1,0.7
				C183.7,205.2,183.9,205.2,183.9,205.1z"/>
			<path class="st1" d="M185.5,205.2c-0.1,0.4-0.3,0.8-0.3,1.2c0,0.1,0.2,0.2,0.2,0.1c0.2-0.4,0.3-0.8,0.4-1.2
				C185.7,205.1,185.5,205.1,185.5,205.2z"/>
			<path class="st1" d="M184.5,205.5c0.5-0.2,0.8-0.5,1.2-0.6c0.5-0.2,1.1-0.4,1.5-0.5c0.1-0.1,0.2-0.3,0-0.3
				c-0.4-0.1-0.8,0-1.2,0.1c0.4-0.5,0.3-1.2,0.1-1.7c0-0.2-0.3-0.1-0.3,0c0,0.3,0,0.5,0,0.8c0,0.3-0.1,0.5-0.1,0.8l0,0
				c-0.7,0.2-1.4,0.6-1.6,1.3C184.2,205.4,184.3,205.5,184.5,205.5z"/>
			<path class="st1" d="M188.6,204.1c-0.1,0.1,0,0.2,0.1,0.2c0.8-0.5,1.8-0.5,2.7-0.5c0.2,0,0.2-0.4,0-0.4c-0.5-0.2-1-0.1-1.4,0
				C189.4,203.5,189.1,203.8,188.6,204.1z"/>
			<path class="st1" d="M190.2,200.2c0-0.3-0.2-0.5-0.5-0.7c-0.1,0-0.2,0-0.1,0.1c0.1,0.2,0.1,0.5,0.2,0.6
				C190,200.4,190.2,200.4,190.2,200.2z"/>
			<path class="st1" d="M190.1,202.9c0,0.1,0.2,0.2,0.3,0.1c0.4-0.4,0-1-0.2-1.4c0-0.1-0.2-0.1-0.2,0c0,0.3,0,0.5,0,0.7
				C190.1,202.5,190,202.7,190.1,202.9z"/>
			<path class="st1" d="M187.7,204.7c0.4-0.3,0.5-1,0.5-1.4c0-0.1-0.1-0.1-0.2,0c-0.1,0.2-0.2,0.5-0.3,0.6s-0.3,0.4-0.3,0.5
				C187.4,204.7,187.5,204.8,187.7,204.7z"/>
			<path class="st1" d="M185.6,206.6c1.1-0.5,2.3-1,3.4-1.2c0.1,0,0.1-0.2,0-0.2c-1.4-0.2-2.6,0.2-3.6,1.1
				C185.4,206.5,185.5,206.7,185.6,206.6z"/>
			<path class="st1" d="M187,206.3c-0.3,0.4-0.5,0.8-0.6,1.3c0,0.2,0.2,0.4,0.4,0.2c0.3-0.4,0.4-0.9,0.5-1.4
				C187.2,206.3,187.1,206.2,187,206.3z"/>
			<path class="st1" d="M187.4,207.4c0.9-0.5,2.2-0.6,3.2-0.7c0.1,0,0.1-0.1,0-0.1c-1.3-0.4-2.4-0.4-3.4,0.5
				C187,207.2,187.3,207.5,187.4,207.4z"/>
			<path class="st1" d="M189.6,206c0.1-0.2,0.2-0.5,0.2-0.7s0-0.5,0.1-0.7c0-0.1-0.1-0.2-0.2-0.1c-0.2,0.2-0.2,0.4-0.3,0.5
				c-0.1,0.3-0.2,0.5-0.3,0.8C189.2,206,189.5,206.2,189.6,206z"/>
			<path class="st1" d="M190.1,205.3c-0.1,0.1,0,0.3,0.2,0.3c0.5,0,1-0.2,1.5-0.2s1.1,0,1.6,0.2c0,0,0.1,0,0-0.1
				C192.7,204.7,191,204.2,190.1,205.3z"/>
			<path class="st1" d="M191.1,202.7c0.9-0.1,1.8-0.1,2.6,0.4c0.3,0.1,0.5-0.2,0.3-0.4C193.2,202,191.9,202.3,191.1,202.7
				C190.9,202.5,190.9,202.7,191.1,202.7z"/>
			<path class="st1" d="M192.1,204.3c0.3-0.4,0.4-0.8,0.5-1.3c0-0.1-0.2-0.1-0.2,0c-0.1,0.4-0.4,0.7-0.5,1.1
				C191.8,204.3,192,204.4,192.1,204.3z"/>
			<path class="st1" d="M192,201.9c0,0.1,0.1,0.1,0.2,0.1c0,0,0,0,0.1,0s0.2-0.2,0.2-0.3c0-0.5-0.3-0.7-0.6-1c0,0-0.1,0-0.1,0.1
				c0.1,0.2,0.2,0.5,0.2,0.6C192,201.6,191.9,201.7,192,201.9z"/>
			<path class="st1" d="M194.2,203.4c0.1,0.1,0.2,0,0.3-0.1c0.1-0.3,0.1-0.7-0.2-0.9c-0.1,0-0.1,0-0.1,0.1
				C194.2,202.8,193.9,203.2,194.2,203.4z"/>
			<path class="st1" d="M192.9,204.1c-0.1,0.1-0.1,0.2,0,0.2c0.4,0.2,0.9,0.2,1.4,0.3c0.2,0.1,0.5,0.1,0.6,0.2
				c0.3,0.1,0.5,0.3,0.6,0.4c0.1,0.1,0.3-0.1,0.2-0.2C195.1,204.1,193.7,203.5,192.9,204.1z"/>
			<path class="st1" d="M193.8,206.2c0.2-0.3,0.7-1.2,0.3-1.4c0,0,0,0-0.1,0c-0.1,0.1,0,0.1-0.1,0.3c0,0.1-0.1,0.3-0.1,0.4
				c-0.1,0.2-0.3,0.4-0.3,0.6C193.5,206.2,193.7,206.4,193.8,206.2z"/>
			<path class="st1" d="M191.5,205.8c-0.1,0.2-0.3,0.3-0.4,0.5c-0.1,0.1-0.2,0.3-0.3,0.4c-0.2,0.3-0.5,0.5-0.4,0.8
				c0,0.1,0.1,0.2,0.2,0.1c0.3-0.1,0.5-0.5,0.7-0.7C191.4,206.5,191.5,206.1,191.5,205.8C191.6,205.8,191.5,205.7,191.5,205.8z"/>
			<path class="st1" d="M188.3,207.6c-0.3,0.2-0.4,0.5-0.5,0.8c-0.1,0.3-0.3,0.5-0.3,0.8c0,0.1,0.1,0.1,0.1,0.1
				c0.3-0.1,0.5-0.4,0.5-0.5c0.2-0.3,0.5-0.6,0.5-1C188.6,207.6,188.4,207.5,188.3,207.6z"/>
			<path class="st1" d="M191.4,208.3c0.2,0,0.2-0.2,0.1-0.3c-0.9-0.5-2.1-0.4-2.8,0.3c-0.1,0.1,0,0.2,0.1,0.1
				C189.6,208,190.4,208.2,191.4,208.3z"/>
			<path class="st1" d="M189.6,208.8c-0.2,0.2-0.3,0.5-0.4,0.7c-0.1,0.3-0.3,0.5-0.5,0.8c-0.1,0.1,0.1,0.3,0.2,0.2
				c0.3-0.2,0.5-0.5,0.5-0.7c0.2-0.3,0.4-0.5,0.4-0.8C189.9,208.8,189.7,208.8,189.6,208.8z"/>
			<path class="st1" d="M188.4,210.2c0.1,0,0.2,0,0.3-0.1c0.2-0.1,0.2-0.3,0-0.3c-0.2-0.1-0.3,0-0.5,0.1
				C188.2,209.9,188.3,210.3,188.4,210.2z"/>
			<path class="st1" d="M190,210c0.9-0.1,1.7,0,2.6,0.3c0.2,0.1,0.4-0.3,0.2-0.4c-0.9-0.5-1.8-0.5-2.8-0.1
				C189.8,209.8,189.8,210,190,210z"/>
			<path class="st1" d="M192,209.4c0.7-0.5,1.2-1,1.2-1.9c0-0.2-0.2-0.2-0.3-0.1c-0.3,0.2-0.4,0.6-0.5,0.9c-0.2,0.3-0.5,0.5-0.6,0.9
				C191.8,209.3,192,209.5,192,209.4z"/>
			<path class="st1" d="M191.8,206.8c-0.1,0.1-0.1,0.2,0,0.2c0.5,0.1,0.9,0.1,1.4,0.2c0.2,0,0.5,0,0.6,0.1c0.3,0.1,0.5,0.3,0.6,0.5
				c0.1,0.1,0.4-0.1,0.2-0.2c-0.4-0.5-0.8-0.7-1.4-0.8C192.9,206.6,192.2,206.4,191.8,206.8z"/>
			<path class="st1" d="M194.5,206L194.5,206c0.2,0.5,0.7,0.4,1,0.5c0.5,0.2,1.4,0.5,1.4,1.1c0,0.1,0.1,0.1,0.1,0
				c0-0.3-0.2-0.5-0.3-0.8s-0.4-0.5-0.6-0.6C195.8,205.8,194.8,205.5,194.5,206z"/>
			<path class="st1" d="M193.1,208.5c-0.1,0.1-0.1,0.2,0,0.3c0.5,0.3,1.1,0.4,1.5,0.5c0.5,0.1,0.7,0.5,1.2,0.6
				c0.2,0.1,0.3-0.2,0.1-0.3c-0.5-0.3-0.7-0.7-1.3-1C194.2,208.4,193.6,208.2,193.1,208.5z"/>
			<path class="st1" d="M195.1,208.4c0.4-0.4,1-0.8,0.8-1.4c-0.1-0.2-0.5-0.3-0.5,0s-0.1,0.5-0.3,0.7c-0.1,0.2-0.2,0.4-0.3,0.6
				C194.8,208.4,195,208.5,195.1,208.4z"/>
			<path class="st1" d="M196.2,205.8c0.3-0.4,0.4-1,0.1-1.4c-0.1-0.1-0.3,0-0.2,0.1c0.2,0.4-0.1,0.8-0.1,1.3
				C196,205.8,196.2,205.9,196.2,205.8z"/>
			<path class="st1" d="M190.5,210.5c-0.2,0.2-0.3,0.5-0.4,0.6c-0.1,0.3-0.3,0.5-0.4,0.6c-0.1,0.3,0.1,0.5,0.4,0.4
				c0.5-0.3,0.9-0.7,1.1-1.3C191.4,210.4,190.9,210,190.5,210.5z"/>
			<path class="st1" d="M191.1,211.7c0.5,0.2,1,0.4,1.5,0.5c0.4,0.2,0.6,0.5,1.1,0.5c0.2,0,0.3-0.2,0.2-0.4c-0.5-0.8-1.8-1.1-2.8-1
				C191.1,211.6,191,211.7,191.1,211.7z"/>
			<path class="st1" d="M192.7,211.4c0.5-0.1,0.8-0.3,1.1-0.6c0.3-0.3,0.7-0.6,0.6-1c0-0.2-0.2-0.2-0.3-0.2
				c-0.3,0.2-0.5,0.5-0.7,0.8c-0.3,0.3-0.5,0.5-0.8,0.8C192.4,211.3,192.5,211.4,192.7,211.4z"/>
			<path class="st1" d="M192,212.6c0-0.1-0.2-0.2-0.3-0.2c-0.3,0.1-0.4,0.4-0.5,0.5c-0.2,0.2-0.4,0.5-0.4,0.6c0,0.1,0.1,0.2,0.2,0.2
				C191.6,213.9,192.1,213.1,192,212.6z"/>
			<path class="st1" d="M192.8,215.1c0.2-0.4-0.3-0.6-0.5-0.3c-0.1,0.2-0.3,0.4-0.4,0.6c0,0.1,0.1,0.2,0.2,0.2
				C192.4,215.5,192.6,215.4,192.8,215.1z"/>
			<path class="st1" d="M193.2,214.6c0.4,0.2,0.7,0.5,1.2,0.5c0.2,0.1,0.4-0.1,0.3-0.3c-0.2-0.9-1.8-1.3-2.6-1c-0.1,0-0.1,0.1,0,0.2
				C192.4,214.4,192.8,214.4,193.2,214.6z"/>
			<path class="st1" d="M193.7,213.8c0.4,0.1,0.8-0.3,1.1-0.5c0.3-0.3,0.5-0.6,0.4-1.1c0-0.2-0.4-0.3-0.5-0.1
				c-0.2,0.3-0.3,0.5-0.5,0.7c-0.2,0.2-0.5,0.4-0.6,0.6C193.5,213.6,193.6,213.7,193.7,213.8z"/>
			<path class="st1" d="M196.9,210.1c0.1-0.3,0.1-0.7-0.3-0.7c-0.1,0-0.2,0.1-0.2,0.2c0,0.4,0,0.8-0.3,1.1c-0.1,0.1,0,0.3,0.1,0.3
				C196.6,210.7,196.8,210.4,196.9,210.1z"/>
			<path class="st1" d="M194.5,210.8c0.5,0.2,0.9,0.5,1.4,0.8c0.5,0.3,0.7,0.7,1.2,1c0.1,0.1,0.3-0.1,0.3-0.2
				c-0.4-1.1-1.6-1.6-2.7-1.8C194.5,210.7,194.4,210.8,194.5,210.8z"/>
			<path class="st1" d="M196.1,208.3c0.9,0.4,1.7,1,2.3,1.7c0.1,0.1,0.3,0,0.2-0.2c-0.5-1-1.4-1.6-2.5-1.8
				C196,208,195.9,208.2,196.1,208.3z"/>
			<path class="st1" d="M197.5,208.2c0.3-0.3,0.5-0.6,0.6-1c0-0.1-0.1-0.2-0.2-0.1C197.6,207.4,197.6,207.9,197.5,208.2
				C197.3,208.2,197.4,208.3,197.5,208.2z"/>
			<path class="st1" d="M199,207.8c0,0.1,0.2,0,0.2-0.1c0-0.2-0.1-0.3-0.1-0.4c-0.2-0.4-0.5-0.7-0.7-1c-0.4-0.3-0.9-0.5-1.4-0.5
				c-0.1,0-0.1,0.1-0.1,0.1c0.4,0.3,0.7,0.5,1.1,0.8C198.6,206.9,198.8,207.3,199,207.8z"/>
			<path class="st1" d="M198.3,208.5c1,0.5,1.7,1.3,2.2,2.3c0.1,0.1,0.2,0,0.2-0.1c-0.2-1.2-1.2-2.2-2.3-2.4
				C198.2,208.2,198.1,208.4,198.3,208.5z"/>
			<path class="st1" d="M199.3,209.8c0-0.1-0.2-0.1-0.2,0c-0.2,0.2-0.2,0.4-0.3,0.5c-0.1,0.3-0.3,0.5-0.5,0.6
				c-0.1,0.1,0,0.2,0.1,0.1C198.9,210.8,199.5,210.2,199.3,209.8z"/>
			<path class="st1" d="M198.3,211.9c0.3,0.4,0.3,0.9,0.5,1.3c0.1,0.1,0.2,0.1,0.2-0.1c0-0.5-0.2-1.2-0.4-1.5
				c-0.3-0.5-0.8-0.8-1.3-1.1c-0.3-0.2-0.5,0.2-0.2,0.4C197.6,211.2,198,211.5,198.3,211.9z"/>
			<path class="st1" d="M196.6,213.7c0.6-0.3,1.3-0.9,1.4-1.6c0-0.2-0.2-0.2-0.3-0.1c-0.2,0.2-0.3,0.5-0.5,0.8
				c-0.2,0.3-0.5,0.5-0.7,0.7C196.4,213.6,196.5,213.8,196.6,213.7z"/>
			<path class="st1" d="M196,214.4c0.3,0.4,0.5,0.7,0.6,1.1c0.1,0.1,0.3,0,0.3-0.1c-0.1-0.4-0.4-0.8-0.6-1.1
				c-0.3-0.4-0.6-0.6-1.1-0.8c-0.1,0-0.2,0.1-0.1,0.1C195.5,213.7,195.8,214.1,196,214.4z"/>
			<path class="st1" d="M193.9,216.5c0.5-0.1,0.8-0.3,1.1-0.5c0.3-0.3,0.6-0.6,0.5-1c0-0.1-0.2-0.2-0.3-0.1
				c-0.2,0.1-0.2,0.2-0.3,0.4s-0.2,0.3-0.4,0.5c-0.3,0.3-0.5,0.5-0.9,0.7C193.8,216.4,193.9,216.6,193.9,216.5z"/>
			<path class="st1" d="M194.6,218c-0.2-0.5-0.5-1-0.8-1.3c-0.2-0.2-0.8-0.5-1.1-0.4c-0.1,0-0.1,0.1,0,0.2c0.3,0.3,0.6,0.4,0.9,0.6
				c0.3,0.3,0.5,0.6,0.8,0.9C194.4,218.2,194.6,218.1,194.6,218z"/>
			<path class="st1" d="M196.6,219c0,0.1,0.2,0.1,0.2,0c0.2-0.5-0.1-1.1-0.3-1.5c-0.3-0.5-0.6-1-1.1-1.1c-0.1,0-0.2,0.1-0.1,0.1
				c0.1,0.5,0.5,0.7,0.7,1.1C196.3,218,196.4,218.4,196.6,219z"/>
			<path class="st1" d="M196.7,216.6c0.4-0.2,0.6-0.4,1-0.6c0.2-0.2,0.5-0.5,0.5-0.8c0-0.2-0.2-0.2-0.3-0.1
				c-0.2,0.2-0.4,0.5-0.5,0.7C197.2,216.2,196.9,216.3,196.7,216.6C196.7,216.6,196.7,216.7,196.7,216.6z"/>
			<path class="st1" d="M199,216.1c0.3-1-0.4-2.2-1.4-2.5c-0.2-0.1-0.3,0.2-0.2,0.3c0.7,0.5,1.2,1.4,1.2,2.3
				C198.6,216.3,199,216.3,199,216.1z"/>
			<path class="st1" d="M199.9,212.9c-0.1-0.1-0.4-0.2-0.4,0.1c0,0.3-0.1,0.4-0.3,0.5c-0.1,0.1-0.2,0.2-0.3,0.3s-0.1,0.2-0.2,0.2
				s-0.1,0.1,0,0.1c0.3,0.1,0.6-0.2,0.8-0.4C199.9,213.5,200.1,213.2,199.9,212.9z"/>
			<path class="st1" d="M200.5,213.4c0,0.1,0.2,0,0.2-0.1c0-0.5,0-1.1-0.4-1.4c-0.3-0.3-0.6-0.7-1-0.7c-0.1,0-0.2,0.2-0.1,0.3
				c0.2,0.1,0.3,0.3,0.4,0.5c0.1,0.2,0.3,0.4,0.4,0.5C200.2,212.6,200.4,213,200.5,213.4z"/>
			<path class="st1" d="M195.7,217.9c0-0.1-0.2-0.2-0.3-0.1c-0.1,0.1-0.2,0.2-0.3,0.4c-0.1,0.2-0.3,0.3-0.4,0.5
				c-0.3,0.3-0.5,0.5-0.7,0.8c0,0.1,0,0.2,0.1,0.2c0.4,0.1,0.8-0.5,1-0.6C195.4,218.6,195.8,218.3,195.7,217.9z"/>
			<path class="st1" d="M198.2,219.9c0.4-0.5,0.6-1.4,0.6-1.9c0-0.5-0.5-0.9-0.9-1.2c-0.1-0.1-0.2,0.1-0.1,0.1
				c0.3,0.5,0.5,0.8,0.5,1.4C198.3,218.9,198.2,219.3,198.2,219.9C198.1,219.9,198.2,219.9,198.2,219.9z"/>
			<path class="st1" d="M199,217.3c0.4-0.3,1.3-1,0.8-1.4c-0.1-0.1-0.3-0.2-0.4,0c-0.1,0.2-0.2,0.5-0.3,0.6
				c-0.1,0.3-0.3,0.5-0.4,0.6C198.8,217.3,198.9,217.3,199,217.3z"/>
			<path class="st1" d="M200.7,217.2c0.2-1,0.3-2.6-1-2.9c-0.1,0-0.2,0.1-0.1,0.2c0.7,0.8,0.7,1.8,0.9,2.8
				C200.5,217.3,200.7,217.3,200.7,217.2z"/>
			<path class="st1" d="M201.4,213.6c-0.2-0.2-0.4-0.1-0.5,0.1c-0.1,0.2-0.3,0.5-0.3,0.8c0,0.1,0,0.1,0.1,0.1c0.4,0,0.5-0.5,0.6-0.7
				C201.4,213.7,201.4,213.6,201.4,213.6z"/>
			<path class="st1" d="M195.9,222.2c0,0.2,0.3,0.2,0.4,0.1c0.4-0.9,0.1-2.3-0.8-2.7c-0.1,0-0.2,0.1-0.1,0.1
				c0.3,0.4,0.5,0.7,0.6,1.2C196,221.3,195.9,221.8,195.9,222.2z"/>
			<path class="st1" d="M196.5,220.1c0.4,0,0.7-0.4,1-0.5c0.2-0.2,0.6-0.7,0.4-1c0-0.1-0.1-0.1-0.2-0.1c-0.3,0.1-0.4,0.5-0.5,0.6
				c-0.2,0.3-0.4,0.6-0.6,0.8C196.4,220,196.4,220.1,196.5,220.1z"/>
			<path class="st1" d="M196.7,222.7c0.2-0.2,0.5-0.5,0.3-0.8c-0.1-0.1-0.2-0.1-0.3,0c-0.1,0.2-0.2,0.5-0.4,0.6
				c-0.2,0.3-0.4,0.5-0.5,0.7c0,0,0,0.1,0.1,0.1C196.3,223.1,196.6,222.9,196.7,222.7z"/>
			<path class="st1" d="M198.3,220.8c0.5-0.2,1.4-0.7,1.1-1.3c-0.1-0.1-0.3-0.1-0.4,0c-0.1,0.2-0.2,0.5-0.4,0.6
				S198.3,220.5,198.3,220.8C198.1,220.7,198.2,220.8,198.3,220.8z"/>
			<path class="st1" d="M199.6,220.6c0.5-0.7,0.6-2.2-0.1-2.8c-0.1-0.1-0.2,0-0.2,0.1c0.2,0.8,0.2,1.8,0.1,2.6
				C199.5,220.6,199.6,220.7,199.6,220.6z"/>
			<path class="st1" d="M201.1,217c-0.3,0.4-0.5,0.8-0.8,1.1c-0.1,0.1,0,0.2,0.1,0.2c0.5-0.3,0.9-0.6,1.1-1.2
				C201.5,216.9,201.3,216.8,201.1,217z"/>
			<path class="st1" d="M201.3,219.4c0.5-0.4,0.7-0.9,0.5-1.5c-0.1-0.1-0.2,0-0.2,0.1c0.1,0.5-0.2,0.9-0.5,1.3
				C201,219.4,201.2,219.5,201.3,219.4z"/>
			<path class="st1" d="M200.5,219.4c0,0.2,0,0.4,0,0.5c0,0.4,0,0.7,0,1.1c0,0.2,0.3,0.2,0.3,0c0.1-0.5,0.3-1,0.2-1.5
				c0-0.2-0.2-0.7-0.5-0.6c-0.1,0-0.1,0.1,0,0.2C200.5,219,200.5,219.3,200.5,219.4z"/>
			<path class="st1" d="M197.8,223.3c0-0.1-0.1-0.2-0.2-0.2c-0.1,0.1-0.3,0.2-0.4,0.4c0.5-0.9,0.8-2.3,0.1-3.2
				c-0.1-0.1-0.2,0-0.1,0.1c0.6,0.9,0.1,2.1-0.3,3.1c0,0.1,0.1,0.2,0.1,0.2c-0.1,0.1-0.1,0.1-0.2,0.2c-0.3,0.3-0.5,0.5-0.9,0.7
				c-0.1,0.1,0,0.2,0.1,0.2C196.7,224.5,197.6,224,197.8,223.3z"/>
			<path class="st1" d="M197.2,225.5c0-0.3,0-0.8-0.4-0.8c-0.1,0-0.1,0.1-0.1,0.2c0.2,0.2,0,0.6,0,0.8c0,0.4-0.2,0.5-0.3,0.9
				c0,0.1,0.1,0.2,0.2,0.1C196.9,226.4,197.2,225.8,197.2,225.5z"/>
			<path class="st1" d="M202,219.9c-0.1,0.4-0.3,0.6-0.5,0.9c0-0.1,0-0.1,0-0.2c0-0.1-0.2-0.1-0.2,0s0,0.2,0,0.3v0.1
				c0,0.3-0.1,0.5-0.2,0.8c-0.1,0.2,0.1,0.3,0.2,0.1c0.2-0.3,0.2-0.5,0.2-0.9c0.1-0.1,0.3-0.1,0.4-0.2v0.1c-0.1,0.3-0.2,0.5-0.4,0.6
				c-0.1,0.1,0,0.2,0.1,0.1c0.3-0.3,0.5-0.6,0.5-1.1c0,0,0,0,0-0.1c0.1-0.3,0.1-0.5,0.1-0.8C202.1,219.7,202,219.8,202,219.9z"/>
			<path class="st1" d="M196.7,227.5C196.7,227.6,196.7,227.6,196.7,227.5c0.3-0.3,0.5-0.5,0.6-0.9c0.1-0.3,0.4-0.6,0.1-0.9
				c-0.1-0.1-0.2,0-0.2,0.1C197.2,226.4,197,226.9,196.7,227.5z"/>
			<path class="st1" d="M198.1,229c0.1-0.3,0.1-0.5,0-0.8c0.1,0,0.2-0.1,0.2-0.1c0-0.2,0.1-0.3,0.2-0.5l0,0
				c-0.1,0.1-0.3,0.2-0.4,0.2c-0.1-0.2-0.1-0.3-0.2-0.5c0-0.1-0.2,0-0.2,0.1c0,0.2,0.1,0.4,0.1,0.5c-0.1,0-0.1,0.1-0.2,0.1
				c-0.1,0.1,0,0.2,0.1,0.2h0.1c0,0.3,0,0.5-0.1,0.8c-0.2,0.2-0.3,0.3-0.5,0.5s-0.5,0.3-0.5,0.5c0,0.1,0,0.1,0.1,0.2
				c0.3,0.1,0.6-0.2,0.8-0.4C197.9,229.6,198.1,229.4,198.1,229L198.1,229z"/>
			<path class="st1" d="M199.6,224.8c-0.2,0.1-0.3,0.2-0.5,0.4c-0.2,0.2-0.5,0.3-0.6,0.5c-0.1,0.1-0.1,0.2,0,0.3
				c-0.1,0-0.1,0.1-0.2,0.1c-0.3,0.2-0.5,0.3-0.9,0.4c-0.1,0-0.1,0.2,0,0.1c0.5-0.1,1-0.3,1.4-0.6c0.1,0,0.2,0,0.3-0.1
				c0.1-0.2,0.2-0.5,0.3-0.6C199.5,225,199.6,224.8,199.6,224.8z"/>
			<path class="st1" d="M199,226.5c-0.5,0.3-0.9,0.5-1.4,0.7l0,0c0-0.2,0-0.5-0.1-0.6c0-0.1-0.2,0-0.1,0.1c0.2,0.5-0.1,0.9-0.3,1.4
				c-0.2,0.4-0.3,0.7-0.5,1c0,0,0,0.1,0.1,0.1c0.3-0.2,0.5-0.5,0.6-0.8c-0.1,0.3-0.1,0.5-0.2,0.7c-0.1,0.3-0.3,0.5-0.4,0.8
				c0,0.1,0.1,0.2,0.2,0.1c0.2-0.3,0.5-0.5,0.5-0.8c0.1-0.4,0.1-0.8,0-1.1c0,0,0,0,0-0.1c0.1-0.2,0.1-0.4,0.1-0.5c0,0,0,0,0.1,0
				c0.4-0.1,0.8-0.3,1.2-0.5C198.9,226.7,198.9,226.6,199,226.5z"/>
			<path class="st1" d="M197.6,225.2c0.1,0,0.3-0.1,0.4-0.1c0,0,0,0,0.1,0c0.5,0,1-0.1,1.4-0.5l0,0h0.1c0.1,0,0.1-0.1,0.2-0.1
				c0.1-0.2,0.2-0.5,0.3-0.6c0,0,0,0.1-0.1,0.1v-0.1c0-0.1-0.1,0-0.1,0.1v0.1c-0.1,0.1-0.3,0.3-0.5,0.4v0.1l0,0
				c0.2-0.5,0.3-1,0.2-1.4c0.4-0.1,0.7-0.3,1-0.5l0.1,0.1h0.1c0.4-0.4,0.8-0.8,1.1-1.2c-0.1,0-0.1,0-0.2,0c-0.2,0.2-0.3,0.4-0.5,0.5
				c-0.1,0.1-0.3,0.2-0.5,0.3c0.1-0.2,0.2-0.4,0.2-0.5c0-0.1-0.2-0.3-0.3-0.2c-0.3,0.2-0.5,0.5-0.6,0.6c-0.1,0.1-0.3,0.3-0.4,0.4
				c-0.1-0.1-0.2-0.1-0.3-0.1c-0.3,0.1-0.5,0.3-0.8,0.4c0.2-0.3,0.3-0.6,0.3-1c0.3,0.1,0.6-0.2,0.7-0.4c0.4-0.3,0.5-0.6,0.6-1.1
				c0-0.1-0.1-0.2-0.2-0.1c-0.3,0.2-0.3,0.5-0.5,0.7c-0.2,0.2-0.5,0.5-0.7,0.6c0-0.2-0.1-0.5-0.3-0.5c-0.1-0.1-0.2,0-0.1,0.1
				c0.2,0.4,0,0.9-0.1,1.3c-0.1,0.4-0.3,0.7-0.4,1.1c0,0.1,0.1,0.1,0.1,0.1c0.1-0.2,0.3-0.4,0.4-0.5c0,0,0,0,0.1,0
				c0.3,0,0.5,0,0.8-0.2l0,0c0,0.5-0.1,1-0.3,1.5c-0.3,0.1-0.5,0.2-0.8,0.3c0.1-0.1,0.2-0.1,0.3-0.2c0.3-0.3,0.4-0.5,0.4-0.9
				c0-0.2-0.3-0.3-0.4-0.1c-0.2,0.2-0.3,0.5-0.5,0.6c-0.2,0.2-0.5,0.4-0.6,0.5C197.3,225,197.5,225.3,197.6,225.2z"/>
			<path class="st1" d="M201.3,215.3C201.2,215.2,201.1,215.3,201.3,215.3c0.2,0.5,0,1.2,0.4,1.6h0.1c0.1,0.2,0.1,0.4,0.1,0.5
				c0,0.1,0.1,0.2,0.2,0.1c-0.1-0.4-0.1-0.6-0.2-1l0,0c0-0.2-0.1-0.5-0.2-0.6c0,0,0-0.1-0.1-0.1c0-0.1,0.1-0.2,0.1-0.2
				c0-0.2-0.1-0.4-0.1-0.6c0,0.2-0.1,0.4-0.1,0.5C201.5,215.5,201.4,215.4,201.3,215.3z"/>
			<path class="st1" d="M195.8,203.4c-0.3,0-0.5,0-0.6,0.1c0,0-0.1,0.1,0,0.1c0.4,0.3,0.8,0.2,1.2,0.5c0.4,0.4,0.9,0.7,1.1,1.2
				c0,0.1,0.1,0.1,0.1,0v-0.1C197,204.6,196.5,204,195.8,203.4z"/>
			<path class="st1" d="M178.3,198.7c-0.1,0.1,0.1,0.2,0.2,0.2c0.3-0.2,0.5-0.4,0.8-0.5c0.3-0.2,0.5-0.5,0.8-0.6
				c0.2-0.1,0.1-0.4-0.1-0.3C179.3,197.6,178.6,198.1,178.3,198.7z"/>
		</g>
		<g>
			<path class="st1" d="M168,201.8c5.4,0.2,9.3,1.8,13.2,5.4c2.5,2.4,4.9,4.8,7,7.7c1.8,2.5,3,5,4,8c1.3,3.8,2.7,8.4,0.8,12.2
				c-0.3,0.6,0.6,1.2,1,0.5c1.9-3.4,0.9-7.9-0.2-11.4c-1.1-3.8-2.5-7.1-4.9-10.2c-4.9-6.5-12-14.5-21.1-13.2
				C167.3,200.9,167.5,201.8,168,201.8L168,201.8z"/>
		</g>
	</g>
</g>
</svg>
