<?xml version="1.0" encoding="utf-8"?>
<!-- Generator: Adobe Illustrator 19.2.0, SVG Export Plug-In . SVG Version: 6.00 Build 0)  -->
<svg version="1.1" id="Layer_1" xmlns="http://www.w3.org/2000/svg" xmlns:xlink="http://www.w3.org/1999/xlink" x="0px" y="0px"
	 viewBox="0 0 400 400" style="enable-background:new 0 0 400 400;" xml:space="preserve">
<style type="text/css">
	.st0{fill:#231F20;}
</style>
<g>
	<g>
		<g>
			<path class="st0" d="M198.1,138c0.6,4.3,1.6,8.3,1.3,12.6c-0.2,3.2-0.8,6.4-1.4,9.6c-1.5,7.6-4.1,14.8-7.6,21.7
				c-0.4,0.8,0.8,1.5,1.2,0.7c4-7.2,6.4-15.4,7.7-23.5c1.2-7.2,1.9-14.2-0.9-21.2C198.3,137.7,198.1,137.8,198.1,138L198.1,138z"/>
		</g>
		<g>
			<path class="st0" d="M195.1,141.5c2.1,11.9-1.7,23.5-6.3,34.2c-0.2,0.5,0.4,0.8,0.6,0.4c4-5.6,5.6-13.4,6.6-20
				c0.6-4.3,1.7-10.7-0.7-14.6C195.2,141.1,195,141.2,195.1,141.5L195.1,141.5z"/>
		</g>
		<g>
			<path class="st0" d="M108,112.3c-2.5-0.6-5.1,3.3-6.3,4.9c-4.5,6-7.6,13.3-9.1,20.6c-1.7,8.1-2.3,16.9-1.2,25.2
				c0.5,3.4,1.3,9.5,5.2,10.7c0.6,0.2,1.1-0.8,0.5-1.1c-4.3-2-4.5-9.9-4.8-13.8c-0.5-7.1,0.1-14.5,1.6-21.4
				c1.3-5.9,3.6-11.7,6.8-16.8c1.4-2.2,4.2-7.3,7.2-7.8C108.2,112.7,108.2,112.3,108,112.3L108,112.3z"/>
		</g>
		<g>
			<g>
				<path class="st0" d="M135.3,118.1c-2.5-0.6-5,3.3-6.2,4.9c-4.2,5.6-7,12.4-8.4,19.2c-1.7,7.9-2.2,16.5-1.1,24.6
					c0.5,3.2,1.3,8.5,4.9,9.6c0.6,0.2,1.1-0.8,0.5-1.1c-4.1-1.9-4.3-9.5-4.5-13.3c-0.4-6.7,0.1-13.7,1.5-20.3
					c1.2-5.4,3.3-10.7,6.2-15.3c1.4-2.2,4.1-7.3,7.2-7.9C135.5,118.5,135.5,118.2,135.3,118.1L135.3,118.1z"/>
			</g>
			<g>
				<path class="st0" d="M139.6,119.2c-2.2-0.5-4.5,2.9-5.6,4.4c-4.2,5.6-6.9,12.5-8.3,19.3c-1.6,7.7-2.1,16.1-1,23.9
					c0.4,3.2,1.2,8.8,4.9,10.1c0.6,0.2,1.1-0.8,0.5-1.1c-4-2-4.1-9.5-4.4-13.3c-0.4-6.6,0-13.5,1.4-20c1.2-5.5,3.3-10.7,6.1-15.6
					c1.3-2.1,3.7-6.8,6.5-7.3C139.9,119.6,139.9,119.3,139.6,119.2L139.6,119.2z"/>
			</g>
			<g>
				<path class="st0" d="M144.5,120.5c-2.2-0.5-4.5,2.9-5.5,4.4c-4.1,5.6-6.8,12.4-8,19.2c-1.5,7.6-2,15.9-1,23.7
					c0.4,3.2,1.1,8.7,4.8,10c0.6,0.2,1.1-0.8,0.5-1.1c-3.9-2-4.1-9.5-4.3-13.2c-0.4-6.6,0-13.4,1.4-19.8c1.1-5.4,3.1-10.7,6-15.4
					c1.3-2.1,3.6-6.7,6.3-7.2C144.6,120.9,144.6,120.5,144.5,120.5L144.5,120.5z"/>
			</g>
			<g>
				<path class="st0" d="M148.5,121.7c-2.2-0.5-4.4,3.1-5.4,4.6c-3.9,5.6-6.2,12.5-7.4,19.2c-1.3,7.4-1.6,15.3-0.6,22.7
					c0.4,3.1,1,8.5,4.5,9.8c0.6,0.2,1.1-0.8,0.5-1.1c-3.7-2-3.9-9.5-4.1-13c-0.4-6.3-0.1-12.7,1-18.8c1-5.3,2.7-10.6,5.3-15.3
					c1.2-2.1,3.4-7.1,6.1-7.6C148.7,122,148.7,121.7,148.5,121.7L148.5,121.7z"/>
			</g>
			<g>
				<path class="st0" d="M154,123.1c-2.2-0.5-4.5,3.1-5.4,4.5c-3.7,5.3-6.1,11.8-7.3,18.1c-1.4,7.6-1.9,15.9-0.8,23.7
					c0.5,2.9,1.1,8,4.5,9.1c0.6,0.2,1.1-0.8,0.5-1.1c-3.7-2-3.9-9.4-4.1-13c-0.4-6.4,0-13,1.2-19.2c1-5,2.8-9.9,5.2-14.3
					c1.2-2.1,3.5-7,6.2-7.5C154.1,123.5,154.1,123.2,154,123.1L154,123.1z"/>
			</g>
			<g>
				<path class="st0" d="M159.8,124.8c-2.2-0.5-4.5,3-5.6,4.5c-3.8,5.2-6.4,11.5-7.6,17.8c-1.5,7.5-2.1,15.7-1,23.2
					c0.5,2.9,1.2,7.8,4.5,8.9c0.6,0.2,1.1-0.8,0.5-1.1c-3.7-1.9-4-9.1-4.1-12.6c-0.4-6.2,0.1-12.7,1.4-18.8c1-4.9,2.9-9.7,5.5-14.1
					c1.3-2.1,3.7-6.8,6.4-7.4C160.1,125.1,160.1,124.8,159.8,124.8L159.8,124.8z"/>
			</g>
			<g>
				<path class="st0" d="M164.2,126.1c-2.3-0.5-4.5,3.2-5.6,4.7c-3.7,5.2-6,11.6-7.1,17.9c-1.3,7.2-1.7,15-0.6,22.2
					c0.4,2.9,1.1,7.7,4.4,8.8c0.6,0.2,1.1-0.8,0.5-1.1c-3.5-1.8-3.7-8.4-4-11.8c-0.5-6.1-0.1-12.6,1-18.6c1-5.1,2.8-10,5.3-14.5
					c1.2-2.1,3.4-6.7,6.1-7.3C164.5,126.4,164.5,126.1,164.2,126.1L164.2,126.1z"/>
			</g>
			<g>
				<path class="st0" d="M170.3,127.9c-2.1-0.5-4.1,2.5-5.2,3.8c-4,5-6.6,11.4-8,17.6c-1.5,7.1-2.1,14.7-1.1,21.9
					c0.4,2.9,1.1,8,4.5,9.1c0.6,0.2,1.1-0.8,0.5-1.1c-3.7-1.9-3.9-8.8-4.1-12.2c-0.3-6,0.1-12.2,1.4-18.1c1.1-4.7,2.9-9.3,5.5-13.4
					c1.3-2.1,3.7-6.5,6.4-7.2C170.5,128.3,170.5,127.9,170.3,127.9L170.3,127.9z"/>
			</g>
		</g>
		<g>
			<path class="st0" d="M190.7,182c-3.5-15-0.4-30.6,7.1-43.7c0.4-0.7-0.6-1.3-1-0.6c-8.6,11.7-11.3,30.9-6.5,44.5
				C190.3,182.4,190.8,182.3,190.7,182L190.7,182z"/>
		</g>
		<g>
			<path class="st0" d="M190.5,158.6c-0.3,0.5-1.7,1.3-0.5,0.6c0.4-0.2,0.9-0.4,1.3-0.6c-0.4-0.2-0.9-0.5-1.3-0.7
				c-0.1,0.4-0.1,0.8-0.2,1.2c-0.1,0.6,0.6,1,1.1,0.9c3.3-1-0.2-5.9-2.6-5.8c-2.9,0.1,0,6,2.8,4.2c1-0.6,0.7-2.1-0.5-2.3
				c-0.8-0.1-1.8,0.5-2.6,0.7c-0.7,0.2-1.7,0.4-2.2,1c-1,1.3,0.6,2.2,1.7,2.5c1.5,0.6,3,0.4,4-1c-0.6-0.2-1.2-0.3-1.7-0.5
				c-0.1,1,0,2.3,0.6,3.1c0.6,0.6,1.4,0.6,2,0c0.6-0.8,0.3-2.1,0.2-3c-0.2-1.4-0.3-2.7-0.6-4c-0.2-0.6-1-1-1.5-0.6
				c-1.3,1-1.8,2.2-1.6,3.8c0.2,1.1,2,0.9,1.9-0.2c-0.1-0.8,0.2-1.4,0.9-1.9c-0.6-0.2-1.1-0.3-1.7-0.5c0.2,0.9,0.5,1.8,0.6,2.8
				c0.1,0.6,0.2,1.1,0.2,1.6c0,0.2,0,0.3,0,0.5c-0.1,0.5,0,0.6,0.1,0.3c0.3,0,0.6,0,1,0c-0.4-0.2-0.2-1.5-0.2-1.8
				c0.1-1-1.3-1.2-1.7-0.5c-0.6,0.8-2.1,0.2-2.6-0.3c0.1,0.2,0.2,0.5,0.2,0.6c0-0.1,0-0.2,0-0.2c-0.1,0.2-0.2,0.5-0.2,0.6
				c0.3-0.4,1.4-0.6,1.8-0.7c0.5-0.2,1.1-0.6,1.7-0.5c-0.2-0.1-0.5-0.2-0.6-0.2c0.1,0.1,0.1,0.1,0.2,0.2c-0.1-0.2-0.2-0.5-0.2-0.6
				c0,0.1,0,0.2,0,0.2c0.1-0.2,0.2-0.5,0.2-0.6c0,0-0.6-0.4-0.7-0.6c-0.2-0.3-0.4-0.6-0.4-1c-0.2,0.2-0.3,0.6-0.5,0.8
				c0.1,0,0.2-0.1,0.2-0.1c-0.2,0-0.5,0.1-0.7,0.1c0.6,0.2,1,0.5,1.5,0.9c0.2,0.1,1.2,1.3,1,1.4c0.4,0.3,0.7,0.6,1.1,0.9
				c0-0.4,0-0.8,0.1-1.2c0-0.7-0.7-1-1.3-0.7c-1.1,0.6-3.7,1.8-2.1,3.3c1.4,1.4,2.7-0.2,3.2-1.5
				C191.7,158.5,190.9,158.2,190.5,158.6L190.5,158.6z"/>
		</g>
		<g>
			<path class="st0" d="M186.6,181.8c-2.4-8-2.5-16.7-1-24.9c1.3-6.7,3.3-15,7.9-20.2c0.6-0.6-0.3-1.4-0.9-0.9
				c-5.2,4.9-7.2,14.8-8.4,21.5c-1.3,7-2.5,18.5,2.1,24.7C186.3,182.1,186.6,182,186.6,181.8L186.6,181.8z"/>
		</g>
		<g>
			<path class="st0" d="M198.7,139.9c0.2-1-0.1-2.1-1.1-2.6c-0.6-0.3-1.4-0.5-2-0.6c-1-0.3-2-0.7-3.1-0.6c-0.5,0.1-0.5,0.7,0,0.7
				c1.4-0.1,3.1,0.6,4.5,1c1.1,0.3,1.1,1.2,1.6,2.1C198.7,139.9,198.7,139.9,198.7,139.9L198.7,139.9z"/>
		</g>
		<g>
			<path class="st0" d="M109.1,116.3c0.1,4.4,0.6,8.5-0.2,12.8c-0.6,4.1-1.4,8-1.7,12.1c-1,10.3-4.9,18.8-8.4,28.3
				c-0.2,0.3,0.4,0.5,0.6,0.2c3.6-9.7,7.2-18.9,8.8-29.2C109.5,132.6,110.9,124.3,109.1,116.3C109.2,116.2,109.1,116.2,109.1,116.3
				L109.1,116.3z"/>
		</g>
		<g>
			<path class="st0" d="M94.5,171.4c0.8,4,11.1,3.3,14.2,3.6c9,0.8,18,1.7,27,2.7c9.5,1,19,2.1,28.5,3.2c6.8,0.8,13.6,2,20.4,2.4
				c0.6,0,0.8-1,0.2-1.1c-14-2.8-28.7-3.5-42.9-5c-8.7-1-17.3-1.8-25.9-2.8c-3.4-0.4-6.9-0.8-10.3-1.1c-2.2-0.2-9.3,0.3-10.7-1.9
				C94.8,171,94.5,171.1,94.5,171.4L94.5,171.4z"/>
		</g>
		<g>
			<path class="st0" d="M181.9,182.3c1.4,0.6,3.7,1.7,4.9,0.4c0.1-0.1,0.1-0.3,0.2-0.4c0.4-0.2-0.3,0.2,0,0.2c0.4,0,0.8,0.2,1.2,0.2
				c1,0.2,2.2,0.6,3,0c0.3-0.2,0.3-0.7-0.1-0.9c-1-0.2-2.1-0.3-3.1-0.5c-0.6-0.1-1.4-0.6-1.9-0.2c-0.6,0.4-0.2,0.7-1.1,0.8
				c-1,0.2-2.1-0.1-3.1,0.2C181.8,182,181.8,182.3,181.9,182.3L181.9,182.3z"/>
		</g>
		<g>
			<path class="st0" d="M105.4,113.8c3.5-2.3,8.2-0.3,11.9,0.6c3.5,0.9,7,1.7,10.5,2.5c7.3,1.8,14.6,3.7,21.9,5.7
				c7.1,1.9,14.2,4.1,21.2,6.3c3.6,1.1,7.1,2.2,10.7,3.4c2.5,0.8,9.7,2,11.1,4.2c0.3,0.5,1.1,0.2,0.9-0.4c-0.9-2.3-3.1-2.5-5.4-3.3
				c-4.1-1.4-8.4-2.5-12.6-3.7c-9.1-2.7-18.3-5.2-27.4-7.8c-8.7-2.4-17.4-4.7-26.2-6.9c-4.8-1.2-12.5-4.9-16.6-0.8
				C105.1,113.7,105.3,113.9,105.4,113.8L105.4,113.8z"/>
		</g>
		<g>
			<path class="st0" d="M112.5,111.9c-0.4-2.1-3.7-2.9-5.5-2.9c-3,0-5.2,1.8-7.2,4c-0.4,0.4,0.2,1,0.6,0.6c1.9-1.7,3.8-3.4,6.5-3.3
				c2.1,0.1,3.4,1.5,5.2,1.9C112.4,112.1,112.5,112,112.5,111.9L112.5,111.9z"/>
		</g>
		<g>
			<path class="st0" d="M87.9,166.3c-0.2,1.3,0.5,2.7,1,3.8c0.6,1.5,1.2,3.4,2.2,4.6c2.8,3.3,7.4,3,9.9-0.6c0.3-0.4-0.3-0.8-0.6-0.5
				c-2.1,1.7-4.3,2.7-6.7,1.3c-1.1-0.7-1.7-1.4-2.2-2.5c-1-1.9-2.3-4.1-2.9-6.2C88.2,166.1,87.9,166,87.9,166.3L87.9,166.3z"/>
		</g>
		<g>
			<path class="st0" d="M102,111.2c-9.3,6.1-13,19.2-15.1,29.4c-2.1,10.6-1.8,23.1,3.5,32.7c0.3,0.6,1.3,0.1,1-0.6
				c-10.2-18.2-3.3-47,10.8-61.3C102.3,111.3,102.2,111.1,102,111.2L102,111.2z"/>
		</g>
	</g>
	<g>
		<g>
			<path class="st0" d="M201.6,245.6c-2.8,7-2.1,14-0.9,21.2c1.4,8.1,3.7,16.3,7.7,23.5c0.5,0.8,1.7,0.1,1.2-0.7
				c-3.5-6.9-6.1-14.1-7.6-21.7c-0.6-3.2-1.1-6.4-1.4-9.6c-0.3-4.4,0.6-8.3,1.3-12.6C201.9,245.6,201.7,245.5,201.6,245.6
				L201.6,245.6z"/>
		</g>
		<g>
			<path class="st0" d="M204.7,249.1c-2.5,4-1.3,10.3-0.7,14.6c1,6.7,2.5,14.5,6.6,20c0.3,0.4,0.9,0.1,0.6-0.4
				c-4.6-10.7-8.4-22.3-6.3-34.2C205,249,204.8,248.9,204.7,249.1L204.7,249.1z"/>
		</g>
		<g>
			<path class="st0" d="M292,220.5c3,0.5,5.8,5.6,7.2,7.8c3.2,5.2,5.5,10.9,6.8,16.8c1.5,6.9,2,14.3,1.6,21.4
				c-0.2,3.9-0.6,11.9-4.8,13.8c-0.6,0.3-0.2,1.4,0.5,1.1c3.9-1.3,4.8-7.2,5.2-10.7c1.1-8.3,0.6-17.1-1.2-25.3
				c-1.5-7.2-4.4-14.3-8.7-20.1c-1.3-1.7-4-5.8-6.6-5.3C291.8,220.1,291.8,220.4,292,220.5L292,220.5z"/>
		</g>
		<g>
			<g>
				<path class="st0" d="M264.7,226.2c2.9,0.5,5.5,5.2,6.8,7.4c3,4.9,5.2,10.3,6.5,15.8c1.4,6.3,1.9,13,1.6,19.5
					c-0.2,3.9-0.3,11.9-4.5,14c-0.6,0.3-0.2,1.4,0.5,1.1c3.6-1.1,4.5-6.4,4.9-9.5c1.2-8,0.6-16.7-1-24.7c-1.4-6.8-4.2-13.6-8.4-19.2
					c-1.2-1.6-3.8-5.5-6.3-4.9C264.5,225.9,264.4,226.2,264.7,226.2L264.7,226.2z"/>
			</g>
			<g>
				<path class="st0" d="M260.4,227.3c2.8,0.5,5.2,5.2,6.5,7.3c2.9,4.8,4.9,10.1,6.1,15.6c1.4,6.4,1.8,13.4,1.4,20
					c-0.2,3.7-0.4,11.3-4.4,13.3c-0.6,0.3-0.2,1.4,0.5,1.1c3.7-1.2,4.4-6.8,4.9-9.9c1-7.9,0.6-16.2-1-23.9c-1.4-6.7-4-13.4-8-18.9
					c-1.1-1.5-3.6-5.3-6-4.8C260.1,227,260.1,227.3,260.4,227.3L260.4,227.3z"/>
			</g>
			<g>
				<path class="st0" d="M255.5,228.6c2.8,0.5,5.1,5.1,6.3,7.2c2.8,4.8,4.8,10,6,15.4c1.4,6.4,1.7,13.3,1.4,19.8
					c-0.2,3.7-0.4,11.1-4.3,13.2c-0.6,0.3-0.2,1.4,0.5,1.1c3.6-1.3,4.3-6.8,4.8-9.9c1-7.8,0.6-16.1-1-23.8
					c-1.3-6.6-3.8-13.2-7.8-18.7c-1.1-1.5-3.4-5.2-5.8-4.8C255.4,228.3,255.4,228.6,255.5,228.6L255.5,228.6z"/>
			</g>
			<g>
				<path class="st0" d="M251.5,229.7c2.7,0.5,5,5.5,6.1,7.6c2.5,4.8,4.4,10,5.3,15.3c1.1,6.2,1.4,12.6,1,18.8
					c-0.2,3.6-0.4,11-4.1,13c-0.6,0.3-0.2,1.4,0.5,1.1c3.5-1.3,4.1-6.8,4.5-9.8c1-7.5,0.6-15.3-0.6-22.7c-1.1-6.7-3.5-13.6-7.4-19.2
					c-1-1.4-3.2-5.1-5.4-4.6C251.3,229.4,251.3,229.7,251.5,229.7L251.5,229.7z"/>
			</g>
			<g>
				<path class="st0" d="M246.1,231.2c2.6,0.5,4.8,5,5.9,7c2.6,4.6,4.5,9.6,5.5,14.8c1.2,6,1.6,12.3,1.3,18.5
					c-0.2,3.7-0.2,11.6-4.1,13.7c-0.6,0.3-0.2,1.4,0.5,1.1c3.3-1.2,4.1-6.2,4.5-9.1c1.1-7.7,0.7-16-0.8-23.7
					c-1.2-6.4-3.6-12.8-7.3-18.1c-1-1.4-3.2-5-5.4-4.5C245.9,230.9,245.9,231.2,246.1,231.2L246.1,231.2z"/>
			</g>
			<g>
				<path class="st0" d="M240.2,232.9c2.6,0.6,4.9,4.9,6.1,6.9c2.7,4.5,4.7,9.5,5.8,14.6c1.3,5.9,1.7,12.1,1.4,18.1
					c-0.2,3.7-0.2,11.4-4.2,13.4c-0.6,0.3-0.2,1.4,0.5,1.1c3.3-1.1,4.1-6,4.5-8.9c1.1-7.6,0.6-15.7-1-23.2
					c-1.3-6.3-3.8-12.6-7.6-17.8c-1.1-1.4-3.3-4.9-5.6-4.5C239.9,232.6,239.9,232.9,240.2,232.9L240.2,232.9z"/>
			</g>
			<g>
				<path class="st0" d="M235.8,234.2c2.5,0.6,4.7,4.8,5.8,6.8c2.7,4.6,4.6,9.8,5.6,15c1.1,5.8,1.4,11.9,1.1,17.9
					c-0.2,3.4-0.3,10.6-4,12.5c-0.6,0.3-0.2,1.4,0.5,1.1c3.3-1.1,4-6,4.4-8.8c1.1-7.2,0.6-15-0.6-22.2c-1.1-6.3-3.5-12.6-7.1-17.9
					c-1-1.5-3.3-5.2-5.6-4.7C235.6,233.9,235.6,234.2,235.8,234.2L235.8,234.2z"/>
			</g>
			<g>
				<path class="st0" d="M229.7,236c2.6,0.6,4.9,4.6,6.1,6.7c2.7,4.3,4.6,9,5.7,13.9c1.3,5.6,1.7,11.5,1.5,17.3
					c-0.2,3.7-0.2,11.1-4.1,13c-0.6,0.3-0.2,1.4,0.5,1.1c3.4-1.1,4.1-6,4.5-9c1-7.2,0.5-15-1.1-22c-1.4-6-3.9-12.2-7.6-17.2
					c-1.1-1.4-3.3-4.7-5.5-4.2C229.5,235.7,229.5,235.9,229.7,236L229.7,236z"/>
			</g>
		</g>
		<g>
			<path class="st0" d="M209.8,289.9c4.7-13.6,2.1-32.8-6.5-44.5c-0.5-0.6-1.4-0.1-1,0.6c7.6,13.2,10.6,28.8,7.1,43.7
				C209.2,290.1,209.7,290.2,209.8,289.9L209.8,289.9z"/>
		</g>
		<g>
			<path class="st0" d="M208.6,266.8c0.5,1.3,1.8,2.9,3.2,1.5c1.5-1.5-1-2.8-2.1-3.3c-0.6-0.2-1.3,0.1-1.3,0.7c0,0.4,0,0.8,0.1,1.2
				c0.4-0.3,0.7-0.6,1.1-0.9c-0.2-0.1,0.8-1.3,1-1.4c0.4-0.4,1-0.7,1.5-0.9c-0.2,0-0.5-0.1-0.7-0.1c0.1,0,0.2,0.1,0.2,0.1
				c-0.2-0.3-0.3-0.6-0.5-0.8c0,0.2-0.8,1.8-1,1.5c0.1,0.2,0.2,0.5,0.2,0.6c0-0.1,0-0.2,0-0.2c-0.1,0.2-0.2,0.5-0.2,0.6
				c0.1-0.1,0.1-0.1,0.2-0.2c-0.2,0.1-0.5,0.2-0.6,0.2c0.6-0.1,1.2,0.3,1.7,0.5c0.5,0.2,1.5,0.3,1.8,0.7c-0.1-0.2-0.2-0.5-0.2-0.6
				c0,0.1,0,0.2,0,0.2c0.1-0.2,0.2-0.5,0.2-0.6c-0.5,0.6-2.1,1.1-2.6,0.3c-0.5-0.7-1.8-0.6-1.7,0.5c0,0.3,0.2,1.6-0.2,1.8
				c0.3,0,0.6,0,1,0c0.1,0.2,0.2,0.2,0.1-0.1c0-0.2,0-0.5,0-0.7c0-0.6,0.1-1.1,0.2-1.6c0.2-1,0.4-1.8,0.6-2.8
				c-0.6,0.2-1.1,0.3-1.7,0.5c0.6,0.5,1,1.1,0.9,1.9c-0.1,1.1,1.7,1.4,1.9,0.2c0.2-1.6-0.2-2.9-1.6-3.8c-0.6-0.4-1.4,0-1.5,0.6
				c-0.3,1.3-0.6,2.5-0.6,3.7c-0.1,1-0.5,2.5,0.2,3.3c0.5,0.6,1.4,0.6,1.9,0.1c0.7-0.7,0.8-2.2,0.7-3.2c-0.6,0.2-1.2,0.3-1.7,0.5
				c1,1.4,2.5,1.5,4,1c1-0.4,2.6-1.3,1.7-2.5c-0.5-0.6-1.5-0.8-2.2-1c-0.8-0.2-1.7-0.8-2.5-0.7c-1.3,0.1-1.7,1.6-0.6,2.3
				c2.8,1.7,5.6-4.1,2.8-4.2c-2.4-0.1-6,4.8-2.6,5.8c0.5,0.2,1.2-0.3,1.1-0.9c-0.1-0.4-0.1-0.8-0.2-1.2c-0.4,0.2-0.9,0.5-1.3,0.7
				c0.4,0.2,0.9,0.4,1.3,0.6c1.1,0.6-0.2-0.2-0.5-0.6C209.2,266,208.4,266.2,208.6,266.8L208.6,266.8z"/>
		</g>
		<g>
			<path class="st0" d="M213.8,289.7c4.7-6.2,3.3-17.7,2.1-24.7c-1.2-6.7-3.3-16.6-8.4-21.5c-0.6-0.6-1.4,0.3-0.9,0.9
				c4.6,5.2,6.6,13.5,7.9,20.2c1.6,8.3,1.4,16.9-1,24.9C213.4,289.8,213.7,289.9,213.8,289.7L213.8,289.7z"/>
		</g>
		<g>
			<path class="st0" d="M201.4,247.6c0.5-1,0.5-1.7,1.6-2.1c1.4-0.5,3-1.1,4.5-1c0.5,0,0.5-0.7,0-0.7c-1-0.2-1.9,0.2-2.9,0.6
				c-0.7,0.2-1.5,0.4-2.1,0.7c-1,0.5-1.2,1.6-1.1,2.6C201.3,247.6,201.4,247.7,201.4,247.6L201.4,247.6z"/>
		</g>
		<g>
			<path class="st0" d="M290.8,224.1c-1.7,8-0.3,16.4,1,24.3c1.7,10.3,5.2,19.5,8.8,29.2c0.2,0.3,0.7,0.2,0.6-0.2
				c-3.5-9.5-7.3-18-8.4-28.3c-0.4-4.1-1.1-8-1.7-12.1C290.4,232.6,290.8,228.4,290.8,224.1C290.9,224,290.8,224,290.8,224.1
				L290.8,224.1z"/>
		</g>
		<g>
			<path class="st0" d="M305.1,279c-1.4,2.2-8,1.7-10.2,1.8c-3.6,0.3-7.2,0.8-10.8,1.2c-8.7,1-17.3,1.8-25.9,2.8
				c-14.2,1.5-28.9,2.2-42.9,5c-0.6,0.2-0.5,1.1,0.2,1.1c6.8-0.3,13.7-1.6,20.4-2.4c9.5-1.1,19-2.1,28.5-3.2c9-1,18-1.9,27-2.7
				c3-0.2,13.4,0.4,14.2-3.6C305.5,278.9,305.2,278.8,305.1,279L305.1,279z"/>
		</g>
		<g>
			<path class="st0" d="M218.1,289.8c-1.1-0.2-2.1,0-3.1-0.2c-0.8-0.1-0.4-0.5-1.1-0.8c-0.6-0.3-1.4,0.2-1.9,0.2
				c-1,0.2-2.1,0.2-3.1,0.5c-0.4,0.1-0.4,0.6-0.1,0.9c0.9,0.6,2,0.2,2.9,0c0.4-0.1,0.7-0.1,1.1-0.2c0.6-0.2-0.2-0.5,0.3,0.2
				c1.3,1.4,3.6,0.2,4.9-0.4C218.2,290,218.2,289.8,218.1,289.8L218.1,289.8z"/>
		</g>
		<g>
			<path class="st0" d="M294.8,221.3c-4.1-4.1-11.1-0.6-15.7,0.6c-9.1,2.2-18.1,4.6-27,7.1c-8.8,2.5-17.7,4.9-26.6,7.5
				c-4.5,1.4-9,2.5-13.4,4c-2.2,0.7-4.5,1-5.4,3.3c-0.2,0.6,0.6,0.8,0.9,0.4c1.4-2.1,8-3.1,10.3-3.9c3.6-1.2,7.1-2.3,10.7-3.4
				c7.3-2.3,14.6-4.5,22-6.5c7-1.9,14-3.7,21-5.5c3.5-0.9,7-1.7,10.5-2.5c3.8-1,9.1-3.1,12.7-0.7
				C294.7,221.5,294.9,221.4,294.8,221.3L294.8,221.3z"/>
		</g>
		<g>
			<path class="st0" d="M287.7,219.9c1.9-0.4,3.2-1.8,5.2-1.9c2.8-0.1,4.6,1.6,6.5,3.3c0.4,0.4,1-0.2,0.6-0.6c-1.9-2.1-4.2-4-7.2-4
				c-1.8,0-5.1,0.9-5.5,2.9C287.5,219.8,287.6,219.9,287.7,219.9L287.7,219.9z"/>
		</g>
		<g>
			<path class="st0" d="M311.7,274c-0.7,2.1-1.9,4.3-2.9,6.2c-0.6,1.1-1.2,1.8-2.2,2.5c-2.4,1.5-4.7,0.4-6.7-1.3
				c-0.3-0.3-1,0.1-0.6,0.5c2.4,3.6,7.1,3.8,9.9,0.6c1-1.2,1.6-2.9,2.1-4.4c0.5-1.2,1.2-2.8,1-4.1
				C312.1,273.8,311.8,273.9,311.7,274L311.7,274z"/>
		</g>
		<g>
			<path class="st0" d="M297.8,219.2c14.1,14.3,21,43.1,10.8,61.3c-0.3,0.6,0.6,1.2,1,0.6c5.4-9.6,5.6-22.1,3.5-32.7
				c-2-10.3-5.8-23.3-15.1-29.4C297.8,218.8,297.7,219.1,297.8,219.2L297.8,219.2z"/>
		</g>
	</g>
	<g>
		<path class="st0" d="M190.5,159.2c9.3,1,20.4,2.7,28.5,7.7c6.4,3.9,6.6,10.8,1.3,15.6c-3.4,3.1-8.1,4.9-12.3,6.8
			c-17,7.5-35.3,11.1-53,16.5c-0.6,0.2-0.4,1.2,0.3,1c11.8-3.3,23.6-6.1,35.3-9.8c9.6-3,21.3-6.4,29.4-12.7
			c5.8-4.5,7.7-12.2,1.4-17.1c-8.1-6.2-20.8-8-30.7-8.5C190.1,158.6,190.1,159.1,190.5,159.2L190.5,159.2z"/>
	</g>
	<g>
		<path class="st0" d="M152.7,223.8c-12.8,3.2-26,6.1-38.5,10.3c-8.5,2.9-23.1,7.7-25.9,17.5c-3,10.6,11.2,13.2,18.3,14.4
			c15.7,2.5,31.6,3.4,47.4,3.5c18.6,0,37.2-1.1,55.8-2.3c0.8-0.1,0.8-1.3,0-1.2c-35.5,2.2-72.1,4.9-107.4-2
			c-7.9-1.5-18-7.3-10.6-16.1c4.9-5.7,13-9.1,19.9-11.6c13.4-4.9,28-6.4,41.1-11.9C153.2,224.2,153.1,223.7,152.7,223.8L152.7,223.8
			z"/>
	</g>
</g>
</svg>
