<?xml version="1.0" encoding="utf-8"?>
<!-- Generator: Adobe Illustrator 19.2.0, SVG Export Plug-In . SVG Version: 6.00 Build 0)  -->
<svg version="1.1" id="Layer_1" xmlns="http://www.w3.org/2000/svg" xmlns:xlink="http://www.w3.org/1999/xlink" x="0px" y="0px"
	 viewBox="0 0 400 400" style="enable-background:new 0 0 400 400;" xml:space="preserve">
<style type="text/css">
	.st0{fill:#FFFFFF;}
	.st1{stroke:#000000;stroke-width:0.25;stroke-miterlimit:10;}
</style>
<g>
	<path class="st0" d="M277,82.1c0.2-1.3,0.4-2.6,0.4-4c0-0.5,0-0.8-0.2-1.2c0.1,0,0.1,0,0.2-0.1c-0.2-0.2-0.3-0.4-0.4-0.6
		c-0.5-0.2-0.9-0.4-1.4-0.5c-2.2-0.3-4.3-0.6-6.5-0.9c-2.9-0.5-5.9-0.5-8.9-0.5c-3,0-5.9,0-8.9-0.2c-1.5-0.1-3-0.2-4.5-0.5
		c-1.4-0.3-2.5-0.5-4-0.6c-0.3,0-0.6-0.3-0.9-0.2c0-0.1-0.1-0.1-0.1-0.2c0-0.1-0.1,0.4-0.2,0.5c0.1,0.6,0.4,10.9,0.4,11.5
		c0,0.8-0.1,1.6-0.1,2.4c0,1.3,0,2.4,0.1,3.7c-0.2,1.5-0.2,3.1-0.3,4.6c0,1,0.1,1.9,0.2,2.8c-0.1,0.8-0.2,1.7-0.4,2.5
		c0.1,0.2,0.2,0.5,0.2,0.7c0,0.1,0,0.2,0,0.3l0,0c0.1,0.1,0.2,0.2,0.2,0.3v-0.1c0.2,0,0.4,0.1,0.6,0.1l0,0c0.4,0.1,0.6,0.1,0.9,0.2
		c2.1,0.4,4.3,0.6,6.3,0.8c2.7,0.6,5.4,1.3,8.1,1.8c1.4,0.2,3,0.3,4.4,0.5c2.8,0.4,5.6,0,8.4,0.4c0.1,0,0.1,0,0.2,0
		c0.8-0.1,1.5-0.3,2.4-0.4c1.1,0,2.2-0.1,3.3-0.2c0.2,0,0.3-0.2,0.3-0.4c-0.1-0.1-0.2-0.2-0.3-0.3l0,0c-0.5-0.4-0.5-0.8-0.5-1.2
		c-0.4-1.4-0.7-3.2-0.5-4.5V99c-0.1-0.3-0.3-0.5-0.3-0.5c-0.2-0.5,0-1,0.1-1.5c0-0.3,0-0.5,0-0.8c0-1.4-0.3-2.8-0.5-4.2
		c-0.1-0.8-0.1-1.7,0-2.5C275.4,86.8,276.8,84.7,277,82.1z"/>
	<path class="st0" d="M274.2,85.2C274.2,85.2,274.2,85.1,274.2,85.2L274.2,85.2L274.2,85.2z"/>
	<path class="st0" d="M274.5,81.3C274.5,81.3,274.5,81.2,274.5,81.3L274.5,81.3C274.5,81.2,274.5,81.3,274.5,81.3z"/>
	<g>
		<path class="st1" d="M283.1,231.8c0-2.3,0.1-4.6-0.1-6.9c0-0.4,0-0.6,0-1c0-0.9,0.1-1.8-0.6-2.4c-1-0.8-2.5-0.9-4-1
			c-2.9-0.5-6-0.8-8.9-1.3c-3.2-0.5-6.3-1-9.5-1.3l0,0c0,0,0-0.1-0.1-0.1c-1.4-0.5-3.1-0.7-4.6-0.9c-1.2-0.3-2.4-0.5-3.6-0.7
			c-1.6-0.3-3.3-0.6-5-0.5c-2.2-0.2-4.4-0.3-6.6-0.3c0.5-10.9,0.4-21.9,0.6-32.8c0.1-3.3,0.6-6.5,0.3-9.7c0-0.1,0-0.2,0-0.2
			c0-0.2,0.1-0.5,0-0.6s-0.3-0.2-0.4-0.2c0.5-6.3,0.2-12.8,0.2-19.3c0-9,0-18,0.1-27c0-3,0.5-6.3,0.1-9.2c0-0.1-0.1-0.1-0.2-0.1
			c-0.2-0.1-0.4-0.1-0.5-0.2c0.2-4.3,0.2-8.5,0.3-12.7c0.2,0,0.4,0.1,0.5,0c0.1,0,0.1,0,0.2,0c0.1,0,0.3,0,0.4,0
			c0.2,0,0.4,0,0.5-0.2c0,0,0,0,0-0.1c0.1,0.1,0.2,0,0.3,0c6.4,0.2,12.6,1.8,18.9,2.6c2.7,0.4,5.4,0.5,8.1,0.5c2.6,0,5.3,0,7.9-0.7
			c0.2,0,0.1-0.3,0-0.3c0,0,0,0-0.1,0c-1.1-0.7-1-2.3-1.1-3.4c-0.1-1.3-0.2-2.6-0.2-3.9c-0.1-2.6-0.1-5.2,0-7.8
			c0.2-2.7,0.5-5.5,1.1-8.1c0.5-2.2,1.4-3.7,0-5.7c0,0-0.1-0.1-0.1,0c-3.1-0.2-6.1-1.2-9.1-1.6c-2.6-0.4-5.2-0.5-7.9-0.5
			c-5.9-0.1-11.9,0.1-17.6-1.2l0,0c-0.1-0.1-0.3-0.1-0.5-0.2l0,0c-0.1-0.1-0.1-0.1-0.2-0.2h-0.1l0,0c-0.1,0-0.1,0-0.2,0l0,0h-0.1
			c0-0.4,0-0.7,0-1.1c0.4,0.1,1,0,1.2-0.4c0,0,0,0,0-0.1c0.2-0.4,0.1-0.8,0.1-1.3c0-0.2,0-0.3-0.1-0.5l0,0l0,0
			c-0.4-0.8-1.6-0.8-2.4-0.7c-0.5,0-1.7,0.3-1.8,1l0,0c-0.1,0.4-0.1,0.8,0,1.2c0,0.1,0,0.2,0.1,0.3s0.2,0.2,0.3,0.3
			c0.2,0.1,0.5,0.1,0.7,0.1c0,0.5,0,1,0,1.4c-0.2,0.1-0.3,0.2-0.3,0.3c0,0.1,0.1,0.2,0.1,0.2c0.1,0,0.1,0,0.2,0
			c-0.3,9.9-0.4,19.6-0.5,29.5c-0.2,0-0.4,0.1-0.5,0.3c-0.1,0.2,0.1,0.4,0.3,0.4c0.1,0,0.1,0,0.2,0c0,0.3,0,0.5,0,0.7
			c-0.1,4-0.3,8.1-0.2,12v0.1c-0.2,0.1-0.3,0.1-0.5,0.2h-0.1c-0.1,0-0.2,0-0.2,0.1c-0.2,5.7,0,11.4-0.1,17.1
			c0,7.6-0.4,15.2-0.5,22.8c-0.1,5.2-0.3,10.4,0,15.6c-0.1,0-0.3,0.1-0.4,0.2c-0.1,0.1-0.1,0.2-0.1,0.3c0,0.2,0,0.4,0,0.5
			s0,0.3,0,0.4c-0.1,1-0.1,2.2-0.1,2.6c-0.2,2.6-0.2,5.2-0.3,7.9c-0.2,6.1-0.3,12.2-0.3,18.3c-0.1,4.3-0.2,8.6-0.2,12.9
			c-4.6-2.1-9.2-4-13.8-6.2c-3-1.4-5.4-3.7-8.4-5.1c-1.6-0.7-3.4-1.4-5.3-1.9c-3.5-1.4-7.2-1.7-10.9-1.5c-4.6,0.3-8.1,2.4-11.9,4.8
			c-4.1,2.6-8.1,5.3-12.5,7.4c-3.9,1.9-8.1,3.1-12.2,4.7c-0.5,0.2-1.2,0.4-1.7,0.6c-0.3-0.2-0.5-0.4-0.9-0.4c0,0,0,0-0.1,0
			c-4,0.5-8,1-11.9,1.5c-3.7-0.1-7.4,0.2-11,0.4c-2.9,0.2-5.9,0.3-8.8,0.5c-1.6-0.1-3.6,0.1-4.9,0.9c-0.9,0.5-1.2,1.5-1.4,2.5
			c0-0.1,0-0.3,0-0.4c0-0.1-0.1-0.1-0.1,0c-0.7,5-0.5,10.1-0.3,15.2c0.2,5.1,0.2,10.1,0.5,15.1c0.3,4.8,0.7,9.5,0.9,14.2
			c0.2,5.1,0.4,10,0.6,15.1l0,0c0,0.3,0,0.5,0,0.7c0.1,1.5,0,3.1,0.1,4.6c0.1,1.7,0.3,3.4,0.4,5.2c0.2,2.7-0.2,5.5,0.2,8.2
			c0,0.1,0.1,0.2,0.2,0.2c0.1,0.7,0.3,1.4,0.5,2c0.8,2.2,1.1,4.5,1.6,6.7c0,0,0,0.1,0.1,0.1c0.5,2.3,1.1,4.5,1.8,6.7
			c1,2.8,2,5.6,3.1,8.4c0.4,0.9,0.5,1.7,0.8,2.6c0.1,0.5,0.3,0.9,0.5,1.4c0,0.1,0.1,0.1,0.1,0.1c0.3,0.5,0.5,1,1.1,1.3
			c1.5,0.9,4.1,0.4,5.8,0.2c2.9-0.3,5.8-0.8,8.7-1.3c6.1-0.8,12-2,18-3.2c3.9-0.8,7.8-1.5,11.7-2.3c2.9-0.5,5.8-0.9,8.7-1.4
			c0.3,0,0.5-0.1,0.9-0.1h0.1c3.3-0.6,6.6-1.3,10-1.9c6.7-1.3,13.4-2.7,20.1-3.8c7.1-1.2,14.3-2.3,21.4-3.4
			c7.6-1.2,15.1-2.7,22.6-4.3c4.1-0.8,8.1-1.7,12.2-2.5c1.7-0.4,3.5-0.6,5.2-1.2c0.1,0,0.1-0.1,0.1-0.1c1.1-0.3,2.1-0.8,3-1.4
			c1.3-1,1.5-2.4,1.5-3.8c0.3-1.3,0.2-2.8,0.2-4.1c0.1-1.9,0.1-3.8,0.2-5.6c0-1.6,0.1-3.3,0.1-4.8l0,0c0.3-5.1,0.1-10.3,0.1-15.4
			c-0.1-4.6,0.4-9.1,0.4-13.7c0.1-5.9,0.4-11.9,0.4-17.7C283.2,236.5,283.2,234.2,283.1,231.8z M259.5,218.4c-3.4,0-7,0.3-10.4,0.4
			c-2.9,0.1-5.8-0.1-8.7,0c-0.4,0-0.7,0-1,0h-0.2c0-0.1,0-0.3,0-0.4c0-0.2,0.1-0.3,0.1-0.4c0-0.2,0.1-0.4,0.1-0.5c0-0.1,0-0.2,0-0.3
			c0-0.1,0-0.1,0-0.2l0,0c0.1-0.1,0.2-0.1,0.3-0.1s0.2,0,0.3,0c3.3,0.3,6.9-0.1,10.2,0c2.4,0.1,4.8,0.2,7.1,0.6
			c0.2,0.1,0.5,0.1,0.6,0.2l0,0c0.6,0.1,1.2,0.3,1.8,0.5v0.1c0,0.1,0,0.1-0.1,0.2C259.6,218.4,259.6,218.4,259.5,218.4z
			 M205.2,202.9c2.4,0.6,4.4,2.2,6.5,3.5c2.4,1.4,4.9,2.8,7.3,4.1c3.7,2,7.4,3.9,11.3,5.3c-10.6,0.1-21.2,0.5-31.8,0.9
			c-5.3,0.3-10.7,0.5-16,0.9c-4.4,0.3-8.8,0.3-13.2,0.3c5-1.9,9.9-4.2,14.3-6.8c1.7-1,3.4-2.2,5.1-3.3c1.5-1.2,3-2.4,4.8-3.3
			C197.3,202.7,201.3,202.1,205.2,202.9z M217.7,209.4c-2.6-1.4-5.2-3-7.7-4.5c-1.3-0.8-2.5-1.4-3.9-1.9c-0.1,0-0.2-0.1-0.2-0.1
			c4.4,0.7,8.6,2.4,12.4,5.2c3.1,2.2,6.6,3.7,10,5.2c3,1.4,6.1,2.9,9.2,4c-0.5-0.1-1-0.2-1.4-0.3c-0.8-0.2-1.6-0.5-2.4-0.5l-0.1-0.1
			C228,214.9,222.9,212.2,217.7,209.4z M233.6,216.8C233.6,216.8,233.7,216.8,233.6,216.8c0.9,0.3,1.8,0.4,2.7,0.5
			c0.9,0.2,1.8,0.4,2.7,0.5c0,0.2-0.1,0.3-0.1,0.5s-0.1,0.4-0.1,0.5h-0.1c-1.7-0.4-3.4-0.7-5.2-1
			C233.7,217.6,233.7,217.2,233.6,216.8z M247.3,215.8c2.3,0.2,4.5,0.5,6.8,0.9c-1.1-0.1-2.3-0.1-3.3-0.2c-3.5-0.1-7.2-0.4-10.8-0.1
			l0,0c-0.2,0-0.4,0-0.5,0c-0.7-0.4-1.4-0.7-2.2-1c0.9,0,1.8,0.1,2.6,0.1c0.1,0,0.1,0,0.2,0C242.4,215.8,244.8,215.9,247.3,215.8z
			 M240.4,102.8c0-1.8,0-3.6,0.1-5.4c0.2-7,0.4-14,0.5-21c0-1.1,0-2.2,0-3.3c0.1,0,0.2,0,0.3,0c0.1,0.1,0.2,0.1,0.4,0.1
			c0.1,0,0.2,0,0.3,0c-0.5,5.4,0.1,10.9,0.1,16.3c0,4.4-0.4,8.9,0,13.2c-0.2-0.1-0.4-0.1-0.5,0l0,0h-0.1c-0.1,0-0.2,0-0.2,0.1
			C240.8,102.8,240.6,102.9,240.4,102.8z M241.9,73.1c-0.1,0.1-0.2,0-0.3,0l0,0V73l0,0C241.6,73,241.8,73.1,241.9,73.1L241.9,73.1z
			 M241.7,103L241.7,103c-0.1,0-0.1-0.1-0.1-0.2c0,0,0,0,0.1,0c0,0,0,0,0.1,0C241.9,102.9,241.8,103,241.7,103z M259,74.4
			c3.1,0,6.2,0.1,9.3,0.6c2.8,0.5,5.4,1.4,8.3,1.4c1,1.8,0.4,3.3-0.1,5.2c-0.4,1.4-0.6,2.9-0.8,4.3c-0.4,2.5-0.5,5.2-0.5,7.8
			c0,2.7,0.1,5.4,0.3,8.1c0.1,1.1,0.1,2.7,1.1,3.4c-2.7,0.3-5.3,0.6-8.1,0.6c-2.9,0-5.9-0.3-8.8-0.7c-5.9-0.9-11.8-2.5-17.7-2.4
			c-0.5-4.3-0.1-8.9,0-13.2c0-2.5-0.2-5.2-0.1-7.7c0-1.4-0.3-2.7-0.2-4.2c0-1.5,0.2-3,0-4.5c0,0,0.1,0,0.1-0.1
			C247.6,74.8,253.3,74.5,259,74.4z M240.2,68.8c0.6,0,1.4,0.1,1.8,0.5c0.1,0.1,0.1,0.2,0.1,0.4c0,0.3,0.1,0.6,0,1
			c-0.5-0.8-2.1-0.6-2.8-0.5c-0.3,0.1-0.9,0.1-1.2,0.4c0-0.3,0-0.6,0-0.9C238.4,69,239.7,68.8,240.2,68.8z M239.2,71.1
			C239.2,71,239.1,71,239.2,71.1c-0.1,0.1-0.1,0.2-0.1,0.3c-0.1,0-0.2,0-0.3-0.1c-0.1,0-0.3-0.1-0.4-0.1c-0.1,0-0.2-0.1-0.3-0.2
			c-0.2-0.6,1.6-0.7,1.9-0.8c0.5,0,1.7,0,1.9,0.6l0,0v0.1l0,0c-0.1,0.2-0.4,0.2-0.5,0.3c-0.2,0.1-0.4,0.1-0.5,0.1c0-0.2,0-0.3,0-0.5
			l0,0c0.1,0,0.1-0.1,0-0.2c-0.5-0.2-0.9-0.1-1.3,0c-0.1,0,0,0.1,0,0.1c0.4-0.1,0.7-0.1,1.1,0c0,0.5,0,1.2-0.1,1.7
			c-0.4,0-0.8,0-1.2,0.2c-0.1,0-0.3,0-0.4,0.1C239.2,72.3,239.2,71.6,239.2,71.1z M238.9,97.6c0.1-7,0.3-14,0.4-21
			c0-1.1,0-2.2,0-3.3c0.5-0.1,1-0.3,1.5-0.2c-0.3,10-0.5,19.9-0.7,29.8H240c-0.4-0.1-0.7-0.1-1.2,0l0,0
			C238.9,101,238.9,99.3,238.9,97.6z M238.6,116.1c0.2-4.3,0.2-8.5,0.3-12.8c0.1,0,0.1,0,0.2,0c0.1,0,0.2,0,0.2,0
			c0.3,0,0.5-0.1,0.9-0.1c0,0.3,0,0.5,0,0.7c-0.1,4-0.3,8-0.2,11.9C239.4,116,239.1,116,238.6,116.1L238.6,116.1z M238,125.3
			c0-2.9,0-5.8-0.1-8.7l0,0l0,0c0.5-0.1,0.9-0.3,1.4-0.3s0.8,0.1,1.3,0.1c0.3,2.8-0.1,5.6-0.1,8.4c0,3.7-0.1,7.5-0.1,11.2
			c-0.1,9.5-0.1,19.1-0.2,28.6c0,2.4,0.2,4.8,0,7.1c-0.9-0.3-2-0.3-2.8,0.1C236.8,156.3,238.1,140.7,238,125.3z M236.6,215.2
			c0.2-12.5,0.3-25,0.6-37.4c0-1.1,0.1-2.1,0.1-3.2c0-0.5-0.1-1.8,0-2.4l0,0c0.1,0,0.2-0.1,0.3-0.1s0.1-0.1,0.2-0.1
			c0.4-0.1,0.7-0.2,1.2-0.2c0.5,0,1.1,0.2,1.6,0.3c-0.2,1.8,0,3.6-0.2,5.4c-0.1,1.4-0.2,2.9-0.3,4.3c-0.1,2.4-0.1,4.9-0.1,7.3
			c-0.1,6.7-0.2,13.4-0.3,20c0,2-0.1,4,0,6c-1,0-2,0-2.9,0C236.8,215.3,236.8,215.3,236.6,215.2
			C236.5,215.3,236.6,215.3,236.6,215.2z M214.5,204.5c2.8,1.4,5.2,3.5,8.1,4.9c5.4,2.5,10.9,5.3,16.5,7.3c-0.2,0.2-0.1,0.5-0.1,0.7
			l0,0v0.1c-3.8-1.8-7.8-3.3-11.6-5.1c-1.8-0.8-3.6-1.7-5.3-2.6c-1.7-0.9-3.3-2-4.8-3.1c-4.1-2.7-9-4.3-13.9-4.5
			c-1.6-0.2-3.3,0-5,0.3c-0.2,0-0.4,0.1-0.5,0.1l0,0c-0.8,0.2-1.6,0.4-2.4,0.6c-3.9,1.3-6.9,4.3-10.2,6.5c-3.6,2.4-7.6,4.3-11.6,6
			c-3.4,1.4-7.1,2.6-10.5,4c-0.5,0.2-0.9,0.3-1.4,0.5c0-0.3,0-0.5,0-0.9l0,0v-0.1l0,0c3.6-1.8,7.7-2.6,11.4-4.2
			c3.8-1.6,7.5-3.6,10.9-6.1c0,0,0.1-0.1,0-0.1c1.2-0.6,2.2-1.5,3.3-2.4c1.5-1.1,3.3-2,5-2.8c1.8-0.9,3.7-1.9,5.7-2.3
			c2.3-0.5,4.4-0.1,6.7,0h0.1C208.2,202.2,211.5,202.9,214.5,204.5z M161.5,221.4c0,0.2,0,0.3,0,0.5c0,0.3-0.1,0.3-0.3,0.4l0,0
			c-4.2,0-8.4,0.3-12.7,0.5c-3.8,0.1-7.6,0.3-11.3,0.9c-0.1,0-0.2,0-0.3-0.1c0-0.1,0-0.3,0-0.3c0-0.3,0-0.5-0.1-0.6
			c7.8-1,15.7-1.7,23.5-2.9c0.4,0,0.7-0.1,1.2-0.1C161.6,220.2,161.6,220.8,161.5,221.4z M134.6,220.8L134.6,220.8L134.6,220.8
			L134.6,220.8c3.9-0.3,7.7-1,11.6-1.5c4-0.5,8-1.1,11.9-1.4c0.4,0,0.7,0.2,1.1,0.5c0.3,0.2,0.6,0.4,1,0.5c0.3,0.2,0.7,0.5,1.1,0.5
			c-4.3,0.3-8.5,0.9-12.7,1.4c-3.6,0.5-7.2,0.7-10.8,1.5c-0.3,0-0.5,0.1-0.7,0.1c0,0,0-0.1-0.1-0.1c-0.5-0.4-1.1-0.6-1.6-1
			c-0.3-0.2-0.6-0.3-0.9-0.4c-0.1,0-0.1-0.1-0.2-0.1C134.3,220.8,134.5,220.8,134.6,220.8L134.6,220.8z M135.3,222.7
			c-0.4-0.2-0.6-0.5-0.9-0.6V222c-0.2-0.3-0.1-0.5-0.2-0.7l0,0v-0.1c0.1,0.1,0.2,0.1,0.3,0.2c0.1,0.1,0.2,0.1,0.3,0.1
			c0.3,0.2,0.5,0.4,0.7,0.5c0.4,0.2,0.8,0.6,1.3,0.7c0,0.2,0,0.4,0,0.5v0.1c0,0.1,0,0.2-0.1,0.3c-0.1,0-0.2-0.1-0.3-0.1
			C136,223.1,135.7,222.9,135.3,222.7z M183.4,206.9c3.7-2.4,7.3-5.3,11.9-6c3.5-0.5,7.2-0.5,10.7,0.5c-0.6-0.1-1.2-0.2-1.8-0.2l0,0
			c-3.7-0.5-7.1,0-10.5,1.6c-1.9,0.9-3.8,1.8-5.5,2.9c-1.7,1.1-3.2,2.6-5,3.5v0.1c-3.3,2.1-6.7,4.1-10.4,5.6c-2,0.8-4,1.5-6,2.2
			c-1.4,0.5-2.7,0.8-4,1.4c-0.5,0.2-0.9,0.4-1.4,0.6c-0.2-0.1-0.5-0.2-0.5-0.3c-0.5-0.2-0.8-0.4-1.3-0.6c-0.1-0.1-0.2-0.1-0.3-0.2
			c4.1-1.5,8.2-2.7,12.2-4.5C175.7,211.8,179.6,209.3,183.4,206.9z M127.7,318.7c-1-2.8-1.9-5.6-2.5-8.5l0,0
			c-0.4-2.2-0.7-4.4-1.4-6.5c-0.5-1.5-0.6-3.1-0.8-4.6c0-5.4-0.3-10.9-0.6-16.4v-0.1c-0.3-4.9-0.5-9.9-0.6-14.7
			c-0.2-4.8-0.6-9.5-0.9-14.2c-0.4-5-0.4-9.9-0.5-14.8c-0.2-4.8,0-9.6-0.1-14.4l0,0c0.3-1.6,0.5-3.1,2.4-3.6
			c1.2-0.4,2.4-0.5,3.5-0.5c3.1-0.2,6.1-0.4,9.1-0.5c2.7-0.1,5.5-0.2,8.3-0.4c-3.1,0.4-6.1,0.7-9,1.4c-0.1,0-0.2,0-0.3,0.1l0,0H134
			l0,0c0,0-0.1,0-0.1,0.1c0,0,0,0.1,0,0.2c0,0.1,0.1,0.1,0.1,0.2c0.1,0.2,0,0.3,0,0.5c0,0.1,0,0.3,0.1,0.4c0,0,0,0,0,0.1l0,0
			c0.6,0.6,1.8,1.7,2.6,1.9c1,0.2,2.6-0.4,3.6-0.5c1.3-0.2,2.5-0.3,3.8-0.4c1.7-0.1,3.3-0.2,5.1-0.2c3.8-0.1,7.8,0,11.6-0.5
			c0.4,0.1,0.8,0.1,1-0.2c0.1-0.1,0-0.5,0-0.5c0-0.3,0-0.5,0-0.7c0-0.2,0-0.3,0-0.5c2.4-0.7,4.9-1.5,7.2-2.4
			c9.9,0.5,19.8-0.6,29.7-1.1c10.9-0.5,21.6-0.6,32.5-0.9c0.8,0.3,1.5,0.5,2.4,0.8c0,0.2,0,0.3-0.1,0.5c0,0.2-0.1,0.4-0.1,0.5
			c0,0,0,0,0,0.1v0.1c1.8,0.5,3.7,0.8,5.5,1.1l0,0h0.1c0.3,0.1,0.5,0,0.8,0c0.3,0,0.5,0,0.6,0c2.8,0.1,5.7,0,8.5-0.1
			c3.4-0.1,7,0,10.5-0.3h0.1c0.1,0,0.3,0,0.4-0.2c0.1-0.2,0-0.3,0-0.4l0,0l0,0c3.3,0.6,6.7,1.1,10.1,1.5c2.7,0.4,5.4,1,8.1,1.3
			c-8.9,0.2-17.7,0.6-26.7,1c-8.5,0.4-17,0.5-25.5,1c-7.4,0.3-14.9,0.7-22.3,1c-9.1,0.4-18.5,0.5-27.6,1.4l0,0
			c-5.2,0.3-10.5,0.5-15.8,0.7c-8.7,0.3-17.3,0.5-26,1.2c-1.6,0-3.5-0.1-5.1,0.5c-1.4,0.6-1.9,1.7-2.1,3.2c-0.3,2.1-0.2,4.3,0,6.4
			c-0.3,3.5-0.2,7.1-0.1,10.7c0.1,4,0.2,7.9,0.5,11.9c0.2,3.9,0.5,7.8,0.6,11.8s0.3,8,0.5,11.9c-0.1,3.9,0.2,7.9,0.3,11.9
			c0.1,4.1,0.2,8.1,0.3,12.2c0.1,4,0.3,8.1,0.5,12c0.1,2,0.3,3.9,0.4,5.9c0,0.1,0,0.2,0,0.3C129.4,323.2,128.5,320.9,127.7,318.7z
			 M282.4,246.5c-0.1,3.1-0.2,6.2-0.2,9.3c-0.1,4.1-0.5,8.1-0.5,12.2c0,2.9,0.1,5.8,0.1,8.7c0,2.3-0.1,4.6-0.1,6.9c0,0.5,0,1,0,1.4
			c0,1.8-0.1,3.5-0.1,5.3c0,1.8-0.1,3.6-0.2,5.4c0,0.8-0.1,1.6-0.2,2.4l0,0v0.1c0,0.7-0.1,1.4,0,2v0.1c0,0.2,0,0.3,0,0.5
			c-0.2,1.5-0.9,2.4-2.2,3.1c-0.6,0.4-1.4,0.6-2,0.9H277l0,0H277l0,0c-1.4,0.5-2.8,0.6-4.2,0.9c-3.3,0.7-6.7,1.4-10.1,2.2
			c-7.9,1.6-15.7,3.3-23.7,4.6c-6.9,1.2-13.8,2.2-20.6,3.3c-6.5,1.1-12.9,2.4-19.4,3.6c-5,0.9-10,1.9-15,2.8
			c-1.6,0.3-3.3,0.6-4.9,0.9c-9.1,1.4-18.2,3.7-27.2,5.2c-3,0.5-6,0.8-9,1.2c-2.4,0.3-4.7,0.7-7.1,1c-1.1,0.1-2.4,0.4-3.4-0.3
			c-0.4-0.3-0.6-0.6-0.9-1l0,0c-0.6-1.5-0.6-3.2-0.7-4.8c-0.1-1.9-0.3-3.9-0.4-5.8c-0.2-4-0.4-8.1-0.5-12c-0.1-3.9-0.1-7.7-0.2-11.6
			c-0.1-4,0-8-0.5-11.9c0.1-7.8-0.8-15.7-1.2-23.5c-0.2-3.9-0.4-7.7-0.5-11.6c-0.1-3.4,0.2-7-0.1-10.4c0-1.8-0.2-3.6-0.2-5.4
			c0-1,0-2.3,0.5-3.2c0.7-1.4,2.3-1.6,3.6-1.7c3.2-0.3,6.4-0.4,9.6-0.6c6.3-0.3,12.8-0.5,19.2-0.6c7.8-0.3,15.6-0.5,23.3-1.1
			c6.7-0.2,13.4-0.7,20.1-1c8-0.4,16-0.5,24-1.1c8-0.2,15.9-0.7,23.9-1c9.1-0.4,18.4-0.6,27.5-1.2c0.5,0.1,1.1,0.2,1.6,0.3
			c1.9,0.4,2,1.9,1.9,3.5c0,0.3,0,0.6,0,0.9c-0.2,1.5-0.1,3.2-0.1,4.7c0,2.2,0.1,4.3,0.1,6.5C282.7,240.1,282.5,243.2,282.4,246.5z"
			/>
		<path class="st1" d="M280,224.7L280,224.7L280,224.7C279.9,224.7,279.9,224.7,280,224.7L280,224.7
			C279.9,224.7,279.9,224.7,280,224.7L280,224.7c-7.1,0.4-14.1,1-21.2,1.4c-3.4,0.2-7,0.4-10.4,0.5c-2.9,0.1-5.8,0.1-8.7,0.3
			c-5.3,0.1-10.7,0.5-15.9,0.8c-5.6,0.3-11.3,0.4-16.9,0.9c-5.7,0.1-11.4,0.6-17,0.9c-4.3,0.2-8.6,0.4-12.8,0.6l-0.1-0.1
			c-7.5,0.2-15,0.7-22.5,1.1c-6.9,0.4-13.8,0.6-20.8,1.2c-0.8-0.1-1.4-0.2-1.7,0.1l0,0c0,0-0.1,0-0.1,0.1c-0.3,0.3-0.5,0.6-0.5,1.4
			c0,1.4,0.1,3,0.1,4.5c0,2,0,3.9,0,5.9c0.1,7.9,0.5,15.7,1,23.5c0,0.2,0.2,0.3,0.3,0.3c0.1,0.1,0.1,0.1,0.3,0.1
			c0.4,0.1,1-0.1,1.4-0.1c1.3-0.1,2.4-0.2,3.7-0.3l0,0c19.9-1.4,39.7-3.4,59.5-5.2c5.2-0.5,10.3-0.8,15.5-1.4
			c16.5-1.4,32.8-3.1,49.2-4.8c5.7-0.6,11.5-0.4,17.2-1.3c0.1,0,0.2-0.2,0.1-0.3c0.4-4.7,0.3-9.5,0.4-14.2c0.2-5.2,0.7-10.6,0-15.7
			C280.1,224.9,280.1,224.8,280,224.7z M279.8,233c-0.1,2.6-0.2,5.2-0.3,7.8c-0.1,3-0.2,6-0.3,9c0,1.6-0.2,3.3-0.1,5
			c-5.1,0.6-10,0.7-15.1,1c-5.2,0.3-10.4,1-15.7,1.5c-10.6,1.1-21.1,2.1-31.7,3.1c-2.9,0.3-5.8,0.5-8.8,0.8
			c-8.2,0.6-16.5,1.4-24.7,2.2c-11.2,1-22.3,2-33.6,3c-4.2,0.4-8.3,0.7-12.5,1.2c-0.7,0.1-1.4,0.1-2.2,0.2c-0.5,0.1-1.1,0.1-1.6,0.2
			c-0.4,0-0.5,0.1-0.7-0.1c-0.4-6.5-0.8-13.1-1-19.6c-0.1-3.3-0.2-6.6-0.2-9.9c0-1.3-0.1-2.5-0.1-3.8c0-0.5-0.1-1.4,0.4-1.7
			c7.4-0.1,14.8-0.5,22.3-1c6.8-0.4,13.7-0.5,20.4-1c5.1-0.1,10-0.5,15.1-0.7c6-0.3,12.1-0.4,18.1-1c0.1,0,0.1-0.1,0.1-0.1
			c5.2,0.1,10.5-0.4,15.7-0.6c5.7-0.3,11.4-0.5,17.1-0.8c2.4,0,4.8-0.1,7.2-0.2c3.5-0.1,7.1-0.3,10.7-0.5c7-0.4,13.9-0.8,20.9-1.5
			C279.8,227.7,279.9,230.4,279.8,233z"/>
		<path class="st1" d="M274.4,236.4c-0.5-1-1.1-2-1.9-2.6c0,0,0-0.1-0.1-0.1c-0.2-0.2-0.5-0.3-0.7-0.5c0,0,0,0,0-0.1
			c-2.1-2-6.2-2.6-8.9-2.4c-2.4,0.3-4.6,1.4-6.1,3.3c-2.9,3.2-2.5,8-0.8,11.9c0.7,1.7,1.5,2.5,3.3,3.3c2.3,0.9,4.8,1.1,7.2,1
			c0.1,0,0.2,0,0.3,0c2.8,0,5.5-1.7,6.9-4.1V246C275.3,243.4,275.7,239.5,274.4,236.4z M273.6,235.6c2,3.3,1.4,7.9-0.7,11
			c-1.5,1.9-3.9,3.3-6.4,3.2c-2.2-0.1-3.8-1.5-5.2-3.1c-1.3-1.6-1.9-3.5-1.7-5.7c0.1-1.1,0.4-2.3,0.7-3.3c0.2-0.5,0.7-1,0.9-1.5
			c0.7-1.1,1.6-2.1,3-2.7c2.4-1.3,5-0.9,7.3,0.2C272.3,234.1,273.1,234.8,273.6,235.6z M260.3,249.5c-2.1-0.6-3.3-1.6-4.3-3.6
			c-0.9-2.1-1.6-4.8-1.2-7.1c0.3-1.6,1.1-3.3,2.2-4.5c1.7-1.7,4-2.9,6.4-3c2.1-0.1,4.5,0.4,6.5,1.4c-1.7-0.5-3.7-0.5-5.3,0.2
			c-2.1,0.8-3.4,2.4-4.3,4.3c-0.1,0.1-0.2,0.2-0.2,0.4c-0.2,0.5-0.4,1-0.5,1.4c-0.4,1.2-0.5,2.4-0.4,3.7c0.2,2.1,1,4,2.6,5.3
			c0.9,1,2.1,1.9,3.3,2.3C263.6,250.2,261.9,249.9,260.3,249.5z"/>
		<path class="st1" d="M281.2,225.1L281.2,225.1c0-0.4-0.1-0.6-0.1-0.9c0-0.4,0-0.7-0.3-1c-0.3-0.2-0.7-0.1-1.1-0.1h-0.1
			c-12.6-0.1-25.2,0.7-37.8,1.6c-10.4,0.7-20.7,1.3-31.1,1.8c0-0.1-0.1-0.1-0.2-0.1c-10.6,0.3-21.1,0.9-31.7,1.4
			c-10.5,0.5-21,0.9-31.5,1.5c-4.7,0.3-9.4,0.6-14,1.1c-0.5,0-1.1,0.1-1.6,0.1c-0.5,0-1.5-0.1-2,0.2c-0.4,0.2-0.3,0.6-0.3,1
			c0,0.2,0,0.3,0,0.5c0,0.4,0,0.7,0,1.1c0,1,0,2.1,0.1,3.1c0,2.3,0.1,4.5,0.2,6.9c0.1,3.2,0,6.3,0,9.5c0.1,5.6,0.3,11.1,0.5,16.7
			c0,1.5,0,3.1,0.1,4.6c-0.1,1.4,0,2.8,0,4.3c0.1,2.4,0.1,4.7,0.2,7c0.1,3,0.2,6.1,0.4,9c0.4,7.4,0.6,14.9,0.8,22.3
			c0.1,3.3,0.3,6.5,0.3,9.8v0.1c-0.1,0.6,0,1.3,0.3,1.7c0.5,0.8,1.5,1,2.4,1c1.6,0,3.3-0.3,4.9-0.5c4.5-0.4,9-1.3,13.4-2.2
			c5.2-1.1,10.4-2.2,15.7-3c5.5-0.8,11-1.5,16.5-2.5c2.6-0.5,5.2-1,7.9-1.5c2.8-0.5,5.7-1,8.4-2c0.1,0,0.1-0.1,0.1-0.1
			c9-1.4,17.9-2.7,26.9-4.2c4.3-0.7,8.6-1.4,12.9-2.2c3.2-0.5,6.4-1,9.7-1.5c3.9-0.5,7.9-1.4,11.7-2.3c2.9-0.5,5.7-1.2,8.6-1.8
			c1.4-0.3,3-0.5,4.3-1c0.4-0.1,0.8-0.2,1.2-0.3c0.9-0.2,1.7-0.2,2.4-0.9c0.5-0.6,0.8-1.6,0.9-2.6c0-0.1,0.1-0.1,0.1-0.2
			c0.1-10.9,0.4-21.8,0.6-32.7c0.3-8.7,0.8-17.5,0.9-26.1c0-3.4,0-6.8-0.1-10.2C281.6,229.1,281.7,227,281.2,225.1z M280.7,253.5
			c-0.9,10.2-0.8,20.6-1,30.8c-0.1,5.3-0.3,10.6-0.3,15.9c0,0.1,0.1,0.2,0.1,0.3c0,0.6-0.2,1.3-0.5,1.8c-0.5,0.9-1.2,1-2,1.2
			c0,0-0.1-0.1-0.2-0.1c-4.7,0.9-9.4,2.1-14.1,3c-3.2,0.6-6.4,1.2-9.6,1.8c-3.8,0.5-7.7,1.4-11.5,2c-4.4,0.7-8.8,1.5-13.2,2.3
			c-9.2,1.5-18.5,2.6-27.7,4.5c-2.4,0.4-5,1.1-7.4,1.6c-2.6,0.5-5.2,1.1-7.9,1.5c-5.4,1-10.9,1.7-16.5,2.5c-5.2,0.8-10.5,1.9-15.7,3
			c-3.4,0.7-6.9,1.4-10.4,1.9c0,0,0,0-0.1,0c-2.2,0.3-4.3,0.6-6.5,0.8c-0.9,0.1-2,0.3-2.9,0c-0.9-0.4-1-1.2-1.1-2.1v-0.1
			c0-13.1-1-26.2-1.4-39.4c-0.1-2.6-0.2-5.2-0.2-7.8c0-1.6,0.1-3.3-0.1-5c0-1.2-0.1-2.4-0.1-3.5c-0.1-3-0.2-5.9-0.2-8.9
			c-0.1-5.1-0.3-10.1-0.3-15.2c0-3.3-0.4-6.6-0.4-10c0-0.5,0-1.1-0.1-1.6c0-0.9,0-1.8,0-2.8c0-0.3,0-0.5,0-0.8l0,0v-0.1l0,0
			c0-0.2,0.2-0.4,0.4-0.5c20.8-1.5,41.6-2.4,62.4-3.3c4.7-0.2,9.4-0.4,14.1-0.6c11.7,0,23.3-1.1,35-1.8c12.5-0.8,25.1-1.6,37.5-1.6
			c0.1,0,0.3,0,0.4,0c0.1,0,0.5-0.1,0.6,0c0.4,0.2,0.3,1,0.3,1.3c0,0.1,0,0.2,0,0.3v0.1c0.5,4.6,0.3,9.4,0.3,14.1
			C281,244,281.1,248.8,280.7,253.5z"/>
		<path class="st1" d="M230.3,237c-0.1-0.6,0-1.5-0.5-2c-0.5-0.6-1.4-0.6-2.3-0.5c-10.9,0.3-21.9,1.1-32.8,1.7
			c-11.1,0.7-22.3,1.4-33.4,2.3c-6.2,0.5-12.5,0.9-18.6,1.6c-0.8,0-1.6-0.1-2.4,0.3c-0.9,0.5-1,1.3-1,2.2c-0.1,0.8-0.1,1.6-0.1,2.4
			c-0.1,1.4-0.3,2.8-0.3,4.2c-0.1,2.4-0.3,5,0.1,7.4c0,0.5,0,0.9,0.1,1.4c0.3,1.3,1.7,1.1,2.7,1c0.1,0,0.1,0,0.1,0
			c11-0.6,22.2-1.8,33.2-2.8c11.4-1,22.9-2,34.3-2.9c6.3-0.5,12.7-1.1,19-1.5c0.1,0,0.1,0,0.1-0.1c0.4-0.1,0.6-0.2,0.9-0.5
			c0.5-0.6,0.6-1.4,0.5-2.3c0.1-2.2,0.1-4.3,0.1-6.6c0-1.1,0.1-2.3,0.1-3.4C230.4,238.3,230.3,237.6,230.3,237z M229,250.8
			c-0.2,0.2-0.4,0.3-0.6,0.4c-22.7,1.9-45.4,3.9-68.1,5.8c-6.2,0.5-12.3,0.9-18.4,1.6h-0.1c-0.5,0-1.1,0.1-1.5,0
			c-0.6-0.2-0.6-0.7-0.7-1.3c0-0.2,0-0.4-0.1-0.5c0.3-2.5-0.1-5.2,0-7.8c0.1-2,0.6-4.3,0.3-6.3c0-0.5,0-0.8,0.3-1.2
			c0.3-0.5,0.7-0.6,1.2-0.6c0.4,0,0.7-0.1,1-0.1c11.2-0.5,22.3-1.6,33.6-2.4c11.1-0.8,22.3-1.4,33.4-2.1c6.2-0.4,12.6-0.5,18.8-1
			c0.8,0,1.4,0.3,1.5,1.3c0.1,0.6,0.1,1.4,0.1,2c-0.2,3.4-0.3,6.9-0.3,10.2v0.1C229.5,249.3,229.6,250.2,229,250.8z"/>
		<path class="st1" d="M226.7,242.6c-1.7,0.1-3.3,0.2-5.1,0.4c0-0.6,0.1-1.6-0.2-2.2c-0.1-0.1-0.2-0.1-0.2,0
			c-0.3,0.5-0.1,1.4-0.1,2.1v0.1c-1.8,0.1-3.6,0.3-5.3,0.4c0-0.6,0.1-1.6-0.2-2.2c-0.1-0.1-0.2-0.1-0.2,0c-0.3,0.5-0.1,1.4-0.1,2.1
			c0,0.1,0,0.1,0,0.2c-1.8,0.1-3.5,0.3-5.3,0.4c0,0,0,0,0-0.1c0-0.6,0.2-1.6-0.2-2.2c-0.1-0.1-0.2-0.1-0.2,0
			c-0.3,0.5-0.1,1.4-0.1,2.1c0,0.1,0,0.2,0,0.2c-1.8,0.1-3.6,0.3-5.4,0.4l0,0c0-0.6,0.2-1.6-0.2-2.2c-0.1-0.1-0.2-0.1-0.2,0
			c-0.3,0.5-0.1,1.4-0.1,2.1c0,0.1,0,0.1,0,0.2c-1.9,0.1-3.8,0.3-5.7,0.4c0-0.6,0.1-1.5-0.2-2.1c-0.1-0.1-0.2-0.1-0.2,0
			c-0.3,0.5-0.1,1.4-0.1,2.1l0,0c-1.9,0.2-3.9,0.3-5.8,0.5c0-0.6,0.1-1.5-0.2-2.1c-0.1-0.1-0.2-0.1-0.2,0c-0.3,0.5-0.1,1.4-0.1,2.1
			l0,0c-1.9,0.2-3.9,0.3-5.8,0.5l0,0c0-0.6,0.2-1.6-0.2-2.2c-0.1-0.1-0.2-0.1-0.2,0c-0.3,0.5-0.1,1.4-0.1,2.1c0,0.1,0,0.1,0,0.2
			c-2.1,0.2-4.1,0.3-6.2,0.5c0-0.6,0.1-1.5-0.2-2.1c-0.1-0.1-0.2-0.1-0.2,0c-0.3,0.5-0.1,1.4-0.1,2.1l0,0c-2.1,0.2-4.1,0.3-6.2,0.5
			c0-0.6,0.1-1.5-0.2-2.1c-0.1-0.1-0.2-0.1-0.2,0c-0.3,0.5-0.1,1.4-0.1,2.1l0,0c-2.1,0.2-4.1,0.3-6.2,0.5c0-0.6,0.1-1.5-0.2-2.1
			c-0.1-0.1-0.2-0.1-0.2,0c-0.3,0.5-0.1,1.4-0.1,2.1c0,0,0,0,0,0.1c-0.7,0.1-1.4,0.1-2.1,0.2c-1.4,0.1-2.8,0.2-4.2,0.3
			c0-0.6,0.1-1.5-0.2-2.2c-0.1-0.1-0.2-0.1-0.2,0c-0.3,0.5-0.1,1.4-0.1,2.1v0.1c-4.6,0.3-9.3,0.6-13.9,1.1c-0.2,0-0.2,0.3,0,0.3
			c4.6-0.1,9.2-0.4,13.8-0.7c0,0.7-0.1,1.4,0,2.2c0,0.3,0.5,0.4,0.5,0.1c0.2-0.7,0.1-1.5,0.1-2.3c2.1-0.2,4.1-0.3,6.2-0.5
			c0,0.7-0.1,1.4,0,2.3c0,0.3,0.5,0.4,0.5,0.1c0.2-0.7,0.1-1.5,0.1-2.4c2.1-0.2,4.1-0.4,6.2-0.5c0,0.7-0.1,1.5,0,2.3
			c0,0.3,0.5,0.4,0.5,0.1c0.2-0.7,0.1-1.6,0.1-2.4c1.5-0.1,3-0.3,4.5-0.4c0.5,0,1.1-0.1,1.6-0.1c0,0.8-0.1,1.5,0,2.4
			c0,0.3,0.5,0.4,0.5,0.1c0.2-0.7,0.1-1.6,0.1-2.4c2-0.2,4.1-0.3,6.1-0.5c0,0.7-0.1,1.4,0,2.1c0,0.3,0.5,0.4,0.5,0.1
			c0.2-0.7,0.1-1.4,0.1-2.3c1.9-0.2,3.8-0.3,5.7-0.5c0,0.7-0.1,1.5,0,2.3c0,0.3,0.5,0.4,0.5,0.1c0.2-0.7,0.1-1.6,0.1-2.4
			c1.9-0.2,3.8-0.3,5.8-0.5c0,0.7-0.1,1.5,0,2.3c0,0.3,0.5,0.4,0.5,0.1c0.2-0.7,0.1-1.6,0.1-2.4c1.9-0.1,3.8-0.3,5.6-0.4
			c0,0.7-0.1,1.4,0,2.2c0,0.3,0.5,0.4,0.5,0.1c0.2-0.7,0.1-1.5,0.1-2.3c1.4-0.1,2.8-0.2,4.3-0.3c0.4,0,0.7-0.1,1.2-0.1
			c0,0.7-0.1,1.4,0,2.1c0,0.3,0.5,0.4,0.5,0.1c0.2-0.7,0.1-1.4,0.1-2.3c1.8-0.1,3.5-0.3,5.3-0.4c0,0.7-0.1,1.4,0,2.2
			c0,0.3,0.5,0.4,0.5,0.1c0.2-0.7,0.1-1.5,0.1-2.3c1.8-0.1,3.5-0.3,5.3-0.4c0,0.7-0.1,1.5,0,2.3c0,0.3,0.5,0.4,0.5,0.1
			c0.2-0.7,0.1-1.5,0.1-2.4c1.7-0.1,3.3-0.3,5.1-0.4C227,243.2,227.1,242.6,226.7,242.6z"/>
		<path class="st1" d="M218,239.1c0.2,0.3,0.5,0.5,0.8,0.4c0.5-0.1,0.7-0.5,0.8-0.8c0.1-0.4,0.1-0.7,0.1-1.1c0-0.2,0-0.3-0.1-0.5
			c-0.1-0.3-0.3-0.5-0.5-0.5l0,0c-0.1,0-0.2,0-0.3,0c0,0,0,0-0.1,0c-0.4,0.1-0.6,0.4-0.7,0.7c-0.1,0.5-0.2,0.9-0.1,1.3
			C217.9,238.8,217.9,238.9,218,239.1z M218.5,237.8c0-0.2,0-0.4,0.1-0.5c0-0.1,0-0.2,0.1-0.3s0.1-0.1,0.2,0
			c0.1,0.1,0.1,0.2,0.1,0.3s0,0.2,0,0.3l0,0c0,0.2,0,0.3,0,0.5s0,0.4,0,0.5c0,0.1-0.1,0.2-0.2,0.3c-0.1,0.1-0.2,0.1-0.3-0.1
			c0-0.1-0.1-0.2-0.1-0.3C218.5,238.4,218.5,238.1,218.5,237.8z"/>
		<path class="st1" d="M144.2,254.2c-0.5,0-1,0.1-1.4,0.1c-0.2,0-0.2,0-0.2,0.2s0,0.3,0,0.5c0,0.3,0,0.5,0,0.7c0,0.3,0,0.5,0,0.8
			c0,0.1,0,0.2,0,0.3c0,0.2,0,0.3,0,0.5h0.1c0.2,0,0.4,0,0.5-0.1c0.1,0,0.1,0,0.2-0.1c0-0.1,0-0.2,0-0.4c0-0.2,0-0.5,0-0.6
			c0-0.1,0-0.2,0.2-0.2s0.4,0,0.5,0c0.2,0,0.2,0,0.2-0.2s0-0.3,0-0.5c-0.3,0-0.6,0-0.9,0.1c0-0.1,0-0.2,0-0.3c0-0.3-0.1-0.3,0.3-0.3
			c0.2,0,0.5,0,0.6,0c0.1,0,0.1,0,0.1-0.1s0-0.1,0-0.2S144.2,254.2,144.2,254.2C144.2,254.2,144.2,254.2,144.2,254.2z"/>
		<path class="st1" d="M220.2,249.9c0-0.2-0.1-0.4-0.4-0.5l0,0l0.1-0.1c0.2-0.1,0.2-0.2,0.2-0.4c0-0.1,0-0.1,0-0.2
			c0-0.3-0.2-0.5-0.4-0.5c-0.3-0.1-0.5-0.1-0.8,0.1c-0.2,0.1-0.4,0.3-0.4,0.5c0,0.3,0.1,0.5,0.3,0.5l0,0c-0.1,0.1-0.1,0.1-0.2,0.2
			c0,0-0.1,0.1-0.1,0.2c-0.1,0.3-0.1,0.5,0,0.7c0.1,0.1,0.2,0.3,0.3,0.3c0.3,0.1,0.6,0.1,0.9-0.1c0.3-0.1,0.4-0.3,0.4-0.5v-0.1
			C220.2,250.1,220.2,250,220.2,249.9L220.2,249.9z M219.3,248.9c0.1-0.1,0.1-0.1,0.2,0c0.1,0.2,0.1,0.5-0.1,0.5c-0.1,0-0.1,0-0.2,0
			c0-0.1,0-0.1,0-0.1C219.2,249,219.3,248.9,219.3,248.9z M219.5,250.4C219.5,250.5,219.4,250.5,219.5,250.4c-0.2,0.1-0.2,0-0.2,0
			c-0.1-0.2,0-0.4,0.1-0.5c0.1-0.1,0.1-0.1,0.2,0c0.1,0.1,0.1,0.2,0.1,0.3C219.6,250.2,219.6,250.3,219.5,250.4z"/>
		<path class="st1" d="M147.2,254C147.1,254,147.1,254,147.2,254c-0.4,0-0.5,0-0.8,0.1c-0.2,0-0.2,0-0.3,0.3v0.1
			c-0.1,0.4-0.1,0.7-0.2,1.1c0,0.1-0.1,0.2-0.1,0.3l0,0c-0.1-0.5-0.2-1.1-0.3-1.6c-0.3,0-0.5,0-0.8,0s-0.4,0.1-0.3,0.4
			c0,0.2,0,0.4,0,0.5c0,0.5,0,1.1,0,1.7c0,0.2,0,0.3,0,0.5c0.2,0,0.4,0,0.5,0c0.1,0,0.2-0.1,0.2-0.2c0-0.1,0-0.2,0-0.3s0-0.3,0-0.4
			c0-0.2,0-0.4,0-0.5c0-0.2,0-0.5,0-0.6c0,0,0,0.1,0.1,0.1c0.1,0.5,0.1,0.8,0.2,1.3c0,0.2,0.1,0.3,0.1,0.5c0,0.1,0.1,0.2,0.2,0.2
			c0.1,0,0.2,0,0.2,0c0.2,0,0.2-0.1,0.3-0.2c0-0.1,0-0.2,0-0.2c0.1-0.5,0.2-1.1,0.3-1.6v-0.1c0,0.4,0,0.7,0,1c0,0.4,0,0.7,0,1
			c0.1,0,0.3,0,0.4,0c0.1,0,0.2,0,0.4-0.1c0-0.2,0.1-0.3,0.1-0.5c0-0.2,0-0.4,0-0.5c0-0.5,0-1,0-1.5
			C147.2,254.2,147.2,254.1,147.2,254z"/>
		<path class="st1" d="M145.8,245C145.9,245,145.9,244.9,145.8,245c0.1-0.2,0.1-0.3,0.1-0.4s0-0.3,0-0.4c0-0.3,0-0.6,0-0.9
			c0-0.1,0-0.2,0-0.3l0,0c0.1,0.5,0.2,0.9,0.2,1.4c0,0.2,0.1,0.4,0.1,0.5c0.1,0.1,0.3,0,0.4,0s0.1-0.1,0.2-0.2
			c0.1-0.3,0.1-0.5,0.2-0.9c0.1-0.3,0.1-0.5,0.2-0.9v-0.1c0,0.6,0,1.4,0,2c0.2,0,0.5,0,0.6-0.1c0.1-0.2,0.1-0.5,0.1-0.6
			c0-0.6,0-1.3,0-1.9c0-0.1,0-0.1,0-0.2c-0.3,0-0.5,0-0.8,0.1c-0.2,0-0.3,0-0.3,0.3v0.1c-0.1,0.4-0.1,0.6-0.2,1
			c0,0.1-0.1,0.3-0.1,0.4l0,0c-0.1-0.5-0.2-1.1-0.3-1.5c-0.3,0-0.5,0-0.7,0c-0.1,0-0.1,0-0.2,0c-0.1,0-0.1,0.1-0.1,0.2
			c0,0.1,0,0.2,0,0.3c0,0.3,0,0.5,0,0.7s0,0.5,0,0.6c0,0.3,0,0.5,0,0.8c0,0.1,0,0.1,0,0.2C145.5,245,145.6,245,145.8,245z"/>
		<path class="st1" d="M161.4,254L161.4,254c0-0.1,0.1-0.1,0.2-0.2c0.2-0.1,0.2-0.2,0.2-0.4c0-0.1,0-0.2,0-0.3
			c0-0.3-0.2-0.5-0.5-0.5s-0.5-0.1-0.8,0.1c-0.5,0.2-0.5,0.5-0.5,0.9c0,0.2,0.1,0.3,0.3,0.4c0,0,0,0,0.1,0c-0.1,0.1-0.2,0.1-0.2,0.2
			c-0.1,0.1-0.2,0.2-0.2,0.3c-0.1,0.3-0.1,0.5,0,0.7c0.1,0.2,0.2,0.4,0.5,0.4c0.3,0.1,0.6,0.1,0.9-0.1c0.2-0.1,0.4-0.2,0.5-0.5
			c0.1-0.2,0.1-0.5,0.1-0.6C161.8,254.2,161.7,254,161.4,254z M160.8,253.2c0.1-0.1,0.2-0.1,0.2,0c0.1,0.2,0.1,0.5-0.1,0.5
			c-0.1,0.1-0.2,0.1-0.2,0c0-0.1,0-0.1,0-0.2C160.7,253.5,160.7,253.3,160.8,253.2z M161.1,254.6c0,0.1-0.1,0.3-0.1,0.4
			c-0.1,0.1-0.2,0.1-0.3,0c0-0.1,0-0.2-0.1-0.3c0-0.1,0.1-0.3,0.1-0.4s0.1-0.2,0.2-0.2c0.1,0,0.2,0.1,0.2,0.2
			C161.1,254.5,161.1,254.6,161.1,254.6z"/>
		<path class="st1" d="M181.4,251.4c-0.1-0.3-0.3-0.4-0.5-0.5c-0.2,0-0.5,0-0.6,0c-0.3,0.1-0.5,0.3-0.6,0.5
			c-0.1,0.3-0.2,0.6-0.1,0.9c0.1,0.3,0.2,0.5,0.5,0.5c0.2,0,0.3,0,0.5-0.1c0.1-0.1,0.1-0.1,0.2-0.2c0,0.2,0,0.5-0.1,0.6
			s-0.2,0.2-0.3,0c0-0.1-0.1-0.1-0.1-0.2c-0.2,0-0.5,0-0.6,0v0.1c0,0.3,0.2,0.5,0.4,0.5c0.2,0.1,0.4,0.1,0.5,0.1
			c0.5-0.1,0.8-0.3,0.9-0.7c0.1-0.4,0.2-0.8,0.1-1.2C181.5,251.7,181.4,251.6,181.4,251.4z M180.7,252.1c0,0.1-0.1,0.2-0.1,0.3
			c0,0.1-0.1,0.1-0.2,0.1c-0.1,0-0.1-0.1-0.1-0.1c0-0.2,0-0.3,0-0.5c0-0.1,0-0.2,0.1-0.3c0.1-0.1,0.2-0.1,0.3,0
			c0,0.1,0.1,0.1,0.1,0.2C180.8,251.8,180.8,251.9,180.7,252.1L180.7,252.1C180.7,251.9,180.7,252,180.7,252.1z"/>
		<path class="st1" d="M183.1,251.7c-0.2,0-0.4,0-0.5,0.2c-0.1,0-0.1,0.1-0.2,0.1c0-0.1,0-0.2,0-0.3c0-0.2,0.1-0.3,0.1-0.5
			c0.1-0.2,0.2-0.2,0.3,0c0,0,0,0.1,0.1,0.1v0.1c0.3,0,0.5,0,0.6-0.1c0-0.3-0.1-0.5-0.3-0.5c-0.2-0.1-0.4-0.1-0.5-0.1
			c-0.4,0-0.8,0.2-1,0.8c-0.1,0.3-0.1,0.6-0.1,0.9s0,0.5,0.1,0.8s0.3,0.5,0.5,0.5c0.2,0,0.4,0,0.5,0c0.4-0.1,0.5-0.3,0.7-0.6
			c0-0.1,0.1-0.2,0.1-0.3c0-0.2,0-0.5-0.1-0.6C183.4,251.9,183.3,251.7,183.1,251.7z M182.8,253c0,0.1-0.1,0.2-0.2,0.3
			c-0.1,0.1-0.1,0.1-0.2,0v-0.1c0-0.2,0-0.5,0.1-0.6c0-0.1,0.1-0.2,0.2-0.2s0.2,0.1,0.2,0.2s0,0.2,0,0.2
			C182.8,252.8,182.8,252.9,182.8,253z"/>
		<path class="st1" d="M170.3,252.2c-0.1-0.3-0.3-0.4-0.5-0.5c-0.2,0-0.4,0-0.5,0c-0.4,0.1-0.5,0.3-0.6,0.5
			c-0.1,0.3-0.1,0.5-0.1,0.9c0.1,0.3,0.2,0.5,0.5,0.5c0.2,0,0.3,0,0.4-0.1c0.1-0.1,0.1-0.1,0.2-0.2c0,0.3,0,0.5-0.1,0.6l0,0
			c-0.1,0.1-0.1,0.1-0.2,0l-0.1-0.1v-0.1c-0.2,0-0.5,0-0.6,0v0.1c0,0.3,0.2,0.5,0.5,0.5c0.2,0.1,0.4,0.1,0.5,0
			c0.5-0.1,0.7-0.3,0.9-0.7c0.1-0.4,0.1-0.8,0.1-1.2C170.4,252.6,170.4,252.4,170.3,252.2z M169.5,253c0,0.1-0.1,0.2-0.2,0.1
			c-0.1,0-0.1-0.1-0.1-0.2s0-0.1,0-0.2c0-0.2,0-0.3,0.1-0.5c0-0.1,0.1-0.2,0.2-0.2c0.1,0,0.2,0.1,0.2,0.2
			C169.7,252.6,169.7,252.8,169.5,253z"/>
		<path class="st1" d="M159.3,254.1c0.1-0.1,0.1-0.1,0.2-0.1c0.2-0.1,0.3-0.3,0.3-0.5c0-0.1,0-0.1,0-0.2c0-0.3-0.2-0.5-0.5-0.6
			c-0.3-0.1-0.5,0-0.7,0c-0.4,0.1-0.5,0.4-0.6,0.7c0,0.3,0.1,0.5,0.4,0.6l0,0c-0.1,0-0.1,0.1-0.2,0.1c-0.1,0.1-0.2,0.2-0.2,0.3
			c-0.1,0.3-0.1,0.5,0,0.7c0.1,0.2,0.3,0.4,0.5,0.4c0.3,0,0.5,0,0.6,0c0.3-0.1,0.5-0.2,0.6-0.5c0.1-0.2,0.1-0.4,0.1-0.5
			C159.7,254.4,159.6,254.2,159.3,254.1z M158.7,253.4c0.1-0.1,0.2-0.1,0.2,0c0.1,0.2,0.1,0.5-0.1,0.5c-0.1,0.1-0.2,0-0.2-0.1
			s0-0.1,0-0.2C158.6,253.6,158.6,253.5,158.7,253.4z M158.9,255.1C158.9,255.2,158.8,255.2,158.9,255.1c-0.2,0.2-0.2,0.2-0.3,0.1
			s-0.1-0.2-0.1-0.3c0-0.1,0-0.3,0.1-0.4c0-0.1,0.1-0.2,0.2-0.1c0.1,0,0.2,0.1,0.2,0.2s0,0.1,0,0.2C159,254.9,159,255,158.9,255.1z"
			/>
		<path class="st1" d="M194.1,250.3c-0.2-0.3-0.4-0.4-0.6-0.4c-0.5,0-1,0.4-1.1,0.8c-0.1,0.3-0.1,0.6-0.1,1c0,0.1,0,0.1,0,0.2
			c0,0.3,0,0.5,0.2,0.6c0.2,0.3,0.5,0.5,0.8,0.5c0.5-0.1,0.8-0.5,0.9-0.9c0.1-0.4,0.1-0.7,0.1-1.1
			C194.2,250.8,194.2,250.6,194.1,250.3z M193.5,251.5c0,0.2,0,0.3,0,0.5c0,0.1,0,0.2,0,0.4c0,0.1-0.1,0.2-0.2,0.3
			c-0.1,0.1-0.2,0-0.2-0.1s-0.1-0.2-0.1-0.3c0-0.1,0-0.3,0-0.4c0-0.4,0.1-0.7,0.1-1c0-0.1,0-0.2,0.1-0.3s0.2-0.1,0.3,0
			c0.1,0.1,0.1,0.2,0.1,0.3C193.5,251,193.5,251.3,193.5,251.5z"/>
		<path class="st1" d="M205.9,249c-0.5,0.1-0.9,0.5-1,0.8c-0.1,0.3-0.1,0.6-0.1,0.9s0,0.5,0.1,0.8c0.2,0.4,0.5,0.5,0.9,0.5
			c0.5-0.1,0.7-0.4,0.9-0.8c0.1-0.3,0.1-0.6,0.1-0.9s0-0.5-0.1-0.8C206.5,249.1,206.1,248.9,205.9,249z M205.9,250.4
			c0,0.2,0,0.5,0,0.6c0,0.1,0,0.2-0.1,0.3c-0.1,0.1-0.1,0.2-0.2,0.2c-0.1,0-0.1-0.1-0.2-0.2c0-0.1-0.1-0.3,0-0.4
			c0-0.4,0.1-0.7,0.1-1.1c0-0.1,0-0.2,0.1-0.3s0.1-0.1,0.2,0c0.1,0.1,0.1,0.2,0.1,0.3s0,0.2,0,0.3l0,0
			C206,250.1,206,250.3,205.9,250.4z"/>
		<path class="st1" d="M195.3,249.8c-0.5,0.1-0.7,0.5-0.9,0.9c-0.1,0.3-0.1,0.5-0.1,0.9c0,0.3,0,0.5,0.1,0.8
			c0.2,0.3,0.5,0.5,0.8,0.5c0.5-0.1,0.8-0.5,1-0.9c0.1-0.3,0.1-0.6,0.1-0.9s0-0.5-0.1-0.7C196.1,249.9,195.6,249.8,195.3,249.8z
			 M195.5,251.9c0,0.1,0,0.2-0.1,0.3c-0.1,0.1-0.3,0.1-0.3-0.1s-0.1-0.3-0.1-0.5c0-0.4,0.1-0.8,0.1-1.2c0-0.1,0-0.2,0.1-0.3
			s0.1-0.1,0.2,0c0.1,0.1,0.1,0.1,0.1,0.2c0,0.1,0,0.3,0,0.4C195.5,251.2,195.5,251.6,195.5,251.9z"/>
		<path class="st1" d="M209,239.6c0.1,0.3,0.3,0.4,0.5,0.5c0.2,0,0.5,0,0.6-0.1c0.3-0.1,0.5-0.3,0.5-0.5c0.1-0.3,0.2-0.6,0.1-0.9
			c0-0.2-0.1-0.4-0.3-0.4c-0.2-0.1-0.5-0.1-0.6,0.1l-0.1,0.1l0,0c0-0.1,0-0.3,0.1-0.4c0-0.1,0-0.2,0.1-0.3c0-0.1,0.1-0.1,0.2,0
			l0.1,0.1v0.1c0.2,0,0.5,0,0.6,0c0,0,0,0,0-0.1c0-0.3-0.2-0.5-0.5-0.6c-0.2,0-0.3-0.1-0.5,0c-0.4,0.1-0.7,0.3-0.8,0.6
			c-0.1,0.4-0.1,0.7-0.1,1.1C208.9,239.3,208.9,239.4,209,239.6z M209.7,238.9c0-0.1,0.1-0.2,0.2-0.2c0.1,0,0.2,0.1,0.2,0.2
			c0,0.2,0,0.4,0,0.5c0,0.1-0.1,0.1-0.2,0.2c-0.1,0.1-0.2,0-0.2-0.1s0-0.2-0.1-0.3C209.7,239.2,209.7,239,209.7,238.9z"/>
		<path class="st1" d="M167.9,242.9c0.1,0.2,0.3,0.4,0.5,0.4c0.2,0.1,0.5,0,0.6,0c0.3-0.1,0.5-0.3,0.5-0.5c0.1-0.3,0.2-0.6,0.1-0.9
			c0-0.2-0.2-0.4-0.4-0.5c-0.2,0-0.4,0-0.5,0.1l-0.1,0.1l0,0c0-0.1,0-0.3,0.1-0.4c0-0.1,0-0.2,0.1-0.3s0.1-0.1,0.2,0
			c0,0,0,0.1,0.1,0.1v0.1c0.2,0,0.5,0,0.6,0c0-0.3-0.1-0.5-0.4-0.6c-0.2-0.1-0.4-0.1-0.5-0.1c-0.4,0.1-0.7,0.3-0.8,0.7
			c-0.1,0.4-0.1,0.7-0.1,1.1C167.9,242.4,167.9,242.6,167.9,242.9z M168.7,242.1c0-0.1,0.1-0.2,0.2-0.2c0.1,0,0.2,0.1,0.2,0.2
			c0.1,0.2,0,0.4,0,0.5l-0.1,0.1c-0.1,0.1-0.2,0.1-0.3-0.1c0-0.1,0-0.2,0-0.2l0,0C168.6,242.3,168.7,242.2,168.7,242.1z"/>
		<path class="st1" d="M184.7,242c0.2,0,0.4,0,0.6,0c0.5-0.1,0.6-0.3,0.7-0.7c0-0.1,0-0.2,0-0.3c0-0.3-0.1-0.5-0.5-0.5
			c0.1-0.1,0.2-0.1,0.2-0.2c0.1-0.1,0.2-0.2,0.2-0.3v-0.1c0-0.4-0.1-0.6-0.5-0.7c-0.3-0.1-0.5,0-0.8,0.1c-0.3,0.2-0.5,0.4-0.5,0.7
			c0,0.3,0.1,0.5,0.4,0.5c-0.1,0.1-0.2,0.1-0.2,0.2c-0.1,0.1-0.1,0.1-0.2,0.2c-0.1,0.3-0.1,0.5,0,0.7
			C184.3,241.8,184.5,242,184.7,242z M185.1,239.7c0.1-0.1,0.1-0.1,0.2,0c0.1,0.1,0.1,0.2,0.1,0.3s-0.1,0.2-0.1,0.3
			c-0.1,0.1-0.2,0.1-0.2,0C185,240.1,185,239.8,185.1,239.7z M185,240.9c0.1-0.2,0.2-0.2,0.3,0c0,0.1,0.1,0.1,0.1,0.2
			c0,0.2,0,0.3-0.1,0.5c0,0,0,0.1-0.1,0.1c-0.1,0.1-0.1,0.1-0.2,0c-0.1-0.1-0.1-0.2-0.1-0.3C185,241.1,185,241,185,240.9z"/>
		<path class="st1" d="M216.4,239.5c0.2,0,0.5,0,0.6,0c0.4-0.1,0.6-0.3,0.6-0.7c0-0.1,0-0.2,0-0.3c0-0.3-0.1-0.5-0.4-0.5l0,0
			l0.1-0.1c0.2-0.1,0.3-0.3,0.3-0.5c0-0.4-0.1-0.6-0.5-0.7c-0.3-0.1-0.5,0-0.7,0.1c-0.3,0.1-0.5,0.4-0.5,0.7c0,0.3,0.1,0.5,0.4,0.5
			c-0.1,0.1-0.2,0.1-0.2,0.2c-0.1,0.1-0.1,0.1-0.2,0.2c-0.1,0.3-0.1,0.5,0,0.7C216,239.4,216.2,239.5,216.4,239.5z M216.7,237.3
			c0.1-0.1,0.2-0.1,0.2,0c0.1,0.2,0,0.5-0.1,0.5c-0.1,0-0.1,0-0.2,0c0-0.1,0-0.1-0.1-0.2C216.6,237.5,216.6,237.4,216.7,237.3z
			 M216.7,238.4c0.1-0.1,0.2-0.1,0.3,0c0.1,0.1,0.1,0.2,0.1,0.3c0,0.1,0,0.3-0.1,0.4c0,0.1-0.1,0.1-0.2,0.1c-0.1,0-0.1-0.1-0.1-0.1
			C216.5,238.8,216.5,238.5,216.7,238.4z"/>
		<path class="st1" d="M143.7,245.1c0-0.1,0-0.1,0.1-0.2c0-0.1,0-0.1,0-0.2c0-0.1,0-0.1,0.1-0.1c0.2,0,0.3,0,0.5,0
			c0.1,0,0.1,0,0.1,0.1v0.1c0,0.2,0.1,0.3,0.2,0.3c0.2,0,0.4-0.1,0.6-0.1c-0.2-0.9-0.4-1.8-0.6-2.7c-0.3,0-0.5,0-0.8,0
			c-0.1,0-0.1,0-0.1,0.1s0,0.1-0.1,0.2c0,0.1,0,0.1-0.1,0.2c0,0.2-0.1,0.5-0.1,0.6c-0.1,0.5-0.3,1.1-0.4,1.6v0.1
			C143.3,245.1,143.5,245.1,143.7,245.1C143.7,245.1,143.7,245.1,143.7,245.1z M144.1,243c0.1,0.4,0.1,0.7,0.2,1.1
			c-0.1,0-0.3,0-0.4,0C144,243.7,144.1,243.3,144.1,243z"/>
		<path class="st1" d="M181.2,242.3c0.5-0.1,0.8-0.5,0.9-0.8c0.1-0.3,0.1-0.5,0.1-0.8l0,0c0-0.1,0-0.2,0-0.4c0-0.2-0.1-0.4-0.1-0.5
			c-0.2-0.3-0.5-0.5-0.7-0.5c-0.5,0-0.8,0.4-0.9,0.8c-0.1,0.4-0.1,0.6-0.1,1c0,0.2,0,0.4,0.1,0.5
			C180.5,242.2,180.9,242.3,181.2,242.3z M181,240.8c0-0.2,0-0.4,0.1-0.5c0-0.1,0-0.2,0.1-0.3c0-0.1,0.1-0.1,0.2,0
			c0.1,0.1,0.1,0.2,0.1,0.3s0,0.2,0,0.3c0,0.1,0,0.3,0,0.4c0,0.2,0,0.4,0,0.5c0,0.1,0,0.3-0.1,0.4c-0.1,0.2-0.3,0.1-0.3-0.1
			c0-0.1-0.1-0.2-0.1-0.3C181,241.2,181,241,181,240.8z"/>
		<path class="st1" d="M211,239.6c0.2,0.3,0.5,0.5,0.7,0.4c0.5-0.1,0.8-0.4,0.9-0.8c0.1-0.3,0.1-0.5,0.1-0.9c0-0.1,0-0.1,0-0.2
			c0-0.2,0-0.5-0.1-0.6c-0.1-0.3-0.5-0.5-0.7-0.5c-0.4,0-0.8,0.4-0.9,0.8c-0.1,0.4-0.1,0.7-0.1,1.1
			C210.9,239.2,210.9,239.4,211,239.6z M211.6,238.9C211.6,238.8,211.6,238.8,211.6,238.9c0-0.3,0-0.5,0.1-0.8c0-0.1,0-0.3,0.1-0.4
			c0.1-0.1,0.2-0.2,0.3,0c0,0.1,0.1,0.1,0.1,0.2c0,0.2,0,0.3,0,0.5c0,0.3-0.1,0.5,0,0.9c0,0.1,0,0.3-0.1,0.4
			c-0.1,0.1-0.2,0.1-0.3-0.1C211.6,239.2,211.6,239,211.6,238.9z"/>
		<path class="st1" d="M170.8,243.2c0.5-0.1,0.7-0.4,0.8-0.8c0.1-0.4,0.1-0.7,0.1-1.1c0-0.2,0-0.4-0.1-0.5c-0.1-0.3-0.5-0.5-0.8-0.5
			c-0.5,0.1-0.7,0.4-0.8,0.8c-0.1,0.3-0.1,0.5-0.1,1c0,0.2,0,0.5,0.1,0.6C170.1,243,170.4,243.2,170.8,243.2z M170.6,241
			c0-0.1,0-0.2,0.1-0.2c0.1-0.1,0.1-0.1,0.2,0c0.1,0.1,0.1,0.1,0.1,0.2c0,0.1,0,0.3,0,0.4c0,0.3-0.1,0.6-0.1,0.9
			c0,0.1,0,0.3-0.2,0.4c-0.1,0.1-0.2,0.1-0.3-0.1c0-0.1-0.1-0.2-0.1-0.4c0-0.1,0-0.2,0-0.2l0,0C170.6,241.7,170.6,241.3,170.6,241z"
			/>
		<path class="st1" d="M187.1,241.9c0.5-0.1,0.7-0.4,0.8-0.8c0.1-0.3,0.1-0.5,0.1-0.8c0,0,0-0.1,0-0.2c0-0.3,0-0.5-0.2-0.6
			c-0.1-0.3-0.4-0.4-0.6-0.4c-0.5,0-0.9,0.4-1,0.8c-0.1,0.4-0.1,0.6-0.1,1c0,0.3,0,0.5,0.2,0.7C186.4,241.8,186.8,242,187.1,241.9z
			 M186.9,239.8c0-0.1,0-0.2,0.1-0.3c0-0.1,0.1-0.1,0.2,0c0.1,0.1,0.1,0.2,0.1,0.3c0,0.2,0,0.3,0,0.5c0,0.3-0.1,0.5,0,0.7
			c0,0.1,0,0.2-0.1,0.3c0,0,0,0.1-0.1,0.1c-0.1,0.1-0.2,0.1-0.3-0.1c0-0.1-0.1-0.2-0.1-0.3s0-0.2,0-0.3l0,0
			C186.9,240.4,186.9,240.2,186.9,239.8z"/>
		<path class="st1" d="M196.7,240.6c0.1,0.3,0.5,0.5,0.7,0.5c0.5-0.1,0.8-0.4,0.9-0.8c0.1-0.3,0.1-0.5,0.1-0.7l0,0
			c0-0.1,0-0.2,0-0.3s0-0.2,0-0.4s-0.1-0.3-0.1-0.4c-0.1-0.3-0.5-0.4-0.7-0.4c-0.4,0-0.8,0.4-0.9,0.8c-0.1,0.4-0.1,0.8-0.1,1.2
			C196.5,240.3,196.6,240.5,196.7,240.6z M197.3,239.6c0-0.3,0-0.5,0.1-0.7c0-0.1,0-0.1,0.1-0.2c0.1-0.1,0.1-0.1,0.2,0
			s0.1,0.2,0.1,0.3s0,0.3,0,0.4l0,0c0,0.2,0,0.4,0,0.5c0,0.1,0,0.2,0,0.4c0,0.1,0,0.2,0,0.2c0,0.1-0.1,0.2-0.1,0.2
			c-0.1,0.1-0.2,0.1-0.3-0.1c0-0.1-0.1-0.3-0.1-0.4C197.3,240,197.3,239.8,197.3,239.6z"/>
		<path class="st1" d="M194.7,240.8c0.2,0.3,0.5,0.5,0.8,0.5c0.5-0.1,0.8-0.5,0.9-0.8c0.1-0.3,0.1-0.6,0.1-1c0-0.3,0-0.5-0.2-0.7
			c-0.2-0.3-0.5-0.5-0.7-0.5c-0.5,0-0.8,0.4-0.9,0.8c-0.1,0.3-0.1,0.5-0.1,0.8c0,0.1,0,0.2,0,0.3
			C194.6,240.4,194.6,240.6,194.7,240.8z M195.3,239.9c0-0.2,0-0.5,0.1-0.6c0-0.1,0-0.2,0.1-0.3c0.1-0.1,0.1-0.1,0.2,0
			c0.1,0.1,0.1,0.1,0.1,0.2c0,0.1,0,0.2,0,0.4c0,0.3,0,0.6-0.1,0.9c0,0.1,0,0.1,0,0.2s-0.1,0.2-0.1,0.2c-0.1,0.1-0.2,0.1-0.3-0.1
			c0-0.1-0.1-0.3-0.1-0.4v-0.1l0,0C195.3,240.1,195.3,240,195.3,239.9z"/>
		<path class="st1" d="M204.1,240.2c0.2,0.3,0.4,0.4,0.7,0.4c0.5,0,0.8-0.5,0.9-0.8c0.1-0.3,0.1-0.6,0.1-1c0-0.3,0-0.5-0.1-0.7
			c-0.2-0.4-0.5-0.5-0.7-0.5c-0.5,0-0.8,0.4-0.9,0.8c-0.1,0.3-0.1,0.5-0.1,0.9c0,0.1,0,0.1,0,0.2C204,239.7,204,239.9,204.1,240.2z
			 M204.7,239.2c0-0.2,0-0.5,0.1-0.6c0-0.1,0-0.2,0.1-0.3s0.1-0.1,0.2,0c0.1,0.1,0.1,0.2,0.1,0.2c0,0.1,0,0.3,0,0.4l0,0
			c0,0.2,0,0.4,0,0.5c0,0.1,0,0.3,0,0.4c0,0.1,0,0.2-0.1,0.3l-0.1,0.1c-0.1,0.1-0.2,0-0.2-0.1c-0.1-0.1-0.1-0.3-0.1-0.4
			C204.7,239.4,204.7,239.3,204.7,239.2z"/>
		<path class="st1" d="M172,253.2c0.3-0.3,0.5-0.6,0.5-1s-0.2-0.5-0.5-0.6c-0.3-0.1-0.5,0-0.8,0.1c-0.3,0.2-0.5,0.4-0.5,0.6
			c0,0.1,0,0.1,0,0.2v0.1c0.2,0,0.3,0,0.5,0s0.3,0,0.3-0.3v-0.1c0-0.1,0.1-0.2,0.1-0.2c0.1-0.1,0.2-0.1,0.2,0.1
			c0.1,0.1,0.1,0.3,0,0.4c0,0.1-0.1,0.2-0.2,0.3c-0.1,0.2-0.3,0.3-0.5,0.5c-0.3,0.3-0.5,0.5-0.5,0.9c0,0.1,0,0.2,0,0.3h0.1
			c0.2,0,0.3,0,0.5,0c0.3,0,0.5,0,0.9-0.1c0.1,0,0.3,0,0.4,0c0,0,0.1,0,0.1-0.1c0-0.2,0-0.4,0-0.5c-0.4,0-0.6,0.1-1,0.1
			c0.1-0.2,0.1-0.3,0.2-0.4C171.7,253.5,171.8,253.3,172,253.2z"/>
		<path class="st1" d="M157.9,244.1c0.3,0.1,0.5,0.1,0.8-0.1c0.2-0.1,0.4-0.3,0.5-0.5c0-0.1,0.1-0.2,0.1-0.4c0-0.3,0-0.5,0-0.7
			c-0.1-0.3-0.3-0.4-0.5-0.4c-0.1,0-0.3,0-0.4,0.1c-0.1,0-0.1,0.1-0.2,0.1c0-0.1,0-0.3,0-0.4c0-0.1,0-0.1,0.1-0.1s0.2,0,0.3,0
			c0.2,0,0.4,0,0.5,0c0.1,0,0.1,0,0.1-0.1c0-0.2,0-0.3,0-0.5c0,0,0,0-0.1,0c-0.5,0-0.9,0.1-1.3,0.1c-0.3,0-0.3,0-0.3,0.3
			c0,0.4,0,0.7,0,1c0,0.1,0,0.2,0,0.3c0.2,0,0.5,0,0.6-0.1v-0.1c0-0.1,0.1-0.2,0.2-0.2c0.1,0,0.1,0,0.2,0.1c0,0,0,0,0,0.1
			c0,0.2,0,0.4,0,0.5s0,0.2-0.1,0.2c0,0.1-0.1,0.1-0.2,0.1c-0.1,0-0.1-0.1-0.1-0.2v-0.1c0-0.1,0-0.1,0-0.2c-0.2,0-0.4,0-0.5,0
			c-0.1,0-0.1,0.1-0.1,0.1c0,0.1,0,0.1,0,0.2C157.5,243.8,157.6,244,157.9,244.1z"/>
		<path class="st1" d="M208.6,250.7c0-0.5,0-1.2,0-1.7c-0.3,0-0.5,0-0.8,0.1c-0.3,0.5-0.5,1-0.8,1.5c-0.2,0.3-0.1,0.5-0.1,0.8
			c0.4,0,0.6-0.1,1-0.1c0,0.2,0,0.4,0,0.5c0.1,0,0.1,0,0.2,0c0.2,0,0.3,0,0.5,0c0.1,0,0.1,0,0.1-0.2c0-0.1,0-0.3,0-0.5
			c0.1,0,0.1,0,0.2,0c0.1,0,0.1,0,0.1-0.1c0-0.2,0-0.3,0-0.5C208.7,250.7,208.7,250.7,208.6,250.7z M207.8,250.5
			c0,0.1,0,0.2-0.1,0.2s-0.2,0-0.4,0c0.2-0.4,0.3-0.6,0.5-1l0,0c0,0.1,0,0.2,0,0.3C207.8,250.2,207.8,250.4,207.8,250.5z"/>
		<path class="st1" d="M202.3,240.6c0.4,0,0.8-0.1,1.2-0.1c0.1,0,0.2,0,0.3,0s0.1,0,0.1-0.1c0-0.2,0-0.3,0-0.5c-0.3,0-0.6,0-0.9,0.1
			l0,0c0.1-0.1,0.1-0.2,0.2-0.3c0.1-0.1,0.3-0.3,0.4-0.4c0.3-0.3,0.5-0.5,0.5-1c0-0.3-0.2-0.5-0.5-0.6c-0.4-0.1-0.6,0-0.9,0.2
			s-0.4,0.5-0.4,0.8c0.2,0,0.3,0,0.5,0c0.1,0,0.2-0.1,0.2-0.2v-0.1c0-0.1,0.1-0.1,0.1-0.2c0.1-0.1,0.2-0.1,0.2,0
			c0.1,0.1,0.1,0.2,0.1,0.4s-0.1,0.3-0.3,0.5c-0.1,0.1-0.2,0.2-0.3,0.4c-0.3,0.3-0.5,0.5-0.5,0.9c0,0.1-0.1,0.2,0,0.4
			C202.1,240.6,202.2,240.6,202.3,240.6z"/>
		<path class="st1" d="M218.3,248.8c-0.2-0.3-0.4-0.4-0.6-0.4c-0.5,0-0.8,0.4-0.9,0.7c-0.1,0.4-0.1,0.6-0.1,1c0,0.2,0,0.5,0.2,0.6
			c0.1,0.2,0.4,0.4,0.5,0.4c0.5,0,0.8-0.4,1-0.7c0.1-0.3,0.1-0.5,0.1-0.8c0-0.1,0-0.2,0-0.2C218.4,249.1,218.4,248.9,218.3,248.8z
			 M217.8,249.8c0,0.2,0,0.4,0,0.5c0,0.1,0,0.2,0,0.2s0,0.1-0.1,0.1c-0.1,0.1-0.1,0.1-0.2,0.1c-0.1,0-0.1-0.1-0.1-0.2
			c0-0.1,0-0.3-0.1-0.4c0-0.4,0.1-0.6,0.1-1c0-0.1,0-0.1,0.1-0.2c0.1-0.1,0.1-0.1,0.2-0.1c0,0,0.1,0.1,0.1,0.2c0,0.1,0,0.2,0,0.2
			C217.8,249.4,217.8,249.6,217.8,249.8z"/>
		<path class="st1" d="M160.3,243.3c0,0.2,0,0.4,0,0.5c0.2,0,0.3,0,0.4,0c0.1,0,0.1,0,0.2-0.1c0.1,0,0.1-0.1,0.1-0.1
			c0-0.1,0-0.3,0-0.4c0.1,0,0.2,0,0.3,0c0-0.2,0-0.4,0-0.5c-0.1,0-0.2,0-0.3,0c0-0.5,0-1.1,0-1.6c-0.3,0-0.5,0-0.8,0.1
			c0,0,0,0.1-0.1,0.1c-0.3,0.5-0.5,0.9-0.7,1.3c-0.2,0.3-0.2,0.5-0.2,0.9C159.7,243.3,160.1,243.3,160.3,243.3z M160.3,241.9
			C160.4,241.9,160.4,241.9,160.3,241.9c0,0.2,0,0.3,0,0.5c0,0.1,0,0.2,0,0.3c0,0.2-0.1,0.2-0.2,0.2c-0.1,0-0.2,0-0.3,0
			C160.1,242.5,160.3,242.2,160.3,241.9z"/>
		<path class="st1" d="M179.3,240.3c-0.5,0.6-0.7,1.4-0.8,2.2c0.2,0,0.5,0,0.6-0.1c0,0,0.1,0,0.1-0.1c0.1-0.2,0.1-0.3,0.1-0.5
			c0.1-0.4,0.1-0.6,0.3-0.9c0.1-0.2,0.2-0.4,0.3-0.5c0.1-0.3,0.2-0.5,0.1-0.7c-0.1,0-0.2,0-0.2,0c-0.5,0-0.8,0.1-1.3,0.1
			c-0.1,0-0.2,0-0.3,0c-0.1,0-0.1,0-0.1,0.1c0,0.2,0,0.4,0,0.5C178.7,240.3,179,240.3,179.3,240.3z"/>
		<path class="st1" d="M191.7,250.2c-0.1,0-0.2,0-0.3,0c-0.2,0-0.3,0-0.4,0.3c0,0.2-0.2,0.2-0.3,0.3c-0.1,0-0.2,0-0.3,0.1
			c-0.1,0-0.1,0-0.1,0.1s0,0.3,0,0.5c0.2,0,0.4,0,0.5,0c0,0.6,0,1.3,0,2c0.2,0,0.5,0,0.6,0c0.1,0,0.1,0,0.1-0.1
			c0-0.2,0.1-0.3,0.1-0.5c0-0.3,0-0.5,0-0.8c0-0.5,0-0.9,0-1.4C191.7,250.3,191.7,250.2,191.7,250.2z"/>
		<path class="st1" d="M204.4,249.1c-0.2,0-0.3,0-0.4,0c-0.1,0-0.2,0.1-0.2,0.1s0,0.1-0.1,0.1c-0.1,0.1-0.1,0.2-0.3,0.2
			c-0.1,0-0.2,0-0.3,0.1c-0.1,0-0.2,0-0.2,0.2c0,0.1,0,0.3,0,0.4c0.1,0,0.2,0,0.3,0s0.2,0,0.3,0c0,0.6,0,1.3,0,2
			c0.2,0,0.5,0,0.6-0.1c0.1,0,0.1,0,0.1-0.1c0.1-0.2,0.1-0.4,0.1-0.5c0-0.3,0-0.5,0-0.7s0-0.6,0-0.9
			C204.4,249.6,204.4,249.4,204.4,249.1z"/>
		<path class="st1" d="M214.5,237.8c0,0.6,0,1.3,0,1.9c0.2,0,0.5,0,0.6-0.1c0.1,0,0.1,0,0.1-0.1c0-0.2,0.1-0.3,0.1-0.5s0-0.5,0-0.6
			c0-0.5,0-1,0-1.5v-0.1c-0.1,0-0.2,0-0.3,0c-0.2,0-0.3,0.1-0.3,0.2c0,0,0,0,0,0.1s-0.1,0.2-0.2,0.2c-0.1,0-0.2,0-0.3,0.1
			c-0.1,0-0.1,0-0.1,0.1s0,0.3,0,0.4C214.2,237.8,214.4,237.8,214.5,237.8z"/>
		<path class="st1" d="M200.7,238.9c0,0.6,0,1.3,0,1.9c0.3,0,0.5,0,0.6-0.1c0.1-0.3,0.1-0.4,0.1-0.6c0-0.5,0-0.9,0-1.3
			c0-0.3,0-0.5,0-0.8c-0.1,0-0.2,0-0.3,0c-0.2,0-0.3,0-0.4,0.3c0,0.1-0.2,0.2-0.3,0.2s-0.2,0-0.3,0.1c-0.1,0-0.1,0-0.1,0.1
			s0,0.3,0,0.4C200.3,238.9,200.5,238.9,200.7,238.9z"/>
		<path class="st1" d="M193.3,239.4c0,0.6,0,1.3,0,1.9c0.2,0,0.5,0,0.6,0c0,0,0.1,0,0.1-0.1c0.1-0.2,0.1-0.4,0.1-0.5
			c0-0.4,0-0.7,0-1.1s0-0.7,0-1l0,0c-0.1,0-0.2,0-0.3,0c-0.2,0-0.3,0.1-0.4,0.2l0,0c-0.1,0.1-0.1,0.2-0.3,0.2c-0.1,0-0.2,0-0.3,0.1
			c-0.1,0-0.1,0-0.1,0.1s0,0.3,0,0.4C192.9,239.4,193.1,239.4,193.3,239.4z"/>
		<path class="st1" d="M207.7,238.4c0,0.6,0,1.3,0,1.9c0.2,0,0.5,0,0.6,0c0.1,0,0.1,0,0.1-0.1s0.1-0.3,0.1-0.4c0-0.2,0-0.5,0-0.6
			c0-0.4,0-0.7,0-1.1c0-0.2,0-0.4,0-0.5c-0.1,0-0.2,0-0.3,0c-0.2,0-0.3,0.1-0.4,0.2l0,0c-0.1,0.1-0.1,0.2-0.3,0.2
			c-0.1,0-0.2,0-0.3,0.1c-0.1,0-0.1,0-0.1,0.1s0,0.3,0,0.4C207.3,238.4,207.5,238.4,207.7,238.4z"/>
		<path class="st1" d="M216.1,248.6c-0.1,0-0.1,0.1-0.2,0.1c-0.1,0.2-0.2,0.3-0.4,0.3c-0.1,0-0.1,0-0.2,0c-0.1,0-0.1,0-0.1,0.1
			c0,0.1,0,0.3,0,0.4c0.2,0,0.3,0,0.5,0c0,0.5,0,1.2,0,1.7c0.2,0,0.4,0,0.5,0c0.1,0,0.1,0,0.1-0.1s0-0.3,0-0.4c0-0.5,0-1.1,0-1.5
			c0-0.2,0-0.4,0-0.5C216.3,248.6,216.2,248.6,216.1,248.6z"/>
		<path class="st1" d="M278.1,230.8c0-1.2,0.2-2.4-0.1-3.6c0-0.1,0-0.1-0.1-0.1c0.2-0.1,0.2-0.5-0.1-0.5c-11,0.5-22,1-33,1.5
			c-9.7,0.5-19.4,0.7-29.2,1.4c-4.9,0.2-9.7,0.6-14.6,0.9c-5.3,0.4-10.8,0.6-16.1,0.9c-10.6,0.5-21.1,1.1-31.7,1.6
			c-6.2,0.4-12.3,0.5-18.4,1.1c-0.1,0-0.3,0-0.4,0c-0.2,0-0.3,0-0.5,0.1H134l0,0c-0.1,0.1-0.1,0.1-0.1,0.2c-0.1,0.2-0.1,0.5-0.1,0.6
			c0,0.1,0,0.3,0.1,0.4c0.2,8.8,0.2,17.5,0.5,26.3c0,1.1-0.1,2.4,0.2,3.6c0,0.1-0.1,0.1,0,0.2c0.2,0.5,0.6,0.5,1.2,0.5
			c1.5-0.1,3.1-0.3,4.6-0.5c3.6-0.3,7.3-0.6,10.9-0.9c7.3-0.6,14.6-1.3,21.9-2c14.7-1.4,29.3-2.8,44-4.3c7.3-0.8,14.7-1.4,21.9-2.5
			c6.2-0.7,12.3-1.3,18.5-1.7c6.7-0.5,13.5-0.7,20.3-1.5c0.1,0,0.1,0,0.2-0.1c0.1,0,0.2-0.1,0.2-0.3c-0.1-4.9-0.1-9.7-0.1-14.6
			C278.1,235.5,278.1,233.1,278.1,230.8z M257.3,253.5c-6.2,0.5-12.6,0.9-18.6,2.1c-13.1,1.2-26.1,2.9-39.2,4.2
			c-14,1.4-28,2.7-42.2,3.9c-3.9,0.4-7.7,0.6-11.6,1c-2,0.2-4,0.4-6,0.5c-0.4,0-4.4,0.7-4.6,0.3c0-0.1-0.1-0.1-0.1-0.1
			c-0.3-1-0.1-2.3-0.1-3.2c-0.1-2.4-0.1-4.8-0.2-7.1c-0.1-5.3-0.2-10.7-0.3-16c0-1.2,0-2.4-0.1-3.5c0-0.2,0-0.5,0-0.6
			s0.1-0.2,0.2-0.3c0.1,0,0.3,0,0.4,0c10.9-0.3,21.7-1.2,32.5-1.8c10.6-0.6,21.1-1.2,31.7-1.8c5.9-0.4,11.9-0.5,17.7-1.2
			c9.4-0.3,18.7-0.8,28-1.3c10.9-0.5,21.9-0.9,32.8-1.5l-0.1,0.1c-0.2,1.2-0.1,2.5-0.1,3.7c0,2.4,0,4.7,0,7.1
			c0,4.7-0.1,9.4,0.1,14.1C270.9,252.6,264.1,253,257.3,253.5z"/>
		<path class="st1" d="M243.6,260.7c-0.6-0.5-1.7-0.5-2.6-0.3c-3.2,0.1-6.3,0.5-9.4,0.8c-3.5,0.4-7.1,0.7-10.6,1.1
			c-4.5,0.5-9,1-13.5,1.6h-0.1c-6.1,0.4-12.1,1.3-18.2,1.8c-6.2,0.5-12.2,1-18.4,1.5c-11.1,0.9-22.3,1.8-33.2,3.8
			c-0.5,0-1.1,0.1-1.6,0.2c-0.6,0.1-1.5,0.2-2,0.6c-0.6,0.6-0.9,1.9-0.8,3c-0.3,2.8,0.4,5.9,0.4,8.5c0,4.6,0.1,9.2,0.1,13.9
			c0,6.2,0.2,12.1,0.5,18.3c0.2,2.7,0.3,5.4,0.4,8.1c0,0.1,0,0.1,0,0.1c0,0.9,0.1,1.9,0.6,2.5c0.5,0.7,1.5,0.5,2.3,0.5
			c0.1,0,0.3,0,0.4,0h0.1c0.2,0,0.3-0.1,0.5-0.1c2.2-0.2,4.4-0.5,6.6-1.1h0.1c10.5-1.7,20.9-3.6,31.3-5.4c15.4-2.6,30.7-5.3,46-8
			c6-1.1,12.1-1.8,18-3.3c1,0,2-0.2,2.6-1.1c0.5-0.6,0.6-1.5,0.6-2.4c0.1-0.1,0.1-0.1,0.1-0.2c0.1-7.6,0.2-15.2,0.4-22.8
			c0.1-3.7,0.1-7.4,0.2-11c0-1.7,0.1-3.5,0.1-5.2c0-0.8,0-1.5-0.1-2.3C244.3,263,244.5,261.5,243.6,260.7z M243.5,283.2
			c-0.1,7.4-0.3,14.7-0.4,22.2c0,0.1,0,0.2,0.1,0.2c0,0.6-0.1,1.3-0.5,1.8c-0.5,0.7-1,1-1.7,1.2c-5.3,0.5-10.7,1.8-16,2.7
			c-7.3,1.3-14.7,2.5-22,3.8c-15.4,2.6-30.7,5.3-46,8.1c-4.1,0.7-8.1,1.4-12.1,2.2h-0.1c-1.9,0.4-3.9,0.6-5.8,0.9
			c-0.7,0.1-1.7,0.4-2.4,0.3c-1.3-0.2-1.5-1.4-1.6-2.6c0,0,0.1-0.1,0.1-0.2c0.3-3-0.2-6.2-0.4-9.2c-0.2-2.8-0.5-5.6-0.5-8.4
			c0-5.9-0.1-11.8-0.1-17.6c0-3,0.1-6-0.1-9c-0.2-2.2-0.4-4.5-0.1-6.7c0.2-0.4,0.5-0.7,0.9-0.9c0.3-0.1,0.5-0.2,0.8-0.3
			c0,0,0,0,0.1,0c11.9-1.5,23.8-2.8,35.7-3.9c6.2-0.5,12.2-1,18.4-1.5c5.2-0.5,10.5-0.7,15.6-1.5c5.4-0.6,10.8-1.4,16.2-1.9
			c3.4-0.4,6.9-0.7,10.2-1c3.3-0.3,6.8-0.5,10-0.9c0.4,0,0.8,0,1.2,0.2c0.4,0.3,0.5,0.7,0.5,1.2h-0.1
			C243.9,269.2,243.6,276.3,243.5,283.2z"/>
		<path class="st1" d="M278.9,256.9c-0.2-0.1-0.4-0.1-0.5-0.1h-0.1c-5.4,0.2-10.9,0.7-16.4,1.3c-4.7,0.5-9.6,0.8-14.2,1.7
			c-1,0-1.9-0.1-2.2,1.2c-0.1,0.5-0.2,0.9-0.2,1.4c-0.2,0.8-0.1,1.5-0.1,2.4c0,0.5,0,0.9,0,1.4v0.1c0,1.1-0.1,2.1-0.2,3.2
			c-0.1,3-0.3,6.1,0,9c0.2,2.1,0,4-0.1,6.1c0,2.3,0,4.4,0,6.7c-0.1,4.7-0.2,9.4-0.2,14.2c-0.1,0.7-0.1,1.5,0.5,2
			c1.1,0.7,2.9,0.5,4.3,0.2c4-0.4,8-1,11.9-1.7c5.1-0.9,10.2-1.9,15.1-3.3c0.1,0,0.1-0.1,0.1-0.1c0.8-0.4,1.4-0.9,1.6-1.9
			c0.2-0.8,0.1-1.7,0.2-2.5c0.2-3.8,0.3-7.6,0.4-11.3c0.2-7.6-0.1-15.2,0.2-22.8c0.1-1.7,0.2-3.3,0.2-5.1c0-0.2,0-0.4,0-0.5
			C279.3,257.8,279.2,257.2,278.9,256.9z M278.8,258.6c0,0.5-0.1,1-0.1,1.5c-0.1,1.5-0.2,3.2-0.2,4.7c-0.1,2.7-0.2,5.4-0.1,8.1
			c0.1,7.5-0.1,14.9-0.4,22.4c0,1.3-0.1,2.5-0.2,3.8c0,0.3,0,0.5-0.1,0.8c-0.2,1.4-1.3,1.8-2.4,2.3c-4.5,1-9,2.2-13.7,3
			c-4.5,0.8-9,1.4-13.7,2.1c-0.5,0-1.2,0-1.6-0.2s-1-0.5-1.2-1c-0.1-0.2,0-0.5-0.1-0.6l0,0c0,0,0,0,0-0.1c0-4.5,0.1-9.1,0.2-13.7
			c0-2.2,0-4.3,0-6.4c0-2.1,0.4-4.2,0.2-6.2c-0.3-2.9-0.2-6-0.1-8.9c0-1.3,0.1-2.5,0.1-3.8c0-0.1,0-0.2,0-0.3c0,0,0-0.1,0.1-0.1
			c0.3-1.3,0-2.5,0.1-3.8c0-0.7,0.3-1.9,0.9-2.2h0.1c5.2-0.4,10.3-1.2,15.5-1.6c5.2-0.5,10.5-0.8,15.7-1.2c0.2,0,0.4,0,0.5,0
			c0.5,0.1,0.3,0.5,0.5,0.9v0.1C278.9,258.4,278.8,258.5,278.8,258.6z"/>
		<path class="st1" d="M268,268.7L268,268.7c-0.1-0.2-0.1-0.3-0.2-0.4c0,0,0,0,0-0.1c-0.7-0.8-2.3-1.4-3.3-1.5
			c-0.8-0.2-1.5-0.1-2.3,0.2c-2,0.5-3.5,2.2-3.9,4.3c-0.3,2,0.5,4.6,2.5,5.2h0.1c1.3,0.5,2.5,0.8,3.9,0.7c0.9,0,1.9-0.2,2.7-0.6
			c0.1,0,0.2-0.1,0.2-0.1l0,0l0,0c0.1-0.1,0.3-0.2,0.4-0.4c0.5-0.8,0.9-2.4,1-3.3C269.4,270.9,269.2,269.6,268,268.7z M261,276.3
			C261,276.3,261,276.2,261,276.3c-1.9-1-2.6-3-2.4-5c0.3-1.8,1.5-3.3,3.1-4c1.1-0.4,2.2-0.5,3.4,0.1c0.4,0.2,0.8,0.3,1.3,0.4
			c-0.5-0.1-1.1,0-1.5,0.2c-1,0.3-1.9,0.7-2.4,1.5c-2,1.6-2.1,5.5,0,7c0.1,0,0.1,0,0.2,0c0.2,0.2,0.4,0.3,0.6,0.5
			C262.6,276.6,261.8,276.4,261,276.3z M268.9,273.2c-0.2,0.6-0.4,1.4-0.7,2.1c-0.5,1-1.1,1.1-2,1.4c-1.2,0.2-2.4-0.2-3.6-0.7
			c-0.2-0.3-0.4-0.5-0.5-0.7c0.5-0.1,1.1-0.6,1.4-0.9c0.7-0.5,1.4-1.1,2.2-1.7c0.2-0.1,0-0.5-0.2-0.4c-0.7,0.3-1.4,0.8-2,1.4
			c-0.4,0.3-0.8,0.6-1.2,0.9c-0.1,0.1-0.3,0.2-0.4,0.2c-0.5-1.4-0.3-3,0.5-4.3c0,0,0.1,0,0.1-0.1c0.9-1.7,2.8-2.3,4.6-1.9
			C268.6,269.5,269.4,271,268.9,273.2z"/>
		<path class="st1" d="M267.6,288.1L267.6,288.1c-1.5-1-3.9-2.1-5.7-1.7c-1.2,0.2-1.8,0.9-2.4,1.7c-1.4,1.5-2.1,3.9-1.1,5.8
			c1,1.7,3.6,3,5.7,2.9c0,0,0,0,0.1,0c2.8-0.1,4.3-1.9,4.7-4.5C269.3,290.6,269,288.9,267.6,288.1z M259,293.4
			c-0.6-1.3-0.5-2.7,0.1-4.1c0.7-1,1.4-2.1,2.6-2.5c1.5-0.6,3.3,0.1,4.8,0.9l0,0c-2.6-0.8-5.5,1.4-5.8,4.2c-0.2,1.6,0.6,3.3,1.9,4.3
			C261,295.6,259.5,294.6,259,293.4z M268.6,291.7c0,0-0.1-0.1-0.2-0.1c-0.6,0-1.2,0.1-1.8,0.2c-0.6,0.1-1.4,0.1-2,0.3
			c-0.1,0-0.1,0.2,0,0.3c0.5,0.2,1.1,0.1,1.7,0c0.7-0.1,1.4-0.2,2.1-0.2h0.1c0,0,0,0,0,0.1c-0.2,1.1-0.4,2.3-1.3,3.1
			c-0.6,0.5-1.6,1-2.5,1.2c-2.4,0.1-4.2-2.9-3.5-5.2c0.6-2.7,3.6-3.7,6.1-3l0,0C268.5,288.9,268.7,290.4,268.6,291.7z"/>
		<path class="st1" d="M136.7,275.6c6.4,0.6,13-0.8,19.4-1.6c6.5-0.8,13.1-1.5,19.6-2.3c13.1-1.4,26.2-2.8,39.4-4.1
			c7.5-0.7,15-1.1,22.5-2c0.9-0.1,0.9-1.4,0-1.4c-6.6,0.3-13.2,1.1-19.7,1.6c-6.6,0.6-13.1,1.3-19.7,2c-13.1,1.4-26.2,2.9-39.4,4.6
			c-7.3,1-14.7,2.4-22.2,2.7C136.5,275.2,136.5,275.5,136.7,275.6z"/>
		<path class="st1" d="M237.2,267.6c-13.1,2-26.2,3.7-39.4,5.4c-12.8,1.7-25.8,3.4-38.7,4.5c-7.4,0.6-14.8,1.3-22.3,2.1
			c-0.4,0-0.5,0.6,0,0.6c13.2-0.7,26.3-2.2,39.4-3.5c12.9-1.3,26-2.7,38.9-4.5c7.5-1.1,14.9-2.2,22.3-3.3
			C238.6,268.8,238.1,267.4,237.2,267.6z"/>
		<path class="st1" d="M237.6,273.7c-26.1,3.8-52.4,6.5-78.7,8.8c-7.2,0.6-14.5,0.9-21.7,2.1c-0.5,0.1-0.4,0.8,0.1,0.8
			c6.6,0.1,13.1-0.5,19.7-1.1s13.1-1.2,19.6-1.8c12.9-1.3,25.9-2.8,38.8-4.6c7.4-1,14.9-2,22.3-3.1
			C238.4,274.6,238.1,273.6,237.6,273.7z"/>
		<path class="st1" d="M198.3,283.9c-13.2,1.5-26.3,3.1-39.5,4.5c-7.3,0.8-14.7,1.7-22.1,2.8c-0.3,0-0.2,0.5,0.1,0.5
			c13.2-0.9,26.4-2.7,39.5-4.2c13.2-1.4,26.3-3,39.5-4.4c7.5-0.8,15-1.6,22.6-2.3c1.4-0.1,1.1-2.1-0.3-1.8
			C225,280.9,211.6,282.3,198.3,283.9z"/>
		<path class="st1" d="M146.4,297.5c3.4-0.3,6.9-0.7,10.3-1.1c6.8-0.7,13.5-1.5,20.2-2.4c13.2-1.6,26.4-3.6,39.5-5.7
			c7.5-1.2,15-2.5,22.5-3.8c0.8-0.2,0.5-1.4-0.4-1.2c-26.6,4.6-53.3,8.3-80.1,11.3c-3.7,0.5-7.5,0.8-11.2,1.2
			c-3.6,0.4-7.5,0.6-10.9,1.6c-0.3,0.1-0.2,0.5,0.1,0.5C139.7,298.2,143.2,297.8,146.4,297.5z"/>
		<path class="st1" d="M137.1,304.1c26.7-1.4,53.2-6.2,79.6-10.2c7.5-1.2,15.1-2.4,22.7-3.3c0.9-0.1,0.5-1.5-0.4-1.4
			c-13.2,2.2-26.5,4-39.8,5.9c-13.4,2-26.9,4-40.3,5.5c-7.3,0.8-14.7,1.4-22,2.7C136.5,303.3,136.6,304.1,137.1,304.1z"/>
		<path class="st1" d="M216.2,299c7.5-1,15-2,22.6-2.9c0.5-0.1,0.5-1,0-0.9c-26.5,3.3-53.1,6.3-79.6,9.8c-7.3,0.9-14.7,1.9-22.1,3.2
			c-0.5,0.1-0.4,0.8,0.1,0.8c13.2-1.2,26.3-3.1,39.4-4.8C189.8,302.4,203,300.7,216.2,299z"/>
		<path class="st1" d="M215.9,304.3c7.3-1.1,14.7-2.3,22-3.5c0.7-0.1,0.5-1.3-0.3-1.1c-25.8,4.1-51.7,7.5-77.7,10.3
			c-7.3,0.8-14.7,1.4-21.9,2.4c-0.5,0.1-0.6,0.9,0,0.9c13.1-0.5,26.3-2.3,39.4-3.8C190.2,307.9,203,306.2,215.9,304.3z"/>
		<path class="st1" d="M239.5,302.7c-12.8,3.2-25.9,5.5-38.8,7.9c-13,2.4-26.1,4.2-39.2,6c-7.3,1-14.7,1.8-22,2.8
			c-0.4,0.1-0.3,0.7,0.1,0.7c13.1-0.3,26.2-2,39.3-4.2c13-2.2,26-4.6,38.9-7.3c7.3-1.5,14.7-3.3,22.1-4.7
			C240.7,303.7,240.3,302.4,239.5,302.7z"/>
	</g>
</g>
</svg>
