<?xml version="1.0" encoding="utf-8"?>
<!-- Generator: Adobe Illustrator 19.2.0, SVG Export Plug-In . SVG Version: 6.00 Build 0)  -->
<svg version="1.1" id="Layer_1" xmlns="http://www.w3.org/2000/svg" xmlns:xlink="http://www.w3.org/1999/xlink" x="0px" y="0px"
	 viewBox="0 0 400 400" style="enable-background:new 0 0 400 400;" xml:space="preserve">
<style type="text/css">
	.st0{fill:#231F20;}
	.st1{fill:#FFFFFF;}
</style>
<g>
	<g>
		<g>
			<path class="st0" d="M71.1,169.3c11.1,0.6,22.2,0.2,33.3,0.2c11.3,0,22.5-0.1,33.8-0.1c22.4,0,44.7,0.1,67.1,0.2
				c0.5,0,0.5-0.7,0-0.7c-22.4-0.2-44.7-0.4-67.1-0.4c-11.1,0-22.2,0-33.3-0.1c-11.2,0-22.6-0.3-33.8,0.4
				C70.8,168.9,70.8,169.3,71.1,169.3L71.1,169.3z"/>
		</g>
	</g>
	<g>
		<g>
			<path class="st0" d="M73.4,189.8c22.1,1,44.3,0.4,66.4,0.2c22.1-0.2,44.3-0.6,66.4-1.3c0.5,0,0.5-0.8,0-0.8
				c-22.1,0.5-44.3,0.9-66.4,1.2c-22.1,0.2-44.3-0.2-66.4,0.5C73.3,189.5,73.3,189.7,73.4,189.8L73.4,189.8z"/>
		</g>
	</g>
	<g>
		<g>
			<path class="st0" d="M206.8,169.9c-0.6,2.2-0.1,5.1-0.1,7.5c0.1,3.3,0.3,6.6,0.5,9.9c0,0.6,1,0.6,1,0c-0.2-3.3-0.4-6.6-0.5-9.9
				c0-2.5,0.3-5.1-0.5-7.5C207.1,169.7,206.9,169.7,206.8,169.9L206.8,169.9z"/>
		</g>
	</g>
	<g>
		<g>
			<path class="st0" d="M71.1,168.9c-1.9-0.2-0.9,5.5-0.9,6.8c0,4-0.4,8.2,0.2,12.1c0.1,0.5,0.9,0.4,0.9-0.1c0-3.4-0.1-6.7-0.1-10.1
				c0-1.2,0.1-2.4,0-3.6c-0.1-1.2-0.8-3.8,0.1-4.8C71.3,169.1,71.3,168.9,71.1,168.9L71.1,168.9z"/>
		</g>
	</g>
	<g>
		<g>
			<path class="st0" d="M137.8,169.3c-0.1,1.9,0.2,7,0.2,8.7c0,3.5-0.1,7.8,0.1,11.4c1.7,0,1.6,0.3,2.5,0.2c0.1-3.5,0-8,0-11.6
				c0-1.6,0.3-6.8,0.1-8.7C139.9,169,139,169,137.8,169.3z"/>
		</g>
	</g>
	<g>
		<g>
			<path class="st0" d="M244.1,168.8c-6.9-3.1-14.7-3.4-19.2,3.6c-0.2,0.3,0.3,0.8,0.6,0.4c2.5-3,5.2-5.3,9.2-5.6
				c3.2-0.3,6.4,0.7,9.4,1.7C244.1,168.9,244.2,168.8,244.1,168.8L244.1,168.8z"/>
		</g>
	</g>
	<g>
		<g>
			<path class="st0" d="M230.7,167.8c-5.4,2.3-8.7,7.6-8.7,13.5c0,6.1,3.7,12.1,10,13.3c0.3,0.1,0.5-0.4,0.1-0.5
				C220.1,190,220.6,173.7,230.7,167.8C230.8,167.8,230.8,167.7,230.7,167.8L230.7,167.8z"/>
		</g>
	</g>
	<g>
		<g>
			<path class="st0" d="M228.9,193.2c4.5,2.1,10.1,2.8,14.6,0.6c3.7-1.8,6.7-5.6,7.2-9.7c0.1-0.5-0.7-0.5-0.8-0.1
				c-1.2,3.9-3.1,7.2-6.9,9.1c-4.5,2.3-9.4,1-14.1,0.1C228.9,193,228.8,193.1,228.9,193.2L228.9,193.2z"/>
		</g>
	</g>
	<g>
		<g>
			<path class="st0" d="M235.3,166.8c4.5,0.5,8.6,1.4,11.8,4.7c4.6,4.7,3.5,11.1,1.4,16.7c-0.1,0.3,0.4,0.5,0.6,0.2
				c2.8-5.1,3.3-12.3-0.8-16.9c-3.5-3.9-8-4.9-13-4.8C235.2,166.7,235.2,166.8,235.3,166.8L235.3,166.8z"/>
		</g>
	</g>
	<g>
		<g>
			<path class="st0" d="M243.3,163.2c-7.4-2.7-17.5-1.6-22.2,5.3c-5,7.3-5.8,17,0.2,23.9c0.3,0.4,0.9-0.1,0.7-0.5
				c-5.2-7-5.3-15.5-0.5-22.8c4.6-7,14.2-7.6,21.7-5.7C243.3,163.3,243.3,163.2,243.3,163.2L243.3,163.2z"/>
		</g>
	</g>
	<g>
		<g>
			<path class="st0" d="M238.5,197.6c0.7,0.4,0.8,1.2,1.4,1.5c0.7,0.4,1.8-0.1,2.5-0.2c2.7-0.5,4.8-1.3,6.8-3.1
				c4.2-3.9,7.1-9.6,7.2-15.5c0-10.9-9.6-17.4-19.5-18.4c-0.3,0-0.3,0.4-0.1,0.5c8.9,1.5,18,6.8,18.7,16.8c0.4,5.5-2,10.8-5.6,14.9
				c-2,2.3-4.1,3.4-7,4.2c-1,0.2-2.2,0.7-3.1,0.3C239.3,198.3,239.1,197.7,238.5,197.6C238.5,197.5,238.5,197.6,238.5,197.6
				L238.5,197.6z"/>
		</g>
	</g>
	<g>
		<g>
			<path class="st0" d="M211.5,198c0.6-2.1,3.2-3.1,5-4.1c2.7-1.4,5.1-1.6,8.1-1.1c3.7,0.5,7.5,1.5,10.8,3.2
				c6.5,3.5,10.7,10.9,13,17.7c0.2,0.5,0.9,0.3,0.8-0.2c-0.9-4.1-3.4-8.1-5.9-11.5c-2.6-3.5-5.7-6.3-9.9-7.9
				c-3.9-1.5-9.1-2.9-13.3-2.3c-2.3,0.3-4.2,1.6-6.1,2.8c-1.4,0.9-2.4,1.6-2.7,3.3C211.3,198.1,211.5,198.1,211.5,198L211.5,198z"/>
		</g>
	</g>
	<g>
		<g>
			<path class="st0" d="M246.5,213c1.9,0.5,3.5,1.5,4.9,2.9c1.5,1.5,1.8,3.5,2.8,5.2c0.2,0.3,0.7,0.1,0.6-0.2
				c-1.1-3.9-3.8-7.8-8.2-8.1C246.4,212.7,246.3,212.9,246.5,213L246.5,213z"/>
		</g>
	</g>
	<g>
		<g>
			<path class="st0" d="M253.7,220.1c0.9,0.7,1.9,1.1,2.8,1.9c0.8,0.8,1.3,1.8,1.9,2.6c0.4,0.6,0.9,1,1.5,1.5c1,0.9,1.6,1.9,2.3,3
				c0.2,0.4,0.9,0.1,0.7-0.3c-0.8-2.4-3.1-3.6-4.4-5.7c-1-1.6-2.6-3.2-4.7-3.3C253.6,219.9,253.6,220,253.7,220.1L253.7,220.1z"/>
		</g>
	</g>
	<g>
		<g>
			<path class="st0" d="M261.2,227.2c2.3,0.8,3.4,1.9,5,3.7c0.5,0.6,0.9,1.1,1.7,1.3c1.2,0.3,2.6-0.3,3.8-0.3c2.1,0,3.8,0.7,5.8,1.3
				c0.3,0.1,0.4-0.3,0.2-0.5c-1.3-0.8-2.7-1.2-4.3-1.4c-1.5-0.2-5,0.6-6.3-0.3c-1.2-0.8-1.8-2.3-3.1-3.1
				C263.2,227.2,262.3,226.9,261.2,227.2C261.1,227.1,261.1,227.2,261.2,227.2L261.2,227.2z"/>
		</g>
	</g>
	<g>
		<g>
			<path class="st0" d="M277.8,233c2.1-1.9,4.2-3.8,6.6-5.4c1.9-1.3,4.3-2.2,6-3.7c1.5-1.3,2.3-3.3,3.8-4.6c2.4-2.1,5.3-2.6,8.3-3
				c0.4,0,0.5-0.6,0.1-0.7c-4.4-0.7-8.8,1.9-11.3,5.4c-1.9,2.7-4.4,3.6-7.1,5.5c-2.5,1.8-4.7,3.8-6.7,6.3
				C277.4,232.9,277.6,233.1,277.8,233L277.8,233z"/>
		</g>
	</g>
	<g>
		<g>
			<path class="st0" d="M296.5,192.5c-0.8,1.2-1.9,2-1.8,3.6c0.1,1.6,1,3.7,1.8,5.1c0.2,0.4,0.8,0.1,0.7-0.3
				c-0.4-1.6-1.8-3.4-1.7-5.1c0-1.2,1.2-2,1.2-3.2C296.7,192.4,296.5,192.4,296.5,192.5L296.5,192.5z"/>
		</g>
	</g>
	<g>
		<g>
			<path class="st0" d="M296.2,200c-3.6,4.5-0.8,12.7,2.2,16.9c0.4,0.5,1.2,0,0.8-0.5c-1.6-2.2-2.3-4.7-3-7.2
				c-0.9-3.3-0.3-5.7,0.4-8.9C296.7,200,296.4,199.8,296.2,200L296.2,200z"/>
		</g>
	</g>
	<g>
		<g>
			<path class="st0" d="M288.1,164.5c-3.6,3.5-1.5,10-0.2,14.1c1.6,5.1,4.6,10.5,8.1,14.5c0.3,0.3,0.8-0.1,0.6-0.5
				c-2.3-4.4-5.5-8.2-7.3-12.9c-1.8-4.8-3.1-10.3-1.1-15.1C288.2,164.5,288.1,164.5,288.1,164.5L288.1,164.5z"/>
		</g>
	</g>
	<g>
		<g>
			<path class="st0" d="M269.7,163.6c2.5,5.8,12.6,6.2,17.3,3.1c0.4-0.3,0.1-0.8-0.4-0.6c-5.5,2.5-12.6,1.8-16.8-2.6
				C269.8,163.4,269.7,163.5,269.7,163.6L269.7,163.6z"/>
		</g>
	</g>
	<g>
		<g>
			<path class="st0" d="M238,155.1c-0.3,2.5,1.9,5.3,3.6,6.9c2.4,2.4,5.6,3.7,8.9,4.3c4,0.7,8.2,0.4,12.2,0c2.5-0.3,5.4-0.7,7-2.9
				c0.2-0.3-0.3-0.7-0.5-0.4c-2.5,2.1-5,2.4-8.1,2.6c-3.2,0.2-6.3,0.4-9.5,0c-2.9-0.4-5.8-1.3-8.1-3.2c-2-1.5-4.8-4.7-5.1-7.4
				C238.3,155,238,155,238,155.1L238,155.1z"/>
		</g>
	</g>
	<g>
		<g>
			<path class="st0" d="M212.1,196.4c-1.8,2.1-0.8,4.7,0.8,6.6c2.5,3.1,4.9,6.1,8.1,8.6c0.3,0.3,0.8-0.3,0.4-0.6
				c-2.1-1.7-4-3.6-5.8-5.7C213.7,202.8,210.4,200,212.1,196.4C212.2,196.4,212.2,196.3,212.1,196.4L212.1,196.4z"/>
		</g>
	</g>
	<g>
		<g>
			<path class="st0" d="M211.9,196.8c5-4.4,11.3,3.2,14,6.9c1.5,2.1,3.6,5.5,0.2,6.9c-1.5,0.6-3.8,0.8-5.2-0.1
				c-0.2-0.2-0.5,0.2-0.3,0.4c1.4,1.5,4.6,1.1,6.3,0.3c2.3-1.1,2.3-3.6,1.2-5.6C225.6,201.2,217.3,190.8,211.9,196.8
				C211.8,196.8,211.9,196.8,211.9,196.8L211.9,196.8z"/>
		</g>
	</g>
	<g>
		<g>
			<path class="st0" d="M219.1,209.6c2,3.1,3.1,6.7,4.5,10.1c0.9,2.3,1.7,5.6,4.1,6.8c0.3,0.1,0.7-0.2,0.4-0.5
				c-4.5-4.4-4-12.3-8.9-16.5C219.2,209.5,219,209.5,219.1,209.6L219.1,209.6z"/>
		</g>
	</g>
	<g>
		<g>
			<path class="st0" d="M227.8,225.4c-0.3,0.9-0.1,2.1,0.2,2.9c0.4,0.9,1.3,1.2,1.9,1.9c0.2,0.2,0.7,0,0.6-0.3
				c-0.3-0.8-1.1-1-1.6-1.7c-0.5-0.7-0.5-1.9-0.7-2.8C228.1,225.2,227.8,225.3,227.8,225.4L227.8,225.4z"/>
		</g>
	</g>
	<g>
		<g>
			<path class="st0" d="M230,228.6c-0.8,1.6,0.9,4.5,2.7,4.6c0.3,0,0.5-0.4,0.3-0.6c-0.6-0.6-1.3-0.9-1.8-1.6
				c-0.5-0.7-0.6-1.6-0.9-2.4C230.1,228.5,230.1,228.5,230,228.6L230,228.6z"/>
		</g>
	</g>
	<g>
		<g>
			<path class="st0" d="M232.6,231.7c-0.2,1.4,0.3,2.8,0.7,4.1c0.4,1.2,1.6,1.9,2.7,2.2c0.4,0.1,0.7-0.5,0.3-0.7
				c-1.2-0.6-2-1.1-2.5-2.4c-0.4-1.1-0.8-2.1-1.1-3.2C232.7,231.6,232.6,231.6,232.6,231.7L232.6,231.7z"/>
		</g>
	</g>
	<g>
		<g>
			<path class="st0" d="M235.8,236.3c0.1,1.8,1.2,3.6,2.4,4.8c0.7,0.7,1.6,1.2,2.4,1.8c1.2,0.8,2.1,1.7,3.2,2.6
				c0.3,0.3,0.9-0.1,0.6-0.5c-1.1-1.5-2.5-2.4-4-3.4c-2-1.3-3.2-3.3-4.4-5.4C235.9,236.2,235.8,236.2,235.8,236.3L235.8,236.3z"/>
		</g>
	</g>
	<g>
		<g>
			<path class="st0" d="M243,244.6c2.1,5,6.5,7.7,9.4,12.1c3.5,5.3,6.6,11.3,8.3,17.4c0.1,0.2,0.3,0.1,0.3-0.1
				c-1.2-6-4.1-11.8-7.3-17c-1.4-2.4-3.3-4.2-5.3-6.2c-2-2-3.2-4.2-4.9-6.4C243.3,244.2,242.9,244.4,243,244.6L243,244.6z"/>
		</g>
	</g>
	<g>
		<g>
			<path class="st0" d="M237.9,155.1c2.2,1.4,4.7,0.4,7-0.3c1.9-0.5,4.5-1.1,5.6-2.9c0.1-0.2-0.1-0.5-0.3-0.3
				c-3.2,2-8.5,4.3-12.2,3.3C237.9,154.9,237.8,155,237.9,155.1L237.9,155.1z"/>
		</g>
	</g>
	<g>
		<g>
			<path class="st0" d="M238.3,155.3c-1-1.2,5.7-2.8,6.6-3c1.6-0.3,3.9-1.1,5.3-0.1c0.3,0.2,0.7-0.2,0.5-0.5c-1.4-2-6.5,0-8.1,0.5
				c-0.5,0.2-6.2,1.8-4.3,3.2C238.3,155.5,238.3,155.3,238.3,155.3L238.3,155.3z"/>
		</g>
	</g>
	<g>
		<g>
			<path class="st0" d="M248.6,151.1c1.6-0.5,3-1,4.6-1.2c1.1-0.1,2.6,0,3.6-0.7c0.2-0.2,0.1-0.5-0.1-0.5c-1.4-0.1-3.2,0.4-4.6,0.6
				C250.9,149.6,249.3,149.9,248.6,151.1C248.5,151.1,248.6,151.1,248.6,151.1L248.6,151.1z"/>
		</g>
	</g>
	<g>
		<g>
			<path class="st0" d="M255.2,149.5c1.5,0,2.3-0.8,3.7-1.4c2.1-1.1,4.3-1.1,6.7-1.3c0.5,0,0.4-0.7,0-0.7c-1.9-0.2-3.9,0-5.7,0.7
				c-1.7,0.6-2.9,2.1-4.6,2.5C255,149.3,255.1,149.5,255.2,149.5L255.2,149.5z"/>
		</g>
	</g>
	<g>
		<g>
			<path class="st0" d="M264.3,147c2.9-0.4,5.7-1.5,8.6-1.4c3.1,0.1,6.1,1.2,9.1,1.9c2.8,0.7,5.6,1.3,8.4,1.7
				c2.6,0.4,5.3,0.5,7.8,1.5c0.5,0.2,0.7-0.6,0.2-0.8c-2.8-1.1-5.8-1.2-8.8-1.7c-3.1-0.5-6.2-1.2-9.3-2.1c-2.5-0.7-5.2-1.6-7.9-1.5
				c-2.8,0.1-5.6,1.2-8.2,2.1C264.2,146.9,264.2,147,264.3,147L264.3,147z"/>
		</g>
	</g>
	<g>
		<g>
			<path class="st0" d="M297.3,150.1c1.8,1,3.7,1.9,5.5,2.9c1.9,1.1,3,3.7,4.9,5.1c0.3,0.2,0.6-0.1,0.4-0.4c-0.9-1.1-1.8-2-2.5-3.3
				c-0.5-0.9-0.9-1.7-1.9-2.2c-2.1-1.2-3.8-2.1-6.2-2.3C297.3,149.9,297.3,150,297.3,150.1L297.3,150.1z"/>
		</g>
	</g>
	<g>
		<g>
			<path class="st0" d="M306.4,157c0.6,1.3,2,1.6,2.9,2.8c1,1.4,1.5,3.3,2.2,4.8c1.6,3.4,3.3,6.8,5.3,10.1
				c3.8,6.3,8.9,12.2,10.8,19.5c0.1,0.2,0.4,0.2,0.4-0.1c-0.2-3.5-2.2-6.4-3.8-9.4c-1.9-3.6-4.3-6.7-6.4-10.2
				c-2.2-3.5-4-7.2-5.7-10.9c-0.7-1.5-1.2-3.1-2.2-4.4C308.9,157.9,307.9,157.7,306.4,157C306.4,156.9,306.4,156.9,306.4,157
				L306.4,157z"/>
		</g>
	</g>
	<g>
		<g>
			<path class="st0" d="M255.8,127.5c-2.2,1.4-2,4.9-1.6,7.1c0.5,2.6,2.1,4.7,4.3,6.1c6.3,4.2,15.4,4.1,22.4,2
				c0.2-0.1,0.1-0.4-0.1-0.3c-5.8,1.3-12,1.4-17.7-0.4c-2.7-0.8-5.4-2.2-7-4.6c-1.5-2.2-2.3-7.5-0.2-9.7
				C256,127.5,255.9,127.4,255.8,127.5L255.8,127.5z"/>
		</g>
	</g>
	<g>
		<g>
			<path class="st0" d="M278.8,143.1c0.7,0,1.5-0.2,2.1-0.4c0.5-0.1,1.2-0.3,1.2-0.9c0-0.1-0.1-0.2-0.2-0.2c-0.3,0-0.4,0.1-0.6,0.3
				c-0.3,0.2-0.6,0.3-0.9,0.5c-0.5,0.2-1.2,0.3-1.7,0.7C278.7,143,278.7,143.1,278.8,143.1L278.8,143.1z"/>
		</g>
	</g>
	<g>
		<g>
			<path class="st0" d="M281.2,142.3c0.3,1.6,0.9,2.9,2.2,4c1.1,1,2.8,2.2,4.4,2.2c0.3,0,0.4-0.4,0.2-0.6c-0.7-0.5-1.5-0.7-2.3-1.1
				c-0.8-0.4-1.5-1-2.1-1.6c-0.7-0.6-0.9-1.3-1.4-2.1c-0.2-0.4-0.4-0.7-0.8-0.9C281.2,142.1,281.2,142.2,281.2,142.3L281.2,142.3z"
				/>
		</g>
	</g>
	<g>
		<g>
			<path class="st0" d="M257.6,125.9c-0.3,0.1-0.6,0.1-0.9,0.3c-0.3,0.2-0.5,0.5-0.7,0.9c-0.3,0.6-0.3,1.2,0,1.8
				c0.1,0.3,0.6,0.1,0.5-0.2c-0.1-0.5-0.1-0.9,0-1.4c0.1-0.3,0.3-0.5,0.5-0.7C257.3,126.4,257.4,126.1,257.6,125.9
				C257.7,125.9,257.6,125.9,257.6,125.9L257.6,125.9z"/>
		</g>
	</g>
	<g>
		<g>
			<path class="st0" d="M256.2,128.4c1.2,1.5,3.2,1.3,4.9,1.3c2.8,0,5.6-0.4,8.2-1.4c0.2-0.1,0.1-0.5-0.1-0.4
				c-3.6,1.1-9.5,2.2-13,0.3C256.2,128.3,256.2,128.3,256.2,128.4L256.2,128.4z"/>
		</g>
	</g>
	<g>
		<g>
			<path class="st0" d="M256.3,127.2c2.1-1.4,4.9-0.4,7.1,0.1c2.1,0.5,4.2,1,6.3,1.2c0.3,0,0.4-0.4,0.1-0.4c-3.2-1-6.8-1.9-10.1-2.3
				c-1.5-0.2-2.9-0.1-3.5,1.3C256.1,127.1,256.2,127.2,256.3,127.2L256.3,127.2z"/>
		</g>
	</g>
	<g>
		<g>
			<path class="st0" d="M269,128.7c1.4-0.3,2.8-0.8,4.3-0.9c1.7-0.1,3.5,0.2,5.2,0.1c3.1-0.2,5.9-0.6,8.8,0.6
				c0.3,0.1,0.5-0.4,0.2-0.6c-2.9-1.5-6-0.9-9.1-0.7c-3.5,0.1-6.4-0.6-9.6,1.4C268.8,128.6,268.9,128.7,269,128.7L269,128.7z"/>
		</g>
	</g>
	<g>
		<g>
			<path class="st0" d="M286.9,128.3c2,0.4,3.7,1.3,5.6,2.1c1.6,0.6,3.3,1,4.9,1.5c3.7,1.3,7.2,3.5,10.6,5.4
				c1.4,0.8,2.8,1.8,4.3,2.5c1.7,0.8,3.6,1.3,5.3,2.2c3.3,1.7,5.8,4.2,8.2,7c0.3,0.3,0.8-0.1,0.6-0.4c-4.5-6.2-11.5-8.3-17.9-12
				c-3.3-1.9-6.7-4.1-10.3-5.4c-2.3-0.8-4.6-1.3-6.8-2.3c-1.5-0.6-2.7-1.1-4.4-1C286.7,128,286.7,128.3,286.9,128.3L286.9,128.3z"/>
		</g>
	</g>
	<g>
		<g>
			<path class="st0" d="M329.2,151.6c3.6,3.3,4.9,8.6,6.8,12.9c0.8,1.9,1.6,3.8,2,5.8c0.5,2.2,0.5,4.5,1,6.8
				c2.1,9.8,9.2,17.7,9,28.1c0,0.4,0.6,0.4,0.6,0c1-10.7-7.1-19.5-8.8-29.8c-0.4-2.4-0.5-4.7-1.2-7c-0.7-2.1-1.6-4.2-2.5-6.2
				c-1.5-3.5-2.9-9-6.8-10.7C329.2,151.4,329.1,151.5,329.2,151.6L329.2,151.6z"/>
		</g>
	</g>
	<g>
		<g>
			<path class="st0" d="M347.9,205.1c0.3,3.1,1.2,6,1.4,9.1c0.2,2.9,0,5.6-0.5,8.4c-1.2,6.1-3.2,12.1-5.1,18.1
				c-2.1,6.6-4.2,13.2-5.9,20c-1.2,4.8-2.5,10.1-1.6,15c0.1,0.5,0.9,0.4,0.8-0.1c-0.7-5.4,0.7-11,2.1-16.1c1.8-6.9,4-13.6,6.1-20.4
				c1.8-5.7,3.7-11.4,4.7-17.3c1-5.8-0.2-11.2-1.7-16.7C348.2,204.8,347.9,204.8,347.9,205.1L347.9,205.1z"/>
		</g>
	</g>
	<g>
		<g>
			<path class="st0" d="M75.9,169.1c-1.4-0.2-3.1-0.3-4.5-0.1c-0.9,0.1-0.9,0.6-1.2,1.4c-0.1,0.2,0.2,0.3,0.4,0.2
				c0.3-0.5,0.2-0.8,1-1c0.4-0.1,1.1,0,1.5-0.1c0.9-0.1,1.9-0.1,2.8-0.2C76,169.2,76,169.1,75.9,169.1L75.9,169.1z"/>
		</g>
	</g>
	<g>
		<g>
			<path class="st0" d="M70.7,185.6c-0.5,1-0.6,3.5,0.5,4.1c0.9,0.6,3,0.2,4.1,0.2c1.5,0,3-0.1,4.5-0.3c0.2,0,0.2-0.4-0.1-0.4
				c-2.1-0.1-4.2-0.1-6.4-0.2c-0.4,0-1.5,0.1-1.8-0.3c-0.2-0.2-0.3-1.5-0.3-1.7C71.1,186.6,71.1,186.1,70.7,185.6
				C70.7,185.6,70.7,185.6,70.7,185.6L70.7,185.6z"/>
		</g>
	</g>
	<g>
		<g>
			<path class="st0" d="M203.1,169.4c0.8,0.1,1.6,0.2,2.4,0.3c0.7,0.1,0.9,0.2,1,0.9c0,0.3,0.1,0.6,0.1,0.9c0.1,0.3,0.4,0.2,0.5,0
				c0.3-0.8,0.3-2.2-0.6-2.6c-1-0.4-2.5,0.1-3.5,0.3C203,169.3,203,169.4,203.1,169.4L203.1,169.4z"/>
		</g>
	</g>
	<g>
		<g>
			<path class="st0" d="M204.5,188.5c0.6,0.3,1.4,0.3,2.1,0.3c0.5,0,1.1-0.2,1.5-0.6c0.3-0.4,0.2-1,0.1-1.5c0-0.4,0-0.9-0.4-1.2
				c-0.1-0.1-0.3,0-0.4,0.2c-0.1,0.3-0.1,0.6-0.1,0.9c0,0.2,0.1,0.8,0,1c-0.2,0.3-1,0.3-1.2,0.3c-0.5,0-1,0-1.5,0.2
				C204.3,188.2,204.3,188.4,204.5,188.5L204.5,188.5z"/>
		</g>
	</g>
	<g>
		<g>
			<g>
				<path class="st0" d="M60.6,153.2c23.5,0.8,47.2-0.1,70.7-0.2c24-0.1,47.9-0.2,71.9-0.2c13.2,0,26.5,0.1,39.7,0
					c0.6,0,0.6-0.9,0-0.9c-47.5-0.6-95.1-0.2-142.6,0.2c-13.2,0.1-26.5-0.1-39.7,0.6C60.3,152.7,60.3,153.2,60.6,153.2L60.6,153.2z"
					/>
			</g>
		</g>
		<g>
			<g>
				<path class="st0" d="M57.9,154.8c-1,7.9-0.6,16.3-0.6,24.3c0,8.2,0.2,16.5,0.4,24.7c0,0.8,1.2,0.8,1.2,0
					c-0.2-8.2-0.4-16.5-0.5-24.7c0-8.1,0.6-16.3,0.2-24.3C58.6,154.4,58,154.4,57.9,154.8L57.9,154.8z"/>
			</g>
		</g>
		<g>
			<g>
				<path class="st0" d="M57.6,200.6c0,1.9-0.7,5.4,1.6,5.9c2.1,0.5,4.8,0.1,7,0.1c2.8,0,5.7,0.1,8.5,0.1c11.3,0.1,22.7,0.1,34,0
					c22.8-0.1,45.6-0.2,68.4-0.5c12.5-0.1,25-0.3,37.5-0.5c0.7,0,0.7-1,0-1c-42.4,0.7-84.8,1.1-127.3,1c-6,0-12.1-0.1-18.1-0.1
					c-2.8,0-5.5,0-8.3-0.1c-2.8,0-2.4-2.8-2.5-4.9C58.4,200.1,57.6,200,57.6,200.6L57.6,200.6z"/>
			</g>
		</g>
		<g>
			<g>
				<path class="st0" d="M272.5,203c-5.1-0.4-10.4,0.2-15.5,0.3c-4.2,0.1-9-0.4-13.2,0.5c0.1,0.3,0.2,0.5,0.3,0.8
					c4.3,0.7,9.2,0.1,13.4,0c5-0.1,10.2,0.1,15.2-0.6C273.1,203.8,273,203.1,272.5,203z"/>
			</g>
		</g>
		<g>
			<g>
				<path class="st0" d="M273.1,166.6c-0.1,6.4,0.4,13,0.3,19.4c0,3.2,0,6.4,0,9.6c0,1.8-0.2,4,0.3,5.7c0.2,0.5,1,0.4,1-0.1
					c0-5.3-0.2-10.6-0.2-15.9c0-3.5,0-7-0.1-10.5c-0.1-2.7,0.1-5.6-0.6-8.3C273.8,166.1,273.1,166.2,273.1,166.6L273.1,166.6z"/>
			</g>
		</g>
		<g>
			<g>
				<path class="st0" d="M69.4,152.8c-1.7-0.1-3.3-0.2-5-0.3c-1.5,0-3.1-0.3-4.6,0.1c-2.4,0.7-2.2,2.7-2.1,4.9
					c0,0.3,0.5,0.4,0.6,0.1c0.1-0.7,0.1-1.4,0.2-2.1c0.4-2.1,2.2-2.2,4-2.2c2.3,0,4.5-0.1,6.8-0.2C69.5,153,69.5,152.8,69.4,152.8
					L69.4,152.8z"/>
			</g>
		</g>
		<g>
			<g>
				<path class="st0" d="M268.7,204c1.4,0.3,3.8,0.4,5.1-0.5c1.1-0.8,1.3-3.2,0.8-4.3c-0.1-0.3-0.6-0.4-0.7,0
					c-0.4,1.3,0.4,3.2-1.4,3.6c-1.3,0.3-2.6,0.3-3.8,0.4C268.3,203.3,268.3,204,268.7,204L268.7,204z"/>
			</g>
		</g>
	</g>
	<g>
		<g>
			<path class="st0" d="M256.4,127.9c-0.6,0.1-0.6,0.8-0.2,1.1c0.6,0.5,1.4,0.6,2.1,0.6c0.3,0,0.4-0.4,0.1-0.5
				c-0.2-0.1-2-0.6-1.9-0.9C256.6,128,256.5,127.9,256.4,127.9L256.4,127.9z"/>
		</g>
	</g>
	<g>
		<g>
			<path class="st0" d="M255.2,128.3c0.4-0.4,0.9-0.7,1.2-1.2c0.1-0.1,0-0.2-0.1-0.1c-0.5,0.2-0.9,0.8-1.2,1.2
				C255,128.3,255.1,128.4,255.2,128.3L255.2,128.3z"/>
		</g>
	</g>
	<g>
		<g>
			<path class="st0" d="M266.2,129.2c0.8-0.1,1.5-0.3,2.3-0.5c0.7-0.1,1.3-0.2,1.9-0.5c0.1-0.1,0.1-0.2-0.1-0.2
				c-1.3-0.1-3,0.5-4.2,1C266,129.1,266,129.2,266.2,129.2L266.2,129.2z"/>
		</g>
	</g>
	<g>
		<g>
			<path class="st0" d="M294.9,149.6c1,0.3,1.9,0.5,2.9,0.9c0.8,0.3,1.6,0.9,2.6,1c0.2,0,0.4-0.3,0.2-0.5c-0.7-0.6-1.8-0.9-2.8-1.2
				c-0.9-0.3-1.9-0.5-2.9-0.3C294.8,149.5,294.8,149.6,294.9,149.6L294.9,149.6z"/>
		</g>
	</g>
	<g>
		<g>
			<path class="st0" d="M293.7,149.6c1.2,0.5,2.6,0.5,3.8,1c1.4,0.5,2.8,1.4,4.4,1.5c0.3,0,0.3-0.4,0.1-0.5
				c-2.2-1.7-5.5-2.2-8.3-2.2C293.6,149.3,293.6,149.5,293.7,149.6L293.7,149.6z"/>
		</g>
	</g>
	<g>
		<g>
			<path class="st0" d="M304.6,154.1c0.2,0.6,0.6,1.2,1,1.7c0.5,0.6,1,1.2,1.4,1.8c0.3,0.5,0.8,0.8,1.2,1.2c0.4,0.4,0.5,0.7,1.1,0.7
				c0.3,0,0.3-0.3,0.1-0.5c-0.5-0.3-0.8-0.9-1.2-1.2c-0.4-0.4-0.7-0.7-1.1-1.1c-0.4-0.4-0.9-0.8-1.3-1.2c-0.5-0.5-0.9-1-1.3-1.5
				C304.7,154,304.6,154,304.6,154.1L304.6,154.1z"/>
		</g>
	</g>
	<g>
		<g>
			<path class="st0" d="M325.3,147.8c0.1,1.8,2,2.3,3.3,3.1c0.2,0.1,0.5-0.1,0.4-0.3c-0.2-0.7-0.8-0.9-1.5-1.2
				c-0.9-0.3-1.5-0.9-2.1-1.6C325.3,147.7,325.2,147.7,325.3,147.8L325.3,147.8z"/>
		</g>
	</g>
	<g>
		<g>
			<path class="st0" d="M327.5,149.8c0.1,0.3,0.3,0.5,0.5,0.7c0.4,0.4,0.7,0.8,1,1.3c0.4,0.6,1.1,1.3,1.9,1.3c0.3,0,0.4-0.3,0.2-0.5
				c-0.2-0.3-0.6-0.4-0.8-0.6c-0.4-0.3-0.7-0.7-1-1.1c-0.5-0.6-1-0.9-1.7-1.2C327.5,149.6,327.4,149.7,327.5,149.8L327.5,149.8z"/>
		</g>
	</g>
	<g>
		<g>
			<path class="st0" d="M51.2,148.2c14-0.3,28.1-1.2,42.1-1.4c14.3-0.2,28.6-0.1,42.9,0.1c28.9,0.4,57.7,1.2,86.6,0.8
				c15.9-0.2,31.9-0.6,47.7-2c0.6-0.1,0.6-1,0-0.9c-28.3,1.7-56.6,2.1-85,1.8c-28.9-0.4-57.7-1.2-86.6-1c-15.8,0.1-32,0-47.7,1.8
				C50.7,147.3,50.6,148.2,51.2,148.2L51.2,148.2z"/>
		</g>
	</g>
	<g>
		<g>
			<path class="st0" d="M50.9,147.6c-0.6,3-0.4,6.2-0.5,9.3c-0.1,4.4-0.1,8.8-0.2,13.2c-0.4,13.6-0.5,27.2-0.4,40.7c0,0.7,1,0.7,1,0
				c0.2-13.5,0-27,0.4-40.5c0.2-7.5,0.4-15.1,0.3-22.6C51.6,147.3,51,147.2,50.9,147.6L50.9,147.6z"/>
		</g>
	</g>
	<g>
		<g>
			<path class="st0" d="M50.2,212.2c11,1.1,22.2,0.9,33.3,1c11.1,0.1,22.2,0.2,33.3,0.1c22-0.1,44.1-0.4,66.1-0.6
				c12.6-0.1,25.2,0.3,37.8-0.4c0.7,0,0.7-1,0-1.1c-11.1-0.6-22.4,0-33.5,0.1c-11.1,0.1-22.3,0.2-33.4,0.4c-22,0.2-44,0.4-66,0.2
				c-12.5-0.1-25-0.9-37.5-0.5C49.6,211.4,49.6,212.2,50.2,212.2L50.2,212.2z"/>
		</g>
	</g>
	<g>
		<g>
			<path class="st0" d="M278.8,209.3c-5.7,0-11.4,0.4-17.1,0.6c-2.8,0.1-5.6,0.2-8.3,0.4c-1.7,0.1-3.9-0.1-5.7,0.4
				c0.1,0.3,0.2,0.6,0.2,0.9c1.6,0.2,3.5-0.1,5-0.1c2.9-0.1,5.9-0.2,8.8-0.3c5.7-0.2,11.4-0.2,17.1-0.7
				C279.6,210.5,279.6,209.3,278.8,209.3z"/>
		</g>
	</g>
	<g>
		<g>
			<path class="st0" d="M278.2,167.9c-0.8,1.8-0.4,4.4-0.4,6.3c0,4.3,0.1,8.5,0.1,12.8c0.1,7.6-0.2,15.4,0.3,23c0,0.6,1,0.8,1.1,0.1
				c0.4-2.9,0.1-6,0.1-8.9c-0.1-4.6-0.1-9.1-0.2-13.6c-0.1-4.3-0.2-8.6-0.3-12.9c-0.1-2.2,0.1-4.5-0.3-6.6
				C278.6,167.8,278.3,167.8,278.2,167.9L278.2,167.9z"/>
		</g>
	</g>
	<g>
		<g>
			<g>
				<path class="st0" d="M72.3,176.3c-0.1,0.8-0.1,1.7-0.1,2.5c0,0.9-0.1,1.9,0,2.8c0,0.1,0.2,0.1,0.2,0c0.1-0.9,0-1.9,0.1-2.8
					C72.4,178,72.5,177.1,72.3,176.3C72.3,176.2,72.3,176.2,72.3,176.3L72.3,176.3z"/>
			</g>
		</g>
		<g>
			<g>
				<path class="st0" d="M73.2,176.3c-0.1,0.8-0.1,1.7-0.1,2.5c0,0.9-0.1,1.9,0,2.8c0,0.1,0.2,0.1,0.2,0c0.1-0.9,0-1.9,0.1-2.8
					C73.3,178,73.4,177.1,73.2,176.3C73.2,176.2,73.2,176.2,73.2,176.3L73.2,176.3z"/>
			</g>
		</g>
		<g>
			<g>
				<path class="st0" d="M74,176.3c-0.1,0.8-0.1,1.7-0.1,2.5c0,0.9-0.1,1.9,0,2.8c0,0.1,0.2,0.1,0.2,0c0.1-0.9,0-1.9,0.1-2.8
					C74.1,178,74.2,177.1,74,176.3C74.1,176.2,74,176.2,74,176.3L74,176.3z"/>
			</g>
		</g>
		<g>
			<g>
				<path class="st0" d="M74.9,176.3c-0.1,0.8-0.1,1.7-0.1,2.5c0,0.9-0.1,1.9,0,2.8c0,0.1,0.2,0.1,0.2,0c0.1-0.9,0-1.9,0.1-2.8
					C75,178,75.1,177.1,74.9,176.3C75,176.2,74.9,176.2,74.9,176.3L74.9,176.3z"/>
			</g>
		</g>
		<g>
			<g>
				<path class="st0" d="M75.8,176.3c-0.1,0.8-0.1,1.7-0.1,2.5c0,0.9-0.1,1.9,0,2.8c0,0.1,0.2,0.1,0.2,0c0.1-0.9,0-1.9,0.1-2.8
					C75.9,178,76,177.1,75.8,176.3C75.9,176.2,75.8,176.2,75.8,176.3L75.8,176.3z"/>
			</g>
		</g>
		<g>
			<g>
				<path class="st0" d="M76.7,176.3c-0.1,0.8-0.1,1.7-0.1,2.5c0,0.9-0.1,1.9,0,2.8c0,0.1,0.2,0.1,0.2,0c0.1-0.9,0-1.9,0.1-2.8
					C76.8,178,76.9,177.1,76.7,176.3C76.7,176.2,76.7,176.2,76.7,176.3L76.7,176.3z"/>
			</g>
		</g>
		<g>
			<g>
				<path class="st0" d="M77.5,176.3c-0.1,0.8-0.1,1.7-0.1,2.5c0,0.9-0.1,1.9,0,2.8c0,0.1,0.2,0.1,0.2,0c0.1-0.9,0-1.9,0.1-2.8
					C77.7,178,77.7,177.1,77.5,176.3C77.6,176.2,77.6,176.2,77.5,176.3L77.5,176.3z"/>
			</g>
		</g>
		<g>
			<g>
				<path class="st0" d="M78.4,176.3c-0.1,0.8-0.1,1.7-0.1,2.5c0,0.9-0.1,1.9,0,2.8c0,0.1,0.2,0.1,0.2,0c0.1-0.9,0-1.9,0.1-2.8
					C78.5,178,78.6,177.1,78.4,176.3C78.5,176.2,78.4,176.2,78.4,176.3L78.4,176.3z"/>
			</g>
		</g>
		<g>
			<g>
				<path class="st0" d="M79.3,176.3c-0.1,0.8-0.1,1.7-0.1,2.5c0,0.9-0.1,1.9,0,2.8c0,0.1,0.2,0.1,0.2,0c0.1-0.9,0-1.9,0.1-2.8
					C79.4,178,79.5,177.1,79.3,176.3C79.4,176.2,79.3,176.2,79.3,176.3L79.3,176.3z"/>
			</g>
		</g>
		<g>
			<g>
				<path class="st0" d="M80.2,176.3c-0.1,0.8-0.1,1.7-0.1,2.5c0,0.9-0.1,1.9,0,2.8c0,0.1,0.2,0.1,0.2,0c0.1-0.9,0-1.9,0.1-2.8
					C80.3,178,80.4,177.1,80.2,176.3C80.2,176.2,80.2,176.2,80.2,176.3L80.2,176.3z"/>
			</g>
		</g>
		<g>
			<g>
				<path class="st0" d="M81,176.3c-0.1,0.8-0.1,1.7-0.1,2.5c0,0.9-0.1,1.9,0,2.8c0,0.1,0.2,0.1,0.2,0c0.1-0.9,0-1.9,0.1-2.8
					C81.2,178,81.2,177.1,81,176.3C81.1,176.2,81.1,176.2,81,176.3L81,176.3z"/>
			</g>
		</g>
		<g>
			<g>
				<path class="st0" d="M81.9,176.3c-0.1,0.8-0.1,1.7-0.1,2.5c0,0.9-0.1,1.9,0,2.8c0,0.1,0.2,0.1,0.2,0c0.1-0.9,0-1.9,0.1-2.8
					C82,178,82.1,177.1,81.9,176.3C82,176.2,81.9,176.2,81.9,176.3L81.9,176.3z"/>
			</g>
		</g>
		<g>
			<g>
				<path class="st0" d="M82.8,176.3c-0.1,0.8-0.1,1.7-0.1,2.5c0,0.9-0.1,1.9,0,2.8c0,0.1,0.2,0.1,0.2,0c0.1-0.9,0-1.9,0.1-2.8
					C82.9,178,83,177.1,82.8,176.3C82.9,176.2,82.8,176.2,82.8,176.3L82.8,176.3z"/>
			</g>
		</g>
		<g>
			<g>
				<path class="st0" d="M83.7,176.3c-0.1,0.8-0.1,1.7-0.1,2.5c0,0.9-0.1,1.9,0,2.8c0,0.1,0.2,0.1,0.2,0c0.1-0.9,0-1.9,0.1-2.8
					C83.8,178,83.9,177.1,83.7,176.3C83.7,176.2,83.7,176.2,83.7,176.3L83.7,176.3z"/>
			</g>
		</g>
		<g>
			<g>
				<path class="st0" d="M84.6,176.3c-0.1,0.8-0.1,1.7-0.1,2.5c0,0.9-0.1,1.9,0,2.8c0,0.1,0.2,0.1,0.2,0c0.1-0.9,0-1.9,0.1-2.8
					C84.7,178,84.7,177.1,84.6,176.3C84.6,176.2,84.6,176.2,84.6,176.3L84.6,176.3z"/>
			</g>
		</g>
		<g>
			<g>
				<path class="st0" d="M85.4,176.3c-0.1,0.8-0.1,1.7-0.1,2.5c0,0.9-0.1,1.9,0,2.8c0,0.1,0.2,0.1,0.2,0c0.1-0.9,0-1.9,0.1-2.8
					C85.5,178,85.6,177.1,85.4,176.3C85.5,176.2,85.4,176.2,85.4,176.3L85.4,176.3z"/>
			</g>
		</g>
		<g>
			<g>
				<path class="st0" d="M86.3,176.3c-0.1,0.8-0.1,1.7-0.1,2.5c0,0.9-0.1,1.9,0,2.8c0,0.1,0.2,0.1,0.2,0c0.1-0.9,0-1.9,0.1-2.8
					C86.4,178,86.5,177.1,86.3,176.3C86.4,176.2,86.3,176.2,86.3,176.3L86.3,176.3z"/>
			</g>
		</g>
		<g>
			<g>
				<path class="st0" d="M87.2,176.3c-0.1,0.8-0.1,1.7-0.1,2.5c0,0.9-0.1,1.9,0,2.8c0,0.1,0.2,0.1,0.2,0c0.1-0.9,0-1.9,0.1-2.8
					C87.3,178,87.4,177.1,87.2,176.3C87.2,176.2,87.2,176.2,87.2,176.3L87.2,176.3z"/>
			</g>
		</g>
		<g>
			<g>
				<path class="st0" d="M88.1,176.3c-0.1,0.8-0.1,1.7-0.1,2.5c0,0.9-0.1,1.9,0,2.8c0,0.1,0.2,0.1,0.2,0c0.1-0.9,0-1.9,0.1-2.8
					C88.2,178,88.2,177.1,88.1,176.3C88.1,176.2,88.1,176.2,88.1,176.3L88.1,176.3z"/>
			</g>
		</g>
		<g>
			<g>
				<path class="st0" d="M88.9,176.3c-0.1,0.8-0.1,1.7-0.1,2.5c0,0.9-0.1,1.9,0,2.8c0,0.1,0.2,0.1,0.2,0c0.1-0.9,0-1.9,0.1-2.8
					C89,178,89.1,177.1,88.9,176.3C89,176.2,88.9,176.2,88.9,176.3L88.9,176.3z"/>
			</g>
		</g>
		<g>
			<g>
				<path class="st0" d="M89.8,176.3c-0.1,0.8-0.1,1.7-0.1,2.5c0,0.9-0.1,1.9,0,2.8c0,0.1,0.2,0.1,0.2,0c0.1-0.9,0-1.9,0.1-2.8
					C89.9,178,90,177.1,89.8,176.3C89.9,176.2,89.8,176.2,89.8,176.3L89.8,176.3z"/>
			</g>
		</g>
		<g>
			<g>
				<path class="st0" d="M90.7,176.3c-0.1,0.8-0.1,1.7-0.1,2.5c0,0.9-0.1,1.9,0,2.8c0,0.1,0.2,0.1,0.2,0c0.1-0.9,0-1.9,0.1-2.8
					C90.8,178,90.9,177.1,90.7,176.3C90.7,176.2,90.7,176.2,90.7,176.3L90.7,176.3z"/>
			</g>
		</g>
		<g>
			<g>
				<path class="st0" d="M91.6,176.3c-0.1,0.8-0.1,1.7-0.1,2.5c0,0.9-0.1,1.9,0,2.8c0,0.1,0.2,0.1,0.2,0c0.1-0.9,0-1.9,0.1-2.8
					C91.7,178,91.7,177.1,91.6,176.3C91.6,176.2,91.6,176.2,91.6,176.3L91.6,176.3z"/>
			</g>
		</g>
		<g>
			<g>
				<path class="st0" d="M92.4,176.3c-0.1,0.8-0.1,1.7-0.1,2.5c0,0.9-0.1,1.9,0,2.8c0,0.1,0.2,0.1,0.2,0c0.1-0.9,0-1.9,0.1-2.8
					C92.5,178,92.6,177.1,92.4,176.3C92.5,176.2,92.4,176.2,92.4,176.3L92.4,176.3z"/>
			</g>
		</g>
		<g>
			<g>
				<path class="st0" d="M93.3,176.3c-0.1,0.8-0.1,1.7-0.1,2.5c0,0.9-0.1,1.9,0,2.8c0,0.1,0.2,0.1,0.2,0c0.1-0.9,0-1.9,0.1-2.8
					C93.4,178,93.5,177.1,93.3,176.3C93.4,176.2,93.3,176.2,93.3,176.3L93.3,176.3z"/>
			</g>
		</g>
		<g>
			<g>
				<path class="st0" d="M94.2,176.3c-0.1,0.8-0.1,1.7-0.1,2.5c0,0.9-0.1,1.9,0,2.8c0,0.1,0.2,0.1,0.2,0c0.1-0.9,0-1.9,0.1-2.8
					C94.3,178,94.4,177.1,94.2,176.3C94.2,176.2,94.2,176.2,94.2,176.3L94.2,176.3z"/>
			</g>
		</g>
		<g>
			<g>
				<path class="st0" d="M95.1,176.3c-0.1,0.8-0.1,1.7-0.1,2.5c0,0.9-0.1,1.9,0,2.8c0,0.1,0.2,0.1,0.2,0c0.1-0.9,0-1.9,0.1-2.8
					C95.2,178,95.2,177.1,95.1,176.3C95.1,176.2,95.1,176.2,95.1,176.3L95.1,176.3z"/>
			</g>
		</g>
		<g>
			<g>
				<path class="st0" d="M95.9,176.3c-0.1,0.8-0.1,1.7-0.1,2.5c0,0.9-0.1,1.9,0,2.8c0,0.1,0.2,0.1,0.2,0c0.1-0.9,0-1.9,0.1-2.8
					C96,178,96.1,177.1,95.9,176.3C96,176.2,95.9,176.2,95.9,176.3L95.9,176.3z"/>
			</g>
		</g>
		<g>
			<g>
				<path class="st0" d="M96.8,176.3c-0.1,0.8-0.1,1.7-0.1,2.5c0,0.9-0.1,1.9,0,2.8c0,0.1,0.2,0.1,0.2,0c0.1-0.9,0-1.9,0.1-2.8
					C96.9,178,97,177.1,96.8,176.3C96.9,176.2,96.8,176.2,96.8,176.3L96.8,176.3z"/>
			</g>
		</g>
		<g>
			<g>
				<path class="st0" d="M97.7,176.3c-0.1,0.8-0.1,1.7-0.1,2.5c0,0.9-0.1,1.9,0,2.8c0,0.1,0.2,0.1,0.2,0c0.1-0.9,0-1.9,0.1-2.8
					C97.8,178,97.9,177.1,97.7,176.3C97.7,176.2,97.7,176.2,97.7,176.3L97.7,176.3z"/>
			</g>
		</g>
		<g>
			<g>
				<path class="st0" d="M98.6,176.3c-0.1,0.8-0.1,1.7-0.1,2.5c0,0.9-0.1,1.9,0,2.8c0,0.1,0.2,0.1,0.2,0c0.1-0.9,0-1.9,0.1-2.8
					C98.7,178,98.7,177.1,98.6,176.3C98.6,176.2,98.6,176.2,98.6,176.3L98.6,176.3z"/>
			</g>
		</g>
		<g>
			<g>
				<path class="st0" d="M99.4,176.3c-0.1,0.8-0.1,1.7-0.1,2.5c0,0.9-0.1,1.9,0,2.8c0,0.1,0.2,0.1,0.2,0c0.1-0.9,0-1.9,0.1-2.8
					C99.5,178,99.6,177.1,99.4,176.3C99.5,176.2,99.4,176.2,99.4,176.3L99.4,176.3z"/>
			</g>
		</g>
		<g>
			<g>
				<path class="st0" d="M100.3,176.3c-0.1,0.8-0.1,1.7-0.1,2.5c0,0.9-0.1,1.9,0,2.8c0,0.1,0.2,0.1,0.2,0c0.1-0.9,0-1.9,0.1-2.8
					C100.4,178,100.5,177.1,100.3,176.3C100.4,176.2,100.3,176.2,100.3,176.3L100.3,176.3z"/>
			</g>
		</g>
		<g>
			<g>
				<path class="st0" d="M101.2,176.3c-0.1,0.8-0.1,1.7-0.1,2.5c0,0.9-0.1,1.9,0,2.8c0,0.1,0.2,0.1,0.2,0c0.1-0.9,0-1.9,0.1-2.8
					C101.3,178,101.4,177.1,101.2,176.3C101.2,176.2,101.2,176.2,101.2,176.3L101.2,176.3z"/>
			</g>
		</g>
		<g>
			<g>
				<path class="st0" d="M102.1,176.3c-0.1,0.8-0.1,1.7-0.1,2.5c0,0.9-0.1,1.9,0,2.8c0,0.1,0.2,0.1,0.2,0c0.1-0.9,0-1.9,0.1-2.8
					C102.2,178,102.2,177.1,102.1,176.3C102.1,176.2,102.1,176.2,102.1,176.3L102.1,176.3z"/>
			</g>
		</g>
		<g>
			<g>
				<path class="st0" d="M102.9,176.3c-0.1,0.8-0.1,1.7-0.1,2.5c0,0.9-0.1,1.9,0,2.8c0,0.1,0.2,0.1,0.2,0c0.1-0.9,0-1.9,0.1-2.8
					C103,178,103.1,177.1,102.9,176.3C103,176.2,102.9,176.2,102.9,176.3L102.9,176.3z"/>
			</g>
		</g>
		<g>
			<g>
				<path class="st0" d="M103.8,176.3c-0.1,0.8-0.1,1.7-0.1,2.5c0,0.9-0.1,1.9,0,2.8c0,0.1,0.2,0.1,0.2,0c0.1-0.9,0-1.9,0.1-2.8
					C103.9,178,104,177.1,103.8,176.3C103.9,176.2,103.8,176.2,103.8,176.3L103.8,176.3z"/>
			</g>
		</g>
		<g>
			<g>
				<path class="st0" d="M104.7,176.3c-0.1,0.8-0.1,1.7-0.1,2.5c0,0.9-0.1,1.9,0,2.8c0,0.1,0.2,0.1,0.2,0c0.1-0.9,0-1.9,0.1-2.8
					C104.8,178,104.9,177.1,104.7,176.3C104.7,176.2,104.7,176.2,104.7,176.3L104.7,176.3z"/>
			</g>
		</g>
		<g>
			<g>
				<path class="st0" d="M105.6,176.3c-0.1,0.8-0.1,1.7-0.1,2.5c0,0.9-0.1,1.9,0,2.8c0,0.1,0.2,0.1,0.2,0c0.1-0.9,0-1.9,0.1-2.8
					C105.7,178,105.8,177.1,105.6,176.3C105.6,176.2,105.6,176.2,105.6,176.3L105.6,176.3z"/>
			</g>
		</g>
		<g>
			<g>
				<path class="st0" d="M106.4,176.3c-0.1,0.8-0.1,1.7-0.1,2.5c0,0.9-0.1,1.9,0,2.8c0,0.1,0.2,0.1,0.2,0c0.1-0.9,0-1.9,0.1-2.8
					C106.5,178,106.6,177.1,106.4,176.3C106.5,176.2,106.4,176.2,106.4,176.3L106.4,176.3z"/>
			</g>
		</g>
		<g>
			<g>
				<path class="st0" d="M107.3,176.3c-0.1,0.8-0.1,1.7-0.1,2.5c0,0.9-0.1,1.9,0,2.8c0,0.1,0.2,0.1,0.2,0c0.1-0.9,0-1.9,0.1-2.8
					C107.4,178,107.5,177.1,107.3,176.3C107.4,176.2,107.3,176.2,107.3,176.3L107.3,176.3z"/>
			</g>
		</g>
		<g>
			<g>
				<path class="st0" d="M108.2,176.3c-0.1,0.8-0.1,1.7-0.1,2.5c0,0.9-0.1,1.9,0,2.8c0,0.1,0.2,0.1,0.2,0c0.1-0.9,0-1.9,0.1-2.8
					C108.3,178,108.4,177.1,108.2,176.3C108.2,176.2,108.2,176.2,108.2,176.3L108.2,176.3z"/>
			</g>
		</g>
		<g>
			<g>
				<path class="st0" d="M109.1,176.3c-0.1,0.8-0.1,1.7-0.1,2.5c0,0.9-0.1,1.9,0,2.8c0,0.1,0.2,0.1,0.2,0c0.1-0.9,0-1.9,0.1-2.8
					C109.2,178,109.3,177.1,109.1,176.3C109.1,176.2,109.1,176.2,109.1,176.3L109.1,176.3z"/>
			</g>
		</g>
		<g>
			<g>
				<path class="st0" d="M109.9,176.3c-0.1,0.8-0.1,1.7-0.1,2.5c0,0.9-0.1,1.9,0,2.8c0,0.1,0.2,0.1,0.2,0c0.1-0.9,0-1.9,0.1-2.8
					C110,178,110.1,177.1,109.9,176.3C110,176.2,109.9,176.2,109.9,176.3L109.9,176.3z"/>
			</g>
		</g>
		<g>
			<g>
				<path class="st0" d="M110.8,176.3c-0.1,0.8-0.1,1.7-0.1,2.5c0,0.9-0.1,1.9,0,2.8c0,0.1,0.2,0.1,0.2,0c0.1-0.9,0-1.9,0.1-2.8
					C110.9,178,111,177.1,110.8,176.3C110.9,176.2,110.8,176.2,110.8,176.3L110.8,176.3z"/>
			</g>
		</g>
		<g>
			<g>
				<path class="st0" d="M111.7,176.3c-0.1,0.8-0.1,1.7-0.1,2.5c0,0.9-0.1,1.9,0,2.8c0,0.1,0.2,0.1,0.2,0c0.1-0.9,0-1.9,0.1-2.8
					C111.8,178,111.9,177.1,111.7,176.3C111.7,176.2,111.7,176.2,111.7,176.3L111.7,176.3z"/>
			</g>
		</g>
		<g>
			<g>
				<path class="st0" d="M112.6,176.3c-0.1,0.8-0.1,1.7-0.1,2.5c0,0.9-0.1,1.9,0,2.8c0,0.1,0.2,0.1,0.2,0c0.1-0.9,0-1.9,0.1-2.8
					C112.7,178,112.8,177.1,112.6,176.3C112.6,176.2,112.6,176.2,112.6,176.3L112.6,176.3z"/>
			</g>
		</g>
		<g>
			<g>
				<path class="st0" d="M113.4,176.3c-0.1,0.8-0.1,1.7-0.1,2.5c0,0.9-0.1,1.9,0,2.8c0,0.1,0.2,0.1,0.2,0c0.1-0.9,0-1.9,0.1-2.8
					C113.5,178,113.6,177.1,113.4,176.3C113.5,176.2,113.4,176.2,113.4,176.3L113.4,176.3z"/>
			</g>
		</g>
		<g>
			<g>
				<path class="st0" d="M114.3,176.3c-0.1,0.8-0.1,1.7-0.1,2.5c0,0.9-0.1,1.9,0,2.8c0,0.1,0.2,0.1,0.2,0c0.1-0.9,0-1.9,0.1-2.8
					C114.4,178,114.5,177.1,114.3,176.3C114.4,176.2,114.3,176.2,114.3,176.3L114.3,176.3z"/>
			</g>
		</g>
		<g>
			<g>
				<path class="st0" d="M115.2,176.3c-0.1,0.8-0.1,1.7-0.1,2.5c0,0.9-0.1,1.9,0,2.8c0,0.1,0.2,0.1,0.2,0c0.1-0.9,0-1.9,0.1-2.8
					C115.3,178,115.4,177.1,115.2,176.3C115.3,176.2,115.2,176.2,115.2,176.3L115.2,176.3z"/>
			</g>
		</g>
		<g>
			<g>
				<path class="st0" d="M116.1,176.3c-0.1,0.8-0.1,1.7-0.1,2.5c0,0.9-0.1,1.9,0,2.8c0,0.1,0.2,0.1,0.2,0c0.1-0.9,0-1.9,0.1-2.8
					C116.2,178,116.3,177.1,116.1,176.3C116.1,176.2,116.1,176.2,116.1,176.3L116.1,176.3z"/>
			</g>
		</g>
		<g>
			<g>
				<path class="st0" d="M116.9,176.3c-0.1,0.8-0.1,1.7-0.1,2.5c0,0.9-0.1,1.9,0,2.8c0,0.1,0.2,0.1,0.2,0c0.1-0.9,0-1.9,0.1-2.8
					C117.1,178,117.1,177.1,116.9,176.3C117,176.2,117,176.2,116.9,176.3L116.9,176.3z"/>
			</g>
		</g>
		<g>
			<g>
				<path class="st0" d="M117.8,176.3c-0.1,0.8-0.1,1.7-0.1,2.5c0,0.9-0.1,1.9,0,2.8c0,0.1,0.2,0.1,0.2,0c0.1-0.9,0-1.9,0.1-2.8
					C117.9,178,118,177.1,117.8,176.3C117.9,176.2,117.8,176.2,117.8,176.3L117.8,176.3z"/>
			</g>
		</g>
		<g>
			<g>
				<path class="st0" d="M118.7,176.3c-0.1,0.8-0.1,1.7-0.1,2.5c0,0.9-0.1,1.9,0,2.8c0,0.1,0.2,0.1,0.2,0c0.1-0.9,0-1.9,0.1-2.8
					C118.8,178,118.9,177.1,118.7,176.3C118.8,176.2,118.7,176.2,118.7,176.3L118.7,176.3z"/>
			</g>
		</g>
		<g>
			<g>
				<path class="st0" d="M119.6,176.3c-0.1,0.8-0.1,1.7-0.1,2.5c0,0.9-0.1,1.9,0,2.8c0,0.1,0.2,0.1,0.2,0c0.1-0.9,0-1.9,0.1-2.8
					C119.7,178,119.8,177.1,119.6,176.3C119.6,176.2,119.6,176.2,119.6,176.3L119.6,176.3z"/>
			</g>
		</g>
		<g>
			<g>
				<path class="st0" d="M120.4,176.3c-0.1,0.8-0.1,1.7-0.1,2.5c0,0.9-0.1,1.9,0,2.8c0,0.1,0.2,0.1,0.2,0c0.1-0.9,0-1.9,0.1-2.8
					C120.6,178,120.6,177.1,120.4,176.3C120.5,176.2,120.5,176.2,120.4,176.3L120.4,176.3z"/>
			</g>
		</g>
		<g>
			<g>
				<path class="st0" d="M121.3,176.3c-0.1,0.8-0.1,1.7-0.1,2.5c0,0.9-0.1,1.9,0,2.8c0,0.1,0.2,0.1,0.2,0c0.1-0.9,0-1.9,0.1-2.8
					C121.4,178,121.5,177.1,121.3,176.3C121.4,176.2,121.3,176.2,121.3,176.3L121.3,176.3z"/>
			</g>
		</g>
		<g>
			<g>
				<path class="st0" d="M122.2,176.3c-0.1,0.8-0.1,1.7-0.1,2.5c0,0.9-0.1,1.9,0,2.8c0,0.1,0.2,0.1,0.2,0c0.1-0.9,0-1.9,0.1-2.8
					C122.3,178,122.4,177.1,122.2,176.3C122.3,176.2,122.2,176.2,122.2,176.3L122.2,176.3z"/>
			</g>
		</g>
		<g>
			<g>
				<path class="st0" d="M123.1,176.3c-0.1,0.8-0.1,1.7-0.1,2.5c0,0.9-0.1,1.9,0,2.8c0,0.1,0.2,0.1,0.2,0c0.1-0.9,0-1.9,0.1-2.8
					C123.2,178,123.3,177.1,123.1,176.3C123.1,176.2,123.1,176.2,123.1,176.3L123.1,176.3z"/>
			</g>
		</g>
		<g>
			<g>
				<path class="st0" d="M124,176.3c-0.1,0.8-0.1,1.7-0.1,2.5c0,0.9-0.1,1.9,0,2.8c0,0.1,0.2,0.1,0.2,0c0.1-0.9,0-1.9,0.1-2.8
					C124.1,178,124.1,177.1,124,176.3C124,176.2,124,176.2,124,176.3L124,176.3z"/>
			</g>
		</g>
		<g>
			<g>
				<path class="st0" d="M124.8,176.3c-0.1,0.8-0.1,1.7-0.1,2.5c0,0.9-0.1,1.9,0,2.8c0,0.1,0.2,0.1,0.2,0c0.1-0.9,0-1.9,0.1-2.8
					C124.9,178,125,177.1,124.8,176.3C124.9,176.2,124.8,176.2,124.8,176.3L124.8,176.3z"/>
			</g>
		</g>
		<g>
			<g>
				<path class="st0" d="M125.7,176.3c-0.1,0.8-0.1,1.7-0.1,2.5c0,0.9-0.1,1.9,0,2.8c0,0.1,0.2,0.1,0.2,0c0.1-0.9,0-1.9,0.1-2.8
					C125.8,178,125.9,177.1,125.7,176.3C125.8,176.2,125.7,176.2,125.7,176.3L125.7,176.3z"/>
			</g>
		</g>
		<g>
			<g>
				<path class="st0" d="M126.6,176.3c-0.1,0.8-0.1,1.7-0.1,2.5c0,0.9-0.1,1.9,0,2.8c0,0.1,0.2,0.1,0.2,0c0.1-0.9,0-1.9,0.1-2.8
					C126.7,178,126.8,177.1,126.6,176.3C126.6,176.2,126.6,176.2,126.6,176.3L126.6,176.3z"/>
			</g>
		</g>
		<g>
			<g>
				<path class="st0" d="M127.5,176.3c-0.1,0.8-0.1,1.7-0.1,2.5c0,0.9-0.1,1.9,0,2.8c0,0.1,0.2,0.1,0.2,0c0.1-0.9,0-1.9,0.1-2.8
					C127.6,178,127.6,177.1,127.5,176.3C127.5,176.2,127.5,176.2,127.5,176.3L127.5,176.3z"/>
			</g>
		</g>
		<g>
			<g>
				<path class="st0" d="M128.3,176.3c-0.1,0.8-0.1,1.7-0.1,2.5c0,0.9-0.1,1.9,0,2.8c0,0.1,0.2,0.1,0.2,0c0.1-0.9,0-1.9,0.1-2.8
					C128.4,178,128.5,177.1,128.3,176.3C128.4,176.2,128.3,176.2,128.3,176.3L128.3,176.3z"/>
			</g>
		</g>
		<g>
			<g>
				<path class="st0" d="M129.2,176.3c-0.1,0.8-0.1,1.7-0.1,2.5c0,0.9-0.1,1.9,0,2.8c0,0.1,0.2,0.1,0.2,0c0.1-0.9,0-1.9,0.1-2.8
					C129.3,178,129.4,177.1,129.2,176.3C129.3,176.2,129.2,176.2,129.2,176.3L129.2,176.3z"/>
			</g>
		</g>
		<g>
			<g>
				<path class="st0" d="M130.1,176.3c-0.1,0.8-0.1,1.7-0.1,2.5c0,0.9-0.1,1.9,0,2.8c0,0.1,0.2,0.1,0.2,0c0.1-0.9,0-1.9,0.1-2.8
					C130.2,178,130.3,177.1,130.1,176.3C130.1,176.2,130.1,176.2,130.1,176.3L130.1,176.3z"/>
			</g>
		</g>
		<g>
			<g>
				<path class="st0" d="M131,176.3c-0.1,0.8-0.1,1.7-0.1,2.5c0,0.9-0.1,1.9,0,2.8c0,0.1,0.2,0.1,0.2,0c0.1-0.9,0-1.9,0.1-2.8
					C131.1,178,131.1,177.1,131,176.3C131,176.2,131,176.2,131,176.3L131,176.3z"/>
			</g>
		</g>
		<g>
			<g>
				<path class="st0" d="M131.8,176.3c-0.1,0.8-0.1,1.7-0.1,2.5c0,0.9-0.1,1.9,0,2.8c0,0.1,0.2,0.1,0.2,0c0.1-0.9,0-1.9,0.1-2.8
					C131.9,178,132,177.1,131.8,176.3C131.9,176.2,131.8,176.2,131.8,176.3L131.8,176.3z"/>
			</g>
		</g>
		<g>
			<g>
				<path class="st0" d="M132.7,176.3c-0.1,0.8-0.1,1.7-0.1,2.5c0,0.9-0.1,1.9,0,2.8c0,0.1,0.2,0.1,0.2,0c0.1-0.9,0-1.9,0.1-2.8
					C132.8,178,132.9,177.1,132.7,176.3C132.8,176.2,132.7,176.2,132.7,176.3L132.7,176.3z"/>
			</g>
		</g>
		<g>
			<g>
				<path class="st0" d="M133.6,176.3c-0.1,0.8-0.1,1.7-0.1,2.5c0,0.9-0.1,1.9,0,2.8c0,0.1,0.2,0.1,0.2,0c0.1-0.9,0-1.9,0.1-2.8
					C133.7,178,133.8,177.1,133.6,176.3C133.6,176.2,133.6,176.2,133.6,176.3L133.6,176.3z"/>
			</g>
		</g>
		<g>
			<g>
				<path class="st0" d="M134.5,176.3c-0.1,0.8-0.1,1.7-0.1,2.5c0,0.9-0.1,1.9,0,2.8c0,0.1,0.2,0.1,0.2,0c0.1-0.9,0-1.9,0.1-2.8
					C134.6,178,134.6,177.1,134.5,176.3C134.5,176.2,134.5,176.2,134.5,176.3L134.5,176.3z"/>
			</g>
		</g>
		<g>
			<g>
				<path class="st0" d="M135.3,176.3c-0.1,0.8-0.1,1.7-0.1,2.5c0,0.9-0.1,1.9,0,2.8c0,0.1,0.2,0.1,0.2,0c0.1-0.9,0-1.9,0.1-2.8
					C135.4,178,135.5,177.1,135.3,176.3C135.4,176.2,135.3,176.2,135.3,176.3L135.3,176.3z"/>
			</g>
		</g>
		<g>
			<g>
				<path class="st0" d="M136.2,176.3c-0.1,0.8-0.1,1.7-0.1,2.5c0,0.9-0.1,1.9,0,2.8c0,0.1,0.2,0.1,0.2,0c0.1-0.9,0-1.9,0.1-2.8
					C136.3,178,136.4,177.1,136.2,176.3C136.3,176.2,136.2,176.2,136.2,176.3L136.2,176.3z"/>
			</g>
		</g>
		<g>
			<g>
				<path class="st0" d="M137.1,176.3c-0.1,0.8-0.1,1.7-0.1,2.5c0,0.9-0.1,1.9,0,2.8c0,0.1,0.2,0.1,0.2,0c0.1-0.9,0-1.9,0.1-2.8
					C137.2,178,137.3,177.1,137.1,176.3C137.1,176.2,137.1,176.2,137.1,176.3L137.1,176.3z"/>
			</g>
		</g>
		<g>
			<g>
				<path class="st0" d="M138,176.3c-0.1,0.8-0.1,1.7-0.1,2.5c0,0.9-0.1,1.9,0,2.8c0,0.1,0.2,0.1,0.2,0c0.1-0.9,0-1.9,0.1-2.8
					C138.1,178,138.1,177.1,138,176.3C138,176.2,138,176.2,138,176.3L138,176.3z"/>
			</g>
		</g>
		<g>
			<g>
				<path class="st0" d="M138.8,176.3c-0.1,0.8-0.1,1.7-0.1,2.5c0,0.9-0.1,1.9,0,2.8c0,0.1,0.2,0.1,0.2,0c0.1-0.9,0-1.9,0.1-2.8
					C138.9,178,139,177.1,138.8,176.3C138.9,176.2,138.8,176.2,138.8,176.3L138.8,176.3z"/>
			</g>
		</g>
		<g>
			<g>
				<path class="st0" d="M139.7,176.3c-0.1,0.8-0.1,1.7-0.1,2.5c0,0.9-0.1,1.9,0,2.8c0,0.1,0.2,0.1,0.2,0c0.1-0.9,0-1.9,0.1-2.8
					C139.8,178,139.9,177.1,139.7,176.3C139.8,176.2,139.7,176.2,139.7,176.3L139.7,176.3z"/>
			</g>
		</g>
		<g>
			<g>
				<path class="st0" d="M140.6,176.3c-0.1,0.8-0.1,1.7-0.1,2.5c0,0.9-0.1,1.9,0,2.8c0,0.1,0.2,0.1,0.2,0c0.1-0.9,0-1.9,0.1-2.8
					C140.7,178,140.8,177.1,140.6,176.3C140.6,176.2,140.6,176.2,140.6,176.3L140.6,176.3z"/>
			</g>
		</g>
		<g>
			<g>
				<path class="st0" d="M141.5,176.3c-0.1,0.8-0.1,1.7-0.1,2.5c0,0.9-0.1,1.9,0,2.8c0,0.1,0.2,0.1,0.2,0c0.1-0.9,0-1.9,0.1-2.8
					C141.6,178,141.7,177.1,141.5,176.3C141.5,176.2,141.5,176.2,141.5,176.3L141.5,176.3z"/>
			</g>
		</g>
		<g>
			<g>
				<path class="st0" d="M142.3,176.3c-0.1,0.8-0.1,1.7-0.1,2.5c0,0.9-0.1,1.9,0,2.8c0,0.1,0.2,0.1,0.2,0c0.1-0.9,0-1.9,0.1-2.8
					C142.4,178,142.5,177.1,142.3,176.3C142.4,176.2,142.3,176.2,142.3,176.3L142.3,176.3z"/>
			</g>
		</g>
		<g>
			<g>
				<path class="st0" d="M143.2,176.3c-0.1,0.8-0.1,1.7-0.1,2.5c0,0.9-0.1,1.9,0,2.8c0,0.1,0.2,0.1,0.2,0c0.1-0.9,0-1.9,0.1-2.8
					C143.3,178,143.4,177.1,143.2,176.3C143.3,176.2,143.2,176.2,143.2,176.3L143.2,176.3z"/>
			</g>
		</g>
		<g>
			<g>
				<path class="st0" d="M144.1,176.3c-0.1,0.8-0.1,1.7-0.1,2.5c0,0.9-0.1,1.9,0,2.8c0,0.1,0.2,0.1,0.2,0c0.1-0.9,0-1.9,0.1-2.8
					C144.2,178,144.3,177.1,144.1,176.3C144.1,176.2,144.1,176.2,144.1,176.3L144.1,176.3z"/>
			</g>
		</g>
		<g>
			<g>
				<path class="st0" d="M145,176.3c-0.1,0.8-0.1,1.7-0.1,2.5c0,0.9-0.1,1.9,0,2.8c0,0.1,0.2,0.1,0.2,0c0.1-0.9,0-1.9,0.1-2.8
					C145.1,178,145.2,177.1,145,176.3C145,176.2,145,176.2,145,176.3L145,176.3z"/>
			</g>
		</g>
		<g>
			<g>
				<path class="st0" d="M145.8,176.3c-0.1,0.8-0.1,1.7-0.1,2.5c0,0.9-0.1,1.9,0,2.8c0,0.1,0.2,0.1,0.2,0c0.1-0.9,0-1.9,0.1-2.8
					C145.9,178,146,177.1,145.8,176.3C145.9,176.2,145.8,176.2,145.8,176.3L145.8,176.3z"/>
			</g>
		</g>
		<g>
			<g>
				<path class="st0" d="M146.7,176.3c-0.1,0.8-0.1,1.7-0.1,2.5c0,0.9-0.1,1.9,0,2.8c0,0.1,0.2,0.1,0.2,0c0.1-0.9,0-1.9,0.1-2.8
					C146.8,178,146.9,177.1,146.7,176.3C146.8,176.2,146.7,176.2,146.7,176.3L146.7,176.3z"/>
			</g>
		</g>
		<g>
			<g>
				<path class="st0" d="M147.6,176.3c-0.1,0.8-0.1,1.7-0.1,2.5c0,0.9-0.1,1.9,0,2.8c0,0.1,0.2,0.1,0.2,0c0.1-0.9,0-1.9,0.1-2.8
					C147.7,178,147.8,177.1,147.6,176.3C147.6,176.2,147.6,176.2,147.6,176.3L147.6,176.3z"/>
			</g>
		</g>
		<g>
			<g>
				<path class="st0" d="M148.5,176.3c-0.1,0.8-0.1,1.7-0.1,2.5c0,0.9-0.1,1.9,0,2.8c0,0.1,0.2,0.1,0.2,0c0.1-0.9,0-1.9,0.1-2.8
					C148.6,178,148.7,177.1,148.5,176.3C148.5,176.2,148.5,176.2,148.5,176.3L148.5,176.3z"/>
			</g>
		</g>
		<g>
			<g>
				<path class="st0" d="M149.3,176.3c-0.1,0.8-0.1,1.7-0.1,2.5c0,0.9-0.1,1.9,0,2.8c0,0.1,0.2,0.1,0.2,0c0.1-0.9,0-1.9,0.1-2.8
					C149.4,178,149.5,177.1,149.3,176.3C149.4,176.2,149.3,176.2,149.3,176.3L149.3,176.3z"/>
			</g>
		</g>
		<g>
			<g>
				<path class="st0" d="M150.2,176.3c-0.1,0.8-0.1,1.7-0.1,2.5c0,0.9-0.1,1.9,0,2.8c0,0.1,0.2,0.1,0.2,0c0.1-0.9,0-1.9,0.1-2.8
					C150.3,178,150.4,177.1,150.2,176.3C150.3,176.2,150.2,176.2,150.2,176.3L150.2,176.3z"/>
			</g>
		</g>
		<g>
			<g>
				<path class="st0" d="M151.1,176.3c-0.1,0.8-0.1,1.7-0.1,2.5c0,0.9-0.1,1.9,0,2.8c0,0.1,0.2,0.1,0.2,0c0.1-0.9,0-1.9,0.1-2.8
					C151.2,178,151.3,177.1,151.1,176.3C151.2,176.2,151.1,176.2,151.1,176.3L151.1,176.3z"/>
			</g>
		</g>
		<g>
			<g>
				<path class="st0" d="M152,176.3c-0.1,0.8-0.1,1.7-0.1,2.5c0,0.9-0.1,1.9,0,2.8c0,0.1,0.2,0.1,0.2,0c0.1-0.9,0-1.9,0.1-2.8
					C152.1,178,152.2,177.1,152,176.3C152,176.2,152,176.2,152,176.3L152,176.3z"/>
			</g>
		</g>
		<g>
			<g>
				<path class="st0" d="M152.8,176.3c-0.1,0.8-0.1,1.7-0.1,2.5c0,0.9-0.1,1.9,0,2.8c0,0.1,0.2,0.1,0.2,0c0.1-0.9,0-1.9,0.1-2.8
					C152.9,178,153,177.1,152.8,176.3C152.9,176.2,152.9,176.2,152.8,176.3L152.8,176.3z"/>
			</g>
		</g>
		<g>
			<g>
				<path class="st0" d="M153.7,176.3c-0.1,0.8-0.1,1.7-0.1,2.5c0,0.9-0.1,1.9,0,2.8c0,0.1,0.2,0.1,0.2,0c0.1-0.9,0-1.9,0.1-2.8
					C153.8,178,153.9,177.1,153.7,176.3C153.8,176.2,153.7,176.2,153.7,176.3L153.7,176.3z"/>
			</g>
		</g>
		<g>
			<g>
				<path class="st0" d="M154.6,176.3c-0.1,0.8-0.1,1.7-0.1,2.5c0,0.9-0.1,1.9,0,2.8c0,0.1,0.2,0.1,0.2,0c0.1-0.9,0-1.9,0.1-2.8
					C154.7,178,154.8,177.1,154.6,176.3C154.7,176.2,154.6,176.2,154.6,176.3L154.6,176.3z"/>
			</g>
		</g>
		<g>
			<g>
				<path class="st0" d="M155.5,176.3c-0.1,0.8-0.1,1.7-0.1,2.5c0,0.9-0.1,1.9,0,2.8c0,0.1,0.2,0.1,0.2,0c0.1-0.9,0-1.9,0.1-2.8
					C155.6,178,155.7,177.1,155.5,176.3C155.5,176.2,155.5,176.2,155.5,176.3L155.5,176.3z"/>
			</g>
		</g>
		<g>
			<g>
				<path class="st0" d="M156.3,176.3c-0.1,0.8-0.1,1.7-0.1,2.5c0,0.9-0.1,1.9,0,2.8c0,0.1,0.2,0.1,0.2,0c0.1-0.9,0-1.9,0.1-2.8
					C156.5,178,156.5,177.1,156.3,176.3C156.4,176.2,156.4,176.2,156.3,176.3L156.3,176.3z"/>
			</g>
		</g>
		<g>
			<g>
				<path class="st0" d="M157.2,176.3c-0.1,0.8-0.1,1.7-0.1,2.5c0,0.9-0.1,1.9,0,2.8c0,0.1,0.2,0.1,0.2,0c0.1-0.9,0-1.9,0.1-2.8
					C157.3,178,157.4,177.1,157.2,176.3C157.3,176.2,157.2,176.2,157.2,176.3L157.2,176.3z"/>
			</g>
		</g>
		<g>
			<g>
				<path class="st0" d="M158.1,176.3c-0.1,0.8-0.1,1.7-0.1,2.5c0,0.9-0.1,1.9,0,2.8c0,0.1,0.2,0.1,0.2,0c0.1-0.9,0-1.9,0.1-2.8
					C158.2,178,158.3,177.1,158.1,176.3C158.2,176.2,158.1,176.2,158.1,176.3L158.1,176.3z"/>
			</g>
		</g>
		<g>
			<g>
				<path class="st0" d="M159,176.3c-0.1,0.8-0.1,1.7-0.1,2.5c0,0.9-0.1,1.9,0,2.8c0,0.1,0.2,0.1,0.2,0c0.1-0.9,0-1.9,0.1-2.8
					C159.1,178,159.2,177.1,159,176.3C159,176.2,159,176.2,159,176.3L159,176.3z"/>
			</g>
		</g>
		<g>
			<g>
				<path class="st0" d="M159.9,176.3c-0.1,0.8-0.1,1.7-0.1,2.5c0,0.9-0.1,1.9,0,2.8c0,0.1,0.2,0.1,0.2,0c0.1-0.9,0-1.9,0.1-2.8
					C160,178,160,177.1,159.9,176.3C159.9,176.2,159.9,176.2,159.9,176.3L159.9,176.3z"/>
			</g>
		</g>
		<g>
			<g>
				<path class="st0" d="M160.7,176.3c-0.1,0.8-0.1,1.7-0.1,2.5c0,0.9-0.1,1.9,0,2.8c0,0.1,0.2,0.1,0.2,0c0.1-0.9,0-1.9,0.1-2.8
					C160.8,178,160.9,177.1,160.7,176.3C160.8,176.2,160.7,176.2,160.7,176.3L160.7,176.3z"/>
			</g>
		</g>
		<g>
			<g>
				<path class="st0" d="M161.6,176.3c-0.1,0.8-0.1,1.7-0.1,2.5c0,0.9-0.1,1.9,0,2.8c0,0.1,0.2,0.1,0.2,0c0.1-0.9,0-1.9,0.1-2.8
					C161.7,178,161.8,177.1,161.6,176.3C161.7,176.2,161.6,176.2,161.6,176.3L161.6,176.3z"/>
			</g>
		</g>
		<g>
			<g>
				<path class="st0" d="M162.5,176.3c-0.1,0.8-0.1,1.7-0.1,2.5c0,0.9-0.1,1.9,0,2.8c0,0.1,0.2,0.1,0.2,0c0.1-0.9,0-1.9,0.1-2.8
					C162.6,178,162.7,177.1,162.5,176.3C162.5,176.2,162.5,176.2,162.5,176.3L162.5,176.3z"/>
			</g>
		</g>
		<g>
			<g>
				<path class="st0" d="M163.4,176.3c-0.1,0.8-0.1,1.7-0.1,2.5c0,0.9-0.1,1.9,0,2.8c0,0.1,0.2,0.1,0.2,0c0.1-0.9,0-1.9,0.1-2.8
					C163.5,178,163.5,177.1,163.4,176.3C163.4,176.2,163.4,176.2,163.4,176.3L163.4,176.3z"/>
			</g>
		</g>
		<g>
			<g>
				<path class="st0" d="M164.2,176.3c-0.1,0.8-0.1,1.7-0.1,2.5c0,0.9-0.1,1.9,0,2.8c0,0.1,0.2,0.1,0.2,0c0.1-0.9,0-1.9,0.1-2.8
					C164.3,178,164.4,177.1,164.2,176.3C164.3,176.2,164.2,176.2,164.2,176.3L164.2,176.3z"/>
			</g>
		</g>
		<g>
			<g>
				<path class="st0" d="M165.1,176.3c-0.1,0.8-0.1,1.7-0.1,2.5c0,0.9-0.1,1.9,0,2.8c0,0.1,0.2,0.1,0.2,0c0.1-0.9,0-1.9,0.1-2.8
					C165.2,178,165.3,177.1,165.1,176.3C165.2,176.2,165.1,176.2,165.1,176.3L165.1,176.3z"/>
			</g>
		</g>
		<g>
			<g>
				<path class="st0" d="M166,176.3c-0.1,0.8-0.1,1.7-0.1,2.5c0,0.9-0.1,1.9,0,2.8c0,0.1,0.2,0.1,0.2,0c0.1-0.9,0-1.9,0.1-2.8
					C166.1,178,166.2,177.1,166,176.3C166,176.2,166,176.2,166,176.3L166,176.3z"/>
			</g>
		</g>
		<g>
			<g>
				<path class="st0" d="M166.9,176.3c-0.1,0.8-0.1,1.7-0.1,2.5c0,0.9-0.1,1.9,0,2.8c0,0.1,0.2,0.1,0.2,0c0.1-0.9,0-1.9,0.1-2.8
					C167,178,167,177.1,166.9,176.3C166.9,176.2,166.9,176.2,166.9,176.3L166.9,176.3z"/>
			</g>
		</g>
		<g>
			<g>
				<path class="st0" d="M167.7,176.3c-0.1,0.8-0.1,1.7-0.1,2.5c0,0.9-0.1,1.9,0,2.8c0,0.1,0.2,0.1,0.2,0c0.1-0.9,0-1.9,0.1-2.8
					C167.8,178,167.9,177.1,167.7,176.3C167.8,176.2,167.7,176.2,167.7,176.3L167.7,176.3z"/>
			</g>
		</g>
		<g>
			<g>
				<path class="st0" d="M168.6,176.3c-0.1,0.8-0.1,1.7-0.1,2.5c0,0.9-0.1,1.9,0,2.8c0,0.1,0.2,0.1,0.2,0c0.1-0.9,0-1.9,0.1-2.8
					C168.7,178,168.8,177.1,168.6,176.3C168.7,176.2,168.6,176.2,168.6,176.3L168.6,176.3z"/>
			</g>
		</g>
		<g>
			<g>
				<path class="st0" d="M169.5,176.3c-0.1,0.8-0.1,1.7-0.1,2.5c0,0.9-0.1,1.9,0,2.8c0,0.1,0.2,0.1,0.2,0c0.1-0.9,0-1.9,0.1-2.8
					C169.6,178,169.7,177.1,169.5,176.3C169.5,176.2,169.5,176.2,169.5,176.3L169.5,176.3z"/>
			</g>
		</g>
		<g>
			<g>
				<path class="st0" d="M170.4,176.3c-0.1,0.8-0.1,1.7-0.1,2.5c0,0.9-0.1,1.9,0,2.8c0,0.1,0.2,0.1,0.2,0c0.1-0.9,0-1.9,0.1-2.8
					C170.5,178,170.5,177.1,170.4,176.3C170.4,176.2,170.4,176.2,170.4,176.3L170.4,176.3z"/>
			</g>
		</g>
		<g>
			<g>
				<path class="st0" d="M171.2,176.3c-0.1,0.8-0.1,1.7-0.1,2.5c0,0.9-0.1,1.9,0,2.8c0,0.1,0.2,0.1,0.2,0c0.1-0.9,0-1.9,0.1-2.8
					C171.3,178,171.4,177.1,171.2,176.3C171.3,176.2,171.2,176.2,171.2,176.3L171.2,176.3z"/>
			</g>
		</g>
		<g>
			<g>
				<path class="st0" d="M172.1,176.3c-0.1,0.8-0.1,1.7-0.1,2.5c0,0.9-0.1,1.9,0,2.8c0,0.1,0.2,0.1,0.2,0c0.1-0.9,0-1.9,0.1-2.8
					C172.2,178,172.3,177.1,172.1,176.3C172.2,176.2,172.1,176.2,172.1,176.3L172.1,176.3z"/>
			</g>
		</g>
		<g>
			<g>
				<path class="st0" d="M173,176.3c-0.1,0.8-0.1,1.7-0.1,2.5c0,0.9-0.1,1.9,0,2.8c0,0.1,0.2,0.1,0.2,0c0.1-0.9,0-1.9,0.1-2.8
					C173.1,178,173.2,177.1,173,176.3C173,176.2,173,176.2,173,176.3L173,176.3z"/>
			</g>
		</g>
		<g>
			<g>
				<path class="st0" d="M173.9,176.3c-0.1,0.8-0.1,1.7-0.1,2.5c0,0.9-0.1,1.9,0,2.8c0,0.1,0.2,0.1,0.2,0c0.1-0.9,0-1.9,0.1-2.8
					C174,178,174,177.1,173.9,176.3C173.9,176.2,173.9,176.2,173.9,176.3L173.9,176.3z"/>
			</g>
		</g>
		<g>
			<g>
				<path class="st0" d="M174.7,176.3c-0.1,0.8-0.1,1.7-0.1,2.5c0,0.9-0.1,1.9,0,2.8c0,0.1,0.2,0.1,0.2,0c0.1-0.9,0-1.9,0.1-2.8
					C174.8,178,174.9,177.1,174.7,176.3C174.8,176.2,174.7,176.2,174.7,176.3L174.7,176.3z"/>
			</g>
		</g>
		<g>
			<g>
				<path class="st0" d="M175.6,176.3c-0.1,0.8-0.1,1.7-0.1,2.5c0,0.9-0.1,1.9,0,2.8c0,0.1,0.2,0.1,0.2,0c0.1-0.9,0-1.9,0.1-2.8
					C175.7,178,175.8,177.1,175.6,176.3C175.7,176.2,175.6,176.2,175.6,176.3L175.6,176.3z"/>
			</g>
		</g>
		<g>
			<g>
				<path class="st0" d="M176.5,176.3c-0.1,0.8-0.1,1.7-0.1,2.5c0,0.9-0.1,1.9,0,2.8c0,0.1,0.2,0.1,0.2,0c0.1-0.9,0-1.9,0.1-2.8
					C176.6,178,176.7,177.1,176.5,176.3C176.5,176.2,176.5,176.2,176.5,176.3L176.5,176.3z"/>
			</g>
		</g>
		<g>
			<g>
				<path class="st0" d="M177.4,176.3c-0.1,0.8-0.1,1.7-0.1,2.5c0,0.9-0.1,1.9,0,2.8c0,0.1,0.2,0.1,0.2,0c0.1-0.9,0-1.9,0.1-2.8
					C177.5,178,177.5,177.1,177.4,176.3C177.4,176.2,177.4,176.2,177.4,176.3L177.4,176.3z"/>
			</g>
		</g>
		<g>
			<g>
				<path class="st0" d="M178.2,176.3c-0.1,0.8-0.1,1.7-0.1,2.5c0,0.9-0.1,1.9,0,2.8c0,0.1,0.2,0.1,0.2,0c0.1-0.9,0-1.9,0.1-2.8
					C178.3,178,178.4,177.1,178.2,176.3C178.3,176.2,178.2,176.2,178.2,176.3L178.2,176.3z"/>
			</g>
		</g>
		<g>
			<g>
				<path class="st0" d="M179.1,176.3c-0.1,0.8-0.1,1.7-0.1,2.5c0,0.9-0.1,1.9,0,2.8c0,0.1,0.2,0.1,0.2,0c0.1-0.9,0-1.9,0.1-2.8
					C179.2,178,179.3,177.1,179.1,176.3C179.2,176.2,179.1,176.2,179.1,176.3L179.1,176.3z"/>
			</g>
		</g>
		<g>
			<g>
				<path class="st0" d="M180,176.3c-0.1,0.8-0.1,1.7-0.1,2.5c0,0.9-0.1,1.9,0,2.8c0,0.1,0.2,0.1,0.2,0c0.1-0.9,0-1.9,0.1-2.8
					C180.1,178,180.2,177.1,180,176.3C180,176.2,180,176.2,180,176.3L180,176.3z"/>
			</g>
		</g>
		<g>
			<g>
				<path class="st0" d="M180.9,176.3c-0.1,0.8-0.1,1.7-0.1,2.5c0,0.9-0.1,1.9,0,2.8c0,0.1,0.2,0.1,0.2,0c0.1-0.9,0-1.9,0.1-2.8
					C181,178,181.1,177.1,180.9,176.3C180.9,176.2,180.9,176.2,180.9,176.3L180.9,176.3z"/>
			</g>
		</g>
		<g>
			<g>
				<path class="st0" d="M181.7,176.3c-0.1,0.8-0.1,1.7-0.1,2.5c0,0.9-0.1,1.9,0,2.8c0,0.1,0.2,0.1,0.2,0c0.1-0.9,0-1.9,0.1-2.8
					C181.8,178,181.9,177.1,181.7,176.3C181.8,176.2,181.7,176.2,181.7,176.3L181.7,176.3z"/>
			</g>
		</g>
		<g>
			<g>
				<path class="st0" d="M182.6,176.3c-0.1,0.8-0.1,1.7-0.1,2.5c0,0.9-0.1,1.9,0,2.8c0,0.1,0.2,0.1,0.2,0c0.1-0.9,0-1.9,0.1-2.8
					C182.7,178,182.8,177.1,182.6,176.3C182.7,176.2,182.6,176.2,182.6,176.3L182.6,176.3z"/>
			</g>
		</g>
		<g>
			<g>
				<path class="st0" d="M183.5,176.3c-0.1,0.8-0.1,1.7-0.1,2.5c0,0.9-0.1,1.9,0,2.8c0,0.1,0.2,0.1,0.2,0c0.1-0.9,0-1.9,0.1-2.8
					C183.6,178,183.7,177.1,183.5,176.3C183.5,176.2,183.5,176.2,183.5,176.3L183.5,176.3z"/>
			</g>
		</g>
		<g>
			<g>
				<path class="st0" d="M184.4,176.3c-0.1,0.8-0.1,1.7-0.1,2.5c0,0.9-0.1,1.9,0,2.8c0,0.1,0.2,0.1,0.2,0c0.1-0.9,0-1.9,0.1-2.8
					C184.5,178,184.6,177.1,184.4,176.3C184.4,176.2,184.4,176.2,184.4,176.3L184.4,176.3z"/>
			</g>
		</g>
		<g>
			<g>
				<path class="st0" d="M185.2,176.3c-0.1,0.8-0.1,1.7-0.1,2.5c0,0.9-0.1,1.9,0,2.8c0,0.1,0.2,0.1,0.2,0c0.1-0.9,0-1.9,0.1-2.8
					C185.3,178,185.4,177.1,185.2,176.3C185.3,176.2,185.2,176.2,185.2,176.3L185.2,176.3z"/>
			</g>
		</g>
		<g>
			<g>
				<path class="st0" d="M186.1,176.3c-0.1,0.8-0.1,1.7-0.1,2.5c0,0.9-0.1,1.9,0,2.8c0,0.1,0.2,0.1,0.2,0c0.1-0.9,0-1.9,0.1-2.8
					C186.2,178,186.3,177.1,186.1,176.3C186.2,176.2,186.1,176.2,186.1,176.3L186.1,176.3z"/>
			</g>
		</g>
		<g>
			<g>
				<path class="st0" d="M187,176.3c-0.1,0.8-0.1,1.7-0.1,2.5c0,0.9-0.1,1.9,0,2.8c0,0.1,0.2,0.1,0.2,0c0.1-0.9,0-1.9,0.1-2.8
					C187.1,178,187.2,177.1,187,176.3C187,176.2,187,176.2,187,176.3L187,176.3z"/>
			</g>
		</g>
		<g>
			<g>
				<path class="st0" d="M187.9,176.3c-0.1,0.8-0.1,1.7-0.1,2.5c0,0.9-0.1,1.9,0,2.8c0,0.1,0.2,0.1,0.2,0c0.1-0.9,0-1.9,0.1-2.8
					C188,178,188.1,177.1,187.9,176.3C187.9,176.2,187.9,176.2,187.9,176.3L187.9,176.3z"/>
			</g>
		</g>
		<g>
			<g>
				<path class="st0" d="M188.7,176.3c-0.1,0.8-0.1,1.7-0.1,2.5c0,0.9-0.1,1.9,0,2.8c0,0.1,0.2,0.1,0.2,0c0.1-0.9,0-1.9,0.1-2.8
					C188.8,178,188.9,177.1,188.7,176.3C188.8,176.2,188.7,176.2,188.7,176.3L188.7,176.3z"/>
			</g>
		</g>
		<g>
			<g>
				<path class="st0" d="M189.6,176.3c-0.1,0.8-0.1,1.7-0.1,2.5c0,0.9-0.1,1.9,0,2.8c0,0.1,0.2,0.1,0.2,0c0.1-0.9,0-1.9,0.1-2.8
					C189.7,178,189.8,177.1,189.6,176.3C189.7,176.2,189.6,176.2,189.6,176.3L189.6,176.3z"/>
			</g>
		</g>
		<g>
			<g>
				<path class="st0" d="M190.5,176.3c-0.1,0.8-0.1,1.7-0.1,2.5c0,0.9-0.1,1.9,0,2.8c0,0.1,0.2,0.1,0.2,0c0.1-0.9,0-1.9,0.1-2.8
					C190.6,178,190.7,177.1,190.5,176.3C190.6,176.2,190.5,176.2,190.5,176.3L190.5,176.3z"/>
			</g>
		</g>
		<g>
			<g>
				<path class="st0" d="M191.4,176.3c-0.1,0.8-0.1,1.7-0.1,2.5c0,0.9-0.1,1.9,0,2.8c0,0.1,0.2,0.1,0.2,0c0.1-0.9,0-1.9,0.1-2.8
					C191.5,178,191.6,177.1,191.4,176.3C191.4,176.2,191.4,176.2,191.4,176.3L191.4,176.3z"/>
			</g>
		</g>
		<g>
			<g>
				<path class="st0" d="M192.2,176.3c-0.1,0.8-0.1,1.7-0.1,2.5c0,0.9-0.1,1.9,0,2.8c0,0.1,0.2,0.1,0.2,0c0.1-0.9,0-1.9,0.1-2.8
					C192.3,178,192.4,177.1,192.2,176.3C192.3,176.2,192.3,176.2,192.2,176.3L192.2,176.3z"/>
			</g>
		</g>
		<g>
			<g>
				<path class="st0" d="M193.1,176.3c-0.1,0.8-0.1,1.7-0.1,2.5c0,0.9-0.1,1.9,0,2.8c0,0.1,0.2,0.1,0.2,0c0.1-0.9,0-1.9,0.1-2.8
					C193.2,178,193.3,177.1,193.1,176.3C193.2,176.2,193.1,176.2,193.1,176.3L193.1,176.3z"/>
			</g>
		</g>
		<g>
			<g>
				<path class="st0" d="M194,176.3c-0.1,0.8-0.1,1.7-0.1,2.5c0,0.9-0.1,1.9,0,2.8c0,0.1,0.2,0.1,0.2,0c0.1-0.9,0-1.9,0.1-2.8
					C194.1,178,194.2,177.1,194,176.3C194.1,176.2,194,176.2,194,176.3L194,176.3z"/>
			</g>
		</g>
		<g>
			<g>
				<path class="st0" d="M194.9,176.3c-0.1,0.8-0.1,1.7-0.1,2.5c0,0.9-0.1,1.9,0,2.8c0,0.1,0.2,0.1,0.2,0c0.1-0.9,0-1.9,0.1-2.8
					C195,178,195.1,177.1,194.9,176.3C194.9,176.2,194.9,176.2,194.9,176.3L194.9,176.3z"/>
			</g>
		</g>
		<g>
			<g>
				<path class="st0" d="M195.7,176.3c-0.1,0.8-0.1,1.7-0.1,2.5c0,0.9-0.1,1.9,0,2.8c0,0.1,0.2,0.1,0.2,0c0.1-0.9,0-1.9,0.1-2.8
					C195.9,178,195.9,177.1,195.7,176.3C195.8,176.2,195.8,176.2,195.7,176.3L195.7,176.3z"/>
			</g>
		</g>
		<g>
			<g>
				<path class="st0" d="M196.6,176.3c-0.1,0.8-0.1,1.7-0.1,2.5c0,0.9-0.1,1.9,0,2.8c0,0.1,0.2,0.1,0.2,0c0.1-0.9,0-1.9,0.1-2.8
					C196.7,178,196.8,177.1,196.6,176.3C196.7,176.2,196.6,176.2,196.6,176.3L196.6,176.3z"/>
			</g>
		</g>
		<g>
			<g>
				<path class="st0" d="M197.5,176.3c-0.1,0.8-0.1,1.7-0.1,2.5c0,0.9-0.1,1.9,0,2.8c0,0.1,0.2,0.1,0.2,0c0.1-0.9,0-1.9,0.1-2.8
					C197.6,178,197.7,177.1,197.5,176.3C197.6,176.2,197.5,176.2,197.5,176.3L197.5,176.3z"/>
			</g>
		</g>
		<g>
			<g>
				<path class="st0" d="M198.4,176.3c-0.1,0.8-0.1,1.7-0.1,2.5c0,0.9-0.1,1.9,0,2.8c0,0.1,0.2,0.1,0.2,0c0.1-0.9,0-1.9,0.1-2.8
					C198.5,178,198.6,177.1,198.4,176.3C198.4,176.2,198.4,176.2,198.4,176.3L198.4,176.3z"/>
			</g>
		</g>
		<g>
			<g>
				<path class="st0" d="M199.3,176.3c-0.1,0.8-0.1,1.7-0.1,2.5c0,0.9-0.1,1.9,0,2.8c0,0.1,0.2,0.1,0.2,0c0.1-0.9,0-1.9,0.1-2.8
					C199.4,178,199.4,177.1,199.3,176.3C199.3,176.2,199.3,176.2,199.3,176.3L199.3,176.3z"/>
			</g>
		</g>
		<g>
			<g>
				<path class="st0" d="M200.1,176.3c-0.1,0.8-0.1,1.7-0.1,2.5c0,0.9-0.1,1.9,0,2.8c0,0.1,0.2,0.1,0.2,0c0.1-0.9,0-1.9,0.1-2.8
					C200.2,178,200.3,177.1,200.1,176.3C200.2,176.2,200.1,176.2,200.1,176.3L200.1,176.3z"/>
			</g>
		</g>
		<g>
			<g>
				<path class="st0" d="M201,176.3c-0.1,0.8-0.1,1.7-0.1,2.5c0,0.9-0.1,1.9,0,2.8c0,0.1,0.2,0.1,0.2,0c0.1-0.9,0-1.9,0.1-2.8
					C201.1,178,201.2,177.1,201,176.3C201.1,176.2,201,176.2,201,176.3L201,176.3z"/>
			</g>
		</g>
		<g>
			<g>
				<path class="st0" d="M201.9,176.3c-0.1,0.8-0.1,1.7-0.1,2.5c0,0.9-0.1,1.9,0,2.8c0,0.1,0.2,0.1,0.2,0c0.1-0.9,0-1.9,0.1-2.8
					C202,178,202.1,177.1,201.9,176.3C201.9,176.2,201.9,176.2,201.9,176.3L201.9,176.3z"/>
			</g>
		</g>
		<g>
			<g>
				<path class="st0" d="M202.8,176.3c-0.1,0.8-0.1,1.7-0.1,2.5c0,0.9-0.1,1.9,0,2.8c0,0.1,0.2,0.1,0.2,0c0.1-0.9,0-1.9,0.1-2.8
					C202.9,178,202.9,177.1,202.8,176.3C202.8,176.2,202.8,176.2,202.8,176.3L202.8,176.3z"/>
			</g>
		</g>
		<g>
			<g>
				<path class="st0" d="M203.6,176.3c-0.1,0.8-0.1,1.7-0.1,2.5c0,0.9-0.1,1.9,0,2.8c0,0.1,0.2,0.1,0.2,0c0.1-0.9,0-1.9,0.1-2.8
					C203.7,178,203.8,177.1,203.6,176.3C203.7,176.2,203.6,176.2,203.6,176.3L203.6,176.3z"/>
			</g>
		</g>
		<g>
			<g>
				<path class="st0" d="M204.5,176.3c-0.1,0.8-0.1,1.7-0.1,2.5c0,0.9-0.1,1.9,0,2.8c0,0.1,0.2,0.1,0.2,0c0.1-0.9,0-1.9,0.1-2.8
					C204.6,178,204.7,177.1,204.5,176.3C204.6,176.2,204.5,176.2,204.5,176.3L204.5,176.3z"/>
			</g>
		</g>
		<g>
			<g>
				<path class="st0" d="M205.4,176.3c-0.1,0.8-0.1,1.7-0.1,2.5c0,0.9-0.1,1.9,0,2.8c0,0.1,0.2,0.1,0.2,0c0.1-0.9,0-1.9,0.1-2.8
					C205.5,178,205.6,177.1,205.4,176.3C205.4,176.2,205.4,176.2,205.4,176.3L205.4,176.3z"/>
			</g>
		</g>
		<g>
			<g>
				<path class="st0" d="M206.3,176.3c-0.1,0.8-0.1,1.7-0.1,2.5c0,0.9-0.1,1.9,0,2.8c0,0.1,0.2,0.1,0.2,0c0.1-0.9,0-1.9,0.1-2.8
					C206.4,178,206.4,177.1,206.3,176.3C206.3,176.2,206.3,176.2,206.3,176.3L206.3,176.3z"/>
			</g>
		</g>
	</g>
	<g>
		<g>
			<path class="st0" d="M70.7,171c45.4,0.7,90.8,0.5,136.2-0.2c0.1,0,0.1-0.2,0-0.2c-45.4,0.4-90.8,0.3-136.2,0.2
				C70.6,170.9,70.6,171,70.7,171L70.7,171z"/>
		</g>
	</g>
	<g>
		<rect x="139.1" y="169.3" class="st1" width="0.4" height="19.7"/>
	</g>
	<g>
		<g>
			<g>
				<path class="st0" d="M218.3,180.7c1,0,2,0.1,3,0c0.1,0,0.1-0.1,0-0.1C220.4,180.5,219.3,180.6,218.3,180.7
					C218.3,180.6,218.3,180.7,218.3,180.7L218.3,180.7z"/>
			</g>
		</g>
		<g>
			<g>
				<path class="st0" d="M218.4,181.9c1-0.1,2.1,0,3-0.2c0.1,0,0-0.1,0-0.1C220.4,181.5,219.4,181.7,218.4,181.9
					C218.3,181.8,218.3,181.9,218.4,181.9L218.4,181.9z"/>
			</g>
		</g>
		<g>
			<g>
				<path class="st0" d="M218.5,183.1c1-0.1,2-0.2,3-0.4c0,0,0-0.1,0-0.1C220.5,182.6,219.5,182.8,218.5,183.1
					C218.4,183,218.4,183.1,218.5,183.1L218.5,183.1z"/>
			</g>
		</g>
		<g>
			<g>
				<path class="st0" d="M218.7,184.2c1-0.2,2-0.3,3-0.6c0,0,0-0.1,0-0.1C220.7,183.7,219.7,183.9,218.7,184.2
					C218.6,184.2,218.6,184.3,218.7,184.2L218.7,184.2z"/>
			</g>
		</g>
		<g>
			<g>
				<path class="st0" d="M219,185.4c1-0.2,2-0.4,2.9-0.8c0.1,0,0-0.1,0-0.1C220.9,184.7,219.9,185.1,219,185.4
					C218.9,185.3,218.9,185.4,219,185.4L219,185.4z"/>
			</g>
		</g>
		<g>
			<g>
				<path class="st0" d="M219.3,186.6c1-0.3,2-0.6,2.9-1c0,0,0-0.1,0-0.1C221.2,185.7,220.2,186.1,219.3,186.6
					C219.3,186.5,219.3,186.6,219.3,186.6L219.3,186.6z"/>
			</g>
		</g>
		<g>
			<g>
				<path class="st0" d="M219.8,187.7c0.9-0.4,1.9-0.7,2.8-1.2c0,0,0-0.1,0-0.1C221.6,186.7,220.6,187.2,219.8,187.7
					C219.7,187.6,219.7,187.7,219.8,187.7L219.8,187.7z"/>
			</g>
		</g>
		<g>
			<g>
				<path class="st0" d="M220.3,188.8c0.9-0.4,1.9-0.8,2.7-1.3c0,0,0-0.1,0-0.1C222,187.7,221.1,188.2,220.3,188.8
					C220.2,188.7,220.2,188.8,220.3,188.8L220.3,188.8z"/>
			</g>
		</g>
		<g>
			<g>
				<path class="st0" d="M220.9,189.8c0.9-0.5,1.8-0.9,2.6-1.5c0,0,0-0.1,0-0.1C222.5,188.6,221.7,189.2,220.9,189.8
					C220.8,189.8,220.8,189.9,220.9,189.8L220.9,189.8z"/>
			</g>
		</g>
		<g>
			<g>
				<path class="st0" d="M221.5,190.8c0.8-0.5,1.7-1.1,2.5-1.7c0,0,0-0.1-0.1-0.1C223.1,189.6,222.3,190.2,221.5,190.8
					C221.4,190.8,221.5,190.9,221.5,190.8L221.5,190.8z"/>
			</g>
		</g>
		<g>
			<g>
				<path class="st0" d="M222.2,191.8c0.8-0.6,1.7-1.2,2.4-1.9c0,0,0-0.1-0.1-0.1C223.7,190.4,222.9,191.1,222.2,191.8
					C222.1,191.8,222.2,191.9,222.2,191.8L222.2,191.8z"/>
			</g>
		</g>
		<g>
			<g>
				<path class="st0" d="M223.2,192.5c0.8-0.7,1.4-1.1,2-1.8c0,0,0-0.1-0.1-0.1C224.4,191.2,223.9,191.8,223.2,192.5
					C223.1,192.5,223.2,192.6,223.2,192.5L223.2,192.5z"/>
			</g>
		</g>
		<g>
			<g>
				<path class="st0" d="M224.7,192.8c0.7-0.7,0.7-0.5,1.3-1.3c0,0,0-0.1-0.1-0.1C225.1,192,225.3,192,224.7,192.8
					C224.6,192.8,224.6,192.8,224.7,192.8L224.7,192.8z"/>
			</g>
		</g>
		<g>
			<g>
				<path class="st0" d="M237,196.8c0-1,0.1-0.1,0-1.1c0-0.1-0.1-0.1-0.1,0C236.8,196.7,236.9,195.8,237,196.8
					C236.9,196.9,237,196.9,237,196.8L237,196.8z"/>
			</g>
		</g>
		<g>
			<g>
				<path class="st0" d="M238.2,197.6c-0.1-1,0-0.9-0.2-1.9c0,0-0.1,0-0.1,0C237.9,196.7,238,196.6,238.2,197.6
					C238.1,197.6,238.2,197.6,238.2,197.6L238.2,197.6z"/>
			</g>
		</g>
		<g>
			<g>
				<path class="st0" d="M239.5,198.5c-0.1-1-0.2-2-0.5-3c0,0-0.1,0-0.1,0C239,196.6,239.3,197.6,239.5,198.5
					C239.4,198.6,239.5,198.6,239.5,198.5L239.5,198.5z"/>
			</g>
		</g>
		<g>
			<g>
				<path class="st0" d="M240.7,198.3c-0.2-1-0.4-2-0.7-2.9c0,0-0.1,0-0.1,0C240.1,196.4,240.4,197.4,240.7,198.3
					C240.6,198.4,240.7,198.4,240.7,198.3L240.7,198.3z"/>
			</g>
		</g>
		<g>
			<g>
				<path class="st0" d="M241.9,198c-0.3-1-0.5-2-0.9-2.9c0,0-0.1,0-0.1,0C241.1,196.1,241.5,197.1,241.9,198
					C241.8,198.1,241.9,198.1,241.9,198L241.9,198z"/>
			</g>
		</g>
		<g>
			<g>
				<path class="st0" d="M243,197.6c-0.3-0.9-0.6-1.9-1.1-2.8c0,0-0.1,0-0.1,0C242.1,195.8,242.6,196.7,243,197.6
					C243,197.7,243.1,197.7,243,197.6L243,197.6z"/>
			</g>
		</g>
		<g>
			<g>
				<path class="st0" d="M244.2,197.2c-0.4-0.9-0.7-1.9-1.3-2.7c0,0-0.1,0-0.1,0C243.1,195.4,243.7,196.3,244.2,197.2
					C244.1,197.2,244.2,197.2,244.2,197.2L244.2,197.2z"/>
			</g>
		</g>
		<g>
			<g>
				<path class="st0" d="M245.3,196.6c-0.5-0.9-0.9-1.8-1.4-2.6c0,0-0.1,0-0.1,0C244.1,194.9,244.7,195.8,245.3,196.6
					C245.2,196.7,245.3,196.7,245.3,196.6L245.3,196.6z"/>
			</g>
		</g>
		<g>
			<g>
				<path class="st0" d="M246.3,196c-0.5-0.9-1-1.8-1.6-2.6c0,0-0.1,0-0.1,0.1C245.1,194.4,245.7,195.2,246.3,196
					C246.3,196.1,246.3,196.1,246.3,196L246.3,196z"/>
			</g>
		</g>
		<g>
			<g>
				<path class="st0" d="M247.3,195.4c-0.6-0.8-1.1-1.7-1.8-2.4c0,0-0.1,0-0.1,0.1C246,193.8,246.7,194.6,247.3,195.4
					C247.3,195.4,247.4,195.4,247.3,195.4L247.3,195.4z"/>
			</g>
		</g>
		<g>
			<g>
				<path class="st0" d="M248.3,194.6c-0.6-0.8-1.2-1.6-1.9-2.3c0,0-0.1,0-0.1,0.1C246.8,193.2,247.6,193.9,248.3,194.6
					C248.3,194.7,248.3,194.7,248.3,194.6L248.3,194.6z"/>
			</g>
		</g>
		<g>
			<g>
				<path class="st0" d="M249.2,193.8c-0.7-0.7-1.3-1.5-2.1-2.2c0,0-0.1,0-0.1,0.1C247.7,192.5,248.4,193.2,249.2,193.8
					C249.2,193.9,249.2,193.9,249.2,193.8L249.2,193.8z"/>
			</g>
		</g>
		<g>
			<g>
				<path class="st0" d="M250.1,193c-0.7-0.7-1.4-1.4-2.2-2c0,0-0.1,0-0.1,0.1C248.4,191.7,249.3,192.4,250.1,193
					C250,193.1,250.1,193,250.1,193L250.1,193z"/>
			</g>
		</g>
		<g>
			<g>
				<path class="st0" d="M250.9,192.1c-0.8-0.6-1.5-1.4-2.4-1.9c0,0-0.1,0-0.1,0.1C249.2,190.9,250,191.5,250.9,192.1
					C250.8,192.2,250.9,192.1,250.9,192.1L250.9,192.1z"/>
			</g>
		</g>
		<g>
			<g>
				<path class="st0" d="M251.6,191.1c-0.8-0.6-1.6-1.2-2.5-1.7c0,0-0.1,0-0.1,0.1C249.8,190.1,250.7,190.6,251.6,191.1
					C251.6,191.2,251.6,191.1,251.6,191.1L251.6,191.1z"/>
			</g>
		</g>
		<g>
			<g>
				<path class="st0" d="M252.3,190.1c-0.8-0.5-1.7-1.1-2.6-1.6c-0.1,0-0.1,0,0,0.1C250.4,189.2,251.4,189.7,252.3,190.1
					C252.3,190.2,252.3,190.1,252.3,190.1L252.3,190.1z"/>
			</g>
		</g>
		<g>
			<g>
				<path class="st0" d="M252.9,189.1c-0.9-0.5-1.8-1-2.7-1.4c0,0-0.1,0.1,0,0.1C251,188.3,251.9,188.7,252.9,189.1
					C252.9,189.2,252.9,189.1,252.9,189.1L252.9,189.1z"/>
			</g>
		</g>
		<g>
			<g>
				<path class="st0" d="M253.4,188c-0.9-0.4-1.8-0.9-2.8-1.2c0,0-0.1,0.1,0,0.1C251.4,187.3,252.4,187.7,253.4,188
					C253.4,188.1,253.4,188,253.4,188L253.4,188z"/>
			</g>
		</g>
		<g>
			<g>
				<path class="st0" d="M253.8,186.9c-0.9-0.4-1.9-0.8-2.9-1c0,0-0.1,0.1,0,0.1C251.9,186.4,252.9,186.6,253.8,186.9
					C253.9,187,253.9,186.9,253.8,186.9L253.8,186.9z"/>
			</g>
		</g>
		<g>
			<g>
				<path class="st0" d="M254.2,185.7c-1-0.3-1.9-0.7-2.9-0.8c-0.1,0-0.1,0.1,0,0.1C252.2,185.3,253.2,185.5,254.2,185.7
					C254.3,185.8,254.3,185.7,254.2,185.7L254.2,185.7z"/>
			</g>
		</g>
		<g>
			<g>
				<path class="st0" d="M254.5,184.6c-1-0.2-2-0.5-3-0.6c-0.1,0-0.1,0.1,0,0.1C252.5,184.3,253.5,184.4,254.5,184.6
					C254.6,184.7,254.6,184.6,254.5,184.6L254.5,184.6z"/>
			</g>
		</g>
		<g>
			<g>
				<path class="st0" d="M254.8,183.4c-1-0.2-2-0.4-3-0.4c0,0-0.1,0.1,0,0.1C252.7,183.3,253.7,183.3,254.8,183.4
					C254.8,183.5,254.8,183.4,254.8,183.4L254.8,183.4z"/>
			</g>
		</g>
		<g>
			<g>
				<path class="st0" d="M254.9,182.2c-1-0.1-2-0.3-3-0.2c0,0-0.1,0.1,0,0.1C252.8,182.2,253.9,182.2,254.9,182.2
					C254.9,182.3,254.9,182.2,254.9,182.2L254.9,182.2z"/>
			</g>
		</g>
		<g>
			<g>
				<path class="st0" d="M254.9,181c-1,0-2-0.1-3,0c-0.1,0-0.1,0.1,0,0.1C252.9,181.1,253.9,181.1,254.9,181
					C255,181.1,255,181,254.9,181L254.9,181z"/>
			</g>
		</g>
		<g>
			<g>
				<path class="st0" d="M254.9,179.8c-1,0-2.1,0-3,0.2c-0.1,0,0,0.1,0,0.1C252.9,180.1,253.9,179.9,254.9,179.8
					C255,179.9,255,179.8,254.9,179.8L254.9,179.8z"/>
			</g>
		</g>
		<g>
			<g>
				<path class="st0" d="M254.8,178.6c-1,0.1-2,0.1-3,0.4c0,0,0,0.1,0,0.1C252.8,179,253.8,178.8,254.8,178.6
					C254.9,178.7,254.9,178.6,254.8,178.6L254.8,178.6z"/>
			</g>
		</g>
		<g>
			<g>
				<path class="st0" d="M254.6,177.4c-1,0.2-2,0.3-3,0.6c0,0,0,0.1,0,0.1C252.7,178,253.7,177.7,254.6,177.4
					C254.7,177.5,254.7,177.4,254.6,177.4L254.6,177.4z"/>
			</g>
		</g>
		<g>
			<g>
				<path class="st0" d="M254.4,176.2c-1,0.2-2,0.4-2.9,0.7c-0.1,0,0,0.1,0,0.1C252.5,176.9,253.4,176.6,254.4,176.2
					C254.5,176.3,254.4,176.2,254.4,176.2L254.4,176.2z"/>
			</g>
		</g>
		<g>
			<g>
				<path class="st0" d="M254,175.1c-1,0.3-2,0.5-2.9,0.9c0,0,0,0.1,0,0.1C252.2,175.9,253.1,175.5,254,175.1
					C254.1,175.1,254.1,175.1,254,175.1L254,175.1z"/>
			</g>
		</g>
		<g>
			<g>
				<path class="st0" d="M253.6,173.9c-0.9,0.4-1.9,0.7-2.8,1.1c0,0,0,0.1,0,0.1C251.8,174.9,252.7,174.4,253.6,173.9
					C253.7,174,253.7,173.9,253.6,173.9L253.6,173.9z"/>
			</g>
		</g>
		<g>
			<g>
				<path class="st0" d="M253.1,172.8c-0.9,0.4-1.9,0.8-2.7,1.3c0,0,0,0.1,0,0.1C251.4,173.9,252.3,173.4,253.1,172.8
					C253.2,172.9,253.2,172.8,253.1,172.8L253.1,172.8z"/>
			</g>
		</g>
		<g>
			<g>
				<path class="st0" d="M252.6,171.8c-0.9,0.5-1.8,0.9-2.6,1.5c0,0,0,0.1,0,0.1C250.9,172.9,251.8,172.4,252.6,171.8
					C252.7,171.8,252.6,171.7,252.6,171.8L252.6,171.8z"/>
			</g>
		</g>
		<g>
			<g>
				<path class="st0" d="M251.9,170.7c-0.8,0.5-1.8,1-2.5,1.7c0,0,0,0.1,0.1,0.1C250.3,172,251.2,171.4,251.9,170.7
					C252,170.8,252,170.7,251.9,170.7L251.9,170.7z"/>
			</g>
		</g>
		<g>
			<g>
				<path class="st0" d="M251.2,169.8c-0.8,0.6-1.7,1.1-2.4,1.8c0,0,0,0.1,0.1,0.1C249.7,171.1,250.5,170.4,251.2,169.8
					C251.3,169.8,251.3,169.7,251.2,169.8L251.2,169.8z"/>
			</g>
		</g>
		<g>
			<g>
				<path class="st0" d="M250.5,168.8c-0.8,0.6-1.6,1.2-2.3,2c0,0,0,0.1,0.1,0.1C249,170.3,249.8,169.6,250.5,168.8
					C250.6,168.9,250.5,168.8,250.5,168.8L250.5,168.8z"/>
			</g>
		</g>
		<g>
			<g>
				<path class="st0" d="M249.6,168c-0.7,0.7-1.5,1.3-2.2,2.1c0,0,0,0.1,0.1,0.1C248.3,169.5,249,168.7,249.6,168
					C249.7,168,249.7,167.9,249.6,168L249.6,168z"/>
			</g>
		</g>
		<g>
			<g>
				<path class="st0" d="M248.8,167.1c-0.7,0.7-1.4,1.4-2,2.3c0,0,0,0.1,0.1,0.1C247.5,168.8,248.2,167.9,248.8,167.1
					C248.9,167.1,248.8,167.1,248.8,167.1L248.8,167.1z"/>
			</g>
		</g>
		<g>
			<g>
				<path class="st0" d="M247.8,166.4c-0.6,0.8-1.3,1.5-1.9,2.4c0,0,0,0.1,0.1,0.1C246.7,168.1,247.3,167.2,247.8,166.4
					C247.9,166.4,247.8,166.3,247.8,166.4L247.8,166.4z"/>
			</g>
		</g>
		<g>
			<g>
				<path class="st0" d="M246.8,165.7c-0.6,0.8-1.2,1.6-1.7,2.5c0,0,0,0.1,0.1,0.1C245.8,167.5,246.3,166.6,246.8,165.7
					C246.9,165.7,246.9,165.6,246.8,165.7L246.8,165.7z"/>
			</g>
		</g>
		<g>
			<g>
				<path class="st0" d="M245.8,165c-0.5,0.9-1.1,1.7-1.5,2.6c0,0.1,0,0.1,0.1,0C244.9,166.9,245.4,165.9,245.8,165
					C245.9,165,245.8,165,245.8,165L245.8,165z"/>
			</g>
		</g>
		<g>
			<g>
				<path class="st0" d="M244.7,164.5c-0.5,0.9-1,1.8-1.3,2.7c0,0,0.1,0.1,0.1,0C244,166.4,244.4,165.4,244.7,164.5
					C244.8,164.5,244.7,164.4,244.7,164.5L244.7,164.5z"/>
			</g>
		</g>
		<g>
			<g>
				<path class="st0" d="M243.6,164c-0.4,0.9-0.9,1.8-1.2,2.8c0,0,0.1,0.1,0.1,0C243,165.9,243.3,164.9,243.6,164
					C243.7,164,243.6,163.9,243.6,164L243.6,164z"/>
			</g>
		</g>
		<g>
			<g>
				<path class="st0" d="M242.5,163.6c-0.3,0.9-0.7,1.9-1,2.8c0,0,0.1,0.1,0.1,0C242,165.5,242.2,164.5,242.5,163.6
					C242.6,163.5,242.5,163.5,242.5,163.6L242.5,163.6z"/>
			</g>
		</g>
		<g>
			<g>
				<path class="st0" d="M241.3,163.2c-0.3,1-0.6,1.9-0.8,2.9c0,0.1,0.1,0.1,0.1,0C241,165.2,241.1,164.2,241.3,163.2
					C241.4,163.2,241.3,163.2,241.3,163.2L241.3,163.2z"/>
			</g>
		</g>
		<g>
			<g>
				<path class="st0" d="M240.1,162.9c-0.2,1-0.5,2-0.6,3c0,0.1,0.1,0.1,0.1,0C239.9,165,240,163.9,240.1,162.9
					C240.2,162.9,240.1,162.9,240.1,162.9L240.1,162.9z"/>
			</g>
		</g>
		<g>
			<g>
				<path class="st0" d="M238.9,162.8c-0.1,1-0.4,2-0.4,3c0,0,0.1,0.1,0.1,0C238.8,164.8,238.9,163.8,238.9,162.8
					C239,162.7,238.9,162.7,238.9,162.8L238.9,162.8z"/>
			</g>
		</g>
		<g>
			<g>
				<path class="st0" d="M237.7,162.7c-0.1,1-0.2,2-0.2,3c0,0,0.1,0.1,0.1,0C237.8,164.7,237.7,163.6,237.7,162.7
					C237.8,162.6,237.7,162.6,237.7,162.7L237.7,162.7z"/>
			</g>
		</g>
		<g>
			<g>
				<path class="st0" d="M236.5,162.6c0,1-0.1,2,0,3c0,0.1,0.1,0.1,0.1,0C236.7,164.6,236.6,163.6,236.5,162.6
					C236.6,162.6,236.5,162.6,236.5,162.6L236.5,162.6z"/>
			</g>
		</g>
		<g>
			<g>
				<path class="st0" d="M235.3,162.7c0.1,1,0.1,2,0.2,3c0,0.1,0.1,0,0.1,0C235.6,164.7,235.4,163.7,235.3,162.7
					C235.3,162.6,235.3,162.6,235.3,162.7L235.3,162.7z"/>
			</g>
		</g>
		<g>
			<g>
				<path class="st0" d="M234,162.8c0.1,1,0.2,2,0.4,3c0,0,0.1,0,0.1,0C234.5,164.8,234.3,163.8,234,162.8
					C234.1,162.7,234,162.7,234,162.8L234,162.8z"/>
			</g>
		</g>
		<g>
			<g>
				<path class="st0" d="M232.8,163c0.2,1,0.3,2,0.6,2.9c0,0,0.1,0,0.1,0C233.5,164.9,233.2,164,232.8,163
					C232.9,162.9,232.8,163,232.8,163L232.8,163z"/>
			</g>
		</g>
		<g>
			<g>
				<path class="st0" d="M231.7,163.3c0.3,1,0.5,2,0.8,2.9c0,0.1,0.1,0,0.1,0C232.4,165.2,232,164.2,231.7,163.3
					C231.7,163.2,231.6,163.2,231.7,163.3L231.7,163.3z"/>
			</g>
		</g>
		<g>
			<g>
				<path class="st0" d="M230.5,163.7c0.3,0.9,0.6,1.9,1,2.8c0,0,0.1,0,0.1,0C231.4,165.5,230.9,164.6,230.5,163.7
					C230.6,163.6,230.5,163.6,230.5,163.7L230.5,163.7z"/>
			</g>
		</g>
		<g>
			<g>
				<path class="st0" d="M229.4,164.1c0.4,0.9,0.7,1.9,1.2,2.8c0,0,0.1,0,0.1,0C230.4,165.9,229.9,165,229.4,164.1
					C229.4,164,229.4,164.1,229.4,164.1L229.4,164.1z"/>
			</g>
		</g>
		<g>
			<g>
				<path class="st0" d="M228.3,164.6c0.4,0.9,0.8,1.8,1.4,2.7c0,0,0.1,0,0.1,0C229.4,166.3,228.8,165.5,228.3,164.6
					C228.3,164.5,228.2,164.6,228.3,164.6L228.3,164.6z"/>
			</g>
		</g>
		<g>
			<g>
				<path class="st0" d="M227.2,165.2c0.5,0.9,1,1.8,1.6,2.6c0,0,0.1,0,0.1,0C228.4,166.8,227.8,166,227.2,165.2
					C227.3,165.1,227.2,165.2,227.2,165.2L227.2,165.2z"/>
			</g>
		</g>
		<g>
			<g>
				<path class="st0" d="M226.2,165.9c0.6,0.8,1.1,1.7,1.7,2.5c0,0,0.1,0,0.1-0.1C227.5,167.4,226.8,166.6,226.2,165.9
					C226.2,165.8,226.2,165.8,226.2,165.9L226.2,165.9z"/>
			</g>
		</g>
		<g>
			<g>
				<path class="st0" d="M225.2,166.6c0.6,0.8,1.2,1.6,1.9,2.3c0,0,0.1,0,0.1-0.1C226.6,168,225.9,167.3,225.2,166.6
					C225.2,166.5,225.2,166.5,225.2,166.6L225.2,166.6z"/>
			</g>
		</g>
		<g>
			<g>
				<path class="st0" d="M224.3,167.4c0.7,0.7,1.3,1.6,2.1,2.2c0,0,0.1,0,0.1-0.1C225.8,168.7,225,168,224.3,167.4
					C224.3,167.3,224.2,167.3,224.3,167.4L224.3,167.4z"/>
			</g>
		</g>
		<g>
			<g>
				<path class="st0" d="M223.4,168.2c0.7,0.7,1.4,1.5,2.2,2.1c0,0,0.1,0,0.1-0.1C225,169.4,224.2,168.8,223.4,168.2
					C223.4,168.1,223.4,168.2,223.4,168.2L223.4,168.2z"/>
			</g>
		</g>
		<g>
			<g>
				<path class="st0" d="M222.6,169.1c0.8,0.6,1.5,1.4,2.3,1.9c0,0,0.1,0,0.1-0.1C224.3,170.2,223.4,169.7,222.6,169.1
					C222.6,169,222.6,169.1,222.6,169.1L222.6,169.1z"/>
			</g>
		</g>
		<g>
			<g>
				<path class="st0" d="M221.9,170c0.8,0.6,1.6,1.3,2.5,1.8c0,0,0.1,0,0.1-0.1C223.6,171.1,222.7,170.5,221.9,170
					C221.9,169.9,221.8,170,221.9,170L221.9,170z"/>
			</g>
		</g>
		<g>
			<g>
				<path class="st0" d="M221.2,171c0.8,0.5,1.7,1.2,2.6,1.6c0,0,0.1,0,0.1-0.1C223,171.9,222.1,171.5,221.2,171
					C221.2,170.9,221.1,171,221.2,171L221.2,171z"/>
			</g>
		</g>
		<g>
			<g>
				<path class="st0" d="M220.6,172.1c0.9,0.5,1.8,1.1,2.7,1.4c0,0,0.1-0.1,0-0.1C222.4,172.9,221.5,172.5,220.6,172.1
					C220.5,172,220.5,172,220.6,172.1L220.6,172.1z"/>
			</g>
		</g>
		<g>
			<g>
				<path class="st0" d="M220,173.1c0.9,0.4,1.8,0.9,2.8,1.3c0,0,0.1-0.1,0-0.1C221.9,173.8,221,173.5,220,173.1
					C220,173,220,173.1,220,173.1L220,173.1z"/>
			</g>
		</g>
		<g>
			<g>
				<path class="st0" d="M219.5,174.3c0.9,0.4,1.9,0.8,2.8,1.1c0,0,0.1-0.1,0-0.1C221.5,174.8,220.5,174.5,219.5,174.3
					C219.5,174.2,219.5,174.2,219.5,174.3L219.5,174.3z"/>
			</g>
		</g>
		<g>
			<g>
				<path class="st0" d="M219.1,175.4c1,0.3,1.9,0.7,2.9,0.9c0.1,0,0.1-0.1,0-0.1C221.1,175.8,220.1,175.6,219.1,175.4
					C219.1,175.3,219.1,175.4,219.1,175.4L219.1,175.4z"/>
			</g>
		</g>
		<g>
			<g>
				<path class="st0" d="M218.8,176.5c1,0.2,2,0.6,3,0.7c0.1,0,0.1-0.1,0-0.1C220.9,176.8,219.8,176.7,218.8,176.5
					C218.8,176.5,218.8,176.5,218.8,176.5L218.8,176.5z"/>
			</g>
		</g>
		<g>
			<g>
				<path class="st0" d="M218.6,177.7c1,0.2,2,0.4,3,0.5c0.1,0,0.1-0.1,0-0.1C220.6,177.9,219.6,177.8,218.6,177.7
					C218.5,177.6,218.5,177.7,218.6,177.7L218.6,177.7z"/>
			</g>
		</g>
		<g>
			<g>
				<path class="st0" d="M218.4,178.9c1,0.1,2,0.3,3,0.3c0,0,0.1-0.1,0-0.1C220.5,178.9,219.4,178.9,218.4,178.9
					C218.4,178.8,218.4,178.9,218.4,178.9L218.4,178.9z"/>
			</g>
		</g>
	</g>
	<g>
		<g>
			<g>
				<path class="st0" d="M64.8,224.7c0-1.9-1.3-3.3-3.5-3.5c-1.9-0.1-3.5,1.6-3.5,3.5c0,1.9,1.6,3.7,3.5,3.5
					C63.2,228,64.8,226.6,64.8,224.7z"/>
			</g>
			<g>
				<path class="st0" d="M77.6,224.7c0-1.9-1.3-3.3-3.5-3.5c-1.9-0.1-3.5,1.6-3.5,3.5c0,1.9,1.6,3.7,3.5,3.5
					C76,228,77.6,226.6,77.6,224.7z"/>
			</g>
			<g>
				<path class="st0" d="M90.4,224.7c0-1.9-1.3-3.3-3.5-3.5c-1.9-0.1-3.5,1.6-3.5,3.5c0,1.9,1.6,3.7,3.5,3.5
					C88.8,228,90.4,226.6,90.4,224.7z"/>
			</g>
			<g>
				<path class="st0" d="M103.2,224.7c0-1.9-1.3-3.3-3.5-3.5c-1.9-0.1-3.5,1.6-3.5,3.5c0,1.9,1.6,3.7,3.5,3.5
					C101.6,228,103.2,226.6,103.2,224.7z"/>
			</g>
			<g>
				<path class="st0" d="M116,224.7c0-1.9-1.3-3.3-3.5-3.5c-1.9-0.1-3.5,1.6-3.5,3.5c0,1.9,1.6,3.7,3.5,3.5
					C114.4,228,116,226.6,116,224.7z"/>
			</g>
			<g>
				<path class="st0" d="M128.7,224.7c0-1.9-1.3-3.3-3.5-3.5c-1.9-0.1-3.5,1.6-3.5,3.5c0,1.9,1.6,3.7,3.5,3.5
					C127.2,228,128.7,226.6,128.7,224.7z"/>
			</g>
			<g>
				<path class="st0" d="M141.5,224.7c0-1.9-1.3-3.3-3.5-3.5c-1.9-0.1-3.5,1.6-3.5,3.5c0,1.9,1.6,3.7,3.5,3.5
					C139.9,228,141.5,226.6,141.5,224.7z"/>
			</g>
			<g>
				<path class="st0" d="M154.3,224.7c0-1.9-1.3-3.3-3.5-3.5c-1.9-0.1-3.5,1.6-3.5,3.5c0,1.9,1.6,3.7,3.5,3.5
					C152.7,228,154.3,226.6,154.3,224.7z"/>
			</g>
			<g>
				<path class="st0" d="M167.1,224.7c0-1.9-1.3-3.3-3.5-3.5c-1.9-0.1-3.5,1.6-3.5,3.5c0,1.9,1.6,3.7,3.5,3.5
					C165.5,228,167.1,226.6,167.1,224.7z"/>
			</g>
			<g>
				<path class="st0" d="M179.9,224.7c0-1.9-1.3-3.3-3.5-3.5c-1.9-0.1-3.5,1.6-3.5,3.5c0,1.9,1.6,3.7,3.5,3.5
					C178.3,228,179.9,226.6,179.9,224.7z"/>
			</g>
			<g>
				<path class="st0" d="M192.6,224.7c0-1.9-1.3-3.3-3.5-3.5c-1.9-0.1-3.5,1.6-3.5,3.5c0,1.9,1.6,3.7,3.5,3.5
					C191.1,228,192.6,226.6,192.6,224.7z"/>
			</g>
			<g>
				<path class="st0" d="M205.4,224.7c0-1.9-1.3-3.3-3.5-3.5c-1.9-0.1-3.5,1.6-3.5,3.5c0,1.9,1.6,3.7,3.5,3.5
					C203.9,228,205.4,226.6,205.4,224.7z"/>
			</g>
			<g>
				<path class="st0" d="M218.2,224.7c0-1.9-1.3-3.3-3.5-3.5c-1.9-0.1-3.5,1.6-3.5,3.5c0,1.9,1.6,3.7,3.5,3.5
					C216.6,228,218.2,226.6,218.2,224.7z"/>
			</g>
		</g>
		<g>
			<g>
				<path class="st0" d="M64,237.2c0-1.5-1-2.5-2.6-2.6c-1.5-0.1-2.6,1.2-2.6,2.6s1.2,2.8,2.6,2.6C62.8,239.7,64,238.6,64,237.2z"/>
			</g>
			<g>
				<path class="st0" d="M76.7,237.2c0-1.5-1-2.5-2.6-2.6c-1.5-0.1-2.6,1.2-2.6,2.6s1.2,2.8,2.6,2.6
					C75.6,239.7,76.7,238.6,76.7,237.2z"/>
			</g>
			<g>
				<path class="st0" d="M89.5,237.2c0-1.5-1-2.5-2.6-2.6c-1.5-0.1-2.6,1.2-2.6,2.6s1.2,2.8,2.6,2.6
					C88.3,239.7,89.5,238.6,89.5,237.2z"/>
			</g>
			<g>
				<path class="st0" d="M102.3,237.2c0-1.5-1-2.5-2.6-2.6c-1.5-0.1-2.6,1.2-2.6,2.6s1.2,2.8,2.6,2.6
					C101.1,239.7,102.3,238.6,102.3,237.2z"/>
			</g>
			<g>
				<path class="st0" d="M115.1,237.2c0-1.5-1-2.5-2.6-2.6c-1.5-0.1-2.6,1.2-2.6,2.6s1.2,2.8,2.6,2.6
					C113.9,239.7,115.1,238.6,115.1,237.2z"/>
			</g>
			<g>
				<path class="st0" d="M127.9,237.2c0-1.5-1-2.5-2.6-2.6c-1.5-0.1-2.6,1.2-2.6,2.6s1.2,2.8,2.6,2.6
					C126.7,239.7,127.9,238.6,127.9,237.2z"/>
			</g>
			<g>
				<path class="st0" d="M140.7,237.2c0-1.5-1-2.5-2.6-2.6c-1.5-0.1-2.6,1.2-2.6,2.6s1.2,2.8,2.6,2.6
					C139.5,239.7,140.7,238.6,140.7,237.2z"/>
			</g>
			<g>
				<path class="st0" d="M153.4,237.2c0-1.5-1-2.5-2.6-2.6c-1.5-0.1-2.6,1.2-2.6,2.6s1.2,2.8,2.6,2.6
					C152.3,239.7,153.4,238.6,153.4,237.2z"/>
			</g>
			<g>
				<path class="st0" d="M166.2,237.2c0-1.5-1-2.5-2.6-2.6c-1.5-0.1-2.6,1.2-2.6,2.6s1.2,2.8,2.6,2.6
					C165,239.7,166.2,238.6,166.2,237.2z"/>
			</g>
			<g>
				<path class="st0" d="M179,237.2c0-1.5-1-2.5-2.6-2.6c-1.5-0.1-2.6,1.2-2.6,2.6s1.2,2.8,2.6,2.6C177.8,239.7,179,238.6,179,237.2
					z"/>
			</g>
			<g>
				<path class="st0" d="M191.8,237.2c0-1.5-1-2.5-2.6-2.6c-1.5-0.1-2.6,1.2-2.6,2.6s1.2,2.8,2.6,2.6
					C190.6,239.7,191.8,238.6,191.8,237.2z"/>
			</g>
			<g>
				<path class="st0" d="M204.6,237.2c0-1.5-1-2.5-2.6-2.6c-1.5-0.1-2.6,1.2-2.6,2.6s1.2,2.8,2.6,2.6
					C203.4,239.7,204.6,238.6,204.6,237.2z"/>
			</g>
			<g>
				<path class="st0" d="M217.4,237.2c0-1.5-1-2.5-2.6-2.6c-1.5-0.1-2.6,1.2-2.6,2.6s1.2,2.8,2.6,2.6
					C216.2,239.7,217.4,238.6,217.4,237.2z"/>
			</g>
		</g>
		<g>
			<path class="st0" d="M63.4,249.2c0-1.1-0.8-1.9-2-2c-1.1-0.1-2,0.9-2,2c0,1.1,0.9,2.1,2,2C62.4,251.2,63.4,250.4,63.4,249.2z"/>
		</g>
		<g>
			<path class="st0" d="M76.1,249.2c0-1.1-0.8-1.9-2-2c-1.1-0.1-2,0.9-2,2c0,1.1,0.9,2.1,2,2C75.2,251.2,76.1,250.4,76.1,249.2z"/>
		</g>
		<g>
			<path class="st0" d="M88.9,249.2c0-1.1-0.8-1.9-2-2c-1.1-0.1-2,0.9-2,2c0,1.1,0.9,2.1,2,2C88,251.2,88.9,250.4,88.9,249.2z"/>
		</g>
		<g>
			<path class="st0" d="M101.7,249.2c0-1.1-0.8-1.9-2-2c-1.1-0.1-2,0.9-2,2c0,1.1,0.9,2.1,2,2C100.8,251.2,101.7,250.4,101.7,249.2z
				"/>
		</g>
		<g>
			<path class="st0" d="M114.5,249.2c0-1.1-0.8-1.9-2-2c-1.1-0.1-2,0.9-2,2c0,1.1,0.9,2.1,2,2C113.6,251.2,114.5,250.4,114.5,249.2z
				"/>
		</g>
		<g>
			<path class="st0" d="M127.3,249.2c0-1.1-0.8-1.9-2-2c-1.1-0.1-2,0.9-2,2c0,1.1,0.9,2.1,2,2C126.4,251.2,127.3,250.4,127.3,249.2z
				"/>
		</g>
		<g>
			<path class="st0" d="M140.1,249.2c0-1.1-0.8-1.9-2-2c-1.1-0.1-2,0.9-2,2c0,1.1,0.9,2.1,2,2C139.1,251.2,140.1,250.4,140.1,249.2z
				"/>
		</g>
		<g>
			<path class="st0" d="M152.8,249.2c0-1.1-0.8-1.9-2-2c-1.1-0.1-2,0.9-2,2c0,1.1,0.9,2.1,2,2C151.9,251.2,152.8,250.4,152.8,249.2z
				"/>
		</g>
		<g>
			<path class="st0" d="M165.6,249.2c0-1.1-0.8-1.9-2-2c-1.1-0.1-2,0.9-2,2c0,1.1,0.9,2.1,2,2C164.7,251.2,165.6,250.4,165.6,249.2z
				"/>
		</g>
		<g>
			<path class="st0" d="M178.4,249.2c0-1.1-0.8-1.9-2-2c-1.1-0.1-2,0.9-2,2c0,1.1,0.9,2.1,2,2C177.5,251.2,178.4,250.4,178.4,249.2z
				"/>
		</g>
		<g>
			<path class="st0" d="M191.2,249.2c0-1.1-0.8-1.9-2-2c-1.1-0.1-2,0.9-2,2c0,1.1,0.9,2.1,2,2C190.3,251.2,191.2,250.4,191.2,249.2z
				"/>
		</g>
		<g>
			<path class="st0" d="M204,249.2c0-1.1-0.8-1.9-2-2c-1.1-0.1-2,0.9-2,2c0,1.1,0.9,2.1,2,2C203,251.2,204,250.4,204,249.2z"/>
		</g>
		<g>
			<path class="st0" d="M216.7,249.2c0-1.1-0.8-1.9-2-2c-1.1-0.1-2,0.9-2,2c0,1.1,0.9,2.1,2,2C215.8,251.2,216.7,250.4,216.7,249.2z
				"/>
		</g>
		<g>
			<path class="st0" d="M62.9,259.8c0-0.9-0.6-1.5-1.6-1.6c-0.9-0.1-1.6,0.7-1.6,1.6c0,0.9,0.7,1.6,1.6,1.6
				C62.2,261.3,62.9,260.6,62.9,259.8z"/>
		</g>
		<g>
			<path class="st0" d="M75.7,259.8c0-0.9-0.6-1.5-1.6-1.6c-0.9-0.1-1.6,0.7-1.6,1.6c0,0.9,0.7,1.6,1.6,1.6
				C75,261.3,75.7,260.6,75.7,259.8z"/>
		</g>
		<g>
			<path class="st0" d="M88.5,259.8c0-0.9-0.6-1.5-1.6-1.6c-0.9-0.1-1.6,0.7-1.6,1.6c0,0.9,0.7,1.6,1.6,1.6
				C87.7,261.3,88.5,260.6,88.5,259.8z"/>
		</g>
		<g>
			<path class="st0" d="M101.2,259.8c0-0.9-0.6-1.5-1.6-1.6c-0.9-0.1-1.6,0.7-1.6,1.6c0,0.9,0.7,1.6,1.6,1.6
				C100.5,261.3,101.2,260.6,101.2,259.8z"/>
		</g>
		<g>
			<path class="st0" d="M114,259.8c0-0.9-0.6-1.5-1.6-1.6c-0.9-0.1-1.6,0.7-1.6,1.6c0,0.9,0.7,1.6,1.6,1.6
				C113.3,261.3,114,260.6,114,259.8z"/>
		</g>
		<g>
			<path class="st0" d="M126.8,259.8c0-0.9-0.6-1.5-1.6-1.6c-0.9-0.1-1.6,0.7-1.6,1.6c0,0.9,0.7,1.6,1.6,1.6
				C126.1,261.3,126.8,260.6,126.8,259.8z"/>
		</g>
		<g>
			<path class="st0" d="M139.6,259.8c0-0.9-0.6-1.5-1.6-1.6c-0.9-0.1-1.6,0.7-1.6,1.6c0,0.9,0.7,1.6,1.6,1.6
				C138.9,261.3,139.6,260.6,139.6,259.8z"/>
		</g>
		<g>
			<path class="st0" d="M152.4,259.8c0-0.9-0.6-1.5-1.6-1.6c-0.9-0.1-1.6,0.7-1.6,1.6c0,0.9,0.7,1.6,1.6,1.6
				C151.7,261.3,152.4,260.6,152.4,259.8z"/>
		</g>
		<g>
			<path class="st0" d="M165.1,259.8c0-0.9-0.6-1.5-1.6-1.6c-0.9-0.1-1.6,0.7-1.6,1.6c0,0.9,0.7,1.6,1.6,1.6
				C164.4,261.3,165.1,260.6,165.1,259.8z"/>
		</g>
		<g>
			<path class="st0" d="M177.9,259.8c0-0.9-0.6-1.5-1.6-1.6c-0.9-0.1-1.6,0.7-1.6,1.6c0,0.9,0.7,1.6,1.6,1.6
				C177.2,261.3,177.9,260.6,177.9,259.8z"/>
		</g>
		<g>
			<path class="st0" d="M190.7,259.8c0-0.9-0.6-1.5-1.6-1.6c-0.9-0.1-1.6,0.7-1.6,1.6c0,0.9,0.7,1.6,1.6,1.6
				C190,261.3,190.7,260.6,190.7,259.8z"/>
		</g>
		<g>
			<path class="st0" d="M203.5,259.8c0-0.9-0.6-1.5-1.6-1.6c-0.9-0.1-1.6,0.7-1.6,1.6c0,0.9,0.7,1.6,1.6,1.6
				C202.8,261.3,203.5,260.6,203.5,259.8z"/>
		</g>
		<g>
			<path class="st0" d="M216.3,259.8c0-0.9-0.6-1.5-1.6-1.6c-0.9-0.1-1.6,0.7-1.6,1.6c0,0.9,0.7,1.6,1.6,1.6
				C215.6,261.3,216.3,260.6,216.3,259.8z"/>
		</g>
		<g>
			<path class="st0" d="M62.5,269.1c0-0.6-0.4-1.1-1.1-1.1c-0.6,0-1.1,0.5-1.1,1.1c0,0.6,0.5,1.2,1.1,1.1
				C62,270.2,62.5,269.8,62.5,269.1z"/>
		</g>
		<g>
			<path class="st0" d="M75.3,269.1c0-0.6-0.4-1.1-1.1-1.1c-0.6,0-1.1,0.5-1.1,1.1c0,0.6,0.5,1.2,1.1,1.1
				C74.7,270.2,75.3,269.8,75.3,269.1z"/>
		</g>
		<g>
			<path class="st0" d="M88,269.1c0-0.6-0.4-1.1-1.1-1.1c-0.6,0-1.1,0.5-1.1,1.1c0,0.6,0.5,1.2,1.1,1.1
				C87.5,270.2,88,269.8,88,269.1z"/>
		</g>
		<g>
			<path class="st0" d="M100.8,269.1c0-0.6-0.4-1.1-1.1-1.1c-0.6,0-1.1,0.5-1.1,1.1c0,0.6,0.5,1.2,1.1,1.1
				C100.3,270.2,100.8,269.8,100.8,269.1z"/>
		</g>
		<g>
			<path class="st0" d="M113.6,269.1c0-0.6-0.4-1.1-1.1-1.1c-0.6,0-1.1,0.5-1.1,1.1c0,0.6,0.5,1.2,1.1,1.1
				C113.1,270.2,113.6,269.8,113.6,269.1z"/>
		</g>
		<g>
			<path class="st0" d="M126.4,269.1c0-0.6-0.4-1.1-1.1-1.1c-0.6,0-1.1,0.5-1.1,1.1c0,0.6,0.5,1.2,1.1,1.1
				C125.9,270.2,126.4,269.8,126.4,269.1z"/>
		</g>
		<g>
			<path class="st0" d="M139.2,269.1c0-0.6-0.4-1.1-1.1-1.1c-0.6,0-1.1,0.5-1.1,1.1c0,0.6,0.5,1.2,1.1,1.1
				C138.6,270.2,139.2,269.8,139.2,269.1z"/>
		</g>
		<g>
			<path class="st0" d="M151.9,269.1c0-0.6-0.4-1.1-1.1-1.1c-0.6,0-1.1,0.5-1.1,1.1c0,0.6,0.5,1.2,1.1,1.1
				C151.4,270.2,151.9,269.8,151.9,269.1z"/>
		</g>
		<g>
			<path class="st0" d="M164.7,269.1c0-0.6-0.4-1.1-1.1-1.1c-0.6,0-1.1,0.5-1.1,1.1c0,0.6,0.5,1.2,1.1,1.1
				C164.2,270.2,164.7,269.8,164.7,269.1z"/>
		</g>
		<g>
			<path class="st0" d="M177.5,269.1c0-0.6-0.4-1.1-1.1-1.1c-0.6,0-1.1,0.5-1.1,1.1c0,0.6,0.5,1.2,1.1,1.1
				C177,270.2,177.5,269.8,177.5,269.1z"/>
		</g>
		<g>
			<path class="st0" d="M190.3,269.1c0-0.6-0.4-1.1-1.1-1.1c-0.6,0-1.1,0.5-1.1,1.1c0,0.6,0.5,1.2,1.1,1.1
				C189.8,270.2,190.3,269.8,190.3,269.1z"/>
		</g>
		<g>
			<path class="st0" d="M203.1,269.1c0-0.6-0.4-1.1-1.1-1.1c-0.6,0-1.1,0.5-1.1,1.1c0,0.6,0.5,1.2,1.1,1.1
				C202.6,270.2,203.1,269.8,203.1,269.1z"/>
		</g>
		<g>
			<path class="st0" d="M215.9,269.1c0-0.6-0.4-1.1-1.1-1.1c-0.6,0-1.1,0.5-1.1,1.1c0,0.6,0.5,1.2,1.1,1.1
				C215.3,270.2,215.9,269.8,215.9,269.1z"/>
		</g>
	</g>
	<g>
		<g>
			<path class="st0" d="M50.2,209.5c-0.6,0.6-1,2.9,0.2,3c0.4,0,0.9,0,1.3-0.1c0.6,0,1.2-0.2,1.8-0.3c0.5,0,0.5-0.7,0-0.7
				c-0.8-0.1-1.7-0.2-2.5-0.2c-0.1,0-0.6,0-0.6,0.1c0.1,0,0.2,0.1,0.3,0.1c0-0.1,0-0.1,0-0.2c0-0.1,0-0.3,0-0.4c0-0.5-0.1-1-0.4-1.3
				C50.3,209.5,50.3,209.5,50.2,209.5L50.2,209.5z"/>
		</g>
	</g>
</g>
<g>
	<path d="M73.8,192.4c0.1,0,0.2,0.1,0.2,0.2c0.1,0.1,0.1,0.1,0.1,0.2s0,0.2,0,0.3c0,0.1,0,0.2-0.1,0.4s-0.2,0.2-0.3,0.3
		c0.1,0,0.2,0.1,0.3,0.2c0.1,0.1,0.1,0.2,0.1,0.4v0.2c0,0.1,0,0.2,0,0.2c0,0.1,0,0.1,0.1,0.2v0.1h-0.6c0-0.1,0-0.1,0-0.1
		c0-0.1,0-0.2,0-0.2l0-0.2c0-0.2,0-0.3-0.1-0.3s-0.2-0.1-0.3-0.1h-0.5v1h-0.5v-2.7h1.3C73.6,192.3,73.7,192.3,73.8,192.4z
		 M72.7,192.7v0.7h0.6c0.1,0,0.2,0,0.3,0c0.1-0.1,0.2-0.1,0.2-0.3c0-0.2-0.1-0.3-0.2-0.3c-0.1,0-0.1,0-0.3,0H72.7z"/>
	<path d="M76.7,192.8h-1.4v0.6h1.3v0.5h-1.3v0.7h1.5v0.5h-2v-2.7h1.9V192.8z"/>
	<path d="M77.2,192.3h1.9v0.5h-1.3v0.6H79v0.5h-1.2v1.1h-0.6V192.3z"/>
	<path d="M79.5,192.3H80v2.2h1.3v0.5h-1.9V192.3z"/>
	<path d="M83.7,192.8h-1.4v0.6h1.3v0.5h-1.3v0.7h1.5v0.5h-2v-2.7h1.9V192.8z"/>
	<path d="M84.6,194.9H84l0.9-1.4l-0.8-1.3h0.7l0.5,0.9l0.5-0.9h0.6l-0.8,1.3l0.9,1.4h-0.7l-0.5-0.9L84.6,194.9z"/>
	<path d="M87.1,194.9h-0.6v-2.7h0.6V194.9z"/>
	<path d="M89.7,194.7c-0.2,0.2-0.5,0.3-0.9,0.3s-0.7-0.1-0.9-0.3c-0.3-0.3-0.4-0.6-0.4-1.1c0-0.5,0.1-0.9,0.4-1.1
		c0.2-0.2,0.5-0.3,0.9-0.3s0.7,0.1,0.9,0.3c0.3,0.2,0.4,0.6,0.4,1.1C90.1,194.1,90,194.5,89.7,194.7z M89.4,194.3
		c0.1-0.2,0.2-0.4,0.2-0.7c0-0.3-0.1-0.5-0.2-0.7s-0.3-0.2-0.5-0.2c-0.2,0-0.4,0.1-0.5,0.2c-0.1,0.2-0.2,0.4-0.2,0.7
		c0,0.3,0.1,0.5,0.2,0.7c0.1,0.2,0.3,0.2,0.5,0.2C89.1,194.5,89.2,194.5,89.4,194.3z M89.5,191.5l-0.5,0.5h-0.4l0.3-0.5H89.5z"/>
	<path d="M90.5,192.3h0.6l1.1,1.8v-1.8h0.5v2.7h-0.6l-1.1-1.9v1.9h-0.5V192.3z"/>
</g>
<g>
	<path d="M193.1,192.3h0.6l0.9,2.7h-0.6l-0.2-0.5h-1l-0.2,0.5h-0.6L193.1,192.3z M193.1,193.9h0.7l-0.3-1L193.1,193.9z"/>
	<path d="M195.3,192.6c0.2-0.2,0.5-0.3,0.8-0.3c0.4,0,0.8,0.1,1,0.4c0.1,0.2,0.2,0.3,0.2,0.5h-0.6c0-0.1-0.1-0.2-0.1-0.3
		c-0.1-0.1-0.2-0.2-0.4-0.2c-0.2,0-0.4,0.1-0.5,0.2c-0.1,0.2-0.2,0.4-0.2,0.7s0.1,0.5,0.2,0.7c0.1,0.1,0.3,0.2,0.5,0.2
		c0.2,0,0.3-0.1,0.4-0.2c0.1-0.1,0.1-0.2,0.1-0.3h0.6c0,0.3-0.2,0.5-0.4,0.7c-0.2,0.2-0.4,0.3-0.8,0.3c-0.4,0-0.7-0.1-0.9-0.4
		c-0.2-0.2-0.3-0.6-0.3-1C194.9,193.2,195,192.8,195.3,192.6z"/>
	<path d="M197.9,192.6c0.2-0.2,0.5-0.3,0.8-0.3c0.4,0,0.8,0.1,1,0.4c0.1,0.2,0.2,0.3,0.2,0.5h-0.6c0-0.1-0.1-0.2-0.1-0.3
		c-0.1-0.1-0.2-0.2-0.4-0.2c-0.2,0-0.4,0.1-0.5,0.2c-0.1,0.2-0.2,0.4-0.2,0.7s0.1,0.5,0.2,0.7c0.1,0.1,0.3,0.2,0.5,0.2
		c0.2,0,0.3-0.1,0.4-0.2c0.1-0.1,0.1-0.2,0.1-0.3h0.6c0,0.3-0.2,0.5-0.4,0.7c-0.2,0.2-0.4,0.3-0.8,0.3c-0.4,0-0.7-0.1-0.9-0.4
		c-0.2-0.2-0.3-0.6-0.3-1C197.6,193.2,197.7,192.8,197.9,192.6z"/>
	<path d="M200.8,194.9h-0.6v-2.7h0.6V194.9z"/>
	<path d="M203.4,194.7c-0.2,0.2-0.5,0.3-0.9,0.3s-0.7-0.1-0.9-0.3c-0.3-0.3-0.4-0.6-0.4-1.1c0-0.5,0.1-0.9,0.4-1.1
		c0.2-0.2,0.5-0.3,0.9-0.3s0.7,0.1,0.9,0.3c0.3,0.2,0.4,0.6,0.4,1.1C203.8,194.1,203.7,194.5,203.4,194.7z M203,194.3
		c0.1-0.2,0.2-0.4,0.2-0.7c0-0.3-0.1-0.5-0.2-0.7s-0.3-0.2-0.5-0.2c-0.2,0-0.4,0.1-0.5,0.2c-0.1,0.2-0.2,0.4-0.2,0.7
		c0,0.3,0.1,0.5,0.2,0.7c0.1,0.2,0.3,0.2,0.5,0.2C202.7,194.5,202.9,194.5,203,194.3z M203.1,191.5l-0.5,0.5h-0.4l0.3-0.5H203.1z"/>
	<path d="M204.2,192.3h0.6l1.1,1.8v-1.8h0.5v2.7h-0.6l-1.1-1.9v1.9h-0.5V192.3z"/>
</g>
</svg>
