<?xml version="1.0" encoding="utf-8"?>
<!-- Generator: Adobe Illustrator 25.0.0, SVG Export Plug-In . SVG Version: 6.00 Build 0)  -->
<svg version="1.1" id="Layer_1" xmlns="http://www.w3.org/2000/svg" xmlns:xlink="http://www.w3.org/1999/xlink" x="0px" y="0px"
	 viewBox="0 0 792 612" style="enable-background:new 0 0 792 612;" xml:space="preserve">
<style type="text/css">
	.st0{display:none;}
	.st1{fill:#FFFFFF;}
	.st2{fill:#231F20;}
</style>
<g id="referencias" class="st0">
</g>
<g id="vector">
	<g>
		<path class="st1" d="M223.1,218.9c20-62.7,104.7-110.3,161.8-107.8c32.6,1.4,79.2,12,107.4,28.5c23.2,13.6,43.2,31.9,60,52.9
			c33.8,42.5,36.5,100.4,36.9,120c1,52.1-23.6,99.5-46.1,125.4c-30.9,35.5-88.2,75.9-197,59.2c-16.4-2.6-31.7-9.9-46.2-18
			c-43.5-24.2-76.2-66.7-89.7-114.6S201.7,263.9,223.1,218.9"/>
	</g>
	<g>
		<g>
			<g>
				<path class="st2" d="M277.8,234.9c6.2,0.6,12.4,0.8,18.6,0.4c5.2-0.3,10.4-0.8,15.7-0.8c4.3,0,8.7,0.2,13,0.5
					c1.8,0.2,1.8-2.7,0-2.7c-6.7-0.5-13.6-0.7-20.3-0.2c-5,0.4-10.1,1-15.1,1.2c-3.9,0.1-7.9,0-11.8-0.3
					C276.6,232.9,276.6,234.9,277.8,234.9L277.8,234.9z"/>
			</g>
		</g>
		<g>
			<g>
				<path class="st2" d="M324,234c9.5,3,19.8,2.6,29.6,1.7c10.2-1,20.3-2.6,30.6-3c5.6-0.3,11.2-0.1,16.7,0.9
					c1.8,0.4,2.6-2.5,0.8-2.7c-20.1-3.5-40.2,2.7-60.4,2.7c-5.6,0-11.1-0.5-16.5-1.6C323.2,231.6,322.7,233.5,324,234L324,234z"/>
			</g>
		</g>
		<g>
			<g>
				<path class="st2" d="M401.7,232.6c4.7,1.8,9.8,2.7,14.8,3.3c4.9,0.5,9.8,0.7,14.7,0.6c10-0.2,19.9-1.3,29.9-2
					c5.8-0.4,11.5-0.6,17.4-0.4c1.8,0.1,1.8-2.7,0-2.7c-19.8-0.5-39.7,3.9-59.5,2.1c-5.7-0.5-11.1-1.7-16.6-3
					C400.8,230.2,400.2,232.1,401.7,232.6L401.7,232.6z"/>
			</g>
		</g>
		<g>
			<g>
				<path class="st2" d="M477,232.9c3.1,1.5,6.5,2.2,9.8,2.8c2.5,0.4,5,0.6,7.5,0.6c4.4,0,8.8-0.5,13.2-0.4c3.4,0.2,6.6,0.7,9.9,1.5
					c1.6,0.4,2.3-2.1,0.7-2.5c-5.3-1.2-10.6-1.8-16-1.7c-4.4,0.1-8.9,0.4-13.4-0.2c-3.7-0.4-7.4-1.6-11.1-2.2
					C476.7,231,475.8,232.4,477,232.9L477,232.9z"/>
			</g>
		</g>
		<g>
			<g>
				<path class="st2" d="M277.5,307.5c1.8,0.5,3.8,0.6,5.6,0.7c1.8,0.1,3.6,0.1,5.4,0c3.4-0.1,6.8-0.4,10.2-0.9
					c3.2-0.4,6.4-0.9,9.5-1.2c3.2-0.4,6.7-0.8,9.9-0.5c1.7,0.2,1.7-2.8,0-2.7c-1.7,0.2-3.3,0.2-5,0.3c-1.6,0.2-3.2,0.4-4.8,0.5
					c-3.2,0.4-6.4,0.9-9.5,1.3c-3.3,0.4-6.6,0.8-10,1c-1.8,0.1-3.5,0.1-5.4,0.1c-1.9-0.1-3.9-0.4-5.8-0.2
					C276.8,305.8,276.6,307.1,277.5,307.5L277.5,307.5z"/>
			</g>
		</g>
		<g>
			<g>
				<path class="st2" d="M318.3,304.8c8.2,5.8,19.5,5,29.1,5c11.6,0,23.2-0.4,34.7-1.1c3.2-0.2,6.5-0.4,9.7-0.7
					c3.4-0.3,6.7-0.4,10-1c1.5-0.3,1.2-2.7-0.4-2.6c-2.8,0.1-5.7,0.4-8.6,0.7c-2.8,0.3-5.7,0.4-8.6,0.6c-5.6,0.4-11.2,0.6-16.7,0.9
					c-5.8,0.2-11.4,0.4-17.2,0.4c-5.1,0-10.4,0.1-15.6-0.2c-5.3-0.4-10.8-1.3-15.5-4C318.1,302.2,317,304,318.3,304.8L318.3,304.8z"
					/>
			</g>
		</g>
		<g>
			<g>
				<path class="st2" d="M400.1,306.4c4.6,1.4,9.3,1.9,14.1,2c4.8,0.2,9.5-0.1,14.3-0.4c9.7-0.7,19.2-2,28.9-2.4
					c5.5-0.2,10.8,0.1,16.3,0.6c1.5,0.1,1.9-2.4,0.4-2.6c-9.4-1.6-19.2-0.7-28.7,0.2c-9.6,0.9-19.1,2-28.8,2
					c-5.4,0-10.7-0.6-16.1-1.2C399.2,304.5,399.1,306.2,400.1,306.4L400.1,306.4z"/>
			</g>
		</g>
		<g>
			<g>
				<path class="st2" d="M471,304.9c0,2,3.5,2.5,5,2.7c3.1,0.5,6.4,0.9,9.5,1.1c7.1,0.5,14.2,0.7,21.4,1c1.4,0,2.9,0.2,4.3,0.1
					c0.5,0,1.1-0.1,1.6-0.1c0.3,0,0.5-0.1,0.8-0.1c0.3,0-0.3,0,0,0c0.1,0,0.2,0,0.3,0c1.4,0,1.3-2,0-2.2c-0.1,0-0.5-0.1-0.2,0
					c-0.2,0-0.3-0.1-0.4-0.1c-0.5-0.1-1.1-0.2-1.6-0.2c-1.2-0.1-2.3-0.1-3.5-0.1c-3.3-0.1-6.5-0.2-9.7-0.3
					c-6.7-0.3-13.6-0.4-20.4-1.4c-1.2-0.2-2.6-0.4-3.8-0.7c-0.4-0.1-0.9-0.3-1.3-0.4c-0.1,0-0.2-0.1-0.3-0.1
					c0.4,0.2-0.4-0.1-0.4-0.1c-0.2,0-0.4,0.1-0.6,0.1C471.3,304.1,471,304.6,471,304.9L471,304.9z"/>
			</g>
		</g>
		<g>
			<g>
				<path class="st2" d="M275.9,380.1c6.5,1.1,13.3,0.4,19.8-0.1c6.2-0.5,12.3-1.3,18.5-1.6c2.5-0.1,5.2-0.4,7.6,0.2
					c1.9,0.4,2.4-2.6,0.4-2.7c-2.2-0.2-4.4-0.3-6.6-0.3c-2.8,0.1-5.7,0.4-8.5,0.6c-6.6,0.6-13.1,1.4-19.8,1.7
					c-3.7,0.2-7.4,0.2-11.3,0.2C275.1,378.2,274.7,379.9,275.9,380.1L275.9,380.1z"/>
			</g>
		</g>
		<g>
			<g>
				<path class="st2" d="M321.1,377.7c8.2,4.3,18.2,4.6,27.3,3.8c9.9-0.8,19.6-3.1,29.5-4.1c5.8-0.5,11.4-0.4,17.2,0.4
					c1.6,0.2,1.9-2.5,0.4-2.7c-9.9-1.9-20.2-0.3-30,1.3c-9.4,1.5-18.9,3.2-28.4,2.7c-5.2-0.4-10.2-1.4-15.1-3.2
					C320.9,375.4,320.1,377.1,321.1,377.7L321.1,377.7z"/>
			</g>
		</g>
		<g>
			<g>
				<path class="st2" d="M393.2,377.4c3,1.3,6.4,1.9,9.6,2.6c4.6,0.8,9.2,1.5,13.9,2c3.7,0.4,7.4,0.8,11.1,0.5
					c7.1-0.5,14.1-1.4,21.2-2c8-0.7,16-1.1,24-0.4c1.9,0.2,1.9-2.7,0-2.9c-7-0.5-14-0.4-21.1,0.1c-6.9,0.5-13.8,1.4-20.7,2
					c-2.3,0.2-4.6,0.4-6.8,0.4c-1.9-0.1-3.7-0.2-5.5-0.4c-4.5-0.4-9-1-13.6-1.8c-3.7-0.6-7.7-1-11.3-2.2
					C393,375.2,392.2,377,393.2,377.4L393.2,377.4z"/>
			</g>
		</g>
		<g>
			<g>
				<path class="st2" d="M472.6,379.6c1.9,0.5,3.9,0.4,5.8,0.6c1.7,0.2,3.4,0.4,5,0.5c3.3,0.4,6.5,0.8,9.7,1.2
					c6.8,0.8,13.7,1.2,20.6,1.1c1.8-0.1,1.8-2.8,0-2.7c-6.9,0.2-13.7-0.3-20.6-1.1c-3.3-0.4-6.5-0.8-9.7-1.2c-1.7-0.2-3.4-0.4-5-0.4
					c-1.9-0.2-3.9-0.4-5.8-0.1C471.5,377.7,471.6,379.3,472.6,379.6L472.6,379.6z"/>
			</g>
		</g>
		<g>
			<g>
				<path class="st2" d="M322.6,198.4c0,2.9,0.6,5.8,0.9,8.8c0.3,2.9,0.4,5.8,0.5,8.9c0.2,5.9,0.1,11.8-0.4,17.7
					c-0.1,1.8,2.7,1.8,2.7,0c0.4-5.9,0.5-12,0.4-17.9c-0.1-2.9-0.3-5.9-0.5-8.9c-0.3-2.9-0.4-6.1-1.2-8.9
					C324.7,196.7,322.6,196.9,322.6,198.4L322.6,198.4z"/>
			</g>
		</g>
		<g>
			<g>
				<path class="st2" d="M324,233c-0.6,0.9-0.9,2-1.1,3.1c-0.3,1.6-0.4,3.3-0.5,5c-0.2,3.8-0.3,7.7-0.4,11.5
					c-0.1,1.6-0.1,3.1-0.4,4.7c-0.3,2-0.9,4.6-1.2,6.8c-1.1,6.3-1.8,12.6-2.1,19c-0.4,7.2-0.6,14.4-0.8,21.5c0,1.9,2.9,1.9,3,0
					c0.2-12.6,0.4-25.2,2.3-37.6c0.6-4.2,1.7-8.2,1.9-12.5c0.2-3.8,0.2-7.5,0.4-11.3c0.1-1.9,0.2-3.8,0.4-5.7
					c0.1-0.6,0.2-1.3,0.3-1.9c0.1-0.3,0.1-0.5,0.2-0.8c0.1-0.4,0-0.2,0.2-0.4C327,232.9,324.9,231.8,324,233L324,233z"/>
			</g>
		</g>
		<g>
			<g>
				<path class="st2" d="M319,303.2c-0.3,1.2-0.1,2.2,0,3.4c0.1,1.2,0.1,2.5,0,3.8c-0.1,2.5-0.4,5-0.7,7.4c-0.6,5-1.2,9.8-1.4,14.8
					c-0.6,9.4-0.7,18.9,0.1,28.3c0.4,5.5,1.1,11.1,2.1,16.5c0.2,0.8,1.1,1.2,1.9,1.1c0.9-0.3,1.2-1.1,1.1-1.9
					c-0.7-4.9-1.4-9.7-1.9-14.7c-0.4-4.7-0.6-9.3-0.6-14c-0.1-9.7,0.6-19.3,1.8-28.9c0.4-2.7,0.6-5.3,0.8-8.1c0.1-1.4,0-2.8-0.1-4.3
					c-0.1-1.3-0.2-2.7-1-3.8C320.3,302.4,319.2,302.4,319,303.2L319,303.2z"/>
			</g>
		</g>
		<g>
			<g>
				<path class="st2" d="M318.3,375.2c-0.1,1.2,0.4,2.5,0.6,3.7c0.2,1.1,0.4,2.1,0.4,3.1c0.3,2,0.4,4.1,0.4,6.1c0,5-0.4,10-0.4,15
					c-0.1,4.3,0,8.6,0.2,12.9c0.1,1.8,2.8,1.8,2.8,0c-0.3-6.8-0.2-13.6,0-20.5c0.2-4.3,0.4-8.7-0.1-13c-0.2-1.2-0.4-2.6-0.5-3.8
					c-0.3-1.3-0.4-2.9-1.2-4.2C319.9,373.6,318.4,374,318.3,375.2L318.3,375.2z"/>
			</g>
		</g>
		<g>
			<g>
				<path class="st2" d="M400.6,194.2c-0.5,3.2-0.3,6.6-0.4,9.9c-0.1,2.7-0.1,5.4-0.3,8.1c-0.2,4.3-0.4,8.7-0.4,13
					c0,2.3,0.1,4.6,0.3,6.9c0.2,1.7,2.8,1.8,2.7,0c-0.8-8.9,0.2-17.9,0.4-26.8c0.1-3.6,0.4-7.5-0.4-11.2
					C402.3,193.3,400.8,193.3,400.6,194.2L400.6,194.2z"/>
			</g>
		</g>
		<g>
			<g>
				<path class="st2" d="M400.1,232.1c-0.4,4.9-0.3,9.7-0.4,14.5c0,4.9-0.1,9.7-0.2,14.5c-0.2,9.7-0.5,19.4-0.9,29.1
					c-0.3,5.4-0.5,10.9-0.8,16.3c-0.1,1.8,2.7,1.8,2.8,0c1.1-19.3,1.7-38.7,1.9-58.1c0-5.4,0.1-10.9-0.4-16.3
					C402.1,230.8,400.2,230.8,400.1,232.1L400.1,232.1z"/>
			</g>
		</g>
		<g>
			<g>
				<path class="st2" d="M399.1,307.3c-1.3,8.9-1.7,18-2.3,26.9c-0.6,8.9-1.2,17.7-1.9,26.6c-0.4,5.1-0.8,10.4-1.2,15.5
					c-0.2,1.9,2.7,1.9,2.9,0c1.5-17.7,2.5-35.5,3.7-53.2c0.4-5.1,0.8-10.4,1-15.5C401.3,306.3,399.3,306.1,399.1,307.3L399.1,307.3z
					"/>
			</g>
		</g>
		<g>
			<g>
				<path class="st2" d="M394,376.8c-0.1,1,0.2,1.9,0.2,2.8c0.1,1.2,0.1,2.4,0.1,3.5c0,3.2-0.3,6.4-0.4,9.6
					c-0.4,7.3-1,14.5-0.7,21.8c0.1,1.8,2.8,1.8,2.8,0c-0.3-7.4,0.3-14.8,0.7-22.1c0.2-3.2,0.4-6.3,0.4-9.5c0-1.3,0-2.6-0.3-3.9
					c-0.2-1-0.3-2-0.8-2.8C395.5,375.4,394.1,375.6,394,376.8L394,376.8z"/>
			</g>
		</g>
		<g>
			<g>
				<path class="st2" d="M472,379c1.4,5.2,0.8,10.7,0.5,16.1c-0.4,7.7-1,15.7,0.4,23.4c0.3,1.4,2.7,1.2,2.6-0.4
					c-0.9-8-0.7-15.8-0.3-23.7c0.2-3.2,0.4-6.4,0.3-9.5c-0.1-2.1-0.1-5-1.3-6.7C473.3,377.1,471.6,377.8,472,379L472,379z"/>
			</g>
		</g>
		<g>
			<g>
				<path class="st2" d="M473.1,304.3c1.2,1.9,0.5,4.5,0.4,6.6c-0.2,2.6-0.3,5.1-0.4,7.6c-0.3,5-0.6,10.2-0.8,15.2
					c-0.5,10.2-0.9,20.4-0.7,30.6c0.1,5.8,0.4,11.6,0.9,17.5c0.2,1.8,2.9,1.8,2.7,0c-1.9-21-0.6-42.1,0.5-63.1
					c0.2-2.9,0.4-5.8,0.4-8.8c0.1-2.5,0.2-4.9-1.5-6.9C473.9,302.2,472.5,303.3,473.1,304.3L473.1,304.3z"/>
			</g>
		</g>
		<g>
			<g>
				<path class="st2" d="M478.1,233.7c-0.3-0.1-0.6-0.6-0.6-0.6s-0.1-0.4,0-0.2c0.1,0.4-0.2,0,0.1-0.2c-0.2,0.2-0.2,0.7-0.2,1
					c0,0.1,0,0.4,0,0c0,0.2,0,0.4-0.1,0.6c-0.1,1.3-0.1,2.7-0.2,3.9c-0.2,4.3-0.4,8.7-0.7,13.1c-0.7,12-1.7,23.8-2.8,35.7
					c-0.5,6-1.2,12-1.9,18.1c-0.2,1.8,2.6,1.8,2.7,0c1.4-11.8,2.5-23.6,3.4-35.4c0.8-10.5,1.7-21,1.9-31.5c0-1.5,0.1-3-0.2-4.5
					c0-0.1,0-0.3-0.1-0.4c-0.1-0.4,0.1,0.3,0-0.2c0-0.1-0.2-0.6-0.1-0.4c0.1,0.2,0,0.1,0,0c-0.1-0.2-0.1-0.3-0.2-0.4
					c-0.3-0.5-0.7-0.8-1.3-0.7C477,231.9,477.2,233.4,478.1,233.7L478.1,233.7z"/>
			</g>
		</g>
		<g>
			<g>
				<path class="st2" d="M476.9,194.7c0.8,4.3,1.6,8.5,1,12.8c-0.5,4.1-1.3,8.4-1.4,12.7c-0.1,4.5,0.3,9,0.7,13.5
					c0.2,1.7,2.7,1.7,2.7,0c-0.7-6.6-1.1-13.5-0.2-20.1c0.4-3.5,1.2-7.1,1.1-10.7c-0.2-2.9-0.8-5.8-1.6-8.7
					C478.6,192.8,476.6,193.4,476.9,194.7L476.9,194.7z"/>
			</g>
		</g>
		<path class="st2" d="M558.6,239.9c-0.4-0.4-0.8-0.5-1.2-0.3c-0.3,0.2-0.5,0.5-0.8,0.5c-0.3,0-0.5-0.5-0.8-0.7
			c-0.6-0.5-1.5-0.5-2.2-0.6c-1-0.2-1.9-0.4-3-0.4c-1.9-0.3-3.8-0.5-5.8-0.8c-1.2-0.2-2.2-0.3-3.4-0.4c-1.1-0.2-2-0.4-3.1-0.4
			c0.1-0.5,0.1-1,0.1-1.5c0-0.1-0.1-0.2-0.1-0.2c-0.4-0.1-0.9-0.2-1.3-0.2c-1.2-0.2-2.4-0.3-3.5-0.4c-2.1-0.2-4.3-0.4-6.4-0.5
			c-0.5,0-1-0.1-1.5-0.1h-0.1c-1.3-0.1-2.7-0.2-4-0.3c-0.6,0-1.2-0.1-1.9-0.1c-0.5,0-1.1-0.1-1.3,0.5c-0.1,0.1-0.1,0.2-0.1,0.3
			c0-0.1-0.1-0.2-0.2-0.2c-0.4-0.3-0.7-0.1-1,0.2l-0.4-0.1c0-0.1-0.1-0.3-0.2-0.3c-0.2-0.3-0.6-0.3-0.9-0.1
			c-0.1,0.1-0.1,0.1-0.2,0.2l-0.4-0.1c-0.1-0.2-0.2-0.3-0.3-0.4c-0.5-0.4-1.1,0.3-1.3,0.7c-0.3,0.6-0.3,1.3-0.3,2
			c0,0.4,0,0.7,0.2,1.1c0.1,0.3,0.4,0.5,0.6,0.5c0.2,0,0.3-0.1,0.4-0.2l0.1-0.1l0.4,0.1c0.1,0.2,0.2,0.3,0.4,0.4
			c0.3,0.2,0.6,0,0.8-0.2l0.4,0.1c0.1,0.2,0.3,0.4,0.5,0.4c0.2,0,0.3-0.1,0.4-0.2c0,0.4,0.1,0.7,0.3,0.9c0.1,0,0.1,0.1,0.2,0.1
			c6.2,1.9,12.5,3.2,19,4c0.1,0,0.3-0.1,0.3-0.2c0.2-0.5,0.3-1.2,0.4-1.7c3.3,0.5,6.6,1,9.7,1.3c1.5,0.2,3,0.4,4.5,0.5
			c0.8,0.1,1.6,0.3,2.4,0.3c0.3,0,0.6,0,0.9-0.1c0.4-0.1,0.8-0.4,1.2-0.1c0.4,0.3,0.5,0.7,1.1,0.7c0.4,0,0.9-0.4,1.2-0.6
			c0.4-0.4,0.9-0.7,1.1-1.2v-0.1C560.1,241.1,559,240.3,558.6,239.9z M542.6,241.3c-1.6-0.2-3.2-0.4-4.8-0.7
			c0.3-1.2,0.4-2.3,0.5-3.5c1,0.3,2,0.4,3.1,0.4c1.1,0.2,2.1,0.3,3.2,0.4c1.6,0.2,3.2,0.4,4.8,0.6c-0.1,1.2-0.3,2.3-0.4,3.5
			C546.9,241.9,544.7,241.6,542.6,241.3z M550,242.2c0.3-1.2,0.4-2.4,0.4-3.5c0.3,0,0.6,0.1,0.9,0.1c0.7,0.1,1.5,0.3,2.2,0.4
			c-0.1,0.8-0.4,2.6-0.5,3.4c-0.3,0-0.6-0.1-0.9-0.1C551.4,242.4,550.7,242.3,550,242.2z M558.5,242.7c-0.2,0.1-0.4,0.3-0.6,0.4
			c-0.5,0.3-0.7-0.1-1-0.4c-0.8-0.8-1.6,0-2.5-0.1c-0.1,0-0.2,0-0.3,0c0.3-1.1,0.4-2.2,0.4-3.3l0,0c0.5,0.1,0.9,0.3,1.2,0.6
			c0.2,0.2,0.4,0.4,0.6,0.5c0.7,0.2,1.2-0.9,1.7-0.6c0.4,0.2,0.6,0.5,0.9,0.8c0.3,0.3,0.8,0.6,0.7,1
			C559.3,242.2,558.9,242.5,558.5,242.7z"/>
		<path class="st2" d="M550.2,305.6c-0.4-0.4-0.9-0.4-1.3-0.1c-0.2,0.2-0.4,0.6-0.7,0.6c-0.3,0-0.6-0.4-0.9-0.6
			c-0.7-0.4-1.6-0.3-2.3-0.3c-1,0-2,0-3,0c-1.9,0-3.8,0.1-5.8,0.2c-1.2,0-2.2,0.1-3.4,0.1c-1.1,0-2.1,0-3.2,0c0-0.5-0.1-1-0.1-1.5
			c0-0.1-0.1-0.2-0.2-0.2c-0.4-0.1-0.9,0-1.3,0c-1.2,0-2.4,0.1-3.5,0.2c-2.1,0.1-4.3,0.3-6.4,0.4c-0.5,0-1,0.1-1.5,0.2h-0.1
			c-1.3,0.1-2.7,0.3-4,0.4c-0.6,0.1-1.2,0.2-1.9,0.3c-0.5,0.1-1.1,0.1-1.2,0.7c0,0.1-0.1,0.2-0.1,0.3c-0.1-0.1-0.1-0.2-0.2-0.2
			c-0.4-0.2-0.7,0-1,0.4h-0.4c-0.1-0.1-0.1-0.2-0.2-0.3c-0.3-0.2-0.6-0.2-0.9,0.1c-0.1,0.1-0.1,0.2-0.2,0.2h-0.4
			c-0.1-0.2-0.2-0.3-0.3-0.4c-0.6-0.3-1.1,0.4-1.2,0.9c-0.2,0.6-0.1,1.3,0,2c0.1,0.4,0.1,0.7,0.3,1c0.2,0.3,0.4,0.4,0.7,0.4
			c0.2,0,0.3-0.2,0.4-0.3l0.1-0.1h0.4c0.1,0.2,0.2,0.3,0.4,0.4c0.4,0.2,0.6-0.1,0.7-0.4h0.5c0.2,0.2,0.4,0.4,0.5,0.4
			c0.2,0,0.3-0.1,0.4-0.2c0.1,0.4,0.2,0.6,0.4,0.8c0.1,0,0.1,0,0.2,0c6.4,0.9,12.8,1.2,19.3,0.9c0.1,0,0.2-0.1,0.2-0.3
			c0.1-0.6,0.1-1.2,0.2-1.8c3.3,0,6.6-0.1,9.8-0.3c1.5-0.1,3-0.1,4.6-0.2c0.8,0,1.6,0,2.5-0.1c0.3,0,0.5-0.1,0.8-0.3
			c0.4-0.2,0.7-0.4,1.2-0.3c0.4,0.2,0.6,0.6,1.2,0.5c0.4,0,0.8-0.5,1.1-0.8c0.4-0.4,0.7-0.8,0.9-1.4V307
			C551.9,306.5,550.7,305.8,550.2,305.6z M534.6,309.4c-1.6,0-3.3,0.1-4.9,0.1c0.1-1.2,0.1-2.3,0-3.5c1.1,0.1,2.1,0,3.1-0.1
			c1.1,0,2.1-0.1,3.2-0.1c1.6-0.1,3.2-0.1,4.9-0.2c0.1,1.2,0.1,2.4,0.2,3.5C539,309.4,536.8,309.4,534.6,309.4z M542.1,309.2
			c0-1.2,0-2.4-0.1-3.5c0.3,0,0.6,0,0.9,0c0.8,0,1.5,0,2.3,0c0,0.8,0,2.7,0,3.5c-0.3,0-0.6,0-0.9,0
			C543.5,309.2,542.8,309.2,542.1,309.2z M550.6,308.4c-0.2,0.2-0.4,0.4-0.5,0.5c-0.4,0.4-0.7,0-1.1-0.2c-0.9-0.6-1.6,0.2-2.5,0.4
			c-0.1,0-0.2,0-0.3,0c0.1-1.2,0.1-2.2-0.1-3.4l0,0c0.5,0,0.9,0.1,1.3,0.4c0.2,0.2,0.4,0.4,0.7,0.4c0.7,0.1,1-1.1,1.6-0.9
			c0.4,0.1,0.7,0.4,1,0.6c0.3,0.2,0.9,0.4,0.8,0.9C551.3,307.7,550.9,308,550.6,308.4z"/>
		<path class="st2" d="M551.7,378.8c-0.4-0.4-0.9-0.4-1.3-0.1c-0.2,0.2-0.4,0.6-0.7,0.6c-0.3,0-0.6-0.4-0.9-0.6
			c-0.7-0.4-1.6-0.3-2.3-0.3c-1,0-2,0-3,0c-1.9,0-3.8,0.1-5.8,0.2c-1.2,0-2.2,0.1-3.4,0.1c-1.1,0-2.1,0-3.2,0c0-0.5-0.1-1-0.1-1.5
			c0-0.1-0.1-0.2-0.2-0.2c-0.4-0.1-0.9,0-1.3,0c-1.2,0-2.4,0.1-3.5,0.2c-2.1,0.1-4.3,0.3-6.4,0.4c-0.5,0-1,0.1-1.5,0.2h-0.1
			c-1.3,0.1-2.7,0.3-4,0.4c-0.6,0.1-1.2,0.2-1.9,0.3c-0.5,0.1-1.1,0.1-1.2,0.7c0,0.1-0.1,0.2-0.1,0.3c-0.1-0.1-0.1-0.2-0.2-0.2
			c-0.4-0.2-0.7,0-1,0.4h-0.4c-0.1-0.1-0.1-0.2-0.2-0.3c-0.3-0.2-0.6-0.2-0.9,0.1c-0.1,0.1-0.1,0.2-0.2,0.2h-0.4
			c-0.1-0.2-0.2-0.3-0.3-0.4c-0.6-0.3-1.1,0.4-1.2,0.9c-0.2,0.6-0.1,1.3,0,2c0.1,0.4,0.1,0.7,0.3,1c0.2,0.3,0.4,0.4,0.7,0.4
			c0.2,0,0.3-0.2,0.4-0.3l0.1-0.1h0.4c0.1,0.2,0.2,0.3,0.4,0.4c0.4,0.2,0.6-0.1,0.7-0.4h0.5c0.2,0.2,0.4,0.4,0.5,0.4
			c0.2,0,0.3-0.1,0.4-0.2c0.1,0.4,0.2,0.6,0.4,0.8c0.1,0,0.1,0,0.2,0c6.4,0.9,12.8,1.2,19.3,0.9c0.1,0,0.2-0.1,0.2-0.3
			c0.1-0.6,0.1-1.2,0.2-1.8c3.3,0,6.6-0.1,9.8-0.3c1.5-0.1,3-0.1,4.6-0.2c0.8,0,1.6,0,2.5-0.1c0.3,0,0.5-0.1,0.8-0.3
			c0.4-0.2,0.7-0.4,1.2-0.3c0.4,0.2,0.6,0.6,1.2,0.5c0.4,0,0.8-0.5,1.1-0.8c0.4-0.4,0.7-0.8,0.9-1.4v-0.1
			C553.4,379.8,552.2,379.1,551.7,378.8z M536,382.7c-1.6,0-3.3,0.1-4.9,0.1c0.1-1.2,0.1-2.3,0-3.5c1.1,0.1,2.1,0,3.1-0.1
			c1.1,0,2.1-0.1,3.2-0.1c1.6-0.1,3.2-0.1,4.9-0.2c0.1,1.2,0.1,2.4,0.2,3.5C540.4,382.6,538.3,382.7,536,382.7z M543.6,382.4
			c0-1.2,0-2.4-0.1-3.5c0.3,0,0.6,0,0.9,0c0.8,0,1.5,0,2.3,0c0,0.8,0,2.7,0,3.5c-0.3,0-0.6,0-0.9,0
			C545,382.4,544.3,382.4,543.6,382.4z M552,381.7c-0.2,0.2-0.4,0.4-0.5,0.5c-0.4,0.4-0.7,0-1.1-0.2c-0.9-0.6-1.6,0.2-2.5,0.4
			c-0.1,0-0.2,0-0.3,0c0.1-1.2,0.1-2.2-0.1-3.4l0,0c0.5,0,0.9,0.1,1.3,0.4c0.2,0.2,0.4,0.4,0.7,0.4c0.7,0.1,1-1.1,1.6-0.9
			c0.4,0.1,0.7,0.4,1,0.6c0.3,0.2,0.9,0.4,0.8,0.9C552.7,380.9,552.4,381.3,552,381.7z"/>
		<path class="st2" d="M235.5,378.1C235.5,378.1,235.5,378.2,235.5,378.1c0.2,0.6,0.5,1.1,0.9,1.4c0.3,0.4,0.6,0.8,1.1,0.8
			c0.5,0,0.7-0.4,1.2-0.5s0.8,0.1,1.2,0.3c0.3,0.2,0.5,0.2,0.8,0.3c0.8,0.1,1.6,0.1,2.5,0.1c1.5,0.1,3,0.1,4.6,0.2
			c3.3,0.1,6.6,0.3,9.8,0.3c0,0.6,0.1,1.2,0.2,1.8c0,0.1,0.1,0.3,0.2,0.3c6.5,0.3,12.9,0,19.3-0.9c0.1,0,0.1,0,0.2,0
			c0.3-0.2,0.4-0.4,0.4-0.8c0.1,0.1,0.2,0.2,0.4,0.2c0.3,0,0.4-0.2,0.5-0.4h0.5c0.2,0.3,0.4,0.4,0.7,0.4c0.2-0.1,0.3-0.2,0.4-0.4
			h0.4l0.1,0.1c0.1,0.1,0.3,0.3,0.4,0.3c0.3,0.1,0.5-0.2,0.7-0.4c0.2-0.3,0.3-0.6,0.3-1c0.1-0.6,0.2-1.3,0-2
			c-0.2-0.4-0.5-1.2-1.2-0.9c-0.1,0.1-0.3,0.2-0.3,0.4h-0.4c-0.1-0.1-0.1-0.2-0.2-0.2c-0.2-0.2-0.6-0.3-0.9-0.1
			c-0.1,0.1-0.2,0.2-0.2,0.3h-0.4c-0.2-0.4-0.5-0.6-1-0.4c-0.1,0-0.2,0.1-0.2,0.2c0-0.1-0.1-0.2-0.1-0.3c-0.2-0.6-0.7-0.6-1.2-0.7
			c-0.6-0.1-1.2-0.2-1.9-0.3c-1.3-0.2-2.7-0.3-4-0.4h-0.1c-0.5-0.1-1-0.1-1.5-0.2c-2.1-0.2-4.3-0.4-6.4-0.4
			c-1.2-0.1-2.4-0.2-3.5-0.2c-0.4,0-0.9-0.1-1.3,0c-0.1,0-0.2,0.1-0.2,0.2c-0.1,0.4-0.1,1-0.1,1.5c-1.1-0.1-2.1,0-3.2,0
			c-1.2,0-2.2-0.1-3.4-0.1c-1.9-0.1-3.8-0.1-5.8-0.2c-1,0-2,0-3,0c-0.7,0-1.7-0.1-2.3,0.3c-0.3,0.2-0.6,0.6-0.9,0.6
			s-0.5-0.4-0.7-0.6c-0.4-0.4-0.9-0.3-1.3,0.1C236.5,376.8,235.2,377.5,235.5,378.1z M246.1,380.1c0.1-1.2,0.1-2.3,0.2-3.5
			c1.6,0,3.2,0.1,4.9,0.2c1.1,0,2.1,0.1,3.2,0.1s2.1,0.1,3.1,0.1c-0.1,1.2-0.1,2.3,0,3.5c-1.6,0-3.3,0-4.9-0.1
			C250.4,380.3,248.2,380.2,246.1,380.1z M242.9,380.1c-0.3,0-0.6,0-0.9,0c0-0.8,0-2.7,0-3.5c0.8,0,1.5,0,2.3,0c0.3,0,0.6,0,0.9,0
			c-0.1,1.2-0.2,2.3-0.1,3.5C244.4,380.1,243.6,380.1,242.9,380.1z M235.6,378.1c-0.1-0.4,0.5-0.7,0.8-0.9c0.3-0.2,0.6-0.5,1-0.6
			c0.6-0.2,0.9,0.9,1.6,0.9c0.3,0,0.4-0.3,0.7-0.4c0.4-0.4,0.8-0.4,1.3-0.4l0,0c-0.2,1.2-0.2,2.2-0.1,3.4c-0.1,0-0.2,0-0.3,0
			c-0.9-0.1-1.6-1-2.5-0.4c-0.4,0.3-0.6,0.5-1.1,0.2c-0.2-0.2-0.4-0.4-0.5-0.5C236.3,379,235.9,378.6,235.6,378.1z"/>
		<path class="st2" d="M239.6,305.8L239.6,305.8c0.2,0.6,0.5,1.1,0.9,1.4c0.3,0.4,0.6,0.8,1.1,0.8c0.5,0,0.7-0.4,1.2-0.5
			s0.8,0.1,1.2,0.3c0.3,0.2,0.5,0.2,0.8,0.3c0.8,0.1,1.6,0.1,2.5,0.1c1.5,0.1,3,0.1,4.6,0.2c3.3,0.1,6.6,0.3,9.8,0.3
			c0,0.6,0.1,1.2,0.2,1.8c0,0.1,0.1,0.3,0.2,0.3c6.5,0.3,12.9,0,19.3-0.9c0.1,0,0.1,0,0.2,0c0.3-0.2,0.4-0.4,0.4-0.8
			c0.1,0.1,0.2,0.2,0.4,0.2c0.3,0,0.4-0.2,0.5-0.4h0.5c0.2,0.3,0.4,0.4,0.7,0.4c0.2-0.1,0.3-0.2,0.4-0.4h0.4l0.1,0.1
			c0.1,0.1,0.3,0.3,0.4,0.3c0.3,0.1,0.5-0.2,0.7-0.4c0.2-0.3,0.3-0.6,0.3-1c0.1-0.6,0.2-1.3,0-2c-0.2-0.4-0.5-1.2-1.2-0.9
			c-0.1,0.1-0.3,0.2-0.3,0.4h-0.4c-0.1-0.1-0.1-0.2-0.2-0.2c-0.2-0.2-0.6-0.3-0.9-0.1c-0.1,0.1-0.2,0.2-0.2,0.3h-0.4
			c-0.2-0.4-0.5-0.6-1-0.4c-0.1,0-0.2,0.1-0.2,0.2c0-0.1-0.1-0.2-0.1-0.3c-0.2-0.6-0.7-0.6-1.2-0.7c-0.6-0.1-1.2-0.2-1.9-0.3
			c-1.3-0.2-2.7-0.3-4-0.4h-0.1c-0.5-0.1-1-0.1-1.5-0.2c-2.1-0.2-4.3-0.4-6.4-0.4c-1.2-0.1-2.4-0.2-3.5-0.2c-0.4,0-0.9-0.1-1.3,0
			c-0.1,0-0.2,0.1-0.2,0.2c-0.1,0.4-0.1,1-0.1,1.5c-1.1-0.1-2.1,0-3.2,0c-1.2,0-2.2-0.1-3.4-0.1c-1.9-0.1-3.8-0.1-5.8-0.2
			c-1,0-2,0-3,0c-0.7,0-1.7-0.1-2.3,0.3c-0.3,0.2-0.6,0.6-0.9,0.6s-0.5-0.4-0.7-0.6c-0.4-0.4-0.9-0.3-1.3,0.1
			C240.7,304.5,239.4,305.1,239.6,305.8z M250.3,307.9c0.1-1.2,0.1-2.3,0.2-3.5c1.6,0,3.2,0.1,4.9,0.2c1.1,0,2.1,0.1,3.2,0.1
			s2.1,0.1,3.1,0.1c-0.1,1.2-0.1,2.3,0,3.5c-1.6,0-3.3,0-4.9-0.1C254.6,308,252.5,307.9,250.3,307.9z M247.1,307.8
			c-0.3,0-0.6,0-0.9,0c0-0.8,0-2.7,0-3.5c0.8,0,1.5,0,2.3,0c0.3,0,0.6,0,0.9,0c-0.1,1.2-0.2,2.3-0.1,3.5
			C248.6,307.8,247.9,307.8,247.1,307.8z M239.8,305.8c-0.1-0.4,0.5-0.7,0.8-0.9c0.3-0.2,0.6-0.5,1-0.6c0.6-0.2,0.9,0.9,1.6,0.9
			c0.3,0,0.4-0.3,0.7-0.4c0.4-0.4,0.8-0.4,1.3-0.4l0,0c-0.2,1.2-0.2,2.2-0.1,3.4c-0.1,0-0.2,0-0.3,0c-0.9-0.1-1.6-1-2.5-0.4
			c-0.4,0.3-0.6,0.5-1.1,0.2c-0.2-0.2-0.4-0.4-0.5-0.5C240.4,306.6,240.2,306.3,239.8,305.8z"/>
		<path class="st2" d="M239.6,234.6L239.6,234.6c0.2,0.6,0.5,1.1,0.9,1.4c0.4,0.4,0.6,0.8,1.2,0.8s0.7-0.4,1.2-0.5
			c0.4-0.3,0.8,0.1,1.2,0.3c0.3,0.1,0.5,0.2,0.9,0.3c0.8,0.1,1.6,0.1,2.5,0.1c1.5,0,3,0,4.6,0.1c3.3,0,6.6,0.1,9.8-0.1
			c0.1,0.6,0.1,1.2,0.2,1.8c0,0.1,0.1,0.3,0.3,0.3c6.5,0.1,12.9-0.4,19.3-1.5c0.1,0,0.1,0,0.2-0.1c0.3-0.2,0.4-0.4,0.4-0.8
			c0.1,0.1,0.2,0.2,0.4,0.2c0.3,0,0.4-0.2,0.5-0.4h0.5c0.2,0.3,0.4,0.4,0.7,0.4c0.2-0.1,0.3-0.2,0.4-0.4h0.4l0.1,0.1
			c0.1,0.1,0.3,0.3,0.4,0.3c0.4,0.1,0.5-0.2,0.7-0.4c0.2-0.3,0.3-0.6,0.3-1c0.1-0.6,0.2-1.4,0-2c-0.2-0.4-0.6-1.2-1.2-0.9
			c-0.1,0.1-0.2,0.2-0.3,0.4h-0.4c-0.1-0.1-0.1-0.2-0.2-0.2c-0.3-0.2-0.6-0.3-0.9,0c-0.1,0.1-0.2,0.2-0.2,0.3h-0.4
			c-0.3-0.4-0.5-0.5-1-0.4c-0.1,0.1-0.2,0.1-0.2,0.2c0-0.1-0.1-0.2-0.1-0.3c-0.3-0.6-0.7-0.6-1.2-0.7c-0.6-0.1-1.2-0.1-1.9-0.2
			c-1.3-0.1-2.7-0.2-4-0.3h-0.1c-0.5,0-1-0.1-1.5-0.1c-2.1-0.1-4.3-0.2-6.4-0.3c-1.2,0-2.4-0.1-3.5-0.1c-0.4,0-0.9-0.1-1.3,0
			c-0.1,0-0.2,0.1-0.2,0.2c0,0.5-0.1,1-0.1,1.5c-1.1,0-2.1,0.1-3.2,0.1c-1.2,0-2.2,0-3.4,0c-1.9,0-3.9,0-5.8,0c-1,0-2,0-3,0.1
			c-0.7,0-1.7-0.1-2.3,0.4c-0.3,0.2-0.5,0.6-0.9,0.6c-0.3,0-0.5-0.4-0.7-0.6c-0.4-0.4-0.9-0.3-1.2,0.1
			C240.7,233.2,239.4,233.9,239.6,234.6z M250.3,236.4c0-1.2,0-2.3,0-3.5c1.6,0,3.2,0,4.9,0c1.1,0,2.1,0,3.2,0c1.1,0,2.1,0.1,3.1,0
			c0,1.2,0,2.3,0.1,3.5c-1.6,0.1-3.3,0.1-4.9,0.1C254.6,236.4,252.5,236.4,250.3,236.4z M247.1,236.3c-0.3,0-0.6,0-0.9,0
			c-0.1-0.8-0.1-2.7-0.1-3.5c0.8,0,1.5-0.1,2.3-0.1c0.3,0,0.6,0,0.9,0c-0.1,1.2-0.1,2.3,0,3.5C248.6,236.3,247.9,236.3,247.1,236.3z
			 M239.8,234.6c-0.1-0.4,0.5-0.7,0.8-0.9c0.3-0.2,0.6-0.5,1-0.7c0.6-0.3,0.9,0.9,1.6,0.8c0.3,0,0.4-0.3,0.7-0.4
			c0.4-0.4,0.8-0.4,1.3-0.5l0,0c-0.1,1.2-0.2,2.2,0,3.4c-0.1,0-0.2,0-0.3,0c-0.9-0.1-1.6-0.9-2.5-0.3c-0.4,0.3-0.5,0.6-1.1,0.3
			c-0.2-0.2-0.4-0.4-0.5-0.4C240.4,235.4,240.2,235,239.8,234.6z"/>
		<path class="st2" d="M322.6,156.7L322.6,156.7c-0.6,0.2-1,0.5-1.4,1c-0.3,0.4-0.7,0.7-0.8,1.2c0,0.5,0.4,0.7,0.6,1.1
			c0.3,0.4,0,0.8-0.2,1.2c-0.1,0.3-0.2,0.5-0.2,0.9c-0.1,0.8,0,1.6,0,2.5c0,1.5,0.1,3,0.1,4.6c0.1,3.3,0.2,6.6,0.4,9.8
			c-0.6,0.1-1.2,0.2-1.8,0.3c-0.1,0-0.2,0.1-0.2,0.3c0.1,6.5,0.8,12.9,2,19.2c0,0.1,0,0.1,0.1,0.2c0.2,0.2,0.4,0.4,0.8,0.4
			c-0.1,0.1-0.2,0.2-0.2,0.4c0,0.3,0.2,0.4,0.4,0.5v0.4c-0.3,0.2-0.4,0.4-0.3,0.8c0.1,0.2,0.2,0.3,0.4,0.4v0.4l-0.1,0.1
			c-0.1,0.1-0.3,0.3-0.3,0.4c-0.1,0.4,0.2,0.5,0.4,0.7c0.3,0.2,0.6,0.2,1,0.3c0.6,0.1,1.4,0.1,2-0.1c0.4-0.2,1.2-0.6,0.9-1.2
			c-0.1-0.1-0.2-0.2-0.4-0.3v-0.4c0.1-0.1,0.2-0.1,0.2-0.2c0.2-0.3,0.3-0.6,0-0.9c-0.1-0.1-0.2-0.1-0.3-0.2v-0.4
			c0.4-0.3,0.5-0.6,0.4-1c-0.1-0.1-0.1-0.1-0.2-0.2c0.1,0,0.2-0.1,0.3-0.1c0.6-0.3,0.6-0.7,0.6-1.2c0.1-0.6,0.1-1.2,0.1-1.9
			c0.1-1.3,0.1-2.7,0.2-4v-0.1c0-0.5,0-1,0.1-1.5c0.1-2.1,0.1-4.3,0.1-6.4c0-1.2,0-2.4-0.1-3.5c0-0.4,0-0.9-0.1-1.3
			c0-0.1-0.1-0.2-0.2-0.2c-0.5,0-1,0-1.5,0c0-1.1-0.1-2.1-0.2-3.2c-0.1-1.2-0.1-2.2-0.1-3.4c-0.1-1.9-0.1-3.8-0.2-5.8
			c0-1-0.1-2-0.2-3c-0.1-0.7,0-1.7-0.4-2.3c-0.2-0.3-0.7-0.5-0.6-0.8c0-0.3,0.4-0.5,0.6-0.7c0.4-0.4,0.2-0.9-0.1-1.2
			C324,157.7,323.3,156.5,322.6,156.7z M321.2,167.4c1.2,0,2.3-0.1,3.5-0.1c0.1,1.6,0.1,3.2,0.1,4.9c0,1.1,0,2.1,0.1,3.2
			c0,1.1,0,2.1,0.2,3.1c-1.2,0-2.3,0.1-3.5,0.2c-0.1-1.6-0.2-3.3-0.3-4.9C321.3,171.8,321.3,169.7,321.2,167.4z M321.1,164.3
			c0-0.3,0-0.6,0-0.9c0.8-0.1,2.7-0.2,3.5-0.2c0.1,0.8,0.1,1.5,0.1,2.3c0,0.3,0,0.6,0,0.9c-1.2,0-2.3,0-3.5,0.1
			C321.2,165.8,321.2,165,321.1,164.3z M322.6,156.9c0.4-0.1,0.7,0.4,0.9,0.8c0.2,0.3,0.6,0.6,0.7,1c0.3,0.6-0.9,1-0.8,1.6
			c0,0.3,0.3,0.4,0.4,0.6c0.4,0.4,0.4,0.7,0.5,1.2l0,0c-1.2-0.1-2.2-0.1-3.4,0.1c0-0.1,0-0.2,0-0.3c0.1-0.9,0.9-1.6,0.2-2.5
			c-0.3-0.4-0.6-0.5-0.3-1.1c0.1-0.2,0.4-0.4,0.4-0.5C321.8,157.5,322.2,157.2,322.6,156.9z"/>
		<path class="st2" d="M400.1,154.6C400.1,154.6,400.1,154.6,400.1,154.6c-0.6,0.2-1,0.5-1.4,1c-0.3,0.4-0.7,0.7-0.8,1.2
			c0,0.5,0.4,0.7,0.6,1.1c0.3,0.4,0,0.8-0.2,1.2c-0.1,0.3-0.2,0.5-0.2,0.9c-0.1,0.8,0,1.6,0,2.5c0,1.5,0.1,3,0.1,4.6
			c0.1,3.3,0.2,6.6,0.4,9.8c-0.6,0.1-1.2,0.2-1.8,0.3c-0.1,0-0.2,0.1-0.2,0.3c0.1,6.5,0.8,12.9,2,19.2c0,0.1,0,0.1,0.1,0.2
			c0.2,0.2,0.4,0.4,0.8,0.4c-0.1,0.1-0.2,0.2-0.2,0.4c0,0.3,0.2,0.4,0.4,0.5v0.4c-0.3,0.2-0.4,0.4-0.3,0.8c0.1,0.2,0.2,0.3,0.4,0.4
			v0.4l-0.1,0.1c-0.1,0.1-0.3,0.3-0.3,0.4c-0.1,0.4,0.2,0.5,0.4,0.7c0.3,0.2,0.6,0.2,1,0.3c0.6,0.1,1.4,0.1,2-0.1
			c0.4-0.2,1.2-0.6,0.9-1.2c-0.1-0.1-0.2-0.2-0.4-0.3v-0.4c0.1-0.1,0.2-0.1,0.2-0.2c0.2-0.3,0.3-0.6,0-0.9c-0.1-0.1-0.2-0.1-0.3-0.2
			v-0.4c0.4-0.3,0.5-0.6,0.4-1c-0.1-0.1-0.1-0.1-0.2-0.2c0.1,0,0.2-0.1,0.3-0.1c0.6-0.3,0.6-0.7,0.6-1.2c0.1-0.6,0.1-1.2,0.1-1.9
			c0.1-1.3,0.1-2.7,0.2-4v-0.1c0-0.5,0-1,0.1-1.5c0.1-2.1,0.1-4.3,0.1-6.4c0-1.2,0-2.4-0.1-3.5c0-0.4,0-0.9-0.1-1.3
			c0-0.1-0.1-0.2-0.2-0.2c-0.5,0-1,0-1.5,0c0-1.1-0.1-2.1-0.2-3.2c-0.1-1.2-0.1-2.2-0.1-3.4c-0.1-1.9-0.1-3.8-0.2-5.8
			c0-1-0.1-2-0.2-3c-0.1-0.7,0-1.7-0.4-2.3c-0.2-0.3-0.7-0.5-0.6-0.8c0-0.3,0.4-0.5,0.6-0.7c0.4-0.4,0.2-0.9-0.1-1.2
			C401.5,155.6,400.8,154.3,400.1,154.6z M398.7,165.3c1.2,0,2.3-0.1,3.5-0.1c0.1,1.6,0.1,3.2,0.1,4.9c0,1.1,0,2.1,0.1,3.2
			c0,1.1,0,2.1,0.2,3.1c-1.2,0-2.3,0.1-3.5,0.2c-0.1-1.6-0.2-3.3-0.3-4.9C398.8,169.7,398.7,167.4,398.7,165.3z M398.6,162.1
			c0-0.3,0-0.6,0-0.9c0.8-0.1,2.7-0.2,3.5-0.2c0.1,0.8,0.1,1.5,0.1,2.3c0,0.3,0,0.6,0,0.9c-1.2,0-2.3,0-3.5,0.1
			C398.6,163.6,398.6,162.9,398.6,162.1z M400.1,154.8c0.4-0.1,0.7,0.4,0.9,0.8c0.2,0.3,0.6,0.6,0.7,1c0.3,0.6-0.9,1-0.8,1.6
			c0,0.3,0.3,0.4,0.4,0.6c0.4,0.4,0.4,0.7,0.5,1.2l0,0c-1.2-0.1-2.2-0.1-3.4,0.1c0-0.1,0-0.2,0-0.3c0.1-0.9,0.9-1.6,0.2-2.5
			c-0.3-0.4-0.6-0.5-0.3-1.1c0.1-0.2,0.4-0.4,0.4-0.5C399.3,155.4,399.7,155,400.1,154.8z"/>
		<path class="st2" d="M481.6,156.2L481.6,156.2c-0.6,0.2-1.1,0.4-1.5,0.9c-0.4,0.3-0.8,0.6-0.9,1.1c-0.1,0.5,0.3,0.7,0.5,1.2
			c0.2,0.4-0.1,0.8-0.3,1.2c-0.2,0.3-0.3,0.5-0.3,0.8c-0.1,0.8-0.2,1.6-0.2,2.4c-0.1,1.5-0.2,3-0.4,4.6c-0.2,3.3-0.4,6.6-0.5,9.8
			c-0.6,0-1.2,0.1-1.8,0.1c-0.1,0-0.3,0.1-0.3,0.2c-0.4,6.5-0.4,12.9,0.4,19.3c0,0.1,0,0.1,0,0.2c0.2,0.3,0.4,0.4,0.8,0.4
			c-0.1,0.1-0.2,0.2-0.2,0.4c0,0.3,0.2,0.4,0.4,0.6v0.5c-0.3,0.2-0.5,0.4-0.4,0.7c0.1,0.2,0.2,0.3,0.4,0.4v0.4c0,0-0.1,0.1-0.2,0.1
			c-0.1,0.1-0.3,0.2-0.3,0.4c-0.1,0.3,0.2,0.5,0.4,0.7c0.3,0.2,0.6,0.3,1,0.4c0.6,0.1,1.3,0.3,2,0.1c0.5-0.1,1.2-0.5,1-1.2
			c-0.1-0.1-0.2-0.3-0.3-0.4v-0.4c0.1-0.1,0.2-0.1,0.2-0.2c0.2-0.2,0.3-0.6,0.1-0.9c-0.1-0.1-0.2-0.2-0.3-0.2v-0.4
			c0.4-0.2,0.6-0.5,0.4-1c0-0.1-0.1-0.2-0.2-0.2c0.1,0,0.2,0,0.4-0.1c0.6-0.2,0.6-0.6,0.7-1.2c0.1-0.6,0.2-1.2,0.3-1.9
			c0.2-1.3,0.4-2.7,0.5-4v-0.1c0.1-0.5,0.1-1,0.2-1.5c0.3-2.1,0.4-4.3,0.6-6.4c0.1-1.2,0.2-2.4,0.3-3.5c0.1-0.4,0.1-0.9,0.1-1.3
			c0-0.1-0.1-0.2-0.2-0.2c-0.4-0.1-1-0.1-1.5-0.2c0.1-1.1,0.1-2.1,0.1-3.2c0.1-1.2,0.1-2.2,0.2-3.4c0.1-1.9,0.3-3.8,0.4-5.8
			c0.1-1,0.1-2,0.1-3c0-0.7,0.2-1.7-0.2-2.3c-0.1-0.3-0.6-0.6-0.6-0.9s0.5-0.5,0.7-0.7c0.4-0.4,0.3-0.9,0-1.3
			C482.9,157.2,482.3,156,481.6,156.2z M479.3,166.7c1.2,0.1,2.3,0.1,3.5,0.3c-0.1,1.6-0.2,3.2-0.4,4.8c-0.1,1.1-0.2,2.1-0.2,3.2
			c-0.1,1.1-0.2,2.1-0.2,3.1c-1.2-0.1-2.3-0.1-3.5-0.1c0-1.6,0.1-3.3,0.2-4.9C478.9,171.1,479.1,168.9,479.3,166.7z M479.4,163.6
			c0-0.3,0-0.6,0.1-0.9c0.8,0,2.7,0.1,3.5,0.1c0,0.8,0,1.5-0.1,2.3c0,0.3,0,0.6-0.1,0.9c-1.2-0.2-2.3-0.2-3.5-0.2
			C479.3,165,479.3,164.3,479.4,163.6z M481.6,156.4c0.4,0,0.6,0.5,0.8,0.9c0.2,0.3,0.5,0.6,0.6,1c0.2,0.6-1,0.9-0.9,1.6
			c0,0.3,0.3,0.4,0.4,0.7c0.4,0.4,0.4,0.8,0.4,1.3l0,0c-1.2-0.2-2.2-0.3-3.4-0.2c0-0.1,0-0.2,0-0.3c0.2-0.9,1.1-1.5,0.4-2.4
			c-0.3-0.4-0.5-0.6-0.2-1.1c0.2-0.2,0.4-0.4,0.5-0.5C480.8,156.9,481.1,156.6,481.6,156.4z"/>
		<path class="st2" d="M479.9,454.6c0.3-0.4,0.4-0.9-0.1-1.3c-0.2-0.2-0.6-0.4-0.7-0.6c-0.1-0.3,0.4-0.6,0.5-0.9
			c0.4-0.7,0.2-1.6,0.1-2.3c-0.1-1-0.2-2-0.3-3c-0.2-1.9-0.4-3.8-0.6-5.8c-0.1-1.2-0.3-2.2-0.4-3.4c-0.1-1.1-0.2-2.1-0.3-3.2
			c0.5-0.1,1-0.2,1.4-0.3c0.1,0,0.1-0.1,0.1-0.2c0-0.4-0.1-0.9-0.2-1.3c-0.1-1.2-0.3-2.4-0.4-3.5c-0.3-2.1-0.6-4.2-1-6.3
			c-0.1-0.5-0.2-1-0.3-1.5v-0.1c-0.3-1.3-0.4-2.7-0.7-3.9c-0.1-0.6-0.3-1.2-0.4-1.9c-0.1-0.5-0.2-1-0.8-1.2c-0.1,0-0.2,0-0.4-0.1
			c0.1-0.1,0.1-0.1,0.2-0.2c0.2-0.4-0.1-0.7-0.4-0.9v-0.4c0.1-0.1,0.2-0.1,0.3-0.2c0.2-0.3,0.1-0.6-0.1-0.8
			c-0.1-0.1-0.2-0.1-0.3-0.2v-0.4c0.1-0.1,0.3-0.2,0.3-0.4c0.3-0.6-0.5-1-1-1.1c-0.6-0.1-1.3,0-2,0.2c-0.4,0.1-0.7,0.2-1,0.4
			c-0.3,0.2-0.4,0.4-0.4,0.7c0.1,0.2,0.2,0.3,0.3,0.4c0.1,0,0.1,0.1,0.2,0.1v0.4c-0.2,0.1-0.3,0.3-0.4,0.4c-0.1,0.4,0.1,0.6,0.4,0.7
			v0.4c-0.2,0.2-0.4,0.4-0.3,0.6c0,0.2,0.1,0.3,0.3,0.4c-0.4,0.1-0.6,0.3-0.8,0.5c0,0.1,0,0.1,0,0.2c-0.4,6.5-0.2,12.9,0.6,19.3
			c0,0.1,0.2,0.2,0.3,0.2c0.6,0,1.2,0,1.8,0c0.3,3.3,0.6,6.6,1,9.8c0.2,1.5,0.4,3,0.5,4.5c0.1,0.8,0.2,1.6,0.4,2.4
			c0.1,0.3,0.2,0.5,0.4,0.8c0.2,0.4,0.5,0.7,0.4,1.2c-0.2,0.4-0.5,0.6-0.4,1.2c0.1,0.4,0.5,0.8,0.9,1.1c0.4,0.4,0.9,0.6,1.4,0.8h0.1
			C479,456.3,479.5,455,479.9,454.6z M474.7,439.2c-0.2-1.6-0.4-3.3-0.4-4.9c1.2,0,2.3-0.1,3.5-0.3c0,1.1,0.2,2.1,0.3,3.1
			c0.1,1.1,0.3,2.1,0.4,3.2c0.2,1.6,0.4,3.2,0.5,4.8c-1.2,0.2-2.3,0.3-3.5,0.4C475.1,443.6,474.9,441.5,474.7,439.2z M475.5,446.7
			c1.2-0.1,2.4-0.2,3.5-0.4c0,0.3,0.1,0.6,0.1,0.9c0.1,0.7,0.2,1.5,0.2,2.3c-0.8,0.1-2.7,0.3-3.5,0.3c0-0.3-0.1-0.6-0.1-0.9
			C475.6,448.1,475.6,447.4,475.5,446.7z M477,455.1c-0.2-0.2-0.4-0.4-0.5-0.4c-0.4-0.4-0.1-0.7,0.1-1.1c0.5-0.9-0.4-1.5-0.5-2.4
			c0-0.1,0-0.2-0.1-0.3c1.2,0,2.2-0.1,3.4-0.4l0,0c0,0.5,0,0.9-0.4,1.3c-0.2,0.3-0.4,0.4-0.4,0.7c0,0.7,1.2,0.9,1,1.5
			c-0.1,0.4-0.4,0.7-0.6,1.1s-0.4,0.9-0.8,0.9C477.8,455.7,477.4,455.4,477,455.1z"/>
		<path class="st2" d="M326.1,452.5c0.3-0.4,0.4-0.9,0-1.3c-0.2-0.2-0.6-0.4-0.7-0.7c-0.1-0.3,0.4-0.6,0.5-0.9
			c0.4-0.7,0.2-1.6,0.2-2.3c-0.1-1-0.1-2-0.2-3c-0.2-1.9-0.4-3.8-0.5-5.8c-0.1-1.2-0.2-2.2-0.3-3.4c-0.1-1.1-0.1-2.1-0.2-3.2
			c0.5-0.1,1-0.1,1.5-0.2c0.1,0,0.1-0.1,0.2-0.2c0-0.4,0-0.9-0.1-1.3c-0.1-1.2-0.3-2.4-0.4-3.5c-0.3-2.1-0.5-4.3-0.8-6.3
			c-0.1-0.5-0.2-1-0.3-1.5v-0.1c-0.2-1.3-0.4-2.7-0.6-4c-0.1-0.6-0.2-1.2-0.4-1.9c-0.1-0.5-0.2-1-0.8-1.2c-0.1,0-0.2,0-0.4-0.1
			c0.1-0.1,0.2-0.1,0.2-0.2c0.2-0.4-0.1-0.7-0.4-0.9v-0.4c0.1-0.1,0.2-0.1,0.3-0.2c0.2-0.3,0.1-0.6-0.1-0.8
			c-0.1-0.1-0.2-0.1-0.3-0.2v-0.4c0.1-0.1,0.3-0.2,0.3-0.4c0.3-0.6-0.5-1-1-1.2c-0.6-0.2-1.3,0-2,0.2c-0.4,0.1-0.7,0.2-1,0.4
			s-0.4,0.4-0.4,0.7c0,0.2,0.2,0.3,0.3,0.4c0.1,0,0.1,0.1,0.2,0.1v0.4c-0.2,0.1-0.3,0.3-0.4,0.4c-0.1,0.4,0.1,0.6,0.4,0.7v0.5
			c-0.2,0.2-0.4,0.4-0.3,0.6c0,0.2,0.1,0.3,0.3,0.4c-0.4,0.1-0.6,0.3-0.8,0.4c0,0.1,0,0.1,0,0.2c-0.5,6.5-0.4,12.9,0.3,19.3
			c0,0.1,0.2,0.2,0.3,0.2c0.6,0,1.2,0.1,1.8,0.1c0.2,3.3,0.5,6.6,0.8,9.8c0.2,1.5,0.3,3,0.4,4.5c0.1,0.8,0.1,1.6,0.3,2.4
			c0.1,0.3,0.2,0.5,0.3,0.8c0.2,0.4,0.5,0.7,0.4,1.2s-0.5,0.6-0.4,1.2c0.1,0.4,0.5,0.8,0.9,1.1c0.4,0.4,0.9,0.7,1.4,0.8h0.1
			C325.2,454.3,325.7,453.1,326.1,452.5z M321.2,437.2c-0.2-1.6-0.3-3.3-0.4-4.9c1.2,0,2.3-0.1,3.5-0.2c0,1.1,0.2,2.1,0.3,3.1
			c0.1,1.1,0.2,2.1,0.3,3.2c0.2,1.6,0.4,3.2,0.4,4.8c-1.2,0.2-2.4,0.3-3.5,0.4C321.6,441.5,321.4,439.3,321.2,437.2z M321.9,444.6
			c1.2-0.1,2.4-0.2,3.5-0.4c0,0.3,0.1,0.6,0.1,0.9c0.1,0.8,0.1,1.5,0.2,2.3c-0.8,0.1-2.7,0.2-3.5,0.2c0-0.3-0.1-0.6-0.1-0.9
			C322,446.1,321.9,445.3,321.9,444.6z M323.2,453.1c-0.2-0.2-0.4-0.4-0.5-0.5c-0.4-0.4-0.1-0.7,0.2-1.1c0.6-0.9-0.3-1.5-0.4-2.4
			c0-0.1,0-0.2,0-0.3c1.2,0.1,2.2-0.1,3.4-0.3l0,0c0,0.5-0.1,0.9-0.4,1.3c-0.2,0.2-0.4,0.4-0.4,0.7c0,0.7,1.2,0.9,1,1.5
			c-0.1,0.4-0.4,0.7-0.6,1.1c-0.2,0.4-0.4,0.9-0.8,0.9C324,453.7,323.6,453.4,323.2,453.1z"/>
		<path class="st2" d="M395.9,452.1c0.4-0.4,0.4-0.9,0.1-1.2c-0.2-0.2-0.6-0.4-0.6-0.7c0-0.3,0.5-0.6,0.6-0.9
			c0.4-0.6,0.4-1.6,0.4-2.3c0-1,0.1-2,0.1-3c0-1.9,0-3.9,0-5.8c0-1.2,0-2.2,0-3.4c0-1.1,0.1-2.1,0.1-3.2c0.5,0,1,0,1.5-0.1
			c0.1,0,0.2-0.1,0.2-0.2c0.1-0.4,0-0.9,0-1.3c0-1.2,0-2.4,0-3.5c-0.1-2.1-0.2-4.3-0.3-6.4c0-0.5-0.1-1-0.1-1.5v-0.1
			c-0.1-1.3-0.2-2.7-0.3-4c-0.1-0.6-0.1-1.2-0.2-1.9c-0.1-0.5-0.1-1.1-0.7-1.2c-0.1,0-0.2-0.1-0.3-0.1c0.1,0,0.2-0.1,0.2-0.2
			c0.3-0.4,0-0.7-0.4-1v-0.4c0.1,0,0.2-0.1,0.3-0.2c0.2-0.3,0.2-0.6,0-0.9c-0.1-0.1-0.2-0.1-0.2-0.2v-0.4c0.2-0.1,0.3-0.2,0.4-0.3
			c0.4-0.6-0.4-1.1-0.9-1.2c-0.6-0.2-1.3-0.1-2-0.1c-0.4,0-0.7,0.1-1,0.3c-0.3,0.2-0.5,0.4-0.4,0.7c0,0.2,0.2,0.3,0.3,0.4l0.1,0.1
			v0.4c-0.2,0.1-0.3,0.2-0.4,0.4c-0.2,0.4,0.1,0.6,0.4,0.7v0.5c-0.2,0.1-0.4,0.4-0.4,0.5c0,0.2,0.1,0.3,0.2,0.4
			c-0.4,0.1-0.6,0.2-0.8,0.4c0,0.1-0.1,0.1-0.1,0.2c-1.1,6.4-1.6,12.8-1.5,19.3c0,0.1,0.1,0.2,0.3,0.3c0.6,0.1,1.2,0.2,1.8,0.2
			c-0.1,3.3-0.1,6.6-0.1,9.8c0,1.5,0,3.1,0,4.6c0,0.8,0,1.6,0.1,2.5c0,0.3,0.1,0.5,0.3,0.9c0.2,0.4,0.4,0.7,0.3,1.2
			s-0.6,0.6-0.5,1.2c0,0.4,0.4,0.8,0.8,1.2c0.4,0.4,0.8,0.7,1.3,1h0.1C394.8,453.8,395.5,452.5,395.9,452.1z M392.4,436.4
			c0-1.6,0-3.3,0.1-4.9c1.2,0.1,2.3,0.2,3.5,0.1c-0.1,1.1-0.1,2.1-0.1,3.1c0,1.1,0,2.1,0,3.2c0,1.6,0,3.2,0,4.9c-1.2,0-2.4,0-3.5,0
			C392.4,440.7,392.4,438.5,392.4,436.4z M392.4,443.8c1.2,0.1,2.4,0.1,3.5,0c0,0.3,0,0.6,0,0.9c0,0.8,0,1.5-0.1,2.3
			c-0.8,0-2.7-0.1-3.5-0.1c0-0.3,0-0.6,0-0.9C392.4,445.3,392.4,444.6,392.4,443.8z M393,452.3c-0.2-0.2-0.4-0.4-0.4-0.5
			c-0.4-0.4,0-0.7,0.3-1.1c0.7-0.9-0.2-1.6-0.3-2.5c0-0.1,0-0.2,0-0.3c1.2,0.2,2.2,0.1,3.4,0l0,0c0,0.5-0.1,0.9-0.5,1.3
			c-0.2,0.2-0.4,0.4-0.4,0.7c-0.1,0.7,1.1,1,0.8,1.6c-0.1,0.4-0.4,0.7-0.7,1c-0.2,0.3-0.4,0.9-0.9,0.8
			C393.7,453.1,393.3,452.7,393,452.3z"/>
	</g>
</g>
</svg>
