<?xml version="1.0" encoding="utf-8"?>
<!-- Generator: Adobe Illustrator 25.0.0, SVG Export Plug-In . SVG Version: 6.00 Build 0)  -->
<svg version="1.1" id="Layer_1" xmlns="http://www.w3.org/2000/svg" xmlns:xlink="http://www.w3.org/1999/xlink" x="0px" y="0px"
	 viewBox="0 0 792 612" style="enable-background:new 0 0 792 612;" xml:space="preserve">
<style type="text/css">
	.st0{display:none;}
	.st1{fill:#FFFFFF;}
	.st2{fill:#FFEA00;}
</style>
<g id="referencias" class="st0">
</g>
<g id="vector">
	<g id="polyline12">
		<polyline class="st1" points="422.3,129.5 427,127.1 431.8,124.6 436.7,124.6 441.5,121.2 443.7,116.5 442.7,111.6 437.8,108 
			433.1,109.3 428.4,111.6 422.3,116.5 418.6,121.2 415.1,126 410.4,127.1 405.5,129.5 400.8,131.9 396.2,136.8 391.4,139.1 
			386.5,139.1 381.7,139.1 375.7,139.1 370.9,140.3 367.4,145 363.8,149.8 359,154.6 355.4,149.8 350.7,148.7 346,150.9 
			342.3,155.7 340,160.6 337.5,165.3 335.1,170 334.1,174.7 334.1,179.6 334.1,184.3 329.2,184.3 324.5,185.7 322.2,190.4 
			319.7,195.1 315.9,200 311.2,202.3 306.5,205.9 305.4,210.7 307.8,215.4 307.8,220.3 307.8,225.2 303.1,225.2 303.1,220.3 
			299.3,215.4 295.9,210.7 291.1,210.7 292.2,215.4 292.2,220.3 291.1,225.2 288.7,229.9 286.2,234.6 281.5,233.3 280.3,238 
			280.3,242.9 284,247.7 285,252.4 289.9,253.5 291.1,258.3 289.9,264.3 291.1,269.2 293.5,273.9 291.1,278.7 288.7,283.4 
			291.1,288.3 291.1,293 291.1,297.7 291.1,302.5 291.1,307.3 289.9,312.1 289.9,316.9 292.2,321.6 296.9,321.6 296.9,326.5 
			292.2,329.9 288.7,334.6 285,339.4 284,344.2 282.7,349 281.5,353.7 276.8,355 271.9,355 267.2,357.6 262.5,356.2 261.3,360.9 
			261.3,365.6 263.7,370.4 264.9,375.3 260,377.5 255.3,377.5 254,382.6 257.7,390.8 254,383.6 262.5,392 267.2,396.8 271.9,397.9 
			276.8,399.2 281.5,400.4 286.2,399.2 291.1,402.7 295.9,407.6 300.7,409.8 305.4,409.8 310.1,412.3 315,409.8 315.9,405.1 
			320.8,407.6 325.6,409.8 330.4,411.1 335.1,414.7 340,415.8 347.2,415.8 351.9,417 356.6,419.5 361.3,423 366.2,425.4 
			368.5,430.1 372.3,434.8 377,436.1 381.7,438.5 386.5,439.7 388.9,444.4 393.6,448 398.5,450.4 397.2,455.1 399.5,460 
			397.2,464.8 402,465.8 404.4,470.7 410.4,467.1 415.1,468.2 419.9,465.8 424.6,463.5 429.5,461.1 434.2,460 439,461.1 
			443.7,465.8 448.6,463.5 452.2,458.8 456.9,458.8 461.8,460 466.4,460 471.2,462.4 472.4,467.1 478.3,468.2 455.8,496.8 
			465.3,492.1 470,489.7 472.4,492.1 472.4,496.8 479.6,504 485.5,470.7 487.8,440.8 487.8,438.5 489.1,433.8 489.1,428.9 
			485.5,424.2 481.9,419.5 478.3,414.7 473.6,413.5 473.6,408.8 473.6,403.9 473.6,399.2 473.6,394.5 474.9,389.8 479.6,389.8 
			484.3,386.1 489.1,389.8 493.9,387.3 492.7,382.6 487.8,377.5 483.1,375.3 478.3,376.5 477.2,360.9 481.9,360.9 487.8,360.9 
			492.7,360.9 497.4,360.9 502.1,360.9 506.9,360.9 513,362.2 517.8,358.5 517.8,353.7 523.6,355 528.4,352.6 533.1,351.5 
			538,351.5 538,346.6 535.5,341.8 532.1,337 528.4,332.3 532.1,327.4 535.5,322.7 536.9,318 535.5,313.2 532.1,308.4 529.7,303.6 
			527.3,298.9 525.9,294.2 525.9,289.3 525.9,284.6 525.9,279.8 525.9,275 528.4,270.2 533.1,265.4 532.1,260.7 533.1,256 
			532.1,251.1 527.3,250.1 522.5,252.4 517.8,253.5 510.6,253.5 505.8,252.4 500.9,251.1 496.2,252.4 491.5,254.9 486.8,254.9 
			483.1,250.1 478.3,246.4 473.6,241.6 468.7,239.3 464.1,238 459.3,235.7 454.6,234.6 449.9,233.3 443.7,233.3 439,233.3 
			434.2,232.2 429.5,233.3 424.6,235.7 419.9,235.7 417.6,231 412.7,227.4 411.4,222.7 412.7,217.9 412.7,212.9 411.4,208.2 
			409.2,203.5 405.5,198.7 404.4,193.8 402,189.1 402,184.3 397.2,184.3 393.6,189.1 388.9,189.1 392.4,183.2 396.2,178.5 
			397.2,173.7 396.2,167.7 397.2,162.8 399.5,158.1 402,153.4 404.4,148.7 409.2,143.9 411.4,139.1 416.3,136.8 421.2,134.3 
			422.3,129.5 		"/>
	</g>
	<g>
		<path class="st2" d="M436.6,360.4c-0.2-0.3-0.6-0.4-0.8-0.6c-0.6-0.4-1.1-1-1.5-1.7c-0.4-0.7-0.7-1.4-1-2.2
			c-0.3-0.9-0.6-1.7-0.9-2.6c-0.3-0.8-0.8-1.6-1.2-2.4c-0.2-0.4-0.3-0.9-0.3-1.3c-0.1-0.5,0-0.9,0.1-1.4c0.1-0.5,0.1-0.9,0.1-1.4
			c0-0.4,0.1-0.8,0.2-1.1c0.2-1.4,0.1-2.8-0.7-4.1c-0.2-0.2-0.2-0.4-0.4-0.6c-0.2-0.2-0.2-0.6-0.3-0.9c-0.2-0.4-0.3-0.8-0.5-1.2
			c-0.1-0.2-0.1-0.5-0.2-0.7c-0.2-0.8-0.2-1.6-0.2-2.4c0-0.3-0.1-0.7,0-1s0.2-0.6,0.2-0.9c0.1-0.2,0.2-0.5,0.2-0.7l0,0
			c0.1,0,0.2-0.1,0.2-0.1c0.1-0.1,0.2-0.2,0.3-0.2h0.1c0.1-0.3,0.2-0.6,0.2-0.9c0-0.2,0-0.2,0.1-0.4c0-0.2,0-0.2,0.1-0.3
			c0.2-0.2,0.2-0.3,0.2-0.6c0.1-0.2,0.2-0.5,0.2-0.7l0,0c0-0.8,0.1-1.6-0.2-2.4c-0.2-0.8-0.5-1.7-0.7-2.4c-0.1-0.3-0.2-0.7-0.4-1
			s-0.4-0.6-0.6-0.9c-0.2-0.2-0.2-0.3-0.4-0.5c0.1-0.9,0.1-2-0.1-2.9c-0.1-0.5-0.2-1-0.4-1.5c-0.1-0.2-0.2-0.5-0.2-0.7
			c-0.1-0.2-0.2-0.5-0.2-0.7c-0.1-0.3,0.2-0.5,0.3-0.7c0.2-0.2,0.3-0.3,0.5-0.6c0.2-0.2,0.5-0.6,0.4-0.9c-0.1-0.2-0.2-0.3-0.3-0.4
			c-0.2-0.1-0.2-0.2-0.4-0.2c-0.4-0.1-0.8,0.3-1,0.6c-0.2,0.2-0.5,0.4-0.7,0.6c-0.2,0.2-0.3,0.3-0.5,0.5c-0.2,0.2-0.2,0.6,0.1,0.9
			l0,0c0.1,0.4,0.2,0.9,0.3,1.3c0.1,0.5,0.2,0.9,0.3,1.3c0.2,0.9,0.2,1.7,0.2,2.7c-0.2-0.1-0.4-0.2-0.6-0.2s-0.6,0.2-0.6,0.4
			c-0.6,0-0.9,0.6-1.2,1c-0.1,0.2-0.2,0.3-0.3,0.5c-0.1,0.1-0.2,0.2-0.2,0.3c0,0.2,0,0.4,0,0.6c-0.1,0.2-0.1,0.3-0.1,0.5
			c-0.1,0.4,0.1,0.8,0.1,1.1c0,0.4-0.2,0.7-0.2,1.1c-0.2,0.7,0,1.4,0.2,2c0,0.1,0,0.1,0,0.2s-0.1,0.1-0.1,0.2c0,0,0,0-0.1,0.1
			c0,0,0,0-0.1,0.1c0,0,0,0-0.1,0c-0.4-0.6-1-1.1-1.7-1.6c-0.3-0.2-0.6-0.5-0.9-0.8c-0.3-0.4-0.6-0.8-0.8-1.2
			c-0.2-0.3-0.6-0.6-0.9-0.9s-0.7-0.6-0.9-0.9c-0.2-0.5-0.2-0.9-0.3-1.4c-0.1-0.5-0.2-0.9-0.4-1.4c-0.3-1-0.6-2-0.8-3.1
			c0.2-0.2,0.4-0.2,0.6-0.4c0.2-0.1,0.4-0.2,0.6-0.5c0.3-0.4,0.6-0.8,0.8-1.3v-0.1c-0.1,0-0.2-0.1-0.2-0.2V316c-0.2-0.1-0.4,0-0.6,0
			c-0.2,0-0.4,0.1-0.6,0.1c-0.4,0.1-0.7,0.3-1,0.6c-0.3,0.2-0.6,0.6-0.8,0.9c-0.2,0.2-0.4,0.5-0.5,0.8l0,0v0.1c0,0,0,0,0,0.1l0,0
			c0,2.1,0.4,4.2,0.8,6.3c0.1,0.2,0.1,0.6,0.2,0.8c0.1,0.2,0.2,0.4,0.2,0.6c0.2,0.5,0.6,0.9,0.9,1.3c0.6,0.9,1.3,1.7,1.9,2.4
			c0.3,0.5,0.7,0.9,1.1,1.3c0.1,0.2,0.2,0.2,0.3,0.4c-0.2,0.6-0.9,2-1,2.4c-0.2,0.3-0.2,0.7-0.2,1c0.1,0.2,0.2,0.5,0.3,0.7
			c0.1,0.1,0.2,0.2,0.2,0.3c0.2,0.2,0.3,0.3,0.4,0.5s0.1,0.3,0.1,0.5s0,0.2,0,0.4c0,0.3-0.1,0.6-0.2,0.9c-0.2,0.8-0.3,1.5-0.2,2.2
			c0.2,0.8,0.5,1.6,0.4,2.4c0,0.8-0.2,1.7-0.4,2.4s-0.2,1.6-0.3,2.4c-0.1,0.9-0.1,1.8-0.1,2.8c0,0.8,0.1,1.6,0.4,2.3
			c0,0.1,0,0.1,0,0.2c0.1,0.2,0.2,0.4,0.2,0.6c0.2,0.5,0.6,0.8,0.9,1.2c0.8,1,1.4,2.1,2.1,3.2c0.2,0.3,0.4,0.6,0.6,0.9
			c0.2,0.2,0.3,0.6,0.5,0.8c-0.4,0.3-0.6,0.9-0.5,1.3c0.1,0.2,0.2,0.4,0.4,0.6s0.6,0.2,0.9,0.2c0.3,0.1,0.6,0.2,0.9,0.4
			c0.2,0.2,0.6,0.1,0.8,0.1s0.6,0.1,0.6-0.2c0.1-0.1,0-0.2,0-0.4s0-0.3,0-0.5c0-0.4-0.1-0.9-0.2-1.3c0,0,0,0,0-0.1
			c0.1-0.3-0.1-0.7-0.2-1s-0.2-0.6-0.3-0.9c-0.2-0.6-0.5-1.3-0.8-2c-0.2-0.6-0.6-1.3-0.9-1.9c-0.2-0.3-0.3-0.6-0.5-0.9
			c-0.2-0.3-0.3-0.7-0.3-1c0,0,0-0.1-0.1-0.1H424c0.1-0.2,0-0.4-0.2-0.5c0-0.1,0-0.1,0-0.2c0-0.2-0.2-0.4-0.1-0.6
			c0.1-0.5,0.2-1,0.4-1.5c0.3-0.6,0.7-1.1,1.2-1.7c0.1-0.1,0.2-0.2,0.2-0.2c0.1-0.1,0.2-0.2,0.2-0.3c0.1-0.1,0.1-0.1,0.1-0.2l0,0
			c0.5,0.7,0.9,1.6,1.1,2.4c0.3,0.9,0.3,1.8,0.7,2.7c0.3,0.9,0.9,1.7,1.4,2.5c0.6,0.9,1.1,1.7,1.7,2.5c0.6,0.8,1.1,1.6,1.7,2.4
			c0.3,0.4,0.6,0.8,0.9,1.2s0.6,0.8,0.9,1.2c0.3,0.3,0.7,0.2,1,0c0.4-0.1,0.8-0.2,1.1-0.6C436.6,361,436.7,360.6,436.6,360.4z"/>
		<path class="st2" d="M394,331.1c0-0.1,0-0.1,0-0.2s0-0.2,0-0.2c0-0.2-0.1-0.2-0.1-0.4c-0.1-0.2-0.1-0.4-0.2-0.6c0,0,0.1,0,0.1-0.1
			c0-0.2-0.2-0.4-0.4-0.6c-0.1-0.1-0.2-0.2-0.3-0.3c0,0-0.1-0.1-0.1-0.2c0,0,0-0.1-0.1-0.1c-0.1-0.1-0.2-0.1-0.2-0.2
			c-0.1-0.1-0.2-0.1-0.2-0.2c-0.2-0.1-0.2-0.2-0.4-0.2c-0.2-0.1-0.4-0.2-0.6-0.2s-0.6,0-0.8,0.1s-0.6,0.2-0.8,0.2
			c-0.1,0-0.2,0.1-0.2,0.1c-0.1,0.1-0.2,0.2-0.3,0.2c-0.1,0.1-0.2,0.2-0.2,0.3c-0.1,0.2-0.2,0.3-0.2,0.4c-0.1,0.2-0.2,0.6-0.4,0.8
			c-0.1,0.2-0.2,0.3-0.2,0.5c0,0.2,0,0.5,0.1,0.7c-0.2,0.1-0.5,0.2-0.6,0.5c-0.6-0.2-1.1-0.2-1.7-0.1c-0.5-0.1-0.9-0.1-1.3,0.1
			c-0.3,0.1-0.6,0.2-0.9,0.4c-0.3,0.2-0.7,0.3-1,0.4c-0.3,0.1-0.6,0.2-0.9,0.3c-0.2,0.1-0.3,0.2-0.6,0.2c-0.2,0-0.3,0-0.5,0
			c-0.6,0.1-1.1,0.4-1.4,0.9c-0.4,0-0.7,0.1-1.1,0.2c-0.6,0.2-1,0.7-1.6,1.1c-0.4,0.3-0.7,0.7-1,1.1c-0.3,0.6-0.8,1.1-1.3,1.6
			c-0.2-0.2-0.6-0.2-0.9-0.2c-0.4,0.1-0.9,0.2-1.3,0.2c-0.6,0.1-1.1-0.1-1.7-0.1c-0.2,0-0.4,0-0.5,0.2c-0.1,0.2,0.3,0.3,0.4,0.4
			c0.2,0.2,0.3,0.3,0.5,0.5s0.2,0.3,0.4,0.5c0.2,0.2,0.6,0.3,0.9,0.4c0.2,0,0.2,0.1,0.4,0.1c0.2,0.1,0.5,0.1,0.6,0.1
			c0.2,0,0.2,0,0.4-0.1c0.2,0,0.4,0,0.6,0c-0.3,0.6-0.2,1.3,0.1,2c0.3,0.8,0.7,1.5,1.1,2.2s0.9,1.3,1.4,2c0.5,0.6,0.8,1.4,1,2.1
			c0.2,0.4,0.2,0.8,0.4,1.2c0.1,0.2,0.2,0.6,0.5,0.6c-0.1,0.2-0.1,0.2,0,0.4c-0.7,0.2-1.4,0.6-2,0.9c-0.3,0.2-0.7,0.4-1,0.6
			s-0.6,0.5-0.9,0.7c-0.2,0.1-0.3,0.2-0.5,0.2c-0.2,0-0.3,0-0.4,0.1c-0.2,0.1-0.2,0.3-0.4,0.3c-0.2,0.1-0.4,0.1-0.6,0.1
			c-0.3,0.1-0.6,0.2-0.9,0.4c-0.3,0.2-0.5,0.6-0.8,0.8c-0.5,0.3-1.2,0.4-1.3,1l0,0c-0.1,0.2,0,0.4,0.1,0.6c0.1,0.2,0.2,0.6,0.4,0.8
			c0.2,0.3,0.3,0.7,0.6,1c0.2,0.3,0.4,0.6,0.6,0.9c0.1,0.2,0.2,0.2,0.4,0.4c0.2,0.2,0.2,0.3,0.4,0.5c0.2,0.2,0.6,0.2,0.9,0.2
			c0.4,0.1,0.8,0.1,1.2,0.1c0.2,0,0.6,0.1,0.7-0.2c0.1-0.2-0.1-0.6-0.2-0.7c-0.2-0.2-0.3-0.3-0.6-0.3c-0.2-0.2-0.7-0.1-0.9-0.5
			c-0.1-0.2-0.1-0.6,0-0.8c0-0.1,0-0.2,0-0.3c0-0.2,0-0.2,0.1-0.3c0.2-0.2,0.5-0.3,0.7-0.4c0.1,0,0.2,0,0.2-0.1s0.2-0.1,0.2-0.2
			c0.1-0.1,0.2-0.1,0.3-0.2c0.1,0,0.2-0.1,0.3-0.1c0.2-0.2,0.6-0.3,0.8-0.4c1-0.6,2-1,3.2-1.4c1-0.4,2-0.7,2.9-1.4
			c0.2-0.2,0.4-0.3,0.6-0.6s0.2-0.5,0.2-0.7c0-0.6,0-1.1,0-1.7c0,0,0,0,0.1,0.1c0.1,0.1,0.2,0.2,0.3,0.2c0.1,0.1,0,0.2,0,0.3
			c0,0.2,0,0.5-0.1,0.7c0,0.5-0.1,0.9-0.1,1.3c-0.1,0.9-0.1,1.8-0.1,2.7s0.2,1.7,0.2,2.6c0,1-0.1,2-0.2,3.1c0,0,0,0.1,0.1,0.1
			c0.2,0.2,0.8,0.3,0.9,0.4c0.7,0.2,1.4,0.6,2.2,0.6c0.9,0.1,1.9,0,2.8-0.1c0.3,0,0.8,0,0.9-0.3c0.2-0.2,0.1-0.6-0.1-0.9
			c-0.2-0.3-0.6-0.4-1-0.5c-0.2,0-0.3,0-0.6,0c-0.3-0.2-0.6-0.4-0.7-0.6c-0.3-0.3-0.6-0.6-0.8-1c-0.1-0.2-0.2-0.2-0.2-0.4
			c-0.1-0.3,0-0.7,0-1c0-0.6-0.1-1.3-0.2-2c-0.1-0.7-0.2-1.3,0-2s0.2-1.3,0.4-2s0.3-1.3,0.4-2c0.1-0.6-0.1-1-0.3-1.6
			c-0.1-0.2-0.2-0.5-0.4-0.7c-0.2-0.2-0.5-0.5-0.7-0.7c-0.5-0.5-0.9-1-1.3-1.6c2.5-2.2,4.6-5,5.8-8c0.1-0.2,0.2-0.5,0.4-0.7
			c0.1-0.2,0.2-0.3,0.2-0.4c0-0.2-0.1-0.2-0.2-0.3c-0.1-0.2,0-0.3,0.2-0.5c0.2,0.1,0.4,0.1,0.6,0.2c0.2,0,0.4,0,0.6,0
			c0.2,0,0.4,0.1,0.6,0.1c0.3-0.1,0.3-0.6,0.6-0.7c0.1-0.1,0.2-0.2,0.2-0.3c0-0.1,0-0.1-0.1-0.2c0.1-0.1,0.1-0.2,0.1-0.3
			c0.1-0.1,0.1-0.2,0.1-0.4c0,0,0.1,0,0.1,0.1c0.1,0,0.2,0,0.3,0c0.1-0.1,0.2-0.2,0.2-0.2c0-0.2,0-0.2-0.1-0.4c0-0.2,0-0.2,0-0.4
			c0-0.1,0-0.2,0-0.2c0-0.1-0.1-0.1-0.1-0.2S394,331.2,394,331.1c0.1,0,0.2,0,0.2-0.1s0-0.1,0-0.2l0,0
			C394,331.1,394,331.1,394,331.1z"/>
	</g>
	<g>
		<path d="M395.8,324.4c-6.7,3.3-13.4,6.8-20.1,10.2c-7.2,3.6-14.3,7.3-21.5,11c-6.1,3.1-12.1,6.1-18.1,9.1c-2,1-4.2,2-6.2,3
			c-0.7,0.3-1.5,0.6-2.2,1h-0.1c-0.1,0-0.2,0-0.2,0c-0.7,0.3-1.5,0.5-2.2,0.2c-0.9-0.4-1.6-0.9-2.3-1.7c-1.4-1.5-2.4-3.4-3.4-5.2
			c-1.3-2.2-4.2-6.2-1.9-8.5c1.3-0.7,2.5-1.5,3.7-2.2c2.2-1.3,4.4-2.8,6.6-4.2c6-3.8,12-7.6,18-11.4c6.9-4.3,13.7-8.7,20.5-13
			c6-3.8,12-7.6,18-11.3c3.5-2.3,7.2-4.5,10.8-6.7c0.2-0.1,0.2-0.2,0.4-0.2c0.1,0.9,0.4,1.7,0.7,2.4c0.2,0.6,0.6,1.3,0.8,1.8
			c0.1,0.2,0.2,0.3,0.2,0.5c0.6,1.3,1.2,2.4,1.8,3.6c2.1,4,4.3,8,6.7,11.7c0.9,1.3,1.8,2.7,2.9,3.8
			C404.4,320.1,400.1,322.2,395.8,324.4z M411.4,317.6c-0.3,0.2-0.7,0.2-1,0.4c0-0.1-0.1-0.1-0.1-0.2c-2.7-2.4-4.6-5.8-6.5-8.8
			c-1.2-2-2.3-4-3.5-6.1c-0.7-1.3-1.4-2.4-2-3.7c-0.1-0.4-0.2-0.7-0.4-1.1s-0.4-0.8-0.6-1.2c-0.4-1.1-0.8-2.2-1.3-3.2l0,0
			c0.3-0.2,0.6-0.5,0.9-0.7c0.9-0.7,1.7-1.3,2.6-2c0.2-0.2,0.5-0.4,0.8-0.6c-0.2,1.5,0.4,3.2,1.1,4.5c1.2,2.4,2.5,4.6,3.8,6.9
			c2,3.8,4.1,7.6,6.6,11.1c0.9,1.3,2,2.6,3.1,3.7C413.8,316.8,412.5,317.2,411.4,317.6z M417.9,315.5c-0.6,0.2-1.1,0.3-1.7,0.6l0,0
			c-2.4-2.3-4.3-5.1-6.1-8c-2.4-4-4.8-8.1-7.1-12.2c-0.6-1-1.2-2-1.5-3.2c-0.2-0.9-0.5-1.9-0.6-2.8c0.4-0.3,0.7-0.6,1.1-0.9
			c0.4-0.3,0.8-0.6,1.3-0.9c0.3-0.2,0.6-0.3,0.9-0.5c0.4,1.7,1.5,3.3,2.3,4.8c1,1.9,2,3.8,3.2,5.7c2.1,3.7,4.3,7.4,6.5,11
			c1.2,1.9,2.4,3.8,3.6,5.7C419.3,315.1,418.6,315.3,417.9,315.5z M431.8,312.8c-1.5,0.6-3.1,0.9-4.6,1.3c-1.3,0.3-2.8,0.5-4.1,0.4
			c-0.6,0-1-0.1-1.5-0.2c-0.2-0.1-0.4-0.2-0.6-0.2H421c-4.6-6.9-8.8-14-12.8-21.3c-0.6-1-1.1-2-1.7-3.1c-0.6-1-1.1-2-1.5-3.1
			c0-0.1-0.1-0.2-0.1-0.2c0-0.1,0-0.2,0.1-0.2c0.3-1,0.9-2,1.7-2.8c1.7-2.2,3.8-4,6-5.8c0.9-0.7,1.8-1.4,2.8-2.1
			c0.2,0.6,0.4,1.3,0.7,1.8c0.9,1.8,1.7,3.8,2.5,5.6c1.3,2.8,2.8,5.4,4.3,8c2.9,5,5.9,10,8.9,14.9c1.1,1.8,2.3,3.7,3.5,5.5
			C434.3,311.9,433,312.4,431.8,312.8z M439.1,310.5L439.1,310.5C439.1,310.5,439.1,310.6,439.1,310.5c-0.1,0.1-0.1,0.2-0.2,0.2l0,0
			c-0.1,0.1-0.1,0.1-0.2,0.2l0,0l0,0l0,0c-0.1,0.1-0.1,0,0,0c0,0-0.1,0-0.1,0.1c-0.2,0.2-0.6,0.3-0.9,0.5c-0.2,0.1-0.2,0.2-0.4,0.2
			l0,0h-0.1h-0.1l0,0c0-0.1-0.1-0.2-0.2-0.2c-0.2-0.3-0.3-0.4-0.6-0.8s-0.6-0.8-0.9-1.2c-0.7-1-1.4-2.1-2.1-3.2
			c-1.7-2.6-3.2-5.2-4.8-7.9c-2.6-4.3-5.3-8.6-7.6-13c-1.2-2.1-2.2-4.3-3.3-6.5c-0.5-0.9-0.9-1.8-1.3-2.8c-0.2-0.4-0.3-0.8-0.3-1.3
			c0-0.3,0.1-0.6,0.2-0.7c0.2-0.1,0.2-0.1,0.4-0.2c0.3-0.1,0.6-0.3,0.9-0.4c0.6-0.2,1.2-0.3,1.7-0.2l0,0c0.2,1,0.8,2,1.2,3
			c0.6,1.3,1.2,2.5,1.8,3.8c1.3,2.5,2.6,5,3.9,7.4c2.7,4.8,5.7,9.5,8.4,14.3c1.6,2.8,3,5.5,4.4,8.4c0,0,0,0.1,0.1,0.1
			c0,0.1,0,0.2,0,0.2C439.1,310.4,439.1,310.5,439.1,310.5z M448.9,300c-1.9,3.8-5,7-9,8.7c-4.8-9.6-11.2-18.4-16.2-28
			c-0.7-1.3-1.4-2.8-2-4.1c-0.3-0.7-0.6-1.4-1-2.2c-0.2-0.5-0.4-0.9-0.6-1.3c0.1-0.1,0.2-0.2,0.3-0.2c0.2-0.1,0.3-0.2,0.5-0.3
			c0.4-0.2,0.7-0.4,1.1-0.6c0.6-0.3,1.3-0.6,1.9-0.8c0.9-0.3,1.9-0.6,2.8-0.8c2.4-0.6,5.1-0.9,7.6-0.3c4.4,1,8.4,3.8,11.2,7.2
			c2.7,3.2,4.6,7,5.2,11.1C451.2,292.4,450.7,296.5,448.9,300z M394.4,301.4c-0.8,0.2-1.6,0.6-2,1.3c-0.1,0.1-0.1,0.2-0.1,0.2
			c-0.2,0.2-0.4,0.6-0.4,0.9c-0.1,0.4-0.2,0.9-0.2,1.3c0,0.6,0.5,1.2,0.9,1.6c0.6,0.5,1.2,0.9,2,0.9c0.8,0.1,1.7-0.3,2.2-0.8
			c0.5-0.4,0.9-0.9,1-1.4c0.3-1.1,0-2.4-0.9-3.2C396.3,301.5,395.4,301.2,394.4,301.4z M396.8,304.6L396.8,304.6L396.8,304.6
			c0,0.1,0,0.2-0.1,0.2c0,0.1-0.1,0.2-0.1,0.2v0.1c-0.1,0.2-0.2,0.2-0.2,0.4c-0.4,0.4-1,0.6-1.5,0.8c-0.2,0.1-0.5,0.1-0.7,0
			s-0.5-0.2-0.6-0.4l-0.1-0.1c-0.1-0.1-0.1-0.1-0.2-0.2s-0.2-0.2-0.2-0.2c-0.1-0.1-0.1-0.2-0.2-0.2c0-0.1-0.1-0.1-0.1-0.2V305v-0.1
			c0-0.1,0-0.2,0-0.2c0-0.1,0-0.2,0-0.2c0-0.1,0-0.1,0-0.2v-0.1c0,0,0,0,0-0.1c0.1-0.2,0.1-0.5,0.2-0.7c0.1,0,0.2-0.1,0.3-0.2
			c0.3-0.3,0.8-0.6,1.3-0.7c0.2,0,0.4-0.1,0.6,0c-0.1,0,0.2,0,0.2,0c0.1,0,0.2,0,0.2,0.1c0.2,0.1,0.2,0.2,0.4,0.2
			c0.4,0.2,0.6,0.6,0.8,0.9c0,0.1,0.1,0.2,0.1,0.2v0.1c0,0.1,0,0.1,0,0.2C396.8,304.3,396.8,304.4,396.8,304.6z"/>
		<path d="M438.9,310.8L438.9,310.8C438.9,310.8,438.9,310.9,438.9,310.8C438.9,310.9,438.9,310.8,438.9,310.8z"/>
	</g>
</g>
</svg>
