<?xml version="1.0" encoding="utf-8"?>
<!-- Generator: Adobe Illustrator 25.0.0, SVG Export Plug-In . SVG Version: 6.00 Build 0)  -->
<svg version="1.1" xmlns="http://www.w3.org/2000/svg" xmlns:xlink="http://www.w3.org/1999/xlink" x="0px" y="0px"
	 viewBox="0 0 792 612" style="enable-background:new 0 0 792 612;" xml:space="preserve">
<style type="text/css">
	.st0{display:none;}
	.st1{fill:#231F20;}
	.st2{fill:#FFFFFF;}
</style>
<g id="referencias" class="st0">
</g>
<g id="vector">
	<g>
		<g>
			<path class="st1" d="M314.5,443.1c0,0.7,0.6,0.9,1,0.8c0.1,0.1,0.2,0.1,0.3,0.1c6.4,0.4,12.9,0.3,19.4,0.5
				c6.5,0.1,13,0.3,19.5,0.4c3,0.1,6,0.1,9,0.2c0.3,0.3,0.9,0.4,1.3,0c9.6,0.2,19.3,0.4,28.9,0.6c7.3,0.1,14.6,0.3,21.9,0.4
				c0.5,0,0.7-0.4,0.7-0.8c0.1-0.1,0.1-0.2,0.1-0.3c0.4-1.8,0.3-3.8,0.4-5.7c0.1-2,0.2-4,0.3-6c0.1-3.8,0.4-7.7,0-11.5
				c0.2-0.5-0.1-1.3-0.8-1.2c-26.1,0.2-52.3-0.7-78.4-1.1c-7.4-0.1-14.9-0.2-22.3-0.1c-0.4,0-0.6,0.3-0.7,0.6
				c-0.1,0.1-0.2,0.2-0.2,0.4c-0.2,3.8,0,7.7-0.1,11.5C314.8,435.6,314.5,439.4,314.5,443.1z M415.7,422.3
				c-0.3,3.6-0.2,7.2-0.3,10.7c-0.1,1.9-0.2,3.8-0.3,5.7c-0.1,1.8-0.4,3.8-0.3,5.6c-16.5-0.3-33-0.7-49.5-1c0.4-7.3,1-14.5,1-21.8
				c9.4,0.2,18.8,0.4,28.2,0.6C401.5,422.3,408.6,422.4,415.7,422.3z M355.3,421.4c3.2,0.1,6.3,0.1,9.5,0.2
				c-0.8,7.2-1,14.5-1.3,21.8c-8.6-0.2-17.2-0.3-25.8-0.5c-7.2-0.1-14.4-0.5-21.6-0.4c0.3-3.5,0.2-7.1,0.2-10.6
				c0-3.7,0.3-7.5-0.1-11.1C329.3,421,342.3,421.1,355.3,421.4z"/>
			<path class="st1" d="M436.4,436c-0.1-0.3-0.3-0.5-0.6-0.4c0,0-0.1,0-0.1,0c-0.6-0.1-1.1,0-1.7,0c-0.5,0-1.1,0-1.6,0c-1,0-2,0-3,0
				c-0.1-1.6-0.2-3.2-0.5-4.8c-0.1-0.3-0.4-0.5-0.6-0.5c-1.5-0.1-3-0.2-4.5-0.2c-0.7,0-1.8-0.2-2.6-0.1c0-1.4,0-2.9,0.1-4.3
				c0-2.8,0.3-5.8,0-8.6c0-0.3-0.2-0.4-0.3-0.5c-0.1-0.1-0.2-0.2-0.4-0.2c-0.8-0.5-1.6-0.8-2.4-1.2c0.2-8.8,0.4-17.6,0.6-26.5
				c0-1.6,0.5-3.7-0.2-5.2c-0.6-1.4-2-1.7-3.3-1.7c-2-0.1-4.1-0.1-6.1,0c0.3-23,0.4-46,0.6-69.1c0.2-32.7,0.4-65.5,0.9-98.2
				c0.3-18,0.5-36,1.1-54c0.1,0,0.3,0,0.4-0.1c0.3-0.1,0.6-0.3,0.8-0.6c0.2-0.3,0.2-0.6,0.2-0.9c0-0.4,0-0.9-0.1-1.3
				c-0.1-0.8-0.5-1.7-1.3-2.1c-1.1-0.6-2.2-0.1-2.9,0.8c-0.8,1.1-0.6,2.6-0.3,3.8c0.1,0.4,0.5,0.6,0.9,0.5c0,0,0,0,0.1,0
				c0,0,0.1,0,0.1,0c0,0,0,0,0,0c-0.6,32.4-1.2,64.8-1.4,97.2c-0.3,32.9-0.4,65.7-0.7,98.6c-0.1,7.1-0.1,14.2-0.2,21.2
				c-0.3-0.2-0.6-0.4-0.9-0.5c-1.1-0.4-2.4-0.2-3.5-0.2c-1.7,0-3.5-0.1-5.2-0.1c-6.4-0.1-12.9-0.2-19.3-0.3
				c-13.3-0.2-26.6-0.2-39.8-0.3c-26.6-0.2-53.2-0.2-79.8-0.5c-7.2-0.1-14.5-0.2-21.7-0.3c-1.8,0-3.7,0-5.5-0.1
				c-1.2,0-2.5-0.2-3.7-0.1c-2,0.2-2.8,2-3.3,3.7c-0.2,0-0.5,0-0.7,0c-3.5,0-7.4,0.7-8.4,4.6c-0.4,1.8-0.3,3.7-0.2,5.6
				c0,2.3,0.1,4.6,0.1,7c0,4.8,0,9.5,0,14.3c-2.1,0.3-4.1,0.6-6.2,0.8c-1.6,0.2-3.8,0-3.7,2.2c0,1.1,0.2,2.3,0.2,3.4
				c0.3,6.4,0.4,12.9,0.4,19.3c0,2.4,0,4.9,0.1,7.3c0,0.1,0,0.1,0,0.2c-0.5,13.1-0.5,26.3-0.6,39.4c-0.1,13.2-0.2,26.5-0.3,39.7
				c0,7.5-0.1,15-0.1,22.6c0,0.7,0.7,0.9,1.1,0.7c26.4,1.7,52.8,2.6,79.2,3.5c28.1,1,56.2,1.7,84.3,2.4c16.2,0.4,32.3,0.8,48.5,1.2
				c0,0,0,0,0,0c0,0,0,0,0,0c0,0,0,0,0,0c0.1,0,0.2,0,0.3-0.1c0,0,0.1,0,0.1-0.1c0.2-0.1,0.4-0.4,0.4-0.7c0.4-26.5,0.8-53,1.2-79.6
				c0-2.3,0.1-4.6,0.1-6.9c1.3,0,2.7,0,4,0.1c1.5,0.1,3.2,0.3,4.7,0c0.2,0,0.4-0.1,0.5-0.3c0.1-0.1,0.1-0.2,0.1-0.3
				c0.2-1.1,0.2-2.3,0.2-3.5c0.9,0.1,1.9,0.2,2.8,0.2c1.2,0.1,2.4,0.1,3.6,0c0.2,0,0.3-0.1,0.4-0.2c0.2-0.1,0.4-0.3,0.4-0.7
				c0-4.2,0-8.5,0-12.7C436.8,444.2,437.2,440,436.4,436z M401.1,475.2c1.3,2.1,2.7,4.1,3.8,6.3c1.4,2.7,2,5.5,2.4,8.4
				c1,6.1,1.2,12.4,0.1,18.4c-1.9,10.6-9.2,19.9-17.9,25.9c-4.5,3.1-9.4,6.1-14.8,7.3c-5.2,1.2-10.8,1.2-16.1,0.4
				c-7.3-1.1-14.5-3.8-20.7-7.8c-6.6-4.3-11.5-11.3-14.6-18.5c-1.9-4.4-3.2-9.2-3.5-14c-0.3-4.7,0.4-9.6,1.5-14.2
				c2.4-9.9,7.9-18.3,16.3-24c8.7-5.8,19.3-8.9,29.8-8.7c3.3,0.1,6.6,1,9.7,2c7.2,2.4,13.8,6.6,19,12.2c1.7,1.8,3.2,3.8,4.5,5.8
				C400.7,475.1,400.9,475.2,401.1,475.2z M383.9,539.8c5-2.7,10-6.1,13.9-10.3c3.7-4,6.8-8.7,8.9-13.7c2.3-5.3,3-11.1,2.9-16.9
				c-0.1-5.8-0.7-12.3-3.3-17.5c-1.2-2.4-2.7-4.5-4.1-6.7c0-0.2,0-0.4-0.1-0.6c-7.1-11.4-20.3-19.9-33.8-21
				c-3.5-0.3-7.1,0.1-10.5,0.7c-5.3,0.9-10.6,2.5-15.4,4.9c-9.5,4.7-16.8,12.1-20.8,21.9c-3.7,9.2-5,19.9-2.3,29.5
				c2.5,9.2,7.9,18.3,15.5,24.2c5.2,4,11.6,6.7,17.9,8.4c0.7,0.2,1.3,0.3,2,0.5c-6.6-0.2-13.2-0.5-19.8-0.7
				c-27.4-0.9-54.9-1.9-82.3-2.8c-15.4-0.5-30.8-1-46.2-1.5c0-24.1,0.1-48.2,0.4-72.2c0.1-7.3,0.3-14.6,0.2-21.9
				c1.7,0,3.4,0.1,5,0.2c-0.6,21-0.3,42-0.2,63c0,2,0,4,0,6c0,0.4,0.3,0.8,0.8,0.8c8.9,0.2,17.7,0.5,26.5,0.8
				c16.3,0.5,32.6,1,48.9,1.6c6.9,0.3,13.8,0.6,20.7,0.9c0.4,0,0.8-0.4,0.8-0.8c0.3-11.8,0.8-23.5,1-35.3
				c0.1-10.9,0.1-21.8-0.2-32.7c6.7,0.7,13.6,0.6,20.4,0.9c7.2,0.2,14.3,0.4,21.5,0.6c14.3,0.4,28.7,0.6,43,0.7c8,0.1,16,0.1,24,0.1
				c-0.9,13.1-0.9,26.3-1.1,39.4c-0.2,13.2-0.5,26.4-0.7,39.6c-0.1,4.6-0.2,9.2-0.2,13.8c-14.7,0.5-29.3,0.5-44,0.1
				C377,542.9,380.5,541.6,383.9,539.8z M222.1,411c0,0.7,0.1,1.3,0.2,2c-3.9-0.1-7.8-0.3-11.7-0.6C214.4,412,218.3,411.4,222.1,411
				z M219.9,394.2c0-2.6,0.1-5.2,0.2-7.7c0-0.4,0.1-0.9,0.1-1.3c0.1-0.6-0.1-1.6,0.1-2.2c0.5-1.3,2.5-1.3,3.8-1.2
				c0.1,1,0.2,2.1,0.9,2.9c0.5,0.6,1.1,0.9,1.9,0.9c1.8,0.1,3.6,0,5.4,0c6.3,0,12.6-0.1,19,0c13.6,0.2,27.2,0.9,40.8,1.2
				c26.9,0.6,53.8,0.7,80.7,0.8c7.6,0,15.3,0.1,22.9,0.2c1.9,0,3.8,0,5.7,0.1c1,0,1.9,0,2.9,0c0.7,0,1.5,0.1,2.2-0.1
				c0.2-0.1,0.4-0.1,0.5-0.2c-0.1,8-0.2,15.9-0.3,23.9c0,0.1,0,0.2,0.1,0.3c-9,0.2-18.1,0.1-27.1,0.1c-7.3,0-14.7,0-22,0
				c-9.9,0-19.7-0.2-29.6-0.5c-5.1-0.1-10.1-0.4-15.2-0.4c0.1-1.3,0.1-2.7-0.1-4c-0.1-0.4-0.5-0.6-0.8-0.6
				c-26.2-0.7-52.4-0.5-78.6-1c-1.8,0-3.5-0.1-5.3-0.1c-0.9,0-1.9,0-2.8-0.1c-0.7,0-1.5-0.2-2.1,0.1c-1.1,0.4-1.1,1.5-1,2.5
				c0,0.5,0.1,0.9,0.1,1.4c-0.7,0.1-1.4,0.2-2.2,0.3C220,404.5,219.8,399.4,219.9,394.2z M416.3,416.2c-19.5-0.3-39.1-0.3-58.6-0.5
				c-15-0.1-30-0.4-44.9-0.7c-0.1-0.8-0.1-1.7,0-2.5c9,0.6,18,0.6,27,0.8c12.2,0.2,24.4,0.2,36.6,0.2c11.2,0,22.4-0.4,33.6-0.2
				c0,0,0,0,0,0c0.6,0.4,1.5,0.6,2.1,1c0.8,0.4,1.5,0.7,2.3,1.1C415,415.7,415.7,416,416.3,416.2z M273.4,414.3c0-0.5,0-0.9,0.1-1.4
				c0-0.8,0.1-1.6,0.1-2.4c0-0.8,0.1-1.6,0-2.3c0-0.2,0-0.5-0.1-0.7c5.8,0.1,11.7,0.2,17.5,0.3c2.2,0,4.4,0.1,6.7,0.1
				c-0.1,2.3-0.2,4.6-0.4,6.9C289.4,414.6,281.4,414.5,273.4,414.3z M270.4,414.3c-3.2-0.1-6.3-0.1-9.5-0.2c0-0.4,0-0.8,0-1.2
				c0-0.7,0-1.3,0-2c0-1.2,0-2.3-0.1-3.5c3.8,0,7.6,0.1,11.4,0.1c0,0.3,0,0.5,0,0.8c0,0.8,0,1.5-0.1,2.3c0,0.8-0.1,1.6-0.1,2.3
				c0,0.4-0.1,0.9-0.1,1.4C271.4,414.3,270.9,414.3,270.4,414.3z M223.6,413.1c0-0.9-0.1-1.8-0.1-2.7c0.1-0.3,0.1-0.6,0-0.8
				c0-0.2,0-0.3,0-0.5c0-0.8-0.4-1.9,0.6-2.4c0.6-0.2,1.9,0.1,2.5,0.1c2.5,0.1,5.1,0.1,7.6,0.2c-0.1,1.1-0.1,2.1-0.1,3.2
				c0,0.6-0.1,1.3-0.1,1.9c0,0.5,0,0.9,0,1.4c-0.7,0-1.4,0-2.1-0.1C229,413.3,226.3,413.2,223.6,413.1z M235.5,412
				c0-0.6,0-1.3,0.1-1.9c0-1.1,0.1-2.1,0.1-3.2c3.8,0.1,7.6,0.1,11.4,0.2c-0.1,1.1-0.1,2.1-0.1,3.2c0,1.1,0,2.3,0,3.4
				c-3.9-0.1-7.7-0.2-11.6-0.3C235.5,413,235.5,412.5,235.5,412z M248.7,413.8c0,0,0-0.1-0.1-0.1c0,0,0,0,0,0c0.1-1,0-2.1-0.1-3.1
				c0-1.1,0-2.2,0-3.3c1.8,0,3.7,0.1,5.5,0.1c1.8,0,3.6,0,5.5,0.1c0.1,1.2,0.1,2.4,0,3.5c0,0.7-0.1,1.3-0.1,2c0,0.4-0.1,0.8-0.1,1.2
				C255.8,414,252.2,413.9,248.7,413.8z M299.1,407.9c4,0.1,8,0.2,12,0.3c0.3,2.2-0.1,4.6-0.1,6.8c-1,0-2,0-3-0.1
				c-3-0.1-6-0.1-9-0.2C299.1,412.5,299.2,410.2,299.1,407.9z M413.7,386.1c-0.2,3.1-0.3,6.2-0.4,9.4c-0.2,5.7-0.3,11.4-0.6,17.1
				c-0.6-0.3-1.3-0.7-2-0.8c-0.3-0.1-0.5,0-0.7,0.1c-0.6,0-1.1,0-1.7,0c0-0.1,0.1-0.2,0.1-0.3c0.2-8.8,0.4-17.7,0.5-26.5
				c0.9,0.1,1.8,0.1,2.7,0.1c0.4,0,1.9-0.1,2.2,0.2C413.6,385.2,413.7,385.9,413.7,386.1z M406.9,384.6c-0.1,0.2-0.1,0.3-0.2,0.5
				c-0.2,0.4-0.4,0.9-0.7,1.1c-0.6,0.3-1.8,0.1-2.5,0.1c-3.3,0-6.7-0.1-10-0.1c-6.5-0.1-13-0.1-19.5-0.1
				c-12.7-0.1-25.5-0.1-38.2-0.2c-25.7-0.2-51.4-0.6-77.1-1.6c-6.7-0.3-13.5-0.3-20.2-0.3c-3.5,0-6.9,0.1-10.4,0.1
				c-0.7,0-1.5,0.2-1.9-0.5c-0.3-0.4-0.4-1-0.4-1.5c-0.1-0.5-0.2-0.9-0.3-1.3c3.5,0,7,0.1,10.4,0.2c17.3,0.4,34.6,0.8,51.9,1.2
				c34.4,0.8,68.8,1.5,103.2,1.7c4.8,0,9.6,0,14.4,0c0.5,0,1,0,1.4,0C406.9,384.1,406.9,384.3,406.9,384.6z M213.8,414.1
				c4.6,0.2,9.1,0.4,13.7,0.5c12.6,0.4,25.2,0.7,37.7,1c2.4,0.1,4.9,0.1,7.3,0.1c0,0,0,0,0.1,0c0.1,0,0.1,0,0.2,0
				c8.4,0.2,16.8,0.3,25.2,0.5c0.1,0,0.2,0,0.2,0c0.1,0,0.1,0,0.2,0c1.8,0,3.6,0.1,5.5,0.1c15.4,0.3,30.8,0.6,46.2,0.8
				c20.8,0.2,41.6,0.2,62.4,0.5c2.4,0,4.9,0.1,7.3,0.1c0,0,0.1,0,0.1,0c0,0,0,0,0.1,0c-0.2,2.6-0.2,5.3-0.2,7.8c0,2.7-0.1,5.4-0.1,8
				c-0.1,5.1-0.2,10.3-0.3,15.4c-28.5,0-57.1-0.4-85.6-1.3c-3.9-0.1-7.9-0.3-11.8-0.4c-3.8-0.1-7.6-0.4-11.4-0.3c0-0.4,0-0.8,0-1.3
				c0-0.2,0-0.3-0.1-0.4c0-3.6-0.1-7.2-0.2-10.8c0-0.5-0.4-0.8-0.8-0.8c-3.4-0.1-6.7-0.2-10.1-0.3c-3.2-0.1-6.4-0.3-9.6-0.1
				c-2.9,0.1-5.4,0.2-8,1.6c-2.4,1.3-4.5,3.1-7.2,3.7c-2.1,0.5-4.3,0.4-6.5,0.4c-2.4,0-4.8,0-7.2-0.1c-4.9-0.1-9.8-0.2-14.7-0.4
				c-11-0.4-22.1-0.9-33.1-1.2c-0.4,0-0.8,0.4-0.8,0.8c0,1.5,0.1,3,0.1,4.5c-1.7-0.1-3.4-0.2-5-0.1c0.1-4.5,0-9,0-13.6
				c0-3.1-0.1-6.1-0.2-9.2c0-1.3-0.1-2.7-0.2-4c0-0.5-0.1-1-0.1-1.5c0-0.4,0-0.7,0.1-0.9C209,413.8,211.4,413.9,213.8,414.1z
				 M308.1,515.5c-13.8-0.9-27.6-1.2-41.4-1.6c-14.9-0.5-29.7-0.9-44.6-1.3c-2.9-0.1-5.8-0.2-8.7-0.2c-0.2-16.8-0.2-33.7-0.1-50.5
				c0-5.9,0.1-11.9,0.2-17.8c0-0.1,0-0.2,0-0.2c0.1-0.1,0.1-0.3,0.1-0.4c0-0.1,0-0.3-0.1-0.4c0.1-1.4,0-2.7,0.1-4.1
				c9.5,0.3,19.1,0.7,28.6,1.1c9.7,0.4,19.5,0.9,29.3,0.6c3-0.1,5.6-1,8.1-2.6c2.4-1.5,4.7-2.9,7.7-3c3.4-0.1,6.7-0.1,10.2,0
				c3.7,0.1,7.4,0.2,11.1,0.3c0.1,3.3,0.3,6.6,0.3,10c-0.1,0.1-0.1,0.3-0.1,0.4c0.3,11.8,0.4,23.5,0.3,35.3
				C308.8,492.6,308.7,504.1,308.1,515.5z M416,383.9c1.1,0.4,0.7,2.1,0.6,3.1c-0.3,9-0.6,18.1-0.8,27.1c-0.2-0.1-0.4-0.2-0.6-0.3
				c-0.2-0.1-0.4-0.2-0.7-0.3c0.4-6.9,0.4-13.7,0.6-20.6c0.1-1.7,0.1-3.4,0.2-5.1c0-0.9,0.4-2.2,0-3.1c-0.3-0.6-0.9-0.8-1.5-0.9
				C414.5,383.7,415.4,383.6,416,383.9z M411.4,159.1C411.4,159.1,411.4,159.1,411.4,159.1C411.4,159.1,411.4,159.1,411.4,159.1z
				 M410,156.8C410,156.9,410,156.9,410,156.8L410,156.8z M409.5,158c0-0.1,0-0.1,0-0.2c0,0,0,0.1,0,0c0-0.1,0-0.2,0.1-0.4
				c0,0,0-0.1,0-0.1c-0.1,0.2,0,0,0,0c0-0.1,0.1-0.2,0.1-0.2c0,0,0,0,0,0c0,0,0.1-0.1,0.1-0.1c0.1-0.1,0.1-0.1,0.2-0.2c0,0,0,0,0,0
				c0.1,0,0.1-0.1,0.2-0.1c0,0,0,0,0,0c0,0,0,0,0,0c0,0,0,0,0,0c0,0,0,0,0,0c0,0,0.1,0,0.1,0c0,0,0.1,0,0.1,0c0,0,0,0,0,0
				c0,0,0.1,0,0.1,0c0,0,0,0,0,0c0,0,0,0,0.1,0c0,0,0,0,0,0c0,0,0,0,0.1,0c0,0,0,0,0,0c0,0,0.1,0.1,0.1,0.1c0,0,0,0.1,0.1,0.1
				c0,0,0,0,0,0c0,0,0,0,0,0c0,0,0,0,0,0c0,0,0,0,0,0c0,0,0,0.1,0.1,0.1c0,0,0,0.1,0.1,0.1c0,0,0,0,0,0c0,0,0,0,0,0c0,0,0,0,0,0
				c0,0,0,0,0,0c0,0,0,0.1,0,0.1c0.1,0.2,0.1,0.3,0.1,0.5c0,0,0,0.1,0,0.1c0,0,0,0,0,0c0,0.1,0,0.1,0,0.2c0,0.2,0,0.4,0,0.5
				c0,0.1,0,0.1,0,0.2c0,0,0,0.1,0,0.1c0,0,0,0,0,0c-0.1,0-0.2,0-0.2,0c0,0,0,0,0,0c-0.1,0-0.1,0-0.2,0c-0.2,0-0.5,0-0.7,0
				c-0.2,0-0.4,0-0.7,0c0,0,0-0.1,0-0.1c0,0,0-0.1,0-0.1c0,0,0-0.1,0-0.1c0-0.1,0-0.3,0-0.4C409.5,158.2,409.5,158.1,409.5,158z
				 M226.9,376.8c0.7-0.4,1.9-0.1,2.7,0c3,0.2,5.9,0.2,8.9,0.3c6,0.1,12,0.2,18,0.3c12.4,0.1,24.9,0.2,37.3,0.3
				c25.1,0.1,50.2,0.2,75.4,0.4c6.9,0.1,13.9,0.1,20.8,0.2c3.3,0,6.7,0.1,10,0.2c1.6,0,3.6-0.2,5.2,0.1c1,0.2,1.5,1,1.8,2
				c0,0.4,0,0.8,0,1.2c-1.8,0-3.7,0.1-5.5,0.1c-18.1,0-36.2-0.2-54.2-0.4c-36.3-0.6-72.6-1.6-109-2.3c-4.3-0.1-8.5-0.2-12.8-0.3
				C225.8,378,226.2,377.1,226.9,376.8z M216.6,386.5c0-1.5,0-3.4,1.2-4.5c0.8-0.7,1.8-1.1,2.9-1.2c-0.1,0-0.2,0.1-0.3,0.1
				c-1.6,0.7-1.5,2.1-1.6,3.7c-0.1,2.5-0.3,5-0.3,7.6c-0.1,5.9-0.3,11.8,0,17.6c-0.7,0.1-1.4,0.2-2.1,0.3
				C216.9,402.2,216.6,394.4,216.6,386.5z M332.3,549.2c-27.5-0.8-55.1-1.7-82.6-2.8c-14.5-0.6-28.9-1.3-43.4-1.9c0-1.7,0-3.4,0-5.1
				c27.5,1,55,1.9,82.5,2.8c27.4,0.9,54.8,2,82.2,2.7c15.4,0.4,30.8,0.5,46.1-0.1c0,2.2-0.1,4.3-0.1,6.5
				C388.8,550.7,360.6,550,332.3,549.2z M426.3,464.2c-0.8,0-1.5,0-2.3-0.1c-1.3,0-2.6-0.1-3.9,0c0.1-4.6,0.3-9.1,0.6-13.7
				c0-0.1,0-0.1,0-0.2c0.1-5.5,0.1-11.1,0.2-16.6c0-0.8,0-1.7,0-2.5c0.9-0.1,2.3,0.1,3.1,0.2c1.1,0.1,2.3,0.1,3.4,0.2
				c0.1,0.4,0.1,0.7,0.2,1.1c-0.3,0-0.6,0-0.8,0c-0.5,0-1.1,0-1.6,0c-0.5,0-1.1,0-1.6,0c-0.3,0-0.6,0-0.9,0.1c-0.2,0-0.5,0-0.8,0.1
				c-0.1,0-0.1,0.1,0,0.1c0.2,0.1,0.5,0.1,0.7,0.2c0.3,0,0.5,0.1,0.8,0.1c0.6,0,1.1,0.1,1.7,0.1c0.6,0,1.1,0.1,1.7,0.1
				c0.3,0,0.6,0,0.9,0c0,0,0,0,0.1,0c0,0.4,0.1,0.8,0.1,1.3c-0.3,0-0.7,0-1,0.1c-0.5,0-1,0.1-1.5,0.1c-1,0.1-2,0.1-2.9,0.3
				c0,0,0,0,0,0c1,0.2,2,0.1,3,0.2c0.5,0,1,0,1.5,0c0.3,0,0.7,0,1,0c0,0.6,0,1.2,0,1.8c-1.9,0-3.8,0.1-5.6,0.2c-0.2,0-0.2,0.3,0,0.3
				c1.9,0.1,3.8,0.1,5.6,0.2c0,0.3,0,0.7,0,1c0,0.4,0,0.8,0,1.3c0,0,0,0,0,0c-0.9,0-1.9,0-2.8,0c-0.9,0-1.9,0-2.8,0
				c-0.2,0-0.2,0.2,0,0.3c0.9,0.1,1.8,0.3,2.8,0.4c0.9,0.1,1.9,0.1,2.8,0.2c0,0,0,0,0,0c0,0.5,0,1,0,1.4c-1.7,0.2-3.4,0.3-5.1,0.5
				c-0.2,0-0.2,0.4,0,0.4c1.7,0.1,3.4,0.1,5.1-0.1c0,0.6,0,1.2,0,1.9c-0.4,0-0.8,0-1.2,0.1c-0.5,0-0.9,0.1-1.4,0.1
				c-0.9,0.1-1.9,0.1-2.8,0.2c-0.2,0-0.1,0.3,0,0.3c0.9,0.1,1.9,0.1,2.8,0.1c0.5,0,0.9,0,1.4,0c0.4,0,0.7,0,1.1,0c0,0.6,0,1.1,0,1.7
				c-0.8,0.1-1.5,0.1-2.3,0.2c-0.9,0.1-1.9,0.2-2.8,0.3c-0.1,0-0.2,0.2,0,0.2c0.9,0,1.9,0,2.8,0c0.8,0,1.5,0,2.3,0c0,0.7,0,1.3,0,2
				c-0.3,0-0.6,0.1-0.9,0.1c-0.5,0-1,0.1-1.5,0.1c-0.5,0-1,0-1.5,0c-0.2,0-0.5,0-0.7,0c-0.3,0-0.6,0.1-0.8,0.1c-0.1,0-0.1,0.1,0,0.1
				c0.3,0,0.5,0.1,0.8,0.2c0.2,0,0.5,0,0.7,0.1c0.5,0,1,0.1,1.5,0.1c0.5,0,1,0,1.5,0c0.3,0,0.5,0,0.8,0c0,0.5,0,0.9,0,1.4
				c-0.3,0-0.6,0-0.9,0c-0.5,0-1,0-1.5,0.1c-1,0-2,0.1-3,0.2c-0.3,0-0.3,0.4,0,0.4c1,0,2,0.1,3,0.1c0.5,0,1,0,1.5,0
				c0.3,0,0.6,0,0.9,0c0,0.5,0,1,0,1.4c0,0,0,0-0.1,0c-0.2,0-0.5,0.1-0.7,0.1c-0.5,0.1-1,0.1-1.6,0.1c-0.5,0-1,0-1.5,0
				c-0.5,0-1,0-1.5,0.1c0,0,0,0.1,0,0.1c0.5,0.2,1,0.2,1.5,0.3c0.5,0,1,0.1,1.5,0.1c0.5,0,1,0,1.5,0c0.2,0,0.5,0,0.8,0
				c0,0.3,0,0.7,0,1c0,0.2,0,0.3,0,0.5c-0.8-0.1-1.6-0.1-2.4-0.2c-0.9-0.1-1.9-0.1-2.8,0c-0.2,0-0.2,0.3,0,0.3
				c0.9,0.2,1.9,0.3,2.8,0.3c0.8,0.1,1.6,0.2,2.5,0.3c0,0.3,0,0.6,0,0.9c-1.9,0.1-3.9,0.1-5.8,0.1c-0.1,0-0.1,0.2,0,0.2
				c1.9,0.1,3.9,0.2,5.8,0.4c0,0.5,0,0.9,0,1.4c-1.9,0.2-3.8,0.3-5.7,0.2c-0.1,0-0.1,0.2,0,0.2c1.9,0.4,3.8,0.4,5.7,0.4
				c0,0.3,0,0.6-0.1,1c-0.2,0-0.4,0-0.7,0.1c-0.6,0.1-1.1,0.1-1.7,0.2c-0.5,0-1.1,0.1-1.6,0.1c-0.3,0-0.5,0-0.8,0.1
				c-0.3,0-0.6,0.1-0.9,0.1c-0.1,0-0.1,0.1,0,0.1c0.2-0.1,0.6,0.1,0.9,0.1c0.3,0,0.5,0,0.8,0.1c0.6,0,1.1,0.1,1.7,0.1
				c0.5,0,1.1,0,1.6,0c0.2,0,0.5,0,0.7,0c0,0.4,0,0.8,0,1.2C427.4,464.2,426.8,464.2,426.3,464.2z M432.5,460.3
				c-0.9,0-1.9-0.1-2.8-0.1c0-1.2,0-2.3,0-3.5c0-3.2,0.1-6.3,0-9.5c0-3-0.1-5.9-0.2-8.9c0-0.5,0-1,0-1.5c1,0.1,2,0,2.9,0
				c0.5,0,1.1,0,1.6,0c0.4,0,0.8,0,1.2,0c0,0.2,0,0.4,0.1,0.6c-0.4,0-0.7,0.1-1.1,0.1c-0.7,0-1.3,0.1-2,0c-0.1,0-0.2,0.2,0,0.2
				c0.7,0.1,1.3,0.2,2,0.2c0.4,0,0.8,0,1.2,0c0,0.4,0,0.7,0.1,1.1c-1.1,0.1-2.3,0.2-3.4,0.4c-0.1,0-0.1,0.2,0,0.2
				c1.1,0.1,2.2,0.1,3.4,0.1c0,0.3,0,0.7,0,1c-0.2,0-0.3,0.1-0.5,0.1c-0.4,0.1-0.7,0.1-1.1,0.1c-0.7,0.1-1.4,0.2-2.1,0.3
				c-0.1,0-0.1,0.2,0,0.2c0.7,0,1.4-0.1,2.1-0.1c0.3,0,0.7,0,1,0c0.2,0,0.3,0,0.5,0c0,0.4,0,0.8,0,1.2c-0.7,0.1-1.4,0.3-2.2,0.4
				c-0.8,0.2-1.6,0.3-2.5,0.4c-0.1,0-0.1,0.2,0,0.2c0.8-0.1,1.7-0.2,2.5-0.2c0.7-0.1,1.4-0.1,2.1-0.2c0,0.6,0,1.1,0,1.7
				c-0.3,0.1-0.5,0.1-0.7,0.1c-0.4,0.1-0.8,0.1-1.3,0.2c-0.8,0.1-1.7,0.2-2.6,0.2c-0.1,0-0.1,0.2,0,0.2c0.9,0,1.7,0.1,2.6,0.1
				c0.4,0,0.9,0,1.3,0c0.2,0,0.4,0,0.7,0c0,0.5,0,1.1,0,1.6c0,0,0,0,0,0c-0.2,0-0.4,0.1-0.6,0.1c-0.4,0.1-0.8,0.1-1.2,0.1
				c-0.8,0.1-1.7,0.1-2.5,0.1c-0.1,0-0.1,0.2,0,0.2c0.8,0.1,1.7,0.2,2.5,0.2c0.4,0,0.8,0,1.2,0c0.2,0,0.4,0,0.6,0c0,0.1,0,0.3,0,0.4
				c0,0.4,0,0.8,0,1.3c-0.2,0-0.4,0-0.7,0.1c-0.6,0.1-1.3,0.1-1.9,0.2c-0.6,0.1-1.3,0.1-1.9,0.3c-0.1,0-0.1,0.1,0,0.1
				c0.8,0.1,1.6,0.1,2.4,0.1c0.4,0,0.8,0,1.2,0c0.2,0,0.4,0,0.6,0c0,0,0.1,0,0.2,0c0,0.6,0,1.1,0,1.7c-1.5,0.1-3,0.3-4.5,0.5
				c-0.2,0-0.2,0.2,0,0.2c1.5,0.1,3,0.1,4.5,0.1c0,0.6,0,1.1,0,1.7c-0.6,0-1.1,0.1-1.7,0.1c-0.4,0-0.8,0-1.2,0.1c-0.2,0-0.4,0-0.6,0
				c-0.1,0-0.2,0-0.3,0c-0.1,0-0.2,0.1-0.3,0c-0.1,0-0.1,0.1,0,0.1c0.1,0,0.2,0,0.3,0.1c0.1,0,0.2,0,0.3,0c0.2,0,0.3,0,0.5,0.1
				c0.4,0.1,0.8,0.1,1.2,0.1c0.6,0,1.1,0.1,1.7,0.1c0,0.3,0,0.5,0,0.8c-0.2,0-0.4,0.1-0.6,0.1c-0.4,0-0.8,0.1-1.3,0.1
				c-0.8,0.1-1.7,0.2-2.5,0.3c-0.2,0-0.1,0.3,0,0.3c0.8,0,1.7,0,2.5,0c0.4,0,0.8,0,1.3,0c0.2,0,0.3,0,0.5,0c0,0.6,0,1.1,0,1.7
				c-0.6,0.1-1.2,0.1-1.8,0.1c-0.8,0-1.6,0-2.4,0c-0.2,0-0.2,0.3,0,0.3c0.8,0.2,1.6,0.3,2.4,0.3c0.6,0,1.2,0,1.8,0
				c0,0.3,0,0.5,0,0.8C434.4,460.3,433.4,460.4,432.5,460.3z"/>
			<path class="st1" d="M306.9,446.1c-0.4-1.1-2-0.8-2.8-0.9c-2.1,0-4.2-0.1-6.3-0.1c-8.1-0.1-16.2-0.2-24.2-0.3
				c-18.2-0.3-36.5-0.6-54.7-0.8c-0.5-0.5-1.7-0.3-1.7,0.7c-0.1,19.1-0.5,38.2-0.8,57.3c0,2-0.1,4-0.1,6.1c0,0.6,0.5,1,1,1
				c7.2,0.2,14.4,0.5,21.6,0.7c14.6,0.5,29.2,0.9,43.8,1.3c7.6,0.2,15.1,0.4,22.7,0.6c0.6,0,0.9-0.5,1-1c0.5-6.4,0.5-12.8,0.6-19.2
				c0.1-8.9,0.2-17.7,0.3-26.6c0-5.8,0-11.7-0.1-17.5C307,446.9,307.1,446.4,306.9,446.1z M304.9,488.8c-0.1,6.9-0.1,13.9-0.6,20.8
				c-13.9-0.3-27.7-0.7-41.6-1.1c-12.7-0.4-25.3-0.8-38-1.2c-2.2-0.1-4.4-0.1-6.6-0.2c0.3-16,0.5-31.9,0.8-47.9
				c0.1-4.6,0.1-9.2,0.1-13.9c15.6,0.3,31.3,0.6,46.9,0.9c8.1,0.1,16.2,0.3,24.2,0.4c4,0.1,8.1,0.2,12.1,0.2c0.5,0,2.7,0.3,2.9,0
				c0.1-0.1,0-0.6,0-0.5c0.1,0.1,0,0.4,0,0.5C305.6,460.8,305.2,474.9,304.9,488.8z"/>
			<path class="st1" d="M290,456.6c-9.9-0.6-19.7-0.6-29.6-0.6c-9.2,0-18.3-0.2-27.5-0.1c-0.9,0-1.1,1-0.7,1.5
				c-0.7,7.4-0.6,14.8-0.6,22.2c0,3.2,0,6.4,0.1,9.6c0,1-0.3,3.5,0.9,4c0.9,0.4,2.3,0.2,3.2,0.2c2.5,0.1,4.9,0.2,7.4,0.3
				c7.4,0.2,14.8,0.4,22.2,0.6c8.1,0.2,16.2,0.3,24.2,0.3c0.5,0,0.9-0.4,0.9-0.9c-0.3-12,0.2-24,0.3-36
				C290.9,457.1,290.5,456.7,290,456.6z M233.8,491.9C233.8,491.9,233.8,491.9,233.8,491.9C233.7,491.9,233.8,491.9,233.8,491.9z
				 M246.9,491.9c-4.4-0.1-8.8-0.2-13.2-0.5c0,0,0,0,0,0c0-0.4,0-0.9-0.1-1.3c-0.1-2.8-0.2-5.6-0.2-8.4c-0.1-7.9-0.1-15.9,0-23.8
				c8.9,0.6,17.9,0.2,26.9,0.1c9.6,0,19.1,0,28.7,0.5c-0.1,11.4-0.5,22.8-0.3,34.2C274.8,492.7,260.9,492.3,246.9,491.9z"/>
			<path class="st1" d="M411.2,157.2C411.2,157.2,411.1,157.2,411.2,157.2C411.1,157.2,411.2,157.2,411.2,157.2
				C411.2,157.2,411.2,157.2,411.2,157.2z"/>
			<path class="st1" d="M410.2,156.7C410.2,156.7,410.2,156.7,410.2,156.7C410.2,156.7,410.2,156.7,410.2,156.7
				C410.2,156.7,410.2,156.7,410.2,156.7C410.2,156.7,410.2,156.7,410.2,156.7z"/>
			<path class="st1" d="M411,156.9C411,156.9,411,156.9,411,156.9C411,156.9,411,156.9,411,156.9C411,156.9,411,156.9,411,156.9z"/>
			<path class="st1" d="M410.8,156.7C410.8,156.7,410.8,156.7,410.8,156.7C410.7,156.7,410.7,156.7,410.8,156.7
				C410.7,156.7,410.7,156.7,410.8,156.7C410.7,156.7,410.7,156.7,410.8,156.7z"/>
			<path class="st1" d="M410.9,156.7C410.8,156.7,410.8,156.7,410.9,156.7C410.9,156.8,410.9,156.8,410.9,156.7z"/>
			<path class="st1" d="M389.9,498.4c-0.3-5.4-2.2-10.9-5.2-15.3c-2.4-3.6-5.7-6.5-9.7-8.4c-3.8-1.8-7.8-2.6-11.9-2.5
				c-0.1-3.6-0.1-7.3-0.5-10.9c-0.1-0.8-1.3-0.9-1.3,0c-0.2,3.6-0.1,7.3,0,11c-1.6,0.1-3.2,0.4-4.8,0.7c-0.3,0.1-0.5,0.2-0.6,0.4
				c-10.7,2.6-18.9,11.8-20.1,23c0,0.1,0,0.3,0,0.4c-3.5-0.2-7-0.3-10.5-0.6c-0.9-0.1-0.8,1.3,0,1.3c3.5,0.3,6.9,0.5,10.4,0.7
				c-0.4,11.4,6.7,22,17.3,26.3c2.9,1.2,6.1,1.9,9.3,2.1c0,2.5,0.1,5,0.1,7.5c0,1.2,2,1.2,1.9,0c-0.1-2.5-0.1-4.9-0.2-7.4
				c2.6,0,5.2-0.5,7.7-1.4c4.5-1.7,8.3-4.9,11.3-8.5c3.9-4.6,6.5-10.3,6.6-16.4c0,0,0-0.1,0-0.1c3.7,0,7.3,0.1,11,0.1
				c1.3,0,1.3-2,0-2C397.3,498.4,393.6,498.5,389.9,498.4z M380.9,481.6c3.5,3.8,5.7,8.8,6.6,13.8c0.2,1,0.3,2.1,0.4,3.1
				c-4.8,0-9.7-0.1-14.5-0.2c0-2.1-0.7-4.1-1.9-5.7c-1.3-1.7-3.2-2.9-5.2-3.6c-0.8-0.3-1.7-0.6-2.6-0.7c-0.1-2.8-0.1-5.7-0.2-8.5
				c0-1.8-0.1-3.6-0.1-5.4C369.9,474.2,376.3,476.5,380.9,481.6z M370.9,501.4C370.9,501.4,370.9,501.4,370.9,501.4
				c-0.1,0.2-0.1,0.3-0.2,0.4c-0.1,0.2-0.2,0.5-0.4,0.7c-0.3,0.5-0.6,0.9-0.9,1.3c-0.9,1-1.9,1.8-3.2,2.2c-0.7,0.2-1.5,0.3-2.3,0.4
				c0-2.2-0.1-4.4-0.1-6.6c2.5,0.1,5,0.2,7.5,0.3C371.2,500.4,371.1,500.9,370.9,501.4C370.9,501.4,370.9,501.4,370.9,501.4z
				 M361.8,490c0,2.6,0.1,5.2,0.1,7.8c0,0,0,0.1,0,0.1c-2.3-0.1-4.6-0.1-6.9-0.2c0.1-1.6,0.6-3.2,1.7-4.5
				C358,491.6,359.8,490.5,361.8,490z M362,499.7c0,2.2,0.1,4.4,0.1,6.5c-0.4-0.1-0.9-0.2-1.3-0.3c-1.4-0.4-2.5-0.9-3.5-2
				c-0.8-0.9-1.4-1.9-1.8-3.1c-0.1-0.5-0.2-0.9-0.3-1.4C357.4,499.5,359.7,499.6,362,499.7z M363.7,498c0-0.1,0-0.1,0-0.2
				c-0.1-2.6-0.1-5.1-0.2-7.7c0.3,0.1,0.7,0.2,1,0.3c1.4,0.5,2.8,1.1,4,2c1.7,1.4,2.7,3.6,2.8,5.8
				C368.9,498.1,366.3,498.1,363.7,498z M343,483c3.4-4.1,8.1-7.1,13.2-8.3c0.2,0.2,0.5,0.4,0.9,0.3c1.4-0.3,2.9-0.5,4.3-0.6
				c0,1.8,0.1,3.6,0.1,5.3c0.1,2.9,0.1,5.8,0.2,8.6c-0.1,0.1-0.2,0.1-0.2,0.2c-4.4,0.6-8,4.6-8.3,9.1c-3.7-0.1-7.4-0.3-11.1-0.5
				c-1.5-0.1-3.1-0.1-4.6-0.2C337.9,491.9,339.8,487,343,483z M359.3,524.5c-11.2-2.2-20.4-11.3-21.7-22.9c-0.1-1.1-0.1-2.1-0.1-3.2
				c5.3,0.3,10.5,0.6,15.8,0.9c0.3,2.4,1.3,4.7,3.1,6.4c1.5,1.4,3.6,2.2,5.7,2.5c0.1,5.6,0.2,11.1,0.3,16.7
				C361.4,524.8,360.3,524.7,359.3,524.5z M384.6,512c-2.4,3.9-5.8,7.6-9.8,10c-3.1,1.9-6.8,2.9-10.5,2.9
				c-0.1-5.5-0.2-11.1-0.4-16.6c0,0,0,0,0,0c3.5,0,6.5-2.1,8.2-5.2c0.5-1,0.9-2,1-3.1c3.7,0.1,7.4,0.2,11,0.2c1.2,0,2.4,0,3.7,0
				C387.9,504.4,386.8,508.4,384.6,512z"/>
		</g>
		<g>
			<path class="st2" d="M407.8,181c-0.1,3.3,0.5,6.1,2.6,8.8c2.5,3.2,6.8,3.3,10.5,3.6c4.5,0.4,9.1,0.4,13.5,1.1
				c2.6,0.4,11.3,1.7,10,5.9c-0.3,1.1-1.3,1.8-2,2.6c-0.6,0.7-1.3,1.3-2.1,1.7c-1.5,0.8-3,1.4-4.5,2.1c-0.8,0.4-0.1,1.6,0.7,1.2
				c1.4-0.6,2.8-1.3,4.2-1.9c1.6-0.7,2.6-1.6,3.8-2.9c2.6-2.7,1.9-6.1-1.3-7.9c-3.7-2.1-8.3-2.6-12.5-3c-4.8-0.4-9.6-0.2-14.3-1
				c-2.9-0.5-5.2-1.9-6.2-4.8c-0.8-2.2-1.2-4.6-1.3-6.9C408.1,179.9,407.8,181,407.8,181z"/>
		</g>
		<g>
			<path class="st2" d="M502,133.3c0.9-0.2,1.6,0.3,2.5,0.2c0.6-0.1,1.2-0.4,1.8-0.5c2-0.4,4.1-0.6,6.1-0.7
				c4.8-0.3,9.5-0.1,14.3,0.2c2.3,0.1,4.8,0.2,7,0.8c2.2,0.6,4.1,2,6.2,3.1c3.8,2,8.2,4.1,9.6,8.4c0.2-0.3,0.5-0.6,0.7-0.9
				c-1.4-0.1-2.5-1.1-3.8-1.6c-0.8-0.3-1.7-0.5-2.7-0.5c-1.7,0.1-3.4,0.9-4.6,2c-2.8,2.5-4.5,7.2-4.9,10.9c-0.2,1.8,0,3.7,0.9,5.4
				c0.5,0.9,1.4,1.4,2.3,1.9c2.5,1.3,5.5,2.6,8.4,2.6c0.9,0,0.9-1.4,0-1.4c-2.3-0.1-4.8-1.1-6.9-2.1c-0.7-0.4-1.7-0.7-2.3-1.4
				c-1.1-1.3-1.1-3.6-0.9-5.1c0.4-3.2,1.9-7.3,4.3-9.6c1.4-1.3,3.5-2.1,5.4-1.5c1.7,0.5,2.9,1.8,4.8,1.9c0.5,0,0.8-0.5,0.7-0.9
				c-1.4-4.2-5.2-6.5-8.9-8.5c-2.1-1.1-4.1-2.4-6.3-3.4c-2.2-1-4.5-1.2-6.8-1.3c-5.3-0.3-10.6-0.7-15.9-0.3
				c-2.1,0.1-4.2,0.4-6.2,0.7c-0.8,0.1-1.7,0.6-2.5,0.7c-0.9,0.1-1.6-0.3-2.6-0.1C500.8,132.3,501.2,133.5,502,133.3L502,133.3z"/>
		</g>
		<path class="st2" d="M443.4,202.3c-0.6,0.6-1.2,1.3-1.8,1.9c-0.7-1.5-1.4-3.1-2.1-4.6c1.3-0.6,2.6-1.3,3.9-2.1
			C444.7,198.7,445.2,200.3,443.4,202.3z M437.4,195C437.4,195,437.4,195,437.4,195c1.6,0.4,3.9,1.1,5.5,2.2
			c-1.2,0.7-2.4,1.4-3.5,2.2C438.7,197.9,438,196.5,437.4,195z M444.2,196.4c-1.4-1.1-3.2-1.8-4.8-2.2c-0.9-0.3-1.8-0.5-2.7-0.7
			c-0.5-1.2-1-2.3-1.5-3.5c2.4-1.3,4.6-2.8,6.9-4.2c2.3-1.5,4.7-3,7-4.4c2.9-1.8,5.8-3.6,8.7-5.5c2.8-1.9,5.4-3.9,8.2-5.8
			c2.7-1.9,5.4-3.8,8.4-5.3c3-1.5,6.2-2.6,9.4-3.6c6.5-2.1,13.1-3.8,19.8-5.2c7.5-1.6,15.2-2.8,22.8-3.5c2.5,2,5,4.1,7.6,6.1
			c-12.9,2.7-25.5,6.7-37.8,11.7c-12.6,5.1-24.9,11.2-36.9,17.7c-3.4,1.8-6.7,3.7-10,5.6C447.6,194.4,445.9,195.4,444.2,196.4z
			 M512.3,140.7c1.3,1.1,2.6,2.1,3.8,3.2c-6.4-0.6-12.9-0.6-19.3-0.2c-6.3,0.5-12.6,1.5-18.7,3.3c-5.9,1.7-11.6,4.1-16.8,7.3
			c-5.6,3.3-10.3,7.7-15.4,11.8c-5.1,4.2-10.4,8-15.7,11.8c-0.7-1.8-1.4-3.6-2.1-5.4c4.1-4.2,7.9-8.5,12.2-12.4
			c2.2-2,4.4-3.9,6.8-5.6c2.4-1.8,5-3.4,7.6-4.9c2.7-1.5,5.5-3,8.3-4.4c2.8-1.4,5.7-2.8,8.7-3.9c5.8-2.1,11.9-3,18.1-3.2
			c6.8-0.2,13.6,0.1,20.4,0.7C510.9,139.5,511.6,140.1,512.3,140.7z M444.2,168.1c5-3.9,9.7-8.3,15-11.8
			c10.5-6.9,22.9-10.5,35.3-11.8c3.7-0.4,7.4-0.6,11.1-0.7c3.5-0.1,7.1,0.1,10.6,0.2c0.7,0.6,1.4,1.2,2.1,1.8c0,0,0.1,0.1,0.1,0.1
			c-6.2,0.6-12.5,0.8-18.7,1.5c-6.3,0.7-12.5,1.7-18.5,3.5c-3,0.9-5.9,2-8.7,3.3c-3,1.4-5.9,3.1-8.7,4.9
			c-5.3,3.4-10.5,7.1-15.5,10.9c-5.5,4.2-10.9,8.5-16.3,12.7c-0.6-1.6-1.3-3.1-1.9-4.7C435,174.9,439.7,171.6,444.2,168.1z
			 M462.2,161.1c2.7-1.8,5.5-3.6,8.4-5.1c2.8-1.5,5.8-2.7,8.9-3.7c6-2,12.2-3.1,18.4-3.9c7-0.9,14-1.4,21-2.2c2.4,2,4.9,4,7.3,6
			c-6.7,0.5-13.4,1.3-20.1,2.5c-6.8,1.2-13.5,2.9-20.1,4.9c-3.2,1-6.3,2-9.4,3.3c-3.1,1.3-5.9,3-8.6,4.9c-2.7,2-5.4,4.1-8.1,6
			c-2.8,2-5.7,3.8-8.6,5.7c-2.8,1.7-5.6,3.5-8.4,5.3c-2.6,1.7-5.3,3.3-7.8,5c-1-2.2-1.9-4.5-2.8-6.8
			C442.2,175.6,451.9,167.9,462.2,161.1z M534.6,158.1c-1.8-1.5-3.6-2.9-5.4-4.4c-5.1-4.1-10.2-8.1-15.2-12.4
			c-2.4-2-4.8-3.9-7.2-5.9c-1.2-1-2.4-2-3.5-3c-0.1-0.1-0.2-0.2-0.3-0.3c0.9,0.1,1.7,0.3,2.3,0.9c0.1,0.1,0.2,0.1,0.3,0.1
			c4.8,3.3,9.5,6.7,14.3,10c2.9,2,5.8,4,8.7,6c1.9,1.3,4.1,2.6,5.9,4.1C534.2,155,534.2,156.6,534.6,158.1z M426.1,159.7
			c0.1,0,0.2,0,0.3-0.1c0.2,0,0.3,0,0.5,0c0.9,0.2,0.8,1.8,0.7,2.4c-0.1,1.4-1.1,2.4-1.8,3.5c-0.3,0.5,0.5,1.1,0.8,0.6
			c1.5-1.9,2.7-3.6,2-6.2c-0.2-0.6-0.5-1-0.9-1.2c4.4-3.3,8.2-7.4,11.9-11.4c4.4-4.7,8.9-9.2,13.8-13.3c4.6-3.9,9.6-8.8,16-8.1
			c3.3,0.3,6.4,1.8,9.4,3c3,1.2,6.1,2.2,9.2,2.9c3.3,0.7,6.8,1,10.2,0.5c1.2-0.2,2.4-0.3,3.6-0.3c0.1,0,0.1,0,0.2,0
			c0.1,0,0.2,0,0.2,0c0.1,0,0.1,0,0.2,0c0.1,0.1,0.3,0.3,0.4,0.4c1,0.9,2,1.8,3,2.7c1.4,1.2,2.8,2.3,4.1,3.5c-3-0.3-5.9-0.5-8.9-0.8
			c-3.1-0.3-6.2-0.5-9.3-0.5c-6.2,0.1-12.3,0.7-18.2,2.6c-6,1.9-11.5,4.9-17,7.8c-2.8,1.5-5.5,3.1-8.2,4.9c-2.4,1.6-4.6,3.4-6.8,5.3
			c-2.5,2.2-5,4.6-7.3,7c-2.2,2.3-4.4,4.6-6.4,7.1c-0.2-0.6-0.5-1.3-0.8-1.9c-0.6-1.6-1.3-3.3-1.9-4.9c-0.5-1.4-1.1-2.9-1.7-4.3
			c0.1-0.1,0.3-0.1,0.4-0.2C424.4,160.5,425.3,159.9,426.1,159.7z M423.2,161.1c0.8,2.8,1.9,5.6,2.9,8.4c1.1,3,2.3,6,3.5,9
			c2,5,4.1,9.9,6.2,14.8c-1.9-0.3-3.8-0.6-5.7-0.7c-3.5-9.7-6.9-19.4-10.5-29C420.8,162.6,422,161.8,423.2,161.1z M430.7,194
			c2,0.2,3.9,0.4,5.8,0.8c0.2,0.5,0.4,0.9,0.6,1.4c1.2,2.8,2.5,5.6,3.8,8.4c-0.5,0.3-0.9,0.5-1.4,0.7c-1.2,0.6-2.5,1.1-3.7,1.7
			c-0.7,0.3-0.1,1.3,0.6,1c0.5-0.2,1-0.5,1.6-0.7c-0.7,0.4-1.4,0.7-2.1,1.1C434.1,203.6,432.4,198.8,430.7,194z M531.9,164.3
			c-2.1,0.6-4.2,1.2-6.2,1.9c-8.3,2.7-16.3,6.1-24.3,9.4c-3.9,1.6-7.7,3.2-11.5,5.1c-3.5,1.7-6.9,3.5-10.4,5.1
			c-7.4,3.4-14.9,6.5-22.2,10.2c-4.8,2.4-9.3,5.4-13.9,8.1c1.7-1.5,3.3-3.6,2.4-5.9c-0.2-0.6-0.6-1.1-1-1.6c1.3-0.7,2.5-1.4,3.8-2.2
			c3-1.7,5.9-3.3,8.9-4.9c6-3.3,12.1-6.5,18.2-9.5c12.2-6,24.8-11.4,37.7-15.6c7-2.3,14.1-4.1,21.2-5.6c0.2,0.2,0.4,0.3,0.6,0.5
			c0.7,1.4,2,2.3,3.4,3.2c0,0-0.1,0-0.1,0C536.2,163,534,163.7,531.9,164.3z M541.3,160c2,1.6,4.2,3,6.6,4.1
			c-0.5,0.3-1.1,0.6-1.6,0.8c-0.1,0-0.2-0.1-0.3-0.1c-2.3-0.1-4.8-1.9-6.6-3.1c-0.9-0.6-1.8-1.2-2.5-2c-1.1-1.1-1.3-3-1.3-4.5
			c0-0.3,0-0.5,0.1-0.8C537.5,156.2,539.2,158.3,541.3,160z"/>
		<g>
			<path class="st2" d="M426,167.4c1-1.1,2.1-2.4,2.5-3.9c0.3-1.4,0.4-3.7-0.7-4.8c-0.7-0.7-1.6-0.7-2.5-0.5
				c-1.1,0.3-2.1,0.7-3.1,1.1c-1.9,0.9-3.7,2.1-5.4,3.5c-1,0.8-1.9,1.7-2.7,2.6c-0.9,1-2,2.5-2.8,3.6c-0.1,0.9-0.1,1-0.1,2.3
				c0.8-1,3.2-3.6,4.1-4.6c0.8-0.8,1.6-1.6,2.4-2.3c1.7-1.5,3.6-2.8,5.7-3.8c0.5-0.2,1.1-0.5,1.6-0.7c0.5-0.2,1.3-0.6,1.7-0.2
				c0.6,0.5,0.5,2,0.5,2.7c-0.1,1.8-1.4,2.8-2.2,4.3C424.6,167.3,425.5,168,426,167.4L426,167.4z"/>
		</g>
	</g>
</g>
</svg>
