<?xml version="1.0" encoding="utf-8"?>
<!-- Generator: Adobe Illustrator 25.0.0, SVG Export Plug-In . SVG Version: 6.00 Build 0)  -->
<svg version="1.1" xmlns="http://www.w3.org/2000/svg" xmlns:xlink="http://www.w3.org/1999/xlink" x="0px" y="0px"
	 viewBox="0 0 792 612" style="enable-background:new 0 0 792 612;" xml:space="preserve">
<style type="text/css">
	.st0{display:none;}
	.st1{fill:#FFFFFF;}
	.st2{fill:#414142;}
</style>
<g id="referencias" class="st0">
</g>
<g id="vector">
	<g>
		<g>
			<path class="st1" d="M414.2,383.2c-2-3-3.9-6.1-5.7-9.2c-1.8-3.1-3.7-6.2-5.1-9.4c-1.3-3-2.1-6.6-0.9-9.8c1-2.6,3.2-4.8,5.9-5.5
				c1.2-0.3,2.3-0.3,3.3,0c-0.9-1.3-1.7-2.6-2.6-3.9c-1.5-2.2-3-4.4-4.4-6.6c-1.4-2.2-2.7-4.7-5-6c-5-3-12.1-1.5-16.5,1.7
				c-3.4,2.5-5.1,6.8-6.8,10.5c-1,2.2-1.9,4.4-2.9,6.6c-0.1,0.3-0.3,0.7-0.4,1c1.1,0.1,2.2,0.5,3,1.4c1.6,1.7,1.8,4.3,1.5,6.5
				c-0.7,5.9-2.6,11.7-5.1,17c-5,11-12.8,20.5-20.7,29.4c-2.7,3-5.3,6-8.1,8.8c1.5-0.3,3.1-0.5,4.6-0.7c4-0.6,8-1.2,12-1.6
				c26.4-3.1,53.1-2.4,79.3,1.9c-4.5-4.7-8.7-9.6-12.7-14.6C422.4,395.1,418.1,389.2,414.2,383.2z"/>
			<path class="st1" d="M591.3,269.3c-6.3-10.8-17.5-17.1-28.3-22.7c-0.4,0.3-0.8,0.4-1.3,0.3c-3.1-0.5-6.1-1-9.2-1.4
				c-25-3.6-50.2-4.9-75.4-5.3c-25.2-0.5-50.5-0.3-75.7-0.3c-25.5,0-51,0-76.4,0c-12.7,0-25.5,0-38.2,0c-12.3,0-24.7-0.3-37,1.1
				c-19.9,2.2-41.3,10.4-51.1,29.1c0,0.2-0.1,0.3-0.2,0.5c-2.1,4-3,8.7-3.7,13.1c-0.7,4.2-1.2,8.7-0.8,13c0.2,1.9,0.2,3.8,0.2,5.7
				c0.1,7.3,0,14.6,0,21.8c-0.1,9-0.2,18-0.2,27c-0.1,7.3-0.2,14.5,0,21.8c0.4,10.8,2.6,21.8,7.9,31.3c2.6,4.6,6,8.8,10.1,12.1
				c4.5,3.7,9.9,6.1,15.5,7.8c12,3.5,24.8,3.7,37.1,4.4c14,0.8,28.2,1.2,42.2-0.3c6.6-0.7,13.6-1.6,19.8-4.2
				c3.1-1.3,5.9-3.2,8.5-5.3c0.1-0.6,0.5-1.1,1.2-1.3c0.2-0.1,0.3-0.1,0.5-0.2c1.5-1.4,3-2.8,4.4-4.3c8.3-8.6,16.4-17.6,22.8-27.7
				c3.1-5,5.9-10.2,7.7-15.8c0.4-1.2,4-13.7,0.8-13c-1,0.2-1.8,1.8-2.2,2.6c-0.7,1.1-1.3,2.2-2,3.2c-1.7,2.4-3.6,4.6-5.6,6.8
				c-3.6,4-6.8,8.3-10.7,12c-3.8,3.6-8.2,6.4-12.8,8.6c-4.4,2.2-9,3.2-13.8,3.9c-9.5,1.2-19.2,1-28.8,0.5
				c-13.9-0.8-27.8-2.7-41.5-5.7c-5.8-1.3-12.1-2.5-17-6.2c-4.7-3.5-7.2-8.8-8.7-14.3c-1.7-6.3-2.7-12.8-3.5-19.3
				c-0.9-6.9-1.5-13.9-1.6-20.9c-0.3-11.9,1.1-25.4,11.2-33.1c5.2-4,11.6-4.5,17.9-5.4c7.1-1,14.2-1.9,21.3-2.8
				c14.3-1.8,28.5-3.3,42.8-4.7c0.4,0,0.8,0,1,0.2c7.3-0.7,14.7-1.2,22.1-1.7c31.5-2,63-2.4,94.5-1.2c31.6,1.2,63.1,4,94.4,8.5
				c6.4,0.9,13.3,1.4,19.4,3.9c2.6,1.1,5,2.7,6.7,5c2.1,2.7,2.8,6.1,3.1,9.5c0.7,7.8,0.9,15.7,1.2,23.5c0.3,8,0.4,16,0.4,24
				c0,3.9,0,7.8-0.1,11.7c0,3.3-0.2,6.9-2.9,9.3c-2.4,2.2-5.9,3.4-8.8,4.7c-3.4,1.4-6.8,2.8-10.3,3.9c-13.7,4.5-28,6.9-42.3,8
				c-7.2,0.6-14.4,0.8-21.6,0.8c-6.8,0-13.7-0.2-20.3-1.8c-6.7-1.6-12.7-4.7-17.8-9.3c-5.4-4.9-9.9-10.9-14.6-16.4
				c-0.6-0.8-1.3-1.5-1.9-2.3c-0.4-0.1-0.8-0.4-1.1-1c-0.1-0.2-0.2-0.5-0.4-0.7c-1.5-1.8-3-3.5-4.5-5.3c-0.9-1.1-2-2.4-3.5-2.5
				c-1.1,0-2.2,0.6-3,1.4c-2.5,2.5-2,6.1-0.7,9.1c1.4,3.3,3.4,6.4,5.2,9.5c7.2,12.2,15.5,23.7,24.9,34.3c2.9,3.3,5.9,6.5,9.1,9.7
				c0,0,0,0,0,0c0.9,0.2,1.4,0.8,1.5,1.5c1.4,1.4,2.9,2.8,4.4,4.1c5.4,4.8,11.3,8.6,18.3,10.4c7.3,1.9,15,2.3,22.5,2.5
				c7.9,0.2,15.8,0,23.7-0.6c7.8-0.6,15.6-1.4,23.3-2.5c7.3-1,14.5-2.4,21.4-5c11.7-4.3,22.8-12.7,26.3-25.2c1-3.8,1.5-7.6,1.8-11.5
				c0.4-3.9,0.8-7.7,1.1-11.6c0.8-7.9,1.6-15.9,2.3-23.8c1.5-15.5,3.2-30.9,4.5-46.4C597.8,295.3,598.1,281,591.3,269.3z"/>
			<path class="st1" d="M377.6,334.5c1.6-2.1,3.8-3.8,6.2-5c5.6-2.7,13.4-3.5,18.7,0.4c2.5,1.8,4,4.4,5.6,6.9
				c1.6,2.4,3.3,4.9,4.9,7.3c3.2,4.7,6.5,9.5,8.9,14.7c0.1,0.2,0.2,0.5,0.2,0.7c0.5,0.6,1.1,1.3,1.6,1.9c4.8,5.6,9.4,11.6,14.9,16.6
				c5.3,4.8,11.7,7.5,18.6,8.8c6.8,1.2,13.7,1.2,20.5,1.1c7.4-0.1,14.8-0.5,22.2-1.2c14.5-1.4,28.9-4.2,42.5-9.5
				c3.4-1.3,6.8-2.7,10-4.4c1.5-0.8,2.8-1.7,3.3-3.3c0.5-1.6,0.4-3.2,0.4-4.9c0.1-8.1,0.1-16.2-0.1-24.3c-0.2-8.1-0.4-16.2-0.9-24.2
				c-0.2-3.8-0.2-7.6-0.7-11.4c-0.4-3.1-1.5-6-4.1-8c-4.9-3.8-12.1-4.1-17.9-5c-7.8-1.1-15.6-2.2-23.5-3.1
				c-31.8-3.8-63.7-5.9-95.7-6.4c-32-0.5-64,0.8-95.9,3.7c-0.6,0.1-1.1-0.1-1.4-0.5c-6.5,0.6-13,1.3-19.5,2
				c-14.5,1.6-29,3.4-43.4,5.4c-6.1,0.9-12.4,1.4-17,5.9c-4.2,4.1-6.4,9.7-7.4,15.4c-1.2,6.8-0.8,13.9-0.3,20.7
				c0.4,7,1.2,14,2.4,20.9c1,5.9,2,12.4,4.9,17.7c3,5.4,8.2,7.9,13.9,9.4c13.5,3.6,27.5,5.7,41.4,6.7c10.2,0.8,20.5,1.2,30.7,0.3
				c4.4-0.4,9.1-0.9,13.2-2.6c5-2.1,9.7-4.9,13.7-8.5c4-3.6,7.1-7.9,10.6-11.8c2.1-2.3,4.2-4.6,5.9-7.1c0.9-1.3,1.6-2.8,2.5-4.2
				c0,0,0-0.1,0-0.1c0.6-2.4,1.8-4.7,2.7-6.9c1.1-2.8,2.3-5.6,3.6-8.3C375.2,338.4,376.2,336.3,377.6,334.5z M418,322.4
				c2.8-7.9,7.9-14.6,14.8-19.3c5.9-4,13.3-6.8,20.5-6.7c0.4-0.4,0.9-0.7,1.6-0.7c2.3-0.1,4.6,0,6.8,0.4c3.4,0.5,6.6,1.6,9.8,3
				c3,1.4,6,2.9,8.6,4.9c6,4.6,10.1,11,12.7,18.1c5.6,15.5,1.9,34.3-11.4,44.9c-6.3,5-14,8-22.1,8.3c-9.1,0.3-17.4-3.7-25.1-8.3
				c-3.8-2.3-7.7-4.8-10.7-8.2c-3-3.4-5.1-7.5-6.4-11.8C414.9,339,415.2,330.2,418,322.4z M368,340.2c-0.7,9.3-3.7,17.8-10,24.7
				c-5.5,6.1-13.1,10.5-21.2,12c-8.8,1.6-17.9,0.2-25.9-3.8c-16.3-8.1-25.2-26.8-22.8-44.6c2.3-17.2,16.6-31.4,33.8-33.3
				c0.4-0.5,0.9-0.9,1.7-0.9c1.4-0.1,2.8-0.2,4.2-0.3c7.2-0.4,14.4,0.8,20.8,4.4c6.2,3.6,11.6,9.1,15,15.5
				C367.9,322.1,368.7,331.1,368,340.2z"/>
		</g>
		<g>
			<path class="st2" d="M355.6,255.2c1.1,0.2,2.1,0,3.1-0.5c1.8-0.9,3.1-3,2.8-5c-0.3-2.3-2.1-4.3-4.5-4.6c-0.1,0-0.3,0-0.4,0.1
				c-1.6,0-3.2,0.9-4.1,2.1c-1.3,1.8-1,4.2,0.3,5.9C353.5,254.1,354.5,254.9,355.6,255.2z M353.4,248.4c0.4-0.7,1-1.2,1.8-1.6
				c0.5-0.2,1.1-0.3,1.7-0.4c1.5,0.3,2.8,1.3,3.2,2.8c0.4,1.5-0.3,3-1.5,3.9c-0.6,0.4-1.3,0.7-2.1,0.7c-0.9,0-1.6-0.5-2.3-1.1
				C353.2,251.6,352.6,249.8,353.4,248.4z"/>
			<path class="st2" d="M343.1,260.7c5,6,14.8,7.1,21.4,3c1.6-1,3.2-2.2,4.4-3.7c1.3-1.7,2.3-3.8,3-5.8c1-3.1,1.2-6.5,0.5-9.7
				c-1.4-6-7.1-11-13.1-11.9c-6.4-0.9-13.2,1-17.1,6.4c-4.6,6.4-4.8,15.2,0.2,21.4C342.6,260.7,342.9,260.7,343.1,260.7z
				 M342.7,241.6c2.9-5.2,8.4-7.6,14.2-7.5c5.5,0.2,11.3,3.7,13.3,8.9c0.9,2.3,1.2,4.8,0.9,7.3c-0.4,3.5-1.9,7.5-4.5,9.9
				c-1.5,1.4-3.4,2.7-5.4,3.4c-2.2,0.8-4.5,0.9-6.8,0.8c-4-0.2-7.7-1.8-10.5-4.6c0-0.2,0-0.5-0.2-0.7
				C339.7,254.1,339.7,247.2,342.7,241.6z"/>
			<path class="st2" d="M340.9,263.4c5.2,6.5,14.3,9,22.2,6.2c7.6-2.7,12.9-10.2,13.3-18.3c0.5-9.1-5.6-17.5-14-20.7
				c-0.4-0.1-0.7,0-0.8,0.2c-8-2.3-16.9,1-22,7.6c-2.7,3.6-4.5,8.2-4,12.7C336.2,255.6,338.2,260,340.9,263.4z M337.3,247.8
				c0.3-2.1,1-4.1,2-5.9c2-3.7,5.1-6.7,9-8.4c4.4-2,9.4-2.1,14-0.9c6.6,2.6,11.6,9,12.3,16.1c0.7,7.2-3.2,14.7-9.5,18.2
				c-6.3,3.5-14.9,2.7-20.4-2.1c-3-2.6-5.1-6.2-6.4-10C337.5,252.5,337,250.2,337.3,247.8z"/>
			<path class="st2" d="M396.2,252.5c1.3-1.1,1.7-3,1-4.6c-0.4-0.8-1.3-1.4-2.1-1.7c-0.9-0.3-2-0.4-2.8,0.1
				c-0.2,0.1-0.3,0.3-0.4,0.5c-0.5,0.3-0.9,0.7-1.2,1.3c-0.3,0.5-0.4,1.2-0.4,1.8c0,1,0.4,2,1.2,2.7
				C392.9,253.8,394.8,253.7,396.2,252.5z M391.6,249.5c0,0,0-0.1,0-0.1c0-0.1,0-0.1,0-0.2c0-0.1,0.1-0.2,0.1-0.3
				c0,0,0.1-0.1,0.1-0.1c0-0.1,0.1-0.1,0.1-0.2c0.1-0.1,0.1-0.2,0.2-0.3c0.1-0.1,0.3-0.3,0.4-0.4c0.2,0,0.3,0,0.5-0.1
				c-0.1,0.1,0.1,0,0.1,0c0.1,0,0.1,0,0.2,0c0,0,0.1,0,0.1,0c0.1,0,0.1,0,0.2,0c0.1,0,0.2,0,0.2,0c0,0,0.1,0,0.2,0
				c0.2,0,0.3,0.1,0.4,0.1c0.1,0,0.2,0.1,0.2,0.1c0,0,0,0,0.1,0c0,0,0,0,0,0c0.1,0.1,0.3,0.1,0.4,0.2c0,0,0.3,0.2,0.2,0.1
				c0.1,0,0.1,0.1,0.1,0.1c0,0,0.2,0.2,0.2,0.2c0.4,0.5,0.5,1,0.5,1.5c0,0.5-0.3,1-0.7,1.4c-0.8,0.8-2,1-3,0.4
				c-0.1-0.1-0.2-0.2-0.3-0.3c0,0,0,0-0.1-0.1c-0.1-0.1-0.1-0.2-0.2-0.3c0,0-0.1-0.1-0.1-0.2c0,0-0.1-0.2-0.1-0.2
				c-0.1-0.2-0.1-0.4-0.1-0.6c0,0,0,0,0,0c0-0.1,0-0.1,0-0.2C391.5,249.7,391.5,249.6,391.6,249.5z"/>
			<path class="st2" d="M427.8,252.3c0.7,0.9,1.7,1.6,2.9,1.8c1.4,0.3,3,0.3,4.3-0.4c1.8-0.9,3-3.2,2.9-5.2c0-0.1,0-0.1,0-0.2
				c0,0,0,0,0,0c0-0.1,0-0.3-0.1-0.4c-0.1-0.4-0.2-0.8-0.4-1.2c-0.7-1.4-2-2.3-3.4-2.8c-0.3-0.1-0.5,0-0.7,0.1
				c-1.1-0.3-2.1-0.4-3.1,0.1c-1.2,0.6-2.1,1.7-2.7,2.8c-0.5,1-0.8,2-0.6,3.1C427,250.9,427.4,251.7,427.8,252.3z M437.9,248.4
				C437.9,248.5,437.9,248.5,437.9,248.4L437.9,248.4z M428.5,248.5c0.3-1.1,1-2.1,1.8-2.8c0.8-0.6,1.7-0.8,2.6-0.6
				c0.1,0.2,0.2,0.3,0.4,0.4c1,0.4,1.9,1,2.5,1.8c0,0.1,0.1,0.2,0.1,0.2c0,0,0.1,0.1,0.1,0.2c0,0,0,0.1,0.1,0.1c0,0.1,0,0.1,0.1,0.2
				c0,0.1,0,0.2,0.1,0.3c0,0.1,0,0.2,0,0.3c0,0.1,0,0.2,0,0.2c0,0.1,0,0.1,0,0.2c0,0,0,0,0,0.1c0,0,0,0,0,0c0,0.2-0.1,0.4-0.1,0.6
				c-0.2,0.8-0.6,1.5-1.2,2.1c-1.3,1.3-4.1,1.2-5.3,0C428.6,251,428.1,249.7,428.5,248.5z"/>
			<path class="st2" d="M429.3,265c0.3,0.1,0.6,0,0.7-0.1c6.9,1.5,14.2-2.1,18.2-7.8c4.3-6.2,4-14.4-0.9-20.1
				c-4.9-5.7-13.1-7.7-20.1-4.9c-6.8,2.8-12.1,10.1-11.6,17.6C416.2,257,422.9,262.9,429.3,265z M425.8,234.9
				c5.9-3.4,13.4-2.8,18.5,1.7c5.3,4.5,6.7,11.9,3.5,18c-1.7,3.2-4.4,5.7-7.5,7.4c-3.2,1.7-6.6,2-10.1,1.7c-0.1-0.1-0.2-0.2-0.4-0.3
				c-5.3-1.8-10.4-6.2-11.9-11.8C416.2,245.3,420.5,238,425.8,234.9z"/>
			<path class="st2" d="M421.8,265.3c4.2,2.9,8.7,4.6,13.9,3.8c4.7-0.7,9.4-2.9,12.9-6c4.9-4.4,8.2-11.6,6.3-18.2
				c-2.7-9.2-11.4-15.7-21-16c-0.3,0-0.5,0.1-0.6,0.2c-8.1-0.5-16.4,5.2-19.2,12.7c-1.5,4-1.5,8.5-0.3,12.6
				C415.1,259,418,262.6,421.8,265.3z M414.8,245.3c0.8-4.4,3.3-8.3,7-10.9c3.5-2.5,7.4-3.6,11.6-4c0.1,0.1,0.3,0.2,0.5,0.2
				c7.7,0.3,14.8,4.9,18.2,11.8c1.3,2.8,2.1,5.9,1.4,9c-0.6,2.8-1.9,5.5-3.6,7.9c-5.2,6.9-15.8,10.9-23.8,6.8
				c-4-2.1-7.7-5.1-9.7-9.2C414.6,253.3,414,249.1,414.8,245.3z"/>
			<path class="st2" d="M389.7,259.4c3.9,2.1,8.2,1,11.4-1.9c3.7-3.3,5.8-9.1,2.8-13.5c-2.5-3.7-6.8-5.5-11.3-4.9
				c-0.2,0-0.4,0.1-0.5,0.3c-1.7,0.3-3.3,1.2-4.6,2.2c-1.8,1.4-3.2,3.3-3.8,5.4C382.3,252,385.4,257,389.7,259.4z M388.1,243.2
				c0.8-0.7,1.7-1.3,2.7-1.8c0.6-0.3,1.2-0.4,1.8-0.6c0.2,0.1,0.3,0.1,0.5,0.1c2.9-0.4,5.9,0.5,8,2.5c1.6,1.6,2.7,3.6,2.4,5.9
				c-0.2,2.1-1.2,4.2-2.6,5.8c-2.3,2.7-5.8,4.4-9.3,3.3c-3.6-1.2-6.9-5.3-6.7-9.2C385.1,247,386.4,244.7,388.1,243.2z"/>
			<path class="st2" d="M556.4,458.1c-2.1-10.2-4.7-20.2-7.6-30.2c-2.8-9.9-5.9-19.8-9.6-29.4c-1.4-3.7-2.9-7.3-4.8-10.8
				c-0.7-1.2-1.8-3.4-3.3-3.9c-0.1-0.2-0.2-0.3-0.5-0.4c-7.6-2.4-15.4-4.5-23.3-5.2c-5-0.4-10.1-0.3-14.9,1
				c-3.5,0.9-6.8,2.5-9.9,4.4c-2.7,1.6-5.2,3.5-8,4.9c-3.3,1.7-6.8,2.2-10.4,2.6c0-4.7-0.1-9.4-0.1-14.1
				c-0.2-35.1-0.4-70.2-0.7-105.3c-0.1-8.4-0.1-16.9-0.2-25.3c0-5.8,0.7-11.8-1.6-17.2c-1.9-4.6-5.4-8.6-10-10.5
				c-3.3-1.3-6.9-1.2-10.4-1.4c-4.5-0.2-9-0.2-13.4-0.3c-8.4-0.1-16.8-0.1-25.1-0.1c-1.5-17.3-1.9-34.7-2.5-52c-0.1-2,0-4.2-0.4-6.2
				c-0.1-0.3-0.3-0.4-0.6-0.4c-1-17.9-1.9-35.7-2.9-53.6c-0.6-10.4-1.1-20.8-1.7-31.2c0.5-0.1,1-0.1,1.4-0.2
				c0.3-0.1,0.5-0.4,0.4-0.7c-0.3-1.3-0.3-2.6-0.4-3.9c-0.1-0.6-0.5-1.1-1.1-1.3c-0.3-0.1-0.5-0.1-0.8-0.1c-0.3,0-0.5,0-0.8,0
				c-0.5,0-1,0-1.5,0.2c-0.4,0.2-0.9,0.5-1,0.9c-0.1,0.3,0,0.6,0,0.9c0,0.4,0.1,0.8,0.1,1.1c0.1,0.9,0.2,1.8,0.3,2.7
				c0,0.3,0.3,0.6,0.6,0.6c0.1,0,0.2,0,0.3-0.1c0.4,0,0.8,0,1.1,0c0.8,18.6,1.7,37.2,2.5,55.8c0.4,9.7,0.9,19.4,1.3,29.1
				c0,0,0-0.1,0-0.1c-0.1-0.7-1-0.4-1.1,0.1c-0.2,1.6-0.1,3.5,0,5.2c0.1,3.6,0.2,7.2,0.3,10.8c0.3,9.6,0.7,19.2,1.2,28.8
				c0.3,4.5,0.6,9,1,13.6c-7.9,0-15.8,0-23.7-0.1c-8.3-0.2-16.7-0.6-25,0.1c-5.9,0.5-12.8,0.9-17.1,5.5c-3.8,4-4.8,9.6-4.9,15
				c-0.2,0.1-0.3,0.4-0.4,0.7c-0.9,18.4-1.1,36.8-1.2,55.2c-0.1,23.4,0,46.8,0.1,70.2c0.1,10.1,0.2,20.1,0.3,30.2
				c-3.3,0.1-6.8,0-9.8-1.5c-2.4-1.1-4.4-2.9-6.6-4.4c-8.6-5.9-19.5-6.8-29.6-7c-5.1-0.1-10.1,0.2-15,1.5c-4.6,1.2-9.4,2.8-13.4,5.5
				c-0.3-0.1-0.7,0-0.8,0.3c-10.2,19.9-15.5,41.8-18.1,63.8c-1.3,11.2-2,22.5-2.3,33.8c-0.1,5.7-0.2,11.3-0.2,17
				c0,4.7,0.1,9.3,0.6,14c1,9.2,4,18.7,11.8,24.2c0.8,0.9,1.9,1.4,3,1.5c2.9,1.2,5.9,2,9,2.1c3.3,0,7-1,9.3-3.5
				c1.3-1.4,2.2-3.1,3.1-4.8c1.1-1.9,2.2-3.9,3.3-5.9c2.1-3.9,4-7.9,5.7-11.9c3-7.1,5.1-14.6,9.4-21c4.2-6.3,10.2-10.3,17.4-12.3
				c7.7-2.2,15.9-2.3,23.9-1.7c0.3,7.1,2,13.8,8.6,17.6c6.5,3.8,14.6,2.8,21.8,2.9c8.8,0.2,17.6,0.6,26.4,0.5
				c17.8,0,35.5-0.7,53.3-0.5c7.2,0.1,14.3-0.5,20-5.3c5.7-4.8,7.1-11.9,7.3-19c0,0,0-0.1,0-0.1c7.9-0.5,16.3,0.2,23.7,3
				c3.8,1.4,7.3,3.6,10,6.7c2.8,3.2,4.5,7.1,5.9,11c3.3,9.2,5.6,18.8,9,28c1.4,3.8,3.4,7.6,6.5,10.3c2,1.7,4.6,2.3,7.1,2.5
				c3.5,0.4,7.2,0.1,10.7-0.8c2.1-0.5,4.4-1.4,6-2.9c0.1,0,0.2-0.1,0.4-0.2c9.8-8.5,14.9-21.2,16.4-33.8
				C562.4,488.3,559.5,472.9,556.4,458.1z M392.5,72.6c-0.1-1.2-0.4-2.3-0.4-3.5c0-0.1,0-0.1,0-0.2c0.1-0.1,0.2-0.1,0.3-0.2
				c0.1,0,0.2,0,0.3-0.1c0.1,0,0.2,0,0.3,0c0.4,0,0.9,0,1.3,0c0.2,0,0.3,0,0.4,0c0.1,0,0.1,0,0.1,0.1c0,0.1,0,0.1,0.1,0.2
				c0.2,1.1,0.1,2.3,0.4,3.4C394.3,72.5,393.4,72.6,392.5,72.6z M398.5,185.5c0.1,2.7,0.3,5.4,0.4,8.2c-0.2-3.4-0.3-6.8-0.5-10.2
				C398.4,184.2,398.5,184.8,398.5,185.5z M232.9,518.1c-1.3-9.8-0.8-19.8-0.5-29.7c0.6-21.8,2.3-43.8,7.6-65
				c3-11.9,7.2-23.6,12.8-34.6c0,0,0-0.1,0-0.1c4.1-1.5,7.9-3.4,12.1-4.6c4.4-1.2,8.8-1.8,13.4-1.8c7,0,14.1,0.4,20.9,2.1
				c3.6,0.9,7.1,2.4,10.2,4.5c2.1,1.5,4.1,3.2,6.4,4.4c3.4,1.7,7.2,2.1,11,1.9c0.1,11.3,0.2,22.5,0.4,33.8c0,1,0,2,0,2.9
				c-8,0.1-16.5,1-23.4,5.5c-7.8,5.1-13.3,13-18.3,20.7c-11.3,17.4-20.1,36.3-26,56.3c-1.7,5.9-3.3,11.8-5.3,17.5
				c-0.9,2.6-1.8,5.6-3.8,7.6c-1.1,1-2.6,1.7-4.1,1.6c-0.6-0.3-1.3-0.5-1.9-0.8c0,0-0.1,0-0.1,0c-0.1-0.1-0.2-0.1-0.3-0.2
				c-0.1-0.1-0.2-0.2-0.3-0.3c-0.1-0.1-0.2-0.2-0.4-0.2C236.8,534.7,234,526.3,232.9,518.1z M288.5,492c-4.9,5.1-7.7,11.7-10.2,18.3
				c-3.1,8.1-6.5,16-10.8,23.5c-1.2,2.1-2.3,4.3-3.8,6.1c-1.4,1.6-3.4,2.6-5.4,3c-3.1,0.7-6.3,0.2-9.3-0.8c1.2-0.5,2.4-1.3,3.2-2.3
				c1.4-1.7,2.2-3.8,2.9-5.9c1-2.7,1.9-5.4,2.7-8.1c3.2-10.4,6.1-20.9,10.2-31c4.1-9.8,8.8-19.3,14.2-28.4c2.7-4.5,5.5-8.8,8.6-13.1
				c2.7-3.8,5.7-7.5,9.2-10.7c3.8-3.5,8.3-6.2,13.3-7.4c4.5-1,9.2-1.4,13.9-1.5c0.1,12.2,0.3,24.4,0.3,36.7c0,3.6-0.3,7.6-0.2,11.5
				C314.1,480.7,298.3,481.9,288.5,492z M462.9,482.5c-0.3,3.7-0.9,7.4-2.8,10.6c-1.8,3.1-4.7,5.5-7.9,7c-7,3.3-15.2,2.3-22.7,2.3
				c-8.7,0-17.4,0.2-26,0.3c-8.9,0.1-17.8,0.2-26.7,0.1c-8.3-0.1-16.7-0.5-25-0.5c-7.1,0-15.3-0.6-19.6-7c-3.6-5.5-3.2-12.7-3-18.9
				c0.3-12.8,0-25.6-0.1-38.3c-0.2-20.5-0.4-41.1-0.6-61.6c-0.2-23-0.3-46.1-0.2-69.1c0-19.5,0.2-39.1,0.8-58.6
				c0.1-3.5,0.3-7.1,0.4-10.6c0-0.3-0.1-0.5-0.3-0.7c0.3-5.6,1.7-12,6.5-15.4c2.5-1.8,5.3-2.4,8.3-2.8c4-0.6,8.1-0.9,12.2-1
				c8.3-0.2,16.7,0.2,25,0.3c8.5,0.1,17.1,0.1,25.6,0c8.5,0,17,0,25.5,0.1c4.4,0.1,8.9,0.2,13.3,0.4c3.1,0.1,5.9,0.9,8.5,2.7
				c3.9,2.7,6.5,7.2,7.4,11.7c0.6,2.8,0.3,5.9,0.3,8.8c0,4.1,0,8.2,0.1,12.3c0.2,34.2,0.4,68.3,0.6,102.5
				c0.2,33.9,0.4,67.9,0.6,101.8c0,4.1,0.1,8.2,0.1,12.3C463,474.9,463.2,478.7,462.9,482.5z M536.9,538.8c-3.1,0.7-6.3,1-9.4,0.7
				c-2.8-0.2-5.3-0.9-7.4-2.9c-3.1-3-4.8-7.2-6.1-11.2c-1.6-4.8-3.1-9.6-4.6-14.4c-1.4-4.3-2.6-8.7-4.3-12.9c-1.4-3.6-3.1-7-5.7-9.9
				c-2.5-2.9-5.7-5-9.1-6.4c-7.9-3.3-17.1-4.3-25.6-3.5c0.2-7.7-0.1-15.4-0.1-23.1c-0.1-7.9-0.1-15.8-0.2-23.8c3.2,0.1,6.3,0,9.4,1
				c4.4,1.4,8.5,3.2,12.1,6.2c7.6,6.4,12.6,15.5,17.2,24.2c5.2,9.6,9.9,19.5,14.2,29.5c4.2,10,7.9,20.2,11.4,30.4
				c1.6,4.6,2.7,9.7,6.9,12.7c1.6,1.1,3.6,1.9,5.5,1.9C539.8,538.1,538.3,538.5,536.9,538.8z M559.5,497.3
				c-0.6,13.8-5.1,27.9-15.2,37.6c-0.2-0.1-0.4-0.1-0.7,0.1c-2.6,1.5-5.9,0.3-8-1.5c-1.6-1.4-2.7-3.2-3.4-5.1
				c-0.9-2.5-1.7-5.1-2.6-7.7c-3.5-10-7.2-19.9-11.4-29.6c-4.2-9.9-8.9-19.7-14.1-29.1c-4.6-8.4-9.4-17.2-16.7-23.6
				c-3.8-3.3-8-5.3-12.8-7c-3.4-1.2-6.8-1.2-10.4-1c0-0.2,0-0.4,0-0.6c-0.1-12.5-0.2-25-0.2-37.4c6.5,0.7,12.3-3,17.5-6.3
				c2.9-1.8,5.9-3.5,9.1-4.6c4.5-1.5,9.2-1.9,13.8-1.7c8.8,0.4,17.4,2.7,25.7,5.4c0.3,0.1,0.5,0,0.7-0.1c0.9,0.6,1.9,2.7,2.4,3.5
				c1.6,3,2.9,6.1,4.1,9.2c3.5,9.1,6.5,18.4,9.2,27.7c2.9,9.9,5.5,19.8,7.7,29.8C557.5,468.9,560.2,483.1,559.5,497.3z"/>
			<path class="st2" d="M496,413.1c-1.3-1.1-2.8-1.9-4.5-2c-0.1-0.2-0.3-0.3-0.6-0.2c-3.4,0.8-6.8,2.6-7.6,6.3
				c-0.8,3.6-0.3,7.8,2.6,10.3c2.7,2.3,6.6,2.5,9.6,0.6c1.5-1,2.6-2.5,3.3-4.1c0.7-1.8,1.3-3.9,0.9-5.9
				C499.2,415.9,497.5,414.4,496,413.1z M497.8,422.6c-0.5,1.4-1.3,2.8-2.5,3.8c-2.3,1.9-5.7,2-8.1,0.3c-2.8-2-3.2-5.2-2.9-8.4
				c0.3-3.3,2.8-5.1,5.7-6.1c0.1,0.1,0.3,0.1,0.5,0.1c1.8-0.3,3.4,0.8,4.7,1.9c1.1,0.9,2.2,1.9,2.8,3.2
				C498.8,419.1,498.3,421,497.8,422.6z"/>
			<path class="st2" d="M514.5,392.9c-0.2-0.1-0.4-0.1-0.6,0c-2.2-0.9-4.7-1.2-6.9-0.4c-2.6,0.9-4.3,3.2-4.8,5.9
				c-0.6,3.7,0.6,7.6,4.1,9.5c3.6,1.9,8.1,0.6,10.4-2.8c1.3-2,2.1-4.7,1.8-7.1C518,395.7,516.5,393.8,514.5,392.9z M515.6,403.4
				c-1.6,3-5.1,4.6-8.3,3.1c-3-1.3-4.1-4.5-3.8-7.6c0.2-2.2,1.4-4.1,3.5-5c2-0.9,4.3-0.8,6.3,0c0.1,0.2,0.2,0.3,0.4,0.4
				c1.5,0.7,2.7,2.1,3,3.7C517,399.8,516.4,401.8,515.6,403.4z"/>
			<path class="st2" d="M517.2,434.5C517.2,434.5,517.2,434.4,517.2,434.5c0-0.1-0.1-0.1-0.1-0.2c-0.1-0.2-0.3-0.3-0.5-0.3
				c-1.1-1.1-1.5-2.7-2.9-3.5c-1.6-1-3.6-0.8-5.3-0.4c-1.9,0.4-4,1-5.4,2.5c-1.3,1.4-1.8,3.4-2,5.2c-0.4,4,1.3,8.3,5.2,10.1
				c3.5,1.6,7.5,0,9.8-2.9c2.1-2.8,2.8-6.6,1.5-9.9C517.5,434.8,517.5,434.6,517.2,434.5z M515.7,443.1c-1.6,2.8-4.8,4.9-8,4
				c-3.6-1-5.4-4.6-5.4-8.1c0-1.7,0.3-3.6,1.3-5c1.1-1.5,3-2.1,4.7-2.5c1.7-0.4,3.8-0.8,5.2,0.4c1.1,0.9,1.6,2.3,2.6,3.3
				C517.3,437.6,517.1,440.6,515.7,443.1z"/>
			<path class="st2" d="M531.3,411.1c-0.2,0-0.3,0-0.5,0.1c-3.4-0.5-7,0.4-9,3.4c-2,3.2-2,7.7-0.1,10.9c2.2,3.4,6.7,4.1,10.2,2.6
				c1.6-0.7,3.1-1.7,4.1-3.2c1.1-1.6,1.3-3.7,1.3-5.6c0-1.9-0.8-3.8-1.9-5.3C534.5,412.6,533.1,411.3,531.3,411.1z M535.8,420.5
				c-0.1,0.9-0.1,1.8-0.5,2.7c-0.5,1.4-1.7,2.4-2.9,3.1c-2.7,1.5-6.7,1.6-8.8-0.9c-2.1-2.4-2.4-6.4-1.1-9.3c0.7-1.6,1.9-2.9,3.6-3.5
				c1.5-0.5,3.1-0.5,4.7-0.4c0.1,0.1,0.2,0.2,0.3,0.2c2.5,0.6,4.3,3.5,4.7,5.9C536,419.1,535.9,419.8,535.8,420.5z"/>
			<path class="st2" d="M261.2,430c1.4-0.2,2.9-0.5,4.3-0.2c1.8,0.3,2.6,1.9,2.9,3.6c0.6,3.3-0.8,7,1.7,9.7c1.9,2.1,5,2.4,7.7,2.2
				c2.6-0.2,6.3-0.4,7.1-3.5c0.5-2,0.3-4.1,0.3-6.1c0-1-0.1-2.2,0.1-3.1c0.2-0.7,0.5-0.9,1.2-1c0.7,0,1.3,0,2-0.1
				c2.2-0.1,4.5-0.1,6.7-0.2c1.4-0.1,2.7-0.3,3.3-1.7c0.4-0.9,0.3-2,0.3-3c0-1.3,0-2.6-0.1-3.9c-0.2-1.8-0.2-4.3-1.2-5.9
				c-1-1.5-2.9-1.4-4.4-1.4c-2.4,0-4.7,0-7.1,0c-0.2-2.2-0.1-4.4,0.1-6.6c0.2-1.6,0.5-3.3,0.1-4.9c-0.3-1.4-1.2-2.6-2.7-2.9
				c-0.9-0.2-1.9-0.1-2.8-0.1c-1.3,0-2.6,0-3.9,0c-1.8,0-4.2-0.4-5.9,0.4c-1.7,0.8-1.9,2.9-2.2,4.6c-0.2,1.2-0.3,2.3-0.3,3.5
				c0,1.1,0.1,2.3,0,3.4c-0.2,2.5-2.1,2.6-4.1,2.4c-1.9-0.2-4-0.5-6-0.1c-1.2,0.3-2,0.9-2.5,1.8c-0.1,0.1-0.2,0.2-0.2,0.3
				c0,0.1,0,0.1,0,0.2c-0.1,0.2-0.2,0.4-0.3,0.7c-0.1,0.2,0,0.4,0,0.5c-0.2,1.2-0.3,2.4-0.3,3.6c-0.1,1.6-0.2,3.4,0.2,5
				C255.9,430,258.7,430.2,261.2,430z M260.1,416.3c1.7,0,3.4,0.2,5.1,0.3c1.2,0.1,2.4,0,3.3-0.7c1.1-0.8,1.5-2.2,1.6-3.5
				c0.1-2-0.1-3.9,0.1-5.9c0.1-1,0.2-2.4,0.7-3.3c0.5-1,1.7-1,2.6-1c2.1,0,4.1,0,6.2,0c1.7,0,4.2-0.5,4.9,1.5c0.6,1.6,0.2,3.4,0,5
				c-0.2,2.4-0.2,4.9,0,7.3c0,0.4,0.3,0.7,0.7,0.7c2,0,4,0,6,0c1.4,0,4.4-0.5,5.2,1c0.8,1.5,0.8,3.7,0.9,5.4c0.1,1,0.1,1.9,0.1,2.9
				c0,0.8,0.1,2.1-0.2,2.9c-0.5,1.1-2,0.9-3,0.9c-1,0-2,0.1-3,0.1c-1.8,0.1-3.8-0.1-5.6,0.2c-1,0.2-1.6,0.8-1.7,1.8
				c-0.3,1.8-0.2,3.8-0.2,5.6c0,1.4,0.4,4-0.8,5.1c-1.1,1-3.4,1.1-4.8,1.2c-2.5,0.2-5.8,0.2-7.4-2.1c-1.9-2.6-0.5-6.3-1.3-9.3
				c-0.6-2.2-2.1-3.8-4.4-4c-1.3-0.1-2.7,0.1-4,0.3c-1.2,0.1-2.8,0.4-3.8-0.5c-1.4-1.1-1-3.6-1-5.2c0-1.4,0.1-2.9,0.3-4.3
				c0.2-0.1,0.3-0.2,0.4-0.4C257.4,416.8,258.5,416.4,260.1,416.3z"/>
			<path class="st2" d="M457.4,404.3c0-16.4,0.4-32.7,0.3-49.1c0-17.7-0.1-35.3-0.6-53c-0.1-2.7-0.2-5.3-0.5-7.9
				c0.1-0.2,0.2-0.4,0.2-0.7c-0.8-5.1-2.8-10.4-8.1-12.3c-3-1-6.4-1.1-9.5-1.4c-1.6-0.1-3.2-0.2-4.8-0.2c-1.1,0-2.4-0.1-3.4,0.6
				c-1.6,1.1-1.9,3.5-2.3,5.2c-0.2,1.2-0.6,2.2-1.6,3c-1.4,1.1-3.1,1.3-4.8,1.3c-3.6,0-7.2-0.3-10.7-0.4c-3.5-0.1-7-0.2-10.4-0.2
				c-7.3,0-14.6,0.2-21.9,0.6c-3,0.2-6.1,0.6-9.1,0.4c-1.2-0.1-2.5-0.3-3.6-0.9c-1.3-0.7-1.9-1.9-2.6-3.1c-0.4-0.8-0.6-1.5-0.7-2.5
				c0-0.5-0.1-0.9-0.2-1.4c-0.2-0.7-0.7-1.4-1.4-1.8c-1.5-0.9-3.5-0.7-5.2-0.6c-5.7,0.5-11.8-0.4-17.2,1.8c-2.7,1.1-3.9,3.3-4.7,6
				c-0.9,3.2-1.1,6.5-1.2,9.9c-0.1,6.1-0.2,12.2-0.3,18.3c-0.1,7.3-0.3,14.5-0.4,21.8c-0.2,9.8,0,19.7,0.1,29.5
				c0.2,11.3,0.5,22.7,0.4,34c0,6.8-0.2,13.6-0.3,20.4c-0.1,6-0.5,12.1,0.2,18.1c0.6,4.8,2.1,9.8,6,13c3.4,2.7,8.1,3.1,12.3,3.3
				c4.6,0.2,9.2,0,13.8,0.1c4.8,0.1,9.6,0.3,14.4,0.4c11.7,0.2,23.4,0.3,35.1,0.1c6.1-0.1,12.2-0.2,18.2-0.5
				c2.9-0.1,5.8-0.3,8.6-0.5c2.4-0.2,4.9-0.1,7-1.3c2-1.1,3.9-2.7,5.5-4.4c1.4-1.4,2.2-3.3,2.8-5.2c1.6-5.3,1.2-10.5,1-15.9
				C457.7,420.7,457.4,412.5,457.4,404.3z M456.2,441.4c-0.4,2.2-1,4.6-2.3,6.5c-1.1,1.7-3.2,3.2-4.9,4.4c-0.9,0.6-1.9,1.2-3,1.4
				c-1.4,0.2-2.8,0.2-4.2,0.3c-2.9,0.2-5.8,0.3-8.6,0.5c-11.7,0.5-23.5,0.7-35.2,0.6c-10.4,0-20.7-0.2-31.1-0.5
				c-4.3-0.1-8.7,0.1-13,0c-4.2-0.1-9.4-0.1-13.1-2.5c-4.4-2.9-5.8-8.4-6.3-13.4c-0.5-5.9-0.2-12-0.1-17.9
				c0.2-12.9,0.3-25.8,0.1-38.7c-0.2-12.3-0.5-24.7-0.4-37c0.1-14.2,0.5-28.4,0.7-42.6c0.1-3.4,0-6.9,0.5-10.2c0.4-3,0.9-7,3.8-8.6
				c2.8-1.5,6.6-1.7,9.7-1.8c2.6-0.1,5.1,0,7.6-0.2c1.4-0.1,3.9-0.5,4.8,0.8c0.6,0.8,0.3,2,0.5,3c0.3,1.3,1.1,2.6,1.9,3.7
				c3.1,4.2,10,2.7,14.4,2.5c13.9-0.8,27.8-0.8,41.7-0.1c2.8,0.1,5.7,0.2,8-1.5c1.9-1.4,2.1-3.3,2.6-5.5c0.2-0.9,0.5-2.1,1.2-2.7
				c1-0.8,3.3-0.4,4.5-0.4c3.3,0.1,6.7,0.4,9.9,1c2.8,0.6,5,1.8,6.6,4.3c1.4,2.2,2,4.8,2.4,7.3c0,0.3,0.2,0.4,0.3,0.5
				c0.8,6.1,0.6,12.5,0.7,18.7c0.1,9.2,0.2,18.5,0.2,27.7c0.1,17.9,0,35.7-0.4,53.6c-0.1,5.9-0.2,11.7-0.1,17.6
				c0.1,4.4,0.2,8.8,0.4,13.2C456.5,430.6,457.2,436.1,456.2,441.4z"/>
			<path class="st2" d="M364.8,466.2C364.7,466.2,364.7,466.2,364.8,466.2c-1.9-2.3-4.6-3.8-7.8-4c-0.1,0-0.2,0-0.3,0.1
				c-2.4-0.6-5.1,0-7.3,1.2c-1.5,0.8-2.6,1.9-3.4,3.2c0,0,0,0-0.1,0c-2.1,1.8-2.9,4.7-3.5,7.4c-0.7,3-0.6,6.7,0.6,9.5
				c1.1,2.5,2.4,4.9,4.6,6.6c2.1,1.6,4.6,2.7,7.2,3c9,1,16.4-6.9,16.1-15.7C370.7,473,369.1,468.4,364.8,466.2z M348.9,465.4
				c2.3-1.7,4.9-2.2,7.7-1.9c0.1,0.1,0.2,0.1,0.3,0.2c2.1,0.6,4.3,1.1,5.9,2.7c1.2,1.2,1.9,2.7,2.4,4.2c0.8,2.6,0.8,5.8,0,8.4
				c-1.4,4.3-5.3,5.9-9.6,5.6c-2.8-0.2-5.7-1-7.8-2.9c-2.2-1.9-3-4.9-2.8-7.7C345.2,471,346.4,467.2,348.9,465.4z M366.7,486.9
				c-5.2,7.6-17.5,6.6-21.6-1.6c-0.7-1.5-1.4-2.8-1.7-4.5c-0.3-1.9-0.5-3.8-0.1-5.6c0.1-0.5,0.2-1,0.3-1.6c-0.2,2.1,0.1,4.3,1,6.2
				c1.3,2.6,3.7,4.4,6.4,5.3c4.9,1.6,11.3,1.4,14.3-3.4c1.9-3.1,2.2-7.2,1.5-10.7c-0.2-0.8-0.4-1.5-0.7-2.2
				C371,473.3,370.2,481.9,366.7,486.9z"/>
			<path class="st2" d="M356.4,470.7c0.2,0.1,0.5,0,0.6-0.2c0.7-1.6,1.2-3.2,1.7-4.8c0.1-0.3-0.1-0.6-0.4-0.7
				c-0.3-0.1-0.6,0.1-0.7,0.4c-0.3,0.8-0.5,1.6-0.8,2.3c-0.3,0.8-0.5,1.6-0.7,2.3C356,470.4,356.2,470.7,356.4,470.7z"/>
			<path class="st2" d="M432.3,463.3c0,0-0.1,0-0.1,0c-1.2,0-2.3,0.3-3.4,0.7c-4.4,1.5-8.7,4.8-10.5,9.2c-1.9,4.8-2.2,9.8,0.7,14.3
				c2.6,4,7.1,6.3,11.9,6.5c2.4,0.1,4.9-0.4,7-1.5c2.3-1.2,3.9-3.4,5.1-5.6c2.9-5.2,3.8-11.6,0.6-16.8
				C441.5,465.8,437,463,432.3,463.3z M441.7,469.4c2.4,3.8,2.2,8.9-0.6,12.4c-2.7,3.4-7.2,4.7-11.3,3.2c-4.3-1.6-7.3-6.6-7-11.1
				c0.2-2.7,1.7-4.8,3.5-6.6c1.2-1.2,2.5-2.1,4-2.5c0.1,0,0.1,0,0.2,0C434.8,464.2,439.3,465.6,441.7,469.4z M442.8,484.7
				c-1,2.1-2.2,4.2-4,5.7c-1.8,1.5-4.2,2.2-6.6,2.4c-4.4,0.3-8.8-1.5-11.5-4.9c-3-3.7-3.2-8.3-1.8-12.7c0.8-2.5,2-4.5,4-6.2
				c0.3-0.3,0.7-0.6,1.1-0.8c-0.9,1.1-1.6,2.2-2,3.5c-1.7,4.9,1.1,11.2,5.4,13.9c4.3,2.6,9.7,2.1,13.5-1.2c1.9-1.6,3.1-3.8,3.7-6.1
				C444.3,480.4,443.7,482.6,442.8,484.7z"/>
			<path class="st2" d="M402.4,465.5c-0.4-0.4-0.8-0.8-1.3-1.1c-2.1-1.6-4.6-2-7.2-1.9c-0.1,0-0.2,0-0.3,0.1
				c-2.4,0.3-4.6,1.3-6.4,2.8c-0.1,0-0.2,0-0.3,0.1c-4.4,2.5-6.8,7.5-6.8,12.4c-0.1,5.4,2.4,10.4,7.1,13.1
				c4.1,2.4,10.2,2.9,14.4,0.4c2.1-1.2,4.2-2.9,5.3-5.1c1.2-2.4,1.9-5.3,2-8C409.1,473.3,406.3,468.5,402.4,465.5z M403,468.9
				c2.3,3.9,2.1,9.2-0.9,12.8c-3.1,3.7-8.7,3.8-12.7,1.6c-3.8-2.1-5.9-6.4-5.1-10.7c0.8-4.7,4.9-8.1,9.5-8.9c0,0,0.1,0,0.1,0
				C397.8,463.7,401.1,465.5,403,468.9z M406.8,483.2c-0.7,2.6-2.1,4.6-4.3,6.2c-3.6,2.6-8.6,3.2-12.7,1.6
				c-4.7-1.9-7.9-6.2-8.4-11.2c-0.2-2.6,0-5.5,1.3-7.9c0.4-0.6,0.8-1.3,1.2-1.9c-0.1,0.2-0.2,0.5-0.3,0.7c-1.6,4.4-0.1,9.8,3.6,12.7
				c3.9,3.1,10.3,3.9,14.4,0.7c3.9-3,5.3-8.5,4-13.1c1,1.6,1.7,3.4,1.9,5.3C407.8,478.6,407.4,481,406.8,483.2z"/>
			<path class="st2" d="M397,475.4c0.9,0.2,1.9,0.3,2.8,0.4c0.5,0.1,0.9,0.1,1.4,0.2c0.4,0.1,0.9,0.2,1.4,0.1c0.7,0,0.9-1.1,0.2-1.3
				c-0.4-0.1-1-0.1-1.4-0.2c-0.5-0.1-0.9-0.1-1.4-0.2c-0.9-0.1-1.8-0.2-2.7-0.2C396.5,474.2,396.4,475.2,397,475.4z"/>
			<path class="st2" d="M431.2,467.5c-0.3-0.5-0.5-1-0.8-1.4c-0.3-0.4-1,0-0.8,0.5c0.1,0.5,0.4,1,0.7,1.5c0.2,0.5,0.4,0.9,0.6,1.4
				c0.4,0.9,0.9,1.9,1.3,2.8c0.1,0.3,0.6,0.4,0.9,0.2c0.3-0.2,0.4-0.6,0.2-0.9c-0.4-0.9-0.9-1.9-1.4-2.8
				C431.7,468.3,431.4,467.9,431.2,467.5z"/>
			<path class="st2" d="M390.2,281c0.1,1.8,1.4,3.5,3.2,3.7c1,0.1,2.2,0,3.2-0.4c1-0.4,1.7-1,2.1-2c0.8-1.9,0-4.1-1.5-5.4
				c-0.8-0.7-1.9-1.2-3-1.2c-1.1,0-2.2,0.5-2.8,1.4c-0.2,0.2-0.1,0.4,0,0.6C390.6,278.7,390.1,279.9,390.2,281z M397.6,281.4
				c-0.2,0.6-0.5,1.2-1.1,1.5c-0.7,0.3-1.5,0.4-2.3,0.5c-0.7,0-1.3-0.1-1.8-0.6c-0.4-0.4-0.7-1-0.8-1.6c-0.2-1.5,0.9-2.8,2.1-3.6
				c0.1-0.1,0.2-0.2,0.2-0.3C395.9,277,398.1,279.3,397.6,281.4z"/>
			<path class="st2" d="M399.6,276.6c0.2,0.1,0.5,0.2,0.8,0.2c0.3,0,0.6-0.1,0.8-0.2c0.2-0.2,0.4-0.3,0.5-0.6
				c0.1-0.2,0.2-0.5,0.2-0.8c0-0.3-0.1-0.5-0.2-0.8c-0.1-0.2-0.3-0.4-0.6-0.5c-0.2-0.1-0.5-0.2-0.8-0.2c-0.1,0-0.2,0-0.3,0
				c-0.2,0-0.5,0-0.7,0.1c-0.3,0.1-0.5,0.4-0.6,0.7c-0.1,0.3-0.1,0.6,0.1,0.9c0,0.1,0.1,0.3,0.2,0.4
				C399.2,276.3,399.4,276.5,399.6,276.6z"/>
		</g>
		<g>
			<g>
				<path class="st1" d="M378.8,367.9c1.8-4.5,7.4-7.4,12.1-7.7c2.3-0.2,4.5,0.2,6.7,1.1c2.4,0.9,4.1,2.4,5.9,4.2
					c0.9,0.9,2.2-0.4,1.4-1.4c-3.3-4.2-9.6-6.3-14.8-5.6c-2.8,0.3-5.5,1.4-7.7,3c-2.1,1.4-4.5,3.6-4.7,6.3
					C377.5,368.5,378.5,368.5,378.8,367.9L378.8,367.9z"/>
			</g>
		</g>
	</g>
</g>
</svg>
