<?xml version="1.0" encoding="utf-8"?>
<!-- Generator: Adobe Illustrator 25.0.0, SVG Export Plug-In . SVG Version: 6.00 Build 0)  -->
<svg version="1.1" id="Layer_1" xmlns="http://www.w3.org/2000/svg" xmlns:xlink="http://www.w3.org/1999/xlink" x="0px" y="0px"
	 viewBox="0 0 792 612" style="enable-background:new 0 0 792 612;" xml:space="preserve">
<style type="text/css">
	.st0{display:none;}
	.st1{fill:#231F20;}
	.st2{fill:#FFFFFF;}
</style>
<g id="referencias" class="st0">
</g>
<g id="vector">
	<g>
		<g>
			<path class="st1" d="M340.8,288.4c-0.3,0.6-0.4,1.3-0.4,2c0,0.4,0,0.6,0,1c0,0.4,0,0.8,0.2,1.1c0.3,0.7,1.1,0.9,1.7,0.8
				c0.6,0,1.3-0.1,1.9-0.3c0.6-0.2,1.2-0.5,1.3-1.1c0.1-0.4,0.1-0.6,0.1-1c0-0.4,0-0.8,0-1.2c0-0.5,0.1-1-0.1-1.5
				c-0.2-0.5-0.5-1.1-1.2-1.1c-0.4,0-0.7,0.1-1.2,0.2s-0.8,0.2-1.3,0.2c-0.1,0-0.2,0-0.3,0.1C341.4,287.8,341,287.9,340.8,288.4z
				 M341.6,292.1L341.6,292.1L341.6,292.1z M343.9,288.3c0.1,0,0.3-0.1,0.4-0.1h0.1l0,0l0,0l0,0l0,0l0,0l0,0l0,0c0,0,0,0.1,0.1,0.1
				v0.1v0.1c0,0.1,0,0.1,0.1,0.2c0,0,0,0,0,0.1c0,0,0,0,0,0.1s0,0.2,0,0.3c0,0.6-0.1,1.2-0.1,1.8c0,0.3,0,0.4-0.1,0.7
				c0,0.1-0.2,0.2-0.3,0.3c-0.4,0.2-0.7,0.3-1.2,0.4s-0.9,0.1-1.4,0.1l0,0v-0.1c0-0.1,0-0.2,0-0.3c0-0.3-0.1-0.6-0.1-0.9
				c0-0.6-0.1-1.3,0.2-1.8c0-0.1,0-0.1,0.1-0.2c0,0,0-0.1,0.1-0.1l0,0l0,0l0.1-0.1c-0.1,0.1,0,0,0,0c0.1,0,0.1-0.1,0.2-0.1
				C342.7,288.5,343.3,288.4,343.9,288.3z"/>
			<path class="st1" d="M350.4,286.7c-0.1,1.1-0.2,2.1-0.2,3.2c-0.3-0.3-0.6-0.5-0.9-0.9c-0.7-0.6-1.4-1.3-1.9-2.1
				c-0.3-0.4-0.9-0.3-1,0.3c-0.1,0.9-0.1,1.7-0.2,2.6c0,0.9-0.1,1.7,0.1,2.6c0,0.3,0.4,0.4,0.5,0.4c0.3,0,0.4-0.3,0.4-0.4
				c0.1-0.8,0.1-1.7,0.1-2.5c0-0.4,0-0.7,0.1-1.1c0.4,0.4,0.6,0.7,1,1c0.7,0.6,1.4,1.3,2,2.1c0.4,0.5,1.1,0.2,1-0.4
				c-0.2-1.5,0.2-3,0.2-4.6C351.5,286.1,350.4,286.1,350.4,286.7z"/>
			<path class="st1" d="M338.1,370.8c0.4,0.3,0.8,0.4,1.2,0.3c0.7-0.1,1.4-0.3,2.1-0.5c0.5-0.2,0.9-0.4,1.2-0.9
				c0.3-0.6,0.3-1.3,0.3-2c0.1-0.6,0.1-1.4-0.1-2.1c-0.1-0.4-0.4-0.7-0.7-0.9c-0.4-0.2-0.8-0.1-1.3,0c-0.8,0.2-1.6,0.4-2.4,0.8
				c-0.2,0.1-0.2,0.2-0.3,0.4c-0.3,0.4-0.4,0.8-0.4,1.3c0,0.4,0,0.7,0.1,1c0,0.4,0,0.8,0,1.3C337.6,369.9,337.5,370.4,338.1,370.8z
				 M341.2,365.7c0.1,0,0.1,0,0.2,0h0.1l0,0l0.1,0.1c0.2,0.4,0.2,1,0.1,1.4c0,0.3-0.1,0.5-0.1,0.8s0,0.5,0,0.7
				c0,0.2-0.1,0.3-0.2,0.4l0,0l0,0l0,0c-0.2,0-0.3,0.1-0.4,0.2c-0.1,0.1-0.3,0.1-0.4,0.2c-0.3,0.1-0.5,0.2-0.8,0.3
				c-0.2,0-0.3,0.1-0.4,0.1c-0.1,0-0.1,0-0.2,0H339H339h-0.1l0,0l0,0h-0.1l0,0c0,0-0.1-0.1,0,0l0,0l0,0v-0.1c0-0.1,0-0.2,0-0.3
				c0-0.4,0.1-0.7,0.1-1c0-0.4,0-0.6-0.1-1c0-0.4,0-0.9,0.3-1.3c0.4-0.2,0.9-0.3,1.3-0.4C340.7,365.8,340.9,365.8,341.2,365.7z
				 M338.7,369.9L338.7,369.9L338.7,369.9z"/>
			<path class="st1" d="M345.2,364.9c0.2,0,0.3-0.1,0.4-0.1c0.1,0,0.2-0.1,0.3-0.1c0.2,0,0.3-0.1,0.4-0.2s0.3-0.4,0.3-0.5
				c-0.1-0.2-0.3-0.4-0.4-0.4s-0.3,0.1-0.4,0.1c-0.1,0-0.2,0.1-0.3,0.1c-0.2,0-0.3,0.1-0.4,0.1c-0.3,0.1-0.6,0.1-0.9,0.2
				c0,0,0,0-0.1,0c-0.3-0.1-0.6,0.1-0.6,0.4c0,0.8,0,1.7,0.1,2.5c0,0.4,0,0.8,0,1.3s-0.1,0.8-0.1,1.3c0,0.6,0.8,0.6,1,0.2
				c0.2-0.4,0.2-0.9,0.2-1.3s0-0.6,0-1c0.6-0.2,1.2-0.3,1.8-0.4c0.3-0.1,0.4-0.4,0.4-0.6c-0.1-0.3-0.4-0.4-0.6-0.4
				c-0.5,0.2-1,0.3-1.5,0.4c0-0.4-0.1-0.9-0.1-1.4C344.7,365,345,365,345.2,364.9z"/>
			<path class="st1" d="M350.3,363.9c0.3-0.1,0.4-0.4,0.4-0.6c-0.1-0.3-0.4-0.4-0.6-0.4c-0.4,0.1-0.6,0.2-1,0.3
				c-0.2,0-0.3,0.1-0.4,0.1h-0.1l0,0c-0.1,0-0.2,0-0.2,0c-0.1,0-0.1,0-0.2,0c-0.3,0-0.5,0.1-0.5,0.4c0,0.7,0,1.4,0.1,2.1
				c0,0.4,0,0.9,0,1.4c0,0.2,0,0.4,0,0.6c0,0.1,0,0.2,0,0.3v0.1v0.1c-0.1,0.3,0.1,0.5,0.4,0.6s0.6-0.1,0.6-0.4
				c0.1-0.7,0.1-1.4,0.1-2.1c0.2,0,0.4-0.1,0.6-0.1c0.3-0.1,0.6-0.2,0.9-0.3c0.2-0.1,0.3-0.4,0.2-0.6c-0.1-0.3-0.4-0.4-0.6-0.3
				c-0.2,0-0.3,0.1-0.4,0.2c-0.1,0-0.3,0.1-0.4,0.1s-0.3,0.1-0.4,0.1c0-0.4-0.1-0.9-0.1-1.3C349.2,364.2,349.7,364,350.3,363.9z"/>
			<path class="st1" d="M477.7,378.5c0,0.1,0.1,0.3,0.3,0.4c0.1,0.1,0.3,0.1,0.4,0.1c0.4-0.1,0.7-0.3,1-0.4c0.6,0.2,1.3,0.3,2,0.4
				c1,0.3,2,0.4,3,0.7c0.4,0.1,0.7-0.1,0.8-0.4c0.6-0.4,1.2-0.9,1.4-1.6c0.4-0.8,0.4-1.9,0.1-2.7c-0.2-0.4-0.4-0.9-1-1.2
				c-0.2-0.1-0.4-0.1-0.4-0.2l0,0c-8.4-1.9-16.7-3.7-25.2-5.5c-11.7-2.5-23.5-4.9-35.1-7.4c-12.4-2.6-24.8-5.2-37.2-7.8
				c-10.5-2.1-20.9-4.4-31.3-6.5c-0.7-0.2-1.4-0.3-2.1-0.4c0.4-4.5,0.5-9,0.6-13.4c0.1-5,0.2-10.1,0.1-15.1
				c-0.1-3.1-0.1-6.9-1.9-9.7c-1.7-2.7-4.8-3.7-7.9-3.1c-4.3,0.8-7.5,4.4-9.3,8.1c-2.1,4.7-2.2,9.8-2.5,14.9
				c-0.2,4.2-0.4,8.4-0.4,12.7c0.1,3.9,0,8.4,1.4,12.2c0.4,1.1,1,2.1,1.9,3c1.6,1.4,3.8,2.1,6,2.1c2.4,0.1,5.1-0.4,7.3-1.7
				c1.7-1.1,2.8-2.7,3.5-4.5c0.2,0,0.4,0.1,0.6,0.1c9.3,2.1,18.6,4,27.8,6c11.5,2.4,22.9,4.8,34.4,7.3c11.7,2.5,23.5,4.9,35.2,7.5
				c8.8,1.9,17.6,3.8,26.4,5.9C477.6,378.3,477.6,378.4,477.7,378.5z M485.6,376.8L485.6,376.8L485.6,376.8c0,0.2,0,0.3-0.1,0.4
				c0,0.1-0.1,0.2-0.1,0.3c0,0,0,0,0,0.1v0.1c0,0.1-0.1,0.2-0.1,0.3c0,0,0,0.1-0.1,0.1l0,0l0,0c-0.1,0.2-0.3,0.3-0.4,0.4l0,0
				c-0.1,0-0.1,0-0.2-0.1l0,0l0,0c-0.1-0.1-0.1-0.1-0.2-0.2l-0.1-0.1l0,0l0,0c-0.2-0.3-0.3-0.5-0.4-0.9l0,0l0,0c0-0.1,0-0.1,0-0.2
				s0-0.2,0-0.3c0-0.2,0-0.1,0,0c0-0.1,0-0.1,0-0.2s0.1-0.2,0.1-0.3v-0.1V376c0.1-0.1,0.1-0.2,0.2-0.3l0.1-0.1c0,0-0.1,0.1,0,0
				s0.1-0.2,0.2-0.2c0,0,0.2-0.2,0.1-0.1c0.1-0.1,0.2-0.1,0.3-0.2l0,0c0.1,0,0.1,0,0.2,0l0,0l0,0l0,0c0,0,0,0,0.1,0l0,0h0.1l0,0
				c0,0,0.1,0,0.1,0.1c0,0,0,0,0.1,0.1l0,0l0.1,0.1c0,0,0,0.1,0.1,0.1c0.1,0.3,0.2,0.5,0.2,0.8C485.7,376.5,485.7,376.7,485.6,376.8
				z M348.9,355c-1.9,1.2-4.3,1.4-6.5,1.3c-2-0.1-4-0.7-5.4-2.2c-0.5-0.6-0.9-1.4-1.2-2.2c-1.2-3.5-1.2-7.4-1.3-11
				c-0.1-3.7,0.1-7.3,0.3-10.9c0.3-4.7,0.2-9.7,1.6-14.2c1.2-3.8,3.7-7.7,7.6-9.2c2.9-1.1,6.4-0.6,8,2.1c1.5,2.6,1.5,6.1,1.6,9
				c0.1,5,0,9.9-0.1,15c-0.1,4.4-0.4,8.8-0.5,13.2c-0.8-0.2-1.5-0.4-2.3-0.4c0.1-3.8,0.4-7.4,0.6-11.1c0.2-3.8,0.2-7.4,0.3-11.2
				c0-3,0.1-6.1-0.5-9c-0.4-1.9-1.3-3.8-3.3-4.3c-2.8-0.7-5.2,1.3-6.8,3.4c-2.1,2.6-2.4,5.6-2.8,8.7c-0.2,1.9-0.5,3.7-0.6,5.6
				c-0.2,1.9-0.1,3.8-0.2,5.6c-0.2,3.8-0.5,7.4-0.1,11.2c0.4,3,1.3,7.1,4.5,8.4c2.4,1.1,5.6,0.2,6.9-2.2c0-0.1,0-0.1,0.1-0.2
				c1.2,0.3,2.2,0.5,3.4,0.7C351.5,352.8,350.4,354.1,348.9,355z M338.6,342.5c-0.2-3.1,0.1-6.4,0.3-9.5c0.1-1.5,0-3,0.1-4.6
				c0.1-1.7,0.4-3.4,0.5-5.2c0.4-2.8,0.4-5.6,1.9-8c1.2-2.1,3.9-5.1,6.5-3.8c1.6,0.7,1.9,3.1,2.1,4.7c0.4,2.7,0.3,5.5,0.2,8.2
				c0,3.5-0.1,6.9-0.3,10.4c-0.2,3.5-0.5,7-0.6,10.4c-3.4-0.7-6.9-1.4-10.3-2.1c-0.2,0-0.3-0.1-0.4-0.1
				C338.6,342.6,338.6,342.5,338.6,342.5z M339.6,348c2.7,0.8,5.5,1.5,8.2,2.1c-1.6,2-4.7,2.3-6.5,0.6
				C340.5,350.1,339.9,349.1,339.6,348z M420.9,364.3c-11.5-2.4-23.2-4.8-34.7-7.3c-9.7-2.1-19.3-4-29-6.2
				c-5.7-1.3-11.5-2.4-17.3-3.9c-0.2-0.1-0.4-0.1-0.6-0.2c-0.3-1-0.4-2-0.4-2.9c4.8,1.3,9.7,2.2,14.5,3.3c0.1,0,0.1,0,0.2,0
				c0.1,0.1,0.3,0.1,0.4,0.1c9.8,2.1,19.6,4.2,29.5,6.3c12.3,2.6,24.6,5.2,36.9,7.7c11.9,2.5,23.9,5,35.8,7.5
				c9,1.9,17.8,3.8,26.8,5.7c0.3,0.1,0.4,0.1,0.7,0.2c-0.4,0.5-0.7,1.3-0.7,2.1c0,0.4,0.1,0.7,0.2,1.1c-9-2.1-18-4.1-27-6.1
				C444.2,369.2,432.5,366.7,420.9,364.3z"/>
			<path class="st1" d="M544.2,393.3c-9,2.6-18.3,4.8-27.4,7.2c-15.6,3.9-31.2,7.9-46.7,11.8c-18.9,4.7-37.8,9.5-56.7,14.1
				c-18.9,4.7-37.8,9.4-56.8,14.1c-15.6,3.9-31.2,7.8-46.8,11.8c-9.1,2.3-18.4,4.6-27.5,7.2c-0.9,0.3-1.8,0.4-2.6,0.8
				c-1.4,0.5-5.1,3.1-6.4,1.3c-0.4-0.7-0.3-1.8-0.3-2.6c0-1.3,0-2.4,0-3.7c0-3-0.1-5.8,0-8.8c0.1-9,0.5-17.9,0.9-26.8
				c1.7-36.2,4-72.3,6.4-108.4c1.2-17.4,2.1-34.8,3.7-52.1c0.9-10.1,1.7-20.3,2.2-30.4c1.2-23.3,0.8-46.6,0.3-69.9
				c-0.2-8.1-0.4-16.4-0.6-24.5v-0.1c12.4-0.6,24.9-1.2,37.3-1.8c18.9-0.9,37.7-1.8,56.6-2.7c21.3-1,42.6-2.1,63.9-3.1
				c20.1-1,40-2.1,60.1-3.2c15.5-0.9,31-1.8,46.5-3c1.3-0.1,2.8-0.2,4.1-0.4c1.3-0.1,1.3-2.2,0-2.1c-14.7,1.2-29.4,2.1-44,3
				c-19.6,1.2-39.3,2.2-59,3.2c-21.3,1.1-42.7,2.1-64,3.2c-19.3,0.9-38.7,1.9-57.9,2.8c-14.1,0.6-28,1.3-42.1,2.1
				c-1.1,0.1-2.2,0.1-3.3,0.2c-0.1,0-0.1,0-0.2,0c-12.4-1.4-24.8-3.1-37.2-4.9c-3.4-0.4-6.8-1-10.3-1.4c-1.1-0.2-1.3,1.8-0.3,1.9
				c11.9,1.9,23.7,3.6,35.6,5c3.7,0.4,7.4,0.9,11.1,1.3c0,0,0,0,0,0.1c0.8,26.9,1.6,53.7,0.9,80.6c-0.6,24.1-3.4,48.1-4.8,72.2
				c-2.1,36.5-4.7,73-6.8,109.5c-0.4,9-1,18-1.3,27c-0.4,8.9-0.9,17.8-0.7,26.7c0,2.4,0,4.8,0,7.3c0,1.1-0.1,2.3,0,3.5
				c-6-2.6-11.9-5.2-17.9-7.8c-7.2-3-14.3-6.1-21.5-9c-4.1-1.7-8.2-3.6-12.4-4.9c-1.3-0.4-2.1,1.6-0.9,2.1c3.5,1.7,7.3,3,10.8,4.5
				c3.7,1.5,7.3,3,10.9,4.6c7.2,3,14.4,6.1,21.6,9c3.5,1.4,7,2.8,10.6,4.1c2.3,2.5,6.4,0.6,8.9-0.7c0,0,0,0,0.1,0c0,0,0,0,0.1,0
				c0.2-0.1,0.4-0.1,0.5-0.2c0.4-0.2,1-0.3,1.4-0.4c1.4-0.4,2.8-0.8,4.2-1.2c4.5-1.2,9-2.3,13.4-3.5c14.2-3.7,28.6-7.3,42.8-10.8
				c18.5-4.7,37-9.3,55.5-14c19.3-4.8,38.7-9.7,58-14.6c16.8-4.2,33.8-8.6,50.6-12.9c11.1-2.9,22.2-5.7,33.3-8.9
				c1.4-0.4,2.9-0.8,4.3-1.3C546,394.8,545.4,393,544.2,393.3z"/>
			<path class="st1" d="M573.8,192c-5.5,0.6-11,1.3-16.5,2c-7.9,1-15.8,1.9-23.6,2.9c-9.7,1.2-19.4,2.4-29.1,3.6
				c-10.9,1.3-21.8,2.7-32.8,4c-11.5,1.4-23,2.8-34.5,4.2c-11.5,1.4-23.2,2.9-34.7,4.2c-11,1.3-22.1,2.7-33.1,3.9
				c-9.9,1.2-19.8,2.4-29.7,3.6c-8.1,1-16.4,1.9-24.5,2.8c-5.9,0.6-11.7,1.3-17.6,1.9c-0.6,0.1-1.3,0.1-2,0.2
				c0.2-2.4,0.3-4.9,0.4-7.3c0.1-2.9,0.2-5.7,0.4-8.6c0.2-5.6,0.3-11.1,0.4-16.7c0.1-10.9,0.1-21.9-0.2-32.9
				c-0.2-5.6-0.4-11.3-0.6-17c11.9-0.1,23.7-0.9,35.6-1.4c18.8-0.9,37.5-1.9,56.3-2.9c21.4-1.2,42.8-2.2,64.2-3.5
				c20.2-1.2,40.5-2.3,60.7-3.6c15.2-0.9,30.4-1.9,45.7-3c1.3-0.1,2.7-0.2,4-0.3c1.5-0.1,1.5-2.5,0-2.3c-14.5,1-28.9,1.9-43.3,2.8
				c-19.8,1.3-39.7,2.4-59.4,3.5c-21.5,1.3-43,2.4-64.4,3.5c-19.2,1-38.6,2-57.8,3c-13.3,0.6-26.5,1.3-39.8,1.8
				c-0.9,0-1.7,0.1-2.6,0.2c-0.8-0.4-1.9,0-1.8,1.1c1.1,21.8,1.1,43.7,0.6,65.6c-0.1,3.1-0.1,6.2-0.2,9.3c-0.1,3.2-0.4,6.5-0.2,9.8
				c0,0.3,0.1,0.5,0.3,0.6c0.2,0.2,0.4,0.4,0.8,0.4c5.2-0.4,10.5-1,15.7-1.5c7.7-0.8,15.4-1.6,23-2.5c9.6-1.1,19.1-2.1,28.7-3.3
				c10.8-1.3,21.7-2.6,32.5-3.8c11.5-1.3,22.9-2.8,34.4-4.1c11.6-1.4,23.2-2.9,34.8-4.2c11.1-1.3,22.3-2.7,33.4-4.1
				c10-1.3,20.1-2.4,30.2-3.7c8.4-1,16.7-2.1,25.2-3c6.1-0.7,12.3-1.5,18.4-2.1c1.1-0.1,2.1-0.3,3.2-0.4
				C575.3,194.2,575.3,191.9,573.8,192z"/>
			<path class="st1" d="M570.4,199.9c-19.5,2.1-39,4.5-58.6,6.8c-17.3,2.1-34.6,4.2-51.8,6.4c-16.5,2.1-32.9,4.2-49.5,6.3
				c-17.2,2.1-34.4,4.3-51.5,6.4c-19.2,2.3-38.3,4.6-57.6,6.8c-2.5,0.3-5.1,0.6-7.6,0.9c-0.6,0.1-1,0.6-1,1.2
				c-0.2,0.2-0.3,0.4-0.3,0.7c-1,14.8-2.1,29.5-3,44.3c-1.3,18-2.5,35.9-3.8,53.9c-1.2,17.8-2.3,35.6-3.4,53.5
				c-0.9,14.3-1.7,28.7-2.2,43c-0.2,4.7-0.4,9.6-0.4,14.3c0,2.7,0,5.6,0.4,8.2c0,0.3,0.1,0.5,0.2,0.8c0.2,0.7,0.9,0.9,1.4,0.6
				c5.1-1.3,10.2-2.5,15.4-3.8c7.6-1.9,15.3-3.8,22.9-5.6c9.5-2.3,19-4.7,28.4-7.1c10.7-2.7,21.5-5.4,32.2-8
				c11.5-2.9,22.9-5.7,34.4-8.6c11.5-2.9,23-5.7,34.5-8.5c11-2.7,22-5.5,33-8.1c9.9-2.4,19.9-4.8,29.7-7.3c8.2-2,16.6-3.9,24.8-5.9
				c6-1.4,11.9-2.8,17.9-4.1c1.1-0.3,2.1-0.6,3.1-0.8c1.7-0.4,1-3-0.7-2.5c-0.2,0,0.1,0-0.4,0.1c-0.1,0-0.3,0-0.4,0.1
				c-0.3,0-0.5,0.1-0.8,0.2c-0.5,0.1-1.2,0.2-1.7,0.3c-1.3,0.3-2.5,0.5-3.8,0.9c-3,0.7-6,1.4-9,2.1c-7.8,1.9-15.6,3.8-23.3,5.6
				c-9.6,2.3-19.2,4.7-28.7,7c-10.8,2.7-21.6,5.3-32.4,8c-11.5,2.9-23,5.7-34.5,8.5c-11.5,2.9-23,5.7-34.5,8.6
				c-10.9,2.8-21.9,5.5-32.9,8.2c-9.8,2.5-19.7,4.9-29.5,7.4c-8.1,2.1-16.3,4.2-24.4,6.3c-5.8,1.5-11.6,3-17.4,4.5
				c-0.6,0.2-1.3,0.4-1.9,0.5c0-0.4-0.1-0.7-0.1-1c-0.1-1.2-0.1-2.3,0-3.4c18.2-4.9,36.3-9.8,54.6-14.6c18.6-4.7,37.2-9.4,55.9-14.1
				c20.9-5.2,41.8-10.3,62.7-15.5c19.4-4.8,38.9-9.7,58.4-14.6c14.8-3.8,29.5-7.5,44.2-11.5c1.3-0.4,2.6-0.7,3.8-1.1
				c1.3-0.4,0.7-2.4-0.5-2c-13.9,3.9-27.8,7.4-41.7,11c-19.1,4.8-38.1,9.6-57.2,14.3c-21,5.2-41.8,10.3-62.8,15.5
				c-19.1,4.7-38.1,9.5-57.2,14.3c-16.7,4.2-33.3,8.6-50,13.3c-3.4,1-6.8,1.9-10.2,2.9c0.1-3.8,0.2-7.7,0.4-11.5
				c0.5-13.7,1.3-27.4,2.1-41.1c1.1-17.5,2.1-35,3.3-52.5c1.3-18.2,2.4-36.3,3.7-54.4c1.1-15.2,2.1-30.5,3.1-45.8
				c0.1-1.5,0.2-3,0.3-4.6c19.2-2.1,38.2-4.3,57.3-6.5c17.3-2.1,34.6-4.2,51.8-6.4c16.5-2.1,32.9-4.2,49.5-6.3
				c17.2-2.1,34.4-4.3,51.5-6.4c19.2-2.3,38.3-4.6,57.6-6.7c2.5-0.3,5.1-0.5,7.6-0.9C571.8,202,571.8,199.7,570.4,199.9z"/>
			<path class="st1" d="M333.9,262.8c0.4-0.1,0.8-0.3,1.1-0.6c0.3-0.4,0.3-0.8,0.3-1.3s-0.1-0.9-0.3-1.3c-0.4-0.8-1.3-1.1-2.2-1
				c-0.4,0-0.9,0.1-1.3,0.2c-0.4,0.1-0.8,0.1-1.2,0.3c-0.3-0.2-0.7,0-0.7,0.4c0,1,0,2.1,0,3c0,0.4,0,0.9,0,1.3c0,0.5,0,1,0,1.5
				c0.1,0.7,1.1,0.7,1.1,0c0-0.4,0-1,0-1.5c0-0.2,0-0.4,0-0.5c0.7-0.1,1.4-0.2,2.1-0.3C333.2,263,333.6,262.9,333.9,262.8z
				 M330.6,262.2c0-0.8-0.1-1.6-0.1-2.4c0.3,0,0.5-0.1,0.8-0.1c0.3,0,0.6-0.1,0.9-0.1c0.5-0.1,1.3-0.3,1.7,0.2
				c0.2,0.2,0.3,0.5,0.3,0.8c0,0.2,0,0.4,0,0.5c0,0.1,0,0.3,0,0.4c-0.1,0.2-0.4,0.2-0.6,0.3c-0.4,0.1-0.6,0.2-1,0.2
				C332,262.1,331.3,262.2,330.6,262.2z"/>
			<path class="st1" d="M340.5,257.7c-0.5-0.1-1.1,0-1.5,0.1c-0.8,0.1-1.8,0.2-2.5,0.6c-0.6,0.4-0.7,1.2-0.8,1.9
				c-0.1,0.9,0,1.8,0,2.7c0.1,0.8,0.1,1.6,0.9,1.9c0.5,0.2,1.1,0.1,1.6,0.1c0.1,0,0.2,0,0.2,0c0.9-0.1,1.9-0.3,2.6-0.9
				c0.7-0.6,0.7-1.5,0.7-2.3c0-0.6,0.1-1.2,0.1-1.8c0-0.5,0-1.2-0.3-1.6C341.2,258,340.8,257.8,340.5,257.7z M340.6,261.1
				c0,0.3,0,0.6,0,0.9c0,0.4,0,0.7-0.2,1c-0.4,0.6-1.3,0.8-2.1,0.9c-0.1,0-0.2,0.1-0.3,0.1c-0.4,0.1-0.6,0.1-1,0
				c-0.1,0-0.3-0.1-0.3-0.2c-0.1-0.2-0.1-0.4-0.2-0.6c0-0.7-0.1-1.4-0.1-2.1c0-0.5,0-1.2,0.2-1.6c0.3-0.5,1.1-0.5,1.6-0.6
				c0.4-0.1,0.7-0.1,1.2-0.2c0.3,0,0.7-0.2,0.9,0.1c0.1,0.2,0.2,0.3,0.2,0.4c0-0.1,0,0.2,0,0.2c0,0.1,0,0.3,0,0.4
				C340.7,260.2,340.7,260.6,340.6,261.1z"/>
			<path class="st1" d="M351.2,256.3c-0.4,1-0.6,2-1,3c-0.2,0.5-0.4,1-0.5,1.4c-0.2,0.4-0.3,1.1-0.6,1.4l0,0
				c-0.1-0.1-0.2-0.3-0.2-0.4c-0.1-0.3-0.2-0.4-0.3-0.7c-0.2-0.4-0.4-1-0.4-1.5c-0.2-0.4-0.3-1-0.4-1.4s-0.3-0.9-0.8-1
				c-0.3-0.1-0.4,0.1-0.5,0.3c-0.4,0.4-0.5,1.2-0.6,1.7c-0.3,0.9-0.5,1.7-0.8,2.6c-0.1,0.3-0.2,0.5-0.3,0.8
				c-0.1-0.3-0.3-0.5-0.4-0.8c-0.5-1.3-0.9-2.6-1.3-4c-0.2-0.6-1.1-0.4-1,0.3c0.4,1.5,0.9,3,1.5,4.5c0.3,0.5,0.4,1.5,1.3,1.4
				c0.5-0.1,0.7-0.7,0.8-1.2c0.4-0.9,0.6-1.9,0.9-2.8c0.1-0.4,0.2-0.8,0.4-1.2l0,0c0.1,0.3,0.2,0.5,0.3,0.9c0.2,0.6,0.4,1.2,0.5,1.7
				c0.3,0.8,0.9,2.5,2.1,1.7c0.4-0.3,0.6-0.8,0.8-1.3c0.3-0.5,0.4-1.2,0.6-1.7c0.4-1.2,0.7-2.3,1.2-3.5
				C352.5,256,351.5,255.7,351.2,256.3z"/>
			<path class="st1" d="M353.7,256.7c0.4,0,0.6-0.1,1-0.1c0.6-0.1,1.3-0.1,1.9-0.2c0.3,0,0.4-0.2,0.4-0.4s-0.3-0.5-0.4-0.4
				c-0.6,0.1-1.3,0.1-2,0.2c-0.4,0-0.7,0.1-1.1,0.1c-0.3,0-0.4,0.1-0.7,0.2c-0.3,0-0.5,0.2-0.5,0.4c-0.1,1.8-0.1,3.7,0,5.5v0.1
				c0,0.3,0.2,0.5,0.4,0.5c0.2,0,0.4,0,0.5,0s0.4,0,0.5-0.1c0.4-0.1,0.7-0.1,1.1-0.2c0.7-0.1,1.4-0.2,2.1-0.4c0.5-0.1,0.4-1-0.2-1
				c-0.7,0-1.4,0.2-2.1,0.3c-0.4,0.1-0.6,0.1-1,0.2c-0.2,0-0.3,0.1-0.4,0.1c0-0.6,0-1.3,0-1.9c0.5,0,1-0.1,1.5-0.2
				c0.4,0,0.7-0.1,1-0.1c0.4,0,0.6-0.1,1-0.2c0.5-0.1,0.4-1-0.1-1c-0.1,0-0.2,0-0.3,0h-0.1l0,0c-0.2,0-0.3,0-0.4,0.1
				c-0.4,0-0.7,0.1-1,0.1c-0.4,0.1-1,0.1-1.4,0.2c0-0.6,0-1.3,0-1.9C353.5,256.7,353.5,256.7,353.7,256.7z"/>
			<path class="st1" d="M363.5,255.7c-0.3-0.5-0.9-0.8-1.5-0.9c-0.5-0.1-1.2,0-1.7,0s-1.3,0.1-1.6,0.4c-0.4,0.4-0.4,0.9-0.3,1.4
				c0.1,0.7,0.1,1.4,0.1,2.2c0,0,0,0,0,0.1c-0.1,0.2-0.1,0.3,0,0.4c0,0.7,0,1.3,0,2.1c0,0.6,0.9,0.6,1,0c0-0.6,0.1-1.2,0.1-1.8
				c0.5,0,1.1-0.1,1.6-0.2c0.4-0.1,0.8-0.2,1.2-0.3l0,0h0.1l0,0l0.1,0.1c0,0,0,0,0.1,0.1l0,0c0,0,0,0.1,0.1,0.1l0,0l0,0
				c0,0,0,0,0,0.1s0,0.2,0,0.2c0,0.2,0,0.3,0.1,0.4c0,0.1,0,0.1,0,0.2l0,0c0,0.2,0,0.4,0,0.6c0,0.3,0.3,0.5,0.5,0.5
				c0.3,0,0.4-0.3,0.5-0.5c0-0.3,0-0.5,0-0.7c0-0.3,0-0.5-0.1-0.8c0-0.4-0.2-0.6-0.4-0.9C363.9,257.9,363.8,256.4,363.5,255.7z
				 M360.8,258.4c-0.4,0.1-0.9,0.2-1.3,0.2c0-0.3,0-0.5,0-0.8c0-0.4,0-0.9-0.1-1.3c0-0.1,0-0.4,0-0.4c0-0.1,0.2-0.1,0.3-0.1
				c0.4-0.1,0.9-0.1,1.3-0.1c0.4,0,0.9-0.1,1.3,0.1c0.3,0.2,0.4,0.5,0.4,0.9s0,0.8-0.3,1.1c-0.2,0.1-0.4,0.2-0.5,0.2l0,0l0,0
				c-0.1,0-0.1,0-0.2,0.1C361.4,258.2,361.1,258.3,360.8,258.4z"/>
			<path class="st1" d="M400.7,329.8c2.1-0.9,3.4-3.1,4.4-5.1c1.1-2.2,1.7-4.6,1.9-7c0.2-2.2,0.2-4.5-0.6-6.6
				c-0.6-1.7-1.6-3.6-3.4-4.2c-0.2,0-0.3,0-0.4,0c-2.2-0.7-4.7,0.6-6.2,2.3c-3,3.4-4,8.9-3.5,13.3
				C393.4,326.3,396,331.9,400.7,329.8z M396.2,311.3c1.1-1.9,3.5-4.4,6-3.6c0.1,0.1,0.1,0.2,0.3,0.3c2.6,1.3,3.3,4.8,3.3,7.3
				c0.1,3.9-1.1,8.4-3.6,11.6c-1.3,1.7-3.6,2.7-5.5,1.1c-1.5-1.3-2.1-3.2-2.5-5.1C393.4,319.2,394.3,314.7,396.2,311.3z"/>
			<path class="st1" d="M394.3,334.5c5.7,2.4,11.5-1.2,14.1-6.4c1.5-3,2.3-6.5,2.7-9.8c0.4-3.3,0.4-6.7-0.5-9.9
				c-0.8-2.5-2.2-4.9-4.5-6.4c-2.8-1.7-6-1.7-8.9-0.2c-0.1,0.1-0.2,0.2-0.3,0.3c-4.8,3.3-7.6,9.1-8.5,14.9c-0.5,3.5-0.4,7,0.4,10.4
				C389.8,330.4,391.2,333.1,394.3,334.5z M389.5,318.6c0.4-5.9,3.1-12.3,8.1-15.8c0.1,0,0.2,0,0.2-0.1c2.5-1.2,5.3-1.2,7.7,0.3
				c1.8,1.1,3,3,3.7,4.9c2,5.6,0.9,12.4-1.1,17.7c-1.8,5-6.5,9.4-12.2,8.1c-3-0.8-4.7-3-5.6-6C389.5,324.7,389.3,321.6,389.5,318.6z
				"/>
			<path class="st1" d="M523.4,350.1c0.1,0,0.2,0,0.3,0c3.4,0.6,6.9-0.1,10.2-1.8c5.5-2.9,9.8-7.8,12.6-13.2
				c3.4-6.2,4.9-13.3,5.7-20.2c0.5-4.7,0.4-9.6-0.4-14.3c-1.7-9.6-7.7-21.7-19-21.6c-0.6,0-1.3,0.1-1.9,0.2c-0.1,0-0.1,0-0.2,0
				c-16.1,0.7-32.2,0.4-48.3,0.2c-4.1,0-8.2-0.1-12.4,0c-0.1-0.1-0.3-0.1-0.4,0c-6.5,2.3-11,7.3-13.9,13.3c-2.5-2.4-6.4-1.3-8.5,1.2
				c-2.1,2.6-3.3,5.8-4.1,9c-0.9,3.7-1.3,7.4-1.1,11.2c0.2,3.3,0.8,6.7,2.6,9.5c0.8,1.3,1.9,2.7,3.4,3.2c1.4,0.4,3.4,0.4,4.7-0.6
				c1.2,3.8,3.3,7.4,7,9c1.9,0.8,4,1.2,6.1,1.6c3.1,0.7,6.3,1.4,9.4,2.1c8.2,1.9,16.4,3.7,24.6,5.6
				C507.6,346.3,515.5,348.2,523.4,350.1z M534.8,299.5c-0.8-0.1-1.6-0.3-2.4-0.4c0.5-6.2,1.1-12.4,1.8-18.6
				c0.7,0.1,1.5,0.2,2.2,0.4C535.7,287.1,535.4,293.3,534.8,299.5z M533.2,280.5c-0.8,6.4-1.4,12.7-1.9,19.2c0,0.3,0.3,0.5,0.5,0.5
				c1.2,0.1,2.2,0.4,3.4,0.4c0.3,0,0.4-0.1,0.4-0.4c0-0.1,0.1-0.1,0.1-0.2c0.6-6.3,0.9-12.5,1.5-18.8c1.8,0.6,3.5,1.7,5,3
				c3.6,3.4,5.8,8,7.2,12.6c1.3,4.6,1.8,9.3,1.6,14c-0.3,6.3-1.3,12.8-3.5,18.7c-2.1,5.8-5.8,11.3-10.7,15.1c-4.5,3.5-10.7,6-16.2,3
				c-4.6-2.5-7.2-7.4-8.6-12.3c-1.5-5.1-2.1-10.6-2-15.8c0.1-7.3,1.6-14.4,4.3-21.2c1.3-3.3,3-6.7,5.1-9.7c1.5-2.1,3.1-4.2,5.2-5.7
				c0.9-0.7,1.9-1.3,2.9-1.8c0.1,0,0.2,0,0.4,0C529.7,280.7,531.4,280.4,533.2,280.5z M447.7,325.4c-1.1-0.6-1.9-1.8-2.4-2.8
				c-1.4-2.5-2.1-5.5-2.2-8.3c-0.4-6,0.6-12.6,3.7-17.9c0.9-1.5,2-3.1,3.7-3.8c1.6-0.6,3.7-0.4,4.8,0.9c-0.4,0.9-0.8,1.8-1.1,2.7
				c-2.2-1.5-4.8,0.8-5.8,3c-1.5,3.2-2.1,6.9-2.3,10.4c-0.2,3.3,0,7,1.2,10c0.4,1.1,1,2.1,2.1,2.5c0.8,0.3,1.7,0.2,2.4-0.2
				c0.2,1,0.4,2,0.6,3C451.3,326,449.1,326.1,447.7,325.4z M451.4,320.4c0,0.1,0,0.3,0.1,0.4c-1,0.7-2.2,0.5-2.9-0.5
				c-0.1-0.2-0.2-0.3-0.2-0.4c0.4,0.1,0.6,0.2,1,0.2c0.4,0.1,0.7,0.2,1,0.2C450.7,320.3,451,320.3,451.4,320.4L451.4,320.4z
				 M451.6,306.8c-0.5,4.1-0.7,8.4-0.3,12.6c-0.2-0.1-0.4-0.1-0.6-0.1c-0.4-0.1-0.7-0.2-1.1-0.2c-0.5-0.1-1.1-0.2-1.6-0.4
				c-0.2-0.5-0.3-1.1-0.4-1.6c-0.5-2.5-0.6-5.2-0.5-7.8c0.2-2.7,0.6-5.4,1.5-7.9c0.2-0.5,0.4-1.1,0.7-1.7c1.3-0.2,2.6-0.3,3.8-0.4
				C452.4,301.8,451.9,304.3,451.6,306.8z M453.4,298.2c-1.2,0.2-2.3,0.3-3.6,0.4c0.9-1.4,2.2-2.5,3.8-1.4
				C453.6,297.6,453.6,297.9,453.4,298.2z M462.8,334.9c-0.9-0.3-1.9-0.4-2.7-0.8c-2.1-0.9-3.7-2.7-4.7-4.7c-2.6-4.6-3-10.2-3-15.3
				c0-12.7,4.4-29,17.6-33.8c0,0,0,0,0.1,0c15.9,0.4,31.8,0.5,47.7,0.4c3.2,0,6.4-0.1,9.6-0.2l0,0c-2.1,1.2-4,2.4-5.6,4.2
				c-2.3,2.6-4.2,5.3-5.8,8.4c-3.5,6.7-5.6,14.1-6.4,21.7c-0.6,6-0.4,12.1,0.9,18c1.2,5.4,3.4,11,7.7,14.6c0.1,0.1,0.3,0.2,0.4,0.3
				c-4.7-1.2-9.4-2.1-14.1-3.2c-8.1-1.9-16.1-3.7-24.2-5.5C474.2,337.6,468.5,336.4,462.8,334.9z"/>
		</g>
		<path class="st2" d="M480.1,371.4c-1,0.1-1.8,0.6-2.5,1.3c-0.5,0.5-0.9,1.3-1.2,2c0,0.1-0.1,0.3-0.1,0.4s0,0.1,0,0.2v0.1l-0.1,0.6
			c-0.1,1,0.3,2.1,1,2.8c0,0,0.1,0.1,0.2,0.1c0.1,0.5,0.3,1.2,0.4,1.7c-2.1,0.8-4.5,0.7-6.7,0.4c-2.4-0.4-4.7-1-7.1-1.6
			c-2.7-0.6-5.4-1.3-8.1-2.1c-2.8-0.8-5.6-1.8-8.5-2.4c-5.7-1.3-11.7-1.7-17.5-2.1c-5.5-0.4-11-0.9-16.2-2.8
			c-4.7-1.7-8.7-4.4-12.3-7.7c0-0.3-0.1-0.5-0.4-0.7c-0.1-0.1-0.2-0.1-0.3-0.2c-0.3-0.8-0.4-1.7-0.4-2.5c0.1-0.4,0.2-0.7,0.3-1
			c0.1-0.3,0.2-0.6,0.3-0.9l0,0c0.1,0,0.1-0.1,0.2-0.1c0.2-0.1,0.4-0.2,0.5-0.2c0.1,0,0.2-0.1,0.4-0.1h0.2c0.1,0,0.2,0,0.3,0
			c0.1,0,0.1,0,0.1,0s0,0,0.1,0h0.1c0,0,0,0,0.1,0l0,0l0,0c0,0,0,0-0.1-0.1c0.3,0.4,0.8,0.6,1.3,0.4c0.4-0.2,0.6-0.8,0.4-1.3
			c-0.4-0.5-0.9-0.8-1.6-0.9c-0.5-0.1-1.1,0.1-1.6,0.3c-1.1,0.4-2.1,1.2-2.6,2.2c-0.4,1.1-0.6,2.2-0.3,3.3c0.1,0.3,0.3,0.5,0.4,0.8
			c-1.8,6-1.3,12.4-0.4,18.6c1,7.2,2.5,14.1,2.6,21.4c0.2,7.4-0.7,15-2.5,22.1c-1.8,7.1-4.9,13.7-5.6,21c-0.4,3.8-0.1,7.6,0.1,11.4
			c0.2,3.9,0.4,7.8,0.6,11.7s0.4,7.8,0.6,11.7c0.1,1.9,0.2,3.8,0.3,5.7c0.1,1.4,0.2,2.8,1.3,3.8c0.9,0.9,2.1,1.3,3.3,1.5
			c1.8,0.4,3.5,0.9,5.2,1.3c3.5,1,6.9,2.1,10.3,3.2c6.8,2.3,13.5,5,20.3,7.4s13.6,4.7,20.7,6.2c6.2,1.3,12.9,2.4,19.2,0.9
			c1.3-0.3,2.6-0.7,3.8-1.3c0.3-0.1,0.4-0.4,0.4-0.6c0-5-0.5-9.9-0.6-14.9c-0.1-4.9-0.3-9.8-0.8-14.7c-0.9-8.6-2.6-17-2.9-25.7
			c-0.2-4.3,0.1-8.7,0.9-13c0.6-3.3,1.5-6.5,2.1-9.8c1.4-7.2,2.8-14.3,3.7-21.6c1.2-9.5,0.1-18.8-1.9-28c0.1,0,0.1,0.1,0.2,0.1
			c0.4,0.1,1-0.2,1.1-0.6s-0.1-0.9-0.5-1.1c-0.1-0.1-0.1-0.1-0.2-0.2s-0.3-0.2-0.4-0.4c-0.1-0.1-0.1-0.1-0.2-0.2c0,0,0-0.1-0.1-0.1
			c-0.1-0.1-0.2-0.3-0.3-0.4c-0.1-0.2-0.2-0.4-0.3-0.5c-0.2-0.8-0.1-1.7,0.4-2.3c0.3-0.4,0.7-0.7,1.2-0.9c0.4-0.2,0.8-0.3,1.2-0.1
			c0.4,0.2,0.9,0,0.9-0.5C482.2,371.6,481,371.2,480.1,371.4z M393.8,453.7c0.1,1.6,0.2,3.2,0.3,4.9c0.1,1.3,0.2,2.8,0.3,4.1
			C394.1,459.7,393.9,456.6,393.8,453.7z M481,372.6L481,372.6L481,372.6L481,372.6z"/>
	</g>
</g>
</svg>
