<?xml version="1.0" encoding="utf-8"?>
<!-- Generator: Adobe Illustrator 25.0.0, SVG Export Plug-In . SVG Version: 6.00 Build 0)  -->
<svg version="1.1" id="Layer_1" xmlns="http://www.w3.org/2000/svg" xmlns:xlink="http://www.w3.org/1999/xlink" x="0px" y="0px"
	 viewBox="0 0 792 612" style="enable-background:new 0 0 792 612;" xml:space="preserve">
<style type="text/css">
	.st0{display:none;}
	.st1{fill:#FFFFFF;}
	.st2{fill:#404041;}
	.st3{fill:#FDE900;}
</style>
<g id="referencias" class="st0">
</g>
<g id="vector">
	<g>
		<g>
			<path class="st1" d="M241.8,103.1c17.6-2.9,28.6-2.1,46.5-2c85.7,0.4,171.3,0.7,257.1,1.1c3.6,0,7.5,0.1,10.4,2.1
				c4.2,2.9,4.7,8.6,4.8,13.5c1.7,117.1,2.3,234.3,2,351.4c0,8.5-0.1,17-0.1,25.5c0,2.2,0,4.6-1,6.6c-2.4,4.9-9,6.2-14.8,6.7
				c-29.6,2.8-59.3,2.8-89,2.8c-66.3,0-132.7,0.1-199,0.1c-5.7,0-11.8-0.1-16.5-3.2c-6.2-4-8.7-11.8-8.8-18.8
				c-0.5-66.1,2.1-298.2,2.7-371.6c0.1-6.6,1.9-16,8.8-14.8"/>
		</g>
		<g>
			<path class="st2" d="M408.6,223.9c-0.9-1.8-2.2-3.4-3.8-4.6c-1.5-1.1-3.4-2-5.2-2.4c-1.1-0.4-2.3-0.7-3.5-0.7
				c-3.1,0-6.2,1.2-8.8,3c-2.4,1.7-4,4.2-5.1,6.9c-2.4,5.9-0.8,13.2,4.2,17.2c5.8,4.6,14.6,4.2,20.2-0.5c0.1,0,0.2,0,0.3-0.1
				c2.7-2.3,4.6-5.5,4.8-9C412,230.2,410.6,226.9,408.6,223.9z M408,224.6c1.6,3,2.3,6.4,1.5,9.7c-0.7,3.1-2.8,5.7-5.4,7.4
				c-4.4,2.9-10.6,3.7-15.2,0.9c0-0.1-0.1-0.1-0.1-0.2c-2.3-2.1-4.4-4.6-5.4-7.6c-1-2.9-0.8-6.2,0.3-9.1c1.8-4.8,6.7-7.8,11.7-8.3
				c0.1,0.5,0.2,0.9,0.2,1.5c-2.2,0.1-4.6,1-6.3,2.2c-1.9,1.3-3.2,3.4-4.1,5.5c-1.9,4.7-0.7,10.3,3.4,13.3
				c4.6,3.5,11.5,3.3,15.9-0.4c0.1,0,0.2,0,0.3-0.1c2.1-1.8,3.5-4.2,3.7-7c0.3-2.9-0.8-5.5-2.4-7.8c-1-1.6-2.2-3.1-3.9-4
				c-1.3-0.7-2.7-1.4-4.2-1.7c-0.1-0.6-0.1-1-0.2-1.6c0.9,0.1,1.9,0.3,2.8,0.7c0.7,0.3,1.2,0.6,1.8,0.8c1.8,0.8,3.2,2,4.4,3.5
				c0.3,0.4,0.6,0.7,0.8,1C407.5,223.8,407.8,224.2,408,224.6z M404,239c-0.1,0.1-0.1,0.1-0.1,0.2c-3.7,3.1-9.4,3.5-13.6,1.2
				c-4.2-2.3-6.1-7.4-4.9-11.9c1.1-4.5,4.6-7.8,9-8.6c0.4-0.1,0.8-0.1,1.2-0.1c0.1,1.3,0.3,2.7,0.5,4c0,0.2,0.2,0.3,0.3,0.3
				c0.6,0,1,0,1.6,0c0.2,0,0.4-0.2,0.3-0.5c-0.2-1.2-0.4-2.4-0.5-3.6c2.4,0.6,4.7,1.9,6.2,3.6c1.8,2.1,3.3,4.8,3.5,7.6
				C407.7,234.5,406.2,237,404,239z M406.4,242.2c-0.1,0.1-0.1,0.1-0.1,0.2c-4.9,4-12.1,4.7-17.6,1.6c-4.8-2.6-7.3-8-6.8-13.3
				c0,1,0.1,2,0.3,2.9c0.5,2.5,1.8,4.8,3.4,6.7c0,0.1,0,0.1,0.1,0.2c0.7,0.8,1.4,1.6,2.2,2.2c0.2,0.1,0.3,0.3,0.5,0.4
				c0.1,0.1,0.2,0.1,0.3,0.1c3.9,2.5,9.1,2.3,13.5,0.5c5.6-2.3,9-7.7,8.6-13.6c0.2,0.7,0.4,1.6,0.4,2.4
				C411.1,236.3,409.2,239.6,406.4,242.2z"/>
			<path class="st2" d="M383.9,254.6C384,254.6,384,254.6,383.9,254.6c0.2-0.1,0.3-0.3,0.4-0.5c0.1-0.2,0.2-0.4,0.3-0.6
				c0.1-0.3,0-0.5-0.1-0.7c-0.3-0.6-0.8-0.8-1.4-0.8c-0.7-0.1-1.4-0.1-2.1,0c-0.2,0-0.4,0.1-0.4,0.4c0,0.7,0,1.4-0.1,2.1
				c0,0.7-0.1,1.5,0,2.1c0,0.3,0.3,0.4,0.5,0.4c0.6,0.1,1.2,0.2,1.8,0.2c0.3,0,0.6,0,0.7-0.1c0.2,0,0.3-0.1,0.5-0.2
				c0.4-0.2,0.7-0.6,0.7-1c0-0.3-0.2-0.6-0.4-0.8C384.2,254.9,384.1,254.7,383.9,254.6z M383.9,253.4
				C383.9,253.4,384,253.4,383.9,253.4L383.9,253.4z M382.7,252.7c0.5,0,0.8,0.1,1.1,0.5c0,0.1,0.1,0.2,0.1,0.2s0,0,0,0.1l0,0
				c0,0,0,0.1-0.1,0.1c0,0.1-0.1,0.2-0.2,0.3l-0.1,0.1c0,0,0,0.1-0.1,0.1l-0.1,0.1l0,0c-0.2,0-0.3,0-0.5,0c-0.6,0-1.1-0.1-1.7,0
				c0-0.5,0-0.8,0-1.3C381.8,252.6,382.2,252.7,382.7,252.7z M383.9,256.1c-0.1,0.1-0.1,0.1-0.2,0.2h-0.1c0,0-0.1,0-0.1,0.1
				c-0.1,0-0.1,0.1-0.2,0.1l0,0c-0.3,0-0.5,0.1-0.7,0.1c-0.5,0-0.8,0-1.3-0.1c0-0.6,0-1.1,0-1.8c0.3,0,0.6,0,0.7,0
				c0.3,0,0.7,0,0.9,0l0,0l0,0c0.2,0.2,0.4,0.4,0.6,0.7c0.1,0.2,0.3,0.3,0.3,0.5c0,0,0,0,0,0.1C383.8,255.9,383.8,255.9,383.9,256.1
				C384,256,383.9,256,383.9,256.1C383.9,256.1,383.9,256,383.9,256.1z"/>
			<path class="st2" d="M388.2,254.1c-0.2-0.4-0.3-0.7-0.5-1.2c-0.1-0.4-0.4-0.7-0.7-0.7c-0.2,0-0.4,0.1-0.5,0.3
				c-0.3,0.7-0.6,1.5-0.7,2.2c-0.1,0.4-0.2,0.7-0.3,1.1s-0.2,0.7-0.2,1.2c0,0.4,0.5,0.4,0.6,0.1c0.1-0.3,0.1-0.6,0.2-0.8
				c0,0,0.1,0.1,0.2,0c0.6-0.1,1.2-0.1,1.8-0.2c0.1,0.3,0.2,0.5,0.3,0.7c0.1,0.2,0.3,0.4,0.5,0.3s0.4-0.3,0.3-0.5
				C388.8,255.6,388.5,254.9,388.2,254.1z M386.2,255.5c0.1-0.3,0.1-0.6,0.2-0.7c0.2-0.6,0.4-1.1,0.6-1.7c0.1,0.2,0.1,0.3,0.2,0.5
				c0.1,0.4,0.3,0.7,0.4,1c0.1,0.3,0.2,0.6,0.3,0.7C387.4,255.4,386.8,255.5,386.2,255.5z"/>
			<path class="st2" d="M393,256.2c-0.4,0-0.7,0-1.2,0c-0.2,0-0.4,0-0.6,0c-0.1,0-0.2,0-0.3,0h-0.1c0-0.1,0-0.2,0-0.3
				c0-0.2,0-0.3,0-0.5c0-0.4,0-0.7,0-1c0-0.7,0-1.4-0.2-2.1c0-0.2-0.2-0.3-0.4-0.2c-0.2,0.1-0.3,0.2-0.2,0.4c0.2,1.1-0.1,2.3,0,3.5
				c0,0.3,0,0.7,0.2,0.8c0.2,0.3,0.6,0.2,0.8,0.2c0.7,0,1.3,0,1.9,0C393.5,256.9,393.5,256.2,393,256.2z"/>
			<path class="st2" d="M397.1,254.3c-0.3-0.7-0.6-1.5-1-2.1c0-0.1-0.1-0.2-0.2-0.2c-0.2,0-0.4,0.1-0.4,0.2
				c-0.1,0.8-0.5,1.7-0.7,2.5c-0.1,0.4-0.3,0.7-0.4,1.1c-0.1,0.2-0.2,0.5-0.2,0.7c0,0.4,0.6,0.5,0.7,0.1c-0.1,0.2,0,0,0-0.1v-0.1
				c0-0.1,0.1-0.3,0.1-0.4c0.1-0.2,0.2-0.5,0.2-0.7c0.5,0,1,0,1.5,0.1c0.2,0.5,0.4,1,0.7,1.4c0.3,0.5,1,0,0.7-0.4
				C397.8,255.8,397.4,255.1,397.1,254.3z M395.5,254.8c0.2-0.5,0.3-1,0.5-1.5c0.2,0.5,0.4,0.9,0.6,1.4v0.1
				C396.1,254.8,395.8,254.8,395.5,254.8z"/>
			<path class="st2" d="M402.8,254.5c0-0.7,0-1.5-0.1-2.2c0-0.5-0.7-0.5-0.7,0c0.1,1,0,2.1,0.1,3.3c-0.7-0.9-1.6-1.9-2.3-2.7
				c-0.2-0.2-0.3-0.4-0.5-0.5c-0.2-0.2-0.6,0-0.6,0.3c0,1.3,0.1,2.7,0,4c0,0.4,0.7,0.4,0.7,0c0.1-1,0-2.1,0-3.1
				c0.8,0.9,1.7,2,2.4,2.9c0.2,0.2,0.3,0.4,0.5,0.5c0.3,0.3,0.7,0,0.6-0.3C402.9,255.8,402.9,255.2,402.8,254.5z"/>
			<path class="st2" d="M407,255.4L407,255.4L407,255.4C406.9,255.4,406.9,255.5,407,255.4L407,255.4c-0.1,0.1-0.1,0.1-0.2,0.1
				c-0.1,0-0.1,0-0.2,0c-0.1,0-0.1,0-0.2,0l0,0c0,0,0,0-0.1,0c-0.1,0-0.3,0-0.4,0c-0.1,0-0.1,0-0.2,0c0,0,0,0-0.1,0l0,0
				c-0.1,0-0.2,0-0.3-0.1h-0.1l0,0c-0.1-0.1-0.2-0.1-0.3-0.2c-0.1-0.1-0.1-0.1-0.2-0.3c-0.1-0.1-0.1-0.2-0.1-0.4
				c-0.1-0.2-0.1-0.5,0-0.7c0.1-0.5,0.3-0.9,0.7-1.1s0.9-0.1,1.4,0.1c0.4,0.2,0.7-0.4,0.4-0.6c-0.6-0.3-1.1-0.5-1.8-0.3
				c-0.7,0.2-1.2,0.7-1.4,1.5c-0.2,0.7-0.1,1.4,0.3,2c0.4,0.6,0.9,0.8,1.6,0.9c0.6,0.1,1.4,0,1.8-0.6
				C407.9,255.5,407.4,255.1,407,255.4z"/>
			<path class="st2" d="M411.8,255.8c-0.4,0-0.8,0-1.2,0s-0.7,0-1,0c0-0.4,0-0.8,0-1.2c0.4-0.1,0.7-0.1,1.1-0.2
				c0.1,0,0.2-0.1,0.2-0.2c0-0.1,0.1-0.2,0-0.3c0-0.1-0.1-0.2-0.2-0.2c-0.1,0-0.2,0-0.3,0c-0.3,0-0.7,0.1-0.9,0.2c0-0.5,0-1-0.1-1.5
				c0.1,0,0.2,0,0.3,0c0.2,0,0.4,0,0.6,0c0.4,0,0.8,0.1,1.2,0c0.2,0,0.4-0.2,0.4-0.4c0-0.2-0.2-0.4-0.4-0.4c-0.5,0-0.8,0-1.2,0
				s-0.9,0-1.3,0.1c-0.1,0-0.2,0.1-0.2,0.2c0,0,0,0,0,0.1l0,0l0,0l0,0c0.3,1.2-0.1,2.4,0,3.6c0,0.2,0.2,0.4,0.4,0.4l0,0
				c0,0,0.1,0.1,0.2,0.1c0.8,0,1.7,0.2,2.4,0.1c0.2,0,0.4-0.2,0.4-0.4C412.2,256,412,255.8,411.8,255.8z"/>
		</g>
		<g>
			<g>
				<path class="st3" d="M330.9,389.8c-0.9,0.1-1.8,0.6-2.7,0.8c0.8,0.4,1.6,0.7,2.3,1.3c1.8,1.2,3.3,2.8,4.3,4.7
					c0.9,1.7,1.3,3.5,1.9,5.4c1,3.5,2.3,7,3.7,10.4c1.4,3.3,3,6.5,5,9.4c3.9,5.7,10,9.6,15.6,13.4c5.9,4.1,11.9,7.7,18.7,10
					c6.7,2.2,13.7,3.3,20.7,4.2c3.6,0.5,7.4,0.8,11,0.7c3.2-0.2,6.3-0.7,9.4-1.7c6.2-1.9,11.8-5.1,16.9-9.1c1.9-1.5,3.6-3.1,5.3-4.7
					c1.1-1.1,2.4-2.1,3.4-3.4c0.9-1.1,1.7-2.5,2.5-3.7c1.1-1.6,2.1-3.3,3.3-4.9c2.1-3.2,4.3-6.3,6.3-9.5c4.3-6.3,8.5-12.7,12.8-19
					l0,0c0.9-3.3,1.8-6.5,2.4-9.8c0.3-1.5,0.5-3,0.6-4.5c-1,0.3-2,0.7-2.9,1.3c-2.3,1.4-4.2,3.4-6.1,5.2c-2.1,2.1-4.4,4.2-6.6,6.2
					c-4.5,3.9-9.3,7.5-14.2,10.9c-2.4,1.8-4.9,3.5-7.4,5.1c-2.4,1.7-4.9,3.5-7.5,4.8c-2.6,1.4-5.3,2.3-8.2,2.8
					c-2.9,0.5-5.9,0.6-8.9,0.7c-6.5,0.2-13.1,0.1-19.5-0.4c-5.8-0.5-11.4-1.4-16.7-3.7c-9.9-4.3-18.3-11.5-28.4-15.1
					c-4.5-1.6-9.4-3.2-11.7-7.6c-1.1-2.1-1.4-4.9-3.1-6.8c-1.3-1.4-3.1-2.8-5-3.4c0.3,1.3,0.6,2.6,0.8,3.9c0.2,1,0.4,2.3,0.8,3.3
					c0.3,0.6,0.7,0.9,1.1,1.5C332,389.2,331.9,389.8,330.9,389.8z"/>
				<path class="st3" d="M480.3,337.3L480.3,337.3c-11.4-2.4-22.7-5.1-33.9-8c-9.9-2.6-19.7-5.5-29.5-8.3c-2.5-0.7-5.1-1.3-7.8-1.6
					c-2.6-0.3-5.3-0.1-7.9,0.3c-5.2,0.7-10.2,2.3-15.3,3.5c-10.4,2.3-21.1,3.8-31.6,5.6c-10.4,1.7-20.9,3.5-31.4,5
					c0.9,4.9,1.6,9.9,2.1,14.8c0.4,4.8,0.5,9.5,0.7,14.4c0,0.6,0,1,0.1,1.6c8.1,1.4,16.3,2.1,24.5,2.5c7.6,0.4,15.4,0.3,23,0.1
					c8.3-0.1,16.7,0,25.1-0.6c4.1-0.3,8.2-1.1,12.4-1.2c4-0.1,7.9,0.8,11.8,1.6c8.2,1.6,16.3,3.2,24.5,4.7c0.3-0.1,0.6-0.2,0.8-0.3
					c2.4-0.8,4.7-1.9,7-3.1c6.4-3.3,13.2-6.5,20.3-8.4l0,0c0-2-0.1-3.8-1.1-5.5l-0.7-0.8c-1,1.6-1.9,3.3-2.5,5
					c-0.2,0.6-1,0.3-0.8-0.3c0.9-2.9,2.6-5.5,4.4-8c1.6-2.2,3.3-4.5,4.4-7.1c0-0.1,0.4-1.1,0.6-1.7c-0.5-0.1-0.5-0.7-0.4-1
					C478.9,339.6,479.6,338.5,480.3,337.3z M459.4,338.2c-0.1,0.2-0.2,0.3-0.4,0.3c-8.9-0.2-17.6-1.6-26.1-4.1
					c-3.6-1.1-7.2-2.4-10.7-3.9s-7-3.1-10.6-4.2c-3.8-1.1-7.6-1.6-11.7-1c-4.2,0.5-8.2,1.6-12.3,2.5c-8.1,1.9-16.3,3.6-24.4,5.5
					c-4,0.9-8,2-11.9,3c-1,0.3-2.1,0.6-3.2,0.8c-0.6,0.2-1.3,0.5-1.9,0.2c-0.8-0.5-0.7-1.9-0.8-2.8c0-0.4,0.3-0.6,0.7-0.5
					c9.1-1.8,18.3-3.9,27.3-6.1c7.1-1.7,14.2-3.5,21.4-4.8c2.7-0.5,5.4-1,8.2-1.2c3.4-0.3,6.9,0.4,10.1,1.4c3.5,1.1,6.7,2.8,9.9,4.4
					c3.6,1.8,7.4,3.5,11.2,4.6c8.2,2.3,16.7,3,25.1,3.6c0.3,0,0.5,0.2,0.5,0.5c0,0.5,0,0.9,0,1.3C459.6,338,459.5,338.1,459.4,338.2
					z"/>
				<path class="st3" d="M329.8,395c-0.5-1.6-2-3.1-3.3-4.1c-0.4-0.3-0.3-0.8,0.3-0.8c0.9,0,1.8-0.4,2.6-0.7
					c0.2-0.1,0.7-0.3,1.2-0.5c0,0,0-0.1-0.1-0.1c-0.2-0.3-0.4-0.5-0.6-0.7c-0.6-0.7-0.7-1.3-0.9-2.1c-0.6-2.1-0.9-4.3-1.4-6.5
					c-0.5-2.1-1.1-4.3-1.7-6.4c-1-4.3-1.2-8.6-1.3-12.9c-0.2-8.9-1-17.5-2.5-26.3l0,0c-0.1-0.5-0.3-1,0.5-1.1
					c12.1-2.2,23.6-4,35.8-6c10.6-1.7,21.4-3.3,31.8-5.8c4.9-1.2,10-2.6,15.1-2.8s10.1,1.1,15,2.5c20,6,40.1,11.1,60.4,15.5
					c0.2,0,0.3,0.2,0.4,0.3c0.5-0.7,1-1.2,1.5-1.8c1.2-1.3,2.4-2.5,3.6-3.8c0.3-0.5,0.6-0.9,0.8-1.4c-0.6,0.1-1,0.1-1.5,0.1
					c-0.9,0-1.9-0.1-2.9-0.2c-0.7-0.1-1.8-0.2-2.1-0.3c-5.3-0.7-10.6-1.4-15.9-2.1c-0.6,0.2-1.1,0.2-1.5-0.2
					c-0.9-0.1-1.8-0.3-2.7-0.4c-11.6-1.8-22.9-4-34.3-6.8c-3-0.7-6-1.5-8.9-2.3c-2.9-0.7-5.8-1.7-8.7-2.2c-3.1-0.6-6.2-0.7-9.2,0
					c-2.9,0.7-5.7,1.7-8.4,2.7c-5.8,2.1-11.8,3.3-17.9,4.1c-6.3,0.8-12.7,1.7-19.1,2.5c-12.4,1.7-24.9,3.4-37.3,4.9
					c0.8,3.8,1.6,7.6,2.1,11.5c0.6,3.7,1,7.6,1.2,11.4c0.1,3.8-0.2,7.6,0,11.4c0.2,3.9,0.9,7.7,1.7,11.5c0.7,3.8,1.4,7.6,2.1,11.6
					c0.1,0.5-0.1,0.8-0.5,1c-0.6,0.4-1.2,0.7-1.8,1.1c1.7,3.1,3.5,6.1,5.7,8.8c0.5,0.7-0.1,1.3-0.7,1.3c0.2,0.7,0.5,1.4,0.7,2.1
					c1.4,4,3,7.8,4.9,11.6c0-3.7-0.3-7.5-0.8-11.2C330.6,399.3,330.4,397,329.8,395z"/>
				<path class="st3" d="M475,361c-3.7,1-7.5,2.5-11,4c-4.5,1.9-8.6,4.3-13,6.2c-1.1,0.5-3.9,1.5-4,1.4c-3.5,1-7,1.7-10.4,2.4
					c-5.2,1-10.4,2.1-15.6,2.8c-5.1,0.7-10.3,1.1-15.5,1c-5.3-0.1-10.5-0.7-15.8-1.6c-18.8-3-37.5-6.7-56.1-10.6
					c-0.1,0-0.2-0.1-0.3-0.2c-2.4-0.3-4.8-0.7-7.2-1c2.6,4.5,5.5,8.9,8.3,13.3c2.8,4.6,5.1,10.2,9.9,13.2c0,0,0,0,0.1,0.1
					c4.4,0.9,8.7,2.1,13.1,3.3c4.2,1.1,8.6,1.8,12.8,3.1c1.7,0.6,3.3,1.2,4.9,2.1c1.6,0.9,3,2,4.6,2.9c3.4,2.1,7.2,2.5,11,3.1
					c4.2,0.6,8.4,1,12.6,1.4c4,0.4,8.1,0.9,12.1,1c2.1,0.1,3.7-0.6,5.5-1.7c1.5-1,3-2.1,4.6-2.9c3.2-1.9,6.4-3.5,9.8-4.9
					c6.6-2.8,13.5-4.7,20.6-5.6c0.1,0,0.2,0,0.3,0.1c2.4-2,4.8-4,7-6.2c3.5-3.4,6.8-7.6,11.7-8.8c0.1-1.4,0.1-2.9,0-4.4
					c-0.2-3.7,0.2-7.6,0.3-11.3C474.9,362.5,474.9,361.8,475,361z"/>
				<path class="st3" d="M487.1,376.5c-0.6-2.4-0.8-4.8-0.5-7.2c0.2-1.4,0.5-2.8,0.4-4.2c-0.1-1.1-0.4-2.2-0.8-3.4
					c-0.8-2.2-2-4.5-2.6-6.8c-2-7.1-1.4-14.7,1.4-21.5c-0.8,0.8-1.7,1.7-2.4,2.5c-0.8,1-1.7,2.1-2.2,3.2c-0.3,0.5-0.4,1.2-0.7,1.7
					c1.3,0-0.5,3.5-0.7,4c-1.4,2.9-3.5,5.4-5.3,8.1l0.3,0.4c0.1,0,0.1,0.1,0.2,0.1c0.1,0.1,0.2,0.2,0.3,0.4l0,0l0,0
					c2,2.8,1.4,6.3,1.4,9.6c-0.1,3.9-0.5,7.9-0.3,11.8c0.1,1.3,0.1,2.6,0,3.8c0,0.1,0,0.3,0,0.4c-0.1,1.9-0.4,3.7-0.7,5.6
					c-1.1,6-3.1,11.7-4.5,17.5c1.7-3.3,3.2-6.5,4.6-9.9c-0.3-0.6,0-1.4,0.8-1.4c3.2-0.1,6.4,0,9.5-0.2c0.7-0.1,1-0.3,1.3-0.9
					c0.3-0.6,0.5-1.2,0.7-1.9c0.5-1.4,0.8-2.8,0.9-4.3C488.5,381.5,487.6,378.9,487.1,376.5z"/>
				<path class="st3" d="M335.3,384c1.3,2.4,1.6,5.2,3.4,7.5c3.2,3.8,8.7,4.8,13.1,6.6c9.9,4.2,18.3,11.5,28.4,15.1
					c5.9,2.1,12.1,2.5,18.4,2.8c6.3,0.3,12.7,0.4,18.9-0.1c3.1-0.2,6.1-0.7,9-1.7c2.8-1,5.4-2.7,7.9-4.4c4.9-3.4,9.8-6.8,14.6-10.4
					c2.1-1.5,4-3.1,6.1-4.7c-8,1.1-15.9,3.5-23.3,7.1c-3.4,1.6-6.5,3.5-9.6,5.5c-1.4,0.9-2.9,2-4.6,2.2c-1.8,0.3-3.6,0-5.5-0.2
					c-8.1-0.7-16.2-1.4-24.3-2.6c-1.9-0.3-3.6-0.6-5.4-1.2c-1.7-0.7-3.2-1.6-4.7-2.5c-1.5-1-3-2.1-4.7-2.8c-1.8-0.8-3.6-1.4-5.5-1.8
					c-3.9-0.9-7.8-1.8-11.8-2.8c-3.8-1-7.6-2-11.5-2.9c-0.1,0-0.3,0-0.4,0c-4.8-3-7.1-8.3-9.9-13c-2.6-4.4-5.4-8.6-8-13.1
					c0.1,1,0.2,2.1,0.4,3.1c0.4,2.3,1.1,4.6,1.7,6.9c0.2,0.7,0.4,1.4,0.5,2.1c0.8,0.2,1.7,0.6,2.4,0.9
					C332.5,380.8,334.4,382.2,335.3,384z"/>
				<path class="st3" d="M469.1,399.5c-4.3,6.4-8.7,13-13,19.4c-2.1,3.3-4.3,6.4-6.4,9.7c-0.7,1.1-1.4,2.4-2.3,3.5
					c-0.5,0.6-1,1-1.6,1.5c-3.5,3.5-7.1,6.7-11.2,9.4c-5.2,3.5-11.1,6.2-17.3,7.5c-6.9,1.3-13.8,0.4-20.6-0.6
					c-7-0.9-14-2.3-20.6-4.9c-6.6-2.6-12.5-6.7-18.3-10.8c-5.5-3.9-10.8-7.9-14.3-13.8c-3.6-6.2-6.2-13.1-8-19.9
					c-0.5-1.7-1.1-3.3-2.1-4.7c-1.1-1.6-2.6-2.8-4.3-3.7c0.6,0.7,1,1.3,1.4,2.1c0.4,0.8,0.6,1.8,0.7,2.7c0.3,1.2,0.5,2.4,0.7,3.7
					c0.7,4.7,1,9.3,0.9,14c5.4,10.4,12.4,19.9,20.1,28.5c5.3,6.2,10.9,12.1,17.1,17.3c6.2,5.4,13.3,10.1,21.4,12.5
					c4.4,1.4,9,1.8,13.2,0c3.3-1.3,6.2-3.5,9-5.5c3.9-2.8,7.7-5.7,11.4-8.8c9.7-8,18.7-16.9,26.5-26.7c6.6-8.2,12.5-17,17.5-26.3
					c0.6-3.1,1.3-6.1,2.1-9C470.3,397.6,469.7,398.5,469.1,399.5z"/>
				<path class="st3" d="M409.2,378c5.3-0.2,10.5-0.8,15.8-1.7c5.1-0.8,10.3-2,15.4-3c1.5-0.3,3.1-0.7,4.6-1
					c-8.6-1.7-17.2-3.4-25.7-4.9c-2.1-0.4-4.2-0.8-6.2-0.9c-2-0.1-4,0-6,0.3c-4.2,0.5-8.3,0.9-12.5,1.1c-8.4,0.3-16.8,0.3-25.1,0.4
					c-9.4,0.1-18.9,0-28.4-0.8c8,1.7,16,3.3,24.2,4.8c9.3,1.8,18.7,3.5,28.2,4.9C398.5,377.7,403.9,378.2,409.2,378z"/>
			</g>
			<g>
				<path class="st3" d="M341.9,272.5c-2.5-4.3-6.2-8.2-11.1-9.9c-5.3-1.8-10.9,0.1-15.1,3.5c-4.6,3.8-7.1,9.5-8.9,15.1
					c-3.5,10.8-6.4,22.7-4,34c1.1,5.4,3.6,10.2,6.9,14.6c2.7,3.7,5.4,7.6,8.5,11c0.6,0.7,1.1,1.3,1.8,2c1.3,1.3,3.4-0.7,2.1-2.1
					c-2.8-3-5.2-6.4-7.6-9.7c-2.8-3.7-5.6-7.6-7.2-11.9c-3.7-10.2-1.9-21.2,0.9-31.2c1.5-5.4,3.1-10.9,6.2-15.6
					c2.9-4.1,7.5-7.6,12.7-7.3c4.5,0.2,8.3,3.3,10.8,6.7c3.2,4.3,4.8,9.4,5.7,14.6c2.2,13.4-1.3,26.6-3.7,39.7
					c-0.2,1,1.3,1.5,1.6,0.5c2-6.1,3.4-12.3,4.4-18.7c0.9-6.2,1.5-12.5,0.8-18.7C346.1,283.3,344.8,277.6,341.9,272.5z"/>
				<path class="st3" d="M490.5,313.4c-0.2-12.3-0.7-24.7-2.4-37c-0.6-3.9-1.1-7.8-2.2-11.7c-1.1-3.7-2.8-7.7-6.1-10
					c-3.7-2.6-8.5-1.4-11.5,1.7c-3.5,3.6-4.1,8.9-4.6,13.7c-0.6,5.5-1,11.1-1.3,16.7c-0.6,11-0.4,22.2,1,33.1c0.4,2.7,0.8,5.4,1.4,8
					c0.4,1.9,3.1,1,2.8-0.7c-1.9-10.6-2.6-21.4-2.4-32.1c0.1-5.4,0.4-10.7,0.7-16.1c0.2-2.7,0.5-5.4,0.7-8.1c0.3-2.4,0.5-4.9,1-7.2
					c0.9-3.6,3.8-8.1,8.2-7.5c3.6,0.6,5.5,4.7,6.6,7.7c1.3,3.8,2.1,7.8,2.6,11.8c1.7,11.3,2.2,23,2.5,34.6c0.4,13.2,0.1,26.6-1,39.8
					c-0.5,5.6-1.2,11.2-2.3,16.7c-0.8,4.2-1.9,8.5-3.7,12.3c-0.4,0.7-0.7,1.5-1.1,2.1c-0.7,1,0.9,1.9,1.6,0.9
					c2.3-3.4,3.6-7.5,4.7-11.4c1.4-5.5,2.2-11.2,2.9-16.8C490.3,340.5,490.7,326.9,490.5,313.4z"/>
			</g>
		</g>
	</g>
</g>
</svg>
