<?xml version="1.0" encoding="utf-8"?>
<!-- Generator: Adobe Illustrator 25.0.0, SVG Export Plug-In . SVG Version: 6.00 Build 0)  -->
<svg version="1.1" id="Layer_1" xmlns="http://www.w3.org/2000/svg" xmlns:xlink="http://www.w3.org/1999/xlink" x="0px" y="0px"
	 viewBox="0 0 792 612" style="enable-background:new 0 0 792 612;" xml:space="preserve">
<style type="text/css">
	.st0{display:none;}
	.st1{fill:#FFFFFF;}
	.st2{fill:#231F20;}
	.st3{fill:#414142;}
</style>
<g id="referencias" class="st0">
</g>
<g id="vector">
	<g>
		<path class="st1" d="M393,106.1c-43.4,2.4-87.1,27.8-103.1,68.3c-5.2,13.2-7.4,27.5-8.5,41.7c-1,13.9-0.8,27.8-0.7,41.8
			c0.7,69.1,1.5,138.2,2.2,207.3c0.1,9,1.2,19.8,9.2,24c3.3,1.8,7.3,2,11.2,2c62.5,2,125.1,4.1,187.5,0.1c4.5-0.3,9.3-0.7,12.9-3.4
			c5.6-4.3,6.1-12.4,6.1-19.4c0.1-12.9,0.1-25.9,0.2-38.8c0.3-62,0.7-124.2-0.4-186.2c-0.3-18.1-0.7-36.4-4.6-54.1
			c-3.9-17.7-12.9-33.8-24.4-47.8C459.8,116,422.4,105.1,393,106.1"/>
	</g>
	<path class="st1" d="M463.3,367.9H326.7c5.2-2.1,3.3-1.2,5.5-2.3c2-45.1,0.9-147.1,0.7-151.6c-0.3-4.9-1.3-11-2.9-15.9
		c2.4-10.4,5.2-14.5,12.9-22c11.7-11.5,31.3-22.1,52.9-21.3c24.4,1,52.9,12,60,29.9c1,2.7,4.4,7.3,4.8,10.6c-0.9,6-2,14.8-2,21.5
		c-0.1,14.4,0,46,0,52c0,23.6-1.2,81,0.1,97.2C462.1,366.6,459.8,365.5,463.3,367.9z"/>
	<g>
		<path class="st1" d="M347.5,401c0.3,6-0.7,8.8-0.1,14.8c0.1,0.8,0.3,1.7,0.7,2.5c0.4,0.9,3.5,0.4,5.5,0.4
			c14.5,0.1,72.8-0.5,87.1-1.2c0.7,0,1.2,0.1,1.8-0.5c0.4-0.4,0.8-1.6,0.7-2.1c-0.4-5,0.1-9.8,0-13.8c0-0.7-0.3-1.4-0.7-1.8
			c-0.5-0.4-1-0.5-1.5-0.5c-26.3,0.7-85.8,0.4-90.8,0.6C348.7,399.5,347.2,399.4,347.5,401"/>
	</g>
	<g>
		<path class="st2" d="M463.3,446.8c-1.1-2.4-3-4.5-5.2-5.7c-0.1-0.1-0.1-0.1-0.2-0.1s-0.2-0.1-0.2-0.1c-0.8-0.4-1.8-0.7-2.7-0.8
			c-3.3-0.9-6.9-1.4-10.2-0.3c-3.1,1-5.7,3.3-6.7,6.3c-0.7,2.5-0.8,5.3,0.2,7.7c1.4,3.5,4.7,5.6,8.1,7c3.2,1.3,7,2,10.2,0.9
			c1.4-0.4,2.7-0.9,3.9-2c2.1-1.8,3.2-4.7,3.4-7.3C464.2,450.5,464.1,448.6,463.3,446.8z M439.5,454.3c-1.2-2.2-1.3-4.9-0.7-7.3
			c0.6-2.4,2.1-4.3,4.3-5.5c-2.2,1.9-3.8,4.4-4.1,7.4c-0.3,2.9,0.7,5.6,2.3,7.8C440.5,456,440,455.2,439.5,454.3z M445.3,459.4
			L445.3,459.4c-3.3-2.5-5.8-6-5.5-10.2c0.4-4.5,3.6-7.8,7.8-9.1l0,0c1.4-0.1,2.7-0.1,4.1,0.2c-3.3,0.5-6.4,2.2-8,5.4
			c-2.2,4.6-1.1,10.5,2.8,13.8c0.7,0.6,1.5,1.1,2.3,1.5c-0.3-0.1-0.6-0.2-0.8-0.3C447,460.2,446.2,459.9,445.3,459.4z M449.6,446.7
			c-1-1.1-1.6-2.5-2.6-3.6c0.4-0.3,0.7-0.6,1.2-0.7c0.4,0.6,0.7,1.1,1.1,1.7c0.4,0.7,0.8,1.2,1.3,1.9
			C450.3,446.1,450,446.4,449.6,446.7z M461.4,456.9c-2.4,4.5-8.5,5-12.6,2.8c-4.3-2.2-6.2-7.3-4.9-12c0.5-1.7,1.4-3.1,2.5-4.1
			c1,1.1,1.6,2.7,2.7,3.8c0,0.1,0.1,0.2,0.1,0.2c0.2,0.2,0.4,0.2,0.6,0c0.6-0.5,1-0.9,1.6-1.4c0,0,0.1,0,0.1-0.1
			c0.2-0.2,0.2-0.5,0-0.7c-0.1-0.1-0.1-0.1-0.2-0.2c0,0,0,0,0-0.1c0,0,0-0.1-0.1-0.1c-0.1-0.2-0.3-0.4-0.4-0.6
			c-0.3-0.4-0.6-0.8-0.8-1.2c-0.4-0.6-0.7-1-1.1-1.6c1.1-0.5,2.2-0.8,3.4-0.9c0.1,0,0.2,0.1,0.3,0.1c3.7-0.1,7,1.7,8.8,4.9
			C463.5,449.3,463.2,453.5,461.4,456.9z"/>
		<path class="st2" d="M351.9,440.3c-2.6-1.6-5.5-1.7-8.5-1.4c-2.2,0.3-4.5,0.5-6.7,0.7c-0.1,0-0.1,0-0.1,0
			c-0.5,0.1-0.9,0.2-1.4,0.3c-0.2,0.1-0.3,0.2-0.4,0.3c-2.2,0.7-4.2,2.5-5.4,4.5c-1.5,2.3-1.9,4.9-1.5,7.6c0.4,2.7,1.7,5.3,3.8,7
			c2.3,1.9,5.3,2.8,8.2,2.8c0.7,0,1.2-0.1,1.9-0.2c2-0.1,4-0.4,6-0.8h0.1h0.1c0.2,0,0.4-0.1,0.5-0.2c1.8-0.5,3.4-1,4.8-2.2
			c2.4-2,3.8-5.1,4.1-8.3C357.8,446.4,355.3,442.4,351.9,440.3z M334.6,442.3c0.3,0.4,0.5,0.7,0.7,1c0.4,0.6,0.8,1.2,1.3,1.8
			l-0.1,0.1c-0.1,0.1-0.3,0.3-0.4,0.4s-0.1,0.1-0.2,0.2l-0.1,0.1l0,0c-0.1,0.1-0.2,0.1-0.2,0.2c-0.9-1.2-1.9-2.4-2.9-3.6
			c0.4-0.3,0.8-0.6,1.2-0.7C334.2,441.7,334.4,442,334.6,442.3z M329.5,454.5c-0.9-2.5-1.1-5.7,0.1-8.2c0.7-1.3,1.5-2.6,2.7-3.6
			c0.9,1.3,2,2.5,2.9,3.8c0.1,0.1,0.3,0.2,0.4,0.2c0.1,0.1,0.3,0.1,0.4,0c0.3-0.2,0.7-0.5,0.9-0.7c0.1-0.1,0.3-0.3,0.4-0.4
			s0.3-0.3,0.4-0.4l0,0c0,0,0-0.1,0.1-0.1l0,0c0.1-0.2,0.1-0.4-0.1-0.5c-0.6-0.6-1-1.2-1.5-2c-0.3-0.4-0.5-0.7-0.7-1
			c-0.2-0.2-0.3-0.5-0.5-0.7c0.1,0,0.2-0.1,0.3-0.1c0.1,0.1,0.3,0.1,0.5,0.1c3.2-0.8,6.8-0.5,9.6,1.2c1.5,0.8,2.8,2,3.5,3.6
			c1,2,0.9,4.4,0.9,6.6c-0.2,4-2.9,6.9-6.6,8C337.8,462,331.5,459.8,329.5,454.5z M350.3,455.3c0.4-1.1,0.5-2.3,0.5-3.5
			c0-1.3,0.1-2.7-0.2-4c-0.4-2-1.6-3.9-3.1-5.2c-1.4-1.2-3-2-4.7-2.5c0.6-0.1,1.1-0.1,1.7-0.2c0.1,0,0.1,0,0.2,0
			c3-0.1,5.4,1.8,7.4,3.7c1.5,1.5,2.6,3.5,2.8,5.7c0.1,1.1,0.1,2.4-0.1,3.5c-0.3,1.4-1.1,2.5-2,3.6c-1,1.3-2.5,3.1-4.2,3.7
			c-0.1,0-0.3,0.1-0.4,0.1c-0.8,0.2-1.8,0.4-2.6,0.6C347.7,459.5,349.5,457.7,350.3,455.3z M354,456.9c-0.7,0.7-1.4,1.3-2.1,1.8
			c0.7-0.7,1.2-1.3,1.7-2c0.8-1.1,1.8-2.3,2-3.8c0.3-1.2,0.3-2.7,0.2-3.9c-0.2-2.4-1.4-4.6-3.1-6.2c-1-0.9-2.1-1.9-3.3-2.6
			c3.5,1.1,6.2,4.1,7.2,7.7C357.2,451,356.1,454.6,354,456.9z"/>
		<path class="st2" d="M395,438.8c-6.1,1.7-10,8.3-9.2,14.4c-0.1,0.1-0.1,0.2-0.1,0.3c0.8,5.4,5.3,9,10.7,9.1c0.5,0,0.9,0,1.4,0
			c1.3,0.1,2.5,0,3.7-0.4c1.6-0.4,3.1-1.3,4.3-2.3c0.7-0.6,1.5-1.2,2-1.9c2.8-3.4,3.1-8.6,1.1-12.6
			C406.4,440.4,400.7,437.2,395,438.8z M403.5,460.1c-1.3,0.7-2.7,1.1-4.1,1.3c-0.9,0.1-1.9,0.1-2.8-0.1c-4.7-0.7-8.3-4.3-8.6-9.1
			c-0.3-4.2,1.8-8.8,5.5-10.8c0.1,0,0.2,0,0.2,0c2.3-0.7,4.7-1,7.2-0.5c2.3,0.5,4.4,1.9,5.9,3.7c2,2.4,2.6,5.9,1.9,9
			c-0.3-0.1-0.5-0.2-0.7-0.3c-0.4-0.2-0.7-0.3-1.1-0.5c-0.7-0.4-1.5-0.7-2.3-0.9l0,0c0,0,0,0-0.1,0l0,0l0,0h-0.1h-0.1c0,0,0,0-0.1,0
			c0,0,0,0-0.1,0s-0.1,0.1-0.2,0.2c-0.3,0.7-0.7,1.3-1,2c-0.1,0.2-0.1,0.5,0.2,0.6h0.1c1.5,0.6,2.8,1.3,4.2,2
			c-0.1,0.1-0.2,0.3-0.3,0.4c-0.4,0.6-0.8,1.1-1.3,1.6C405.1,459.1,404.3,459.7,403.5,460.1z M404.4,452.8c0.7,0.3,1.4,0.6,2,0.8
			c0.4,0.2,0.7,0.4,1.1,0.5c0.3,0.1,0.5,0.2,0.7,0.3c-0.2,0.5-0.4,0.9-0.6,1.4c-1.3-0.6-2.6-1.2-4-1.8
			C404.1,453.5,404.2,453.2,404.4,452.8z M386.8,453.2c0-0.1-0.1-0.2-0.1-0.2c-0.7-5.2,2.3-10.6,7-12.7c2.1-1,4.5-1.1,6.6-0.7
			c-1.5-0.2-3-0.1-4.5,0.2c-0.4,0.1-0.7,0.2-1.1,0.3c0,0,0,0-0.1,0l0,0c-0.4,0.1-0.7,0.2-1,0.3c-0.2,0.1-0.3,0.2-0.3,0.3
			c-3.3,1.7-5.4,5.4-6,9.2s0.8,7.6,3.6,10C388.4,458.3,387.3,455.9,386.8,453.2z"/>
		<path class="st2" d="M444.7,420.8c2.1-0.7,2.1-3.2,2.2-5.1c0-2.2,0-4.5,0-6.7c-0.1-3.8-0.1-7.7-0.7-11.5c-0.2-1.3-0.5-1.7-1.8-2
			c-3.4-0.7-7.3-0.4-10.8-0.4c-14.1,0.2-28.4,0.9-42.5,1.2c-8.1,0.2-16.2,0.2-24.3,0.1c-3.8-0.1-7.5-0.2-11.3-0.4
			c-1.7-0.1-3.4-0.2-5.1-0.4c-0.8-0.1-1.6-0.1-2.4-0.2c-0.7-0.1-1.2-0.2-1.9,0c-1.6,0.6-2.2,2.1-2.2,3.7c0,0.2,0.1,0.3,0.2,0.4
			c0,6-0.3,11.9-0.1,17.9c0.1,1.7,0.3,4.2,2.3,4.7c1.2,0.3,2.6,0.1,3.9,0.1c1.7,0,3.3,0,4.9-0.1c12.2-0.2,24.3-0.3,36.5-0.5
			c12.2-0.2,24.3-0.3,36.5-0.5c3,0,6-0.1,9-0.1c1.5,0,3,0,4.5-0.1C442.5,421.1,443.7,421.2,444.7,420.8z M444.9,396.9
			C444.9,397,444.9,396.9,444.9,396.9L444.9,396.9z M444.8,396.9C444.8,396.8,444.8,396.8,444.8,396.9
			C444.8,396.7,444.8,396.8,444.8,396.9z M435.4,420c-11.6,0.2-23.3,0.3-35,0.5c-0.8,0-1.8,0-2.6,0c0.2-6.1,0.2-12.2,0.3-18.3
			c0-0.2-0.1-0.4-0.3-0.4c-0.8-0.1-1.4-0.3-2.1,0.1c-0.2,0.1-0.3,0.2-0.3,0.5c0,3.1,0,6.2,0,9.3c0,3-0.2,6,0,9
			c-9.8,0.2-19.5,0.3-29.4,0.5c-5.8,0.1-11.5,0.2-17.3,0.3c-1.3,0-2.7,0.3-3.3-1.2c-0.5-1-0.4-2.3-0.5-3.4c0-2.9,0-5.8,0-8.6
			c0-2.8,0-5.6,0-8.3c0.1-0.1,0.2-0.2,0.2-0.4c0-0.9,0.3-1.9,1.1-2.4c0.6-0.4,1.1-0.3,1.8-0.2c1.6,0.2,3.3,0.3,4.8,0.4
			c3.4,0.3,6.9,0.4,10.3,0.5c7.5,0.2,15.2,0.2,22.7,0.1c14.2-0.2,28.5-0.8,42.7-1.1c4.4-0.1,8.8-0.3,13.2,0c1,0.1,2.1,0,3.1,0.4
			c0,0,0.1,0,0.1,0.1s0,0.3,0.1,0.4c0.3,1.5,0.4,3,0.5,4.5c0.3,4.2,0.4,8.5,0.4,12.6c0,2,0.6,5.2-2,5.5c-1.2,0.2-2.5,0.1-3.7,0.1
			C438.5,420,436.9,420,435.4,420z"/>
	</g>
	<g>
		<path class="st3" d="M348.1,432.8L348.1,432.8L348.1,432.8c0-0.3-0.3-0.5-0.5-0.4c-0.2,0-0.4,0.2-0.4,0.5
			c-0.1,1.2-0.2,2.4-0.1,3.6c0,0.3,0.2,0.5,0.5,0.5c0.2,0,0.4-0.2,0.5-0.4c0,0,0.1-0.1,0.1-0.2C348.2,435.2,348.2,434,348.1,432.8
			L348.1,432.8z"/>
		<path class="st3" d="M384.3,460.1C384.3,460.1,384.3,460,384.3,460.1c-0.2-0.2-0.5-0.2-0.7,0s-0.4,0.5-0.7,0.7
			c-0.2,0.2-0.4,0.5-0.7,0.7c-0.4,0.5-0.8,0.8-1.2,1.3c-0.2,0.2-0.2,0.5,0,0.7s0.5,0.2,0.7,0c0.4-0.5,0.8-0.8,1.2-1.3
			c0.1-0.1,0.2-0.2,0.3-0.3c0.4-0.4,0.7-0.7,1-1C384.7,460.4,384.5,460.1,384.3,460.1z"/>
		<path class="st3" d="M412.9,462.2c-0.3-0.3-0.6-0.5-0.9-0.7c-0.3-0.2-0.6-0.4-0.8-0.6s-0.7-0.5-1-0.5s-0.5,0.3-0.3,0.6
			c0.1,0.2,0.3,0.3,0.4,0.5c0.1,0.1,0.3,0.2,0.4,0.3c0.3,0.2,0.6,0.4,0.8,0.6s0.5,0.4,0.7,0.6c0.1,0.1,0.3,0.2,0.4,0.3
			c0.2,0.1,0.3,0.3,0.5,0.4s0.5,0.1,0.6-0.1c0.2-0.2,0.2-0.4,0.1-0.6C413.5,462.7,413.2,462.4,412.9,462.2z"/>
		<path class="st3" d="M451.3,434.8c-0.4,0-0.8,0.1-1.2,0.1s-0.8,0.1-1.2,0.1s-0.8,0.1-1.2,0.1s-0.8,0-1.2,0.2
			c-0.2,0.1-0.3,0.2-0.3,0.4c0,0.2,0.1,0.4,0.3,0.4c0.4,0.1,0.8,0,1.2,0s0.8-0.1,1.2-0.1s0.8-0.1,1.2-0.1c0.5,0,0.8-0.1,1.3-0.2
			C452,435.5,451.8,434.8,451.3,434.8z"/>
	</g>
	<g>
		<path class="st2" d="M477.2,292.6c-0.1-12.1,0-24.1-0.3-36.2c-0.2-9.4-0.5-18.8-0.6-28.2c-0.1-4.9-0.2-9.8-0.2-14.7
			c0-6.3-0.3-12.5-1.6-18.7c-1.9-8.7-5.4-16.7-11-23.8c-12-15.3-30.3-24.6-49.1-28.1c-24-4.4-50.2-0.1-70.3,14.1
			c-9.3,6.5-16.6,15.3-21.6,25.5c-2.9,5.9-4.7,12.1-6,18.5c-0.8,4-1.2,7.8-1.1,11.8c0.2,8.5,0,16.8-0.1,25.3
			c-0.2,15.5-0.4,31.1-0.6,46.6c-0.2,16.8-0.5,33.8-0.7,50.6c-0.2,12.5-0.5,24.9-0.8,37.4c-0.1,1.7-0.1,3.4-0.2,5.1
			c0,0.1,0,0.2,0.1,0.2c-0.1,0.3,0,0.7,0.4,0.7c7.3,0.3,14.6,0.2,22,0.3c9.1,0,18.2,0,27.4,0c9.9,0,19.7,0,29.7,0
			c11.8,0,23.7-0.1,35.5-0.2c14.8-0.1,29.7-0.2,44.5-0.5c1.6,0,3.1,0,4.7-0.1c0.4,0,0.6-0.3,0.6-0.6c0.1-0.1,0.1-0.2,0.1-0.4
			C477.9,349.4,477.4,321,477.2,292.6z M433.5,377.8c-12.9,0.1-26,0.2-38.9,0.3c-9.3,0-18.7,0-28,0.1c-9.7,0-19.4,0-29.1,0
			c-7.7,0-15.4-0.2-23.2-0.1c-0.2,0-0.5,0-0.7,0c0.6-10.4,0.7-20.8,0.9-31.3c0.4-16,0.7-32.1,0.8-48.1c0.3-16.3,0.5-32.6,0.7-48.8
			c0.1-10.9,0.3-21.8,0.3-32.6c0-4.4-0.2-8.7,0.6-12.9c1.1-6.6,2.9-13.1,5.7-19.3c2.6-5.7,6-11,10-15.8c6.9-8.4,16.3-14.6,26.1-18.9
			c11.6-5.1,24.4-7.7,37.1-7.7c21.4,0,43.1,6.6,59.2,21.2c5.6,5.1,10.5,11.1,13.8,18c2.4,5,4,10.5,5,16c1,5.9,1,11.8,1,17.8
			c0,10.1,0.3,20.2,0.5,30.3c0.2,9.1,0.3,18.3,0.3,27.4c0.2,27.7,0.7,55.3,0.7,83.1c0,7.1-0.1,14-0.1,21.1
			C462,377.6,447.8,377.6,433.5,377.8z"/>
		<path class="st2" d="M453.2,170.1c-9.5-9.9-22.5-16-35.6-19.4c-5.1-1.3-10.3-2.2-15.6-2.5c-7-0.4-14.2,0.2-21.1,1.2
			c-14.2,2.1-28,7.5-38.6,17.5c-5.4,5-9.8,11.2-13.2,17.7c-2.2,4.2-4,8.6-5,13.1c-1.1,4.9-1.4,10-1.5,15.2c0,2.4,0,4.9,0,7.3
			c0,0.1-0.1,0.2-0.1,0.3c0,7.2,0,14.4-0.1,21.6c0,8.8,0,17.8-0.1,26.6c0,9.5,0,19.1-0.1,28.6c0,9,0,18-0.1,27c0,7.4-0.2,15,0,22.4
			c0,0.5,0,1,0,1.5c-0.1,0.1-0.1,0.2-0.1,0.3c-0.1,3.4-0.1,6.9-0.1,10.3c0,1.8,0,3.5,0,5.3c0,1.9-0.1,3.8,0.1,5.7
			c0,0.4,0.4,0.6,0.6,0.5c0.1,0.1,0.2,0.1,0.3,0.1c8.6,0.2,17.1,0.2,25.7,0.2c9.9,0,19.6,0.1,29.5,0.1c10.3,0,20.7,0,31.1,0
			c10,0,19.9,0,29.9,0.1c8.7,0,17.5,0.1,26.3,0.2c0.9,0,2,0,2.9,0c0.4,0,0.5-0.3,0.5-0.6c0.5-7,0.3-14,0-20.9
			c0.1-0.1,0.1-0.2,0.1-0.3c0.2-4.7,0.1-9.3,0.1-14c0-9.6,0-19.1-0.1-28.6c0-11.5-0.1-23.1-0.1-34.7c0-10.6,0-21.2,0-31.9
			c0-6.4,0.2-12.9,0.1-19.3c0-0.1,0.1-0.2,0.1-0.3C469.8,202.7,466,183.4,453.2,170.1z M327.4,190.2c3-6.9,7-13.5,12.1-19.1
			c9.6-10.5,22.5-16.8,36.3-19.7c7.6-1.6,15.4-2.2,23.2-2.2c4.7,0,9.4,0.7,14,1.6c12.7,2.7,25.4,7.9,35.3,16.4
			c5.6,4.7,10.1,10.6,13.2,17.2c4.2,8.9,6.1,18.8,6.3,28.6c0,2.5,0,5-0.1,7.4c0,0.2,0,0.3,0.1,0.4c0,1.6,0,3.2-0.1,4.7
			c0,3.8,0,7.5,0,11.3c0,10.3,0,20.6,0,30.9c0,11.6,0,23.2,0,34.8c0,10,0,19.9,0,29.9c0,5.4,0,10.8-0.1,16.2c0,0.2,0,0.4,0,0.7
			c0,0.2,0.1,0.3,0.1,0.4c0.1,6.7,0.4,13.3,0,20c-0.6-0.4-1.1-0.7-1.7-0.9c-0.7-0.4-1.6-0.7-2.3-1.1c0.4-4.9,0.7-9.9,0.7-14.8
			s-0.1-9.9-0.2-14.7c0-1.9,0-3.7-0.1-5.7c0-0.1,0-0.1,0-0.2c-0.1-8.3-0.1-16.5-0.2-24.7c-0.1-20.5,0.1-40.9,0.2-61.5
			c0-6.6,0.1-13.1,0.1-19.7c0-1.8,0.1-3.4,0-5.2l0,0c0-2.8,0-5.7,0-8.5c0.1-0.1,0.1-0.2,0.1-0.3c-0.5-5.6-1.3-11.2-3-16.6
			c0-0.2,0-0.3-0.1-0.4c-0.5-1.6-1-3.1-1.7-4.6c-2.4-5.8-5.9-10.9-10-15.5c-2-2.3-4.1-4.5-6.5-6.4c-2.6-2-5.4-3.7-8.4-5.2
			c-6.3-3.3-13.2-5.6-20.1-7.2c-6.5-1.6-13.2-2.5-19.9-2.4c-7.6,0.1-15.2,1.3-22.4,3.6c-12,3.8-23.2,10.7-31.7,19.8
			c-3.2,3.3-6,7-8.1,11.1c-3,5.9-4,12.3-4.3,18.8c-0.1,2-0.1,4-0.2,6c-0.1,0.1-0.1,0.2-0.1,0.3c0.1,6.7,0.2,13.4,0.2,20.1
			c0,0.9,0,1.9-0.1,2.7c0,0.1,0,0.3,0.1,0.3c0,1.4,0,2.7,0,4.1c-0.1,10.4-0.2,20.7-0.4,31.2c-0.2,10.8-0.4,21.7-0.6,32.5
			c-0.2,10.5-0.4,21-0.5,31.6c-0.1,9.3-0.2,18.7-0.1,28c0,1,0,2,0,3c-0.1,0-0.1,0-0.2,0.1c-1.1,0.7-2.2,1.3-3.3,2
			c0.1-1.8,0.1-3.5,0.1-5.3c0-1.8,0-3.5,0-5.3c0-3.4,0-6.9,0-10.3c0-0.2-0.1-0.3-0.2-0.4c0.1-6.9,0.1-13.9,0.1-20.7
			c0-8.8,0-17.8,0.1-26.6c0-9.5,0-19.1,0.1-28.6c0-9,0-18,0.1-27c0-7.4,0-15,0-22.4c0-0.7,0-1.5,0-2.3c0-0.1,0-0.2-0.1-0.3
			C323.6,210.1,323.3,199.7,327.4,190.2z M330.1,347.5L330.1,347.5C330,347.5,330,347.5,330.1,347.5c-0.2,0.1-0.3,0.1-0.5,0.2
			c-0.1,0-0.1,0-0.2,0h-0.1c0,0,0,0-0.1,0s-0.3,0-0.4,0s-0.1,0-0.2,0h-0.1h-0.1c-0.1,0-0.3-0.1-0.4-0.1h-0.1l0,0l0,0
			c-0.1,0-0.1-0.1-0.2-0.1l-0.1-0.1l0,0c0.4-4.9,0.4-10,0.3-14.9c0.3,0.1,0.6,0.2,0.8,0.2c0.6,0.1,1.1,0,1.6-0.2
			C330.4,337.5,330.2,342.5,330.1,347.5z M329.7,331.7L329.7,331.7C329.6,331.7,329.6,331.7,329.7,331.7c-0.2,0-0.2,0-0.3,0
			s-0.3,0-0.4,0c-0.2,0-0.4,0-0.7-0.1c0.3-0.1,0.6-0.1,0.9-0.1c0.3,0,0.5,0,0.7,0.1C329.9,331.7,329.8,331.7,329.7,331.7z
			 M327.5,348.2c0.9,0.6,2.3,0.6,3.3,0c0.2-0.1,0.3-0.3,0.2-0.5c0.2-5.4,0.4-10.8,0.5-16.2l0,0v-0.1c0,0,0,0,0-0.1l0,0
			c0-0.1-0.1-0.1-0.1-0.2c-0.5-0.4-1.2-0.5-1.9-0.5c-0.6,0-1.1,0.1-1.7,0.4c0.1-7.4,0.3-14.9,0.4-22.2c0.2-10.8,0.5-21.7,0.7-32.5
			c0.2-10.5,0.4-21,0.5-31.5c0-2.4,0-4.8,0-7.2c0.2,0,0.3,0.1,0.5,0.1c0.6,0.1,1.2,0,1.7-0.3l0,0c0.2,0,0.4-0.1,0.4-0.4
			c0.4-5.4-0.4-10.8,0-16.3c0-0.4-0.3-0.5-0.5-0.4c-0.4-0.3-0.7-0.6-1.2-0.6c-0.3,0-0.6,0.1-0.8,0.2c0-1,0-2,0-3c0-1,0-2-0.1-3.1
			c0-0.1,0-0.2-0.1-0.3c0.1-4.7,0.3-9.4,1-14c0.8,2.3,1.3,4.8,1.7,7.3c0.5,3,0.6,6,0.6,8.9c0,4.9,0,9.9,0,14.9
			c0,11.4,0.1,23,0.2,34.4c0.1,12.2,0.1,24.5,0.1,36.6c0,11.4,0,22.8-0.2,34.2c-0.1,9-0.3,18-0.6,27c0,0.8-0.1,1.6-0.1,2.4h-0.1
			c-1.4,0.7-2.8,1.2-4.2,1.8C327.4,360.8,327.4,354.5,327.5,348.2z M329.8,220.7C329.9,220.7,329.9,220.7,329.8,220.7
			C329.9,220.7,329.9,220.7,329.8,220.7h0.2c0,0,0,0,0.1,0l0,0l0,0c0,0,0,0,0.1,0c0.2,0.1,0.4,0.2,0.6,0.4c0,0,0,0,0.1,0
			c-0.4,5,0.1,10,0.2,15.1c-0.5-0.4-1.1-0.5-1.7-0.4h-0.1c0-2.7,0-5.4,0-8.1c0-1.1,0-2.2,0.1-3.3c0-1.2,0.2-2.5,0.2-3.7l0,0l0,0h0.1
			H329.8L329.8,220.7C329.7,220.7,329.7,220.7,329.8,220.7C329.7,220.7,329.7,220.7,329.8,220.7
			C329.8,220.7,329.8,220.7,329.8,220.7z M329.8,236.8L329.8,236.8C329.7,236.8,329.7,236.8,329.8,236.8
			C329.7,236.8,329.7,236.8,329.8,236.8c-0.2,0-0.2,0-0.3,0h-0.1c0,0,0,0,0.1,0l0,0h0.1C329.7,236.8,329.8,236.8,329.8,236.8
			L329.8,236.8L329.8,236.8L329.8,236.8c0.2,0,0.3,0,0.3,0.1l0,0l0,0l0,0C330,236.9,329.9,236.9,329.8,236.8
			C329.9,236.8,329.9,236.8,329.8,236.8L329.8,236.8z M332.1,366.1c0.1,0,0.2-0.1,0.2-0.3c0.2,0,0.3-0.2,0.3-0.4
			c0.5-8.6,0.7-17.4,0.7-26c0.2-11.3,0.2-22.5,0.3-33.8c0-12.3,0-24.6,0-36.8c0-11.7-0.1-23.4-0.1-35.1c0-5.1,0-10.1,0-15.3
			c0-2.6,0.1-5.2-0.2-7.8c-0.3-3.2-0.7-6.3-1.6-9.4c-0.4-1.2-0.7-2.4-1.2-3.6l-0.1-0.1c0.4-1.9,0.9-3.7,1.7-5.5
			c1.6-4.1,4-7.8,6.9-11.2c7.6-9.1,17.8-16.1,28.8-20.5c13.2-5.2,27.5-6.6,41.5-4c7,1.3,14,3.3,20.5,6c5.8,2.4,11.5,5.6,15.9,10
			c4.3,4.4,8.2,9.2,11.1,14.7c1.5,2.8,2.6,5.7,3.6,8.7c-1.7,6.2-2,12.6-2,19.1c0,4.9-0.1,9.8-0.1,14.7c0,11.4-0.1,22.9-0.1,34.4
			c0,12.4,0,24.7,0.1,37c0,11.5,0,23.1,0.1,34.7c0,9.2,0,18.4,0.1,27.6c0,0.9,0,1.8,0,2.7c0,0.2,0.1,0.4,0.3,0.4l0,0
			c0.7,0.3,1.5,0.5,2.2,0.7c0.4,0.1,0.7,0.3,1,0.4c-7.4-0.2-14.9-0.4-22.2-0.5c-9.4-0.1-18.7-0.2-28.1-0.2c-9.9,0-19.7,0-29.7,0
			c-9.4,0-18.9,0.1-28.3,0.2c-8.1,0.1-16.3,0.2-24.4,0.5l0,0C330.2,367,331.2,366.6,332.1,366.1z M462.7,206.2
			c0.3,2,0.6,4.1,0.7,6.1c0,0.1,0,0.2,0.1,0.3c0,2.7,0,5.3,0,8c-0.4-0.1-0.7-0.1-1-0.1s-0.6,0.1-0.8,0.2c-0.3,0.1-0.7,0.3-0.8,0.5
			c-0.1,0.1-0.1,0.2-0.1,0.3c-0.2,4.8-0.3,9.7-0.4,14.5c0,0.2,0.1,0.3,0.3,0.4c0.4,0.4,1,0.6,1.6,0.7c0.5,0,0.8-0.1,1.2-0.3
			c-0.1,12-0.2,24.1-0.2,36.1c-0.1,19.6-0.1,39.3,0.1,59c-0.9-0.3-2-0.1-2.7,0.4c-0.1,0-0.1,0.1-0.2,0.2c0,0,0,0-0.1,0
			c-0.1,0.1-0.2,0.3-0.1,0.5c0,5.2,0.3,10.4,0.1,15.6c0,0.3,0.1,0.4,0.3,0.4l0,0c0.2,0.1,0.5,0.2,0.7,0.3c0.3,0.1,0.5,0.1,0.7,0.2
			c0.5,0,0.9-0.1,1.3-0.3c0,6-0.1,11.9-0.6,18c-0.7-0.2-1.2-0.4-1.9-0.6s-1.3-0.4-1.9-0.7c0.1-8.6,0.1-17.3,0.1-26
			c0-11.3,0-22.7,0-34c0-12.3,0-24.6,0-36.9c0-11.6,0-23.3,0.1-34.9c0-5.1,0.1-10.1,0.1-15.3c0-2.6,0-5.2,0-7.7
			c0.1-3.5,0.5-7.1,1.1-10.6c0.1-0.7,0.3-1.5,0.5-2.2C461.6,200.7,462.2,203.4,462.7,206.2z M462.8,348.2c-0.1,0-0.2,0.1-0.3,0.1
			h-0.1c-0.1,0-0.1,0-0.2,0s-0.2,0-0.3,0c-0.1,0-0.1,0-0.2,0h-0.1c-0.1,0-0.2-0.1-0.3-0.1c-0.1,0-0.2-0.1-0.3-0.1
			c0.2-4.9-0.1-9.8-0.2-14.7c0.4,0.2,0.7,0.3,1.1,0.3c0.4,0,0.7,0,1-0.1c0,0.1,0,0.2,0,0.4c-0.1,2.1-0.1,4.4-0.1,6.6
			C463,343,463,345.7,462.8,348.2C462.9,348.2,462.8,348.2,462.8,348.2C463,348.1,462.9,348.2,462.8,348.2z M462.7,332.4
			L462.7,332.4c0.1,0,0.2,0,0.3,0.1c0.1,0,0.1,0,0.2,0.1h0.1h-0.1c-0.1,0-0.1,0-0.2,0h-0.1l0,0c-0.1,0-0.1,0-0.2,0s-0.3,0-0.4,0
			s-0.1,0-0.2,0H462l0,0c-0.1,0-0.3-0.1-0.4-0.1l0,0h0.1c0.3-0.1,0.5-0.1,0.7-0.1C462.4,332.4,462.5,332.4,462.7,332.4L462.7,332.4z
			 M462.7,235.9C462.7,236,462.7,236,462.7,235.9C462.7,236,462.7,236,462.7,235.9c-0.2,0.1-0.2,0.1-0.3,0.1h-0.1l0,0l0,0h-0.1
			c-0.1,0-0.1,0-0.2,0s-0.1,0-0.2,0h-0.1l0,0c-0.1,0-0.3-0.1-0.4-0.1l0,0c0,0,0,0-0.1,0l0,0l0,0c0,0,0.1,0,0,0s0,0,0,0h0.1
			c0.1,0,0.1,0,0.2,0l0,0h0.1c0.2,0,0.3,0,0.5,0h0.1l0,0l0,0c0.1,0,0.2,0,0.2,0.1h0.1C462.7,235.9,462.7,235.9,462.7,235.9
			L462.7,235.9C462.8,235.9,462.7,235.9,462.7,235.9z M461.5,221.6C461.6,221.6,461.6,221.6,461.5,221.6c0.1,0,0.2-0.1,0.2-0.1
			c0.1,0,0.1,0,0.2,0h0.1c0.1,0,0.2,0,0.3,0c0.1,0,0.2,0,0.4,0c0.1,0,0.1,0,0.2,0l0,0h0.1c0.1,0,0.3,0.1,0.4,0.1c0,0.8,0,1.6,0,2.4
			c-0.1,3.7-0.2,7.3-0.4,11.1c-0.4-0.1-0.7-0.2-1.1-0.2c-0.3,0-0.6,0.1-0.8,0.2c0.1-4.5,0.3-8.9,0.4-13.4
			C461.5,221.7,461.5,221.7,461.5,221.6L461.5,221.6z M442.6,369.8c-9.9,0-19.6-0.1-29.5-0.1c-10.3,0-20.7,0-31.1,0
			c-10,0-19.9,0-29.9-0.1c-8.7,0-17.5-0.1-26.3-0.1c-0.5,0-0.8,0-1.3,0c0.7-0.5,1.5-0.9,2.2-1.3c0.1,0,0.1,0,0.2,0l0,0
			c7.7-0.1,15.5-0.3,23.3-0.4c9.4-0.1,18.7-0.2,28.1-0.3c9.9-0.1,19.7-0.1,29.7,0c9.4,0,18.9,0.1,28.3,0.2
			c8.1,0.1,16.3,0.2,24.4,0.5c0.8,0,1.7,0.1,2.4,0.1h0.1c0.8,0.5,1.6,0.8,2.4,1.2c0.4,0.2,0.7,0.4,1,0.6
			C458.6,369.9,450.6,369.9,442.6,369.8z"/>
		<path class="st2" d="M329.7,220.7L329.7,220.7L329.7,220.7z"/>
	</g>
</g>
</svg>
