<?xml version="1.0" encoding="utf-8"?>
<!-- Generator: Adobe Illustrator 25.0.0, SVG Export Plug-In . SVG Version: 6.00 Build 0)  -->
<svg version="1.1" xmlns="http://www.w3.org/2000/svg" xmlns:xlink="http://www.w3.org/1999/xlink" x="0px" y="0px"
	 viewBox="0 0 792 612" style="enable-background:new 0 0 792 612;" xml:space="preserve">
<style type="text/css">
	.st0{display:none;}
	.st1{fill:#FFFFFF;}
	.st2{fill:#404041;}
</style>
<g id="referencias" class="st0">
</g>
<g id="vector">
	<g>
		<g>
			<path class="st1" d="M203.2,442.6c2.1-12.9,3.6-25.8,5.3-38.7c1.8-13.4,3.6-26.8,5.4-40.1c2.5-18.8,5.2-37.5,7.5-56.3
				c1.4-11.6,2.8-23.2,4.2-34.8c1.4-11.5,2.8-23.1,4.2-34.6c2.4-19.7,5.6-39.2,8.4-58.8c0.5-3.3,0.9-6.6,1.4-10
				c0.5-3.6-4.4-4.3-4.9-0.7c-2.9,22.5-6.6,45-9.3,67.5c-1.2,10.3-2.4,20.6-3.6,30.9c-1.5,12.6-3,25.1-4.5,37.7
				c-1.9,16.2-4.2,32.4-6.3,48.5c-3.5,26.5-7.2,53-10.5,79.5c-0.4,3.2-0.8,6.3-1.1,9.5C199.3,444.2,202.8,444.7,203.2,442.6
				L203.2,442.6z"/>
		</g>
		<g>
			<path class="st1" d="M330.5,445.7c1.5-14.4,1.7-29,2.3-43.4c0.6-14.4,1.1-28.8,1.6-43.2c0.9-29,1.7-58.1,2.4-87.1
				c0.3-13.4,0.6-26.8,0.9-40.3c0.3-13.6,0.6-27.2,0.9-40.8c0.2-9.5,0.7-19,0.6-28.5c0-0.2,0-0.3,0-0.5c0.1-3.1-4.7-3.1-4.8,0
				c-0.2,8-0.3,15.9-0.5,23.9c-0.3,13.9-0.6,27.8-0.9,41.7c-0.2,11.2-0.5,22.4-0.7,33.7c-0.6,29.1-1.3,58.1-2.2,87.2
				c-0.9,28.9-2,57.8-3.1,86.7c-0.1,3.6-0.2,7.1-0.2,10.7C326.8,448.1,330.3,448,330.5,445.7L330.5,445.7z"/>
		</g>
		<g>
			<path class="st1" d="M437.8,164.9c-0.1,2.7,0.1,5.3,0.2,8.4c0.2,3.8,0.4,7.5,0.6,11.3c0.5,9.7,1,19.3,1.6,29
				c1.2,22.8,2.4,45.5,3.6,68.3c0.9,17.4,1.8,34.8,2.6,52.2c0.4,8.9,0.8,17.7,1.1,26.6c0.9,24.1,1.7,48.3,2,72.4c0,2.2,0,4.5,0,6.7
				c0,2.7,4.3,2.7,4.3,0c0-23.8-0.9-47.6-1.8-71.4c-0.4-10.3-0.7-20.5-1.2-30.8c-0.8-16.1-1.6-32.2-2.4-48.3
				c-1.2-22.8-2.3-45.5-3.5-68.3c-0.9-17.5-1.8-35-3.1-52.5c-0.1-1.4-0.4-2.7-0.6-4.1C440.8,162.5,437.8,163,437.8,164.9
				L437.8,164.9z"/>
		</g>
		<g>
			<path class="st1" d="M544.6,163c0.4,7.1,1.5,14.1,2.3,21.1c1.1,8.6,2.2,17.2,3.4,25.7c2.7,20.2,5.5,40.3,8.3,60.5
				c3,21.8,6.1,43.6,9.2,65.5c3,20.5,5.9,41,9,61.5c2.4,16.3,4.9,32.5,7.4,48.7c0.2,1.6,0.5,3.1,0.7,4.7c0.2,1.3,1.8,2,3,1.7
				c1.4-0.4,1.9-1.7,1.7-3c-2.5-15.5-4.8-31-7.2-46.5c-3-20.1-6-40.3-8.9-60.4c-3.2-21.7-6.3-43.4-9.4-65.2
				c-2.9-20.4-5.8-40.9-8.6-61.3c-2.2-16.3-4.2-32.6-6.6-48.8c-0.2-1.6-0.5-3.1-0.8-4.7C547.7,160.5,544.4,161,544.6,163L544.6,163z
				"/>
		</g>
		<g>
			<path class="st1" d="M644,161.9c0.1,5.4,1.2,10.6,2.2,16.3c1.4,7.5,2.8,15.1,4.2,22.6c3.7,19.6,7.6,39.1,11.3,58.7
				c4.2,22.2,8.6,44.4,13,66.6c4.1,20.9,8.2,41.7,12.2,62.6c3,15.6,6,31.1,8.8,46.7c0.2,1.4,0.5,2.8,0.7,4.1c0.6,3.3,5.6,1.9,5-1.4
				c-2.6-14.7-5.4-29.3-8.3-43.9c-4-20.4-8-40.8-12.1-61.2c-4.4-22.2-8.8-44.4-13.2-66.6c-4-20-8-40-11.9-60.1
				c-2.7-13.9-5.2-27.8-8.1-41.6c-0.2-1.1-0.6-1.9-1-3.2C646.4,159.9,644,160.1,644,161.9L644,161.9z"/>
		</g>
		<g>
			<path class="st1" d="M77.7,447.3c5-28.7,10.4-57.3,16.1-85.9c2.9-14.6,5.9-29.1,9-43.7c1.5-7,3-13.9,4.5-20.9
				c0.8-3.8,1.8-7.7,2.5-11.5c2-11,3.7-22.1,5.6-33.2c2.2-13,4.4-26.1,6.6-39.1c0.6-3.8,1.5-7.5,2.4-11.3c2.3-9.3,4.7-18.6,6.8-28
				c0.4-1.5,0.7-3.1,1-4.6c0.4-2.2-3-3.2-3.4-0.9c-1.7,8.7-4,17.4-6.1,26c-1.3,5.3-2.8,10.5-3.7,15.9c-2,11.8-3.9,23.6-5.9,35.3
				c-2.1,12.5-4.2,25-6.3,37.5c-1.3,8-3.4,15.9-5.1,23.8c-3.1,14.3-6,28.7-8.9,43c-5.8,28.8-11.2,57.6-16.2,86.5
				c-0.6,3.4-1.2,6.8-1.8,10.3C74.6,448.4,77.4,449.2,77.7,447.3L77.7,447.3z"/>
		</g>
	</g>
	<path class="st2" d="M77.8,251.7c0.1-1.7,1.4-2.5,2.9-2.9c2.7-0.8,5.8-0.6,8.6-0.7c3-0.1,6-0.2,9-0.2c5.7,0,11.3,0.1,17,0
		c3.1,0,6.1-0.1,9.2-0.3c1.8-0.1,4.1-0.5,6.1-0.1c-1,3.1-1.2,6.2-1.1,9.4c-17.1,0.7-34.1,0.9-51.2,1.2c0,0-0.1,0-0.1,0
		c0-0.8,0-1.5-0.1-2.3C78,254.6,77.7,253.1,77.8,251.7z M130.2,264.8c0.1,1.1,0.2,2.2,0.3,3.3c-17.5,0.5-35.1,1.2-52.6,1.8
		c0.1-1.2,0.2-2.5,0.3-3.7C95.5,266.5,112.9,265.9,130.2,264.8z M78.2,264.6c0.1-1.6,0.1-3.2,0-4.8c0,0,0,0,0.1,0
		c17.1,0.2,34.2-0.5,51.3-1.2c0.1,1.5,0.3,3.1,0.4,4.6C112.8,264.5,95.5,264.7,78.2,264.6z M77.7,271.5c17.6-0.6,35.3-1.1,52.9-1.9
		c0,1,0,1.9,0,2.8c0,0.4-0.1,0.9-0.1,1.3c-4.3,0.6-8.7,0.5-13.1,0.6c-4.6,0-9.1,0.1-13.7,0.2c-4.5,0.1-8.9,0.2-13.4,0.3
		c-4.4,0.1-8.9,0.1-13.2,0.6C77.3,274.1,77.5,272.8,77.7,271.5z M76.8,276.8c4.4,0.1,8.8-0.3,13.2-0.4c4.6-0.1,9.1-0.3,13.7-0.4
		c4.5-0.1,8.9-0.2,13.4-0.2c4.4,0,8.8,0,13.2-0.6c-0.2,1.4-0.5,2.8-1,4.2c-0.3,1-0.7,2-1,3c-17.6,0.4-35.2,0.2-52.8-0.2
		C76,280.4,76.4,278.6,76.8,276.8z M74.6,284.3c0.1-0.1,0.3-0.2,0.3-0.4c0,0,0,0,0-0.1c17.6,0.7,35.2,0.6,52.8,0.2
		c-0.1,0.4-0.2,0.9-0.2,1.3c-0.1,0.9-0.2,1.8-0.3,2.7c-18.1,0.5-36.2,0.4-54.3,0C73.6,286.8,74.2,285.6,74.6,284.3z M122.9,331.9
		c-2.6,0.5-5.2,0.6-7.9,0.8c-3.8,0.3-7.6,0.3-11.4,0.4c-7.7,0.1-15.4,0.2-23,0.3c-1.7,0-3.5,0.1-5.2,0.1c-1.7,0-3.6,0-5.1-1
		c-2.7-1.9-2.3-5.9-2.1-8.8c0.3-7.6,0.6-15.3-0.2-22.9c-0.1-1.1-0.4-2.2-0.5-3.4c2.4,1.3,7,0.8,8.8,0.8c5.8,0.1,11.7,0.1,17.5,0.1
		c5.8,0,11.7,0,17.5-0.1c2.8,0,5.6,0,8.4-0.1c1,0,1.9-0.2,2.8-0.4c0.1,0.3,0.4,0.5,0.7,0.5c0.6,2.1,0.3,4.5,0.3,6.7
		c0,3.1,0.1,6.2,0.2,9.2C123.9,320,123.9,326,122.9,331.9z M124,294.8c-1.6,1.5-3.9,1.5-6,1.5c-2.4,0-4.7,0.1-7.1,0.1
		c-4.8,0.1-9.6,0.1-14.5,0.1c-4.7,0-9.4,0-14.1,0c-2.5,0-4.9,0-7.4-0.1c-1.3,0-6.7,0.5-7.3-1.3c0.1-0.3,0.2-0.6,0.4-0.9
		c0.6-1.1,1.5-2,2.4-3c0.5-0.6,1-1.2,1.4-1.8c0.1,0,0.1,0,0.2,0c18.3,0.5,36.5,0.5,54.8,0c-0.2,0.8-0.4,1.6-0.8,2.3
		c-0.4,1-1,1.9-1.6,2.8C124.3,294.6,124.2,294.7,124,294.8z M134.7,269.6c-0.9,6.7-1.8,13.4-2.7,20c-1,7.5-2,14.9-3,22.4
		c-0.5,3.8-1,7.6-1.5,11.4c-0.3,2.5-0.3,6.4-2.5,8.1c-0.1,0-0.3,0-0.4,0c0,0,0,0,0,0c0.9-6,0.8-12.1,0.6-18.2
		c-0.1-3.3-0.2-6.6-0.2-9.9c0-2.1,0.2-4.3-0.6-6.3c2.5-2.3,4-5.6,4.5-8.9c0.1-1,0.2-1.9,0.2-2.9c0.1-1.4,0.6-2.6,1.1-4
		c0.7-2.1,1.3-4.2,1.6-6.4c1.2-8.9-2.3-18,0.3-26.7c0.6,0.4,1,1.1,1.1,1.7c0.4,2,0.4,4.1,0.7,6.2c0.3,2.1,0.5,4.3,0.8,6.4
		C135.1,265,135,267.2,134.7,269.6z"/>
	<path class="st2" d="M183.7,318.7c0.4-1.6,2.7-1.2,3.9-1.1c1.6,0,3.1,0,4.7,0.1c3,0,6,0.1,9.1,0.1c6,0.1,12.1,0.1,18.1,0.2
		c6.6,0.1,13.1,0.1,19.7,0.2c-0.7,2.7-1,5.6-1,8.6c0,0,0,0,0,0c-9.2,0.3-18.3,0.4-27.5,0.3c-8.9-0.1-17.9-0.5-26.8-0.4
		c0-1.3,0-2.6,0-3.9C183.8,321.6,183.4,319.9,183.7,318.7z M238.2,333.2c-9.2-0.6-18.4-0.5-27.6-0.3c-9,0.2-18,0.4-27,0.8
		c0.1-1.8,0.1-3.6,0.1-5.4c8.9,0.4,17.9,0.3,26.8,0.3c9.2,0,18.3-0.1,27.5-0.4c0,0,0,0,0,0C238.2,329.9,238.2,331.5,238.2,333.2z
		 M183.6,335.2C183.6,335.2,183.6,335.2,183.6,335.2c18.2-0.3,36.4-1.9,54.6-0.6c0,1.5,0,3.1,0,4.6c-18.3,0.6-36.5,0.5-54.7-0.3
		C183.5,337.7,183.6,336.5,183.6,335.2z M183.3,340.6c18.2,0.9,36.5,1,54.8,0.2c0,0.5,0,1-0.1,1.6c0,0.5-0.1,1.1-0.1,1.6
		c-0.1,0-0.1,0-0.2,0c-5.1,0.7-10.4,0.5-15.5,0.5c-3.7,0-7.5-0.1-11.2-0.1c-7.5,0-14.9,0-22.4,0c-1.8,0-3.7-0.1-5.5,0.1
		C183.2,343.2,183.3,341.9,183.3,340.6z M182.5,349.9c0.2-1.2,0.3-2.5,0.4-3.7c0.1,0,0.1,0,0.2,0c1.3-0.2,3.4-0.2,4.9-0.2
		c3.3-0.1,6.7-0.1,10-0.1c7.8,0,15.7,0,23.5,0.1c5.4,0,10.9,0.2,16.2-0.5c0,0.2-0.1,0.4-0.1,0.6c-0.3,1.4-0.8,2.7-1.1,4
		c0,0.2,0,0.3-0.1,0.5c-4.5,0.7-9.1,0.5-13.7,0.5c-4.6,0-9.2,0-13.8,0c-8.8,0-17.7,0-26.5,0.1c0-0.4,0-0.7,0.1-1.1
		C182.5,350,182.5,350,182.5,349.9z M182.2,352.9c9.1,0,18.3-0.1,27.4-0.2c4.6,0,9.2-0.1,13.8-0.1c4.3,0,8.6,0.1,12.8-0.5
		c-0.1,1.2-0.1,2.3-0.1,3.5c0,0.6,0,1.1,0.1,1.7c-15,0-29.9,0.1-44.9,0.1c-3.4,0-6.8,0-10.2,0C181.6,356,182,354.5,182.2,352.9z
		 M180.6,359.1c15.1,0,30.2-0.2,45.3-0.3c3.5,0,6.9,0,10.4-0.1c0,1-0.1,1.9-0.5,2.8c-9.5,0-19-0.2-28.4-0.3
		c-9.2-0.1-18.4-0.3-27.6,0.2C180,360.7,180.3,359.9,180.6,359.1z M179.1,363.1c9.4-0.1,18.8-0.3,28.2-0.3
		c9.1,0.1,18.2,0.2,27.4,0.3c-0.5,0.6-1.1,1.3-1.8,1.8c-0.2,0-0.4,0.2-0.6,0.4c-0.1,0.1-0.2,0.1-0.3,0.2c-1,0.5-2.5,0.5-3.6,0.6
		c-7.1,0.6-14.4,0.3-21.5,0.4c-4.8,0.1-9.6,0.1-14.4,0.1c-4.9,0-9.9-0.2-14.7,0.3C178.1,365.6,178.6,364.3,179.1,363.1z M234,399.7
		c-0.2,0-0.3,0-0.5,0c-1.9,0-3.8,0-5.8,0c-4,0-7.9,0.1-11.9,0.1c-7.8,0.1-15.6,0.1-23.4,0.2c-1.8,0-3.6,0-5.4,0
		c-1.8,0-4,0.4-5.8-0.1c-2.1-0.5-2-2.9-2.2-4.6c-0.3-2-0.5-3.9-0.8-5.9c-0.5-3.7-1-7.3-1.4-11c-0.3-3.2-0.6-6.6,0.2-9.7
		c0-0.1,0.1-0.3,0.1-0.4c4.7,0.4,9.5,0.1,14.2,0c4.4-0.1,8.8-0.1,13.2-0.2c7.7-0.1,15.5,0.2,23.2-0.4c1.8-0.1,3.4-0.3,4.8-1
		c1.1,2.7,0.8,6,1,8.8c0.2,3.2,0.5,6.4,0.7,9.6c0.2,2.9,0.3,5.7,0.3,8.6C234.6,395.8,234.6,397.8,234,399.7z M239.8,372.3
		c-1,8.7-2,17.4-2.9,26.1c-0.1,0.5-0.4,0.8-0.9,1c0.4-1.7,0.4-3.6,0.5-5.3c0-3.1-0.1-6.2-0.3-9.3c-0.2-3.3-0.5-6.7-0.7-10
		c-0.2-2.9-0.2-6-1.4-8.7c0.1-0.1,0.2-0.2,0.3-0.3c1.1-1,2.3-2.1,3-3.5c0.8-1.6,0.6-3.7,0.6-5.4c0-2.4-0.1-4.8,0.4-7.2
		c0.3-1.3,0.7-2.5,0.9-3.8c0.4-2.7,0.5-5.4,0.5-8.1c0.1-3.6,0-7.3,0.2-10.9c0.1-1.6,0.1-3.3,0.3-5c0.1,1.1,0.1,2.1,0.2,3.2
		c0.2,4.4,0.5,8.7,0.7,13.1c0.2,3.7,0.6,7.3,0.6,11C241.7,356.9,240.6,364.6,239.8,372.3z"/>
	<path class="st2" d="M303.3,256.3c0.2-1,4.6-0.4,5.3-0.4c2.2,0,4.5,0,6.7,0.1c4.3,0,8.5,0,12.8,0c4.3-0.1,8.5-0.2,12.8-0.3
		c2-0.1,4-0.1,6.1-0.2c2.2-0.1,4.5-0.5,6.7-0.3c0.6,0,1.2-0.3,1.7,0.4c0.2,0.2,0.1,0.8,0.1,1.1c0.1,1.1,0,2.3,0,3.4c0,1.5,0,3,0,4.6
		c-17.6,0.8-35.2,0.8-52.8,0.3c0.1-2.6,0.1-5.3-0.1-7.9C303,256.8,303.3,256.6,303.3,256.3z M302.8,266.3
		c17.6,0.6,35.3,0.5,52.9-0.3c0,0.1,0,0.2,0,0.3c0,1.4,0,2.8,0,4.3c-8.8,0.4-17.6,0.2-26.5,0.1c-8.9-0.1-17.8-0.2-26.7-0.3
		C302.6,269,302.7,267.6,302.8,266.3z M302.4,271.9c8.9,0.1,17.9,0.2,26.8,0.3c8.8,0.1,17.7,0.5,26.5-0.1c0,1.2,0,2.4,0,3.6
		c-17.9,0.1-35.7,0-53.6-0.3C302.2,274.3,302.3,273.1,302.4,271.9z M302,277c17.9,0.4,35.8,0.5,53.8,0.2c0,0.6,0,1.3,0,1.9
		c0,0.5,0,1,0,1.5c-8.9,0.9-17.9,0.7-26.8,0.6c-4.7-0.1-9.4-0.1-14-0.2c-4.4-0.1-8.8-0.3-13.2-0.2C301.8,279.5,301.9,278.3,302,277z
		 M301.5,282.3c4.4,0.3,8.9,0.2,13.4,0.2c4.8,0.1,9.6,0.1,14.4,0.2c8.8,0.1,17.8,0.5,26.5-0.6c0,1.4,0,2.9,0.1,4.3
		c-18.2,0.7-36.5,1.8-54.7,0.2C301.3,285.2,301.4,283.8,301.5,282.3z M301,288.4c18.2,1.7,36.7,0.3,54.9-0.4c0,1.5,0,2.9,0.1,4.4
		c-18.4,0.4-36.9-1.1-55.3,0.5C300.8,291.4,300.9,289.9,301,288.4z M300.5,295.4c0-0.4,0.1-0.7,0.1-1.1c18.5-1.5,37,0.2,55.4-0.5
		c0,0.5,0,1,0,1.5c0,0.1,0,0.1-0.1,0.2c-0.8,5.3-7.9,4.6-11.9,4.6c-5,0-10,0-15,0c-5,0-10,0-15,0c-2.4,0-4.9,0-7.3,0
		c-2.5,0-5.6-0.4-6.4-3.1C300.4,296.6,300.4,296,300.5,295.4z M354.9,334.1c-1.2,0.1-2.4,0.2-3.7,0.3c-2.6,0.2-5.1,0.4-7.7,0.5
		c-5,0.2-10,0.4-15,0.4c-5,0-10-0.1-15-0.1c-2.5,0-4.9-0.1-7.4-0.2c-1.7,0-4.1,0.2-5.6-0.8c-0.7-11.3-0.9-22.7-0.4-34
		c2.5,2.3,7.4,1.9,10.5,1.9c6.1,0,12.2,0,18.4,0c6.1,0,12.2,0,18.3,0c3,0,6.7-0.5,8.8-2.7c0,1.7,0.1,3.4,0.1,5.1
		c0.3,9.7,0.6,19.3,1.2,29c0,0,0,0,0,0C356.8,334,355.6,334.1,354.9,334.1z"/>
	<path class="st2" d="M474.4,245c-0.2,0.6-0.7,1.4-0.9,1.6c-0.9,0.7-3.2,0.3-4.3,0.3c-3,0.1-6,0.1-8.9,0.1c-5.6,0-11.2,0-16.9-0.1
		c-5.7-0.1-11.3-0.1-17-0.1c-1.6,0-3.1,0-4.7,0c-1.7,0-2.8-0.5-3.5-2.1c-0.6-1.6-1-3.2-1.3-4.9c16,0.3,32.1-0.4,48.2-0.6
		c2.9,0,5.8-0.1,8.7,0c0.1,0,0.2,0,0.3-0.1C474.1,241.2,474.2,243.1,474.4,245z M474,238c-0.1,0-0.2-0.1-0.3-0.1
		c-15.6-0.4-31.3,0.3-47,0.4c-3.4,0-6.7,0.1-10.1,0.1c-0.1-0.6-0.1-1.2-0.2-1.8c0-0.2,0-0.5,0-0.7c17.2-0.1,34.4-0.4,51.6-0.4
		c1.9,0,3.9-0.1,5.8,0C473.9,236.4,473.9,237.2,474,238z M473.8,234.1c-5.2-0.4-10.6-0.1-15.9-0.1c-9.7,0-19.4,0.1-29,0.2
		c-4.1,0-8.3,0.1-12.4,0.1c0-0.9,0-1.9,0-2.8c19.1-0.4,38.1,0.2,57.2,0.2C473.8,232.6,473.8,233.4,473.8,234.1z M473.7,230.2
		c-19,0-38.1-0.8-57.1-0.3c0-1.6,0-3.2,0-4.9c19,0.6,38,0.8,57,0.7C473.6,227.2,473.6,228.7,473.7,230.2z M473.3,220.5
		c0.1,1.2,0.1,2.5,0.1,3.7c-19,0.2-37.9,0-56.9-0.7c0-1.2,0-2.4,0-3.7c18.9-0.1,37.8-0.1,56.7-0.3
		C473.3,219.9,473.3,220.2,473.3,220.5z M473.2,218.1c-18.9,0-37.8,0.2-56.6,0.2c0-1.6,0-3.3,0-4.9c2.2-0.2,4.4-0.1,6.6-0.1
		c2.4,0,4.9,0,7.3,0c4.7,0,9.4-0.1,14.1-0.1c9.5-0.1,19-0.1,28.5,0C473,214.8,473.1,216.5,473.2,218.1z M472.7,207.5
		c0.1,1.4,0.1,2.8,0.2,4.2c-9.7-0.1-19.4,0-29,0c-4.8,0-9.6,0-14.4,0c-4.2,0-8.7-0.5-12.9,0.1c0-1.8,0-3.6,0-5.4
		c18.7,0.4,37.4,0,56.1-0.6C472.6,206.4,472.7,207,472.7,207.5z M418.6,194.8c2.5,0,4.9,0.1,7.4,0.1c5.3,0.1,10.5,0.2,15.8,0.2
		c10,0.1,20.1,0.3,30.1,0.4c0.4,0.7,0.3,2,0.3,2.7c0.1,1,0.1,2,0.2,3c0.1,1.1,0.1,2.1,0.2,3.2c-18.7,0.3-37.3,0.3-56,0.5
		c0-3.1-0.1-6.2-0.1-9.3C416.6,194.8,417.5,194.8,418.6,194.8z M475.7,280.7c-0.3,1.5-2.3,1.1-3.5,1.1c-11.3,0.1-22.7,0.2-34,0.4
		c-5.5,0.1-11.3,0.5-16.8-0.4c-0.6-0.1-1.2-0.2-1.8-0.4c-1-0.3-1.5-0.7-1.7-1.7c-0.3-1.4-0.1-3-0.2-4.5c-0.1-2.7-0.3-5.4-0.4-8.1
		c-0.4-7.6-0.8-15.3-0.9-22.9c0.4,1.5,1,3.1,2.5,3.8c2,1,5,0.5,7.2,0.5c2.9,0,5.7,0,8.6,0.1c11.1,0.1,22.2,0.3,33.2,0.1
		c1.6,0,3.2,0,4.8-0.1c0.5,0,1.1-0.1,1.5-0.4c0,5.6,0.6,11.2,0.9,16.7c0.2,3.5,0.4,6.9,0.5,10.4c0.1,1.3,0.1,2.6,0.1,4
		C475.7,279.7,475.8,280.2,475.7,280.7z"/>
	<path class="st2" d="M598.3,301.4c1.6,4.2,2.2,8.6,1.9,13.1c-18.7,1-37.4,0-56-0.3c-1.7-5.1-3.4-10.2-4.7-15.4
		c19.1-0.6,38.3-0.9,57.5-0.9C597.3,299.1,597.9,300.3,598.3,301.4z M539,297.3c-0.4-1.5-0.7-3-1-4.5c19.3-0.2,38.6-0.2,57.9-0.5
		c0,1.1,0,2.2,0.2,3.2c0.1,0.3,0.2,0.6,0.2,0.9C577.3,296.4,558.2,296.7,539,297.3z M537.7,291.2c-0.3-1.7-0.6-3.4-0.8-5.1
		c19.8,0.6,39.6,0.7,59.5,0.2c0,0.9-0.1,1.8-0.1,2.7c0,0.6-0.1,1.2-0.1,1.8C576.6,290.8,557.1,291,537.7,291.2z M596.4,284.6
		c-19.9,0.4-39.8,0.3-59.7-0.2c-0.1-0.5-0.1-1-0.2-1.5c-0.1-1-0.2-2.1-0.2-3.1c20-0.7,40.1,2.2,60.1-0.4
		C596.4,281.1,596.4,282.9,596.4,284.6z M596.2,277.9c-20,2.6-40.1-0.3-60.1,0.4c-0.1-1.9-0.1-3.7-0.1-5.6c4.9,0.2,9.9-0.1,14.8-0.2
		c5,0,10,0,14.9,0c10,0.1,20,0.3,30,0.6C596,274.7,596.1,276.3,596.2,277.9z M595.7,271.6c-10-0.4-19.9-0.6-29.9-0.6
		c-5,0-10,0-14.9,0c-4.9,0-9.9-0.2-14.8,0.3c0-1.4,0.1-2.7,0.2-4.1c0-0.4,0-0.7,0.1-1.1c19.5,0.2,39.1-0.2,58.6-1.3
		C595.2,267,595.5,269.3,595.7,271.6z M535,253.7c0.2-0.2,1.4-0.1,1.7-0.1c0.8,0,1.6-0.1,2.3-0.1c4.2-0.2,8.5-0.4,12.7-0.5
		c8.7-0.3,17.4-0.3,26.1-0.3c4.2,0,8.5,0.1,12.7,0.2c0.6,0,1.1,0,1.7,0.1c0.9,0,1-0.2,1.4,0.9c0.2,0.8,0.2,1.8,0.3,2.7
		c0.3,2.2,0.5,4.4,0.8,6.6c-19.4,1.2-38.9,1.6-58.3,1.3c0.1-3.6-0.1-7.3-1.6-10.6C534.9,253.8,534.9,253.7,535,253.7z M541.3,344.9
		c-0.8-0.2-1.5-0.7-1.8-1.8c0,0,0,0,0-0.1c-2.6-13.5-4.1-27.1-5.4-40.8c-0.6-6.6-1.4-13.2-1.9-19.8c-0.4-6.4,0.6-12.6,1.8-18.9
		c0.1-0.1,0.2-0.2,0.2-0.4c0-0.2,0-0.4,0-0.7c0-0.1,0-0.2,0.1-0.3c0-0.1,0-0.3,0-0.4c0.1-1.1,0.1-2.2,0.2-3.3
		c0.5,3.4,0.4,6.9,0.1,10.4c-0.3,5.2-0.2,10.4,0.5,15.6c1.3,10.5,4.3,20.7,7.6,30.7c0,0,0,0,0,0C541.8,325.1,542,335.1,541.3,344.9z
		 M601.8,342.6c-0.1,0.7-0.3,2.3-1,2.7c0,0,0,0,0,0c-2.7,0.7-5.4,0.6-8.2,0.5c-2.8-0.1-5.6-0.1-8.4-0.2c-5.7-0.1-11.4-0.2-17.2-0.3
		c-5.6-0.1-11.2-0.2-16.8-0.3c-2.1,0-4.1,0-6.2,0.1c-0.3,0-0.7,0-1,0c0.6-9.7,0.9-19.5,1.3-29.3c18.7,0.5,37.4,1.3,56.1,0.2
		c0.3,5.3,0.7,10.6,1.1,15.9c0.2,2.4,0.3,4.8,0.4,7.2C601.9,340.3,601.9,341.5,601.8,342.6z"/>
	<path class="st2" d="M694.7,255.4c1.2,1.9,2.5,3.8,3.3,5.9c-17.7-0.1-35.4-0.2-53.2,0c-1.6-1.4-2.8-3.2-3.6-5.1
		C659,256.2,676.9,255.7,694.7,255.4z M693.7,253.9c-17.7,0.2-35.4,0.2-53.1,0.7c-0.4-1.2-0.7-2.5-1-3.8c17.1-0.9,34.3-1.5,51.5-1.8
		C691.4,250.7,692.6,252.4,693.7,253.9z M691,246.1c0,0.4,0,0.9,0,1.3c-17.2,0.2-34.5,0.8-51.7,1.9c-0.2-1.3-0.4-2.6-0.6-3.8
		c17.3-1.2,34.6-1.5,51.9-1.6C690.7,244.6,690.9,245.4,691,246.1z M690.4,242.3c-17.3-0.4-34.7,0.4-52,1.6c0-0.1,0-0.3-0.1-0.4
		c-0.2-1.3-0.4-2.6-0.5-4c8.6,0.1,17.3-0.4,25.9-0.6c8.8-0.2,17.6-0.3,26.5-0.3C690.2,239.8,690.3,241,690.4,242.3z M690.1,236.9
		c-8.8,0-17.6,0.1-26.4,0.4c-8.7,0.2-17.4,0.2-26,0.8c-0.1-1.4-0.2-2.8-0.2-4.3c17.5-0.1,35-0.5,52.4-0.7
		C690,234.3,690,235.6,690.1,236.9z M640,217.8c9.1-0.2,18.1-0.2,27.2-0.1c4.5,0.1,8.9,0.2,13.4,0.3c2.2,0.1,4.5,0.1,6.7,0.2
		c0.3,0,1.2-0.1,1.3,0c0.6,0.4,0.5,1.2,0.5,1.8c0.1,1.2,0.1,2.4,0.2,3.7c0,0.9,0.1,1.8,0.1,2.7c-17.3,1-34.7,1.4-52.1,0.9
		c0-3,0.1-6.1,0.1-9.1c0-0.1,0-0.2-0.1-0.3C638.3,217.7,639.2,217.8,640,217.8z M689.6,227.9c0.1,1.2,0.1,2.3,0.2,3.5
		c-17.5,0.3-34.9,0.4-52.4,0.8c0-1.1,0-2.3,0-3.4C654.8,229,672.2,228.9,689.6,227.9z M640.8,292.3c-1.8-2.2-2.5-5.7-3-8.3
		c-0.9-4.1-1.7-8.3-2.5-12.4c-2.1-10.2-3.8-20.2-3.9-30.6c0.5-4.6,1.2-9.2,2.1-13.8c0.4-2,0.8-4.1,1.3-6.1c0.2-1,0.4-2.4,1.3-3
		c-0.5,8.8-0.8,17.8,0.8,26.5c1.1,5.9,1.6,13.2,6.3,17.6c0,0.1-0.1,0.2-0.1,0.3C641.9,272.3,640.9,282.3,640.8,292.3z M698.2,270.1
		c-0.2,2.5-0.4,5.1-0.6,7.6c-0.4,5-0.9,10-1.2,15c-8.9,0.2-17.9,0.4-26.9,0.5c-9,0.1-18.1-0.2-27.1,0.1c0.2-10.1,1.1-20.2,2.2-30.3
		c18-0.1,36,0,54,0.1C698.2,265.3,698.3,267.8,698.2,270.1z"/>
</g>
</svg>
