<?xml version="1.0" encoding="utf-8"?>
<!-- Generator: Adobe Illustrator 25.0.0, SVG Export Plug-In . SVG Version: 6.00 Build 0)  -->
<svg version="1.1" xmlns="http://www.w3.org/2000/svg" xmlns:xlink="http://www.w3.org/1999/xlink" x="0px" y="0px"
	 viewBox="0 0 792 612" style="enable-background:new 0 0 792 612;" xml:space="preserve">
<style type="text/css">
	.st0{display:none;}
	.st1{fill:#FFFFFF;}
	.st2{fill:#231F20;}
</style>
<g id="referencias" class="st0">
</g>
<g id="vector">
	<g>
		<path class="st1" d="M77.1,295.2c212.4-6,425.9-0.8,638.1-12.8c1.5,14.9-1.8,22.9-0.3,37.8c-165.7,3.6-557.5,8.8-637.8,8.8
			C77.1,309.2,77.1,295.2,77.1,295.2z"/>
	</g>
	<g>
		<g>
			<path class="st2" d="M565.6,226.4c-3.4,3.5-7,7.1-9.5,11.4c-2.7,4.5-3.9,9.5-4.6,14.6c-1.6,11.4-1.6,23-0.8,34.5
				c0.8,11.1,2.2,22.3,4,33.3c1.7,10.1,3.9,20.3,7.6,29.9c2,5.3,4.5,10.3,7.4,15.1c3,4.8,6.8,9.5,7.6,15.3c0.2,1.4,2.4,1.5,2.3,0
				c-0.5-4.8-2.9-8.9-5.5-12.8c-2.7-4.1-5.2-8.3-7.3-12.8c-4.3-9.2-6.9-19.1-8.8-29.1c-2-10.6-3.4-21.4-4.5-32.1
				c-1.1-11.3-1.5-22.6-0.6-33.9c0.5-6.2,1.1-12.7,3.7-18.5c2.4-5.2,6.2-9.6,10.1-13.8C567.2,226.7,566.3,225.7,565.6,226.4
				L565.6,226.4z"/>
		</g>
		<g>
			<path class="st2" d="M568.3,226.9c3.6-1.6,7.5-2.3,11.5-2.5c3.4-0.2,7.1-0.2,10.4,0.7c3.8,1,6,3.7,7.4,7.3
				c0.5,1.4,1.4,3.3,1.1,4.8c-0.4,1.7-1.8,3.1-2.5,4.6c-3,5.8-2.1,12.5-2.8,18.7c-0.4,3.3-1.3,6.4-3.2,9.1c-1.6,2.3-3.7,4.2-5.9,5.9
				c-4.8,3.9-10.2,7.5-12.8,13.4c-0.6,1.3,1.3,2.4,1.9,1.1c2.6-5.8,8.1-9.3,12.8-13.2c2.3-1.9,4.6-4.1,6.2-6.6
				c1.8-2.8,2.7-5.9,3.1-9.2c0.4-3.6,0.4-7.3,0.7-10.9c0.2-1.7,0.5-3.5,1-5.2c0.6-1.9,1.7-3.4,2.7-5.1c1.8-3.2,0.7-6.1-0.7-9.2
				c-1.4-3.1-3.4-5.7-6.7-7c-3.8-1.5-8.3-1.5-12.3-1.2c-4.4,0.3-8.6,1.2-12.5,3.1C566.6,226,567.4,227.3,568.3,226.9L568.3,226.9z"
				/>
		</g>
		<g>
			<path class="st2" d="M591.9,231.3c-4.3,1.7-6,6.8-7.9,10.6c-1.4,2.8-2.7,5.5-4,8.3c-1,2.2-1.7,4.4-1.4,6.9
				c0.5,4,5.3,10.7,1.3,14.2c-0.8,0.7-2,1.1-2.8,1.8c-0.9,0.7-1.6,1.6-2.1,2.5c-1.2,2.2-1.6,4.8-2.1,7.2
				c-2.6,11.6-4.4,23.3-5.5,35.1c-0.4,4.6-1.1,9.5,0.2,13.9c0.5,1.7,1.4,3.4,2.7,4.7c1.8,1.6,4,2.1,6.3,2.6c9.9,2,12.6,13.2,19.7,19
				c1.2,1,2.9-0.7,1.7-1.7c-5.9-4.9-8.5-12.8-14.9-17.2c-1.7-1.2-3.6-1.9-5.6-2.3c-2.3-0.5-4.7-0.8-6.3-2.8c-2.6-3.2-2.2-8-1.9-11.8
				c0.8-11.4,2.4-22.8,4.7-34c0.6-2.7,1.1-5.5,1.8-8.2c0.6-2.4,1.4-4.7,3.6-6c1.7-1,3.1-2,3.8-4c0.6-1.9,0.4-4-0.1-5.9
				c-0.7-2.7-2.3-5.2-2.5-8c-0.2-3.2,1.7-6.2,3-9c1.4-2.9,2.7-5.9,4.1-8.8c1.1-2.3,2.4-4.6,4.8-5.7
				C593.2,232.3,592.7,231,591.9,231.3L591.9,231.3z"/>
		</g>
		<g>
			<path class="st2" d="M592.4,352.3c4-0.2,10.8,0.3,11.6,5.4c0.3,1.9-0.4,4-1.7,5.4c-1.5,1.7-3.6,2.6-5.8,2.9
				c-2.8,0.5-5.7-0.5-8.4,0.7c-1.2,0.5-0.3,2.4,0.9,2c1.5-0.4,2.9-0.3,4.4-0.3c1.4,0.1,2.7,0,4.1-0.3c2.5-0.5,5-1.7,6.6-3.7
				c1.6-1.9,2.4-4.4,2-6.9c-0.4-2.5-2-4.5-4.2-5.7c-3-1.6-6.3-1.3-9.6-1.1C591.4,350.8,591.4,352.3,592.4,352.3L592.4,352.3z"/>
		</g>
		<g>
			<path class="st2" d="M589.6,338.3c-5.5-2.4-7.8-8.3-8.1-14c-0.3-5.8,0.2-12.1,4.4-16.5c1.9-2,3.9-3.1,6.5-1.5
				c0.9,0.6,2,1.6,2.1,2.8c0.1,1.2-0.6,2.5-1.1,3.5c-2.1,4.8-1.9,9.6-0.8,14.6c1.4,6.3,4.1,12.6,3.2,19.1c-0.2,1.4,2,2,2.2,0.6
				c0.9-6.8-1.5-13.1-3-19.6c-0.8-3.4-1.4-7-0.8-10.5c0.5-2.6,2.4-4.9,2.5-7.6c0-2.6-2.3-4.6-4.5-5.5c-2.4-1-4.6-0.5-6.6,1.2
				c-5.3,4.4-6.4,10.9-6.3,17.5c0.1,6.9,2.5,14.7,9.7,17.1C589.8,339.9,590.4,338.7,589.6,338.3L589.6,338.3z"/>
		</g>
		<g>
			<path class="st2" d="M623.4,236.5c-0.2-0.4-0.6-0.7-1-1c-0.3-0.3-0.7-0.6-1-0.9c-0.7-0.6-1.5-1.2-2.3-1.6
				c-1.6-0.9-3.5-1.3-5.3-0.9c-0.6,0.1-0.9,0.8-0.8,1.3c0.2,0.6,0.8,0.9,1.3,0.8c0.6-0.1,1.3-0.2,1.9,0c0.7,0.1,1.4,0.4,2.1,0.8
				c0.7,0.4,1.4,0.8,2,1.3c0.3,0.2,0.6,0.4,0.8,0.7c0.3,0.3,0.7,0.7,1.1,0.8C623,238,623.9,237.2,623.4,236.5L623.4,236.5z"/>
		</g>
		<g>
			<path class="st2" d="M619.6,233c-3.6-8.8-7.9-17.9-15.8-23.6c-7.2-5.2-16.6-6.7-25.3-5.5c-19.6,2.7-33.6,18.7-42.8,35.1
				c-2.6,4.7-5,9.6-6.4,14.8c-1.5,5.5-1.8,11.2-1.6,16.8c0.4,12,1.7,24,3.1,35.9c1.3,11.8,2.6,23.7,4.4,35.5
				c0.8,5.4,2.1,10.8,4.2,15.8c1.9,4.5,4.4,8.7,7.2,12.7c5.8,8.2,12.8,15.3,19.5,22.7c1.8,2,3.7,4,5.2,6.3c1.4,2.3,2.1,4.9,2.8,7.5
				c1.1,4.4,2.6,8.9,6.7,11.5c1.7,1.1,3.7,1.4,5.7,1.1c1.5-0.3,0.9-2.6-0.6-2.3c-5.1,0.9-7.8-5-8.9-9c-0.6-2.3-1.1-4.7-2-6.9
				c-0.9-2.1-2.1-4-3.5-5.8c-3.1-3.7-6.6-7.1-9.8-10.6c-3.2-3.5-6.4-7-9.4-10.8c-6-7.6-11-16-13.3-25.5c-1.3-5.4-1.9-11-2.6-16.5
				c-0.7-5.7-1.4-11.3-2.1-17c-1.4-11.2-2.6-22.4-3.4-33.7c-0.4-5.6-0.9-11.2-0.7-16.8c0.2-5.4,1.3-10.6,3.3-15.6
				c3.6-9,9.2-17.8,15.5-25.1c6-6.9,13.3-12.9,22-15.9c8.1-2.8,17.3-3.3,25.4-0.2c9.1,3.4,14.5,11.3,18.8,19.6
				c1.1,2.1,2.1,4.1,3.1,6.2C618.4,234.5,619.9,233.9,619.6,233L619.6,233z"/>
		</g>
		<g>
			<path class="st2" d="M601.7,372.7c-1.5,4.2-3.1,8.4-3.8,12.8c-0.6,4.4,0,8.4,1.3,12.6c1.5,4.5,2,8.7,1.2,13.4
				c-0.8,4.5-2.5,8.7-4.1,12.9c-0.5,1.4,1.6,1.9,2.1,0.6c3.3-8,6.2-16.6,3.6-25.2c-0.6-2.1-1.5-4.2-2-6.3c-0.5-2.2-0.6-4.5-0.4-6.8
				c0.4-4.7,1.9-9.1,3.4-13.5C603.4,372.2,602,371.9,601.7,372.7L601.7,372.7z"/>
		</g>
	</g>
	<g>
		<g>
			<path class="st2" d="M240,346c-7.8-0.7-15.5,1.2-22.8,4c-6.3,2.4-12.3,5.5-17.8,9.4c-5.3,3.8-10.1,8.4-13.6,13.9
				c-3.9,6-6.3,12.9-7.6,19.8c-1.3,7.1-2,14.6-1.3,21.8c0.3,3.4,1.2,6.4,2.4,9.6c0.4,0.9,0.7,2,1,2.9c2.7,8.4,7.3,15.6,14,21.4
				c10,8.6,22.1,13.4,35.3,13.9c12.8,0.5,26-2.6,36.8-9.6c9.5-6.2,17.4-14.8,21.5-25.5c1.8-4.6,2.6-9.4,3.4-14.3c0.6-4,1.1-8,1-12.1
				c-0.1-2.4-0.4-4.8-0.8-7.2c-1.4-9.4-4.2-18.5-9.9-26.2c-7.4-9.9-18.7-16.2-30.4-19.8c-3.5-1.1-7.1-1.9-10.8-2.4
				c-1.4-0.2-2,2-0.6,2.2c12.1,1.9,24.6,6.6,33.8,14.8c7.9,7,12.5,16.6,14.7,26.8c0.8,3.9,1.5,8,1.6,12c0.2,6.5-0.9,13.1-2.3,19.4
				c-2.2,9.4-7.3,17.8-14.4,24.3c-18.2,16.7-48,21-69.4,7.9c-8.7-5.3-16.3-12.6-20.1-22.2c-0.9-2.2-1.4-4.6-2.3-6.8
				c-1.2-3-2.1-5.9-2.4-9.1c-0.3-3.4-0.3-6.9-0.1-10.4c0.7-13.8,4.5-27.4,14.5-37.5c4.5-4.6,9.8-8.2,15.5-11.2c6.3-3.3,13-6,20-7.5
				c3.7-0.8,7.5-1.1,11.2-0.9C240.9,347.6,240.9,346.1,240,346L240,346z"/>
		</g>
		<g>
			<path class="st2" d="M395.7,443.3c-8-6.2-13.9-15-16.5-24.7c-3-11.4-1.1-23.3,1.9-34.5c2.8-10.7,6.7-21.9,13.2-31
				c5.3-7.5,12.9-12.7,22-14.5c8.3-1.7,17.3-0.6,24.8,3.3c8.5,4.4,14.4,12.2,17.4,21.1c3.5,10.4,3.2,21.7,0.9,32.3
				c-1.2,5.7-3,11.3-5,16.8c-1.8,4.9-3.7,9.9-6,14.6c-4.3,8.8-10.5,17-19.9,20.7c-8.5,3.4-18.5,3.4-26.8-0.6c-2-1-3.9-2.2-5.6-3.6
				c-1-0.8-2.4,0.6-1.4,1.4c7.3,6.1,17.1,8.3,26.4,6.9c10.1-1.5,18.5-7.2,24.3-15.5c3-4.3,5.3-9.1,7.4-14c2.3-5.5,4.4-11.2,6.1-17
				c3.5-11.3,5.4-23.4,3.4-35.2c-1.8-10-6.5-19.9-14.7-26.2c-7-5.4-15.9-8-24.6-7.8c-8.8,0.2-17.5,3.3-24,9.2
				c-8.4,7.6-13.1,18.8-16.7,29.3c-4,11.8-7.3,25-5.9,37.6c1.1,10.3,5.7,20.1,12.9,27.6c1.8,1.8,3.7,3.5,5.7,5
				C395.7,445.1,396.4,443.8,395.7,443.3L395.7,443.3z"/>
		</g>
		<g>
			<path class="st2" d="M318.3,378.3c0.7-4.1,2-8.4,5.2-11.3c2.5-2.3,6.2-3.3,9.5-4.1c0.8-0.2,1.7-0.4,2.5-0.6
				c-0.6,0.1-0.2,0,0.1,0.1c0.6,0.1,1.1,0.2,1.7,0.2c4.2,0.6,8.5,1,12.8,1.3c1,0,1-1.5,0-1.6c-4.5-0.2-9-0.7-13.4-1.3
				c-1.9-0.3-3.4,0.2-5.3,0.7c-3.4,0.9-7,2.1-9.6,4.7c-3,3.1-4.3,7.3-4.9,11.5C316.8,378.8,318.2,379.2,318.3,378.3L318.3,378.3z"/>
		</g>
		<g>
			<path class="st2" d="M350.1,363.9c4-0.5,7.9,0.5,11.9,0.8c3.8,0.3,7.7,0.2,11.5-0.3c6.4-0.8,12.7-2.9,17.5-7.4
				c0.8-0.7-0.4-1.8-1.1-1.1c-4.9,4.5-11.5,6.5-18,7.1c-3.5,0.3-7.1,0.3-10.6,0.1c-3.8-0.3-7.5-1.2-11.3-0.7
				C349.2,362.5,349.2,364.1,350.1,363.9L350.1,363.9z"/>
		</g>
		<g>
			<path class="st2" d="M317,377.9c-0.5,2.2,0.3,4.7,1.1,6.7c0.9,2.4,2.1,4.7,3.7,6.7c1.6,2,3.7,3.1,6,4.2c3.1,1.5,6.4,2.8,9.7,4.1
				c1,0.4,1.5-1.3,0.4-1.6c-3-1.1-6.1-2.3-9-3.7c-2.1-1-4.3-1.9-5.8-3.7c-1.5-1.8-2.6-3.9-3.4-6c-0.8-1.9-1.6-4.1-1.3-6.2
				C318.5,377.4,317.1,377,317,377.9L317,377.9z"/>
		</g>
		<g>
			<path class="st2" d="M349.5,362.4c-3.6,1.7-6.9,4-9.3,7.2c-1.9,2.5-3.3,5.6-3.6,8.7c-0.1,1,1.5,1,1.6,0c0.2-2.8,1.7-5.7,3.4-7.9
				c2.3-3,5.4-5.1,8.8-6.7C351.2,363.3,350.4,361.9,349.5,362.4L349.5,362.4z"/>
		</g>
		<g>
			<path class="st2" d="M344.5,401.2c7.1,2.1,14,4.6,20.8,7.5c2.9,1.3,5.8,2.4,8,4.7c2.1,2.1,3.5,4.7,4.8,7.4c0.5,1,1.9,0.1,1.5-0.9
				c-1.3-2.7-2.8-5.2-4.9-7.3c-2.3-2.4-5-3.7-8.1-5c-7.1-3-14.4-5.6-21.8-7.8C344,399.5,343.6,400.9,344.5,401.2L344.5,401.2z"/>
		</g>
		<g>
			<path class="st2" d="M340.8,377.5c-1.9,0.3-3.8,0.8-5.6,1.2c-0.3,0.1-0.5,0.4-0.5,0.7c-0.2,2.5,0.4,5,0.7,7.4
				c0.4,3.3,0.8,6.6,1.2,9.8c0.7,6.5,1.3,12.9,1.9,19.4c0.1,1,1.6,1,1.6,0c-0.5-6.5-1.2-12.9-1.9-19.4c-0.4-3.2-0.8-6.3-1.2-9.5
				c-0.3-2.5-1-5.2-0.8-7.7c-0.2,0.2-0.4,0.5-0.5,0.7c1.9-0.4,3.7-1,5.6-1.2C342.1,378.7,341.7,377.3,340.8,377.5L340.8,377.5z"/>
		</g>
		<g>
			<path class="st2" d="M340.2,378.2c0.7,6.2,2.1,12.3,3,18.5c0.9,6.4,1.7,12.9,2.3,19.4c0.1,1.1,1.9,1.1,1.8,0
				c-0.6-6.3-1.3-12.6-2.2-18.9c-0.9-6.4-1.7-12.9-3.3-19.1C341.5,377.1,340.1,377.3,340.2,378.2L340.2,378.2z"/>
		</g>
		<g>
			<path class="st2" d="M346.3,416.8c4.8,0.2,9.5-0.1,14.3,0c1,0,1-1.5,0-1.5c-4.8-0.2-9.5,0.2-14.3,0
				C345.4,415.2,345.4,416.7,346.3,416.8L346.3,416.8z"/>
		</g>
		<g>
			<path class="st2" d="M361.3,416c0-1.6-0.3-3.2-0.5-4.8c-0.2-1.6-0.4-3.2-0.5-4.8c0-0.4-0.3-0.7-0.7-0.7c-0.4,0-0.8,0.3-0.7,0.7
				c0.2,1.6,0.4,3.2,0.5,4.8c0.2,1.6,0.3,3.3,0.6,4.9C360.2,417,361.4,416.8,361.3,416L361.3,416z"/>
		</g>
		<g>
			<path class="st2" d="M337.1,416.8c-0.3,2.8-0.3,5.7-0.5,8.5c-0.2,2.8-0.6,5.7-0.8,8.5c-0.1,0.8,1.3,1.1,1.5,0.2
				c0.5-2.8,0.6-5.7,0.8-8.5c0.2-2.9,0.5-5.8,0.3-8.7C338.4,415.9,337.2,415.9,337.1,416.8L337.1,416.8z"/>
		</g>
		<g>
			<path class="st2" d="M336.5,434.6c7.2,0.1,14.4,0.3,21.6,0.4c1,0,2.1,0,3.1,0.1c1,0,1-1.5,0-1.5c-7.2-0.1-14.4-0.3-21.6-0.3
				c-1,0-2.1,0-3.1,0C335.6,433.1,335.6,434.6,336.5,434.6L336.5,434.6z"/>
		</g>
		<g>
			<path class="st2" d="M361.9,434.3c-0.1-1.9-0.1-3.7-0.2-5.6c0-0.3,0-0.5,0-0.8c-0.3,0.3-0.5,0.5-0.8,0.8c1.8,0,3.7-0.1,5.5-0.1
				c0.3,0,0.5,0,0.8,0c1,0,1-1.7,0-1.6c-1.8,0.1-3.7,0.1-5.5,0.2c-0.3,0-0.5,0-0.8,0c-0.4,0-0.8,0.3-0.8,0.8
				c0.1,1.9,0.3,3.7,0.4,5.6c0,0.3,0,0.5,0.1,0.8c0,0.4,0.3,0.7,0.7,0.7C361.6,434.9,361.9,434.6,361.9,434.3L361.9,434.3z"/>
		</g>
		<g>
			<path class="st2" d="M367.9,427.7c-0.1-1.1-0.2-2.1-0.4-3.2c-0.3,0.3-0.5,0.5-0.8,0.8c4,0.1,8,0.2,12,0.3c0.6,0,1.2,0,1.7,0
				c1,0,1-1.6,0-1.6c-4-0.1-8-0.2-12-0.2c-0.6,0-1.2,0-1.7,0c-0.4,0-0.8,0.4-0.8,0.8c0.1,1.1,0.3,2.1,0.4,3.2
				C366.6,428.6,368.1,428.6,367.9,427.7L367.9,427.7z"/>
		</g>
		<g>
			<path class="st2" d="M368.9,424.4c-0.6-5.1-1-10.3-1.1-15.4c0-1-1.6-1-1.5,0c0.1,5.2,0.5,10.3,1.2,15.4
				C367.6,425.3,369,425.3,368.9,424.4L368.9,424.4z"/>
		</g>
		<g>
			<path class="st2" d="M370.4,410.4c0.1,2.2,0.2,4.5,0.3,6.7c0.1,1.2,0.1,2.4,0.2,3.6c0.1,1.3,0.1,2.6,0.3,3.9
				c0.1,0.9,1.5,0.6,1.5-0.2c0-1.3-0.2-2.6-0.2-3.8c-0.1-1.2-0.2-2.4-0.2-3.6c-0.2-2.2-0.3-4.4-0.5-6.6
				C371.7,409.5,370.4,409.5,370.4,410.4L370.4,410.4z"/>
		</g>
		<g>
			<path class="st2" d="M294.4,422.1c14.9-1.7,29.8-4.6,44.8-5.3c0.9,0,0.9-1.5,0-1.5c-15,0.7-29.9,3.6-44.8,5.4
				C293.5,420.8,293.5,422.2,294.4,422.1L294.4,422.1z"/>
		</g>
		<g>
			<path class="st2" d="M294.9,427.9c14.3-2,28.7-3.6,42.9-5.7c0.9-0.1,0.5-1.6-0.4-1.4c-14.3,2.1-28.6,3.7-42.9,5.8
				C293.7,426.7,294.1,428,294.9,427.9L294.9,427.9z"/>
		</g>
		<g>
			<path class="st2" d="M294.8,428c7.2,0.5,14.5,0.8,21.8,1c6.8,0.2,13.8,0.5,20.6,0.2c1,0,1-1.5,0-1.5c-6.9-0.2-13.7,0-20.6-0.2
				c-7.3-0.2-14.5-0.5-21.8-1C293.8,426.5,293.8,427.9,294.8,428L294.8,428z"/>
		</g>
		<g>
			<path class="st2" d="M455.6,354c3.6-4.3,10-3.5,14.2-0.5c5.1,3.7,6.8,10.5,7.7,16.4c1.8,12.4,1.7,25.2-0.4,37.5
				c-1.4,7.9-3.1,15.9-6.1,23.4c-1.8,4.4-3.8,8.6-5.9,12.8c-1.7,3.4-3.5,7-6,9.9c-1.8,2.1-4.4,3.9-6.7,5.3c-3,1.9-6.7,3.2-10.1,1.3
				c-4.8-2.6-7.6-9.5-6.9-14.8c0.2-1.3-1.9-1.3-2,0c-0.7,5.1,1.7,11,5.4,14.7c2,1.9,4.5,3.2,7.2,3.2c3.4,0,6.5-1.7,9.2-3.6
				c2-1.4,4.2-2.9,5.8-4.8c1.2-1.5,2.3-3.2,3.3-4.8c2.6-4.5,4.9-9.2,7-13.9c1.6-3.6,3.3-7.4,4.4-11.2c1.3-4.8,2.4-9.7,3.3-14.5
				c2.5-13.2,2.7-26.8,0.9-40.1c-1-6.9-3.1-14.8-9.5-18.7c-4.9-3-12-3.5-15.6,1.7C453.9,353.8,455,354.7,455.6,354L455.6,354z"/>
		</g>
		<g>
			<path class="st2" d="M228.6,396.1c-2.4,0.9-4,3.3-3.7,5.9c0.3,2.8,2.4,5.1,5.4,4.9c2.6-0.1,5.8-1.1,7-3.7c1.2-2.7-0.6-5.5-3-6.7
				c-2.4-1.2-5.9-1.5-7.8,0.9c-0.3,0.4-0.4,0.9,0,1.3c0.3,0.3,0.9,0.4,1.3,0c1.2-1.3,3.1-1.3,4.6-0.8c1.7,0.5,3.8,1.9,3.4,4
				c-0.4,2.1-2.8,2.9-4.6,3.2c-1,0.2-2,0.3-2.9-0.2c-0.8-0.5-1.4-1.4-1.6-2.3c-0.6-2.1,0.6-4.3,2.6-5.1
				C229.9,397.1,229.4,395.8,228.6,396.1L228.6,396.1z"/>
		</g>
		<g>
			<path class="st2" d="M382.8,378.4c7.3,4.2,15.3,7,23.5,8.6c1,0.2,1.4-1.3,0.4-1.5c-8.1-1.6-15.9-4.4-23.2-8.4
				C382.7,376.6,382,377.9,382.8,378.4L382.8,378.4z"/>
		</g>
		<g>
			<path class="st2" d="M377.3,401.2c9.1-1.7,18.5-2.6,27.8-2.9c1,0,1-1.6,0-1.5c-9.4,0.3-18.9,1.2-28.1,3
				C376,400,376.4,401.4,377.3,401.2L377.3,401.2z"/>
		</g>
		<g>
			<path class="st2" d="M404.9,398.4c2.7-0.7,4.5-3.4,4.7-6.1c0.2-2.5-0.3-5.4-2.6-6.8c-0.8-0.5-1.6,0.8-0.8,1.3
				c1.9,1.1,2,3.5,1.9,5.4c-0.2,2.3-1.8,3.9-3.7,4.9C403.7,397.6,404.2,398.6,404.9,398.4L404.9,398.4z"/>
		</g>
		<g>
			<path class="st2" d="M403.9,394c-0.3-1.3-0.2-2.6,0.2-3.8c0.4-1.2,1.3-2.2,2.3-3c0.6-0.5-0.2-1.6-0.9-1.1
				c-2.6,1.8-3.8,5.3-2.9,8.3C402.9,395.2,404.1,394.8,403.9,394L403.9,394z"/>
		</g>
		<g>
			<path class="st2" d="M227.3,404c-1.5-2-2.9-4-4.4-6c-0.3-0.3-0.7-0.5-1.1-0.3c-0.3,0.2-0.5,0.7-0.3,1.1c1.5,2,2.9,4,4.4,6
				c0.2,0.3,0.6,0.5,1,0.3C227.3,404.9,227.5,404.4,227.3,404L227.3,404z"/>
		</g>
		<g>
			<path class="st2" d="M237.2,402.9c1.8-3.5,4.2-6.5,5.9-10c0.4-0.9-0.9-1.7-1.3-0.8c-1.7,3.5-4.1,6.6-5.9,10
				C235.5,403,236.8,403.7,237.2,402.9L237.2,402.9z"/>
		</g>
		<g>
			<path class="st2" d="M184.9,204.4c-8.7,5.3-16.2,13.3-19.9,22.9c-2.1,5.6-2.7,11.6-2.4,17.6c0.4,5.9,1.2,12.1,3.5,17.6
				c2.3,5.4,6.6,8.7,11.1,12.2c4.9,3.8,9.9,7.1,15.8,9.2c6,2.2,12.3,3.8,18.6,5c6.4,1.2,12.7,0.9,19.1,0c6-0.8,12.2-1.6,18-3.8
				c5.6-2.1,10.3-5.6,14.5-9.7c8.3-8.1,15.7-17.7,17.9-29.4c1-5.5,1-11.1-0.2-16.6c-1.3-5.7-3.9-11-7.2-15.9
				c-3.2-4.8-6.8-9.7-11.4-13.1c-4.5-3.2-9.9-5.1-15.2-6.3c-17.7-4.2-37.2-1-53.7,6c-2.9,1.2-5.8,2.6-8.6,4.1
				c-1,0.5-0.1,2.1,0.9,1.5c16.7-9.2,36.8-13.5,55.7-10.7c9,1.3,18.1,4.2,24.3,11.2c7.5,8.4,13.7,18.7,14.3,30.2
				c0.5,11.7-4.3,22.2-11.7,31c-3.6,4.3-7.6,8.4-12.1,11.7c-4.7,3.4-10,5.3-15.7,6.5c-5.9,1.2-12.1,2.2-18.1,2.5
				c-6.4,0.3-12.6-1-18.7-2.6c-5.7-1.5-11.5-3-16.6-5.9c-5-2.8-9.8-6.4-14.1-10.2c-4.5-4-6.4-9-7.6-14.8c-1.2-5.8-1.8-11.9-1.2-17.8
				c1.2-10.6,7.1-19.9,15.2-26.6c2-1.6,4.1-3.1,6.2-4.5C186.4,205.2,185.7,203.9,184.9,204.4L184.9,204.4z"/>
		</g>
		<g>
			<path class="st2" d="M190,188c-1.5-4.5-2.6-9.2-3.4-13.9c-0.1-1-1.6-0.6-1.5,0.4c0.7,4.7,1.9,9.3,3.4,13.9
				C188.9,189.2,190.3,188.9,190,188L190,188z"/>
		</g>
		<g>
			<path class="st2" d="M186.5,175c4-7.6,12.1-11.3,20.3-12.4c6.2-0.8,12.6,0.5,17,5.2c0.7,0.7,1.8-0.4,1.1-1.1
				c-3.1-3.3-7.2-5.3-11.7-5.8c-7.8-0.9-16.9,1.7-22.9,6.8c-2.2,1.8-4,4.1-5,6.8C185.1,175.2,186.2,175.6,186.5,175L186.5,175z"/>
		</g>
		<g>
			<path class="st2" d="M190,188.2c1-7.6,8.5-13.4,15.6-15c4.4-1,9-0.9,13.2,0.9c3.6,1.6,6.5,3.4,8.1,7.3c0.4,1,2,0.6,1.6-0.4
				c-3.5-8.7-14.5-11.3-22.9-9.5c-7.9,1.8-16,8.3-17,16.8C188.4,189.1,189.9,189.1,190,188.2L190,188.2z"/>
		</g>
		<g>
			<path class="st2" d="M223.8,167.7c0.8,0.4,0.9,1.5,1,2.3c0.2,1.2,0.4,2.4,0.7,3.6c0.2,1.2,0.4,2.4,0.7,3.6
				c0.2,1.3,0.5,2.5,0.7,3.8c0.1,1.2,1.9,0.9,1.6-0.2c-0.4-1.4-0.6-2.9-0.8-4.3c-0.3-1.4-0.5-2.8-0.8-4.2c-0.2-1.3-0.4-2.6-0.8-3.9
				c-0.3-1-0.8-1.7-1.7-2.1C223.6,166.1,223.1,167.4,223.8,167.7L223.8,167.7z"/>
		</g>
		<g>
			<path class="st2" d="M226.3,180.1c1.1,2.7,2.5,5.3,4.3,7.6c2,2.6,4.5,5,7.6,6.5c1,0.5,1.9-1,0.9-1.5c-5.3-2.5-9-8-11.4-13.1
				C227.2,178.8,226,179.3,226.3,180.1L226.3,180.1z"/>
		</g>
		<g>
			<path class="st2" d="M185.3,205.7c1.9-2.4,3.8-5,4.9-7.9c0.6-1.5,0.5-3,0.5-4.6c0-1.8-0.1-3.5-0.6-5.3c-0.3-1-1.9-0.6-1.6,0.4
				c0.5,1.6,0.5,3.2,0.6,4.8c0,1.5,0.1,2.8-0.4,4.3c-1,2.7-2.7,5.2-4.3,7.5C183.9,205.6,184.8,206.3,185.3,205.7L185.3,205.7z"/>
		</g>
		<g>
			<path class="st2" d="M218.2,223.7c-1,0.2-1.9,0.8-2.6,1.6c-0.7,0.8-1.3,1.8-1.5,2.9c-0.4,1.9,0.1,4.3,1.7,5.4
				c1,0.7,2.4,0.7,3.5,0.5c1.2-0.2,2.3-0.6,3.2-1.3c1.9-1.4,3-4,2.1-6.4c-0.5-1.2-1.4-2.2-2.6-2.7
				C220.8,223.2,219.4,223.3,218.2,223.7c-1.1,0.2-0.6,1.7,0.4,1.5c1.6-0.4,3.4-0.3,4.3,1.3c0.9,1.5,0.3,3.4-0.9,4.5
				c-0.6,0.6-1.5,1-2.3,1.3c-0.9,0.2-1.9,0.4-2.8,0c-1.2-0.5-1.5-2.3-1.4-3.5c0.1-0.9,0.5-1.6,0.9-2.3c0.5-0.7,1.2-1.3,2.1-1.4
				C219.5,225,219.1,223.6,218.2,223.7L218.2,223.7z"/>
		</g>
		<g>
			<path class="st2" d="M215.7,231.2c-2.1-3.8-4.3-7.5-6.6-11.2c-1.1-1.8-2.2-3.6-3.4-5.4c-0.9-1.5-1.8-3.1-2.9-4.4
				c-0.6-0.7-1.6,0.2-1.3,1c0.7,1.5,1.9,3,2.8,4.4c1.2,1.8,2.3,3.6,3.4,5.4c2.3,3.6,4.5,7.3,6.6,11
				C214.9,232.7,216.1,232,215.7,231.2L215.7,231.2z"/>
		</g>
		<g>
			<path class="st2" d="M224.8,227.6c0.1-4.1,0.2-8.3,0.3-12.4c0.1-4.3,0.5-8.5,1-12.8c0.1-1.1-1.6-1.1-1.7,0
				c-0.4,4.3-0.8,8.5-0.9,12.8c-0.1,4.1-0.1,8.3-0.2,12.4C223.3,228.5,224.7,228.5,224.8,227.6L224.8,227.6z"/>
		</g>
		<g>
			<path class="st2" d="M357.9,258.7c-6.9-7.3-10.1-16.7-10.4-26.6c-0.3-11.6,3.2-22.3,8.3-32.7c2.4-4.9,5.2-9.7,8.8-13.7
				c3.1-3.5,6.7-6.7,10.2-9.7c7.7-6.6,17.2-9.8,26.8-12.3c5.1-1.3,10.5-1.7,15.7-0.5c5.3,1.2,9.6,4.2,13.4,8.2
				c3.8,4,7.5,8.4,9.8,13.4c2.3,4.9,3.5,10.4,3.8,15.8c1.2,20.4-7.8,41.6-23.6,54.6c-7.9,6.5-17.6,10.9-27.7,12.6
				c-9.8,1.6-20.9,0.8-29.4-4.7c-2-1.3-3.9-2.9-5.4-4.7c-0.9-1-2.4,0.5-1.5,1.5c6.9,7.9,17.8,10.7,27.9,10.7c10.8,0,21.6-3.3,30.7-9
				c18.4-11.4,29.6-32.2,31-53.5c0.8-11.5-1.6-22.8-8.8-32c-3.4-4.4-7.3-9-12.1-11.9c-4.5-2.7-9.8-3.9-15-3.8
				c-5.6,0.1-10.8,1.7-16.1,3.3c-5,1.5-9.8,3.4-14.2,6.1c-4.3,2.6-8,6-11.6,9.5c-3.9,3.7-7.4,7.5-10.3,12c-3.1,5-5.7,10.4-7.8,15.8
				c-2.3,5.6-3.9,11.5-4.5,17.6c-0.9,10,0.4,20.6,6,29.2c1.4,2.1,3.1,4.1,4.9,5.8C357.5,260.4,358.5,259.4,357.9,258.7L357.9,258.7z
				"/>
		</g>
		<g>
			<path class="st2" d="M333.4,198.8c1.1,0.8,2.2,1.4,3.2,2.3c1.4,1.2,2.8,2.5,4.1,3.9c2.9,3.1,5.2,6.8,7.4,10.3
				c0.5,0.9,1.9,0.1,1.4-0.8c-4.1-6.4-8.6-13.2-15.4-16.9C333.3,197.1,332.7,198.3,333.4,198.8L333.4,198.8z"/>
		</g>
		<g>
			<path class="st2" d="M317.2,188.3c-2.2-3.5-4.3-7.3-4.5-11.5c-0.2-4.3,1.4-8,4.8-10.6c6.4-5.2,15.7-7.8,23.8-6.3
				c1,0.2,1.4-1.3,0.4-1.5c-8.8-1.6-18.9,1.2-25.7,7c-7.5,6.4-5.1,16.6-0.1,23.7C316.4,189.8,317.7,189.1,317.2,188.3L317.2,188.3z"
				/>
		</g>
		<g>
			<path class="st2" d="M340.9,159.6c2.2,2,5.1,3.4,7.9,4.6c3.4,1.5,6.9,3,10.3,4.6c6.1,2.7,12,5.6,18.9,4.5c1-0.2,0.6-1.7-0.4-1.5
				c-6.9,1.1-13.1-2.3-19.2-5c-5.7-2.5-11.5-4.7-16.6-8.3C341.1,158,340.4,159.1,340.9,159.6L340.9,159.6z"/>
		</g>
		<g>
			<path class="st2" d="M329.2,178.2c0.6-4.7,4.5-7.9,8.2-10.2c2.1-1.3,4.3-2.4,6.7-3.2c1.3-0.4,2.8-0.9,4.2-0.9c1.1,0,1-1.6,0-1.6
				c-1.6-0.1-3.4,0.5-4.9,1c-2.6,0.9-5.1,2.1-7.4,3.6c-4,2.7-7.7,6.2-8.3,11.2C327.7,179.1,329.1,179.1,329.2,178.2L329.2,178.2z"/>
		</g>
		<g>
			<path class="st2" d="M424.8,165.7c2.3-6,4.7-12,9.3-16.7c4.1-4.1,9.8-6.9,15.7-5.9c13.1,2.2,18,17,21.1,28.1
				c6.7,24.6,6.1,52.9-9.7,74.1c-3.7,5-8.9,9.8-15.6,9c-5.6-0.6-10.7-4.7-12.1-10.1c-0.3-1.2-2.2-0.7-1.9,0.5c1.3,5,5.2,8.9,10,10.7
				c5.3,2,10.8,0.8,15.2-2.6c5.1-4,8.9-10,11.8-15.7c3.1-6.1,5.3-12.6,6.6-19.2c2.9-14.4,1.9-29.3-1.6-43.6
				c-3-12.2-7.4-27.7-20.6-32.2c-6.4-2.2-13.1-0.2-18.2,4c-5.8,4.9-9,12.2-11.2,19.3C423.2,166.2,424.5,166.5,424.8,165.7
				L424.8,165.7z"/>
		</g>
		<g>
			<path class="st2" d="M415.9,163c3.1-1.6,5.9-3.7,8.7-5.8c2.8-2.1,5.5-4.3,8-6.7c0.7-0.7-0.4-1.8-1.1-1.1
				c-2.5,2.4-5.2,4.5-7.9,6.6c-2.7,2.1-5.5,4.2-8.5,5.7C414.3,162.1,415.1,163.5,415.9,163L415.9,163z"/>
		</g>
		<g>
			<path class="st2" d="M324.6,179.9c1.1-0.1,2.2-0.4,3.3-0.6c1.1-0.2,2.1-0.5,3.2-0.7c0.9-0.2,0.7-1.6-0.2-1.5
				c-1.1,0-2.2,0.4-3.3,0.6c-1.1,0.2-2.1,0.5-3.2,0.7c-0.4,0.1-0.6,0.5-0.6,0.9C323.9,179.6,324.2,180,324.6,179.9L324.6,179.9z"/>
		</g>
		<g>
			<path class="st2" d="M330.5,178.2c1.3,12.2,3,24.4,5.1,36.6c0.2,1,1.6,0.6,1.5-0.4c-2-12-3.7-24-5.1-36.1
				C331.9,177.2,330.4,177.2,330.5,178.2L330.5,178.2z"/>
		</g>
		<g>
			<path class="st2" d="M323.9,179.2c0.2,5.6,1.1,11.2,1.8,16.7c0.7,5.4,1.5,10.9,2.5,16.2c0.2,1,1.6,0.6,1.5-0.4
				c-1-5.5-1.8-11.1-2.5-16.7c-0.6-5.3-0.9-10.8-1.9-16C325.1,178.2,323.9,178.4,323.9,179.2L323.9,179.2z"/>
		</g>
		<g>
			<path class="st2" d="M316.2,189.2c1.4,1,3,1.8,4.6,2.6c0.7,0.4,1.5,0.8,2.2,1.2c0.9,0.5,1.8,1,2.8,1.4c0.8,0.4,1.6-0.8,0.7-1.3
				c-0.9-0.5-1.8-1-2.7-1.4c-0.8-0.4-1.5-0.8-2.3-1.2c-1.5-0.8-3-1.7-4.6-2.4C316.1,187.8,315.5,188.8,316.2,189.2L316.2,189.2z"/>
		</g>
		<g>
			<path class="st2" d="M271.7,211.5c19,0.9,38.1,1.2,57.2,1.2c1,0,1-1.5,0-1.5c-19.1,0-38.1-0.6-57.2-1.2
				C270.8,210,270.8,211.4,271.7,211.5L271.7,211.5z"/>
		</g>
		<g>
			<path class="st2" d="M276.9,221.5c17.7-0.4,35.4,1.9,53-0.5c0.8-0.1,0.6-1.6-0.2-1.5c-17.5,2.3-35.2,0-52.8,0.4
				C275.9,220,275.9,221.5,276.9,221.5L276.9,221.5z"/>
		</g>
		<g>
			<path class="st2" d="M284.6,228.2c8.6-1.9,17.3-3.9,25.8-6.2c0.9-0.2,0.5-1.7-0.4-1.5c-8.6,2.2-17.2,4.3-25.8,6.2
				C283.3,227,283.7,228.4,284.6,228.2L284.6,228.2z"/>
		</g>
		<g>
			<path class="st2" d="M297.5,231.4c11-1.3,22-3,32.9-5.1c0.9-0.2,0.5-1.6-0.4-1.4c-10.8,2.1-21.6,3.8-32.5,5.1
				C296.6,230,296.6,231.5,297.5,231.4L297.5,231.4z"/>
		</g>
		<g>
			<path class="st2" d="M336.3,215.3c4.2-0.3,8.4,0.2,12.6,0.3c0.9,0,0.9-1.4,0-1.4c-4.2-0.2-8.4-0.7-12.6-0.3
				C335.4,213.9,335.4,215.4,336.3,215.3L336.3,215.3z"/>
		</g>
		<g>
			<path class="st2" d="M330.2,226.2c5.4,0.7,10.8,1.6,16.3,1.9c1,0,1-1.5,0-1.5c-5.5-0.2-10.8-1.4-16.3-1.6
				C329.4,224.9,329.4,226.1,330.2,226.2L330.2,226.2z"/>
		</g>
		<g>
			<path class="st2" d="M310.9,229.6c6,0.7,12,1.4,18,2c5.6,0.6,12.1,2.4,17.2-0.8c0.8-0.5,0.1-1.7-0.7-1.3
				c-5.3,2.8-11.8,1-17.5,0.4c-5.6-0.6-11.3-1.2-16.9-1.8C309.9,228,309.9,229.5,310.9,229.6L310.9,229.6z"/>
		</g>
		<g>
			<path class="st2" d="M287.2,234.8c14.2,1.1,28.5,2,42.7,3.1c-0.3-0.3-0.5-0.5-0.8-0.8c0.3,2.6,0.6,5.2,0.9,7.8
				c0.1,0.5,0.4,0.8,1,0.7c5.7-0.9,11.3-1.8,17-2.7c1-0.2,0.6-1.6-0.4-1.5c-5.7,0.9-11.3,1.8-17,2.7c0.3,0.2,0.6,0.5,1,0.7
				c-0.3-2.6-0.6-5.2-0.9-7.8c0-0.4-0.3-0.7-0.8-0.8c-14.2-1-28.5-2-42.7-3C286.3,233.3,286.3,234.8,287.2,234.8L287.2,234.8z"/>
		</g>
		<g>
			<path class="st2" d="M286.4,234.3c-0.2,4.4,0,8.8,0.1,13.2c0.2,7.5,0.4,15,0.6,22.4c0.3,9.7,0.7,19.5,1.1,29.2
				c0.5,11.3,0.9,22.7,1.4,34c0.5,12.1,1.1,24.3,1.6,36.4c0.5,12.2,1.1,24.4,1.6,36.6c0.5,11.5,1,23,1.5,34.5c0.4,10,0.9,20,1.3,30
				c0.3,7.9,0.6,15.7,0.9,23.6c0.2,4.9,0.4,9.8,0.4,14.7c0,0.7,0,1.3,0,2c0,1.4,2.2,1.4,2.2,0c0-4.1-0.2-8.2-0.3-12.2
				c-0.3-7.2-0.5-14.4-0.9-21.6c-0.4-9.5-0.8-19.1-1.3-28.6c-0.5-11.2-1-22.4-1.5-33.7c-0.5-12.1-1.1-24.2-1.7-36.3
				c-0.6-12.2-1.1-24.5-1.6-36.7c-0.5-11.6-1-23.2-1.5-34.8c-0.4-10.2-0.9-20.4-1.2-30.5c-0.3-8.1-0.6-16.2-0.8-24.3
				c-0.1-5.2-0.3-10.5-0.3-15.7c0-0.8,0-1.5,0-2.3C288.1,233.2,286.5,233.2,286.4,234.3L286.4,234.3z"/>
		</g>
		<g>
			<path class="st2" d="M273.5,445.6c-0.6,10.9,0.4,21.9,1.1,32.7c0.4,5.5,0.8,11,1,16.6c0.2,5.4,0.2,10.8,0.2,16.2
				c0,1.3,1.9,1.3,2,0c0.4-5.3,0-10.8-0.3-16.2c-0.3-5.5-0.7-11.1-1.1-16.6c-0.8-10.9-1.5-21.8-1.5-32.7
				C275,444.6,273.6,444.7,273.5,445.6L273.5,445.6z"/>
		</g>
		<g>
			<path class="st2" d="M266.9,269.6c0.5,23.4,1.4,46.9,2.6,70.3c0.3,6.6,0.6,13.2,1.2,19.8c0.1,1.2,2,1.3,2,0
				c-0.5-11.5-1.5-23-2-34.5c-0.5-11.4-0.9-22.8-1.4-34.2c-0.3-7.1-0.5-14.2-0.9-21.3C268.3,268.7,266.9,268.7,266.9,269.6
				L266.9,269.6z"/>
		</g>
		<g>
			<path class="st2" d="M283.1,97.9c0,14.5,0.4,29,0.7,43.5c0.3,15,0.5,30.1,0.8,45.1c0.1,8.1,0.1,16.2,0.5,24.2c0,1,1.6,1,1.6,0
				c0.1-14.5-0.5-29-0.7-43.5c-0.3-15-0.5-30.1-0.8-45.1c-0.1-8.1-0.2-16.2-0.5-24.2C284.6,97,283.1,97,283.1,97.9L283.1,97.9z"/>
		</g>
		<g>
			<path class="st2" d="M264.7,100.8c0.3,27.7,1.1,55.4,1.7,83.1c0.2,7.6,0.3,15.1,0.5,22.7c0,1,1.6,1,1.6,0
				c-0.7-28.1-1.2-56.1-1.8-84.2c-0.2-7.2-0.3-14.4-0.6-21.6C265.9,100,264.7,99.9,264.7,100.8L264.7,100.8z"/>
		</g>
		<g>
			<path class="st2" d="M265.7,101.4c4.9-3.2,11.1-3.9,16.6-2c0.9,0.3,1.4-1.2,0.4-1.5c-5.9-2-12.6-1.2-17.7,2.3
				C264.2,100.7,264.9,101.9,265.7,101.4L265.7,101.4z"/>
		</g>
		<g>
			<path class="st2" d="M387.6,203.9c-2.3-0.4-4.3,1.3-5.4,3.2c-0.9,1.6-1.4,3.9-0.6,5.6c0.5,0.9,1.4,1.5,2.4,1.6
				c1.1,0.1,2.2-0.4,3.1-1.1c1.5-1.3,2.4-3.3,2.5-5.3C389.7,206.5,389.3,204.1,387.6,203.9c-0.4-0.2-0.8,0-0.9,0.4
				c-0.1,0.3,0,0.8,0.3,1c0.1,0,0.1,0.1,0.2,0.1c0.1,0.1-0.1-0.1,0,0c0,0,0.1,0.1,0.1,0.1c0,0,0,0.1,0.1,0.1c0.1,0.1-0.1-0.1,0,0
				c0.1,0.1,0.1,0.2,0.2,0.3c0.1,0.2,0-0.1,0,0c0,0.1,0,0.1,0.1,0.2c0,0.1,0.1,0.3,0.1,0.4c0,0.1,0.1,0.2,0.1,0.4c0,0.2,0-0.2,0,0.1
				c0,0.1,0,0.2,0,0.3c0.1,1.4-0.3,2.8-1.2,3.9c-0.7,0.9-2.5,2.3-3.5,1c-0.3-0.4-0.3-1.1-0.3-1.6c0-0.7,0.2-1.4,0.5-2.1
				c0.6-1.6,2.2-3.3,4.1-3.1C388.3,205.4,388.5,204,387.6,203.9L387.6,203.9z"/>
		</g>
		<g>
			<path class="st2" d="M362.7,208c3.3,1,6.6,2,9.9,3c3.3,1,6.6,2.1,9.9,2.9c0.9,0.2,1.3-1.1,0.4-1.4c-3.2-1.1-6.6-2-9.9-3
				c-3.3-1-6.6-1.9-9.9-2.9C362.2,206.3,361.8,207.7,362.7,208L362.7,208z"/>
		</g>
		<g>
			<path class="st2" d="M375,189.3c1.8,2.6,3.7,5.2,5.6,7.7c1,1.3,2,2.7,3.1,4c1.1,1.4,2.1,2.9,3.2,4.1c0.6,0.6,1.7-0.2,1.2-1
				c-0.9-1.4-2.1-2.7-3.1-4c-1-1.3-2.1-2.7-3.1-4c-1.9-2.5-3.8-5-5.7-7.5C375.7,187.9,374.5,188.6,375,189.3L375,189.3z"/>
		</g>
		<g>
			<path class="st2" d="M276.2,512.7c3.6,1.9,8,2.6,12,2.6c2,0,4-0.2,6-0.6c1.7-0.3,3.9-0.7,5-2.1c0.7-0.9-0.5-2.1-1.2-1.2
				c-1,1.2-3.2,1.5-4.6,1.8c-1.9,0.4-3.8,0.5-5.7,0.5c-3.8,0-7.3-1-10.9-2.2C275.9,511.2,275.5,512.3,276.2,512.7L276.2,512.7z"/>
		</g>
	</g>
</g>
</svg>
