<?xml version="1.0" encoding="utf-8"?>
<!-- Generator: Adobe Illustrator 19.2.0, SVG Export Plug-In . SVG Version: 6.00 Build 0)  -->
<svg version="1.1" id="Layer_1" xmlns="http://www.w3.org/2000/svg" xmlns:xlink="http://www.w3.org/1999/xlink" x="0px" y="0px"
	 viewBox="0 0 170 40" style="enable-background:new 0 0 170 40;" xml:space="preserve">
<style type="text/css">
	.st0{fill:#333333;}
</style>
<g id="layout">
</g>
<g id="titulos">
	<g>
		<g>
			<path class="st0" d="M10,28.2l1.5-0.2l6.6-18.9h4.5L29.2,28l1.5,0.2v2.6h-7.4v-2.6l1.5-0.3l-1-3h-7l-1,3l1.5,0.3v2.6H10V28.2z
				 M17.9,21.8h5l-2.4-7.6h-0.1L17.9,21.8z"/>
			<path class="st0" d="M41.9,9.2c2.5,0,4.4,0.6,5.8,1.7s2.1,2.7,2.1,4.7c0,1.1-0.3,2-0.9,2.8c-0.6,0.8-1.4,1.5-2.6,2
				c1.3,0.4,2.2,1,2.8,1.9s0.8,2,0.8,3.3v1.1c0,0.5,0.1,0.8,0.3,1.1c0.2,0.3,0.5,0.4,0.9,0.5l0.5,0.1V31h-2.2c-1.4,0-2.4-0.4-3-1.1
				c-0.6-0.8-0.9-1.8-0.9-3v-1.2c0-1.1-0.3-1.9-0.8-2.5c-0.6-0.6-1.4-0.9-2.4-0.9h-3.6V28l2.3,0.4V31h-9v-2.6l2.3-0.4V12.2L32,11.8
				V9.2h2.3H41.9z M38.8,18.7h3c1.2,0,2.1-0.3,2.7-0.8c0.6-0.5,0.9-1.3,0.9-2.2s-0.3-1.8-0.9-2.3c-0.6-0.6-1.5-0.9-2.7-0.9h-3.1
				L38.8,18.7L38.8,18.7z"/>
			<path class="st0" d="M62.9,9.2c2.5,0,4.4,0.6,5.8,1.7s2.1,2.7,2.1,4.7c0,1.1-0.3,2-0.9,2.8c-0.6,0.8-1.4,1.5-2.6,2
				c1.3,0.4,2.2,1,2.8,1.9c0.6,0.9,0.8,2,0.8,3.3v1.1c0,0.5,0.1,0.8,0.3,1.1c0.2,0.3,0.5,0.4,0.9,0.5l0.5,0.1V31h-2.2
				c-1.4,0-2.4-0.4-3-1.1c-0.6-0.8-0.9-1.8-0.9-3v-1.2c0-1.1-0.3-1.9-0.8-2.5c-0.6-0.6-1.4-0.9-2.4-0.9h-3.6V28l2.3,0.4V31h-9v-2.6
				l2.3-0.4V12.2L53,11.8V9.2h2.3H62.9z M59.8,18.7h3c1.2,0,2.1-0.3,2.7-0.8s0.9-1.3,0.9-2.2s-0.3-1.8-0.9-2.3
				c-0.6-0.6-1.5-0.9-2.7-0.9h-3.1L59.8,18.7L59.8,18.7z"/>
			<path class="st0" d="M88.1,21.3h-7.3v6.2h7l0.2-2.6h3.3v5.9H74.1v-2.6l2.3-0.4V12.2l-2.3-0.4V9.2h2.3h14.8v5.9h-3.3l-0.2-2.6
				h-6.9V18h7.3C88.1,18,88.1,21.3,88.1,21.3z"/>
			<path class="st0" d="M111.4,16.5h-3.2l-0.4-2.9c-0.4-0.4-1-0.8-1.6-1c-0.7-0.2-1.4-0.4-2.3-0.4c-1.9,0-3.3,0.7-4.4,2.1
				c-1,1.4-1.5,3.2-1.5,5.4v0.8c0,2.2,0.5,4,1.5,5.4s2.4,2.1,4.3,2.1c0.9,0,1.6-0.1,2.3-0.4c0.7-0.2,1.3-0.6,1.6-1l0.4-2.9h3.2V28
				c-0.9,1-2,1.8-3.3,2.4c-1.4,0.6-2.9,0.9-4.6,0.9c-2.9,0-5.3-1-7.2-3c-1.9-2-2.8-4.6-2.8-7.8v-0.7c0-3.1,0.9-5.7,2.8-7.8
				c1.8-2,4.2-3,7.2-3c1.7,0,3.2,0.3,4.5,0.9c1.4,0.6,2.5,1.4,3.4,2.4L111.4,16.5L111.4,16.5z"/>
			<path class="st0" d="M113.3,11.8V9.2h9v2.6l-2.3,0.4v15.6l2.3,0.4v2.6h-9v-2.6l2.3-0.4V12.2L113.3,11.8z"/>
			<path class="st0" d="M124,28.2l2.3-0.4V12.2l-2.3-0.4V9.2h17.3v5.9H138l-0.2-2.6h-7.1v6h7.6v3.4h-7.6v6l2.3,0.4v2.6h-9V28.2z"/>
			<path class="st0" d="M156.8,21.3h-7.3v6.2h7l0.2-2.6h3.3v5.9h-17.2v-2.6l2.3-0.4V12.2l-2.3-0.4V9.2h2.3H160v5.9h-3.3l-0.2-2.6
				h-6.9V18h7.3v3.3H156.8z"/>
		</g>
	</g>
</g>
</svg>
